<?xml version="1.0" standalone="no"?>
<!DOCTYPE svg PUBLIC "-//W3C//DTD SVG 20010904//EN"
 "http://www.w3.org/TR/2001/REC-SVG-20010904/DTD/svg10.dtd">
<svg version="1.0" xmlns="http://www.w3.org/2000/svg"
 width="1280.000000pt" height="720.000000pt" viewBox="0 0 1280.000000 720.000000"
 preserveAspectRatio="xMidYMid meet">
<metadata>
Created by potrace 1.16, written by Peter Selinger 2001-2019
</metadata>
<g transform="translate(0.000000,720.000000) scale(0.100000,-0.100000)"
fill="#000000" stroke="none">
<path d="M6280 7191 c-35 -9 -80 -41 -80 -57 0 -8 -4 -14 -10 -14 -5 0 -10 -9
-10 -20 0 -27 -22 -73 -42 -88 -10 -7 -18 -22 -18 -33 0 -10 -3 -19 -7 -19 -9
0 -33 -49 -33 -67 0 -7 -7 -13 -15 -13 -8 0 -17 -15 -21 -37 -4 -21 -20 -72
-35 -113 -40 -105 -66 -208 -84 -330 -8 -58 -19 -116 -23 -130 -18 -53 -45
-110 -54 -110 -4 0 -8 -9 -8 -20 0 -11 -7 -23 -15 -26 -8 -3 -22 -30 -32 -60
-9 -30 -20 -54 -25 -54 -4 0 -8 -9 -8 -19 0 -10 -7 -21 -15 -25 -10 -4 -15
-20 -15 -51 0 -31 -8 -58 -25 -85 -14 -22 -25 -44 -25 -50 0 -5 -3 -10 -8 -10
-23 0 -60 -142 -76 -295 -32 -295 -48 -420 -56 -425 -5 -3 -10 -23 -12 -45 -3
-39 -4 -40 -45 -43 l-43 -3 0 45 0 45 -297 5 c-437 8 -1028 24 -1103 30 -36 3
-282 7 -547 9 l-483 4 0 -184 0 -183 203 0 c111 0 231 4 267 9 36 5 239 13
453 17 339 6 387 5 387 -8 0 -11 17 -17 61 -22 90 -9 96 -8 118 15 16 18 22
19 40 7 12 -7 21 -18 21 -25 0 -16 77 -18 82 -2 3 9 107 9 406 3 221 -5 402
-6 402 -1 0 4 -74 7 -165 7 -114 0 -165 3 -165 11 0 8 -24 9 -80 4 -54 -5 -80
-4 -80 3 0 6 -19 12 -42 14 -24 2 83 2 237 0 154 -3 281 -9 283 -13 2 -4 10
-5 18 -2 12 4 13 -8 8 -73 -4 -44 -11 -87 -16 -96 -4 -10 -11 -140 -15 -290
-3 -150 -10 -278 -15 -285 -5 -7 -7 -17 -3 -23 3 -5 3 -19 0 -30 -6 -18 -13
-19 -58 -15 -96 10 -438 12 -443 3 -3 -5 -12 -4 -19 2 -11 9 -23 8 -50 -1 -29
-11 -34 -16 -28 -34 11 -29 5 -195 -8 -227 -8 -19 -8 -37 -1 -60 6 -18 9 -103
7 -190 -2 -129 0 -158 11 -158 8 0 14 9 14 21 0 12 8 23 20 26 11 3 20 9 20
14 0 5 9 9 20 9 14 0 20 7 20 21 0 16 4 19 18 14 9 -4 27 -7 40 -6 18 1 22 -4
22 -29 0 -17 5 -30 10 -30 6 0 10 -7 10 -15 0 -8 -8 -15 -19 -15 -10 0 -21 -9
-24 -21 -3 -11 -15 -23 -26 -26 -12 -3 -22 -9 -22 -14 -1 -5 -2 -13 -3 -18 -2
-19 -16 -24 -31 -11 -11 9 -18 10 -28 1 -16 -13 -27 -5 -27 21 0 17 -29 27
-31 11 0 -5 -2 -25 -4 -47 l-4 -39 49 6 c33 4 50 2 50 -5 0 -7 5 -6 15 2 14
12 285 21 285 10 0 -3 60 -4 132 -2 167 4 159 5 183 -1 17 -4 23 -31 11 -44
-1 -2 -55 -6 -120 -9 -142 -9 -624 15 -634 30 -4 6 -6 72 -4 146 10 648 10
740 2 690 -7 -44 -21 -506 -24 -805 -1 -43 -5 -62 -16 -66 -8 -4 -399 -4 -867
-1 l-853 5 0 -21 c0 -21 5 -22 138 -25 l137 -3 -137 -2 c-129 -2 -138 -3 -138
-22 0 -16 8 -19 58 -22 54 -3 57 -4 60 -30 3 -28 3 -28 -57 -28 -54 0 -61 -2
-61 -20 0 -18 7 -20 55 -20 l55 0 0 -95 0 -95 -32 0 c-71 0 -78 -7 -78 -71 0
-48 3 -57 15 -53 8 4 15 1 15 -5 0 -6 -7 -11 -15 -11 -11 0 -15 -11 -15 -40 0
-35 3 -40 24 -40 22 0 24 -5 31 -77 4 -49 3 -79 -3 -81 -5 -1 -8 -12 -5 -22 3
-11 0 -20 -6 -20 -6 0 -11 5 -11 11 0 8 -5 8 -15 -1 -11 -9 -15 -32 -15 -81 0
-61 2 -69 19 -69 18 0 68 -48 89 -86 8 -15 13 -16 25 -6 8 7 18 23 21 36 6 23
36 45 36 26 0 -6 18 -10 40 -10 22 0 40 -4 40 -10 0 -5 8 -10 18 -10 13 0 23
13 32 40 13 40 30 54 30 25 0 -11 11 -15 37 -15 30 0 43 -7 75 -42 37 -40 39
-41 53 -22 7 10 17 36 20 57 8 42 26 48 43 14 l11 -22 0 23 c1 12 3 22 6 22
15 0 75 -72 75 -90 0 -11 5 -20 10 -20 6 0 10 6 10 14 0 8 3 16 8 18 4 2 15
20 24 40 17 37 19 38 73 38 l55 0 27 -57 c27 -58 27 -58 31 -25 2 18 15 44 30
59 25 25 34 27 122 30 52 1 87 0 78 -3 -24 -7 -26 -84 -3 -84 8 0 15 4 15 9 0
12 59 71 70 71 5 0 11 -6 13 -12 4 -10 6 -10 6 0 1 6 7 12 15 12 9 0 17 -17
21 -47 l8 -48 14 55 14 55 239 0 c132 0 240 -3 240 -6 0 -4 29 -4 64 -2 88 8
112 0 125 -39 l12 -33 19 25 c11 14 20 33 20 44 0 14 5 17 23 12 12 -3 30 -6
40 -6 9 0 17 -7 17 -15 0 -11 11 -15 40 -15 27 0 40 4 40 14 0 18 152 34 158
17 2 -6 10 -11 18 -11 8 0 14 -7 14 -15 0 -8 5 -15 10 -15 6 0 10 7 10 15 0 8
7 15 15 15 8 0 15 5 15 10 0 14 77 13 82 -2 3 -9 12 -9 38 0 40 15 226 16 235
2 3 -5 16 -10 28 -10 18 0 26 -10 40 -49 9 -27 17 -58 17 -69 0 -12 7 -47 16
-79 9 -32 20 -82 24 -110 5 -29 15 -72 23 -95 8 -24 25 -74 37 -113 13 -38 30
-88 40 -110 10 -22 27 -75 39 -118 12 -43 31 -92 41 -110 11 -18 20 -40 20
-49 0 -9 25 -83 55 -165 88 -238 98 -307 49 -336 -8 -4 -14 -15 -14 -22 0 -8
-4 -15 -10 -15 -5 0 -10 -4 -10 -10 0 -23 -67 -70 -98 -70 -11 0 -27 -9 -37
-20 -10 -11 -26 -22 -36 -25 -11 -4 -19 -12 -19 -19 0 -9 -23 -16 -72 -20 -85
-8 -160 -40 -176 -75 -38 -81 5 -103 196 -101 85 0 132 -3 132 -10 0 -6 -33
-11 -82 -11 l-83 -2 83 -10 c45 -5 82 -14 82 -18 0 -5 9 -9 20 -9 17 0 20 -7
20 -40 l0 -40 60 0 60 0 0 -40 c0 -36 -2 -40 -25 -40 -22 0 -25 -4 -25 -40 l0
-40 -95 0 -95 0 0 -40 0 -40 280 0 280 0 0 99 0 98 -120 13 c-116 13 -162 30
-80 30 29 0 40 4 40 15 0 11 11 15 40 15 29 0 40 -4 40 -15 0 -11 12 -15 44
-15 l44 0 7 79 c5 54 11 81 21 85 8 3 14 12 14 19 0 8 7 20 15 27 27 23 18 40
-22 41 -41 0 -94 17 -60 18 9 1 17 6 17 11 0 6 9 10 20 10 11 0 23 7 26 15 4
8 12 15 18 15 16 0 36 43 36 75 0 30 -41 159 -52 163 -4 2 -8 8 -8 13 0 6 -9
29 -20 51 -11 23 -20 54 -20 70 0 15 -4 28 -10 28 -5 0 -10 14 -10 31 0 17 -7
61 -15 98 -16 74 -33 163 -45 231 -4 25 -15 83 -24 130 -9 47 -21 109 -26 138
-19 103 -34 167 -40 172 -3 3 -15 40 -25 83 -10 42 -22 77 -26 77 -4 0 -10 19
-14 42 -11 72 -28 118 -42 118 -9 0 -13 13 -13 39 0 37 1 39 44 50 25 6 115
11 200 11 146 0 155 -1 161 -20 3 -11 6 -84 5 -162 -4 -327 -3 -407 7 -478 65
-461 71 -556 60 -875 -5 -143 2 -211 26 -242 5 -7 6 -45 2 -88 -7 -69 -6 -75
11 -75 14 0 8 -10 -24 -43 l-42 -43 0 -77 0 -77 169 0 168 0 7 61 c9 88 8 99
-9 99 -8 0 -15 9 -15 20 0 17 -7 20 -40 20 -28 0 -40 4 -40 14 0 10 -14 16
-42 19 -24 2 12 4 80 5 l122 2 0 40 c0 22 -4 40 -10 40 -5 0 -10 18 -10 40 0
22 -4 40 -10 40 -5 0 -10 7 -10 15 0 13 18 20 42 16 4 0 26 6 49 14 23 8 57
15 75 15 76 0 17 41 -86 60 -83 15 -120 29 -120 45 0 21 86 43 190 50 115 8
273 59 295 95 3 5 13 10 21 10 20 0 54 36 54 57 0 29 -70 57 -119 48 -22 -4
-41 -11 -41 -16 0 -5 -7 -9 -15 -9 -8 0 -24 -5 -35 -12 -19 -12 -89 -1 -145
22 -11 4 -42 16 -70 26 -27 10 -56 24 -63 31 -7 7 -20 13 -27 13 -7 0 -22 24
-32 53 -21 57 -20 113 8 602 14 243 16 424 7 559 -3 49 -4 94 -2 101 4 9 71
10 263 7 255 -5 351 0 351 18 0 6 -123 8 -301 7 -262 -2 -338 2 -299 15 7 2 6
72 -3 213 -15 229 -10 286 26 309 27 17 115 36 169 36 l41 0 -7 74 c-4 40 -11
87 -15 104 -5 17 -14 100 -20 184 -12 172 -95 718 -131 868 -18 74 -29 139
-41 245 -6 55 -15 109 -19 120 -14 32 -25 166 -19 215 4 40 6 41 10 15 l4 -30
110 -5 c61 -3 118 -2 128 3 11 5 17 19 17 42 l0 35 -67 2 c-38 2 -99 3 -137 3
l-70 0 -8 34 c-5 18 -8 45 -6 59 l3 25 435 -2 c239 -1 438 -5 443 -8 5 -3 18
-26 29 -52 10 -25 27 -61 36 -80 19 -40 20 -135 2 -157 -7 -8 -25 -14 -40 -14
-16 0 -30 -3 -32 -8 -3 -9 -100 -49 -205 -86 -100 -35 -113 -45 -113 -83 0
-31 2 -33 38 -35 20 -1 56 -1 80 1 23 1 42 -2 42 -6 0 -8 -99 -38 -144 -45
-11 -2 -21 -8 -23 -14 -6 -17 66 -25 127 -14 30 6 82 13 115 16 33 3 74 12 92
20 17 8 34 14 37 14 3 0 18 12 33 26 15 14 35 32 44 40 9 8 26 14 38 14 34 0
61 74 61 166 0 49 -4 74 -11 74 -8 0 -10 17 -6 58 7 62 -22 342 -35 342 -4 0
-8 18 -8 40 0 22 -4 40 -9 40 -5 0 -12 17 -16 37 -4 21 -10 40 -13 43 -11 8
-42 70 -42 83 0 22 -55 117 -67 117 -7 0 -13 9 -13 20 0 11 -7 20 -15 20 -8 0
-26 11 -40 25 -14 14 -25 32 -25 40 0 8 -9 15 -19 15 -10 0 -21 7 -25 15 -3 8
-12 15 -21 15 -8 0 -15 6 -15 13 0 6 -27 32 -60 56 -33 24 -60 47 -60 52 0 5
-9 9 -20 9 -11 0 -20 3 -20 8 0 4 -18 16 -40 26 -22 11 -40 25 -40 33 0 7 -10
13 -21 13 -12 0 -39 18 -60 40 -22 22 -43 40 -49 40 -5 0 -10 5 -10 10 0 12
-79 90 -91 90 -5 0 -9 6 -9 14 0 8 -6 16 -14 19 -7 3 -13 17 -13 32 0 15 6 29
13 32 23 9 16 33 -10 33 -37 0 -56 -10 -56 -31 0 -22 -18 -24 -55 -7 -34 15
-34 41 0 32 14 -3 25 -3 25 1 0 17 -22 45 -35 45 -8 0 -15 6 -15 13 0 12 -44
37 -67 37 -8 0 -13 13 -13 35 0 18 -6 38 -12 42 -15 9 -36 41 -44 66 -4 9 -10
17 -15 17 -5 0 -9 7 -9 15 0 15 -19 55 -31 65 -11 10 -59 197 -65 258 -4 34
-10 62 -14 62 -4 0 -10 17 -14 38 -3 20 -13 50 -21 66 -8 15 -15 35 -15 42 0
8 -4 14 -10 14 -5 0 -10 6 -10 13 0 8 -17 40 -38 73 -21 32 -49 80 -62 107
-13 26 -26 47 -29 47 -4 0 -17 18 -31 40 -14 22 -33 40 -42 40 -10 0 -18 7
-18 15 0 41 -190 79 -280 56z m375 -333 c31 -77 37 -93 46 -122 9 -32 -9 -176
-23 -176 -4 0 -8 -17 -8 -38 0 -21 -7 -47 -15 -58 -13 -17 -14 -14 -15 39 0
31 4 57 9 57 4 0 3 18 -2 40 -6 22 -15 40 -19 40 -4 0 -8 20 -8 45 0 33 4 45
15 45 21 0 19 17 -10 94 -30 79 -30 76 -7 76 13 0 25 -14 37 -42z m605 -1383
c35 -19 72 -35 81 -35 10 0 19 -4 21 -9 4 -12 136 -111 147 -111 5 0 11 -9 14
-20 3 -11 13 -20 24 -20 10 0 34 -14 53 -30 19 -17 45 -33 58 -36 12 -4 22
-10 22 -15 0 -5 17 -17 38 -28 20 -10 56 -38 80 -62 l42 -43 0 -77 c0 -43 5
-81 10 -84 23 -14 7 -25 -40 -25 -38 0 -50 4 -50 15 0 13 -29 15 -200 15 -171
0 -200 -2 -200 -15 0 -12 -20 -15 -120 -15 -100 0 -120 3 -120 15 0 11 -11 15
-40 15 l-40 0 0 65 c0 37 -4 65 -10 65 -13 0 -13 300 -1 332 23 56 112 132
161 137 3 0 34 -15 70 -34z m-205 -644 c3 -5 1 -12 -5 -16 -5 -3 -10 1 -10 9
0 18 6 21 15 7z m-2400 -21 c50 -19 23 -35 -59 -36 -59 -1 -79 3 -83 14 -3 8
0 18 8 23 19 12 102 11 134 -1z m65 -60 c0 -5 -4 -10 -9 -10 -6 0 -13 5 -16
10 -3 6 1 10 9 10 9 0 16 -4 16 -10z m3045 -440 c-3 -5 -12 -7 -20 -3 -21 7
-19 13 6 13 11 0 18 -4 14 -10z m-2605 -510 c0 -6 -13 -9 -30 -8 -16 1 -30 6
-30 10 0 4 14 8 30 8 17 0 30 -5 30 -10z m261 -3 c-1 -4 -1 -14 -1 -22 0 -10
-10 -15 -27 -15 -16 0 -37 -7 -47 -15 -24 -18 -36 -19 -36 -2 0 6 21 24 48 39
45 26 64 31 63 15z m-287 -59 c6 -25 4 -28 -19 -26 -14 1 -25 8 -25 15 0 7 7
10 15 7 11 -4 15 0 15 17 0 28 5 23 14 -13z m32 -25 c-10 -10 -19 5 -10 18 6
11 8 11 12 0 2 -7 1 -15 -2 -18z m58 18 c3 -5 -1 -11 -9 -15 -9 -3 -15 0 -15
9 0 16 16 20 24 6z m-264 -11 c0 -13 -11 -13 -30 0 -12 8 -11 10 8 10 12 0 22
-4 22 -10z m90 0 c0 -5 -4 -10 -9 -10 -6 0 -13 5 -16 10 -3 6 1 10 9 10 9 0
16 -4 16 -10z m194 -97 c4 -9 3 -20 -2 -25 -11 -11 -42 1 -42 16 0 29 34 36
44 9z m293 -29 c-3 -3 -12 -4 -20 -2 -11 2 -12 9 -5 28 l10 25 11 -23 c5 -12
8 -25 4 -28z m-502 16 c3 -5 -1 -10 -10 -10 -9 0 -13 5 -10 10 3 6 8 10 10 10
2 0 7 -4 10 -10z m100 0 c4 -6 -6 -10 -22 -9 -25 0 -26 1 -8 9 11 5 21 9 22 9
1 1 5 -3 8 -9z m-54 -93 c-10 -9 -11 -8 -5 6 3 10 9 15 12 12 3 -3 0 -11 -7
-18z m144 13 c3 -5 2 -10 -3 -10 -6 0 -8 -9 -5 -20 4 -15 0 -20 -15 -20 -18 0
-19 3 -9 30 12 31 21 37 32 20z m-80 -49 c-8 -13 -45 -15 -45 -2 0 5 10 11 23
13 27 5 31 3 22 -11z m-205 5 c0 -11 -19 -15 -25 -6 -3 5 1 10 9 10 9 0 16 -2
16 -4z m125 -6 c-3 -5 -15 -10 -25 -10 -10 0 -22 5 -25 10 -4 6 7 10 25 10 18
0 29 -4 25 -10z m253 -132 c7 -7 12 -26 12 -43 0 -17 5 -36 12 -43 9 -9 8 -12
-8 -12 -37 0 -52 21 -47 68 5 44 11 50 31 30z m52 -45 c0 -7 -4 -13 -10 -13
-5 0 -10 12 -10 28 0 21 2 24 10 12 5 -8 10 -21 10 -27z m165 7 c-5 -8 -11 -8
-17 -2 -6 6 -7 16 -3 22 5 8 11 8 17 2 6 -6 7 -16 3 -22z m-321 -29 c-6 -6
-24 19 -24 34 1 6 7 1 15 -9 8 -11 12 -22 9 -25z m214 15 c-13 -14 -28 -12
-28 5 0 5 9 9 20 9 17 0 19 -2 8 -14z m-8 -36 c0 -5 -14 -10 -31 -10 -17 0
-28 4 -24 10 3 6 17 10 31 10 13 0 24 -4 24 -10z m-1853 -234 c9 -8 -197 -6
-219 2 -10 4 34 6 98 6 63 -1 117 -4 121 -8z m330 2 c2 -5 -34 -8 -81 -8 -53
0 -86 4 -86 10 0 13 159 10 167 -2z m-239 -5 c-16 -2 -40 -2 -55 0 -16 2 -3 4
27 4 30 0 43 -2 28 -4z m-378 -68 c0 -23 -3 -25 -49 -25 -52 0 -65 8 -55 34 4
12 20 16 55 16 46 0 49 -2 49 -25z m240 11 c0 -25 -22 -31 -108 -32 -85 -1
-96 3 -86 30 9 22 194 24 194 2z m373 -11 c3 -15 -142 -19 -159 -4 -7 6 -12
14 -10 18 6 10 166 -3 169 -14z m1107 -16 c0 -26 -3 -29 -20 -24 -11 3 -20 2
-20 -4 0 -10 -177 -20 -455 -24 l-170 -2 -3 35 c-2 21 2 38 11 45 9 6 124 9
335 7 l322 -3 0 -30z m398 1 c4 -56 -7 -64 -72 -53 -31 6 -56 7 -56 3 0 -4
-11 -7 -24 -7 -19 0 -26 6 -31 29 -9 41 8 56 68 61 106 8 112 6 115 -33z m124
-10 c-2 -25 -7 -46 -12 -48 -6 -2 -10 -21 -10 -42 0 -28 5 -39 19 -43 15 -4
19 -15 19 -63 1 -33 -1 -76 -4 -97 l-6 -38 -46 3 -47 3 -3 70 c-5 100 6 179
22 166 15 -13 26 -4 26 21 0 13 -7 18 -25 18 -23 0 -25 4 -25 43 0 24 3 47 7
51 4 4 25 6 48 4 l40 -3 -3 -45z m-1842 25 c0 -12 -13 -15 -60 -15 -47 0 -60
3 -60 15 0 12 13 15 60 15 47 0 60 -3 60 -15z m458 3 c-3 -9 -33 -14 -93 -16
-93 -3 -120 1 -110 18 10 16 208 13 203 -2z m162 -33 c0 -38 -3 -45 -20 -45
-16 0 -20 7 -20 30 0 17 -3 29 -7 29 -29 -5 -62 3 -67 16 -4 12 5 15 54 15
l60 0 0 -45z m868 7 c3 -29 1 -32 -20 -28 -13 3 -42 5 -65 5 -41 1 -43 2 -43
31 l0 31 63 -3 62 -3 3 -33z m-1030 -163 c-2 -38 -9 -74 -15 -80 -20 -20 -171
-9 -185 13 -13 21 -10 136 4 144 7 5 48 9 91 10 43 1 81 5 85 8 14 15 24 -31
20 -95z m-858 1 l0 -78 -55 -4 -55 -3 0 72 c0 97 1 99 60 95 l50 -4 0 -78z
m226 24 c3 -19 3 -49 0 -66 -6 -33 -7 -33 -69 -36 -34 -1 -72 -4 -84 -6 -15
-3 -23 2 -27 17 -8 31 -7 120 2 134 11 17 112 21 144 5 19 -9 29 -24 34 -48z
m766 48 c7 -7 14 -51 16 -107 4 -90 3 -95 -16 -95 -13 0 -22 9 -26 24 -8 31
-37 29 -53 -4 -12 -24 -12 -24 -13 15 -2 63 1 169 5 176 7 10 74 4 87 -9z m99
-42 c5 0 9 10 9 23 1 21 2 21 14 4 11 -14 35 -19 130 -24 109 -6 116 -5 117
13 1 18 2 18 6 1 3 -13 11 -17 23 -14 10 3 27 -1 38 -8 13 -10 60 -14 150 -16
l132 -2 0 -79 c0 -43 -3 -78 -7 -78 -5 0 -6 25 -5 55 3 35 0 55 -7 55 -6 0
-11 -19 -11 -44 l0 -44 -242 -7 c-202 -6 -284 -5 -380 4 -10 1 -10 112 -1 177
l7 49 9 -32 c6 -18 14 -33 18 -33z m1018 -70 c1 -86 -5 -116 -25 -124 -21 -8
-164 5 -164 15 0 5 39 10 88 11 l87 2 -83 3 -82 4 1 62 c3 86 9 95 60 91 46
-4 79 9 79 32 0 8 5 12 10 9 6 -3 11 2 11 12 3 43 17 -49 18 -117z m-1746 111
l37 -1 0 -74 0 -74 -57 -5 c-32 -2 -59 -3 -61 -2 -7 7 -14 115 -9 137 5 18 13
24 29 22 13 -1 40 -3 61 -3z m235 -5 c15 -9 16 -132 2 -141 -6 -4 -43 -7 -83
-7 l-72 -1 -3 65 c-2 46 1 70 11 79 14 15 124 18 145 5z m1752 -56 c11 -11 29
-20 40 -20 11 0 26 -10 34 -22 16 -25 37 -124 28 -133 -3 -3 -38 -5 -77 -5
l-72 0 -7 31 c-8 40 -8 133 0 153 8 22 30 20 54 -4z m905 1 l70 -17 1 -230 c0
-126 -2 -235 -4 -242 -3 -10 -15 -12 -40 -7 -22 4 -38 2 -42 -5 -9 -14 -127
-25 -165 -16 -29 7 -25 26 6 26 20 0 20 4 14 128 -4 70 -8 132 -10 139 -5 16
21 20 84 11 72 -9 121 10 121 46 0 24 -3 26 -45 26 -34 0 -45 -4 -45 -16 0
-13 -12 -15 -72 -12 l-73 3 -5 73 c-3 41 -3 78 0 82 3 4 18 8 35 8 16 0 31 5
33 11 5 16 55 13 137 -8z m-1405 -12 c0 -6 7 -9 15 -5 11 4 15 -1 14 -17 0
-12 -3 -16 -6 -9 -2 6 -9 12 -14 12 -13 0 -11 -117 2 -126 20 -12 -7 -19 -55
-16 -57 5 -61 22 -6 22 l40 0 0 45 0 45 -42 2 -43 1 43 4 c53 5 55 23 2 23
-29 0 -40 4 -40 15 0 11 12 15 45 15 26 0 45 -5 45 -11z m1158 -71 l-3 -83
-30 0 -30 0 -3 68 c-3 76 7 97 45 97 23 0 24 -1 21 -82z m-1128 -18 c0 -22 -4
-40 -10 -40 -5 0 -10 18 -10 40 0 22 5 40 10 40 6 0 10 -18 10 -40z m-210 -70
c-9 -6 -125 -9 -285 -8 -148 0 -250 4 -225 8 72 11 527 11 510 0z m1338 -193
c2 -125 0 -147 -12 -147 -19 0 -38 34 -30 54 3 9 1 61 -6 116 -7 55 -10 106
-7 113 3 8 16 13 29 12 23 -2 23 -2 26 -148z m73 38 c3 -82 0 -100 -11 -100
-12 0 -16 20 -18 94 -1 52 0 101 3 109 13 34 24 -8 26 -103z m-2238 -45 c-1
-57 -5 -110 -7 -117 -6 -14 -116 -19 -117 -5 -6 90 -7 174 -2 200 l6 34 61 -4
61 -4 -2 -104z m-243 27 c0 -51 -3 -64 -20 -75 -14 -8 -20 -23 -20 -47 0 -34
-1 -35 -39 -35 -32 0 -40 4 -45 23 -9 33 -7 170 3 185 5 9 23 13 49 11 23 -2
44 0 48 4 16 15 24 -8 24 -66z m797 -24 c-6 -52 -15 -93 -21 -94 -16 -1 26
-17 47 -18 15 -1 17 9 17 78 l0 79 48 4 c53 5 81 0 62 -12 -7 -5 -1 -10 17
-14 54 -14 73 -33 73 -76 0 -21 -5 -42 -10 -45 -16 -10 -1 -25 26 -25 21 0 24
5 24 34 0 62 13 156 21 156 5 0 9 -42 9 -94 l0 -95 -57 -11 c-40 -9 -126 -11
-283 -6 -124 3 -249 6 -277 6 l-53 0 0 96 0 96 40 -4 c22 -2 41 1 43 7 2 5 7
-26 12 -70 5 -55 4 -80 -4 -83 -6 -2 -11 -10 -11 -18 0 -10 12 -14 40 -14 l40
0 0 95 0 95 95 0 c77 0 97 3 102 15 11 30 11 10 0 -82z m-1018 73 c10 -7 12
-24 7 -75 -13 -130 -11 -126 -67 -127 l-49 -2 0 93 c0 52 2 99 5 107 6 15 81
18 104 4z m607 -6 c11 0 14 -17 14 -77 0 -85 -11 -116 -32 -95 -9 9 -9 12 4
12 11 0 15 6 11 21 -4 16 -8 17 -14 7 -5 -7 -8 22 -8 72 0 47 3 79 6 73 2 -7
11 -13 19 -13z m1100 5 c12 -11 13 -33 8 -110 l-7 -95 -83 0 -84 0 0 100 0
100 40 0 c34 0 40 -3 40 -21 0 -18 2 -19 15 -9 8 7 15 18 15 25 0 8 8 16 18
18 9 3 18 5 20 6 2 0 10 -6 18 -14z m158 -1 c10 -27 7 -152 -5 -159 -7 -5 -4
-14 7 -26 17 -18 15 -19 -40 -19 -39 0 -55 3 -50 11 3 6 6 56 5 110 l-2 99 39
0 c27 0 42 -5 46 -16z m95 -29 c16 -9 13 -45 -4 -51 -11 -5 -12 -10 -2 -25 10
-17 9 -23 -8 -35 -19 -15 -20 -13 -23 48 -2 34 0 74 4 88 6 24 6 25 14 4 5
-12 13 -25 19 -29z m146 31 c9 -9 14 -44 16 -107 l2 -94 -79 -8 c-88 -9 -124
-4 -124 18 0 10 9 12 33 9 17 -3 59 -1 92 4 56 9 57 10 18 11 l-43 1 0 54 c0
33 -5 56 -12 58 -9 3 -9 12 1 36 11 27 19 32 48 32 19 0 41 -6 48 -14z m-2352
-13 c13 -8 7 -31 -10 -37 -37 -15 -100 24 -76 47 6 7 69 -1 86 -10z m1037 -28
c0 -25 -4 -45 -10 -45 -11 0 -14 73 -3 83 11 12 13 8 13 -38z m-493 -27 c-2
-13 -4 -3 -4 22 0 25 2 35 4 23 2 -13 2 -33 0 -45z m1173 22 c0 -22 5 -40 10
-40 6 0 10 -27 10 -60 l0 -60 -55 0 c-30 0 -55 3 -56 8 0 4 -2 16 -5 27 -2 11
-1 53 2 93 l6 72 44 0 44 0 0 -40z m1532 -116 c4 -6 1 -20 -7 -30 -13 -17 -14
-7 -13 86 1 104 1 104 7 30 3 -41 9 -80 13 -86z m-3256 19 l1 -73 -31 5 c-17
2 -37 4 -43 4 -17 1 -17 83 -1 99 10 10 10 15 -1 22 -11 6 -7 9 15 13 58 9 59
7 60 -70z m821 35 c-3 -8 -6 -5 -6 6 -1 11 2 17 5 13 3 -3 4 -12 1 -19z m-349
-70 c-2 -6 -10 -14 -16 -16 -7 -2 -10 2 -6 12 7 18 28 22 22 4z"/>
<path d="M5453 2633 c9 -2 23 -2 30 0 6 3 -1 5 -18 5 -16 0 -22 -2 -12 -5z"/>
<path d="M4738 2743 c12 -2 32 -2 45 0 12 2 2 4 -23 4 -25 0 -35 -2 -22 -4z"/>
<path d="M3600 2358 c-3 -26 -1 -43 3 -39 5 5 7 26 5 47 l-3 39 -5 -47z"/>
<path d="M3363 2360 c0 -25 2 -35 4 -22 2 12 2 32 0 45 -2 12 -4 2 -4 -23z"/>
<path d="M3011 6963 c-1 -47 3 -75 12 -80 6 -4 18 -20 26 -35 8 -16 38 -53 68
-84 29 -31 53 -61 53 -66 0 -5 -19 -8 -42 -6 -41 3 -43 2 -41 -23 l1 -27 -24
25 c-28 28 -31 43 -8 43 9 0 14 7 12 17 -4 22 -28 29 -28 9 0 -9 -7 -16 -15
-16 -23 0 -21 -132 2 -151 9 -8 18 -13 20 -11 2 1 22 -19 44 -45 88 -104 98
-113 125 -113 25 0 26 2 20 33 -3 17 -14 37 -23 44 -18 14 -21 45 -10 113 3
25 3 34 -1 20 -7 -22 -9 -23 -15 -7 -11 30 -8 37 18 37 14 0 29 -8 35 -20 6
-11 17 -20 25 -20 9 0 15 -10 15 -25 0 -22 4 -25 34 -25 88 0 89 36 4 128 -34
37 -67 73 -73 80 -5 7 -18 22 -27 33 -10 10 -18 22 -18 25 0 10 -58 64 -69 64
-6 0 -11 6 -11 13 0 6 -19 33 -43 58 -23 25 -47 54 -54 65 -10 16 -12 7 -12
-53z m129 -335 c0 -7 -5 -20 -10 -28 -8 -12 -10 -9 -10 13 0 15 5 27 10 27 6
0 10 -6 10 -12z"/>
<path d="M5760 6972 c0 -16 72 -32 92 -21 10 5 16 14 13 20 -8 11 -105 12
-105 1z"/>
<path d="M8584 6925 c-16 -13 -17 -16 -4 -24 17 -11 89 -4 105 11 28 25 -68
38 -101 13z"/>
<path d="M3032 6805 c-9 -11 -10 -20 -3 -33 9 -15 10 -15 11 6 0 12 5 22 10
22 6 0 10 5 10 10 0 14 -13 12 -28 -5z"/>
<path d="M3060 6490 c0 -5 5 -10 11 -10 5 0 7 5 4 10 -3 6 -8 10 -11 10 -2 0
-4 -4 -4 -10z"/>
<path d="M9333 4963 c31 -2 83 -2 115 0 31 2 5 3 -58 3 -63 0 -89 -1 -57 -3z"/>
<path d="M8140 4842 c0 -18 6 -39 13 -46 10 -10 137 -14 562 -20 303 -3 603
-9 668 -13 l117 -6 0 52 0 51 -70 0 c-44 0 -70 4 -70 11 0 8 -172 10 -610 8
l-610 -4 0 -33z m1123 11 c-13 -2 -33 -2 -45 0 -13 2 -3 4 22 4 25 0 35 -2 23
-4z"/>
<path d="M8190 4625 c0 -56 1 -57 189 -53 l144 3 2 40 c1 22 -3 43 -9 47 -6 4
-82 8 -168 8 l-158 0 0 -45z"/>
<path d="M9368 4605 l4 -45 64 0 64 0 0 45 0 45 -68 0 -67 0 3 -45z"/>
<path d="M7111 4384 c0 -11 3 -14 6 -6 3 7 2 16 -1 19 -3 4 -6 -2 -5 -13z"/>
<path d="M9360 4360 c0 -6 30 -10 70 -10 40 0 70 4 70 10 0 6 -30 10 -70 10
-40 0 -70 -4 -70 -10z"/>
<path d="M3028 4309 c-17 -9 -18 -47 -18 -559 l0 -550 573 -1 c314 -1 628 -2
697 -3 69 -1 106 0 83 2 -55 4 -56 22 -2 22 32 0 47 6 71 30 16 17 36 30 44
30 9 0 12 5 9 10 -3 6 -41 10 -84 10 -90 0 -118 15 -123 65 l-3 30 135 -3 c74
-1 154 -5 178 -8 33 -4 43 -2 48 11 4 9 3 19 -1 23 -3 4 -59 10 -123 13 l-117
5 106 2 c84 2 108 5 113 17 10 27 -31 35 -179 35 l-146 0 6 323 c4 210 3 327
-4 337 -10 15 -107 28 -211 29 l-55 1 0 57 0 58 -34 -2 c-33 -1 -76 -37 -65
-54 20 -32 -80 -66 -159 -55 -23 4 -160 6 -304 6 -171 -1 -270 3 -283 10 -13
7 -26 7 -37 2 -9 -5 -24 -7 -34 -5 -16 5 -19 15 -19 64 0 55 -2 59 -22 59 -13
0 -31 -5 -40 -11z m1231 -183 c8 -9 10 -92 6 -292 -4 -154 -8 -294 -11 -311
l-5 -33 -125 0 -126 0 6 28 c3 15 8 158 12 317 3 160 8 293 11 298 2 4 53 7
112 7 80 0 112 -4 120 -14z m-1009 -25 c0 -11 -59 -20 -65 -11 -3 4 -2 10 2
14 10 9 63 7 63 -3z m205 -6 c0 -5 -21 -11 -47 -13 -39 -3 -48 0 -48 13 0 13
9 16 48 13 26 -2 47 -7 47 -13z m225 0 c0 -12 -14 -15 -65 -15 -60 0 -75 6
-58 23 3 4 33 7 65 7 45 0 58 -3 58 -15z m160 0 c0 -16 -16 -20 -65 -16 -37 3
-44 9 -25 21 25 16 90 12 90 -5z m123 -106 c-5 -18 -23 -27 -23 -11 1 25 14
52 20 42 4 -7 5 -21 3 -31z m0 -306 c-3 -87 -10 -162 -15 -168 -5 -6 -66 -10
-141 -10 -76 0 -113 2 -87 6 25 3 34 7 20 8 -25 2 -25 2 -5 17 18 13 20 13 23
0 7 -35 67 -2 85 47 3 9 17 17 29 17 16 0 19 3 10 8 -13 9 -6 42 9 42 21 0 60
53 58 79 -3 27 10 111 17 111 2 0 1 -71 -3 -157z m-603 -43 c0 -5 -5 -10 -11
-10 -5 0 -7 5 -4 10 3 6 8 10 11 10 2 0 4 -4 4 -10z"/>
<path d="M4825 3984 l-30 -15 34 6 c18 3 37 5 42 5 5 0 9 5 9 10 0 14 -19 11
-55 -6z"/>
<path d="M4960 3989 c0 -5 5 -7 10 -4 6 3 10 8 10 11 0 2 -4 4 -10 4 -5 0 -10
-5 -10 -11z"/>
<path d="M5000 3990 c0 -5 7 -10 15 -10 8 0 15 5 15 10 0 6 -7 10 -15 10 -8 0
-15 -4 -15 -10z"/>
<path d="M5054 3989 c-11 -4 18 -8 66 -8 93 1 97 5 9 11 -31 3 -64 1 -75 -3z"/>
<path d="M8263 3763 c-8 -19 -9 -159 -6 -718 1 -214 -2 -412 -6 -440 -8 -50
-8 -50 -10 24 -2 128 -47 161 -222 161 -162 0 -169 -10 -181 -270 -11 -239
-12 -244 -68 -250 -38 -4 -45 -9 -51 -33 -4 -16 -6 -34 -3 -41 6 -15 90 -23
352 -33 168 -6 172 -7 172 -28 0 -20 8 -22 160 -40 88 -10 160 -22 160 -27 0
-4 18 -8 40 -8 22 0 40 5 40 10 0 6 18 10 40 10 27 0 40 4 40 13 0 11 29 15
117 20 66 4 119 11 121 17 2 5 21 10 43 10 21 0 40 3 40 8 13 75 13 19 5 607
-4 328 -3 515 3 505 9 -12 11 -12 17 3 3 9 12 17 20 17 11 0 14 -29 14 -155 0
-95 -4 -164 -12 -180 -9 -20 -8 -31 3 -52 10 -22 14 -102 16 -363 2 -210 7
-336 13 -338 6 -2 10 -8 10 -13 0 -6 -4 -7 -10 -4 -5 3 -10 1 -10 -4 0 -6 19
-11 43 -11 23 0 85 -3 137 -6 52 -3 121 -2 153 1 l57 7 0 104 c0 57 -2 104 -5
104 -2 0 -14 -4 -27 -9 -13 -5 -42 -14 -65 -20 -40 -11 -43 -14 -43 -46 l0
-35 -78 0 c-68 0 -79 3 -90 21 -10 15 -11 24 -3 32 15 15 15 647 1 647 -6 0
-10 33 -10 80 0 47 4 80 10 80 6 0 10 18 10 40 0 22 -4 40 -10 40 -6 0 -10
101 -10 284 l0 284 -22 6 c-13 3 -218 6 -456 6 -399 0 -433 -1 -439 -17z m687
-732 c0 -17 -18 -21 -24 -6 -3 9 0 15 9 15 8 0 15 -4 15 -9z m-640 -235 c0 -3
-4 -8 -10 -11 -5 -3 -10 -1 -10 4 0 6 5 11 10 11 6 0 10 -2 10 -4z m867 -218
c-2 -13 -4 -3 -4 22 0 25 2 35 4 23 2 -13 2 -33 0 -45z m-1288 -183 l2 -125
-27 0 c-22 0 -25 3 -21 23 3 12 9 68 13 125 5 72 11 102 19 102 10 0 13 -32
14 -125z m316 -20 l-5 -95 -144 -3 -145 -2 3 35 c2 19 4 50 5 68 1 27 5 32 24
31 18 -1 19 -2 3 -6 -16 -4 -13 -10 20 -44 38 -39 39 -39 116 -39 l78 0 0 45
c0 39 -3 45 -25 51 -14 3 -25 9 -25 13 0 6 74 38 92 40 4 1 5 -42 3 -94z"/>
<path d="M8000 2300 c0 -11 43 -12 115 0 47 7 45 7 -32 9 -50 0 -83 -3 -83 -9z"/>
<path d="M4338 3323 c12 -2 32 -2 45 0 12 2 2 4 -23 4 -25 0 -35 -2 -22 -4z"/>
<path d="M7956 3218 c-3 -7 -4 -42 -3 -78 l2 -65 68 -3 68 -3 -3 78 -3 78 -63
3 c-44 2 -63 -1 -66 -10z m124 -58 c0 -5 -25 -10 -55 -10 -30 0 -55 5 -55 10
0 6 25 10 55 10 30 0 55 -4 55 -10z"/>
<path d="M7899 3180 c-4 -42 -1 -64 9 -68 8 -2 12 10 12 37 0 23 -4 41 -10 41
-5 0 -10 -4 -11 -10z"/>
<path d="M3010 3160 c0 -20 7 -20 455 -20 261 0 455 4 455 9 0 10 -192 18
-617 26 -288 5 -293 4 -293 -15z"/>
<path d="M7613 3000 c0 -25 2 -35 4 -22 2 12 2 32 0 45 -2 12 -4 2 -4 -23z"/>
<path d="M7635 2931 c-3 -5 -1 -12 5 -16 5 -3 10 1 10 9 0 18 -6 21 -15 7z"/>
<path d="M9354 2450 c-14 -14 -4 -90 12 -97 19 -7 86 25 79 38 -4 5 1 9 11 9
13 0 14 3 5 14 -9 11 -7 15 11 21 20 6 18 8 -17 15 -55 12 -89 12 -101 0z"/>
<path d="M9070 2215 c0 -8 5 -15 10 -15 6 0 10 7 10 15 0 8 -4 15 -10 15 -5 0
-10 -7 -10 -15z"/>
<path d="M8930 969 c-8 -15 -10 -121 -4 -375 l7 -354 283 0 284 0 0 90 c0 63
-4 91 -13 97 -34 21 -47 58 -47 136 0 74 2 80 30 109 18 17 30 40 30 55 0 25
-1 25 -19 9 -19 -17 -19 -16 -14 22 3 24 0 49 -9 66 -14 26 -16 27 -31 11 -23
-22 -21 -35 4 -35 19 0 20 -4 15 -35 -4 -19 -2 -45 4 -57 11 -22 10 -22 -4 -4
-9 11 -16 31 -16 44 0 18 -4 23 -16 18 -11 -4 -18 1 -21 14 -3 11 -9 20 -14
20 -5 0 -9 10 -9 23 0 24 10 23 -152 27 -94 2 -133 13 -65 17 17 1 53 5 80 9
47 6 47 6 47 45 l0 38 113 4 c111 3 111 3 -43 7 l-155 4 155 6 c135 5 119 6
-127 8 -277 2 -283 2 -293 -19z m22 -254 c3 -138 2 -200 -2 -145 -8 99 -13
396 -6 389 2 -2 5 -112 8 -244z m374 113 c27 -9 37 -21 49 -57 19 -57 20 -131
1 -131 -7 0 -16 -8 -19 -19 -6 -25 -58 -49 -95 -43 -38 5 -85 -5 -77 -17 8
-14 9 -114 1 -139 -8 -26 -31 -29 -40 -6 -8 21 -8 409 1 417 11 12 145 8 179
-5z"/>
<path d="M9190 710 l0 -90 39 0 c63 0 89 14 100 55 12 45 7 76 -16 92 -10 7
-23 17 -30 23 -7 5 -30 10 -53 10 l-40 0 0 -90z"/>
<path d="M9328 873 c6 -2 18 -2 25 0 6 3 1 5 -13 5 -14 0 -19 -2 -12 -5z"/>
<path d="M9370 870 c0 -5 5 -10 10 -10 6 0 10 5 10 10 0 6 -4 10 -10 10 -5 0
-10 -4 -10 -10z"/>
<path d="M9460 874 c0 -9 31 -37 36 -32 9 9 -8 38 -22 38 -8 0 -14 -3 -14 -6z"/>
<path d="M9218 863 c12 -2 32 -2 45 0 12 2 2 4 -23 4 -25 0 -35 -2 -22 -4z"/>
<path d="M9487 603 c-11 -10 -8 -71 3 -78 6 -4 10 12 10 39 0 47 -2 51 -13 39z"/>
</g>
</svg>
