<?xml version="1.0" standalone="no"?>
<!DOCTYPE svg PUBLIC "-//W3C//DTD SVG 20010904//EN"
 "http://www.w3.org/TR/2001/REC-SVG-20010904/DTD/svg10.dtd">
<svg version="1.0" xmlns="http://www.w3.org/2000/svg"
 width="1280.000000pt" height="720.000000pt" viewBox="0 0 1280.000000 720.000000"
 preserveAspectRatio="xMidYMid meet">
<metadata>
Created by potrace 1.16, written by Peter Selinger 2001-2019
</metadata>
<g transform="translate(0.000000,720.000000) scale(0.100000,-0.100000)"
fill="#000000" stroke="none">
<path d="M6223 7178 c-23 -26 -63 -104 -63 -125 0 -7 -4 -13 -9 -13 -5 0 -21
-24 -36 -52 -14 -29 -37 -71 -50 -93 -14 -22 -34 -71 -45 -110 -12 -38 -27
-83 -35 -100 -7 -16 -17 -48 -20 -70 -4 -22 -11 -45 -16 -50 -4 -6 -13 -53
-19 -105 -13 -110 -35 -190 -67 -242 -13 -21 -23 -44 -23 -51 0 -7 -16 -28
-35 -47 -19 -18 -32 -37 -29 -42 3 -5 3 -21 -1 -36 -4 -18 -9 -22 -14 -13 -5
7 -11 9 -14 5 -11 -18 -35 -127 -31 -138 3 -7 -11 -33 -31 -59 -71 -93 -93
-182 -115 -477 -6 -69 -14 -163 -20 -210 -5 -47 -15 -129 -20 -184 -6 -54 -19
-117 -29 -140 -10 -22 -23 -75 -29 -116 -31 -213 -35 -286 -29 -558 l5 -280
-27 -33 c-16 -19 -34 -45 -41 -58 l-12 -24 30 21 c35 26 42 27 42 8 0 -20 -77
-59 -84 -43 -4 7 -4 2 -2 -10 2 -14 -1 -23 -8 -23 -7 0 -30 -33 -50 -73 l-36
-73 11 -80 c12 -88 27 -119 61 -130 13 -4 27 -13 33 -20 12 -17 71 -3 67 15
-1 7 1 10 6 7 5 -3 19 6 30 19 13 14 33 25 47 25 25 0 25 -1 26 -87 1 -96 0
-123 -10 -323 -9 -184 -9 -184 65 -188 36 -2 78 -12 109 -27 45 -21 52 -29 73
-82 12 -32 22 -66 22 -76 0 -9 11 -40 24 -69 13 -29 27 -75 31 -103 3 -27 16
-86 27 -130 15 -59 19 -97 15 -150 -3 -42 0 -94 8 -130 7 -33 21 -103 29 -155
19 -111 61 -268 87 -325 10 -22 23 -65 30 -95 6 -30 15 -59 20 -65 5 -5 9 -18
9 -30 0 -11 8 -38 19 -60 22 -48 61 -168 61 -189 0 -9 9 -35 19 -59 11 -23 25
-62 32 -87 7 -25 16 -49 21 -55 13 -15 10 -133 -5 -142 -7 -4 -26 -29 -42 -55
-16 -26 -36 -49 -45 -52 -16 -6 -52 -28 -60 -37 -3 -3 -21 -14 -40 -25 -41
-23 -66 -44 -51 -44 6 0 11 -5 11 -11 0 -8 -24 -9 -79 -4 -53 5 -81 3 -85 -4
-4 -6 -16 -11 -26 -11 -29 0 -60 -47 -60 -92 0 -32 4 -40 26 -48 37 -14 181
-12 298 4 55 8 131 17 167 21 71 7 177 50 207 84 10 10 43 28 74 41 32 12 62
28 68 35 33 40 29 126 -10 207 -11 23 -20 47 -20 54 0 7 -9 34 -20 60 -12 28
-22 77 -25 121 -2 41 -10 106 -19 146 -8 40 -20 108 -27 152 -6 44 -18 125
-26 180 -8 55 -18 123 -23 150 -5 28 -12 70 -16 95 -3 25 -10 50 -14 55 -4 6
-13 33 -20 60 -7 28 -21 77 -32 109 -17 49 -20 76 -15 160 3 79 0 117 -14 175
-11 41 -19 94 -19 117 0 24 -4 65 -9 91 -17 90 -32 239 -25 256 3 9 18 20 33
23 14 4 31 10 36 14 32 22 92 30 145 20 30 -6 76 -14 102 -19 26 -4 51 -11 55
-15 5 -4 10 -96 13 -204 3 -108 9 -203 14 -210 4 -8 8 -52 7 -98 -1 -47 4 -94
9 -105 8 -14 7 -69 -4 -197 -14 -168 -10 -371 8 -400 6 -11 30 -189 46 -357 6
-55 16 -125 23 -155 7 -35 12 -140 12 -285 l0 -230 45 1 c120 4 226 17 236 29
18 24 136 58 244 71 87 10 120 19 190 53 96 46 114 57 147 88 28 26 29 44 6
66 -35 31 -67 30 -144 -3 -70 -31 -75 -32 -133 -21 -34 7 -81 16 -106 20 -102
19 -150 50 -182 117 -18 40 -19 58 -14 340 3 165 9 388 12 497 5 143 4 197 -5
197 -13 0 -16 151 -3 165 22 26 33 170 26 348 -5 131 -3 198 5 234 11 46 15
51 52 62 21 6 68 15 104 20 36 4 67 10 70 13 3 3 -1 39 -10 79 -8 41 -20 133
-25 204 -18 228 -28 328 -44 430 -9 55 -18 127 -20 160 -4 52 -16 125 -56 336
-4 25 -13 63 -18 85 -6 21 -13 79 -17 129 -3 49 -15 114 -26 145 -41 116 -59
215 -59 327 0 60 -4 134 -10 164 -16 93 -32 358 -25 419 7 60 16 76 76 141 68
73 138 54 393 -109 27 -17 55 -40 63 -52 8 -11 19 -20 24 -20 16 0 148 -95
206 -148 28 -26 65 -73 82 -104 18 -32 42 -74 56 -93 13 -20 27 -49 30 -66 4
-17 13 -33 21 -36 8 -3 14 -13 14 -23 0 -10 9 -21 19 -25 11 -3 22 -14 25 -23
3 -10 22 -42 41 -72 42 -65 44 -98 10 -128 -14 -12 -25 -28 -25 -35 0 -7 -13
-20 -29 -30 -30 -18 -131 -128 -131 -143 0 -5 -16 -27 -35 -48 -42 -48 -43
-59 -7 -83 55 -38 80 -44 112 -28 16 8 36 15 45 15 8 0 15 4 15 9 0 5 18 12
40 16 22 4 40 12 40 18 0 7 22 25 49 41 37 22 52 38 61 67 7 22 17 39 22 39 4
0 8 36 8 80 0 57 4 80 13 80 6 0 2 8 -10 18 -22 18 -63 148 -63 202 0 17 -4
38 -9 48 -11 20 -36 103 -46 152 -8 38 -94 214 -129 264 -27 39 -195 206 -207
206 -5 0 -9 6 -9 13 0 8 -11 19 -25 25 -14 6 -25 16 -25 22 0 5 -7 10 -15 10
-8 0 -15 6 -15 13 0 8 -11 19 -25 25 -14 7 -28 19 -31 27 -4 8 -11 15 -17 15
-19 0 -86 35 -87 45 0 6 -15 17 -32 25 -18 7 -68 49 -112 92 -43 43 -83 78
-87 78 -5 0 -9 8 -9 18 0 9 -10 22 -22 27 -14 6 -24 20 -26 35 -6 58 -12 67
-42 73 -18 4 -30 13 -30 22 0 9 -8 19 -17 22 -9 4 -24 14 -34 22 -9 9 -28 25
-42 36 -14 11 -26 30 -27 43 0 12 -4 22 -9 22 -5 0 -11 8 -15 18 -6 19 -25 50
-43 69 -6 7 -14 26 -18 43 -4 16 -11 30 -16 30 -5 0 -9 7 -9 16 0 9 -6 30 -14
47 -15 34 -17 41 -46 187 -22 111 -32 145 -61 202 -5 10 -9 25 -9 34 0 8 -11
30 -24 47 -13 18 -27 42 -31 55 -3 12 -10 22 -15 22 -4 0 -20 25 -35 55 -14
30 -33 55 -41 55 -8 0 -14 8 -14 18 0 21 -39 68 -94 111 l-39 31 -132 0 c-124
0 -133 -1 -152 -22z m436 -310 c13 -29 29 -68 37 -86 8 -18 14 -52 14 -75 0
-49 -21 -147 -32 -147 -5 0 -8 -16 -8 -36 0 -19 -7 -42 -15 -50 -13 -14 -15
-10 -15 34 0 30 5 52 12 54 8 3 7 16 -5 46 -20 50 -21 84 -5 129 11 30 9 42
-10 96 -25 72 -27 87 -9 87 8 0 24 -24 36 -52z m511 -898 c38 -32 27 -39 -20
-15 -17 9 -30 22 -30 30 0 22 12 18 50 -15z"/>
<path d="M8577 6923 c-11 -10 -8 -20 8 -27 10 -4 15 1 15 14 0 20 -11 26 -23
13z"/>
</g>
</svg>
