<?xml version="1.0" standalone="no"?>
<!DOCTYPE svg PUBLIC "-//W3C//DTD SVG 20010904//EN"
 "http://www.w3.org/TR/2001/REC-SVG-20010904/DTD/svg10.dtd">
<svg version="1.0" xmlns="http://www.w3.org/2000/svg"
 width="1280.000000pt" height="720.000000pt" viewBox="0 0 1280.000000 720.000000"
 preserveAspectRatio="xMidYMid meet">
<metadata>
Created by potrace 1.16, written by Peter Selinger 2001-2019
</metadata>
<g transform="translate(0.000000,720.000000) scale(0.100000,-0.100000)"
fill="#000000" stroke="none">
<path d="M6225 7140 c-10 -11 -24 -20 -30 -20 -7 0 -18 -21 -26 -47 -8 -28
-24 -57 -41 -71 -15 -13 -28 -32 -28 -42 0 -10 -11 -28 -25 -41 -13 -13 -25
-29 -25 -36 0 -15 -33 -77 -42 -81 -5 -2 -8 -9 -8 -16 0 -7 -5 -17 -12 -24
-14 -14 -55 -143 -69 -217 -5 -27 -13 -93 -18 -145 -8 -98 -10 -106 -42 -177
-10 -24 -19 -47 -19 -53 0 -5 -4 -10 -9 -10 -5 0 -14 -15 -20 -32 -19 -55 -36
-88 -43 -88 -5 0 -8 -7 -8 -17 0 -30 -50 -105 -67 -99 -12 5 -14 1 -10 -14 3
-13 -1 -24 -14 -30 -10 -6 -24 -20 -30 -31 -10 -20 -9 -21 23 -14 18 4 36 12
39 17 4 6 12 9 19 6 8 -2 -1 -21 -25 -53 -21 -27 -46 -67 -55 -89 -24 -57 -43
-187 -33 -228 8 -33 9 -95 5 -326 l-2 -123 -382 5 c-442 6 -1093 23 -1188 30
-36 3 -282 7 -547 9 l-483 4 0 -184 0 -183 203 0 c111 0 231 4 267 9 36 5 239
13 453 17 339 6 387 5 387 -8 0 -11 17 -17 61 -22 90 -9 96 -8 118 15 17 19
21 19 43 6 19 -13 99 -16 498 -19 261 -3 386 -3 278 -1 -133 2 -198 7 -198 14
0 8 -25 9 -80 4 -54 -5 -80 -4 -80 3 0 6 -19 12 -42 14 -24 2 101 2 277 -1
301 -4 387 -11 357 -30 -9 -6 -10 -15 -3 -34 14 -36 -15 -186 -40 -207 -3 -3
-16 -90 -28 -195 -12 -104 -27 -204 -32 -222 -6 -17 -10 -55 -11 -82 0 -31 -4
-51 -11 -52 -12 -1 -197 2 -405 5 -57 2 -105 -2 -108 -6 -3 -5 -12 -4 -19 2
-11 9 -23 8 -50 -1 -29 -11 -34 -16 -28 -34 11 -29 5 -195 -8 -227 -8 -19 -8
-37 -1 -60 6 -18 9 -103 7 -190 -2 -129 0 -158 11 -158 8 0 14 9 14 21 0 12 8
23 20 26 11 3 20 9 20 14 0 5 9 9 20 9 14 0 20 7 20 21 0 16 4 19 18 14 9 -4
27 -7 40 -6 18 1 22 -4 22 -29 0 -17 5 -30 10 -30 6 0 10 -7 10 -15 0 -8 -8
-15 -19 -15 -10 0 -21 -9 -24 -21 -3 -11 -15 -23 -26 -26 -12 -3 -22 -9 -22
-14 -1 -5 -2 -13 -3 -18 -2 -19 -16 -24 -31 -11 -11 9 -18 10 -28 1 -16 -13
-27 -5 -27 21 0 17 -29 27 -31 11 0 -5 -2 -25 -4 -47 l-4 -39 49 6 c30 4 50 2
50 -4 0 -5 11 -2 25 7 13 8 29 13 34 10 6 -4 134 -7 286 -7 l275 0 0 -23 c0
-22 -5 -24 -67 -29 -138 -11 -661 7 -678 24 -6 6 -9 64 -8 147 11 604 11 742
3 692 -5 -30 -11 -199 -15 -375 -7 -397 -12 -487 -27 -496 -7 -4 -396 -5 -865
-2 l-853 6 0 -21 c0 -21 5 -22 138 -25 l137 -3 -137 -2 c-129 -2 -138 -3 -138
-22 0 -16 8 -19 58 -22 54 -3 57 -4 60 -30 3 -28 3 -28 -57 -28 -54 0 -61 -2
-61 -20 0 -18 7 -20 55 -20 l55 0 0 -95 0 -95 -32 0 c-71 0 -78 -7 -78 -71 0
-48 3 -57 15 -53 8 4 15 1 15 -5 0 -6 -7 -11 -15 -11 -11 0 -15 -11 -15 -40 0
-35 3 -40 24 -40 22 0 24 -5 31 -77 4 -49 3 -79 -3 -81 -5 -1 -8 -12 -5 -22 3
-11 0 -20 -6 -20 -6 0 -11 5 -11 11 0 8 -5 8 -15 -1 -11 -9 -15 -32 -15 -81 0
-61 2 -69 19 -69 18 0 68 -48 89 -86 8 -15 13 -16 25 -6 8 7 18 23 21 36 6 23
36 45 36 26 0 -6 18 -10 40 -10 22 0 40 -4 40 -10 0 -5 8 -10 18 -10 13 0 23
13 32 40 13 40 30 54 30 25 0 -11 11 -15 37 -15 30 0 43 -7 75 -42 37 -40 39
-41 53 -22 7 10 17 36 20 57 8 42 26 48 43 14 l11 -22 0 23 c1 12 3 22 6 22
16 0 75 -73 75 -92 0 -21 0 -21 18 -2 9 10 25 36 34 57 17 36 19 37 73 37 l55
0 27 -57 c27 -58 27 -58 31 -25 2 18 15 44 30 59 25 25 34 27 122 30 52 1 87
0 78 -3 -24 -7 -26 -84 -3 -84 8 0 15 4 15 9 0 12 59 71 70 71 5 0 11 -6 13
-12 4 -10 6 -10 6 0 1 6 7 12 15 12 9 0 17 -17 21 -47 l8 -48 14 55 14 55 239
0 c132 0 240 -3 240 -6 0 -4 29 -4 64 -2 88 8 112 0 125 -39 l12 -33 19 25
c11 14 20 33 20 44 0 14 5 17 23 12 12 -3 30 -6 40 -6 9 0 17 -7 17 -15 0 -11
11 -15 40 -15 27 0 40 4 40 14 0 18 152 34 158 17 2 -6 10 -11 18 -11 8 0 14
-7 14 -15 0 -8 5 -15 10 -15 6 0 10 7 10 15 0 8 7 15 15 15 8 0 15 5 15 10 0
14 77 13 82 -1 3 -9 13 -9 38 -1 40 14 352 14 360 1 10 -15 -2 -89 -14 -89
-11 -1 -66 -74 -66 -89 0 -5 -7 -14 -15 -21 -8 -7 -15 -21 -15 -30 0 -10 -4
-20 -9 -22 -4 -1 -22 -28 -38 -58 -58 -104 -78 -149 -86 -190 -3 -14 -19 -70
-37 -125 -33 -105 -65 -241 -81 -337 -24 -150 -28 -176 -38 -223 -6 -27 -31
-91 -56 -142 -25 -50 -45 -98 -45 -107 0 -9 -5 -16 -10 -16 -14 0 -32 -48 -32
-84 1 -16 10 -41 21 -56 19 -27 19 -27 0 -56 -10 -16 -19 -34 -19 -40 0 -15
50 -65 60 -59 4 2 16 -3 28 -11 16 -11 22 -25 22 -55 0 -28 4 -39 15 -39 11 0
15 -11 15 -40 l0 -40 40 0 c33 0 40 -3 40 -20 0 -17 7 -20 40 -20 34 0 40 3
40 21 0 20 3 21 80 14 l79 -7 30 33 c27 29 35 32 81 30 39 -2 50 1 50 14 0 11
-11 15 -42 16 -30 2 -18 5 40 12 45 5 82 14 82 18 0 12 37 49 49 49 4 0 11 16
14 36 5 27 1 41 -15 60 -12 13 -28 24 -35 24 -7 0 -13 4 -13 8 0 10 -60 32
-87 32 -13 0 -47 26 -85 64 -81 81 -113 159 -106 264 4 59 70 297 87 312 12
10 31 50 31 64 0 8 4 16 8 18 4 2 23 35 40 73 18 39 37 77 41 85 5 9 12 30 16
48 3 18 11 32 16 32 5 0 9 9 9 20 0 11 7 23 15 26 8 4 15 10 15 16 0 17 62
138 71 138 5 0 9 9 9 20 0 11 4 20 8 20 5 0 17 18 27 40 10 22 24 40 32 40 7
0 13 11 13 25 0 14 5 25 10 25 6 0 10 6 10 14 0 8 3 16 8 18 10 4 44 54 73
108 13 25 32 54 42 64 9 11 17 30 17 43 0 17 6 23 23 23 20 0 26 -8 36 -48 7
-26 15 -62 18 -79 3 -18 9 -33 13 -33 4 0 10 -8 13 -17 3 -10 15 -49 27 -88
12 -38 25 -104 30 -145 20 -164 91 -541 121 -637 33 -106 7 -436 -37 -480 -31
-32 -84 -101 -84 -111 0 -6 -9 -14 -20 -17 -11 -3 -20 -14 -20 -24 0 -40 13
-81 26 -81 8 0 14 -4 14 -9 0 -5 36 -12 80 -16 l80 -7 0 -64 c0 -62 -1 -64
-25 -64 -25 0 -25 -1 -25 -80 0 -64 -3 -80 -15 -80 -11 0 -15 -11 -15 -40 l0
-40 160 0 160 0 0 87 c0 82 -2 88 -26 108 -23 18 -26 29 -26 78 -1 50 3 62 28
89 21 22 25 32 16 35 -9 4 -3 11 16 23 18 11 31 29 35 49 9 42 -2 91 -20 91
-12 0 -14 22 -13 127 2 189 2 192 -20 210 -12 10 -16 21 -11 27 5 6 14 81 20
166 7 85 16 187 21 225 7 45 6 131 -1 245 -13 217 -21 267 -52 355 -14 39 -31
90 -38 115 -7 25 -17 48 -22 51 -39 27 -55 329 -28 529 15 111 32 146 41 82 3
-25 10 -37 20 -36 27 2 55 9 60 14 3 3 23 15 45 26 27 15 52 41 76 80 l36 59
63 8 c36 4 66 10 69 12 5 5 39 231 71 474 15 108 18 162 11 180 -10 29 -27
100 -35 146 -11 69 -28 141 -36 150 -4 6 -11 33 -15 60 -4 28 -18 102 -32 165
-46 217 -48 229 -34 243 9 9 13 7 17 -11 4 -12 14 -22 23 -22 18 0 141 -109
141 -126 0 -6 12 -17 28 -25 29 -15 52 -34 52 -43 0 -3 19 -23 43 -45 54 -52
85 -57 232 -40 66 7 172 13 236 14 112 0 118 1 138 25 11 14 20 31 21 37 0 14
-62 43 -91 43 -11 0 -19 4 -19 9 0 5 -26 15 -57 22 -59 12 -146 2 -194 -22
-11 -5 -29 -14 -40 -20 -16 -8 -24 -8 -29 1 -6 9 -26 11 -72 6 -93 -10 -114
-3 -122 43 -3 21 -15 50 -26 64 -11 14 -20 36 -20 50 0 14 -6 38 -14 54 -8 15
-22 47 -32 71 -9 23 -21 42 -26 42 -4 0 -8 9 -8 20 0 11 -5 20 -10 20 -14 0
-30 42 -40 107 -8 49 -57 164 -72 171 -5 2 -8 21 -8 42 l0 39 73 -4 c39 -2
234 -5 432 -6 386 -2 1180 -14 1543 -23 l222 -5 0 48 0 49 -77 7 c-43 3 -343
8 -667 11 -479 4 -591 3 -597 -8 -7 -10 -9 -10 -9 0 0 22 -30 13 -31 -10 l0
-23 -16 23 -15 22 -324 0 c-292 0 -324 2 -324 16 0 14 -10 15 -77 9 -43 -4
-79 -11 -81 -16 -2 -5 -12 -9 -23 -9 -16 0 -19 7 -19 40 0 28 -7 47 -21 61
-19 19 -23 37 -27 118 -3 53 -9 99 -15 103 -7 4 -5 54 8 154 11 97 15 174 11
223 -7 88 -27 181 -38 181 -5 0 -8 6 -8 14 0 7 -7 19 -15 26 -11 9 -15 32 -15
81 0 61 -11 102 -31 119 -3 3 -9 23 -13 45 -14 77 -27 115 -40 115 -7 0 -21
18 -31 40 -10 22 -24 40 -32 40 -7 0 -13 9 -13 19 0 11 -4 22 -10 26 -15 9
-67 125 -83 185 -8 30 -23 90 -32 133 -10 43 -22 80 -27 83 -4 3 -8 16 -8 29
0 13 -4 27 -10 30 -5 3 -21 30 -35 58 -41 84 -79 152 -87 155 -5 2 -8 8 -8 13
0 8 -20 35 -47 64 -7 8 -13 18 -13 24 0 6 -9 16 -20 23 -11 7 -20 18 -20 25 0
7 -9 13 -19 13 -11 0 -21 5 -23 11 -5 16 -81 28 -184 29 -79 0 -93 -3 -109
-20z m403 -292 c7 -7 12 -20 12 -29 0 -10 3 -19 8 -21 4 -1 15 -28 25 -59 19
-62 22 -150 7 -177 -6 -9 -17 -44 -24 -77 l-14 -60 -1 68 c-1 52 -4 67 -16 67
-11 0 -15 11 -15 39 0 22 -3 46 -6 55 -3 8 3 22 15 33 25 21 26 30 7 69 -19
38 -31 104 -19 104 5 0 14 -5 21 -12z m-1045 -1895 c-13 -2 -33 -2 -45 0 -13
2 -3 4 22 4 25 0 35 -2 23 -4z m3680 -100 c-13 -2 -33 -2 -45 0 -13 2 -3 4 22
4 25 0 35 -2 23 -4z m-4608 -43 c50 -19 23 -35 -59 -36 -59 -1 -79 3 -83 14
-3 8 0 18 8 23 19 12 102 11 134 -1z m65 -60 c0 -5 -4 -10 -9 -10 -6 0 -13 5
-16 10 -3 6 1 10 9 10 9 0 16 -4 16 -10z m934 -761 c-3 -5 -10 -7 -15 -3 -5 3
-7 10 -3 15 3 5 10 7 15 3 5 -3 7 -10 3 -15z m-14 -39 c0 -20 -25 -38 -36 -27
-7 6 18 47 28 47 5 0 8 -9 8 -20z m-8 -85 c-2 -16 -7 -34 -12 -39 -12 -12 -40
18 -40 42 0 25 10 33 35 30 16 -2 19 -9 17 -33z m-472 -65 c0 -6 -13 -9 -30
-8 -16 1 -30 6 -30 10 0 4 14 8 30 8 17 0 30 -5 30 -10z m-26 -62 c6 -25 4
-28 -19 -26 -14 1 -25 8 -25 15 0 7 7 10 15 7 11 -4 15 0 15 17 0 28 5 23 14
-13z m104 -16 c2 -7 -6 -12 -17 -12 -21 0 -27 11 -14 24 9 9 26 2 31 -12z
m-278 -2 c0 -5 -6 -10 -14 -10 -8 0 -18 5 -21 10 -3 6 3 10 14 10 12 0 21 -4
21 -10z m90 0 c0 -5 -4 -10 -9 -10 -6 0 -13 5 -16 10 -3 6 1 10 9 10 9 0 16
-4 16 -10z m120 0 c0 -5 -4 -10 -10 -10 -5 0 -10 5 -10 10 0 6 5 10 10 10 6 0
10 -4 10 -10z m167 -6 c-3 -3 -12 -4 -19 -1 -8 3 -5 6 6 6 11 1 17 -2 13 -5z
m-97 -78 c0 -2 3 -11 6 -20 5 -12 0 -16 -20 -16 -24 0 -35 18 -19 33 7 8 33
10 33 3z m-205 -26 c3 -5 -1 -10 -10 -10 -9 0 -13 5 -10 10 3 6 8 10 10 10 2
0 7 -4 10 -10z m105 0 c0 -5 -12 -10 -27 -9 -25 0 -26 1 -8 9 27 12 35 12 35
0z m219 -16 c2 -2 -14 -4 -37 -4 -23 0 -42 4 -42 9 0 9 69 4 79 -5z m-278 -77
c-10 -9 -11 -8 -5 6 3 10 9 15 12 12 3 -3 0 -11 -7 -18z m119 13 c13 21 43
-15 35 -40 -8 -26 -45 -27 -45 -1 0 11 -2 25 -3 33 -2 7 -2 9 1 4 2 -4 8 -3
12 4z m-260 -44 c0 -11 -19 -15 -25 -6 -3 5 1 10 9 10 9 0 16 -2 16 -4z m115
-6 c-3 -5 -12 -10 -20 -10 -8 0 -17 5 -20 10 -4 6 5 10 20 10 15 0 24 -4 20
-10z m90 0 c-3 -5 -15 -10 -26 -10 -10 0 -19 5 -19 10 0 6 12 10 26 10 14 0
23 -4 19 -10z m185 0 c0 -5 -7 -10 -15 -10 -8 0 -15 5 -15 10 0 6 7 10 15 10
8 0 15 -4 15 -10z m5 -166 c-5 -34 -3 -49 7 -55 9 -6 8 -9 -7 -9 -33 1 -50 22
-53 68 -2 41 -2 42 29 42 l31 0 -7 -46z m200 -4 c-5 -8 -11 -8 -17 -2 -6 6 -7
16 -3 22 5 8 11 8 17 2 6 -6 7 -16 3 -22z m-165 -20 c0 -13 -1 -13 -10 0 -5 8
-10 22 -10 30 0 13 1 13 10 0 5 -8 10 -22 10 -30z m-160 4 c0 -8 -4 -14 -10
-14 -5 0 -10 9 -10 21 0 11 5 17 10 14 6 -3 10 -13 10 -21z m210 0 c0 -8 -4
-12 -10 -9 -5 3 -10 10 -10 16 0 5 5 9 10 9 6 0 10 -7 10 -16z m0 -34 c0 -5
-13 -10 -30 -10 -16 0 -30 5 -30 10 0 6 14 10 30 10 17 0 30 -4 30 -10z
m-1853 -234 c9 -8 -197 -6 -219 2 -10 4 34 6 98 6 63 -1 117 -4 121 -8z m330
2 c2 -5 -34 -8 -81 -8 -53 0 -86 4 -86 10 0 13 159 10 167 -2z m-239 -5 c-16
-2 -40 -2 -55 0 -16 2 -3 4 27 4 30 0 43 -2 28 -4z m-378 -68 c0 -23 -3 -25
-49 -25 -52 0 -65 8 -55 34 4 12 20 16 55 16 46 0 49 -2 49 -25z m240 11 c0
-25 -22 -31 -108 -32 -85 -1 -96 3 -86 30 9 22 194 24 194 2z m373 -11 c3 -15
-142 -19 -159 -4 -7 6 -12 14 -10 18 6 10 166 -3 169 -14z m1107 -16 c0 -26
-3 -29 -20 -24 -11 3 -20 2 -20 -4 0 -10 -177 -20 -455 -24 l-170 -2 -3 35
c-2 21 2 38 11 45 9 6 124 9 335 7 l322 -3 0 -30z m392 -9 c-2 -25 -3 -93 -2
-153 2 -121 -5 -163 -26 -171 -21 -8 -164 5 -164 15 0 5 39 10 88 11 l87 2
-83 3 -82 4 1 62 c3 86 9 95 60 91 47 -4 79 9 80 34 1 11 4 8 9 -8 7 -21 8
-19 9 18 1 23 -2 42 -6 42 -5 1 -27 5 -50 9 -24 5 -43 5 -43 1 0 -4 -11 -7
-24 -7 -19 0 -26 6 -31 29 -4 17 -2 35 5 43 11 13 78 23 145 21 29 -1 30 -2
27 -46z m103 40 c4 -6 4 -29 0 -50 -6 -37 -9 -40 -36 -38 -26 2 -29 6 -29 34
0 18 3 39 6 48 7 18 49 22 59 6z m-1815 -15 c0 -12 -13 -15 -60 -15 -47 0 -60
3 -60 15 0 12 13 15 60 15 47 0 60 -3 60 -15z m458 3 c-3 -9 -33 -14 -93 -16
-93 -3 -120 1 -110 18 10 16 208 13 203 -2z m162 -33 c0 -38 -3 -45 -20 -45
-16 0 -20 7 -20 30 0 17 -3 29 -7 29 -29 -5 -62 3 -67 16 -4 12 5 15 54 15
l60 0 0 -45z m868 7 c3 -29 1 -32 -20 -28 -13 3 -42 5 -65 5 -41 1 -43 2 -43
31 l0 31 63 -3 62 -3 3 -33z m-1030 -163 c-2 -38 -9 -74 -15 -80 -20 -20 -171
-9 -185 13 -13 21 -10 136 4 144 7 5 48 9 91 10 43 1 81 5 85 8 14 15 24 -31
20 -95z m-858 1 l0 -78 -55 -4 -55 -3 0 72 c0 97 1 99 60 95 l50 -4 0 -78z
m226 24 c3 -19 3 -49 0 -66 -6 -33 -7 -33 -69 -36 -34 -1 -72 -4 -84 -6 -15
-3 -23 2 -27 17 -8 31 -7 120 2 134 11 17 112 21 144 5 19 -9 29 -24 34 -48z
m766 48 c7 -7 14 -51 16 -107 4 -90 3 -95 -16 -95 -13 0 -22 9 -26 24 -8 31
-37 29 -53 -4 -12 -24 -12 -24 -13 15 -2 63 1 169 5 176 7 10 74 4 87 -9z m99
-42 c5 0 9 10 9 23 1 21 2 21 14 4 11 -14 35 -19 130 -24 109 -6 116 -5 117
13 1 18 2 18 6 1 3 -13 11 -17 23 -14 10 3 27 -1 38 -8 13 -10 60 -14 150 -16
l132 -2 0 -79 c0 -43 -3 -78 -7 -78 -5 0 -6 25 -5 55 3 35 0 55 -7 55 -6 0
-11 -19 -11 -44 l0 -44 -242 -7 c-202 -6 -284 -5 -380 4 -10 1 -10 112 -1 177
l7 49 9 -32 c6 -18 14 -33 18 -33z m1152 0 c14 0 17 -11 17 -69 0 -38 -3 -83
-6 -100 -6 -31 -8 -32 -53 -29 l-46 3 -3 65 c-2 36 0 94 3 129 l7 63 32 -31
c18 -17 40 -31 49 -31z m-1880 41 l37 -1 0 -74 0 -74 -57 -5 c-32 -2 -59 -3
-61 -2 -7 7 -14 115 -9 137 5 18 13 24 29 22 13 -1 40 -3 61 -3z m235 -5 c15
-9 16 -132 2 -141 -6 -4 -43 -7 -83 -7 l-72 -1 -3 65 c-2 46 1 70 11 79 14 15
124 18 145 5z m3014 -52 c-6 -35 -12 -29 -12 14 0 23 3 32 9 24 4 -7 6 -24 3
-38z m-1286 -14 c9 -44 25 -52 134 -68 l45 -7 0 -45 0 -45 -101 -3 -101 -3 -7
32 c-3 17 -6 62 -6 100 0 55 3 69 15 69 9 0 18 -12 21 -30z m-476 -1 c0 -6 7
-9 15 -5 11 4 15 -1 14 -17 0 -12 -3 -16 -6 -9 -2 6 -9 12 -14 12 -13 0 -11
-117 2 -126 20 -12 -7 -19 -55 -16 -57 5 -61 22 -6 22 l40 0 0 45 0 45 -42 2
-43 1 43 4 c53 5 55 23 2 23 -29 0 -40 4 -40 15 0 11 12 15 45 15 26 0 45 -5
45 -11z m30 -89 c0 -22 -4 -40 -10 -40 -5 0 -10 18 -10 40 0 22 5 40 10 40 6
0 10 -18 10 -40z m760 -41 l0 -39 -44 0 c-42 0 -44 1 -48 34 -5 49 -3 52 47
48 l45 -4 0 -39z m49 -26 c0 -25 -1 -26 -9 -8 -12 27 -12 35 0 35 6 0 10 -12
9 -27z m-1019 -3 c-9 -6 -125 -9 -285 -8 -148 0 -250 4 -225 8 72 11 527 11
510 0z m-827 -200 c-1 -57 -5 -110 -7 -117 -6 -14 -116 -19 -117 -5 -6 90 -7
174 -2 200 l6 34 61 -4 61 -4 -2 -104z m-243 27 c0 -51 -3 -64 -20 -75 -14 -8
-20 -23 -20 -47 0 -34 -1 -35 -39 -35 -32 0 -40 4 -45 23 -9 33 -7 170 3 185
5 9 23 13 49 11 23 -2 44 0 48 4 16 15 24 -8 24 -66z m797 -24 c-6 -52 -15
-93 -21 -94 -16 -1 26 -17 47 -18 15 -1 17 9 17 79 l0 80 44 0 c92 0 156 -41
156 -101 0 -21 -5 -41 -10 -44 -16 -10 -1 -25 26 -25 21 0 24 5 24 34 0 62 13
156 21 156 5 0 9 -42 9 -94 l0 -95 -57 -11 c-40 -9 -126 -11 -283 -6 -124 3
-249 6 -277 6 l-53 0 0 96 0 96 40 -4 c22 -2 41 1 43 7 2 5 7 -26 12 -70 5
-55 4 -80 -4 -83 -6 -2 -11 -10 -11 -18 0 -10 12 -14 40 -14 l40 0 0 95 0 95
95 0 c77 0 97 3 102 15 11 30 11 10 0 -82z m1107 4 c10 -133 8 -137 -89 -142
-89 -5 -115 0 -115 20 0 10 9 12 33 9 17 -3 59 -1 92 4 56 9 57 10 18 11 l-43
1 0 55 c0 30 -5 64 -12 74 -16 26 8 48 58 54 21 2 42 4 45 5 4 1 9 -40 13 -91z
m225 11 c7 -46 12 -96 10 -113 -4 -26 -8 -30 -34 -30 l-30 0 -3 89 c-4 106 2
136 27 136 15 0 20 -14 30 -82z m-2350 58 c10 -7 12 -24 7 -75 -13 -130 -11
-126 -67 -127 l-49 -2 0 93 c0 52 2 99 5 107 6 15 81 18 104 4z m607 -6 c11 0
14 -17 14 -77 0 -85 -11 -116 -32 -95 -9 9 -9 12 4 12 11 0 15 6 11 21 -4 16
-8 17 -14 7 -5 -7 -8 22 -8 72 0 47 3 79 6 73 2 -7 11 -13 19 -13z m1100 5
c12 -11 13 -33 8 -110 l-7 -95 -83 0 -84 0 0 100 0 100 40 0 c34 0 40 -3 40
-21 0 -18 2 -19 15 -9 8 7 15 18 15 25 0 8 8 16 18 18 9 3 18 5 20 6 2 0 10
-6 18 -14z m260 -54 c4 -21 3 -31 -5 -31 -8 0 -10 -8 -6 -19 3 -11 -1 -26 -12
-37 -17 -17 -18 -15 -21 46 -2 36 0 75 3 89 6 24 6 24 21 3 8 -11 17 -35 20
-51z m-2213 42 c13 -8 7 -31 -10 -37 -37 -15 -100 24 -76 47 6 7 69 -1 86 -10z
m1037 -28 c0 -25 -4 -45 -10 -45 -11 0 -14 73 -3 83 11 12 13 8 13 -38z m1078
-34 c2 -42 -2 -79 -7 -84 -8 -8 -6 -16 6 -29 15 -17 14 -18 -41 -18 -39 0 -55
3 -50 11 3 6 6 54 5 106 l-2 94 43 -3 43 -3 3 -74z m336 73 c-7 -3 -9 -31 -6
-80 3 -55 1 -78 -8 -84 -8 -5 3 -10 29 -15 55 -9 52 -25 -4 -25 l-45 0 0 105
c0 102 1 105 23 104 12 0 17 -3 11 -5z m-1907 -66 c-2 -13 -4 -3 -4 22 0 25 2
35 4 23 2 -13 2 -33 0 -45z m1173 22 c0 -22 5 -40 10 -40 6 0 10 -27 10 -60
l0 -60 -55 0 c-30 0 -55 3 -56 8 0 4 -2 16 -5 27 -2 11 -1 53 2 93 l6 72 44 0
44 0 0 -40z m790 -40 c0 -47 -4 -80 -10 -80 -11 0 -14 101 -4 138 11 38 14 25
14 -58z m-2514 -57 l1 -73 -31 5 c-17 2 -37 4 -43 4 -17 1 -17 83 -1 99 10 10
10 15 -1 22 -11 6 -7 9 15 13 58 9 59 7 60 -70z m821 35 c-3 -8 -6 -5 -6 6 -1
11 2 17 5 13 3 -3 4 -12 1 -19z m-349 -70 c-2 -6 -10 -14 -16 -16 -7 -2 -10 2
-6 12 7 18 28 22 22 4z"/>
<path d="M4738 2743 c12 -2 32 -2 45 0 12 2 2 4 -23 4 -25 0 -35 -2 -22 -4z"/>
<path d="M3600 2358 c-3 -26 -1 -43 3 -39 5 5 7 26 5 47 l-3 39 -5 -47z"/>
<path d="M3363 2360 c0 -25 2 -35 4 -22 2 12 2 32 0 45 -2 12 -4 2 -4 -23z"/>
<path d="M3011 6963 c-1 -47 3 -75 12 -80 6 -4 18 -20 26 -35 8 -16 38 -53 68
-84 29 -31 53 -61 53 -66 0 -5 -19 -8 -42 -6 -41 3 -43 2 -41 -23 l1 -27 -24
25 c-28 28 -31 43 -8 43 9 0 14 7 12 17 -4 22 -28 29 -28 9 0 -9 -7 -16 -15
-16 -23 0 -21 -132 2 -151 9 -8 18 -13 20 -11 2 1 22 -19 44 -45 88 -104 98
-113 125 -113 25 0 26 2 20 33 -3 17 -14 37 -23 44 -18 14 -21 45 -10 113 3
25 3 34 -1 20 -7 -22 -9 -23 -15 -7 -11 30 -8 37 18 37 14 0 29 -8 35 -20 6
-11 17 -20 25 -20 9 0 15 -10 15 -25 0 -22 4 -25 34 -25 88 0 89 36 4 128 -34
37 -67 73 -73 80 -5 7 -18 22 -27 33 -10 10 -18 22 -18 25 0 10 -58 64 -69 64
-6 0 -11 6 -11 13 0 6 -19 33 -43 58 -23 25 -47 54 -54 65 -10 16 -12 7 -12
-53z m129 -335 c0 -7 -5 -20 -10 -28 -8 -12 -10 -9 -10 13 0 15 5 27 10 27 6
0 10 -6 10 -12z"/>
<path d="M5760 6972 c0 -16 72 -32 92 -21 10 5 16 14 13 20 -8 11 -105 12
-105 1z"/>
<path d="M8584 6925 c-16 -13 -17 -16 -4 -24 17 -11 89 -4 105 11 28 25 -68
38 -101 13z"/>
<path d="M3032 6805 c-9 -11 -10 -20 -3 -33 9 -15 10 -15 11 6 0 12 5 22 10
22 6 0 10 5 10 10 0 14 -13 12 -28 -5z"/>
<path d="M3060 6490 c0 -5 5 -10 11 -10 5 0 7 5 4 10 -3 6 -8 10 -11 10 -2 0
-4 -4 -4 -10z"/>
<path d="M7200 5800 c0 -19 3 -21 12 -12 9 9 9 15 0 24 -9 9 -12 7 -12 -12z"/>
<path d="M9333 4963 c31 -2 83 -2 115 0 31 2 5 3 -58 3 -63 0 -89 -1 -57 -3z"/>
<path d="M8192 4623 l3 -48 164 0 164 0 2 40 c1 22 -3 43 -9 47 -6 4 -82 8
-169 8 l-158 0 3 -47z"/>
<path d="M9368 4605 l4 -45 64 0 64 0 0 45 0 45 -68 0 -67 0 3 -45z"/>
<path d="M9360 4360 c0 -6 30 -10 70 -10 40 0 70 4 70 10 0 6 -30 10 -70 10
-40 0 -70 -4 -70 -10z"/>
<path d="M3028 4309 c-17 -9 -18 -47 -18 -559 l0 -550 573 -1 c314 -1 628 -2
697 -3 69 -1 106 0 83 2 -55 4 -56 22 -2 22 32 0 47 6 71 30 16 17 36 30 43
30 9 0 12 6 8 16 -5 13 -18 15 -84 9 -53 -5 -79 -4 -79 3 0 6 17 13 38 15 23
3 19 3 -11 2 -54 -2 -75 11 -73 47 1 23 1 23 136 20 74 -1 154 -5 178 -8 33
-4 43 -2 48 11 4 9 3 19 -1 23 -3 4 -59 10 -123 13 l-117 5 106 2 c84 2 108 5
113 17 10 27 -31 35 -179 35 l-146 0 6 323 c4 210 3 327 -4 337 -10 15 -107
28 -211 29 l-55 1 0 57 0 58 -34 -2 c-33 -1 -76 -37 -65 -54 20 -32 -80 -66
-159 -55 -23 4 -160 6 -304 6 -171 -1 -270 3 -283 10 -13 7 -26 7 -37 2 -9 -5
-24 -7 -34 -5 -16 5 -19 15 -19 64 0 55 -2 59 -22 59 -13 0 -31 -5 -40 -11z
m1231 -183 c8 -9 10 -92 6 -292 -4 -154 -8 -294 -11 -311 l-5 -33 -125 0 -126
0 6 28 c3 15 8 158 12 317 3 160 8 293 11 298 2 4 53 7 112 7 80 0 112 -4 120
-14z m-1009 -25 c0 -11 -59 -20 -65 -11 -3 4 -2 10 2 14 10 9 63 7 63 -3z
m205 -6 c0 -5 -21 -11 -47 -13 -39 -3 -48 0 -48 13 0 13 9 16 48 13 26 -2 47
-7 47 -13z m225 0 c0 -12 -14 -15 -65 -15 -60 0 -75 6 -58 23 3 4 33 7 65 7
45 0 58 -3 58 -15z m160 0 c0 -16 -16 -20 -65 -16 -37 3 -44 9 -25 21 25 16
90 12 90 -5z m123 -106 c-5 -18 -23 -27 -23 -11 1 25 14 52 20 42 4 -7 5 -21
3 -31z m3 -305 c-3 -98 -9 -161 -16 -168 -7 -7 -58 -11 -143 -11 -76 0 -113 2
-87 6 25 3 34 7 20 8 -25 2 -25 2 -5 17 18 13 20 13 23 0 7 -35 67 -2 85 47 3
9 14 17 23 17 12 0 15 6 11 21 -4 13 0 22 11 26 30 10 63 56 61 83 -3 27 10
110 17 110 2 0 2 -70 0 -156z m-606 -44 c0 -5 -5 -10 -11 -10 -5 0 -7 5 -4 10
3 6 8 10 11 10 2 0 4 -4 4 -10z"/>
<path d="M4825 3984 l-30 -15 34 6 c18 3 37 5 42 5 5 0 9 5 9 10 0 14 -19 11
-55 -6z"/>
<path d="M4960 3989 c0 -5 5 -7 10 -4 6 3 10 8 10 11 0 2 -4 4 -10 4 -5 0 -10
-5 -10 -11z"/>
<path d="M5000 3990 c0 -5 7 -10 15 -10 8 0 15 5 15 10 0 6 -7 10 -15 10 -8 0
-15 -4 -15 -10z"/>
<path d="M5054 3989 c-11 -4 18 -8 66 -8 93 1 97 5 9 11 -31 3 -64 1 -75 -3z"/>
<path d="M8263 3763 c-8 -19 -9 -159 -6 -718 1 -214 -2 -412 -6 -440 -8 -50
-8 -50 -10 24 -2 128 -47 161 -222 161 -162 0 -169 -10 -181 -270 -4 -102 -12
-198 -16 -215 -8 -27 -13 -30 -54 -33 -43 -3 -46 -5 -51 -35 -2 -18 -2 -37 0
-43 5 -13 102 -21 351 -31 168 -6 172 -7 172 -28 0 -20 8 -22 160 -40 88 -10
160 -22 160 -27 0 -4 18 -8 40 -8 22 0 40 5 40 10 0 6 18 10 40 10 27 0 40 4
40 13 0 11 29 15 117 20 66 4 119 11 121 17 2 5 21 10 43 10 21 0 40 3 40 8
13 75 13 19 5 607 -4 328 -3 515 3 505 9 -12 11 -12 17 3 3 9 12 17 20 17 11
0 14 -29 14 -155 0 -95 -4 -164 -12 -180 -9 -20 -8 -31 3 -52 10 -22 14 -102
16 -363 2 -210 7 -336 13 -338 6 -2 10 -8 10 -13 0 -6 -4 -7 -10 -4 -5 3 -10
1 -10 -4 0 -6 19 -11 43 -11 23 0 85 -3 137 -6 52 -3 121 -2 153 1 l57 7 0
104 c0 57 -2 104 -5 104 -2 0 -14 -4 -27 -9 -13 -5 -42 -14 -65 -20 -40 -11
-43 -14 -43 -46 l0 -35 -78 0 c-68 0 -79 3 -90 21 -10 15 -11 24 -3 32 15 15
15 647 1 647 -6 0 -10 33 -10 80 0 47 4 80 10 80 6 0 10 18 10 40 0 22 -4 40
-10 40 -6 0 -10 101 -10 284 l0 284 -22 6 c-13 3 -218 6 -456 6 -399 0 -433
-1 -439 -17z m687 -732 c0 -17 -18 -21 -24 -6 -3 9 0 15 9 15 8 0 15 -4 15 -9z
m-640 -235 c0 -3 -4 -8 -10 -11 -5 -3 -10 -1 -10 4 0 6 5 11 10 11 6 0 10 -2
10 -4z m867 -218 c-2 -13 -4 -3 -4 22 0 25 2 35 4 23 2 -13 2 -33 0 -45z
m-1288 -183 l2 -125 -27 0 c-22 0 -25 3 -21 23 3 12 9 68 13 125 5 72 11 102
19 102 10 0 13 -32 14 -125z m316 -20 l-5 -95 -144 -3 -145 -2 3 35 c2 19 4
50 5 68 1 27 5 32 24 31 18 -1 19 -2 3 -6 -16 -4 -13 -10 20 -44 38 -39 39
-39 116 -39 l78 0 0 45 c0 39 -3 45 -25 51 -14 3 -25 9 -25 13 0 6 74 38 92
40 4 1 5 -42 3 -94z"/>
<path d="M8000 2300 c0 -11 43 -12 115 0 47 7 45 7 -32 9 -50 0 -83 -3 -83 -9z"/>
<path d="M7956 3218 c-3 -7 -4 -42 -3 -78 l2 -65 68 -3 68 -3 -3 78 -3 78 -63
3 c-44 2 -63 -1 -66 -10z m124 -58 c0 -5 -25 -10 -55 -10 -30 0 -55 5 -55 10
0 6 25 10 55 10 30 0 55 -4 55 -10z"/>
<path d="M7899 3180 c-4 -42 -1 -64 9 -68 8 -2 12 10 12 37 0 23 -4 41 -10 41
-5 0 -10 -4 -11 -10z"/>
<path d="M3010 3160 c0 -20 7 -20 455 -20 261 0 455 4 455 9 0 10 -192 18
-617 26 -288 5 -293 4 -293 -15z"/>
<path d="M7643 3080 c0 -25 2 -35 4 -22 2 12 2 32 0 45 -2 12 -4 2 -4 -23z"/>
<path d="M7620 2930 c0 -6 7 -10 15 -10 8 0 15 2 15 4 0 2 -7 6 -15 10 -8 3
-15 1 -15 -4z"/>
<path d="M9354 2450 c-14 -14 -4 -90 12 -97 19 -7 86 25 79 38 -4 5 1 9 11 9
13 0 14 3 5 14 -9 11 -7 15 11 21 20 6 18 8 -17 15 -55 12 -89 12 -101 0z"/>
<path d="M6855 2272 c-16 -10 -17 -64 -3 -74 7 -4 52 -8 101 -8 l87 0 0 40 0
40 -74 0 c-41 0 -80 2 -88 5 -7 3 -18 1 -23 -3z"/>
<path d="M7089 2219 c-23 -14 63 -19 300 -19 241 0 291 4 291 21 0 10 -575 8
-591 -2z"/>
<path d="M9070 2215 c0 -8 5 -15 10 -15 6 0 10 7 10 15 0 8 -4 15 -10 15 -5 0
-10 -7 -10 -15z"/>
<path d="M8930 969 c-8 -15 -10 -121 -4 -375 l7 -354 283 0 284 0 0 90 c0 63
-4 91 -13 97 -34 21 -47 58 -47 136 0 74 2 80 30 109 18 17 30 40 30 55 0 25
-1 25 -19 9 -19 -17 -19 -16 -14 22 3 24 0 49 -9 66 -14 26 -16 27 -31 11 -23
-22 -21 -35 4 -35 19 0 20 -4 15 -35 -4 -19 -2 -45 4 -57 11 -22 10 -22 -4 -4
-9 11 -16 31 -16 44 0 18 -4 23 -16 18 -11 -4 -18 1 -21 14 -3 11 -9 20 -14
20 -5 0 -9 10 -9 23 0 24 10 23 -152 27 -94 2 -133 13 -65 17 17 1 53 5 80 9
47 6 47 6 47 45 l0 38 113 4 c111 3 111 3 -43 7 l-155 4 155 6 c135 5 119 6
-127 8 -277 2 -283 2 -293 -19z m22 -254 c3 -138 2 -200 -2 -145 -8 99 -13
396 -6 389 2 -2 5 -112 8 -244z m374 113 c27 -9 37 -21 49 -57 19 -57 20 -131
1 -131 -7 0 -16 -8 -19 -19 -6 -25 -58 -49 -95 -43 -38 5 -85 -5 -77 -17 8
-14 9 -114 1 -139 -8 -26 -31 -29 -40 -6 -8 21 -8 409 1 417 11 12 145 8 179
-5z"/>
<path d="M9190 710 l0 -90 39 0 c63 0 89 14 100 55 12 45 7 76 -16 92 -10 7
-23 17 -30 23 -7 5 -30 10 -53 10 l-40 0 0 -90z"/>
<path d="M9328 873 c6 -2 18 -2 25 0 6 3 1 5 -13 5 -14 0 -19 -2 -12 -5z"/>
<path d="M9370 870 c0 -5 5 -10 10 -10 6 0 10 5 10 10 0 6 -4 10 -10 10 -5 0
-10 -4 -10 -10z"/>
<path d="M9460 874 c0 -9 31 -37 36 -32 9 9 -8 38 -22 38 -8 0 -14 -3 -14 -6z"/>
<path d="M9218 863 c12 -2 32 -2 45 0 12 2 2 4 -23 4 -25 0 -35 -2 -22 -4z"/>
<path d="M9487 603 c-11 -10 -8 -71 3 -78 6 -4 10 12 10 39 0 47 -2 51 -13 39z"/>
<path d="M5680 106 c0 -24 -3 -26 -40 -26 l-40 0 0 -40 0 -40 120 0 120 0 0
60 c0 52 -3 60 -19 60 -10 0 -46 3 -80 6 -61 7 -61 7 -61 -20z"/>
<path d="M5920 40 l0 -40 40 0 40 0 0 40 0 40 -40 0 -40 0 0 -40z"/>
</g>
</svg>
