<?xml version="1.0" standalone="no"?>
<!DOCTYPE svg PUBLIC "-//W3C//DTD SVG 20010904//EN"
 "http://www.w3.org/TR/2001/REC-SVG-20010904/DTD/svg10.dtd">
<svg version="1.0" xmlns="http://www.w3.org/2000/svg"
 width="1280.000000pt" height="720.000000pt" viewBox="0 0 1280.000000 720.000000"
 preserveAspectRatio="xMidYMid meet">
<metadata>
Created by potrace 1.16, written by Peter Selinger 2001-2019
</metadata>
<g transform="translate(0.000000,720.000000) scale(0.100000,-0.100000)"
fill="#000000" stroke="none">
<path d="M6189 7182 c-33 -20 -59 -66 -63 -115 -2 -21 -13 -48 -25 -61 -11
-12 -21 -26 -21 -31 0 -15 -42 -95 -50 -95 -9 0 -20 -70 -26 -164 -3 -38 -8
-74 -13 -80 -14 -18 -71 -254 -71 -294 0 -21 -4 -42 -8 -47 -5 -6 -19 -39 -31
-75 -31 -88 -54 -140 -61 -140 -4 0 -15 -19 -25 -42 -9 -24 -21 -51 -26 -60
-5 -10 -9 -25 -9 -34 0 -9 -9 -27 -20 -41 -11 -14 -20 -37 -20 -51 0 -28 -38
-92 -55 -92 -5 0 -19 -18 -29 -40 -11 -22 -23 -40 -28 -40 -4 0 -8 -16 -8 -35
0 -19 -4 -43 -9 -53 -5 -9 -14 -42 -20 -72 -25 -119 -32 -145 -41 -154 -6 -6
-10 -20 -10 -31 0 -12 -13 -41 -30 -63 -16 -23 -30 -47 -30 -52 0 -6 -11 -23
-25 -38 -14 -15 -25 -31 -25 -36 0 -5 -11 -24 -25 -42 -14 -18 -25 -37 -25
-43 0 -6 -19 -27 -42 -48 -87 -78 -124 -120 -172 -193 -45 -69 -120 -150 -138
-150 -4 0 -8 -7 -8 -15 0 -8 -9 -15 -20 -15 -11 0 -20 -6 -20 -14 0 -8 -25
-40 -55 -71 -30 -32 -55 -61 -55 -65 0 -4 -9 -10 -20 -13 -11 -3 -24 -16 -29
-29 -11 -29 -104 -128 -119 -128 -7 0 -12 -7 -12 -15 0 -9 -7 -18 -15 -21 -8
-4 -15 -13 -15 -20 0 -8 -8 -18 -17 -21 -10 -4 -23 -14 -30 -22 -11 -14 -15
-14 -43 2 -18 9 -45 17 -61 17 -16 0 -46 7 -66 15 -20 9 -60 16 -89 18 -43 2
-57 -2 -73 -20 -27 -28 -26 -44 4 -133 14 -40 25 -84 25 -97 0 -14 6 -23 15
-23 8 0 15 -4 15 -10 0 -5 18 -10 40 -10 22 0 40 5 40 10 0 6 25 10 56 10 70
0 159 25 201 56 17 13 39 24 47 24 9 0 16 6 16 13 0 12 24 28 63 43 9 3 17 10
17 15 0 5 5 9 10 9 6 0 19 8 29 18 37 32 50 42 61 42 5 0 10 4 10 9 0 5 11 12
25 15 14 4 25 12 25 19 0 7 18 24 40 37 89 54 136 86 160 107 14 13 39 30 57
38 18 9 33 20 33 25 0 6 6 10 14 10 8 0 16 3 18 8 4 10 84 72 93 72 11 0 65
57 65 69 0 6 5 11 10 11 6 0 18 8 28 18 11 9 31 26 46 36 14 10 24 21 21 24
-2 3 2 10 9 16 8 6 44 56 80 111 36 55 69 105 73 110 27 33 42 67 48 110 4 26
16 56 26 66 10 10 21 30 25 44 3 14 10 25 15 25 5 0 9 7 9 15 0 8 4 15 8 15
26 0 52 -142 52 -283 0 -108 -24 -243 -70 -392 -11 -33 -25 -81 -32 -107 -7
-27 -16 -48 -20 -48 -4 0 -8 -18 -8 -39 0 -22 -5 -41 -10 -43 -14 -4 -92 -223
-98 -273 -2 -22 -8 -44 -13 -49 -5 -6 -9 -20 -9 -32 0 -12 -7 -27 -15 -34 -8
-7 -15 -22 -15 -34 0 -35 -35 -121 -84 -206 -26 -44 -53 -108 -62 -142 -8 -35
-21 -81 -29 -103 -7 -22 -23 -71 -35 -110 -13 -38 -31 -87 -42 -108 -10 -21
-20 -53 -22 -70 -2 -28 -18 -84 -55 -199 -7 -20 -5 -30 8 -41 23 -21 51 -33
90 -41 19 -3 56 -20 83 -37 26 -17 66 -33 89 -36 62 -9 73 -34 78 -173 4 -119
-16 -347 -31 -356 -4 -3 -8 -23 -8 -44 0 -21 -9 -54 -19 -72 -11 -18 -25 -71
-32 -118 -18 -118 -16 -683 2 -860 18 -170 17 -281 -2 -317 -8 -14 -29 -42
-47 -62 -26 -28 -43 -36 -85 -42 -29 -3 -63 -2 -76 3 -16 6 -39 4 -71 -7 -36
-12 -50 -23 -63 -51 -21 -43 -22 -74 -2 -74 8 0 15 -4 15 -8 0 -5 23 -19 51
-31 37 -17 72 -24 135 -26 46 -1 87 -5 91 -9 9 -9 281 -8 286 2 3 4 7 96 9
204 2 137 6 198 14 198 6 0 16 34 23 77 6 43 16 110 22 148 6 39 17 97 25 131
22 93 44 279 44 366 0 45 4 78 10 78 6 0 10 43 10 110 0 70 6 130 16 167 9 32
19 72 21 88 3 17 14 39 24 50 10 11 20 40 22 65 3 25 9 57 15 71 10 26 33 197
37 281 2 26 6 59 9 74 7 26 8 26 64 20 31 -4 96 -9 145 -13 l87 -5 0 -50 c0
-27 -5 -58 -10 -68 -19 -35 -44 -338 -31 -379 21 -70 33 -224 26 -325 -11
-155 -7 -674 5 -769 11 -82 11 -88 -11 -126 -22 -39 -22 -41 -9 -173 15 -145
17 -218 8 -288 -5 -37 -2 -49 15 -67 11 -13 26 -23 33 -23 7 0 14 -5 16 -11 6
-17 230 -18 235 -1 3 6 16 12 29 12 37 0 67 36 60 72 -3 17 -6 38 -6 47 0 16
-58 41 -97 41 -23 1 -63 83 -63 128 0 22 -5 32 -15 32 -20 0 -20 46 1 127 15
61 15 65 -2 84 -17 19 -17 22 -2 52 10 18 31 88 49 157 18 69 36 129 40 135 5
5 9 21 9 36 0 14 9 62 20 105 11 44 20 95 20 114 0 35 17 92 35 120 5 9 10
152 10 340 1 202 6 340 12 365 7 22 17 83 23 135 14 109 27 150 46 150 8 0 14
6 14 14 0 11 31 15 140 21 77 4 143 11 146 16 3 5 8 37 12 70 7 59 8 62 42 73
40 13 41 13 23 141 -7 50 -16 153 -19 230 l-7 141 37 39 c20 22 41 57 46 77 6
20 16 43 23 50 15 15 34 95 43 183 4 33 12 63 18 67 6 4 12 54 14 123 3 63 8
115 13 115 5 0 9 123 9 280 0 180 -4 280 -10 280 -5 0 -10 17 -10 38 0 22 -6
60 -14 86 -8 27 -12 54 -10 61 3 7 1 23 -6 34 -6 12 -7 21 -2 21 9 0 -8 152
-18 160 -11 8 -40 277 -41 370 -1 124 -25 339 -40 355 -5 5 -9 28 -9 51 0 25
-5 44 -12 47 -7 2 -10 8 -5 12 4 5 13 0 20 -9 10 -14 21 -17 45 -12 17 4 36
14 43 22 10 12 4 14 -35 14 -34 0 -46 4 -46 15 0 8 -6 15 -14 15 -7 0 -16 13
-19 29 -3 16 -12 35 -19 43 -21 22 -38 56 -38 74 0 35 -24 94 -38 94 -14 0
-14 -3 5 -62 3 -10 0 -18 -6 -18 -11 0 -16 32 -13 83 1 17 -4 30 -13 33 -8 4
-15 15 -15 25 0 17 -28 87 -40 99 -7 7 -46 87 -62 128 -7 17 -16 32 -20 32 -5
0 -8 8 -8 19 0 10 -7 24 -15 31 -8 7 -15 23 -15 36 0 12 -4 25 -9 28 -5 3 -12
23 -15 43 -11 66 -39 163 -46 163 -4 0 -10 16 -13 35 -8 47 -47 125 -64 125
-7 0 -13 8 -13 18 0 9 -11 29 -25 44 -14 15 -25 31 -25 35 0 4 -10 17 -23 28
-12 11 -49 51 -81 88 -82 94 -113 107 -245 106 -78 -1 -113 -5 -132 -17z m440
-345 c26 -49 31 -69 31 -128 0 -39 -4 -69 -10 -69 -5 0 -10 -7 -10 -15 0 -14
-3 -13 -24 2 -32 24 -41 76 -22 130 13 37 13 44 -3 75 -10 18 -22 49 -26 68
-7 35 -7 35 13 15 11 -11 34 -46 51 -78z m379 -1889 c6 -29 18 -102 27 -163 9
-60 23 -132 30 -160 7 -27 19 -92 25 -144 7 -52 21 -119 31 -149 10 -30 19
-70 19 -89 0 -18 4 -33 9 -33 4 0 11 -33 14 -72 3 -40 15 -100 27 -132 28 -74
24 -167 -10 -200 -18 -18 -22 -19 -30 -6 -5 8 -10 26 -10 40 0 23 -32 220 -50
315 -5 22 -13 67 -19 100 -6 33 -15 61 -21 63 -5 2 -10 18 -10 34 0 30 -15
126 -45 288 -8 41 -17 139 -19 218 -5 118 -3 142 8 142 10 0 18 -19 24 -52z"/>
</g>
</svg>
