<?xml version="1.0" standalone="no"?>
<!DOCTYPE svg PUBLIC "-//W3C//DTD SVG 20010904//EN"
 "http://www.w3.org/TR/2001/REC-SVG-20010904/DTD/svg10.dtd">
<svg version="1.0" xmlns="http://www.w3.org/2000/svg"
 width="1280.000000pt" height="720.000000pt" viewBox="0 0 1280.000000 720.000000"
 preserveAspectRatio="xMidYMid meet">
<metadata>
Created by potrace 1.16, written by Peter Selinger 2001-2019
</metadata>
<g transform="translate(0.000000,720.000000) scale(0.100000,-0.100000)"
fill="#000000" stroke="none">
<path d="M6189 7182 c-33 -20 -59 -66 -63 -115 -2 -21 -13 -48 -25 -61 -11
-12 -21 -26 -21 -31 0 -15 -42 -95 -50 -95 -9 0 -20 -70 -26 -164 -3 -38 -8
-74 -13 -80 -14 -18 -71 -254 -71 -294 0 -21 -4 -42 -8 -47 -5 -6 -19 -39 -31
-75 -31 -88 -54 -140 -61 -140 -4 0 -15 -19 -25 -42 -9 -24 -21 -51 -26 -60
-5 -10 -9 -25 -9 -34 0 -9 -9 -27 -20 -41 -11 -14 -20 -37 -20 -51 0 -28 -38
-92 -55 -92 -5 0 -19 -18 -29 -40 -11 -22 -23 -40 -28 -40 -4 0 -8 -16 -8 -35
0 -19 -4 -43 -9 -53 -5 -9 -14 -42 -20 -72 -25 -119 -32 -145 -41 -154 -6 -6
-10 -20 -10 -31 0 -12 -13 -41 -30 -63 -16 -23 -30 -47 -30 -52 0 -6 -11 -23
-25 -38 -14 -15 -25 -31 -25 -36 0 -5 -11 -24 -25 -42 -14 -18 -25 -37 -25
-42 0 -5 -16 -13 -35 -16 -19 -4 -35 -12 -35 -19 0 -9 -2 -9 -8 -1 -8 14 -196
21 -749 30 -205 4 -373 9 -373 13 0 3 -141 7 -313 8 -171 1 -430 5 -574 9
l-263 6 0 -186 0 -186 193 0 c105 0 248 5 317 10 69 5 277 12 463 16 299 6
337 5 337 -8 0 -12 17 -17 74 -23 73 -6 116 3 116 26 0 5 13 3 30 -6 23 -12
70 -15 238 -15 227 0 222 1 222 -56 0 -17 -6 -24 -20 -24 -11 0 -20 -6 -20
-14 0 -17 -54 -76 -69 -76 -6 0 -11 -6 -11 -12 -1 -18 -31 -52 -53 -61 -9 -3
-21 -15 -24 -24 -4 -10 -24 -33 -45 -52 -21 -19 -38 -38 -38 -43 0 -13 -26
-38 -39 -38 -6 0 -11 -7 -11 -15 0 -9 -7 -18 -15 -21 -8 -4 -15 -13 -15 -20 0
-8 -8 -18 -17 -21 -10 -4 -23 -14 -30 -22 -11 -14 -15 -14 -43 2 -18 9 -45 17
-61 17 -16 0 -45 6 -63 14 -61 25 -112 29 -150 11 -31 -15 -36 -22 -36 -51 l0
-34 -105 0 c-117 0 -109 -5 -106 75 2 49 -10 58 -52 40 -29 -12 -38 -23 -47
-54 -9 -34 -15 -40 -54 -51 -25 -7 -67 -10 -98 -6 -29 3 -171 5 -315 5 -196 0
-267 3 -282 13 -17 10 -25 10 -41 0 -44 -27 -53 -17 -48 53 l4 65 -31 0 c-17
0 -36 -5 -43 -12 -9 -9 -12 -147 -12 -560 l0 -548 378 -2 c878 -3 1015 -3 972
3 l-45 6 43 1 c23 1 42 6 42 11 0 5 13 14 30 21 16 7 39 21 51 31 l22 19 -24
0 c-13 0 -34 3 -47 6 -18 5 -20 9 -11 20 10 12 2 14 -47 12 -50 -1 -53 -2 -16
-5 53 -5 56 -23 3 -23 -48 0 -79 25 -83 65 l-3 30 65 0 c36 0 117 -3 180 -5
110 -5 115 -4 115 15 0 19 -8 20 -120 25 -118 5 -119 5 -53 13 37 4 84 5 106
1 30 -5 40 -3 45 10 11 28 -28 36 -179 36 l-147 0 8 253 c6 234 11 282 22 250
6 -15 83 -18 83 -3 0 6 25 10 56 10 70 0 159 25 201 56 17 13 39 24 47 24 9 0
16 6 16 13 0 12 24 28 63 43 9 3 17 10 17 15 0 5 5 9 10 9 6 0 19 8 29 18 37
32 50 42 61 42 5 0 10 4 10 9 0 5 11 12 25 15 14 4 25 12 25 19 0 7 18 24 40
37 89 54 136 86 160 107 14 13 39 30 57 38 18 9 33 20 33 25 0 6 6 10 14 10 8
0 16 3 18 8 4 10 84 72 93 72 11 0 65 57 65 69 0 6 5 11 10 11 6 0 19 8 29 18
42 37 51 42 86 42 19 0 35 5 35 10 0 6 -15 10 -32 10 l-33 1 29 15 c18 10 31
12 35 6 3 -5 41 -13 84 -17 42 -4 77 -11 77 -16 0 -14 78 -11 84 4 13 27 -6
-92 -24 -153 -10 -36 -24 -86 -31 -112 -8 -27 -17 -48 -21 -48 -4 0 -8 -18 -8
-39 0 -22 -5 -41 -10 -43 -14 -4 -92 -223 -98 -273 -2 -22 -8 -44 -13 -49 -5
-6 -9 -20 -9 -32 0 -13 -5 -26 -11 -30 -6 -3 -120 -5 -253 -4 -392 4 -510 3
-527 -4 -13 -6 -16 -27 -18 -122 -1 -64 -6 -125 -12 -136 -8 -15 -8 -32 -1
-57 6 -20 9 -107 7 -193 -2 -129 0 -158 11 -158 8 0 14 9 14 20 0 13 10 24 25
30 14 5 36 21 49 35 21 23 26 24 39 11 10 -10 17 -12 25 -4 14 14 35 0 28 -19
-3 -8 -1 -23 5 -34 9 -17 7 -21 -9 -26 -11 -2 -25 -16 -31 -29 -6 -13 -17 -24
-26 -24 -8 0 -16 -4 -16 -10 -1 -5 -2 -14 -3 -19 -2 -18 -16 -24 -29 -13 -7 6
-23 9 -35 5 -18 -4 -22 -1 -22 16 0 12 -6 21 -15 21 -9 0 -15 -9 -15 -22 0
-13 -3 -34 -7 -47 -6 -24 -5 -24 45 -18 31 4 52 2 52 -4 0 -5 11 -2 25 7 13 8
28 13 33 10 5 -3 89 -6 186 -7 175 -1 177 -2 174 -23 -3 -21 -4 -21 -268 -18
-146 2 -269 7 -274 13 -10 9 -10 66 -2 599 3 191 2 276 -4 240 -5 -30 -11
-179 -14 -330 -9 -417 -15 -533 -28 -542 -7 -4 -396 -4 -865 -1 l-853 6 0 -21
c0 -21 3 -22 137 -22 75 0 134 -3 131 -6 -4 -3 -65 -5 -137 -5 -125 1 -131 0
-131 -19 0 -18 7 -20 60 -20 l60 0 0 -30 0 -30 -60 0 c-53 0 -60 -2 -60 -20 0
-18 7 -20 58 -20 43 0 53 -3 42 -11 -11 -8 -12 -12 -2 -16 8 -3 12 -30 12 -84
l0 -79 -32 0 c-71 0 -78 -7 -78 -71 0 -48 3 -57 15 -53 8 4 15 1 15 -5 0 -6
-7 -11 -15 -11 -11 0 -15 -11 -15 -40 0 -36 3 -40 25 -40 25 0 25 -1 25 -80 0
-50 -4 -80 -11 -80 -6 0 -8 -9 -4 -22 5 -18 4 -20 -4 -8 -18 25 -31 -7 -31
-81 0 -66 0 -67 30 -73 22 -4 38 -18 58 -51 15 -25 30 -45 34 -45 4 0 15 12
25 28 9 15 25 35 35 45 17 17 19 17 42 -8 13 -14 28 -25 35 -25 6 0 11 -5 11
-10 0 -24 39 16 51 52 12 38 29 51 29 23 0 -11 11 -15 40 -15 36 0 40 -2 40
-25 0 -17 5 -25 18 -25 9 0 23 -9 30 -20 20 -32 30 -24 48 40 17 61 34 75 53
43 10 -17 12 -17 25 0 20 25 34 21 41 -14 4 -17 13 -41 20 -55 l12 -24 15 22
c8 13 20 38 27 55 13 32 15 33 76 33 l62 0 18 -55 c21 -61 35 -71 35 -25 0 19
7 33 19 40 11 5 23 19 26 30 7 22 51 26 128 14 35 -6 37 -8 37 -45 0 -28 4
-39 15 -39 8 0 15 7 15 15 0 8 11 26 25 40 32 31 84 34 103 5 17 -27 32 -25
32 5 l0 25 203 1 c262 2 418 -1 439 -7 9 -3 21 -19 28 -37 l11 -32 20 24 c10
13 19 30 19 38 0 13 10 15 50 11 39 -4 54 -11 71 -32 27 -34 39 -33 39 3 0 28
1 29 76 36 72 7 76 6 100 -20 l24 -26 24 25 c18 21 33 26 68 26 25 0 47 -2 50
-5 2 -3 -2 -51 -10 -107 -20 -137 -21 -640 -3 -940 11 -191 11 -231 0 -257 -8
-17 -20 -31 -27 -31 -8 0 -16 -9 -19 -20 -3 -11 -12 -20 -21 -20 -8 0 -20 -7
-26 -16 -11 -15 -61 -20 -147 -14 -36 2 -84 -16 -122 -45 -15 -11 -18 -21 -12
-53 6 -37 11 -42 73 -72 55 -27 80 -33 151 -36 47 -2 90 -3 96 -4 27 -1 -28
-32 -66 -37 -24 -3 -46 -9 -49 -12 -13 -16 -53 -31 -80 -31 -16 0 -30 -4 -30
-9 0 -5 -10 -13 -22 -17 -32 -10 -72 -50 -65 -67 3 -8 25 -16 54 -20 54 -6
144 -38 125 -45 -18 -6 -16 -82 3 -82 8 0 15 -7 15 -16 0 -12 10 -15 45 -13
37 3 50 -2 73 -24 15 -15 38 -27 50 -27 12 0 22 -3 22 -8 0 -18 -43 -42 -75
-42 l-35 0 0 -55 0 -55 200 0 200 0 0 40 0 40 40 0 c22 0 40 5 40 10 0 6 -18
10 -40 10 -29 0 -40 4 -40 15 0 11 -11 15 -38 15 l-38 0 0 58 c0 31 -2 91 -3
132 -2 50 0 75 8 78 9 3 9 7 0 18 -8 10 -8 68 2 236 7 123 12 242 12 266 -1
23 2 42 6 42 10 0 16 26 42 190 21 127 29 177 49 285 6 33 13 120 17 192 3 73
10 133 14 133 4 0 10 53 12 118 4 118 32 266 54 289 8 10 58 13 177 13 148 0
165 -2 170 -17 19 -69 27 -241 18 -388 -11 -189 -11 -167 -11 -425 0 -113 4
-232 8 -264 8 -60 5 -96 -9 -96 -4 0 -10 -35 -14 -77 -5 -70 -1 -126 20 -299
4 -34 2 -54 -5 -58 -6 -4 -11 -33 -11 -64 0 -62 20 -92 60 -92 13 0 20 -7 20
-19 0 -16 8 -21 43 -24 l42 -4 -42 -1 c-31 -1 -43 -6 -43 -17 0 -11 11 -15 40
-15 l40 0 0 -40 0 -40 -65 0 -65 0 0 -40 c0 -29 -4 -40 -15 -40 -12 0 -15 -16
-15 -80 l0 -80 160 0 160 0 0 40 c0 35 -3 40 -23 40 -22 0 -24 5 -35 103 -16
135 -16 137 9 137 16 0 19 4 14 20 -5 17 -1 21 25 27 18 3 34 12 37 19 3 8 15
14 27 14 28 0 53 59 37 89 -6 11 -11 31 -11 45 0 23 -4 26 -36 26 -43 0 -54
11 -95 100 -28 60 -31 73 -30 172 0 62 -4 108 -9 108 -15 0 -12 23 7 60 9 18
22 61 29 94 7 34 20 86 30 116 9 30 19 76 21 103 3 26 8 47 13 47 4 0 11 24
14 53 25 186 30 211 50 236 7 9 11 98 12 265 l1 251 24 13 c13 7 35 10 49 6
13 -3 73 -2 132 2 l108 7 0 38 0 39 -160 0 c-100 0 -160 4 -160 10 0 6 4 10 9
10 6 0 9 8 9 18 -1 32 34 277 44 305 6 15 17 27 24 27 8 0 14 6 14 14 0 11 31
15 141 21 159 8 159 8 159 101 0 46 1 47 53 58 27 6 27 8 22 59 -3 28 -10 79
-15 112 -5 33 -12 126 -16 208 -6 133 -5 147 10 147 9 0 16 6 16 13 0 8 8 22
19 31 10 9 27 38 36 64 10 26 21 49 25 52 8 7 28 101 36 175 4 33 12 63 18 67
6 4 12 54 14 123 3 63 8 115 13 115 5 0 9 123 9 280 0 180 -4 280 -10 280 -5
0 -10 17 -10 38 0 22 -6 60 -14 86 -8 27 -12 54 -10 61 3 7 0 23 -6 36 -12 22
-12 22 34 16 25 -4 204 -7 398 -8 376 -2 1167 -14 1536 -23 l222 -5 0 44 c0
42 -1 44 -32 48 l-33 4 33 1 c17 1 32 7 32 13 0 9 -183 11 -690 8 l-690 -4 -1
-25 -1 -25 -11 28 -11 27 -368 0 -368 0 0 40 c0 22 -4 40 -10 40 -5 0 -10 -19
-10 -42 -1 -24 -7 -56 -14 -73 -13 -29 -13 -29 -21 40 -4 39 -11 72 -15 75
-10 8 -40 275 -41 370 -1 124 -25 339 -40 355 -5 5 -9 28 -9 51 0 25 -5 44
-12 47 -7 2 -10 8 -5 12 4 5 13 0 20 -9 10 -14 21 -17 45 -12 17 4 36 14 43
22 10 12 4 14 -35 14 -34 0 -46 4 -46 15 0 8 -6 15 -14 15 -7 0 -16 13 -19 29
-3 16 -12 35 -19 43 -21 22 -38 56 -38 74 0 35 -24 94 -38 94 -14 0 -14 -3 5
-62 3 -10 0 -18 -6 -18 -11 0 -16 32 -13 83 1 17 -4 30 -13 33 -8 4 -15 15
-15 25 0 17 -28 87 -40 99 -7 7 -46 87 -62 128 -7 17 -16 32 -20 32 -5 0 -8 8
-8 19 0 10 -7 24 -15 31 -8 7 -15 23 -15 36 0 12 -4 25 -9 28 -5 3 -12 23 -15
43 -11 66 -39 163 -46 163 -4 0 -10 16 -13 35 -8 47 -47 125 -64 125 -7 0 -13
8 -13 18 0 9 -11 29 -25 44 -14 15 -25 31 -25 35 0 4 -10 17 -23 28 -12 11
-49 51 -81 88 -82 94 -113 107 -245 106 -78 -1 -113 -5 -132 -17z m440 -345
c26 -49 31 -69 31 -128 0 -39 -4 -69 -10 -69 -5 0 -10 -7 -10 -15 0 -14 -3
-13 -24 2 -32 24 -41 76 -22 130 13 37 13 44 -3 75 -10 18 -22 49 -26 68 -7
35 -7 35 13 15 11 -11 34 -46 51 -78z m-775 -1629 c4 -21 20 -144 31 -238 3
-19 0 -42 -5 -50 -7 -11 -10 -1 -10 33 0 48 -17 65 -27 27 -4 -16 -14 -20 -43
-20 -34 0 -39 3 -45 30 -9 41 5 120 25 140 9 9 25 35 36 58 22 47 32 52 38 20z
m-104 -238 c0 -5 -7 -10 -15 -10 -8 0 -15 5 -15 10 0 6 7 10 15 10 8 0 15 -4
15 -10z m-1074 -162 c2 -3 2 -13 -2 -22 -6 -15 -18 -17 -82 -14 -75 3 -102 18
-71 40 14 9 145 6 155 -4z m2370 -115 c3 -43 13 -93 21 -111 8 -18 18 -81 23
-140 5 -64 17 -129 29 -161 11 -29 29 -97 41 -150 11 -53 27 -127 35 -166 18
-80 12 -135 -16 -161 -28 -25 -33 -14 -48 114 -7 59 -19 136 -27 172 -19 83
-31 145 -39 193 -3 20 -10 37 -15 37 -4 0 -10 24 -12 53 -3 28 -10 84 -16 122
-22 132 -35 272 -28 299 l7 28 19 -25 c15 -18 22 -48 26 -104z m-2326 57 c0
-5 -4 -10 -10 -10 -5 0 -10 5 -10 10 0 6 5 10 10 10 6 0 10 -4 10 -10z m223 3
c-13 -2 -33 -2 -45 0 -13 2 -3 4 22 4 25 0 35 -2 23 -4z m-691 -635 c18 -22
19 -34 13 -223 -3 -110 -8 -243 -10 -295 -3 -52 -5 -98 -5 -102 0 -5 -56 -8
-125 -8 l-125 0 5 43 c2 23 7 165 10 316 3 151 8 278 11 283 3 4 51 8 106 8
92 0 102 -2 120 -22z m-997 -17 c-9 -8 -47 -15 -68 -12 -5 1 -5 6 -2 11 3 6
23 10 43 10 22 0 32 -4 27 -9z m200 -6 c0 -5 -21 -11 -47 -13 -39 -3 -48 0
-48 13 0 13 9 16 48 13 26 -2 47 -7 47 -13z m225 0 c0 -11 -15 -14 -72 -14
-65 1 -71 2 -53 15 26 20 125 19 125 -1z m160 0 c0 -9 -10 -16 -22 -16 -13 -1
-33 -3 -46 -4 -27 -3 -40 14 -21 26 24 15 89 11 89 -6z m110 -5 c0 -5 -5 -10
-11 -10 -5 0 -7 5 -4 10 3 6 8 10 11 10 2 0 4 -4 4 -10z m10 -91 c0 -17 -4
-28 -10 -24 -5 3 -10 17 -10 31 0 13 5 24 10 24 6 0 10 -14 10 -31z m3 -316
c-3 -87 -10 -164 -15 -170 -12 -15 -108 -18 -108 -3 0 6 -7 10 -17 10 -15 0
-15 1 0 18 10 10 17 22 17 27 0 4 10 16 23 27 12 11 22 25 22 32 0 7 12 24 27
37 20 19 28 40 37 96 6 40 11 74 11 77 0 3 2 6 5 6 2 0 1 -71 -2 -157z m1197
119 c0 -4 -16 -9 -36 -10 -23 -2 -33 1 -29 8 7 12 65 14 65 2z m-21 -79 c1
-15 -35 -17 -44 -3 -3 6 1 10 9 10 10 0 16 9 17 23 0 21 1 21 9 2 5 -11 9 -26
9 -32z m28 5 c-3 -7 -5 -2 -5 12 0 14 2 19 5 13 2 -7 2 -19 0 -25z m-207 -8
c0 -5 -6 -10 -14 -10 -8 0 -18 5 -21 10 -3 6 3 10 14 10 12 0 21 -4 21 -10z
m80 1 c0 -4 -11 -6 -25 -3 -14 2 -25 6 -25 8 0 2 11 4 25 4 14 0 25 -4 25 -9z
m195 -1 c-3 -5 -13 -10 -21 -10 -8 0 -14 5 -14 10 0 6 9 10 21 10 11 0 17 -4
14 -10z m118 -7 c-7 -2 -19 -2 -25 0 -7 3 -2 5 12 5 14 0 19 -2 13 -5z m84 1
c-3 -3 -12 -4 -19 -1 -8 3 -5 6 6 6 11 1 17 -2 13 -5z m-104 -31 c-7 -2 -19
-2 -25 0 -7 3 -2 5 12 5 14 0 19 -2 13 -5z m-46 -25 c-3 -8 -6 -5 -6 6 -1 11
2 17 5 13 3 -3 4 -12 1 -19z m70 0 c-3 -8 -6 -5 -6 6 -1 11 2 17 5 13 3 -3 4
-12 1 -19z m99 -52 c-5 -19 -11 -21 -41 -18 -19 2 -35 9 -35 14 0 6 7 8 15 4
8 -3 15 -1 15 5 0 6 7 6 20 -1 18 -10 20 -7 21 32 2 32 3 36 6 14 3 -15 2 -38
-1 -50z m-206 8 c0 -8 -10 -14 -25 -14 -18 0 -25 5 -25 19 0 14 6 17 25 13 14
-2 25 -11 25 -18z m-120 1 c0 -9 -9 -15 -22 -15 -21 0 -21 0 -2 15 24 18 24
18 24 0z m190 -15 c19 0 30 6 33 18 4 13 5 11 6 -5 1 -20 -4 -23 -39 -23 -35
0 -40 3 -39 23 1 16 2 18 6 5 3 -12 14 -18 33 -18z m-270 4 c0 -2 -9 -4 -21
-4 -11 0 -18 4 -14 10 5 8 35 3 35 -6z m42 -64 c-2 -16 -6 -30 -8 -30 -2 0 -4
14 -4 30 0 17 4 30 8 30 5 0 7 -13 4 -30z m336 11 c11 -7 11 -9 -1 -14 -10 -4
-13 -13 -10 -26 3 -12 1 -21 -6 -21 -6 0 -11 16 -11 35 0 36 5 41 28 26z
m-1748 -21 c0 -5 -5 -10 -11 -10 -5 0 -7 5 -4 10 3 6 8 10 11 10 2 0 4 -4 4
-10z m1558 -33 c3 -23 0 -27 -22 -27 -31 0 -36 8 -25 38 12 32 43 25 47 -11z
m-1495 6 c-13 -2 -33 -2 -45 0 -13 2 -3 4 22 4 25 0 35 -2 23 -4z m1197 -17
c0 -11 -19 -15 -25 -6 -3 5 1 10 9 10 9 0 16 -2 16 -4z m115 -6 c-3 -5 -15
-10 -26 -10 -10 0 -19 5 -19 10 0 6 12 10 26 10 14 0 23 -4 19 -10z m90 0 c-3
-5 -15 -10 -25 -10 -10 0 -22 5 -25 10 -4 6 7 10 25 10 18 0 29 -4 25 -10z
m185 0 c0 -5 -6 -10 -14 -10 -8 0 -18 5 -21 10 -3 6 3 10 14 10 12 0 21 -4 21
-10z m20 -139 c13 -26 13 -31 -5 -31 -14 0 -20 -17 -16 -47 2 -14 -17 -17 -35
-5 -7 4 -11 28 -10 54 1 45 3 48 28 48 17 0 31 -7 38 -19z m-135 -59 c-8 -8
-25 10 -25 26 0 13 2 13 14 -4 8 -10 13 -21 11 -22z m-1540 -257 c6 -2 -64 -3
-155 -2 -127 0 -145 2 -80 6 81 6 214 3 235 -4z m221 4 c3 -5 -33 -9 -80 -9
-47 0 -86 4 -86 9 0 11 159 11 166 0z m-616 -68 c0 -16 -9 -20 -50 -23 -28 -1
-52 1 -54 7 -8 25 8 35 55 35 42 0 49 -3 49 -19z m240 4 c0 -28 -34 -33 -182
-25 -5 0 -8 9 -8 20 0 19 7 20 95 20 77 0 95 -3 95 -15z m160 -10 c0 -11 -12
-15 -42 -16 -70 -2 -85 2 -73 20 3 6 31 11 61 11 41 0 54 -4 54 -15z m215 0
c0 -12 -141 -23 -161 -12 -8 5 -12 13 -8 18 8 13 169 7 169 -6z m243 3 c-3 -9
-33 -13 -103 -13 -70 0 -100 4 -102 13 -4 9 21 12 102 12 81 0 106 -3 103 -12z
m162 -33 c0 -53 -21 -61 -42 -17 -7 15 -23 28 -35 30 -12 2 -27 10 -33 18 -11
12 -3 14 49 14 l61 0 0 -45z m698 18 l-3 -28 -105 -7 c-58 -4 -148 -12 -200
-18 -52 -6 -152 -10 -221 -10 -106 0 -128 3 -133 16 -8 21 -8 59 1 67 3 4 154
7 335 7 l329 0 -3 -27z m156 21 c9 -3 16 -18 16 -33 0 -25 -2 -26 -65 -29
l-65 -3 0 35 0 36 49 0 c27 0 56 -3 65 -6z m101 -3 c-25 -5 -27 -8 -14 -16 9
-6 18 -22 21 -37 5 -28 -5 -38 -17 -18 -4 6 -10 8 -15 5 -11 -7 -19 30 -13 55
4 15 13 20 37 19 l31 -1 -30 -7z m-1135 -106 c19 0 26 -107 10 -149 -10 -26
-12 -27 -82 -25 -114 3 -118 6 -118 86 0 38 4 73 8 78 4 6 36 12 72 14 36 1
67 4 69 6 2 3 9 1 15 -3 6 -3 18 -7 26 -7z m-840 -85 l0 -78 -55 -4 -55 -3 0
72 c0 97 1 99 60 95 l50 -4 0 -78z m208 64 c18 11 29 -72 16 -121 -4 -13 -11
-20 -16 -17 -6 4 -15 0 -20 -7 -6 -9 -11 -10 -14 -4 -3 7 -27 9 -65 5 -33 -3
-62 -4 -64 -1 -8 7 -5 135 3 148 11 18 124 21 139 4 6 -7 16 -10 21 -7z m777
12 c16 -11 20 -30 23 -110 4 -91 3 -96 -16 -96 -13 0 -22 8 -24 22 -2 13 -12
22 -25 24 -22 4 -28 -5 -24 -33 1 -7 -3 -13 -9 -13 -10 0 -15 201 -5 211 10
11 63 8 80 -5z m-383 -10 c12 -17 9 -134 -2 -141 -6 -4 -43 -7 -83 -7 l-72 -1
-3 72 c-3 66 -1 72 20 81 30 12 131 9 140 -4z m1504 -20 c2 -11 4 -64 2 -116
l-3 -95 -35 1 c-109 1 -150 5 -150 14 0 6 37 11 88 12 l87 2 -82 3 -83 4 0 64
c0 78 7 100 26 84 11 -9 14 -9 14 0 0 8 8 10 19 6 30 -9 71 5 71 24 0 37 36
35 46 -3z m-1706 -50 l0 -74 -56 -4 c-45 -2 -58 0 -65 14 -10 18 -13 121 -4
130 3 3 32 6 65 7 l60 2 0 -75z m836 37 c118 1 124 2 125 21 2 19 2 19 6 -1 4
-23 33 -33 33 -13 0 6 10 1 22 -10 21 -19 33 -21 155 -18 l133 3 0 -27 c0 -20
-4 -26 -15 -22 -12 5 -15 -4 -15 -49 l0 -56 -35 6 c-23 4 -35 2 -35 -6 0 -6
17 -11 38 -12 30 0 33 -2 17 -9 -29 -12 -465 -12 -465 0 0 6 37 11 88 12 66 1
53 3 -58 7 -92 4 -148 2 -152 -4 -17 -22 -28 23 -26 100 3 68 6 80 19 77 10
-1 20 7 24 20 7 23 8 23 12 2 4 -20 10 -21 129 -21z m949 7 c3 -5 19 -10 35
-10 34 0 40 -13 40 -90 0 -90 -11 -110 -60 -110 -57 0 -55 27 3 33 l42 4 -47
1 -48 2 0 74 c0 41 3 81 6 90 7 18 20 21 29 6z m-335 -41 c0 -6 7 -9 15 -5 11
4 15 -1 14 -17 0 -12 -3 -16 -6 -9 -12 30 -23 7 -23 -48 0 -47 3 -60 15 -60 8
0 15 -4 15 -10 0 -6 -27 -10 -60 -10 -33 0 -60 4 -60 10 0 6 18 10 40 10 l40
0 0 45 0 45 -42 2 -43 1 43 4 c53 5 55 23 2 23 -29 0 -40 4 -40 15 0 11 12 15
45 15 26 0 45 -5 45 -11z m476 -75 c5 -64 -6 -108 -22 -92 -10 10 -18 143 -10
164 12 32 27 -1 32 -72z m-616 -29 c0 -30 -4 -55 -10 -55 -5 0 -10 25 -10 55
0 30 5 55 10 55 6 0 10 -25 10 -55z m1191 -1 c3 -2 4 -17 1 -34 -4 -29 -5 -30
-62 -30 -63 0 -76 13 -58 59 7 21 12 22 61 16 28 -4 55 -9 58 -11z m109 -11
c0 -28 -16 -47 -34 -40 -9 4 -16 2 -16 -3 0 -6 -4 -10 -10 -10 -5 0 -10 16
-10 35 0 33 2 35 35 35 27 0 35 -4 35 -17z m68 -5 c-3 -7 -11 -13 -18 -13 -7
0 -15 6 -17 13 -3 7 4 12 17 12 13 0 20 -5 18 -12z m-1910 -45 c-10 -2 -26 -2
-35 0 -10 3 -2 5 17 5 19 0 27 -2 18 -5z m1837 -180 c0 -78 -3 -145 -7 -148
-4 -4 -19 -5 -33 -1 l-25 6 0 139 c0 124 2 140 18 144 46 13 47 10 47 -140z
m-105 -15 l0 -128 -90 0 -90 0 14 23 c8 12 17 57 21 100 5 50 14 85 25 99 l17
21 21 -21 c19 -19 22 -33 22 -102 0 -66 3 -80 16 -80 13 0 15 13 13 90 -2 49
0 92 4 96 4 4 7 19 7 33 0 21 2 23 10 11 5 -8 10 -72 10 -142z m-2057 -3 c-2
-74 -7 -111 -15 -117 -7 -4 -34 -8 -59 -8 l-47 0 -7 79 c-4 44 -4 98 0 121 l7
42 62 -4 61 -4 -2 -109z m143 75 c11 0 14 -15 13 -67 -1 -76 -9 -114 -24 -114
-6 1 -11 45 -12 108 -1 60 1 100 3 91 3 -10 12 -18 20 -18z m-681 10 c4 -6 11
-8 16 -4 5 3 23 2 40 -1 l31 -7 -7 -77 c-5 -42 -9 -85 -10 -96 -1 -17 -9 -20
-51 -20 l-49 0 -3 85 c-2 47 0 95 3 108 6 23 20 29 30 12z m289 -6 c3 -9 6
-37 6 -62 0 -36 -5 -50 -20 -60 -13 -8 -20 -23 -20 -42 0 -28 -2 -30 -39 -30
-32 0 -40 4 -45 23 -8 29 -8 151 0 171 9 23 109 23 118 0z m96 6 c0 -5 -5 -10
-11 -10 -5 0 -7 5 -4 10 3 6 8 10 11 10 2 0 4 -4 4 -10z m1404 -115 l-7 -95
-83 0 -84 0 0 95 0 95 40 0 c25 0 40 -5 40 -12 1 -7 9 -3 19 8 21 27 52 34 69
17 9 -9 11 -36 6 -108z m226 35 c0 -53 -4 -90 -10 -90 -11 0 -14 138 -4 164
11 30 14 16 14 -74z m-74 68 c11 -17 5 -152 -6 -156 -17 -6 -11 -22 7 -22 12
0 14 -3 6 -11 -11 -11 -99 -8 -95 4 1 4 2 50 2 102 l0 95 39 0 c22 0 43 -5 47
-12z m-2112 -20 c-4 -13 -7 -52 -6 -88 2 -62 -13 -111 -25 -82 -6 16 -23 15
-23 -2 0 -9 -7 -12 -20 -9 -16 4 -20 14 -20 45 0 35 2 39 15 28 13 -11 15 -7
15 24 0 22 4 35 10 31 13 -8 13 1 0 26 -6 10 -17 19 -25 19 -8 0 -15 7 -15 15
0 11 12 15 51 15 48 0 50 -1 43 -22z m1009 -105 c-3 -18 -9 -33 -14 -33 -5 0
-9 -7 -9 -15 0 -11 11 -15 41 -15 l41 0 -6 43 c-7 49 -7 127 0 139 3 4 50 8
105 8 l101 0 -7 -86 c-6 -68 -5 -88 6 -95 34 -21 39 -11 39 86 l0 95 35 0 c36
0 100 -27 135 -58 23 -19 29 -112 8 -112 -23 0 16 -20 40 -20 20 0 22 4 22 64
0 75 9 126 22 126 5 0 7 -43 6 -97 -3 -87 -5 -97 -23 -100 -47 -10 -327 -15
-480 -8 l-165 7 0 93 0 94 43 3 42 3 12 -45 c7 -25 10 -60 6 -77z m718 53 c5
-6 9 -36 9 -68 l0 -59 -57 3 c-65 3 -67 6 -57 116 l6 62 39 0 c24 0 40 5 41
13 0 6 3 -4 5 -23 3 -19 9 -39 14 -44z m-691 8 c0 -8 -4 -14 -10 -14 -5 0 -10
9 -10 21 0 11 5 17 10 14 6 -3 10 -13 10 -21z m-570 -103 c0 -6 -4 -13 -10
-16 -5 -3 -10 1 -10 9 0 9 5 16 10 16 6 0 10 -4 10 -9z m1720 -16 c0 -8 -4
-15 -10 -15 -5 0 -10 7 -10 15 0 8 5 15 10 15 6 0 10 -7 10 -15z"/>
<path d="M7033 4635 c0 -22 2 -30 4 -17 2 12 2 30 0 40 -3 9 -5 -1 -4 -23z"/>
<path d="M4738 2743 c12 -2 32 -2 45 0 12 2 2 4 -23 4 -25 0 -35 -2 -22 -4z"/>
<path d="M4695 2630 c-4 -6 28 -10 89 -10 57 0 96 4 96 10 0 6 -36 10 -89 10
-50 0 -93 -4 -96 -10z"/>
<path d="M6103 2400 c0 -47 2 -66 4 -42 2 23 2 61 0 85 -2 23 -4 4 -4 -43z"/>
<path d="M3600 2358 c-3 -26 -1 -43 3 -39 5 5 7 26 5 47 l-3 39 -5 -47z"/>
<path d="M3633 2360 c0 -25 2 -35 4 -22 2 12 2 32 0 45 -2 12 -4 2 -4 -23z"/>
<path d="M3335 2310 c4 -6 11 -8 16 -5 14 9 11 15 -7 15 -8 0 -12 -5 -9 -10z"/>
<path d="M3017 7033 c-4 -3 -7 -37 -7 -75 0 -52 4 -70 15 -74 8 -4 15 -12 15
-19 0 -8 11 -27 25 -43 14 -17 25 -35 25 -41 0 -6 6 -11 14 -11 8 0 16 -7 20
-15 6 -17 -2 -45 -14 -45 -20 0 -40 13 -40 26 0 8 -7 14 -15 14 -19 0 -19 -26
0 -34 8 -3 23 -21 32 -41 9 -19 23 -35 30 -35 7 0 13 -5 13 -11 0 -6 -6 -8
-12 -5 -7 3 -21 9 -30 12 -10 4 -18 13 -18 20 0 8 -7 17 -15 20 -8 4 -15 14
-15 23 -1 9 -7 27 -15 41 -13 23 -14 19 -15 -61 0 -81 2 -87 28 -111 24 -22
55 -57 131 -146 23 -27 64 -27 69 0 2 10 -9 33 -25 53 -21 26 -28 46 -28 78 0
23 -4 52 -8 65 -8 20 -5 22 22 22 20 0 34 -7 41 -20 6 -11 17 -20 25 -20 8 0
15 -8 15 -18 0 -22 72 -52 78 -33 2 6 11 11 19 11 12 0 14 7 9 31 -3 17 -6 35
-6 40 0 5 -6 9 -14 9 -20 0 -108 88 -96 95 6 3 10 15 10 27 0 17 -3 18 -15 8
-16 -14 -35 -6 -35 16 0 8 -7 14 -15 14 -8 0 -15 5 -15 11 0 14 -55 69 -69 69
-6 0 -11 5 -11 11 0 6 -11 24 -25 41 -14 16 -25 36 -25 44 0 8 -6 14 -14 14
-7 0 -19 7 -27 16 -10 13 -10 17 2 25 8 5 9 9 3 9 -6 0 -14 -3 -17 -7z m141
-315 c17 -17 15 -28 -6 -28 -24 0 -32 8 -25 26 6 17 15 18 31 2z"/>
<path d="M5760 6972 c0 -16 72 -32 92 -21 10 5 16 14 13 20 -8 11 -105 12
-105 1z"/>
<path d="M8593 6929 c-51 -19 -13 -41 53 -30 51 8 54 35 4 37 -19 1 -45 -2
-57 -7z"/>
<path d="M3040 6810 c0 -5 5 -10 10 -10 6 0 10 5 10 10 0 6 -4 10 -10 10 -5 0
-10 -4 -10 -10z"/>
<path d="M3202 6610 c0 -14 2 -19 5 -12 2 6 2 18 0 25 -3 6 -5 1 -5 -13z"/>
<path d="M9273 4963 c42 -2 112 -2 155 0 42 1 7 3 -78 3 -85 0 -120 -2 -77 -3z"/>
<path d="M8193 4623 l2 -48 164 0 164 0 2 40 c1 22 -3 43 -9 47 -6 4 -82 8
-168 8 l-157 0 2 -47z"/>
<path d="M9408 4643 c-37 -4 -38 -5 -38 -44 l0 -39 65 0 65 0 0 45 c0 50 5 48
-92 38z"/>
<path d="M9360 4360 c0 -5 18 -10 40 -10 22 0 40 5 40 10 0 6 -18 10 -40 10
-22 0 -40 -4 -40 -10z"/>
<path d="M4872 3986 c-18 -10 -11 -11 42 -11 39 0 62 4 60 10 -6 14 -76 15
-102 1z"/>
<path d="M5006 3993 c-11 -11 -6 -23 9 -23 8 0 15 4 15 9 0 13 -16 22 -24 14z"/>
<path d="M5040 3979 c0 -5 5 -7 10 -4 6 3 10 8 10 11 0 2 -4 4 -10 4 -5 0 -10
-5 -10 -11z"/>
<path d="M5106 3979 c3 -5 26 -9 51 -9 26 0 44 2 42 4 -9 8 -98 13 -93 5z"/>
<path d="M5300 3980 c0 -5 5 -10 10 -10 6 0 10 5 10 10 0 6 -4 10 -10 10 -5 0
-10 -4 -10 -10z"/>
<path d="M8263 3768 c-4 -7 -7 -258 -6 -558 2 -300 -1 -570 -6 -600 l-9 -55
-1 68 c-2 130 -48 166 -213 167 -175 0 -178 -4 -190 -263 -11 -246 -12 -251
-68 -257 -38 -4 -45 -9 -51 -33 -16 -59 -33 -55 368 -73 127 -6 143 -9 148
-25 5 -14 16 -19 46 -19 27 0 39 -4 39 -14 0 -10 22 -16 80 -21 58 -5 80 -11
80 -21 0 -16 72 -19 179 -8 56 6 61 9 61 31 l0 25 80 -7 c51 -5 80 -4 80 3 0
5 36 13 80 17 l79 7 7 34 c5 29 10 34 35 34 22 0 29 -5 29 -20 0 -13 7 -20 20
-20 11 0 20 -7 20 -15 0 -8 5 -15 10 -15 6 0 10 7 10 15 0 12 17 14 108 9 59
-3 133 -2 165 1 l57 7 0 105 c0 96 -1 105 -17 97 -10 -4 -36 -9 -58 -11 l-40
-3 38 18 c21 9 35 21 31 25 -4 4 1 7 11 7 15 0 16 3 7 12 -9 9 -7 14 6 24 14
10 8 13 -41 19 -87 11 -86 11 -80 -99 l6 -96 -76 0 c-42 0 -79 4 -82 10 -3 5
-6 199 -6 430 -1 246 -5 420 -10 420 -5 0 -9 134 -9 320 0 249 3 320 13 321 6
1 -6 5 -28 10 -22 4 -232 8 -467 8 -331 1 -429 -2 -435 -11z m838 -690 c-1
-112 2 -350 5 -529 l6 -326 -31 0 -31 0 0 111 c-1 61 -3 298 -6 526 -3 272 -1
410 5 400 9 -12 11 -12 17 3 3 9 13 17 21 17 13 0 15 -28 14 -202z m-157 -53
c-4 -8 -8 -15 -10 -15 -2 0 -4 7 -4 15 0 8 4 15 10 15 5 0 7 -7 4 -15z m233
-527 c-2 -13 -4 -3 -4 22 0 25 2 35 4 23 2 -13 2 -33 0 -45z m-1288 -104 c2
-125 2 -125 -21 -122 -25 3 -25 -7 -12 156 5 63 11 92 20 92 9 0 12 -32 13
-126z m316 -20 l-5 -96 -145 -2 -145 -1 1 30 c1 17 4 43 8 58 l6 28 34 -35
c29 -30 42 -36 78 -36 l43 0 0 39 c0 37 1 39 40 45 44 7 52 20 18 30 -21 7
-19 9 17 21 22 7 43 13 47 14 4 1 5 -42 3 -95z m-270 77 c3 -5 1 -12 -5 -16
-5 -3 -10 1 -10 9 0 18 6 21 15 7z m0 -41 c3 -5 1 -10 -4 -10 -6 0 -11 5 -11
10 0 6 2 10 4 10 3 0 8 -4 11 -10z"/>
<path d="M8165 2310 c-3 -5 -1 -10 4 -10 6 0 11 5 11 10 0 6 -2 10 -4 10 -3 0
-8 -4 -11 -10z"/>
<path d="M8018 2303 c12 -2 32 -2 45 0 12 2 2 4 -23 4 -25 0 -35 -2 -22 -4z"/>
<path d="M7956 3218 c-3 -7 -4 -42 -3 -78 l2 -65 67 -5 c65 -5 67 -4 70 20 2
14 1 50 -2 80 l-5 55 -63 3 c-44 2 -63 -1 -66 -10z m124 -58 c0 -5 -25 -10
-55 -10 -30 0 -55 5 -55 10 0 6 25 10 55 10 30 0 55 -4 55 -10z"/>
<path d="M7899 3180 c-4 -42 -1 -64 9 -68 8 -2 12 10 12 37 0 23 -4 41 -10 41
-5 0 -10 -4 -11 -10z"/>
<path d="M3010 3161 l0 -21 455 0 c261 0 455 4 455 9 0 10 -178 18 -617 27
-293 6 -293 6 -293 -15z"/>
<path d="M7180 2221 l-105 -6 94 -7 c129 -11 511 -10 511 1 0 20 -237 25 -500
12z"/>
<path d="M4285 2070 c3 -5 8 -10 11 -10 2 0 4 5 4 10 0 6 -5 10 -11 10 -5 0
-7 -4 -4 -10z"/>
<path d="M8937 983 c-4 -3 -7 -172 -7 -375 l0 -368 285 0 285 0 0 88 c0 80 -2
89 -25 111 -32 30 -38 55 -33 141 3 60 8 73 32 99 27 28 27 29 8 35 -17 6 -20
13 -15 41 3 19 0 49 -8 66 l-13 32 -19 -24 c-19 -24 -19 -24 2 -27 31 -5 29
-41 -2 -38 -13 2 -28 6 -34 9 -7 4 -9 -17 -5 -63 4 -58 2 -70 -10 -70 -9 0
-18 -9 -21 -20 -6 -25 -51 -43 -100 -41 -67 3 -74 -3 -68 -57 9 -66 0 -116
-21 -120 -26 -5 -29 23 -26 238 l3 195 65 3 c67 3 139 -12 152 -32 5 -6 8 -2
8 10 0 27 -32 34 -159 35 -87 1 -126 12 -58 16 17 1 53 5 80 9 47 6 47 6 47
45 l0 38 113 4 c110 3 109 3 -43 7 -143 3 -149 4 -70 10 62 5 28 7 -126 8
-116 1 -214 -1 -217 -5z m503 -253 c0 -5 -5 -10 -11 -10 -5 0 -7 5 -4 10 3 6
8 10 11 10 2 0 4 -4 4 -10z m-483 -212 c-2 -24 -4 -5 -4 42 0 47 2 66 4 43 2
-24 2 -62 0 -85z"/>
<path d="M9453 983 c9 -2 25 -2 35 0 9 3 1 5 -18 5 -19 0 -27 -2 -17 -5z"/>
<path d="M9328 873 c6 -2 18 -2 25 0 6 3 1 5 -13 5 -14 0 -19 -2 -12 -5z"/>
<path d="M9460 874 c0 -9 31 -37 36 -32 9 9 -8 38 -22 38 -8 0 -14 -3 -14 -6z"/>
<path d="M9218 863 c12 -2 32 -2 45 0 12 2 2 4 -23 4 -25 0 -35 -2 -22 -4z"/>
<path d="M9190 713 l0 -88 61 3 c59 4 61 5 75 38 21 51 4 114 -32 114 -8 0
-14 5 -14 10 0 6 -20 10 -45 10 l-45 0 0 -87z"/>
<path d="M9486 741 c-4 -7 -5 -15 -2 -18 9 -9 19 4 14 18 -4 11 -6 11 -12 0z"/>
<path d="M9480 568 c0 -24 4 -49 9 -57 7 -10 10 4 10 42 0 31 -5 57 -10 57 -5
0 -9 -19 -9 -42z"/>
</g>
</svg>
