<?xml version="1.0" standalone="no"?>
<!DOCTYPE svg PUBLIC "-//W3C//DTD SVG 20010904//EN"
 "http://www.w3.org/TR/2001/REC-SVG-20010904/DTD/svg10.dtd">
<svg version="1.0" xmlns="http://www.w3.org/2000/svg"
 width="1280.000000pt" height="720.000000pt" viewBox="0 0 1280.000000 720.000000"
 preserveAspectRatio="xMidYMid meet">
<metadata>
Created by potrace 1.16, written by Peter Selinger 2001-2019
</metadata>
<g transform="translate(0.000000,720.000000) scale(0.100000,-0.100000)"
fill="#000000" stroke="none">
<path d="M6245 7143 c-16 -2 -34 -9 -39 -14 -6 -5 -17 -9 -26 -9 -18 0 -35
-35 -50 -103 -6 -27 -19 -58 -30 -69 -11 -12 -20 -30 -20 -40 0 -10 -6 -29
-14 -41 -16 -24 -96 -233 -96 -249 0 -6 -6 -24 -14 -41 -27 -63 -35 -93 -41
-167 -8 -89 -24 -170 -34 -170 -9 0 -41 -71 -41 -90 0 -7 -6 -21 -14 -29 -8
-9 -21 -39 -28 -66 -7 -28 -18 -56 -25 -63 -7 -7 -13 -22 -13 -32 0 -10 -7
-26 -16 -35 -9 -9 -23 -48 -30 -87 -8 -40 -17 -74 -21 -77 -13 -10 -73 -129
-73 -145 0 -9 -4 -16 -10 -16 -5 0 -10 -8 -10 -18 0 -10 -6 -38 -14 -63 -7
-24 -19 -64 -26 -89 -6 -25 -16 -52 -20 -61 -5 -9 -12 -33 -15 -53 -4 -20 -13
-36 -20 -36 -8 0 -16 -17 -20 -40 -4 -22 -10 -40 -14 -40 -4 0 -13 -28 -21
-62 -7 -34 -19 -74 -27 -88 -7 -14 -13 -36 -13 -48 0 -13 -7 -38 -15 -55 -8
-18 -25 -72 -37 -122 -21 -80 -22 -104 -17 -210 7 -111 27 -215 63 -320 8 -22
20 -61 27 -87 7 -27 17 -48 21 -48 4 0 8 -9 8 -19 0 -11 4 -22 9 -25 5 -3 12
-18 16 -33 3 -15 17 -50 29 -78 15 -31 28 -87 35 -150 6 -55 16 -143 22 -195
6 -52 13 -122 16 -155 8 -87 -15 -359 -37 -440 -10 -38 -24 -133 -31 -209
l-12 -139 27 -24 c15 -12 36 -23 47 -23 10 0 45 -6 77 -14 31 -8 92 -22 135
-30 71 -15 82 -20 125 -64 26 -26 52 -63 59 -82 7 -19 15 -91 19 -160 7 -123
6 -126 -20 -175 -15 -28 -40 -68 -56 -90 -15 -22 -39 -61 -52 -87 -13 -26 -26
-48 -29 -48 -3 0 -12 -18 -19 -40 -7 -22 -17 -40 -21 -40 -4 0 -11 -15 -14
-33 -4 -17 -11 -36 -15 -42 -4 -5 -10 -28 -13 -50 -3 -22 -15 -83 -26 -135
-38 -180 -41 -206 -47 -405 -5 -167 -10 -216 -31 -300 -14 -55 -28 -112 -30
-127 -3 -16 -9 -28 -14 -28 -5 0 -9 -7 -9 -15 0 -8 -4 -15 -9 -15 -26 0 -41
-151 -19 -192 5 -11 20 -18 38 -18 19 0 42 -13 71 -40 24 -22 51 -40 61 -40
10 0 18 -7 18 -15 0 -21 143 -21 183 0 20 10 67 15 166 16 l139 1 5 36 c6 49
2 55 -43 81 -22 12 -40 26 -40 30 0 3 -8 7 -19 8 -23 2 -71 48 -71 68 0 8 -7
15 -15 15 -18 0 -65 47 -65 65 0 8 -4 15 -9 15 -16 0 -41 97 -41 157 0 32 6
90 14 128 29 141 44 202 55 224 17 30 61 172 61 193 0 10 5 18 10 18 6 0 10 7
10 15 0 51 159 439 190 465 3 3 12 21 20 40 8 19 16 37 19 40 12 11 31 50 31
65 0 8 9 15 20 15 18 0 20 -7 20 -67 0 -38 -7 -138 -16 -223 -10 -104 -15
-264 -15 -488 0 -267 -3 -343 -16 -390 -11 -42 -15 -108 -15 -255 0 -209 8
-257 43 -257 11 0 19 -4 19 -10 0 -5 18 -10 39 -10 22 0 41 -4 43 -8 5 -13
231 1 236 16 2 6 10 12 17 12 17 0 35 61 28 92 -6 25 -46 68 -62 68 -15 0 -61
49 -61 65 0 8 -6 15 -14 15 -15 0 -37 46 -36 76 0 10 2 64 4 119 2 55 8 113
15 128 6 16 11 39 11 53 0 13 5 24 10 24 6 0 10 9 10 20 0 11 14 62 31 113 43
132 69 232 69 269 0 18 9 75 20 127 11 52 20 116 20 143 0 29 4 48 12 48 14 0
3 233 -12 238 -6 2 -10 36 -10 78 0 75 13 120 31 109 5 -4 9 13 9 39 0 31 -5
48 -16 54 -17 10 -17 12 5 127 5 28 12 68 16 90 12 74 15 84 31 99 10 10 33
16 66 16 94 0 364 54 371 75 3 6 -3 81 -13 166 -43 363 -42 338 -16 366 13 14
30 44 37 67 8 22 22 57 31 76 23 43 22 58 -1 117 -25 65 -33 155 -22 238 7 54
27 643 23 690 -9 100 -21 206 -25 212 -3 5 -8 48 -11 96 -2 48 -7 91 -10 96
-3 5 -8 157 -12 337 -3 181 -9 367 -14 413 -10 85 -28 151 -42 151 -4 0 -8 11
-8 24 0 24 -55 87 -111 126 -21 16 -27 28 -27 59 0 22 -5 49 -11 60 -8 14 -8
21 2 24 9 3 9 9 0 26 -7 11 -13 41 -13 66 0 60 -19 135 -36 142 -8 3 -14 13
-14 23 0 10 -7 23 -15 30 -8 7 -15 19 -15 27 0 14 -28 72 -41 83 -7 7 -33 82
-54 160 -10 36 -22 70 -26 75 -4 6 -10 27 -14 48 -4 20 -11 37 -16 37 -5 0 -9
6 -9 13 0 18 -24 67 -32 67 -5 0 -8 7 -8 16 0 8 -12 28 -27 44 -33 33 -51 59
-59 83 -4 9 -13 17 -20 17 -8 0 -14 6 -14 14 0 19 -126 146 -145 146 -7 0 -15
5 -17 11 -4 12 -178 21 -233 12z m426 -349 c30 -62 31 -69 30 -181 -1 -112
-15 -193 -32 -193 -10 0 -16 40 -23 140 -3 41 -10 76 -16 78 -13 5 -13 68 1
93 8 16 6 30 -10 63 -12 23 -21 52 -21 64 0 12 -5 22 -11 22 -5 0 -7 5 -4 11
11 17 51 -28 86 -97z m-842 -1939 c-6 -16 -13 -79 -15 -140 -1 -60 -10 -144
-18 -185 -9 -41 -21 -104 -27 -140 -6 -36 -16 -70 -21 -77 -5 -7 -22 -45 -38
-84 l-28 -73 -11 40 c-6 21 -11 53 -11 71 0 54 -60 347 -74 361 -3 2 4 13 15
25 10 11 19 34 19 50 0 16 15 55 34 86 32 52 136 336 136 371 0 8 10 20 23 25
l22 10 3 -155 c2 -99 -2 -165 -9 -185z m1279 -667 c21 -58 42 -157 42 -204 0
-16 9 -55 20 -87 24 -66 25 -103 6 -122 -12 -12 -15 -9 -20 23 -4 20 -13 55
-21 77 -7 22 -19 83 -26 135 -7 52 -21 114 -31 138 -10 24 -18 55 -18 68 0 42
27 26 48 -28z m-1488 -577 c0 -6 -4 -13 -10 -16 -5 -3 -10 1 -10 9 0 9 5 16
10 16 6 0 10 -4 10 -9z m-13 -113 c-3 -8 -6 -5 -6 6 -1 11 2 17 5 13 3 -3 4
-12 1 -19z m1163 -1248 c0 -5 -5 -10 -11 -10 -5 0 -7 5 -4 10 3 6 8 10 11 10
2 0 4 -4 4 -10z"/>
</g>
</svg>
