<?xml version="1.0" standalone="no"?>
<!DOCTYPE svg PUBLIC "-//W3C//DTD SVG 20010904//EN"
 "http://www.w3.org/TR/2001/REC-SVG-20010904/DTD/svg10.dtd">
<svg version="1.0" xmlns="http://www.w3.org/2000/svg"
 width="1280.000000pt" height="720.000000pt" viewBox="0 0 1280.000000 720.000000"
 preserveAspectRatio="xMidYMid meet">
<metadata>
Created by potrace 1.16, written by Peter Selinger 2001-2019
</metadata>
<g transform="translate(0.000000,720.000000) scale(0.100000,-0.100000)"
fill="#000000" stroke="none">
<path d="M6206 7089 c-14 -17 -31 -50 -37 -73 -5 -23 -23 -57 -40 -75 -16 -19
-29 -40 -29 -47 0 -8 -4 -14 -10 -14 -5 0 -10 -7 -10 -15 0 -9 -9 -28 -20 -43
-14 -19 -28 -68 -41 -147 -12 -66 -24 -127 -29 -135 -4 -9 -17 -79 -29 -155
-12 -77 -26 -156 -31 -176 -6 -20 -10 -47 -10 -60 0 -20 -60 -133 -80 -149
-33 -28 -70 -117 -79 -190 -7 -56 -29 -108 -60 -142 -43 -45 -69 -141 -81
-288 -16 -202 -38 -391 -53 -445 -8 -27 -22 -81 -32 -120 -10 -38 -22 -79 -26
-90 -5 -11 -13 -42 -19 -68 -6 -27 -19 -66 -30 -87 -11 -22 -20 -50 -20 -63 0
-13 -6 -46 -14 -73 -7 -27 -19 -87 -25 -134 -36 -272 -41 -317 -41 -337 0 -13
-5 -23 -10 -23 -5 0 -13 -18 -16 -40 -4 -22 -20 -61 -35 -85 -16 -25 -29 -47
-29 -48 0 -1 20 -1 45 1 39 4 45 2 45 -16 0 -23 -25 -32 -93 -32 -66 0 -119
-30 -165 -93 -48 -65 -75 -124 -61 -132 5 -4 7 -14 5 -23 -3 -10 0 -39 7 -67
l13 -50 73 -3 c58 -2 77 1 92 14 20 18 59 92 59 112 0 7 10 12 23 12 13 0 30
6 38 13 23 18 51 67 47 79 -3 7 4 20 13 29 10 10 25 44 35 76 18 60 48 137 65
163 5 8 12 23 15 33 5 13 18 17 55 17 l49 0 0 -42 c0 -24 -7 -56 -15 -72 -9
-18 -15 -57 -15 -105 0 -75 -18 -210 -39 -303 -16 -71 -38 -316 -54 -607 -2
-33 0 -35 48 -49 28 -8 86 -20 130 -27 114 -19 115 -20 115 -70 0 -23 8 -62
17 -86 15 -38 18 -94 21 -409 2 -200 7 -369 12 -375 4 -5 11 -41 15 -80 4 -38
14 -75 21 -83 8 -7 14 -27 14 -43 0 -16 5 -29 10 -29 6 0 10 -12 10 -27 0 -33
40 -206 49 -213 4 -3 13 -30 20 -60 19 -76 68 -228 88 -270 10 -22 16 -59 16
-100 -2 -84 -10 -116 -39 -147 -13 -14 -26 -34 -29 -44 -4 -11 -15 -19 -25
-19 -22 0 -92 -68 -84 -81 3 -5 -13 -9 -35 -9 -22 0 -42 -4 -45 -9 -3 -5 -22
-12 -41 -15 -26 -5 -35 -12 -35 -26 0 -11 -4 -20 -9 -20 -14 0 -18 -32 -7 -57
5 -13 17 -23 26 -23 10 0 24 -7 31 -16 19 -24 389 -17 434 8 80 44 139 127
101 141 -23 9 -19 32 9 51 44 29 49 50 26 119 -12 33 -21 85 -21 115 0 42 -6
61 -25 86 -27 35 -32 56 -14 56 23 0 -19 620 -53 780 -16 78 -19 430 -3 430 9
0 10 13 4 47 -4 27 -8 92 -8 145 -1 53 -5 100 -11 103 -13 8 -13 225 0 245 7
12 16 13 55 2 55 -15 141 -16 150 -2 8 13 61 13 88 -1 12 -6 33 -23 45 -38 23
-25 24 -29 15 -141 -13 -177 -11 -363 5 -368 6 -2 12 -14 12 -27 0 -12 10 -51
21 -86 19 -55 22 -91 24 -264 2 -110 8 -243 14 -295 6 -52 18 -160 27 -240 8
-80 20 -181 25 -225 6 -44 11 -158 12 -254 2 -133 5 -175 15 -179 7 -2 34 -27
60 -54 l47 -50 109 7 c234 16 367 78 314 147 -16 20 -79 38 -133 38 -43 0 -96
27 -125 63 -10 12 -23 46 -30 77 -7 30 -17 70 -22 88 -7 23 -6 42 1 60 6 15
15 65 20 112 6 47 19 150 30 230 25 189 35 421 26 615 -6 122 -10 155 -21 155
-14 0 -20 36 -15 89 1 12 -5 28 -14 35 -15 10 -17 34 -16 175 2 179 12 250 41
276 10 9 55 22 104 30 48 8 91 17 96 20 19 12 13 82 -35 425 -17 120 -24 239
-30 495 -2 99 -8 212 -14 250 -6 39 -16 111 -21 160 -5 50 -14 117 -20 150
-10 63 -27 181 -37 253 -3 23 -9 42 -14 42 -5 0 -9 23 -9 50 0 28 -9 88 -19
133 -42 177 -52 392 -21 471 5 15 10 54 10 86 0 56 3 62 50 119 59 71 96 85
141 52 15 -12 37 -21 47 -21 10 0 27 -8 38 -17 10 -10 37 -33 58 -51 21 -18
56 -54 79 -80 22 -26 46 -49 53 -52 19 -8 147 -131 172 -168 13 -18 28 -30 33
-26 5 3 12 -3 16 -13 4 -10 15 -27 25 -37 13 -14 18 -36 18 -78 0 -32 4 -58 8
-58 18 0 50 -201 58 -363 4 -100 -4 -137 -31 -137 -8 0 -15 -4 -15 -10 0 -5
-18 -13 -40 -16 -22 -4 -40 -10 -40 -15 0 -5 -18 -9 -40 -9 -22 0 -40 -3 -40
-7 0 -11 -80 -43 -124 -50 -20 -3 -36 -10 -36 -14 0 -5 -7 -9 -16 -9 -9 0 -14
-6 -11 -12 4 -13 29 -15 101 -7 48 5 55 -9 22 -44 -18 -19 -38 -28 -78 -32
-29 -3 -64 -9 -78 -12 -47 -10 58 -29 115 -21 28 5 86 8 130 6 66 -1 88 3 125
22 25 12 47 26 50 30 3 4 20 15 38 24 18 9 36 24 39 32 3 7 12 14 19 14 8 0
17 8 20 18 3 9 9 26 13 37 36 94 42 129 35 195 -5 49 -3 70 5 70 7 0 11 27 11
79 0 44 4 81 8 83 5 2 11 50 14 108 3 58 3 93 1 78 -8 -53 -21 -28 -28 52 -4
44 -11 80 -16 80 -5 0 -9 12 -9 28 -1 15 -7 38 -15 52 -8 14 -14 33 -15 43 0
28 -82 129 -157 194 -37 32 -95 85 -131 118 -35 33 -77 65 -93 72 -19 8 -36
27 -48 55 -18 42 -51 78 -71 78 -6 0 -10 4 -10 8 0 22 -114 141 -158 164 -18
9 -38 30 -44 45 -15 33 -24 41 -58 50 -23 6 -49 29 -50 45 0 3 8 8 17 10 13 2
8 13 -25 47 -24 25 -45 56 -48 70 -4 14 -11 31 -18 36 -15 14 -35 46 -42 68
-4 9 -10 17 -15 17 -5 0 -9 7 -9 15 0 15 -19 55 -31 65 -10 8 -46 120 -64 200
-10 41 -28 104 -40 140 -13 36 -28 87 -34 115 -7 27 -18 57 -25 65 -6 8 -21
33 -31 54 -35 70 -116 187 -160 231 -38 39 -49 44 -101 49 -33 3 -84 11 -115
16 -97 17 -124 14 -153 -21z m436 -279 c9 -19 26 -65 38 -103 21 -64 21 -70 6
-141 -8 -41 -22 -89 -30 -108 l-14 -33 -1 67 c-1 40 -6 68 -12 70 -6 2 -14 27
-17 56 -4 43 -2 52 12 52 10 0 16 9 16 25 0 14 -3 25 -8 25 -4 0 -12 19 -19
43 -6 23 -14 53 -18 66 -13 38 27 22 47 -19z m-799 -2095 c-3 -9 -8 -14 -10
-11 -3 3 -2 9 2 15 9 16 15 13 8 -4z m-225 -681 c-8 -27 -13 -33 -16 -20 -4
17 17 70 24 63 2 -2 -2 -21 -8 -43z m-18 -89 c0 -26 -14 -33 -25 -15 -9 14 1
40 15 40 5 0 10 -11 10 -25z"/>
</g>
</svg>
