<?xml version="1.0" standalone="no"?>
<!DOCTYPE svg PUBLIC "-//W3C//DTD SVG 20010904//EN"
 "http://www.w3.org/TR/2001/REC-SVG-20010904/DTD/svg10.dtd">
<svg version="1.0" xmlns="http://www.w3.org/2000/svg"
 width="1280.000000pt" height="720.000000pt" viewBox="0 0 1280.000000 720.000000"
 preserveAspectRatio="xMidYMid meet">
<metadata>
Created by potrace 1.16, written by Peter Selinger 2001-2019
</metadata>
<g transform="translate(0.000000,720.000000) scale(0.100000,-0.100000)"
fill="#000000" stroke="none">
<path d="M6265 7145 c-54 -11 -105 -25 -105 -29 0 -1 -9 -26 -20 -56 -11 -30
-20 -64 -20 -75 0 -11 -9 -26 -20 -33 -13 -8 -20 -23 -20 -41 0 -16 -4 -31
-10 -33 -9 -3 -33 -58 -60 -138 -5 -14 -25 -70 -46 -125 -20 -55 -39 -126 -41
-157 -3 -32 -9 -58 -14 -58 -5 0 -9 -19 -9 -42 0 -65 -11 -118 -25 -118 -6 0
-18 -19 -25 -42 -16 -57 -17 -58 -39 -93 -11 -16 -20 -42 -20 -57 -1 -15 -8
-33 -16 -42 -8 -8 -15 -23 -15 -33 0 -11 -8 -28 -19 -39 -11 -13 -24 -50 -31
-95 -7 -41 -15 -76 -19 -79 -12 -10 -71 -129 -71 -144 0 -9 -4 -16 -10 -16 -5
0 -10 -6 -10 -14 0 -7 -7 -38 -16 -67 -8 -30 -20 -72 -26 -94 -6 -22 -17 -54
-24 -72 -8 -17 -14 -40 -14 -52 0 -12 -6 -21 -14 -21 -9 0 -17 -15 -21 -40 -4
-22 -10 -40 -14 -40 -4 0 -13 -28 -21 -62 -23 -104 -7 -100 -328 -94 -152 3
-431 8 -619 12 -189 3 -343 8 -343 12 0 4 -141 8 -313 9 -171 1 -430 5 -574 9
l-263 6 0 -186 0 -186 203 0 c111 0 231 4 267 9 36 5 239 13 453 17 342 6 387
5 387 -9 0 -11 18 -16 74 -22 73 -6 116 3 116 26 0 5 13 3 30 -6 24 -12 76
-15 287 -16 142 0 308 -4 368 -8 61 -5 112 -7 114 -5 15 13 -27 19 -140 22
-71 2 -129 7 -129 12 0 5 -19 11 -42 13 -24 3 34 2 127 0 217 -7 210 -2 218
-151 5 -99 25 -203 61 -307 8 -22 20 -61 27 -87 7 -27 17 -48 21 -48 4 0 8 -9
8 -19 0 -11 4 -22 9 -25 5 -3 12 -18 16 -33 3 -15 18 -51 32 -80 13 -29 23
-58 21 -65 -4 -10 -293 -13 -456 -3 -28 1 -55 -1 -58 -6 -3 -5 -10 -6 -16 -3
-18 11 -156 10 -171 -1 -10 -7 -14 -41 -16 -124 -1 -62 -6 -123 -12 -134 -8
-14 -8 -31 -1 -56 6 -20 9 -107 7 -193 -2 -129 0 -158 11 -158 8 0 14 9 14 20
0 13 10 24 25 30 14 5 36 21 49 35 21 23 26 24 39 11 10 -10 17 -12 25 -4 14
14 35 0 28 -19 -3 -8 -1 -23 4 -33 8 -15 6 -20 -9 -25 -10 -3 -21 -15 -24 -26
-3 -11 -15 -23 -26 -26 -12 -3 -22 -9 -22 -14 -1 -5 -2 -13 -3 -18 -2 -18 -16
-24 -29 -13 -7 6 -23 9 -35 5 -18 -4 -22 -1 -22 16 0 12 -6 21 -15 21 -9 0
-15 -9 -15 -22 0 -13 -3 -34 -7 -47 -6 -23 -5 -24 45 -19 29 3 52 1 52 -4 0
-5 11 -1 25 8 13 8 28 13 33 10 7 -4 65 -5 282 -5 14 0 89 0 168 0 l142 0 0
-25 c0 -17 -7 -26 -24 -30 -28 -7 -706 11 -755 20 -28 6 -33 4 -28 -9 4 -10
-1 -17 -15 -20 -11 -3 -402 -3 -869 0 l-849 6 0 -21 c0 -21 5 -22 138 -25
l137 -3 -137 -2 c-131 -2 -138 -3 -138 -22 0 -18 7 -20 61 -20 60 0 60 0 57
-27 -3 -27 -6 -28 -60 -31 -50 -3 -58 -6 -58 -22 0 -18 7 -20 58 -20 43 0 53
-3 42 -11 -11 -8 -12 -12 -2 -16 8 -3 12 -30 12 -84 l0 -79 -32 0 c-72 0 -78
-6 -78 -72 0 -37 4 -57 10 -53 5 3 18 1 27 -4 16 -9 14 -10 -9 -11 -26 0 -28
-3 -28 -40 0 -36 3 -40 25 -40 25 0 25 -1 25 -90 0 -49 0 -93 0 -97 0 -7 -5
-9 -37 -12 -9 -1 -13 -22 -13 -71 0 -57 3 -70 16 -70 15 0 53 -35 85 -79 l17
-22 21 22 c12 13 21 26 21 31 0 4 10 13 22 19 18 10 24 8 37 -8 28 -34 59 -35
88 -2 22 24 34 29 75 29 45 0 48 -2 48 -25 0 -16 6 -25 16 -25 9 0 24 -10 35
-22 16 -20 20 -21 29 -8 5 8 7 22 4 31 -6 20 50 79 75 79 25 0 81 -62 81 -90
1 -25 1 -25 16 -5 9 11 22 37 31 58 l15 37 62 0 63 0 18 -55 c20 -59 35 -71
35 -29 0 31 46 80 84 90 14 3 45 3 69 0 37 -6 44 -12 62 -49 14 -30 20 -37 23
-24 11 56 103 90 130 47 17 -27 32 -25 32 5 l0 25 238 1 c305 1 390 -1 409 -8
8 -3 19 -16 24 -29 12 -32 24 -30 39 7 13 30 15 31 62 27 36 -4 55 -12 75 -34
l28 -29 3 31 3 32 77 7 c53 5 77 4 80 -4 2 -6 10 -11 18 -11 8 0 14 -7 14 -15
0 -8 5 -15 10 -15 6 0 10 7 10 15 0 8 7 15 15 15 8 0 15 4 15 9 0 13 478 7
490 -5 13 -13 -11 -86 -60 -184 -13 -25 -31 -62 -41 -82 -11 -20 -19 -42 -19
-48 0 -5 -4 -10 -10 -10 -5 0 -12 -16 -16 -35 -3 -19 -10 -38 -15 -41 -5 -3
-9 -23 -9 -45 0 -21 -4 -39 -8 -39 -4 0 -16 -48 -26 -107 -9 -60 -22 -127 -27
-149 -5 -23 -12 -133 -15 -245 -5 -168 -10 -222 -30 -302 -29 -115 -52 -178
-72 -193 -9 -7 -16 -37 -19 -81 -6 -82 1 -123 22 -123 10 0 15 -10 15 -29 0
-17 5 -33 11 -37 8 -5 8 -9 -1 -14 -8 -5 2 -20 29 -47 23 -22 41 -49 41 -61 0
-19 6 -22 40 -22 36 0 40 -2 40 -25 0 -22 4 -25 40 -25 22 0 40 -4 40 -10 0
-5 18 -10 40 -10 33 0 40 3 40 20 0 15 7 20 25 20 23 0 25 4 25 40 0 34 3 40
20 40 20 0 81 37 88 53 2 4 21 7 42 7 21 0 40 4 42 9 2 6 22 11 45 12 41 3 41
3 48 47 4 27 2 49 -4 55 -6 6 -11 7 -11 3 0 -4 -18 6 -39 23 -21 17 -45 31
-53 31 -17 0 -68 51 -68 68 0 7 -7 12 -15 12 -18 0 -65 47 -65 65 0 8 -4 15
-10 15 -5 0 -13 18 -16 40 -4 22 -10 40 -15 40 -16 0 -9 136 12 231 34 152 36
159 73 267 20 57 36 112 36 123 0 10 5 19 10 19 6 0 10 7 10 15 0 51 159 439
190 465 3 3 12 21 20 40 8 19 16 37 19 40 12 11 31 50 31 65 0 8 9 15 20 15
18 0 20 -7 20 -65 0 -36 -7 -137 -15 -224 -10 -101 -16 -291 -18 -513 -2 -276
-5 -358 -16 -377 -10 -18 -14 -77 -15 -230 -2 -228 4 -271 41 -271 14 0 23 -6
23 -15 0 -11 11 -15 40 -15 33 0 40 -3 40 -19 0 -16 -8 -21 -42 -24 -24 -2 -6
-4 40 -5 l82 -2 0 -40 0 -40 -99 0 -99 0 -7 -80 c-4 -44 -11 -80 -16 -80 -5 0
-9 -18 -9 -40 l0 -40 156 0 156 0 -7 78 c-4 42 -11 78 -16 80 -5 2 -9 21 -9
43 0 28 -4 39 -15 39 -11 0 -15 11 -15 40 0 38 2 40 30 40 17 0 30 4 30 8 0 5
18 17 39 27 61 27 86 59 86 110 0 32 -6 50 -24 69 -14 14 -29 26 -34 26 -12 0
-67 56 -67 69 0 6 -4 11 -10 11 -5 0 -16 12 -23 27 -17 34 -15 243 2 286 6 16
11 33 11 39 0 7 4 25 9 42 6 17 26 83 45 146 49 158 66 225 66 263 0 18 9 74
20 126 11 52 20 116 20 143 0 29 4 48 12 48 14 0 3 233 -12 238 -13 5 -13 148
1 173 5 11 15 17 20 13 6 -3 62 -3 125 1 l114 7 0 39 0 39 -117 0 c-65 0 -124
4 -132 9 -14 9 -13 15 8 126 5 28 12 68 16 90 12 74 15 84 31 99 10 10 33 16
66 16 94 0 364 54 371 75 3 6 -3 81 -13 166 -43 363 -42 338 -16 366 13 14 30
44 37 67 8 22 22 57 31 76 23 43 22 58 -1 117 -25 65 -33 155 -22 238 7 55 27
647 23 690 -5 44 -22 198 -32 278 -7 54 -10 101 -7 104 7 6 721 5 872 -2 55
-2 325 -7 600 -10 275 -3 555 -8 623 -12 l122 -6 0 42 c0 39 -2 41 -30 41 -16
0 -30 5 -30 10 0 6 14 10 30 10 17 0 30 5 30 10 0 7 -234 9 -690 8 -608 -2
-690 -5 -690 -18 -1 -12 -3 -11 -14 3 -12 16 -26 18 -98 15 -45 -1 -210 -2
-365 0 l-283 2 0 40 c0 29 -4 40 -15 40 -11 0 -15 -11 -15 -40 0 -27 -4 -40
-14 -40 -8 0 -17 -17 -21 -42 l-8 -43 -8 55 c-5 30 -13 210 -18 400 -6 190
-14 361 -20 380 -20 71 -24 80 -32 80 -5 0 -9 11 -9 24 0 24 -55 87 -111 127
-18 13 -28 29 -28 47 0 27 -3 54 -20 207 -10 85 -19 125 -30 125 -3 0 -17 21
-30 48 -12 26 -27 54 -32 62 -5 8 -12 22 -16 30 -4 8 -9 17 -13 20 -8 7 -33
80 -55 160 -10 36 -24 79 -31 97 -8 17 -14 38 -14 47 0 9 -4 16 -10 16 -5 0
-10 7 -10 15 0 14 -18 53 -30 65 -3 3 -13 22 -22 43 -10 20 -23 37 -30 37 -7
0 -22 18 -32 40 -11 22 -25 40 -33 40 -7 0 -13 7 -13 16 0 17 -6 25 -78 96
-26 26 -55 48 -64 48 -10 0 -18 4 -18 8 0 11 -92 32 -128 31 -15 -1 -54 -7
-87 -14z m406 -351 c30 -62 31 -69 30 -181 -1 -112 -15 -193 -32 -193 -10 0
-16 40 -23 140 -3 41 -10 76 -16 78 -13 5 -13 68 1 93 8 16 6 30 -10 63 -12
23 -21 52 -21 64 0 12 -5 22 -11 22 -5 0 -7 5 -4 11 11 17 51 -28 86 -97z
m-831 -1714 l0 -120 -40 0 c-38 0 -40 2 -40 30 0 67 52 210 76 210 2 0 4 -54
4 -120z m-1164 -272 c2 -3 2 -13 -2 -22 -6 -15 -18 -17 -82 -14 -75 3 -102 18
-71 40 14 9 145 6 155 -4z m44 -58 c0 -5 -4 -10 -10 -10 -5 0 -10 5 -10 10 0
6 5 10 10 10 6 0 10 -4 10 -10z m143 3 c-13 -2 -33 -2 -45 0 -13 2 -3 4 22 4
25 0 35 -2 23 -4z m817 -23 c0 -13 77 -13 83 0 3 6 4 5 3 -2 -5 -24 -106 -22
-106 2 0 6 5 10 10 10 6 0 10 -4 10 -10z m130 -72 c-1 -35 -7 -94 -15 -133 -8
-38 -20 -99 -26 -135 -6 -36 -16 -70 -21 -77 -5 -7 -22 -45 -38 -84 l-28 -73
-11 40 c-6 21 -11 53 -11 71 0 54 -60 347 -74 361 -3 2 11 22 31 43 29 31 39
36 54 29 29 -16 109 -12 115 5 13 33 24 11 24 -47z m1342 -717 c24 -99 28
-130 20 -155 l-10 -31 -1 30 c-1 17 -12 88 -26 160 -14 71 -24 138 -24 150 1
15 3 14 6 -5 2 -14 18 -81 35 -149z m-1992 -139 c0 -4 -12 -9 -27 -10 -15 -1
-30 -8 -35 -15 -5 -8 -8 -4 -8 11 0 19 5 22 35 22 19 0 35 -4 35 -8z m-26 -64
c5 -23 3 -28 -13 -28 -11 0 -23 5 -26 10 -3 6 1 10 9 10 10 0 16 9 16 22 0 27
5 21 14 -14z m418 -30 c-15 -15 -26 -4 -18 18 5 13 9 15 18 6 9 -9 9 -15 0
-24z m-592 12 c0 -5 -6 -10 -14 -10 -8 0 -18 5 -21 10 -3 6 3 10 14 10 12 0
21 -4 21 -10z m100 0 c0 -11 -14 -11 -50 0 -22 7 -21 8 13 9 20 1 37 -3 37 -9z
m175 0 c-3 -5 -13 -10 -21 -10 -8 0 -14 5 -14 10 0 6 9 10 21 10 11 0 17 -4
14 -10z m98 -7 c-7 -2 -19 -2 -25 0 -7 3 -2 5 12 5 14 0 19 -2 13 -5z m110 0
c-7 -2 -21 -2 -30 0 -10 3 -4 5 12 5 17 0 24 -2 18 -5z m-128 -30 c-11 -3 -23
-10 -27 -17 -5 -7 -8 -5 -8 7 0 12 7 17 28 16 21 -1 22 -2 7 -6z m141 -80 c-7
-18 -68 -14 -72 5 -1 7 0 8 3 2 8 -16 23 -12 23 8 1 16 1 16 14 0 20 -27 26
-22 28 25 1 38 2 39 5 9 3 -19 2 -41 -1 -49z m-326 17 c0 -13 -7 -20 -20 -20
-19 0 -19 1 -2 19 22 25 22 25 22 1z m108 8 c17 -17 15 -25 -8 -31 -23 -6 -34
7 -26 28 7 18 18 19 34 3z m294 -13 c4 -21 1 -25 -19 -25 -22 0 -23 1 -9 16 9
8 16 20 16 25 0 18 8 8 12 -16z m-482 -11 c0 -2 -9 -4 -21 -4 -11 0 -18 4 -14
10 5 8 35 3 35 -6z m570 7 c0 -6 -4 -13 -10 -16 -5 -3 -10 1 -10 9 0 9 5 16
10 16 6 0 10 -4 10 -9z m-260 -13 c0 -5 -18 -8 -40 -8 -22 0 -40 3 -40 8 0 4
18 7 40 7 22 0 40 -3 40 -7z m-268 -58 c-2 -16 -6 -30 -8 -30 -2 0 -4 14 -4
30 0 17 4 30 8 30 5 0 7 -13 4 -30z m343 10 c3 -5 -3 -10 -14 -10 -12 0 -21 5
-21 10 0 6 6 10 14 10 8 0 18 -4 21 -10z m-200 -50 c0 -18 -6 -26 -22 -28 -18
-3 -23 1 -23 21 0 28 9 39 30 35 9 -2 15 -14 15 -28z m209 15 c-7 -16 -24 -21
-24 -6 0 8 7 13 27 20 1 1 0 -6 -3 -14z m163 -17 c-3 -8 -6 -5 -6 6 -1 11 2
17 5 13 3 -3 4 -12 1 -19z m-667 -12 c0 -11 -19 -15 -25 -6 -3 5 1 10 9 10 9
0 16 -2 16 -4z m115 -6 c-3 -5 -15 -10 -26 -10 -10 0 -19 5 -19 10 0 6 12 10
26 10 14 0 23 -4 19 -10z m90 0 c-3 -5 -15 -10 -25 -10 -10 0 -22 5 -25 10 -4
6 7 10 25 10 18 0 29 -4 25 -10z m185 0 c0 -5 -7 -10 -15 -10 -8 0 -15 5 -15
10 0 6 7 10 15 10 8 0 15 -4 15 -10z m23 -149 c20 -34 22 -50 5 -33 -19 19
-28 14 -28 -13 0 -24 2 -25 40 -19 26 4 40 3 40 -4 0 -16 -50 -19 -89 -6 -33
11 -35 14 -36 58 0 43 1 46 25 46 18 0 31 -9 43 -29z m182 -21 c-5 -8 -11 -8
-17 -2 -6 6 -7 16 -3 22 5 8 11 8 17 2 6 -6 7 -16 3 -22z m-320 -28 c-8 -8
-25 10 -25 26 0 13 2 13 14 -4 8 -10 13 -21 11 -22z m-1540 -257 c6 -2 -64 -3
-155 -2 -127 0 -145 2 -80 6 81 6 214 3 235 -4z m220 6 c4 -8 -22 -11 -80 -11
-47 0 -84 4 -81 9 8 12 153 14 161 2z m-615 -70 c0 -15 -9 -20 -47 -23 -54 -5
-67 1 -57 25 5 13 19 17 55 17 41 0 49 -3 49 -19z m240 -1 c0 -11 -3 -20 -7
-21 -58 -6 -143 -9 -160 -4 -14 3 -23 13 -23 25 0 19 7 20 95 20 88 0 95 -1
95 -20z m1872 -25 c-1 -22 -4 -105 -5 -185 l-2 -145 -25 1 c-14 0 -55 1 -92 2
-74 2 -94 21 -25 24 l42 1 -37 4 -38 4 0 64 c0 78 7 100 26 84 8 -6 14 -7 14
-2 0 4 18 8 41 8 30 0 44 6 51 20 11 19 11 19 19 0 5 -14 8 -7 8 24 1 24 -2
41 -6 38 -3 -4 -16 -1 -27 6 -22 14 -83 16 -103 4 -15 -9 -30 60 -17 73 8 8
119 18 164 15 11 0 14 -11 12 -40z m132 29 c8 -21 -3 -84 -14 -84 -5 0 -10
-15 -12 -32 l-4 -33 -11 35 -11 35 -1 -42 c-1 -32 3 -43 14 -43 11 0 15 -11
15 -42 0 -29 7 -49 22 -65 18 -19 20 -28 12 -55 -9 -29 -14 -33 -48 -36 -24
-2 -42 2 -47 10 -13 20 -11 162 4 215 10 37 10 47 0 50 -14 5 -18 84 -6 96 14
15 81 7 87 -9z m-1844 -9 c0 -11 -11 -15 -37 -16 -21 0 -48 -2 -60 -3 -22 -3
-31 13 -16 27 3 4 30 7 60 7 40 0 53 -4 53 -15z m214 1 c-6 -17 -141 -27 -161
-13 -26 19 0 27 82 27 69 0 83 -3 79 -14z m244 2 c-3 -9 -33 -14 -93 -16 -93
-3 -120 1 -110 18 10 16 208 13 203 -2z m162 -33 c0 -34 -4 -45 -15 -45 -9 0
-19 8 -22 18 -10 24 -29 42 -46 42 -8 0 -20 7 -27 15 -11 13 -5 15 49 15 l61
0 0 -45z m700 21 c0 -14 -6 -28 -12 -33 -17 -10 -243 -23 -473 -26 l-180 -2
-3 28 c-7 59 -22 57 338 57 l330 0 0 -24z m154 18 c9 -3 16 -18 16 -33 0 -25
-2 -26 -65 -29 l-65 -3 0 35 0 36 49 0 c27 0 56 -3 65 -6z m-864 -246 c0 -71
-2 -78 -19 -78 -12 0 -21 8 -23 22 -4 26 -43 35 -52 12 -3 -9 -4 -20 0 -25 3
-5 0 -9 -6 -9 -7 0 -10 34 -8 107 3 105 3 106 28 110 14 2 27 9 29 15 2 6 14
-8 27 -33 18 -35 23 -61 24 -121z m-170 137 c12 0 15 -15 15 -77 0 -47 -5 -82
-12 -89 -18 -18 -173 -16 -184 2 -11 17 -12 140 -1 154 4 6 36 12 72 14 36 1
67 4 69 6 2 3 9 1 15 -3 6 -3 18 -7 26 -7z m-885 -7 l45 4 0 -80 0 -80 -45 -4
c-25 -2 -50 1 -55 6 -12 12 -14 149 -3 160 4 4 9 4 10 -1 2 -4 23 -7 48 -5z
m205 0 c0 -6 3 -8 7 -5 3 4 13 2 20 -5 11 -9 16 -9 22 1 13 21 18 -16 11 -94
-3 -39 -8 -65 -13 -58 -4 7 -14 10 -22 6 -10 -3 -15 1 -16 13 -1 16 -2 16 -6
2 -3 -12 -18 -17 -59 -20 -31 -1 -58 -1 -60 1 -7 7 -4 136 4 147 10 16 31 22
75 23 22 1 37 -4 37 -11z m192 -9 l48 2 0 -74 0 -75 -57 -5 c-32 -2 -59 -3
-61 -2 -2 2 -6 28 -9 58 -7 65 2 111 19 101 7 -4 34 -6 60 -5z m250 -3 c14
-21 9 -136 -6 -142 -7 -3 -45 -6 -85 -7 l-71 -2 0 67 c0 97 0 97 83 96 42 0
75 -5 79 -12z m634 -36 c122 0 124 0 125 23 l2 22 4 -22 c4 -22 33 -33 33 -13
0 6 9 1 20 -10 18 -18 35 -20 143 -22 67 0 128 -1 135 -1 9 1 12 -22 12 -83 0
-53 -4 -84 -11 -84 -6 0 -9 22 -8 60 1 33 -1 63 -4 67 -4 3 -7 -19 -7 -50 l0
-56 -35 6 c-23 4 -35 2 -35 -6 0 -6 17 -11 38 -12 30 0 33 -2 17 -9 -29 -12
-465 -12 -465 0 0 6 73 10 200 10 116 0 200 4 200 9 0 10 -496 5 -512 -5 -4
-3 -8 0 -8 5 0 6 -7 11 -15 11 -13 0 -15 14 -13 83 3 69 6 82 19 79 10 -1 20
7 24 20 l8 23 4 -22 c4 -22 8 -23 129 -23z m614 -31 c0 -6 7 -9 15 -5 11 4 15
-1 14 -17 0 -12 -3 -16 -6 -9 -11 29 -23 8 -23 -42 0 -39 4 -55 15 -60 34 -13
12 -26 -45 -26 -33 0 -60 4 -60 10 0 6 18 10 40 10 l40 0 0 45 0 45 -42 2 -43
1 43 4 c53 5 55 23 2 23 -29 0 -40 4 -40 15 0 11 12 15 45 15 26 0 45 -5 45
-11z m515 -114 c22 -8 56 -14 76 -15 33 0 59 -14 59 -32 0 -4 -45 -8 -100 -8
-73 0 -100 3 -100 13 0 6 -3 22 -6 35 -8 27 11 29 71 7z m221 -53 c-10 -2 -22
0 -28 6 -6 6 0 7 19 4 21 -5 23 -7 9 -10z m-1418 1 c-10 -2 -26 -2 -35 0 -10
3 -2 5 17 5 19 0 27 -2 18 -5z m-325 -197 c-2 -60 -5 -112 -8 -114 -3 -3 -29
-7 -59 -10 l-54 -4 -7 80 c-4 45 -4 99 0 122 l7 41 61 -3 62 -3 -2 -109z m144
74 c13 0 15 -13 11 -83 -5 -90 -13 -116 -32 -97 -8 8 -7 13 3 19 11 7 11 12
-2 32 -11 18 -13 42 -9 94 3 39 7 62 10 53 2 -10 10 -18 19 -18z m1517 8 c9
-34 7 -181 -2 -196 -5 -8 -44 -15 -105 -19 -94 -6 -97 -5 -97 15 0 18 5 20 33
16 17 -3 59 -1 92 4 56 9 57 10 18 11 l-43 1 0 54 c0 40 -4 55 -16 60 -14 5
-13 9 2 35 14 24 26 31 58 34 23 2 44 4 47 5 4 1 9 -8 13 -20z m-2199 2 c4 -6
11 -8 16 -4 5 3 23 2 40 -1 l31 -7 -7 -77 c-5 -42 -9 -85 -10 -96 -1 -17 -9
-20 -51 -19 l-49 0 -3 85 c-2 46 0 94 3 107 6 23 20 29 30 12z m289 -6 c3 -9
6 -37 6 -62 0 -36 -5 -50 -20 -60 -13 -8 -20 -23 -20 -42 0 -28 -2 -30 -39
-30 -32 0 -40 4 -45 23 -8 29 -8 151 0 171 9 23 109 23 118 0z m96 6 c0 -5 -4
-10 -10 -10 -5 0 -10 5 -10 10 0 6 5 10 10 10 6 0 10 -4 10 -10z m1393 -4 c16
-12 17 -25 11 -110 l-7 -96 -83 0 -84 0 0 95 0 95 40 0 c25 0 40 -5 40 -12 0
-7 12 0 27 15 31 31 32 31 56 13z m164 2 c11 -19 4 -161 -8 -169 -8 -5 -8 -8
0 -13 23 -15 9 -26 -33 -26 l-44 0 -1 110 -2 110 40 0 c22 0 43 -6 48 -12z
m322 -16 c-15 -6 -10 -32 6 -32 18 0 20 -30 3 -31 -10 0 -10 -2 0 -6 6 -2 12
-20 12 -38 0 -46 9 -65 31 -65 10 0 19 -4 19 -10 0 -12 -41 -23 -71 -18 -22 3
-23 7 -25 98 -3 112 1 135 21 117 7 -6 9 -13 4 -15z m135 -47 c17 -167 17
-157 -7 -153 -21 3 -22 9 -25 93 -3 101 4 148 18 125 5 -8 11 -37 14 -65z
m-358 -10 c-9 -14 -16 -31 -14 -38 3 -18 -12 -57 -23 -57 -5 0 -10 26 -10 58
-2 107 3 119 37 87 26 -24 26 -26 10 -50z m-2213 -22 c-2 -49 -3 -94 -3 -102
0 -9 -8 -12 -25 -9 -14 3 -25 2 -25 -2 0 -5 -9 -6 -20 -3 -16 4 -20 14 -20 49
0 42 12 59 23 32 3 -7 6 -1 6 14 1 17 -5 28 -16 31 -13 3 -12 5 5 6 17 1 22 6
20 19 -2 10 -11 16 -21 14 -11 -2 -17 4 -17 18 0 17 6 20 48 20 l47 0 -2 -87z
m1011 -40 c-4 -18 -10 -33 -15 -33 -5 0 -9 -7 -9 -15 0 -11 11 -15 41 -15 l41
0 -6 43 c-7 49 -7 127 0 139 3 4 48 8 100 8 l94 0 0 -80 c0 -57 -4 -80 -12
-81 -18 -1 23 -17 45 -18 15 -1 17 9 17 78 l0 79 48 4 c46 4 112 -16 112 -34
0 -4 7 -8 15 -8 11 0 15 -12 15 -50 0 -38 -4 -50 -15 -50 -8 0 -15 -4 -15 -9
0 -11 25 -21 56 -21 23 0 24 3 24 64 0 35 3 78 6 95 13 62 24 29 24 -68 0 -88
-2 -100 -17 -101 -198 -9 -358 -11 -490 -5 l-163 7 0 93 0 94 43 3 42 3 12
-45 c7 -25 10 -60 7 -77z m723 -11 l5 -63 -59 3 c-67 3 -67 4 -57 116 l6 62
39 0 c24 0 39 5 40 13 2 25 21 -70 26 -131z m773 56 c0 -45 -2 -79 -4 -77 -10
11 -16 159 -7 159 7 0 11 -31 11 -82z m-1470 16 c0 -8 -4 -14 -10 -14 -5 0
-10 9 -10 21 0 11 5 17 10 14 6 -3 10 -13 10 -21z m-570 -103 c0 -6 -4 -13
-10 -16 -5 -3 -10 1 -10 9 0 9 5 16 10 16 6 0 10 -4 10 -9z m2890 -61 c0 -5
-5 -10 -11 -10 -5 0 -7 5 -4 10 3 6 8 10 11 10 2 0 4 -4 4 -10z"/>
<path d="M4758 2743 c23 -2 61 -2 85 0 23 2 4 4 -43 4 -47 0 -66 -2 -42 -4z"/>
<path d="M3603 2360 c0 -25 2 -35 4 -22 2 12 2 32 0 45 -2 12 -4 2 -4 -23z"/>
<path d="M3633 2360 c0 -25 2 -35 4 -22 2 12 2 32 0 45 -2 12 -4 2 -4 -23z"/>
<path d="M3010 6962 c0 -46 4 -74 13 -79 6 -4 18 -20 26 -35 7 -14 27 -41 44
-60 17 -18 45 -48 62 -67 l30 -34 -43 5 c-29 4 -50 15 -65 32 -26 30 -37 33
-37 9 -1 -14 -4 -12 -15 7 -13 23 -14 19 -15 -61 0 -81 2 -87 28 -111 28 -26
132 -142 143 -160 10 -16 53 -5 57 14 2 10 -9 33 -25 53 -21 26 -28 46 -28 78
0 23 -4 52 -8 65 -8 20 -5 22 22 22 20 0 34 -7 41 -20 6 -11 17 -20 25 -20 8
0 15 -8 15 -18 0 -22 72 -52 78 -33 2 6 11 11 19 11 12 0 14 7 9 31 -3 17 -6
35 -6 40 0 5 -6 9 -14 9 -20 0 -108 88 -96 95 6 3 10 16 10 28 -1 20 -2 21
-14 5 -10 -13 -15 -15 -24 -6 -7 7 -12 18 -12 25 0 7 -7 13 -15 13 -8 0 -15 5
-15 11 0 14 -55 69 -69 69 -6 0 -11 9 -11 20 0 11 -4 20 -8 20 -4 0 -29 25
-55 56 l-47 56 0 -70z m75 -292 c14 -27 14 -30 0 -30 -8 0 -15 7 -15 15 0 9
-7 18 -15 21 -19 8 -19 24 0 24 8 0 21 -13 30 -30z m36 -57 c-12 -20 -14 -14
-5 12 4 9 9 14 11 11 3 -2 0 -13 -6 -23z"/>
<path d="M5760 6972 c0 -16 72 -32 93 -20 16 8 17 12 6 19 -18 11 -99 12 -99
1z"/>
<path d="M8593 6928 c-44 -14 -42 -25 6 -30 51 -4 86 4 86 22 0 19 -48 22 -92
8z"/>
<path d="M3040 6810 c0 -5 5 -10 10 -10 6 0 10 5 10 10 0 6 -4 10 -10 10 -5 0
-10 -4 -10 -10z"/>
<path d="M3202 6610 c0 -14 2 -19 5 -12 2 6 2 18 0 25 -3 6 -5 1 -5 -13z"/>
<path d="M9333 4963 c31 -2 83 -2 115 0 31 2 5 3 -58 3 -63 0 -89 -1 -57 -3z"/>
<path d="M8193 4623 l2 -48 164 0 164 0 2 40 c1 22 -3 43 -9 47 -6 4 -82 8
-168 8 l-157 0 2 -47z"/>
<path d="M9408 4643 c-37 -4 -38 -5 -38 -44 l0 -39 65 0 65 0 0 45 c0 50 5 48
-92 38z"/>
<path d="M9360 4360 c0 -5 18 -10 40 -10 22 0 40 5 40 10 0 6 -18 10 -40 10
-22 0 -40 -4 -40 -10z"/>
<path d="M3022 4308 c-9 -9 -12 -147 -12 -560 l0 -548 458 -2 c251 -1 565 -2
697 -2 132 -1 220 2 195 5 l-45 6 43 1 c23 1 42 6 42 10 0 5 18 17 39 27 55
24 59 41 10 49 -39 6 -51 19 -26 30 12 5 -60 -2 -99 -10 -27 -5 -41 12 -46 51
l-3 30 125 -2 c69 -2 151 -5 183 -8 52 -6 57 -4 57 14 0 26 -18 30 -145 34
l-100 3 106 2 c84 2 108 5 113 17 10 27 -31 35 -180 35 l-147 0 7 243 c9 335
9 381 2 404 -8 25 -36 31 -172 40 l-100 6 3 51 c5 70 -4 81 -50 61 -26 -11
-38 -23 -43 -43 -3 -15 -7 -32 -9 -38 -6 -19 -90 -36 -147 -30 -29 3 -174 7
-323 9 -148 3 -279 5 -290 6 -11 1 -31 0 -45 -1 -24 -3 -25 -1 -28 60 -3 60
-4 62 -30 62 -16 0 -33 -5 -40 -12z m1238 -183 c11 -14 10 -189 -5 -525 -3
-52 -5 -98 -5 -102 0 -5 -55 -8 -123 -8 l-123 0 3 98 c2 53 6 199 9 325 l6
227 113 0 c87 0 115 -3 125 -15z m-1000 -25 c0 -5 -13 -10 -30 -10 -16 0 -33
0 -37 -1 -4 0 -9 4 -11 10 -2 7 12 11 37 11 23 0 41 -4 41 -10z m195 -5 c0 -5
-21 -11 -47 -13 -39 -3 -48 0 -48 13 0 13 9 16 48 13 26 -2 47 -7 47 -13z
m225 0 c0 -12 -15 -15 -72 -15 -101 0 -71 25 35 29 27 1 37 -3 37 -14z m160 0
c0 -15 -4 -16 -61 -19 -34 -1 -49 12 -28 25 24 15 89 11 89 -6z m130 -95 c0
-19 -17 -36 -26 -27 -3 2 -2 16 2 31 7 28 24 26 24 -4z m-6 -317 c-4 -92 -11
-164 -18 -172 -9 -11 -35 -13 -131 -8 -126 6 -159 12 -149 29 4 7 9 7 13 0 3
-5 42 -12 86 -15 44 -4 72 -4 63 -1 -22 7 -23 23 -3 30 8 4 15 15 15 25 0 12
10 23 25 29 14 5 25 16 23 23 -2 7 9 24 23 38 21 19 29 40 38 96 6 40 11 74
11 77 0 3 2 6 5 6 3 0 2 -71 -1 -157z m-604 -43 c0 -5 -5 -10 -11 -10 -5 0 -7
5 -4 10 3 6 8 10 11 10 2 0 4 -4 4 -10z"/>
<path d="M4770 3978 c-1 -42 -21 -651 -25 -755 -4 -82 -2 -103 9 -103 9 0 13
13 12 43 0 23 3 221 8 440 5 218 6 397 2 397 -3 0 -6 -10 -6 -22z"/>
<path d="M4873 3989 c-13 -4 -23 -10 -23 -11 0 -2 43 -4 95 -5 63 -1 93 2 89
8 -3 6 -17 8 -31 5 -13 -4 -29 -4 -35 0 -17 11 -71 13 -95 3z"/>
<path d="M5068 3983 c6 -2 18 -2 25 0 6 3 1 5 -13 5 -14 0 -19 -2 -12 -5z"/>
<path d="M5160 3980 c-44 -7 -44 -7 18 -8 40 -1 61 2 57 8 -3 6 -12 9 -18 8
-7 0 -32 -4 -57 -8z"/>
<path d="M5300 3980 c0 -5 5 -10 10 -10 6 0 10 5 10 10 0 6 -4 10 -10 10 -5 0
-10 -4 -10 -10z"/>
<path d="M8264 3768 c-5 -7 -7 -282 -5 -610 2 -423 -1 -598 -8 -598 -7 0 -11
27 -11 71 0 123 -49 159 -216 159 -103 0 -144 -13 -165 -52 -7 -13 -16 -102
-21 -213 -10 -244 -12 -249 -68 -255 -38 -4 -45 -9 -51 -33 -16 -59 -33 -55
368 -73 127 -6 143 -9 148 -25 5 -14 16 -19 46 -19 26 0 39 -4 39 -14 0 -18
84 -26 261 -26 117 0 139 2 139 15 0 12 13 15 58 15 31 0 103 5 159 12 l103
12 6 33 c5 28 10 33 35 33 22 0 29 -5 29 -20 0 -17 7 -20 43 -20 23 0 85 -3
137 -6 52 -2 121 -2 153 2 l57 6 0 105 c0 96 -1 105 -17 97 -10 -4 -36 -9 -58
-10 -39 -3 -39 -3 -12 8 15 7 27 18 27 25 0 7 7 13 16 13 13 0 14 3 5 14 -9
11 -7 15 11 21 20 6 18 8 -17 16 -22 6 -53 9 -70 7 l-30 -3 4 -97 3 -98 -81 0
c-58 0 -81 4 -81 13 -1 6 -2 183 -4 392 -2 209 -7 541 -11 738 -6 294 -4 357
7 358 7 1 -3 5 -24 8 -20 4 -230 9 -466 10 -348 2 -431 0 -438 -11z m837 -690
c-1 -112 2 -350 5 -529 l6 -326 -31 0 -31 0 -1 126 c-7 602 -6 922 1 911 7
-12 10 -11 16 3 3 9 13 17 21 17 13 0 15 -28 14 -202z m-148 -53 c-6 -17 -25
-15 -31 3 -2 7 5 12 17 12 14 0 19 -5 14 -15z m-643 -211 c0 -8 -4 -12 -10 -9
-5 3 -10 10 -10 16 0 5 5 9 10 9 6 0 10 -7 10 -16z m867 -356 c-2 -35 -3 -7
-3 62 0 69 1 97 3 63 2 -35 2 -91 0 -125z m-1288 -63 c2 -118 1 -125 -18 -125
-11 0 -22 3 -24 8 -10 16 17 242 29 242 9 0 12 -36 13 -125z m315 -21 l-3 -96
-146 -2 -145 -1 1 35 c1 19 4 45 7 58 7 23 7 23 41 -12 35 -36 36 -36 118 -36
l83 0 0 40 c0 31 -4 40 -17 41 -17 1 -17 2 0 6 24 6 21 20 -5 26 -27 7 -22 14
14 19 15 2 30 7 34 11 18 18 21 1 18 -89z m-264 82 c0 -3 -4 -8 -10 -11 -5 -3
-10 -1 -10 4 0 6 5 11 10 11 6 0 10 -2 10 -4z m0 -41 c0 -8 -4 -15 -10 -15 -5
0 -10 7 -10 15 0 8 5 15 10 15 6 0 10 -7 10 -15z"/>
<path d="M8165 2310 c-3 -5 -1 -10 4 -10 6 0 11 5 11 10 0 6 -2 10 -4 10 -3 0
-8 -4 -11 -10z"/>
<path d="M8018 2303 c12 -2 32 -2 45 0 12 2 2 4 -23 4 -25 0 -35 -2 -22 -4z"/>
<path d="M7956 3218 c-3 -7 -4 -42 -3 -78 l2 -65 67 -5 c65 -5 67 -4 70 20 2
14 1 50 -2 80 l-5 55 -63 3 c-44 2 -63 -1 -66 -10z m124 -58 c0 -5 -25 -10
-55 -10 -30 0 -55 5 -55 10 0 6 25 10 55 10 30 0 55 -4 55 -10z"/>
<path d="M7899 3180 c-4 -42 -1 -64 9 -68 8 -2 12 10 12 37 0 23 -4 41 -10 41
-5 0 -10 -4 -11 -10z"/>
<path d="M3010 3160 c0 -20 5 -20 455 -20 267 0 455 4 455 9 0 14 -125 20
-537 26 -370 5 -373 5 -373 -15z"/>
<path d="M7640 3082 l5 -47 3 39 c2 21 0 42 -5 47 -4 4 -6 -13 -3 -39z"/>
<path d="M7185 2221 l-100 -6 85 -7 c47 -5 181 -8 298 -8 182 0 212 2 212 15
0 13 -28 15 -197 13 -109 -1 -243 -4 -298 -7z"/>
<path d="M4285 2070 c3 -5 8 -10 11 -10 2 0 4 5 4 10 0 6 -5 10 -11 10 -5 0
-7 -4 -4 -10z"/>
<path d="M8937 983 c-4 -3 -7 -172 -7 -375 l0 -368 285 0 285 0 0 88 c0 80 -2
89 -25 111 -32 30 -38 55 -33 141 3 60 8 73 32 99 27 29 27 29 7 36 -18 6 -21
12 -15 41 6 34 -10 94 -26 94 -8 0 -20 -25 -20 -41 0 -5 9 -9 20 -9 23 0 25
-9 8 -45 -11 -25 -28 -34 -28 -15 0 6 5 10 10 10 6 0 10 5 10 10 0 6 -9 10
-19 10 -11 0 -23 5 -26 10 -3 6 -14 10 -23 10 -15 -1 -15 -2 -1 -13 22 -17 27
-137 6 -137 -8 0 -17 -9 -20 -20 -6 -25 -51 -43 -100 -41 -59 3 -74 -5 -71
-37 2 -15 5 -53 7 -84 3 -54 2 -58 -19 -58 -12 0 -25 7 -28 16 -3 9 -6 108 -6
220 l0 204 80 0 c75 0 126 -12 142 -35 4 -5 8 1 8 15 0 28 10 26 -152 29 -54
2 -98 5 -98 9 0 4 36 6 80 4 l80 -2 0 49 0 50 43 4 c26 2 10 5 -43 7 -75 3
-80 4 -40 10 28 4 -19 8 -126 8 -94 1 -174 -1 -177 -5z m20 -465 c-2 -24 -4
-5 -4 42 0 47 2 66 4 43 2 -24 2 -62 0 -85z"/>
<path d="M9453 963 c9 -2 25 -2 35 0 9 3 1 5 -18 5 -19 0 -27 -2 -17 -5z"/>
<path d="M9328 873 c6 -2 18 -2 25 0 6 3 1 5 -13 5 -14 0 -19 -2 -12 -5z"/>
<path d="M9460 874 c0 -9 31 -37 36 -32 9 9 -8 38 -22 38 -8 0 -14 -3 -14 -6z"/>
<path d="M9190 713 l0 -88 62 5 61 5 15 42 c18 49 6 91 -28 100 -11 3 -20 9
-20 14 0 5 -20 9 -45 9 l-45 0 0 -87z m97 -65 c-3 -8 -6 -5 -6 6 -1 11 2 17 5
13 3 -3 4 -12 1 -19z"/>
<path d="M9486 741 c-4 -7 -5 -15 -2 -18 9 -9 19 4 14 18 -4 11 -6 11 -12 0z"/>
<path d="M9480 571 c0 -22 5 -43 10 -46 6 -4 10 12 10 39 0 25 -4 46 -10 46
-5 0 -10 -18 -10 -39z"/>
<path d="M6080 350 c0 -5 18 -10 40 -10 22 0 40 5 40 10 0 6 -18 10 -40 10
-22 0 -40 -4 -40 -10z"/>
<path d="M5731 119 c-18 -21 -42 -39 -52 -39 -15 0 -19 -7 -19 -40 l0 -40 165
0 165 0 0 39 c0 32 -7 47 -39 80 -39 41 -40 41 -113 40 -72 -1 -73 -1 -107
-40z"/>
<path d="M6000 40 l0 -40 40 0 40 0 0 40 0 40 -40 0 -40 0 0 -40z"/>
</g>
</svg>
