<?xml version="1.0" standalone="no"?>
<!DOCTYPE svg PUBLIC "-//W3C//DTD SVG 20010904//EN"
 "http://www.w3.org/TR/2001/REC-SVG-20010904/DTD/svg10.dtd">
<svg version="1.0" xmlns="http://www.w3.org/2000/svg"
 width="1280.000000pt" height="720.000000pt" viewBox="0 0 1280.000000 720.000000"
 preserveAspectRatio="xMidYMid meet">
<metadata>
Created by potrace 1.16, written by Peter Selinger 2001-2019
</metadata>
<g transform="translate(0.000000,720.000000) scale(0.100000,-0.100000)"
fill="#000000" stroke="none">
<path d="M6243 7168 c-46 -11 -83 -25 -83 -30 0 -5 -6 -16 -14 -23 -7 -8 -16
-36 -20 -64 -4 -28 -10 -51 -15 -51 -11 0 -31 -46 -31 -71 0 -11 -6 -22 -14
-25 -12 -5 -21 -21 -61 -119 -61 -146 -88 -250 -105 -405 -14 -127 -34 -192
-72 -234 -10 -11 -18 -25 -18 -32 0 -7 -6 -19 -13 -26 -22 -22 -37 -55 -37
-82 0 -26 -30 -87 -57 -118 -10 -12 -13 -26 -9 -44 6 -21 -1 -44 -26 -93 -18
-36 -36 -68 -39 -71 -3 -3 -16 -48 -28 -100 -12 -52 -26 -111 -31 -130 -33
-121 -43 -151 -54 -162 -7 -7 -17 -31 -23 -53 -6 -22 -25 -87 -42 -145 -17
-58 -31 -119 -31 -136 0 -17 -11 -68 -25 -113 -22 -75 -24 -93 -19 -214 4 -73
12 -157 20 -188 8 -31 14 -70 14 -87 0 -17 3 -32 8 -34 4 -1 15 -37 26 -78 10
-41 29 -97 43 -125 29 -61 53 -160 53 -223 0 -26 9 -85 20 -132 36 -157 24
-675 -20 -850 -10 -41 -22 -98 -26 -127 -8 -61 -15 -55 131 -96 83 -24 143
-37 235 -52 59 -10 81 -56 92 -202 10 -121 7 -160 -11 -148 -6 3 -13 -10 -17
-30 -3 -19 -10 -35 -15 -35 -5 0 -9 -21 -9 -47 0 -30 -10 -67 -29 -107 -15
-34 -36 -79 -46 -100 -10 -22 -30 -60 -45 -85 -14 -25 -31 -64 -37 -86 -6 -22
-18 -67 -27 -100 -29 -109 -48 -277 -56 -500 -8 -215 -13 -269 -30 -310 -4
-11 -13 -40 -20 -65 -6 -25 -23 -70 -37 -99 -23 -50 -24 -59 -13 -100 6 -26
14 -64 17 -86 5 -39 42 -84 69 -85 7 0 14 -9 17 -20 3 -11 16 -24 29 -29 13
-5 30 -16 37 -25 10 -12 32 -16 91 -16 48 0 80 4 82 11 4 13 122 27 242 30
l84 2 4 35 c5 42 -12 67 -59 87 -18 8 -33 19 -33 24 0 6 -8 11 -18 11 -17 0
-72 54 -72 71 0 5 -7 9 -16 9 -18 0 -53 38 -54 58 0 7 -7 20 -15 28 -43 43
-51 239 -15 369 12 44 25 89 27 100 3 11 18 56 33 100 15 44 36 107 45 140 10
33 21 69 26 80 4 11 13 40 20 65 12 50 45 132 89 228 17 34 32 73 36 87 3 14
9 25 13 25 4 0 16 18 27 40 10 22 22 40 27 40 4 0 7 7 7 15 0 9 9 34 21 57 33
65 44 38 41 -110 -1 -70 -3 -327 -5 -572 -2 -333 -7 -456 -17 -490 -19 -67
-23 -436 -4 -473 8 -15 21 -27 29 -27 8 0 15 -4 15 -10 0 -5 18 -10 40 -10 22
0 40 -4 40 -10 0 -5 18 -10 40 -10 22 0 40 -4 40 -10 0 -17 68 -11 112 11 60
29 101 84 92 124 -6 30 -44 75 -63 75 -15 0 -61 49 -61 65 0 8 -7 15 -15 15
-8 0 -15 1 -16 3 0 1 -4 65 -8 142 -5 90 -5 145 2 153 5 7 20 52 32 100 13 48
39 143 59 212 20 68 41 165 46 215 5 49 15 122 24 160 8 39 16 122 17 185 3
136 -11 350 -23 350 -11 0 -10 47 1 55 5 3 12 1 16 -5 13 -21 25 -9 25 25 0
19 -4 35 -10 35 -5 0 -10 -7 -10 -15 0 -8 -5 -15 -11 -15 -8 0 -9 13 -4 43 4
23 11 69 16 102 15 99 27 158 41 200 l13 40 65 7 c93 9 374 69 383 82 4 6 6
36 3 66 -3 30 -13 132 -21 225 -8 94 -17 180 -20 191 -3 13 5 36 20 58 14 20
25 39 25 41 0 2 11 29 25 59 14 30 25 62 25 70 0 9 5 16 10 16 16 0 12 33 -7
60 -49 68 -49 72 -35 373 17 351 17 640 1 713 -7 29 -15 54 -18 54 -3 0 -7 37
-8 83 -1 45 -6 147 -12 227 -6 80 -11 233 -11 340 0 108 -5 234 -11 280 -7 47
-13 94 -14 105 -4 42 -18 85 -26 85 -5 0 -9 6 -9 13 0 7 -9 18 -20 25 -11 7
-20 19 -20 27 0 8 -4 15 -8 15 -5 0 -22 12 -38 26 -16 14 -40 30 -54 35 -17 7
-21 12 -12 18 9 5 11 22 6 57 -4 27 -10 87 -13 134 -7 81 -16 119 -32 130 -4
3 -14 21 -22 40 -18 41 -59 113 -68 120 -4 3 -10 21 -14 40 -4 19 -10 37 -14
40 -6 5 -37 100 -63 195 -6 22 -14 42 -17 45 -3 3 -19 32 -35 65 -33 67 -104
175 -115 175 -4 0 -16 19 -26 43 -30 67 -102 133 -179 162 -78 30 -104 30
-213 3z m418 -312 c18 -28 38 -78 45 -111 16 -72 19 -265 4 -265 -5 0 -10 -11
-10 -25 0 -14 -4 -25 -9 -25 -13 0 -21 38 -21 110 0 36 -7 87 -15 114 -8 27
-15 71 -15 97 0 26 -4 49 -10 51 -5 2 -14 25 -19 53 -6 30 -18 56 -30 66 -12
10 -21 22 -21 29 0 22 70 -43 101 -94z m-21 -431 c0 -16 -6 -25 -15 -25 -18 0
-20 21 -3 38 17 17 18 16 18 -13z m-780 -1396 c0 -79 -5 -150 -11 -166 -7 -15
-18 -95 -25 -178 -8 -82 -18 -175 -24 -205 -13 -73 -51 -192 -66 -207 -7 -7
-15 -26 -19 -43 -4 -16 -11 -32 -15 -35 -11 -7 -14 7 -33 165 -9 69 -23 158
-31 199 -15 71 -15 75 4 105 31 50 52 99 57 139 3 20 9 37 13 37 7 0 10 10 26
88 3 17 10 32 15 32 5 0 8 28 8 63 -1 49 4 72 25 112 57 106 76 79 76 -106z
m1290 -931 c15 -73 40 -237 40 -270 0 -18 -5 -28 -14 -28 -19 0 -23 16 -36
125 -5 50 -16 115 -23 145 -15 61 -13 80 8 80 8 0 18 -21 25 -52z m-1530 -499
c0 -5 -4 -9 -10 -9 -5 0 -10 7 -10 16 0 8 5 12 10 9 6 -3 10 -10 10 -16z m-6
-94 c-4 -8 -8 -15 -10 -15 -2 0 -4 7 -4 15 0 8 4 15 10 15 5 0 7 -7 4 -15z"/>
<path d="M6098 343 c12 -2 32 -2 45 0 12 2 2 4 -23 4 -25 0 -35 -2 -22 -4z"/>
<path d="M6498 323 c12 -2 32 -2 45 0 12 2 2 4 -23 4 -25 0 -35 -2 -22 -4z"/>
</g>
</svg>
