<?xml version="1.0" standalone="no"?>
<!DOCTYPE svg PUBLIC "-//W3C//DTD SVG 20010904//EN"
 "http://www.w3.org/TR/2001/REC-SVG-20010904/DTD/svg10.dtd">
<svg version="1.0" xmlns="http://www.w3.org/2000/svg"
 width="1280.000000pt" height="720.000000pt" viewBox="0 0 1280.000000 720.000000"
 preserveAspectRatio="xMidYMid meet">
<metadata>
Created by potrace 1.16, written by Peter Selinger 2001-2019
</metadata>
<g transform="translate(0.000000,720.000000) scale(0.100000,-0.100000)"
fill="#000000" stroke="none">
<path d="M6275 7139 c-102 -16 -106 -19 -147 -101 -4 -10 -8 -31 -8 -48 0 -19
-7 -34 -20 -42 -12 -8 -20 -24 -20 -40 0 -16 -3 -28 -8 -28 -4 0 -13 -14 -21
-31 -7 -17 -21 -38 -31 -47 -9 -9 -20 -30 -24 -47 -4 -16 -11 -32 -15 -35 -12
-8 -53 -129 -63 -185 -4 -27 -13 -99 -18 -160 -10 -119 -24 -190 -47 -245 -8
-19 -19 -44 -23 -55 -5 -11 -11 -47 -13 -81 -5 -63 -31 -129 -47 -119 -6 4 -9
-32 -8 -90 1 -53 -3 -100 -8 -103 -5 -4 -20 -24 -34 -44 -14 -21 -28 -38 -32
-38 -5 0 -8 -13 -8 -30 0 -16 -7 -55 -15 -87 -8 -31 -15 -87 -15 -123 0 -37
-9 -100 -21 -141 -11 -41 -23 -85 -26 -99 -7 -35 -27 -80 -35 -80 -3 0 -14
-23 -23 -50 -9 -28 -31 -72 -49 -98 -17 -26 -47 -80 -66 -119 -19 -40 -38 -73
-42 -73 -4 0 -5 -13 -1 -30 4 -22 2 -30 -8 -30 -13 0 -30 -23 -45 -62 -3 -10
-13 -18 -20 -18 -8 0 -14 -6 -14 -14 0 -19 -62 -139 -76 -148 -7 -4 -24 -31
-39 -60 -14 -29 -35 -60 -46 -70 -10 -9 -19 -27 -19 -41 0 -14 -7 -27 -15 -31
-8 -3 -15 -12 -15 -21 0 -8 -4 -15 -8 -15 -5 0 -17 -18 -28 -40 -10 -22 -25
-40 -31 -40 -7 0 -13 -6 -13 -14 0 -8 -11 -23 -25 -34 -14 -11 -25 -29 -25
-40 0 -31 -54 -36 -120 -12 -62 23 -165 27 -217 8 -38 -14 -42 -29 -13 -49 17
-13 18 -19 8 -61 -9 -39 -9 -51 5 -72 10 -14 17 -41 17 -59 0 -42 19 -60 54
-51 16 4 26 2 26 -5 0 -6 7 -11 15 -11 8 0 15 -9 15 -19 0 -11 5 -23 10 -26 6
-4 10 5 10 19 0 19 5 26 20 26 17 0 19 -5 14 -25 -6 -24 -4 -25 35 -25 28 0
41 4 41 14 0 7 13 19 30 26 16 7 35 18 41 26 9 11 7 14 -9 14 -12 0 -24 5 -28
12 -5 8 3 9 29 5 21 -3 37 -2 37 4 0 5 18 9 40 9 39 0 40 1 46 40 4 27 12 40
23 41 9 0 30 2 46 2 27 2 30 6 33 39 2 20 10 42 18 48 8 7 14 23 14 35 0 15 8
25 23 30 l22 7 -25 8 c-14 4 -18 9 -10 9 22 2 70 47 70 66 0 8 6 15 14 15 8 0
25 15 37 33 21 30 107 116 155 156 24 19 54 72 54 95 0 8 10 23 23 33 26 20
117 140 117 154 0 5 13 27 28 48 15 21 34 58 42 82 8 24 20 50 27 57 7 7 24
52 38 100 14 48 32 102 40 120 8 18 15 44 15 57 0 15 6 25 15 25 25 0 27 -43
5 -95 -31 -72 -70 -210 -70 -248 0 -79 -52 -262 -150 -532 -52 -141 -83 -253
-82 -295 0 -39 -1 -41 -7 -15 l-8 30 -6 -25 c-4 -14 -7 -56 -6 -95 2 -111 -17
-357 -30 -389 -9 -22 -9 -32 0 -43 9 -10 9 -17 1 -25 -7 -7 -12 -22 -12 -33 0
-12 -11 -43 -24 -69 -13 -26 -27 -63 -30 -82 -4 -18 -12 -37 -19 -41 -13 -8
-41 -91 -51 -155 -4 -20 -13 -50 -21 -65 -8 -15 -15 -35 -15 -43 0 -22 47 -54
84 -57 18 -1 59 -11 91 -22 33 -10 89 -26 125 -35 36 -9 88 -24 115 -35 50
-19 57 -21 75 -21 11 0 14 -33 3 -44 -10 -9 -3 -99 8 -113 6 -7 6 -12 -1 -15
-8 -2 -8 -11 -1 -31 6 -16 11 -53 11 -82 0 -49 3 -56 28 -69 l27 -15 -27 -1
c-22 0 -29 -6 -34 -27 -3 -16 -10 -41 -15 -57 -5 -16 -9 -49 -9 -72 0 -30 -4
-44 -13 -44 -8 0 -22 -17 -33 -38 -10 -20 -22 -38 -26 -40 -5 -2 -8 -21 -8
-42 0 -23 -5 -40 -14 -43 -7 -3 -19 -27 -25 -54 -7 -26 -18 -61 -26 -78 -35
-82 -66 -325 -75 -590 -8 -246 -15 -324 -30 -339 -5 -5 -10 -38 -10 -72 0 -34
-3 -64 -7 -66 -24 -10 -43 -71 -43 -136 0 -84 18 -124 71 -158 39 -24 40 -24
302 -25 144 0 270 3 279 6 9 4 18 18 21 33 3 15 9 40 13 55 8 35 -18 67 -57
67 -15 0 -30 4 -33 9 -3 5 -21 12 -40 15 -23 4 -55 26 -95 64 -63 59 -75 84
-101 221 -9 49 7 240 21 256 5 5 9 23 9 40 0 16 6 41 13 55 8 14 16 34 19 45
4 11 16 45 27 75 12 30 21 66 21 80 0 14 13 66 29 115 16 50 42 131 57 180 25
84 111 264 141 293 7 7 13 27 13 43 0 16 5 29 10 29 6 0 10 6 10 13 0 6 16 29
35 50 l34 38 14 -23 c8 -13 18 -34 22 -48 8 -29 22 -62 75 -180 21 -47 43
-114 50 -150 23 -130 34 -180 41 -180 6 0 17 -77 25 -174 2 -27 20 -112 41
-190 34 -130 37 -152 37 -281 0 -133 -1 -143 -28 -197 -30 -64 -78 -118 -104
-118 -17 0 -42 -41 -42 -67 0 -8 -12 -13 -30 -13 -21 0 -41 -10 -64 -33 -55
-53 -58 -98 -8 -114 45 -15 386 -17 413 -2 17 9 24 9 27 0 2 -6 11 -11 19 -11
9 0 13 3 10 7 -9 9 22 43 40 43 7 0 13 7 13 15 0 8 4 15 9 15 5 0 23 14 40 31
27 26 31 39 33 89 2 47 -1 62 -15 72 -13 10 -20 36 -27 101 -5 48 -12 91 -15
97 -3 5 -18 11 -33 11 -18 1 -21 3 -9 6 28 7 37 45 37 150 0 52 5 148 11 213
12 125 6 242 -14 263 -8 8 -13 63 -14 166 -1 90 -6 156 -12 160 -5 3 -15 27
-21 53 -7 26 -18 53 -26 59 -8 6 -14 19 -14 28 0 26 -70 162 -80 156 -17 -10
-22 86 -11 208 6 67 8 133 4 146 -4 16 -3 22 5 17 10 -6 14 5 28 87 6 36 8 37
48 37 65 0 271 28 339 47 16 4 17 33 17 422 l0 418 49 41 c27 23 53 42 58 42
4 1 22 19 38 40 17 21 36 39 43 40 6 0 12 5 12 12 0 6 11 26 25 44 14 18 25
39 25 47 0 8 8 25 18 38 10 13 27 51 37 84 10 33 29 82 43 108 13 27 28 76 33
110 11 78 11 79 0 72 -6 -3 -8 10 -5 32 6 44 13 56 15 22 1 -13 5 -1 9 26 4
28 3 54 -1 59 -5 6 -9 15 -9 20 0 6 5 4 10 -4 11 -15 10 12 -5 269 -3 51 -12
109 -20 128 -8 20 -15 57 -15 84 0 27 -4 49 -10 49 -5 0 -10 18 -10 40 0 27
-4 40 -13 40 -9 0 -21 30 -33 80 -10 44 -22 80 -26 80 -3 0 -9 14 -13 31 -4
17 -13 42 -21 57 -8 15 -14 35 -14 44 0 9 -4 19 -9 22 -5 3 -12 42 -16 86 -4
44 -11 80 -16 80 -5 0 -9 14 -9 31 0 45 -30 129 -46 129 -10 0 -14 13 -14 40
0 22 -4 40 -9 40 -5 0 -11 8 -15 18 -3 9 -9 24 -14 32 -19 33 -32 60 -32 68 0
5 25 17 55 27 67 23 72 40 10 31 -30 -5 -45 -4 -45 4 0 6 7 13 15 16 23 9 18
34 -7 34 -22 0 -68 55 -68 80 0 5 -6 10 -13 10 -16 0 -67 58 -67 76 0 8 -9 22
-20 31 -11 10 -20 25 -20 35 0 10 -6 18 -14 18 -7 0 -16 8 -20 18 -5 17 -26
52 -36 62 -11 11 -40 69 -40 80 0 6 -13 28 -30 48 -24 31 -34 60 -56 172 -14
74 -30 139 -35 145 -5 5 -9 18 -9 28 0 18 -28 76 -41 87 -4 3 -9 15 -13 28 -4
12 -12 22 -17 22 -5 0 -9 7 -9 15 0 8 -4 15 -8 15 -4 0 -15 12 -24 28 -9 15
-35 46 -57 70 -23 23 -41 47 -41 52 0 6 -7 10 -15 10 -8 0 -15 5 -15 12 0 20
-61 66 -108 82 -49 17 -97 18 -177 5z m322 -276 c7 -10 28 -47 45 -83 39 -77
51 -185 25 -212 -9 -8 -17 -33 -20 -54 l-4 -39 -1 43 c-1 29 -6 42 -17 42 -19
0 -39 71 -23 81 9 6 9 11 0 22 -10 11 -9 17 3 27 19 16 19 37 1 72 -8 15 -17
42 -21 60 -4 18 -12 39 -17 46 -7 8 -7 12 2 12 7 0 19 -8 27 -17z m509 -1681
c18 -21 39 -60 48 -86 9 -27 27 -72 40 -100 12 -28 30 -69 38 -91 9 -22 30
-74 47 -115 52 -124 54 -137 62 -355 4 -115 11 -259 15 -318 9 -134 -3 -182
-48 -191 -16 -3 -42 -15 -58 -26 -15 -11 -33 -20 -39 -20 -6 0 -11 -4 -11 -8
0 -10 -45 -32 -65 -32 -37 0 -50 71 -71 400 -8 135 -19 304 -24 375 -19 299
-23 489 -11 548 15 69 32 73 77 19z"/>
<path d="M5770 5930 c0 -5 5 -10 10 -10 6 0 10 5 10 10 0 6 -4 10 -10 10 -5 0
-10 -4 -10 -10z"/>
</g>
</svg>
