<?xml version="1.0" standalone="no"?>
<!DOCTYPE svg PUBLIC "-//W3C//DTD SVG 20010904//EN"
 "http://www.w3.org/TR/2001/REC-SVG-20010904/DTD/svg10.dtd">
<svg version="1.0" xmlns="http://www.w3.org/2000/svg"
 width="1280.000000pt" height="720.000000pt" viewBox="0 0 1280.000000 720.000000"
 preserveAspectRatio="xMidYMid meet">
<metadata>
Created by potrace 1.16, written by Peter Selinger 2001-2019
</metadata>
<g transform="translate(0.000000,720.000000) scale(0.100000,-0.100000)"
fill="#000000" stroke="none">
<path d="M6226 7149 c-21 -11 -41 -29 -43 -40 -3 -10 -9 -19 -14 -19 -5 0 -9
-6 -9 -12 0 -7 -16 -24 -35 -37 -19 -13 -35 -29 -35 -35 0 -6 -6 -22 -13 -36
-62 -114 -81 -159 -112 -255 -42 -129 -54 -188 -64 -310 -6 -75 -13 -103 -44
-167 -21 -43 -43 -78 -50 -78 -7 0 -21 -17 -32 -37 -11 -21 -25 -44 -32 -51
-7 -7 -15 -29 -18 -50 -3 -20 -12 -53 -19 -73 -7 -19 -11 -49 -9 -66 4 -22 -4
-48 -26 -87 -49 -90 -64 -162 -67 -336 -2 -85 -8 -175 -14 -200 -5 -25 -12
-101 -13 -170 -3 -104 -8 -134 -26 -175 -34 -74 -43 -196 -46 -615 -3 -343 -5
-382 -24 -459 -12 -47 -25 -89 -30 -95 -12 -15 -32 -92 -33 -127 -1 -16 -7
-29 -14 -29 -13 0 -19 -44 -30 -219 -4 -62 -2 -97 5 -104 6 -6 11 -26 11 -45
0 -21 7 -40 18 -48 23 -18 42 -17 42 2 0 16 54 201 70 239 5 11 12 30 15 43 4
12 13 22 21 22 8 0 14 10 14 25 0 13 9 33 21 43 11 11 19 26 18 33 -6 27 12
59 33 59 26 0 23 -22 -26 -215 -65 -258 -69 -275 -57 -288 7 -9 6 -21 -4 -41
-9 -17 -15 -56 -15 -98 0 -39 -5 -87 -11 -107 -14 -46 0 -151 21 -162 8 -4 60
-19 115 -34 55 -14 114 -31 131 -36 17 -5 40 -9 51 -9 36 0 50 -26 62 -112 16
-111 8 -400 -12 -448 -26 -61 -40 -221 -33 -369 9 -199 22 -327 39 -401 9 -36
21 -99 27 -140 7 -41 18 -102 26 -135 8 -39 12 -109 9 -196 -3 -158 -10 -178
-92 -255 -52 -50 -53 -52 -53 -106 0 -63 6 -71 70 -89 73 -20 271 -5 308 24 8
6 12 37 12 87 0 43 6 89 13 102 16 31 15 285 -2 316 -13 25 -14 144 -1 232 18
121 50 532 50 644 0 61 5 143 12 181 6 39 10 82 10 98 -1 15 3 27 9 27 6 0 8
9 4 20 -4 14 0 26 14 38 19 16 21 33 28 222 7 183 10 205 26 208 15 3 17 -6
17 -80 0 -46 -5 -139 -12 -206 -9 -100 -9 -125 1 -132 26 -16 35 -161 23 -368
-6 -108 -12 -347 -12 -530 -1 -260 -4 -340 -15 -366 -10 -24 -14 -79 -15 -187
0 -85 0 -188 0 -230 0 -55 4 -80 14 -88 8 -7 48 -17 88 -23 40 -5 74 -13 76
-17 5 -13 126 1 160 19 41 22 72 57 72 81 0 27 -32 89 -46 89 -16 0 -81 66
-99 100 -11 21 -13 59 -10 159 2 72 8 138 13 148 5 10 20 56 32 103 12 47 37
144 56 215 19 72 39 164 44 205 5 41 16 107 25 145 20 85 27 391 9 403 -17 11
-25 154 -10 183 9 17 9 31 3 46 -7 16 -7 40 1 75 6 29 16 80 22 113 11 59 42
195 44 195 56 4 170 22 183 29 10 5 54 17 98 26 121 24 135 32 134 69 0 17 -6
141 -13 276 -12 233 -11 246 6 266 10 11 18 26 18 32 0 7 4 12 9 12 8 0 51
124 51 148 0 7 5 12 10 12 19 0 10 35 -16 63 -24 26 -27 38 -32 133 -3 62 -1
109 5 116 13 17 8 713 -6 823 -5 44 -15 123 -20 175 -6 52 -16 130 -21 172 -6
42 -12 197 -14 345 -4 253 -18 413 -37 413 -5 0 -9 7 -9 16 0 8 -6 21 -12 29
-7 7 -23 27 -36 44 -13 16 -43 43 -68 58 -46 29 -52 41 -32 61 9 9 9 12 0 12
-7 0 -12 15 -12 39 0 22 -4 42 -9 45 -4 3 -10 41 -13 84 -3 60 -9 83 -26 102
-38 45 -109 193 -137 285 -14 50 -36 122 -47 160 -12 39 -36 99 -53 135 -18
36 -48 97 -66 135 -18 39 -36 72 -39 75 -7 7 -29 42 -37 60 -9 21 -30 40 -41
40 -6 0 -12 6 -14 13 -3 9 -44 13 -149 14 -129 3 -148 1 -183 -18z m388 -181
c32 -14 77 -106 101 -201 12 -53 15 -90 9 -165 -6 -86 -25 -162 -39 -162 -3 0
-4 44 -3 98 3 100 -18 251 -37 264 -7 5 -7 13 1 25 11 18 0 83 -14 83 -15 1
-39 26 -46 48 -8 25 -6 26 28 10z m-54 -263 c0 -8 -4 -15 -10 -15 -5 0 -10 7
-10 15 0 8 5 15 10 15 6 0 10 -7 10 -15z m77 -282 c-4 -17 -4 -17 -12 0 -4 9
-4 25 0 35 8 16 8 16 12 0 3 -10 3 -26 0 -35z m-733 -1424 c0 -74 -7 -136 -18
-177 -9 -35 -19 -93 -23 -130 -3 -37 -11 -86 -19 -110 -8 -23 -14 -68 -14
-100 0 -64 -26 -142 -47 -142 -22 0 -25 23 -8 63 8 20 15 60 15 90 0 29 9 78
20 110 11 31 20 77 20 101 0 24 9 82 20 128 11 48 20 123 21 178 1 101 4 113
22 107 8 -3 12 -40 11 -118z m1273 -1071 c-3 -7 -5 -2 -5 12 0 14 2 19 5 13 2
-7 2 -19 0 -25z"/>
</g>
</svg>
