<?xml version="1.0" standalone="no"?>
<!DOCTYPE svg PUBLIC "-//W3C//DTD SVG 20010904//EN"
 "http://www.w3.org/TR/2001/REC-SVG-20010904/DTD/svg10.dtd">
<svg version="1.0" xmlns="http://www.w3.org/2000/svg"
 width="1280.000000pt" height="720.000000pt" viewBox="0 0 1280.000000 720.000000"
 preserveAspectRatio="xMidYMid meet">
<metadata>
Created by potrace 1.16, written by Peter Selinger 2001-2019
</metadata>
<g transform="translate(0.000000,720.000000) scale(0.100000,-0.100000)"
fill="#000000" stroke="none">
<path d="M6340 7139 c-123 -21 -149 -42 -158 -129 -3 -33 -10 -54 -21 -60 -9
-4 -27 -30 -41 -57 -13 -26 -26 -50 -30 -53 -16 -13 -31 -97 -29 -163 1 -43
-6 -110 -18 -167 -30 -136 -43 -212 -43 -243 0 -15 -4 -27 -10 -27 -5 0 -10
-18 -10 -39 0 -22 -3 -41 -7 -43 -16 -7 -53 -68 -53 -87 0 -11 -9 -25 -19 -31
-11 -5 -25 -26 -31 -45 -6 -19 -16 -35 -21 -35 -5 0 -9 -9 -9 -20 0 -13 -7
-20 -18 -20 -10 0 -29 -17 -42 -40 -14 -22 -31 -40 -37 -40 -7 0 -13 -4 -13
-9 0 -5 -9 -13 -20 -16 -11 -4 -32 -17 -47 -31 -14 -13 -31 -24 -38 -24 -14 0
-105 -88 -105 -102 0 -5 -5 -14 -10 -21 -6 -7 -24 -28 -40 -47 -16 -19 -30
-41 -30 -49 0 -18 -53 -84 -112 -139 -26 -25 -48 -51 -48 -58 0 -18 -47 -64
-65 -64 -8 0 -15 -4 -15 -10 0 -5 -7 -18 -16 -27 -45 -51 -64 -80 -64 -100 0
-16 -6 -23 -20 -23 -13 0 -20 -7 -20 -18 0 -21 -40 -62 -61 -62 -14 -1 -60
-83 -59 -107 0 -7 -3 -13 -8 -13 -14 0 -45 -168 -39 -212 3 -24 8 -173 12
-333 4 -232 9 -294 20 -312 9 -13 14 -37 13 -54 -2 -20 3 -34 15 -40 9 -6 24
-22 32 -37 18 -34 99 -120 145 -154 19 -14 64 -38 100 -53 36 -15 72 -33 81
-41 9 -8 19 -11 22 -7 4 3 7 1 7 -5 0 -7 12 -12 28 -12 28 0 34 7 90 114 l25
48 -17 52 -18 52 -50 0 c-27 0 -52 4 -56 10 -12 15 -87 64 -101 64 -6 0 -39
18 -72 40 -33 22 -71 40 -85 40 -13 0 -24 6 -24 13 0 8 -9 22 -20 32 -24 22
-27 88 -6 137 8 18 19 52 25 75 6 23 18 49 26 57 8 8 15 26 15 40 0 14 7 51
16 83 9 32 22 91 27 131 6 39 15 72 19 72 4 0 9 24 10 53 1 35 2 42 5 20 5
-37 23 -45 23 -11 0 11 11 36 25 54 14 18 25 42 25 53 0 14 6 21 19 21 11 0
23 9 26 21 13 39 85 135 145 193 33 31 60 61 60 66 0 6 5 10 11 10 12 0 69 55
69 67 0 8 29 26 63 39 9 3 17 14 17 24 0 11 15 23 40 33 22 8 40 11 40 6 0 -5
6 -9 14 -9 8 0 17 -9 21 -19 3 -10 21 -35 39 -54 29 -31 34 -44 39 -105 4 -39
12 -83 17 -97 15 -38 12 -72 -10 -159 -12 -43 -25 -133 -30 -200 -13 -158 -65
-371 -100 -406 -7 -7 -68 -144 -102 -230 -18 -47 -29 -92 -29 -119 2 -73 -39
-179 -96 -249 -47 -57 -73 -129 -73 -199 0 -31 -4 -70 -10 -87 -5 -17 -16 -65
-24 -106 -34 -167 -55 -248 -80 -294 -15 -27 -24 -57 -21 -66 6 -17 -21 -80
-39 -92 -16 -11 23 -46 58 -52 15 -3 39 -12 53 -21 14 -9 37 -19 51 -21 62
-11 92 -27 112 -60 20 -32 21 -43 15 -167 -4 -72 -13 -175 -21 -227 -8 -52
-17 -142 -19 -200 -2 -58 -9 -127 -15 -155 -14 -60 -7 -417 16 -780 12 -190
13 -249 3 -283 -13 -47 -70 -112 -99 -112 -11 0 -21 -4 -24 -8 -3 -5 -30 -15
-61 -22 -45 -11 -67 -11 -124 0 -38 7 -84 10 -102 6 -42 -8 -79 -32 -79 -52 0
-21 66 -84 88 -84 10 0 22 -4 27 -9 19 -18 143 -41 217 -41 77 0 116 -13 161
-52 11 -9 45 -20 76 -23 31 -4 70 -10 87 -15 34 -8 64 7 64 33 0 23 11 47 22
47 5 0 21 -13 35 -30 13 -16 34 -30 44 -30 11 0 22 -7 26 -16 4 -10 8 -12 12
-5 5 8 13 6 27 -4 18 -14 18 -14 -11 -15 -55 0 -11 -18 70 -28 44 -5 116 -19
159 -31 71 -19 105 -21 342 -21 250 0 264 1 274 19 15 29 13 35 -24 77 l-34
38 -74 -2 c-60 -2 -78 2 -98 17 -83 65 -122 91 -135 91 -8 0 -24 8 -34 17 -10
10 -35 29 -54 43 -53 37 -75 145 -46 217 60 146 73 177 107 243 17 35 32 71
32 80 0 9 12 36 28 61 35 56 52 95 52 119 0 10 4 20 8 22 10 4 72 129 72 146
0 6 5 12 10 12 6 0 10 6 10 13 0 18 24 67 33 67 4 0 7 9 7 19 0 11 7 32 15 48
8 15 27 61 42 101 15 39 30 72 35 72 4 0 8 11 8 25 0 36 22 85 54 118 14 15
26 34 26 42 0 8 4 16 8 19 18 11 64 147 58 171 -4 14 -2 25 4 25 6 0 10 31 10
75 0 57 6 87 24 129 13 29 27 68 31 85 4 17 10 31 13 31 147 11 252 29 253 43
4 35 -4 248 -16 432 -11 180 -11 213 1 232 8 12 14 32 14 43 0 12 7 28 15 36
8 9 15 22 15 29 0 7 -7 20 -15 29 -22 21 -22 241 0 233 23 -9 27 7 37 146 5
72 12 134 17 137 11 7 45 284 47 380 0 41 -3 107 -9 145 -14 101 -16 129 -22
454 -3 162 -9 297 -14 300 -5 4 -10 75 -13 159 -2 92 -8 156 -15 160 -5 4 -19
42 -29 84 -12 50 -24 78 -33 78 -14 0 -51 42 -63 72 -5 12 -3 18 7 18 8 0 18
7 23 16 12 22 3 54 -14 54 -10 0 -13 7 -8 25 4 18 3 25 -7 23 -7 -2 -19 17
-28 47 -14 44 -34 86 -70 152 -20 36 -61 130 -61 141 0 6 -4 12 -10 14 -14 5
-70 169 -70 208 0 19 -7 55 -16 80 -44 128 -139 309 -161 310 -6 0 -14 8 -17
18 -4 9 -33 41 -66 71 -33 29 -60 59 -60 67 0 7 -9 16 -20 19 -11 3 -20 10
-20 13 0 8 -62 27 -110 35 -14 2 -45 0 -70 -4z m270 -355 c0 -8 -4 -12 -10 -9
-5 3 -10 13 -10 21 0 8 5 12 10 9 6 -3 10 -13 10 -21z m38 -49 c27 -59 5 -166
-32 -152 -19 8 -30 61 -17 86 6 11 11 33 11 49 0 48 20 57 38 17z m386 -1951
c3 -9 6 -47 6 -85 0 -52 -3 -69 -14 -69 -18 0 -26 31 -26 108 0 46 3 62 14 62
8 0 17 -7 20 -16z m-714 -2083 c0 -5 25 -12 55 -16 30 -3 56 -9 58 -13 7 -13
-12 -367 -22 -421 -6 -30 -24 -77 -41 -104 -16 -26 -30 -51 -30 -53 0 -3 -7
-12 -15 -21 -9 -8 -19 -28 -22 -44 -3 -16 -9 -29 -12 -29 -4 0 -18 -24 -31
-52 -13 -29 -34 -66 -46 -83 -12 -16 -25 -47 -29 -67 -4 -21 -11 -38 -16 -38
-5 0 -9 -9 -9 -21 0 -12 -6 -35 -14 -52 -22 -50 -36 -98 -36 -124 0 -13 -4
-31 -10 -41 -5 -9 -21 -63 -35 -119 -13 -56 -40 -148 -59 -205 -19 -56 -46
-147 -61 -202 -15 -54 -35 -113 -46 -130 -10 -17 -22 -38 -25 -46 -4 -8 -23
-42 -43 -74 l-36 -59 -5 34 c-3 19 -3 64 0 102 4 52 2 71 -9 82 -13 13 -12 18
8 39 20 22 25 44 38 163 8 76 21 170 28 208 22 107 34 225 40 390 7 179 25
375 36 375 8 0 20 62 20 105 0 16 4 32 9 35 5 3 11 21 12 40 2 19 9 41 16 48
8 9 12 45 12 102 0 71 3 91 16 98 12 7 16 25 16 83 0 42 2 80 6 85 4 5 30 11
57 11 28 1 82 6 120 11 101 13 105 13 105 3z"/>
</g>
</svg>
