<?xml version="1.0" standalone="no"?>
<!DOCTYPE svg PUBLIC "-//W3C//DTD SVG 20010904//EN"
 "http://www.w3.org/TR/2001/REC-SVG-20010904/DTD/svg10.dtd">
<svg version="1.0" xmlns="http://www.w3.org/2000/svg"
 width="1280.000000pt" height="720.000000pt" viewBox="0 0 1280.000000 720.000000"
 preserveAspectRatio="xMidYMid meet">
<metadata>
Created by potrace 1.16, written by Peter Selinger 2001-2019
</metadata>
<g transform="translate(0.000000,720.000000) scale(0.100000,-0.100000)"
fill="#000000" stroke="none">
<path d="M6315 7156 c-118 -18 -132 -30 -155 -139 -7 -36 -16 -57 -25 -57 -8
0 -20 -18 -26 -40 -7 -22 -16 -40 -21 -40 -4 0 -8 -9 -8 -19 0 -11 -5 -21 -11
-23 -15 -5 -28 -78 -29 -157 0 -35 -7 -90 -16 -124 -8 -33 -25 -119 -36 -191
-11 -72 -24 -158 -29 -190 -5 -33 -20 -82 -33 -110 -30 -65 -115 -166 -139
-166 -11 0 -21 -8 -24 -19 -3 -12 -11 -17 -23 -14 -11 3 -30 -7 -49 -26 -17
-17 -36 -31 -41 -31 -13 0 -130 -121 -130 -135 0 -7 -9 -20 -20 -30 -11 -10
-20 -23 -20 -29 0 -6 -9 -22 -20 -36 -11 -14 -20 -33 -20 -42 0 -10 -6 -18
-13 -18 -12 0 -28 -24 -43 -62 -3 -10 -12 -18 -18 -18 -15 0 -86 -72 -86 -86
0 -6 -9 -19 -20 -29 -11 -10 -20 -24 -20 -32 0 -7 -7 -13 -15 -13 -8 0 -15 -4
-15 -8 0 -5 -8 -18 -17 -30 -10 -11 -25 -30 -33 -42 -8 -12 -21 -28 -27 -36
-7 -7 -13 -24 -13 -38 0 -14 -4 -26 -10 -26 -21 0 -65 -59 -114 -151 -28 -54
-75 -138 -103 -188 -29 -50 -53 -95 -53 -101 0 -5 -9 -24 -20 -42 -11 -18 -20
-40 -20 -49 0 -9 -7 -30 -16 -48 -9 -18 -22 -58 -29 -89 -13 -58 -30 -112 -46
-144 -5 -10 -9 -25 -9 -33 0 -8 -4 -15 -10 -15 -23 0 -6 -221 19 -240 13 -11
34 -77 39 -123 3 -40 8 -50 29 -58 14 -5 37 -18 51 -29 14 -12 40 -20 61 -20
20 0 58 -7 85 -15 105 -32 133 -18 157 78 19 78 7 93 -85 102 -83 7 -104 19
-54 30 l32 7 -25 14 c-13 7 -39 13 -57 14 -33 0 -62 18 -62 38 0 6 -18 27 -40
48 -37 35 -40 42 -40 93 0 43 5 61 26 88 14 18 31 33 39 33 7 0 18 12 24 28
12 33 45 72 60 72 6 0 11 8 11 18 0 9 19 38 43 64 67 74 77 87 77 102 0 8 12
25 28 38 15 13 36 40 46 61 11 20 25 37 33 37 7 0 13 5 13 10 0 6 12 10 28 10
21 0 39 14 82 67 30 36 61 78 68 92 7 14 23 41 37 60 17 23 25 47 25 76 0 45
2 48 125 178 35 37 66 67 70 67 3 0 24 18 47 40 23 22 50 42 60 46 21 6 58
-12 58 -30 0 -7 8 -20 19 -30 13 -12 20 -37 25 -89 4 -39 11 -88 16 -108 7
-24 7 -61 1 -103 -6 -45 -6 -75 1 -94 9 -23 7 -47 -11 -118 -23 -91 -51 -278
-51 -347 0 -22 -14 -69 -35 -113 -19 -41 -35 -79 -35 -84 0 -6 -4 -10 -9 -10
-5 0 -19 -33 -31 -72 -13 -40 -26 -77 -30 -83 -4 -5 -15 -41 -24 -80 -34 -147
-73 -262 -100 -295 -17 -21 -31 -53 -62 -145 -15 -44 -35 -91 -45 -105 -9 -14
-25 -50 -34 -80 -9 -30 -34 -92 -56 -137 -21 -46 -39 -91 -39 -100 0 -10 -7
-31 -15 -46 -8 -16 -20 -47 -26 -70 -36 -134 -36 -142 -2 -155 115 -45 163
-61 196 -65 62 -9 67 -18 67 -118 0 -53 -4 -89 -10 -89 -12 0 -14 -97 -2 -104
11 -7 -6 -197 -21 -221 -17 -29 -27 -489 -15 -765 23 -546 23 -533 -1 -584
-18 -35 -28 -46 -46 -46 -13 0 -26 -4 -29 -9 -6 -10 -50 -20 -189 -47 -81 -15
-89 -15 -106 0 -32 29 -75 38 -123 26 -77 -21 -99 -60 -55 -100 53 -50 215
-110 296 -110 58 0 220 -41 251 -63 14 -10 18 -17 11 -17 -8 0 -11 -3 -7 -7
13 -13 136 -31 213 -32 l72 -1 7 60 c7 62 24 83 24 30 0 -61 75 -99 215 -107
64 -3 89 -10 137 -34 10 -5 24 -9 32 -9 7 0 24 -9 38 -20 14 -10 54 -24 89
-29 68 -12 417 -15 443 -5 28 11 20 63 -15 95 -37 35 -67 44 -119 35 -44 -7
-103 18 -155 66 -16 15 -35 28 -42 28 -6 0 -25 11 -41 25 -17 14 -34 25 -39
25 -5 0 -15 9 -23 20 -8 11 -19 20 -25 20 -16 0 -45 81 -45 126 0 23 6 54 14
70 36 75 106 255 106 272 0 7 3 12 8 12 7 0 32 47 32 62 0 4 13 29 28 55 15
26 41 82 56 123 16 41 32 77 36 80 4 3 13 22 21 43 7 20 17 37 21 37 4 0 8 6
8 13 0 17 53 141 62 145 5 2 8 13 8 24 0 11 6 32 14 46 8 15 22 47 31 72 9 25
21 53 26 62 5 10 9 26 9 36 0 10 13 36 30 58 16 21 30 45 30 52 0 6 5 12 10
12 6 0 10 7 10 16 0 9 18 34 40 55 41 40 53 82 25 92 -11 5 -13 18 -8 59 3 29
10 55 15 56 4 2 8 23 8 47 0 41 51 175 77 203 6 6 27 12 47 12 19 0 70 5 112
11 l76 12 -6 71 c-3 39 -9 191 -12 337 -6 240 -5 266 10 272 9 4 16 17 16 30
0 13 5 28 11 34 7 7 13 59 14 125 2 62 8 126 14 141 6 16 11 47 11 70 0 50 44
387 65 502 12 65 12 108 4 230 -5 83 -14 172 -18 200 -5 27 -7 53 -4 58 2 4
-1 14 -7 22 -10 11 -10 15 -1 15 7 0 9 5 5 11 -4 7 -10 143 -15 303 -11 411
-41 611 -99 666 -9 8 -27 28 -40 44 l-25 28 42 -4 c36 -3 40 -1 32 14 -5 9 -9
26 -9 38 0 11 -9 30 -20 42 -12 13 -19 34 -18 54 1 24 -6 40 -25 58 -14 13
-31 43 -38 66 -7 23 -19 44 -26 47 -7 3 -13 11 -13 19 0 13 -18 52 -30 64 -12
12 -30 51 -30 65 0 8 -4 15 -9 15 -15 0 -72 137 -101 243 -56 205 -132 357
-214 426 -10 9 -49 46 -86 83 -65 63 -75 69 -163 92 -7 2 -48 -2 -92 -8z m312
-356 c11 0 33 -79 33 -119 0 -42 -17 -81 -35 -81 -9 0 -20 12 -25 26 -14 35
-13 94 1 94 11 0 9 26 -6 90 -6 23 -5 24 8 8 8 -10 18 -18 24 -18z m414 -2094
c10 -57 14 -124 11 -162 -4 -56 -7 -64 -25 -64 -18 0 -19 5 -13 68 4 44 1 97
-9 155 -8 49 -13 93 -9 98 15 26 30 -6 45 -95z m-851 -1999 c0 -10 28 -14 112
-15 62 -1 116 -6 121 -11 20 -20 19 -130 -3 -262 -12 -74 -26 -143 -30 -154
-5 -11 -19 -53 -31 -93 -12 -40 -36 -94 -53 -119 -60 -91 -65 -98 -65 -115 -1
-10 -5 -18 -9 -18 -25 0 -92 -182 -151 -410 -36 -139 -49 -188 -81 -297 -12
-40 -23 -81 -44 -154 -32 -116 -75 -215 -148 -334 -10 -16 -18 -41 -19 -55
l-1 -25 -7 25 c-11 37 -14 290 -3 290 5 0 12 39 16 88 3 48 11 112 16 142 37
204 52 370 57 615 3 191 9 273 20 308 14 44 32 63 34 35 0 -7 7 1 15 17 10 22
13 71 13 176 -1 84 4 155 9 166 6 11 13 52 16 93 3 40 8 76 11 79 3 3 37 7 76
9 50 3 69 8 69 18 0 9 11 14 30 14 18 0 30 -5 30 -13z"/>
</g>
</svg>
