<?xml version="1.0" standalone="no"?>
<!DOCTYPE svg PUBLIC "-//W3C//DTD SVG 20010904//EN"
 "http://www.w3.org/TR/2001/REC-SVG-20010904/DTD/svg10.dtd">
<svg version="1.0" xmlns="http://www.w3.org/2000/svg"
 width="1280.000000pt" height="720.000000pt" viewBox="0 0 1280.000000 720.000000"
 preserveAspectRatio="xMidYMid meet">
<metadata>
Created by potrace 1.16, written by Peter Selinger 2001-2019
</metadata>
<g transform="translate(0.000000,720.000000) scale(0.100000,-0.100000)"
fill="#000000" stroke="none">
<path d="M6193 7043 c-25 -5 -55 -49 -77 -112 -8 -22 -24 -51 -36 -63 -11 -13
-23 -33 -26 -45 -4 -13 -10 -23 -15 -23 -5 0 -9 -6 -9 -14 0 -7 -7 -19 -15
-26 -8 -7 -15 -22 -15 -34 0 -12 -4 -26 -8 -31 -5 -6 -19 -44 -31 -85 -13 -41
-35 -115 -51 -165 -15 -49 -34 -116 -41 -148 -7 -32 -16 -60 -21 -63 -4 -3 -8
-21 -8 -40 0 -19 -4 -34 -8 -34 -5 0 -14 -18 -21 -40 -6 -22 -15 -40 -19 -40
-15 0 -34 -72 -29 -108 3 -21 3 -29 1 -19 -8 25 -23 21 -30 -8 -3 -14 -10 -25
-15 -25 -5 0 -9 -16 -9 -35 0 -20 -7 -52 -15 -72 -9 -20 -13 -46 -10 -57 3
-12 2 -15 -1 -8 -11 24 -24 11 -24 -24 0 -20 -9 -49 -21 -65 -11 -16 -32 -57
-47 -92 -27 -62 -27 -64 -25 -285 2 -179 -1 -233 -13 -270 -27 -80 -97 -236
-116 -256 -10 -11 -18 -25 -18 -31 0 -7 -9 -20 -20 -30 -11 -10 -20 -24 -20
-32 0 -15 -20 -53 -36 -68 -13 -12 -88 -113 -127 -171 -30 -44 -71 -84 -87
-84 -6 0 -10 -7 -10 -15 0 -8 -18 -25 -40 -37 -22 -13 -40 -29 -40 -35 0 -7
-11 -13 -25 -13 -14 0 -25 -4 -25 -9 0 -17 -29 -20 -44 -6 -8 8 -19 15 -23 15
-5 0 -18 8 -29 18 -10 10 -27 21 -36 25 -10 3 -18 13 -18 22 0 8 -9 15 -19 15
-11 0 -21 5 -23 11 -2 7 -32 8 -93 3 -50 -4 -84 -9 -77 -11 22 -8 13 -20 -27
-33 -55 -18 -58 -42 -13 -86 63 -62 77 -74 88 -74 5 0 34 -16 64 -36 l55 -36
82 7 c46 4 83 11 83 16 0 5 18 9 39 9 22 0 42 4 45 8 3 5 30 14 60 21 30 7 60
19 66 27 7 7 23 14 36 14 12 0 26 5 29 10 3 6 15 10 25 10 10 0 20 3 22 8 2 4
37 27 78 51 41 25 82 52 90 60 22 23 128 101 137 101 9 0 11 4 62 109 18 38
40 72 47 75 8 3 14 17 14 31 0 14 6 25 14 25 8 0 15 17 19 49 3 27 15 66 26
87 12 21 21 51 21 66 0 22 5 28 21 28 20 0 21 -4 15 -42 -4 -23 -16 -62 -26
-86 -11 -25 -20 -61 -20 -80 0 -46 -27 -156 -51 -206 -11 -23 -19 -62 -19 -91
0 -28 -5 -56 -11 -62 -6 -6 -19 -42 -29 -79 -11 -38 -27 -89 -36 -114 -29 -81
-35 -169 -39 -555 -3 -376 -14 -507 -47 -594 -6 -16 -7 -75 -3 -151 6 -111 4
-132 -14 -189 -12 -35 -19 -67 -16 -70 7 -7 100 -18 218 -27 83 -6 89 -9 98
-32 11 -30 10 -205 -1 -212 -5 -3 -10 -30 -12 -60 -4 -51 -33 -131 -50 -138
-5 -2 -8 -10 -8 -19 0 -8 -6 -21 -12 -28 -26 -29 -34 -40 -41 -57 -3 -10 -11
-18 -17 -18 -5 0 -10 -9 -10 -20 0 -11 -4 -20 -8 -20 -5 0 -15 -18 -22 -40 -7
-22 -17 -40 -22 -40 -4 0 -8 -9 -8 -20 0 -11 -4 -20 -9 -20 -10 0 -11 -5 -40
-146 -11 -55 -25 -114 -32 -130 -14 -37 -25 -117 -44 -322 -10 -116 -21 -177
-35 -209 -11 -25 -20 -50 -20 -55 0 -6 -16 -43 -35 -84 -46 -97 -46 -125 5
-176 22 -23 40 -48 40 -57 0 -29 48 -88 98 -120 l49 -31 189 -7 c168 -5 191
-4 203 11 7 9 26 16 42 16 27 0 29 3 29 36 0 31 -4 37 -37 50 -58 23 -103 48
-103 56 0 5 -9 8 -19 8 -11 0 -22 8 -25 18 -3 9 -23 28 -45 41 -39 24 -49 44
-66 131 -4 19 -11 40 -14 45 -15 20 1 226 19 250 4 6 11 26 15 45 7 33 34 99
45 110 9 9 27 53 51 120 12 36 26 69 31 75 4 5 8 18 8 29 0 24 31 96 42 96 4
0 8 8 8 18 0 20 76 171 93 187 13 11 33 46 79 135 16 30 32 57 36 60 5 3 19
28 31 55 21 43 24 70 28 185 2 74 8 162 13 195 6 33 10 77 10 98 l0 37 84 0
c70 0 85 -3 91 -17 4 -10 10 -101 13 -203 4 -175 6 -187 30 -230 14 -25 31
-56 38 -70 18 -33 18 -90 1 -90 -15 0 -13 -165 4 -325 5 -49 14 -142 19 -205
5 -63 14 -146 20 -185 26 -173 31 -249 19 -314 -8 -42 -10 -118 -6 -218 3 -90
2 -153 -4 -153 -5 0 -9 -10 -9 -23 0 -13 -6 -29 -12 -36 -10 -11 -10 -14 0
-18 7 -3 12 -22 12 -44 0 -28 4 -39 15 -39 8 0 15 -6 15 -14 0 -29 111 -36
180 -11 23 8 51 15 62 15 11 0 44 12 74 26 l54 25 0 49 c0 47 -1 48 -40 64
-28 11 -40 22 -40 36 0 11 -4 20 -10 20 -5 0 -10 6 -10 14 0 8 -5 16 -12 18
-8 3 -13 44 -15 124 -2 65 -9 129 -16 142 -8 17 -8 28 0 41 6 9 14 50 17 91 9
100 26 210 36 235 5 11 13 63 19 115 35 321 37 480 5 555 -8 19 -14 57 -14 85
0 29 -5 50 -11 50 -7 0 -8 28 -4 89 5 57 4 91 -3 95 -9 5 -7 203 3 232 2 7 41
15 89 19 73 6 86 9 86 25 0 23 15 34 65 50 22 7 43 15 47 19 17 16 -32 488
-77 746 -7 44 -19 139 -25 210 -17 203 -27 279 -55 430 -14 77 -30 175 -36
219 -5 43 -16 99 -24 125 -23 73 -35 202 -35 381 0 193 6 242 28 238 10 -2 27
-47 53 -146 21 -82 55 -179 78 -226 37 -76 62 -162 81 -281 10 -64 36 -139 50
-143 5 -2 10 -12 10 -22 0 -10 7 -20 15 -24 8 -3 15 -12 15 -21 0 -10 10 -15
31 -15 l31 0 -6 178 c-14 386 -16 423 -31 464 -8 24 -15 69 -15 101 0 31 -4
57 -10 57 -5 0 -10 25 -10 55 0 30 -4 55 -10 55 -6 0 -10 28 -10 65 0 37 -4
65 -10 65 -6 0 -10 39 -10 98 0 138 -19 363 -31 378 -6 7 -8 17 -5 22 9 16
-63 142 -81 142 -7 0 -13 5 -13 11 0 6 -11 25 -24 42 -14 19 -27 53 -31 82
-11 87 -16 105 -30 105 -8 0 -16 17 -20 40 -4 25 -12 40 -21 40 -8 0 -14 7
-14 16 0 8 -11 32 -25 52 -14 20 -25 41 -25 45 0 5 -6 23 -14 40 -14 33 -32
114 -46 202 -14 91 -23 125 -30 125 -4 0 -11 15 -14 34 -4 19 -13 39 -21 46
-8 7 -15 18 -15 25 0 25 -55 135 -67 135 -7 0 -13 7 -13 16 0 18 -59 104 -72
104 -4 0 -8 6 -8 13 0 6 -21 32 -46 56 -32 31 -58 46 -87 52 -43 8 -195 10
-234 2z m420 -336 c33 -68 59 -218 39 -225 -7 -2 -12 -21 -12 -43 0 -27 -4
-39 -14 -39 -8 0 -16 -3 -19 -7 -2 -5 -2 -2 -1 4 2 7 -3 31 -11 54 -18 49 -20
115 -4 125 20 12 -1 117 -39 187 -2 5 4 7 14 5 12 -2 30 -26 47 -61z m-13
-372 c0 -8 -4 -15 -10 -15 -5 0 -7 7 -4 15 4 8 8 15 10 15 2 0 4 -7 4 -15z"/>
<path d="M7280 4003 c0 -23 8 -32 40 -47 22 -11 40 -23 40 -28 0 -4 18 -8 39
-8 22 0 43 -4 46 -10 3 -5 40 -10 81 -10 66 0 74 2 74 19 0 20 -3 21 -102 41
-38 7 -58 16 -58 26 0 10 -12 14 -39 14 -22 0 -41 4 -43 9 -1 4 -20 11 -40 15
-37 7 -38 6 -38 -21z"/>
</g>
</svg>
