<?xml version="1.0" standalone="no"?>
<!DOCTYPE svg PUBLIC "-//W3C//DTD SVG 20010904//EN"
 "http://www.w3.org/TR/2001/REC-SVG-20010904/DTD/svg10.dtd">
<svg version="1.0" xmlns="http://www.w3.org/2000/svg"
 width="1280.000000pt" height="720.000000pt" viewBox="0 0 1280.000000 720.000000"
 preserveAspectRatio="xMidYMid meet">
<metadata>
Created by potrace 1.16, written by Peter Selinger 2001-2019
</metadata>
<g transform="translate(0.000000,720.000000) scale(0.100000,-0.100000)"
fill="#000000" stroke="none">
<path d="M6319 7196 c-2 -3 -37 -12 -78 -20 -49 -10 -79 -22 -92 -37 -20 -23
-39 -79 -39 -116 0 -12 -6 -26 -13 -30 -8 -4 -22 -30 -32 -58 -11 -27 -22 -52
-25 -55 -24 -21 -72 -142 -103 -260 -8 -30 -18 -108 -21 -173 -4 -65 -11 -128
-15 -140 -5 -12 -15 -48 -22 -80 -7 -31 -18 -62 -26 -68 -7 -6 -13 -27 -13
-45 0 -23 -5 -34 -14 -34 -9 0 -17 -16 -21 -42 -12 -82 -17 -98 -28 -98 -8 0
-13 -28 -15 -86 -3 -75 -6 -89 -28 -113 -13 -14 -27 -34 -30 -43 -3 -10 -10
-18 -15 -18 -5 0 -9 -9 -9 -20 0 -12 -7 -31 -14 -43 -21 -31 -65 -243 -66
-309 0 -16 -4 -28 -8 -28 -5 0 -14 -23 -20 -50 -7 -28 -21 -69 -32 -92 -11
-23 -20 -47 -20 -53 0 -7 -9 -20 -20 -30 -11 -10 -20 -26 -20 -36 0 -10 -22
-54 -50 -99 -27 -45 -50 -85 -50 -88 0 -8 -50 -86 -79 -124 -12 -14 -21 -36
-21 -47 0 -12 -6 -21 -15 -21 -8 0 -15 -5 -15 -10 0 -6 -13 -24 -30 -41 -16
-17 -32 -40 -35 -50 -4 -11 -10 -19 -15 -19 -11 0 -50 -77 -50 -97 0 -8 -7
-16 -15 -19 -8 -4 -15 -13 -15 -21 0 -7 -11 -25 -25 -39 -14 -14 -25 -27 -25
-30 0 -12 -56 -74 -67 -74 -7 0 -13 -9 -13 -20 0 -11 -8 -29 -17 -39 -53 -57
-63 -70 -63 -80 0 -6 -8 -15 -17 -18 -10 -4 -24 -13 -31 -20 -18 -17 -32 -16
-32 2 0 11 -11 15 -38 15 -21 0 -43 5 -49 11 -19 19 -173 16 -207 -3 -25 -15
-27 -18 -13 -24 25 -9 42 -43 28 -57 -13 -13 -15 -87 -3 -87 14 0 34 -92 22
-104 -14 -14 -12 -26 5 -26 8 0 15 4 15 9 0 18 157 31 193 16 12 -5 17 -2 17
9 0 10 9 16 25 16 16 0 25 -6 25 -15 0 -23 105 -21 125 3 49 56 75 91 75 101
0 6 -13 11 -30 11 -44 0 -37 19 10 26 22 4 40 12 40 19 0 13 53 75 64 75 4 0
22 16 40 35 19 19 39 35 45 35 6 0 11 7 11 15 0 8 6 15 13 15 14 1 67 45 67
58 0 10 55 52 70 52 5 0 10 5 10 11 0 11 24 39 34 39 14 0 46 42 46 60 0 14 7
20 21 20 25 0 139 116 139 141 0 11 4 19 8 19 4 0 13 14 19 31 7 17 43 88 81
157 39 71 84 171 103 227 18 55 36 108 41 117 4 10 8 25 8 33 0 29 19 15 25
-18 9 -47 -20 -293 -44 -374 -11 -37 -27 -102 -36 -143 -9 -41 -25 -95 -36
-119 -10 -24 -19 -48 -19 -54 0 -6 -8 -29 -19 -51 -99 -218 -113 -273 -105
-407 5 -82 3 -117 -9 -155 -19 -60 -33 -119 -67 -287 -6 -32 -25 -89 -41 -128
-17 -39 -48 -121 -70 -182 -22 -62 -46 -125 -54 -142 -7 -16 -17 -43 -20 -60
-4 -16 -15 -54 -26 -83 l-19 -52 43 -20 c23 -11 69 -28 102 -39 33 -11 98 -34
145 -50 47 -17 97 -31 112 -31 62 0 69 -24 47 -160 -7 -45 -7 -66 0 -68 13 -4
16 -222 4 -222 -5 0 -8 -38 -9 -84 0 -79 -2 -86 -41 -147 -22 -35 -42 -75 -46
-89 -3 -14 -13 -50 -22 -80 -9 -30 -19 -68 -22 -85 -3 -16 -10 -33 -16 -36 -5
-4 -13 -51 -18 -105 -5 -55 -11 -110 -15 -124 -4 -14 -6 -152 -5 -307 1 -193
-2 -295 -10 -325 -6 -24 -13 -79 -14 -123 -1 -53 -8 -91 -19 -112 -13 -24 -16
-48 -13 -95 7 -84 9 -93 37 -123 20 -21 33 -25 80 -25 31 0 78 -6 103 -14 51
-15 186 -20 290 -10 l67 7 0 38 c0 22 4 39 8 39 14 0 52 90 52 124 0 33 -1 34
-47 38 -66 7 -192 68 -218 105 -19 27 -48 178 -46 238 3 92 45 295 62 295 4 0
9 19 12 43 8 64 19 111 26 117 4 3 12 37 18 75 25 154 48 245 92 365 18 47 34
93 38 103 3 9 9 17 14 17 4 0 14 18 20 40 7 22 16 40 21 40 4 0 8 7 8 15 0 8
18 32 40 53 46 43 64 108 36 131 -20 17 -20 67 2 231 14 103 20 125 35 128 16
3 17 -9 17 -147 0 -181 15 -300 40 -322 9 -8 21 -26 24 -40 4 -13 16 -42 26
-64 10 -22 26 -62 36 -90 9 -27 20 -52 23 -55 3 -3 15 -39 25 -80 10 -41 22
-77 25 -80 10 -7 39 -136 55 -242 8 -51 31 -158 52 -238 36 -139 38 -152 38
-308 0 -101 -4 -166 -11 -170 -5 -4 -13 -20 -17 -35 -3 -15 -15 -35 -26 -45
-11 -9 -20 -24 -20 -33 0 -18 -40 -49 -62 -49 -13 0 -29 -24 -44 -62 -4 -11
-17 -18 -31 -18 -32 0 -103 -72 -103 -105 0 -13 8 -28 18 -33 30 -16 389 -26
424 -11 25 10 31 10 39 -2 6 -10 9 -11 9 -1 0 7 16 22 35 33 24 14 35 28 35
44 0 18 4 22 20 18 14 -4 23 2 32 23 7 16 16 31 20 34 4 3 11 25 17 49 8 37 6
51 -13 95 -13 28 -26 78 -30 111 -4 33 -13 69 -20 80 -10 16 -10 64 2 269 11
190 12 269 4 330 -6 45 -16 138 -22 208 -6 71 -17 140 -25 155 -8 15 -15 35
-15 43 0 8 -11 36 -25 62 -14 26 -25 63 -25 83 0 28 -4 35 -19 35 -13 0 -20 9
-24 32 -2 18 -1 35 4 36 12 5 12 35 0 47 -32 36 -53 308 -31 400 l13 55 54 0
c36 0 55 4 59 14 4 10 43 17 137 26 73 7 140 17 149 21 20 11 23 67 17 324 -8
311 -5 430 10 459 8 14 17 26 21 26 11 0 90 78 90 88 0 5 7 16 17 23 9 8 22
29 30 47 7 17 17 32 22 32 5 0 12 11 15 25 4 14 11 25 16 25 5 0 13 18 16 40
4 22 10 40 15 40 5 0 9 18 9 40 0 22 4 40 8 40 8 0 22 153 27 285 1 28 8 70
15 95 10 36 10 73 1 189 -7 80 -16 152 -21 161 -5 8 -8 44 -9 79 0 35 -4 67
-9 70 -6 3 -13 41 -17 84 -4 42 -11 77 -15 77 -9 0 -28 89 -36 173 -4 37 -10
67 -14 67 -13 0 -28 80 -45 235 -14 126 -23 168 -58 264 -25 71 -37 116 -31
118 6 2 19 9 29 17 16 11 16 14 1 28 -9 9 -16 23 -16 31 0 8 -11 18 -25 21
-14 4 -25 14 -25 23 0 9 -11 31 -25 49 -14 18 -25 37 -25 43 0 6 -6 8 -14 5
-15 -6 -48 34 -40 48 8 12 -18 78 -31 79 -13 0 -82 108 -97 151 -6 18 -16 40
-23 48 -7 8 -20 33 -30 55 -9 22 -21 48 -26 57 -5 10 -9 25 -9 35 0 9 -4 30
-9 47 -5 17 -15 60 -21 96 -6 36 -16 67 -21 68 -5 2 -9 13 -9 25 0 30 -53 137
-67 137 -7 0 -13 9 -13 20 0 10 -15 35 -32 53 -56 58 -128 140 -128 146 -1 13
-52 54 -97 77 -43 21 -130 33 -144 20z m300 -337 c48 -73 79 -207 52 -223 -5
-3 -12 -22 -15 -42 l-7 -35 -22 27 c-30 38 -50 135 -31 150 19 15 17 44 -6 99
-38 88 -22 101 29 24z m441 -1710 c0 -10 5 -19 10 -19 6 0 10 -15 10 -34 0
-44 9 -66 26 -66 8 0 14 -7 14 -16 0 -9 9 -29 20 -44 25 -35 48 -160 57 -300
3 -58 10 -108 16 -111 5 -4 10 -44 11 -90 2 -82 31 -275 47 -314 4 -11 10 -42
13 -70 3 -27 9 -76 12 -107 4 -40 3 -58 -5 -58 -6 0 -11 -6 -11 -14 0 -7 -27
-27 -59 -45 -33 -17 -62 -37 -65 -44 -8 -19 -36 22 -36 52 0 14 -6 60 -14 101
-8 41 -17 127 -21 190 -4 63 -13 137 -21 164 -8 27 -14 69 -14 92 0 24 -7 65
-16 91 -15 43 -16 66 -5 218 9 126 10 201 2 293 -9 93 -8 127 1 141 14 23 28
18 28 -10z"/>
<path d="M7100 6070 c0 -5 5 -10 10 -10 6 0 10 5 10 10 0 6 -4 10 -10 10 -5 0
-10 -4 -10 -10z"/>
<path d="M4481 3774 c0 -11 3 -14 6 -6 3 7 2 16 -1 19 -3 4 -6 -2 -5 -13z"/>
</g>
</svg>
