<?xml version="1.0" standalone="no"?>
<!DOCTYPE svg PUBLIC "-//W3C//DTD SVG 20010904//EN"
 "http://www.w3.org/TR/2001/REC-SVG-20010904/DTD/svg10.dtd">
<svg version="1.0" xmlns="http://www.w3.org/2000/svg"
 width="1280.000000pt" height="720.000000pt" viewBox="0 0 1280.000000 720.000000"
 preserveAspectRatio="xMidYMid meet">
<metadata>
Created by potrace 1.16, written by Peter Selinger 2001-2019
</metadata>
<g transform="translate(0.000000,720.000000) scale(0.100000,-0.100000)"
fill="#000000" stroke="none">
<path d="M6265 7015 c-5 -2 -38 -9 -72 -16 -58 -12 -64 -16 -74 -47 -6 -18
-17 -36 -25 -39 -8 -3 -14 -11 -14 -19 0 -8 -3 -14 -8 -14 -4 0 -16 -17 -27
-37 -11 -21 -23 -40 -27 -43 -11 -8 -38 -90 -52 -155 -7 -33 -20 -77 -29 -98
-9 -21 -22 -89 -28 -150 -12 -119 -65 -317 -85 -317 -7 0 -14 -10 -18 -23 -3
-12 -14 -32 -25 -43 -29 -31 -53 -83 -49 -106 5 -37 23 -30 36 14 7 22 20 50
28 62 14 20 14 20 14 -4 0 -14 -12 -43 -25 -65 -14 -22 -25 -48 -25 -57 0 -10
-4 -18 -8 -18 -5 0 -14 -12 -20 -26 -9 -18 -17 -24 -31 -19 -14 4 -21 -2 -29
-22 -6 -16 -22 -57 -35 -93 -66 -173 -75 -217 -81 -385 -5 -158 -12 -207 -43
-274 -8 -19 -24 -79 -34 -135 -35 -183 -42 -210 -68 -268 -14 -32 -31 -57 -37
-58 -7 0 -14 -15 -17 -32 -5 -33 -22 -88 -39 -121 -4 -9 -9 -41 -9 -70 -2 -84
-11 -97 -64 -97 -34 0 -45 -4 -45 -16 0 -12 -10 -15 -42 -13 -73 3 -111 -9
-136 -45 -18 -26 -34 -36 -80 -46 -83 -20 -93 -48 -23 -69 23 -7 41 -19 44
-30 3 -14 20 -22 63 -31 136 -29 262 -29 245 -1 -9 14 8 41 25 41 4 0 17 10
30 23 12 12 43 38 68 57 25 19 45 39 45 43 1 12 54 56 69 57 6 0 12 4 12 9 0
6 14 25 30 43 17 18 30 37 30 42 0 5 9 17 21 27 11 10 36 39 56 66 l35 48 -7
-60 c-4 -33 -11 -68 -16 -77 -5 -9 -9 -28 -9 -42 0 -14 -3 -26 -8 -26 -14 0
-81 -230 -82 -282 0 -15 -5 -30 -10 -33 -14 -9 -4 -118 28 -305 24 -142 26
-179 27 -445 0 -266 -2 -298 -22 -389 -33 -143 -37 -132 62 -141 47 -4 88 -12
92 -17 14 -23 20 -304 9 -373 -8 -45 -56 -168 -68 -173 -5 -2 -8 -12 -8 -23 0
-10 -4 -19 -9 -19 -5 0 -17 -26 -27 -57 -10 -32 -23 -67 -30 -78 -6 -11 -17
-63 -22 -115 -26 -224 -31 -319 -22 -430 4 -63 6 -151 4 -195 -5 -79 -28 -180
-44 -190 -4 -3 -6 -13 -3 -23 2 -10 -5 -45 -16 -77 -25 -71 -25 -78 -6 -118
19 -43 34 -199 20 -221 -13 -22 21 -49 84 -64 58 -15 333 -14 384 0 34 10 37
14 37 50 0 27 -4 38 -15 38 -8 0 -15 4 -15 9 0 13 -59 41 -87 41 -14 0 -23 6
-23 15 0 8 7 15 15 15 8 0 15 9 15 20 0 11 -4 20 -9 20 -4 0 -20 11 -34 24
-30 28 -43 74 -53 191 -4 44 -10 87 -14 95 -7 13 2 88 30 245 9 54 29 114 60
178 11 23 20 55 20 71 0 17 9 63 21 101 12 39 26 94 31 123 5 28 14 52 19 52
5 0 9 9 9 20 0 11 4 28 9 38 5 9 19 42 32 72 13 30 27 56 32 58 4 2 7 15 7 28
0 13 4 24 8 24 20 0 72 129 82 201 6 42 15 92 20 110 6 19 10 48 10 66 0 17 9
69 20 115 11 46 20 102 20 126 0 42 1 43 28 38 15 -3 58 -10 97 -16 38 -6 74
-15 81 -21 7 -6 14 -80 18 -212 4 -111 14 -257 22 -325 12 -99 13 -140 4 -205
-9 -60 -9 -138 -1 -287 23 -444 24 -522 6 -589 -19 -74 -13 -182 16 -282 13
-44 19 -98 19 -162 0 -69 5 -106 16 -131 l17 -34 121 5 c124 5 173 14 214 40
19 12 22 20 17 46 -10 48 -32 77 -58 77 -28 0 -67 69 -67 117 0 17 -7 44 -15
59 -8 16 -15 37 -15 47 0 9 -4 17 -8 17 -4 0 -14 20 -21 44 -23 78 -10 167 70
501 17 72 35 173 40 226 4 57 17 117 30 150 21 52 21 62 13 254 -10 230 -6
579 7 612 5 15 17 23 31 23 13 0 53 7 91 16 58 15 67 20 67 40 0 37 11 54 35
54 37 0 47 22 40 87 -11 90 -42 241 -65 313 -23 71 -39 270 -40 509 l0 134 33
-7 c23 -4 28 -3 17 4 -13 8 -12 10 3 10 10 0 17 8 17 18 0 13 -12 22 -40 31
-30 9 -40 17 -40 32 0 12 -8 28 -19 37 -14 13 -17 27 -14 65 4 31 10 47 19 47
11 0 14 18 14 80 0 60 3 80 13 80 8 0 22 18 32 40 10 22 22 40 27 40 4 0 8 11
8 24 0 14 11 33 26 45 25 20 26 23 30 163 2 79 8 172 14 208 10 63 7 109 -20
385 -5 50 -6 205 -3 345 l6 256 -26 48 c-14 26 -44 67 -66 91 -23 24 -41 47
-41 52 0 4 -12 22 -28 38 -15 17 -36 47 -47 68 -11 20 -22 37 -25 37 -3 0 -11
15 -18 33 -7 17 -19 45 -27 60 -8 16 -15 39 -15 52 0 13 -4 26 -9 29 -19 12
-71 224 -71 290 0 77 -88 304 -158 406 -9 14 -26 40 -37 58 -11 17 -25 32 -32
32 -6 0 -13 4 -15 8 -8 21 -108 45 -193 48 -49 2 -94 1 -100 -1z m319 -208
c36 -35 76 -152 75 -217 0 -44 -20 -122 -36 -141 -6 -8 -11 -29 -11 -47 1 -37
-11 -57 -13 -21 -1 13 -3 47 -4 74 -1 28 -6 80 -10 118 -7 60 -6 67 10 67 13
0 16 5 11 23 -4 12 -13 45 -21 72 -7 28 -17 58 -20 68 -8 20 1 22 19 4z m339
-1949 c4 -73 15 -196 27 -273 24 -168 24 -165 6 -165 -19 0 -24 16 -36 118 -6
48 -13 94 -15 102 -2 8 -9 70 -16 138 -12 131 -6 212 15 212 10 0 15 -35 19
-132z"/>
<path d="M6628 3 c12 -2 32 -2 45 0 12 2 2 4 -23 4 -25 0 -35 -2 -22 -4z"/>
</g>
</svg>
