<?xml version="1.0" standalone="no"?>
<!DOCTYPE svg PUBLIC "-//W3C//DTD SVG 20010904//EN"
 "http://www.w3.org/TR/2001/REC-SVG-20010904/DTD/svg10.dtd">
<svg version="1.0" xmlns="http://www.w3.org/2000/svg"
 width="1280.000000pt" height="720.000000pt" viewBox="0 0 1280.000000 720.000000"
 preserveAspectRatio="xMidYMid meet">
<metadata>
Created by potrace 1.16, written by Peter Selinger 2001-2019
</metadata>
<g transform="translate(0.000000,720.000000) scale(0.100000,-0.100000)"
fill="#000000" stroke="none">
<path d="M6278 6971 c-52 -7 -80 -33 -99 -91 -7 -19 -25 -47 -40 -61 -16 -14
-29 -35 -29 -46 0 -11 -7 -26 -15 -33 -8 -7 -15 -18 -15 -25 0 -6 -9 -20 -20
-30 -11 -10 -20 -23 -20 -29 0 -6 -9 -22 -20 -36 -11 -14 -20 -33 -20 -42 0
-10 -7 -18 -15 -18 -9 0 -15 -9 -15 -22 0 -13 -14 -52 -31 -88 -29 -62 -41
-105 -79 -295 -19 -92 -50 -178 -69 -189 -6 -4 -11 -16 -11 -27 0 -10 -4 -19
-10 -19 -5 0 -10 -10 -10 -23 0 -12 -6 -31 -14 -42 -7 -11 -19 -37 -25 -57 -7
-21 -16 -38 -21 -38 -5 0 -12 -17 -16 -37 -4 -21 -11 -41 -17 -44 -5 -4 -7
-15 -3 -24 6 -16 8 -16 31 -1 32 21 35 21 35 -11 0 -14 -11 -41 -25 -59 -14
-18 -25 -40 -25 -48 0 -9 -4 -16 -9 -16 -5 0 -17 -24 -27 -52 -14 -41 -17 -78
-15 -158 2 -58 3 -132 4 -165 0 -85 -19 -283 -33 -329 -7 -22 -10 -52 -8 -68
3 -16 1 -31 -4 -34 -4 -3 -8 -34 -8 -69 0 -61 -30 -153 -52 -163 -5 -2 -8 -10
-8 -19 0 -8 -7 -21 -15 -29 -8 -8 -19 -34 -25 -57 -6 -23 -18 -55 -26 -70 -8
-16 -14 -41 -14 -56 0 -16 -16 -75 -36 -132 -23 -65 -38 -129 -41 -172 -5 -66
-6 -68 -34 -74 -19 -4 -36 -18 -51 -42 -12 -20 -36 -54 -53 -76 -17 -22 -34
-48 -38 -58 -3 -9 -24 -41 -45 -70 -67 -91 -89 -192 -60 -274 14 -39 55 -56
70 -29 5 9 22 16 38 16 25 0 35 9 66 58 20 31 39 59 43 62 3 3 6 12 6 20 0 16
56 36 79 27 9 -4 16 -16 16 -27 0 -11 4 -20 9 -20 16 0 23 20 12 34 -8 10 -6
17 8 30 11 10 22 37 26 59 11 76 40 167 52 167 7 0 13 8 13 19 0 10 7 36 16
57 9 22 16 61 15 87 0 34 4 49 14 53 8 4 15 12 15 20 0 8 5 14 10 14 6 0 10 5
10 10 0 6 15 28 34 48 19 20 45 51 57 67 13 17 29 36 36 43 7 7 13 19 13 27 0
7 3 15 8 17 10 4 44 96 50 136 3 23 9 32 23 32 24 0 24 -20 0 -131 -19 -84
-114 -324 -137 -344 -18 -16 -33 -71 -39 -143 -6 -71 -22 -177 -56 -382 -11
-69 -25 -156 -30 -193 -5 -38 -12 -73 -15 -79 -4 -6 -10 -54 -14 -107 -14
-171 -33 -314 -50 -382 -14 -55 -14 -69 -4 -84 7 -10 15 -22 16 -26 5 -15 102
-28 214 -29 60 -1 132 -6 160 -12 l51 -11 6 -81 c4 -44 11 -116 17 -160 9 -67
9 -81 -5 -96 -8 -9 -15 -29 -15 -44 0 -30 -53 -141 -73 -153 -8 -4 -22 -24
-33 -43 -10 -19 -27 -42 -36 -51 -10 -9 -18 -20 -18 -24 0 -4 -17 -35 -38 -69
-22 -34 -42 -78 -46 -98 -4 -21 -11 -38 -15 -38 -5 0 -11 -12 -13 -28 -8 -47
-52 -207 -59 -212 -6 -5 -32 -146 -44 -240 -10 -80 -49 -235 -61 -248 -13 -12
-44 -109 -44 -135 0 -8 -15 -37 -33 -63 -34 -50 -55 -114 -37 -114 6 0 9 -18
8 -40 -1 -22 -5 -40 -10 -40 -4 0 -8 -6 -8 -12 1 -15 62 -48 90 -48 10 0 22
-4 25 -10 3 -5 14 -10 25 -10 10 0 20 -6 23 -14 9 -22 60 -29 253 -33 l181 -4
12 28 c24 61 18 110 -16 126 -36 16 -44 21 -115 90 l-60 58 -2 92 c-1 87 20
217 35 217 3 0 9 17 13 38 3 20 13 50 21 66 8 15 15 35 15 42 0 8 4 14 9 14 5
0 21 24 35 54 14 30 31 58 36 61 6 3 10 15 10 26 0 10 4 19 9 19 5 0 12 13 16
30 4 16 11 32 16 35 5 4 9 15 9 26 0 18 18 58 31 69 3 3 12 22 20 43 7 20 17
37 21 37 4 0 8 7 8 15 0 14 18 53 30 65 5 5 15 23 44 75 6 11 16 24 22 30 6 5
20 26 30 45 11 18 36 59 57 89 20 30 37 60 37 68 0 7 5 13 10 13 6 0 10 8 10
18 0 9 7 26 15 36 16 21 65 165 65 191 0 18 5 19 31 5 11 -7 19 -22 19 -38 1
-15 7 -38 15 -52 8 -14 14 -35 15 -46 0 -12 7 -35 15 -50 8 -16 15 -36 15 -44
0 -9 4 -20 9 -25 18 -21 42 -119 52 -217 6 -57 17 -133 25 -169 8 -36 21 -110
29 -165 9 -54 28 -146 43 -204 25 -97 27 -118 25 -274 -2 -175 -15 -274 -38
-282 -7 -3 -21 -21 -30 -40 -9 -19 -27 -39 -41 -44 -22 -9 -24 -15 -24 -74 l0
-64 33 -6 c17 -3 63 1 102 9 38 8 106 15 150 15 69 0 86 4 116 25 20 13 39 22
42 19 13 -13 17 39 6 76 -9 28 -18 40 -31 40 -14 0 -18 8 -18 40 0 22 5 40 10
40 14 0 13 166 -1 193 -7 12 -18 26 -26 30 -11 7 -11 11 2 23 10 10 15 35 15
73 0 32 9 123 20 202 21 158 22 451 1 541 -6 27 -10 51 -9 55 3 12 -14 77 -21
83 -3 3 -12 23 -18 45 -6 22 -21 67 -32 99 -16 44 -21 83 -21 158 0 81 -3 98
-15 98 -13 0 -14 17 -9 118 4 64 10 119 15 122 4 3 9 19 12 35 4 23 5 20 4
-10 l-2 -40 45 1 c58 1 133 36 191 90 46 42 47 42 107 37 55 -5 61 -4 72 17
16 29 8 554 -9 620 -6 25 -16 68 -22 95 -9 45 -38 138 -59 190 -48 120 -70
187 -70 213 0 16 -6 33 -12 36 -7 3 -2 3 12 0 13 -4 38 -22 55 -42 47 -54 76
-62 234 -62 78 0 172 -5 211 -12 60 -10 74 -10 95 2 13 8 25 20 25 25 1 6 20
15 43 20 22 6 42 15 44 20 1 6 -17 19 -42 30 -25 11 -45 23 -45 27 0 5 -8 8
-17 8 -10 0 -31 7 -47 15 -51 27 -156 14 -156 -20 0 -8 -4 -15 -10 -15 -5 0
-10 5 -10 10 0 6 -19 10 -43 10 -24 0 -52 7 -63 15 -11 9 -42 14 -76 15 -45 0
-58 3 -58 15 0 8 -6 15 -12 15 -11 0 -42 95 -65 200 -3 14 -11 30 -18 35 -6 6
-18 41 -26 79 -7 38 -19 75 -26 81 -18 19 -23 346 -5 352 14 5 17 83 2 83 -5
0 -10 11 -10 25 0 14 -4 25 -10 25 -5 0 -10 18 -10 40 0 22 5 40 10 40 6 0 10
59 10 156 0 125 3 158 15 170 8 9 15 26 15 39 0 13 4 26 9 29 13 8 33 119 35
188 0 55 -17 123 -35 138 -4 3 -9 15 -13 28 -4 12 -12 22 -17 22 -5 0 -9 7 -9
15 0 8 -6 24 -12 35 -10 16 -10 24 0 40 7 11 8 20 2 20 -5 0 -7 7 -3 16 3 8 1
25 -5 37 -5 12 -14 65 -20 117 -10 98 -27 150 -47 150 -6 0 -18 18 -25 40 -7
22 -18 40 -24 40 -6 1 -19 17 -30 38 -50 100 -59 117 -67 120 -5 2 -9 18 -9
37 0 18 -7 52 -16 76 -9 24 -22 69 -30 99 -18 66 -36 110 -46 110 -5 0 -8 6
-8 14 0 21 -38 102 -55 116 -8 7 -15 18 -15 26 0 20 -43 83 -57 84 -7 0 -13 9
-13 20 0 11 -3 20 -8 20 -4 0 -16 16 -26 35 -45 83 -166 118 -328 96z m371
-313 c41 -102 52 -139 57 -195 5 -44 3 -63 -5 -63 -6 0 -11 -17 -11 -40 0 -22
-4 -40 -9 -40 -5 0 -11 -9 -14 -20 -10 -40 -24 -19 -23 37 0 36 -4 58 -12 61
-18 6 -15 87 3 102 21 17 19 37 -10 114 -30 79 -29 76 -7 76 11 0 23 -13 31
-32z m-2 -440 c-3 -8 -6 -5 -6 6 -1 11 2 17 5 13 3 -3 4 -12 1 -19z m-1202
-2617 c-3 -6 -14 -10 -23 -10 -15 1 -15 2 1 6 9 2 17 9 17 15 0 6 3 9 6 5 3
-3 3 -10 -1 -16z m-325 -121 c0 -5 -4 -10 -10 -10 -5 0 -10 5 -10 10 0 6 5 10
10 10 6 0 10 -4 10 -10z m1780 -905 c0 -8 -4 -15 -10 -15 -5 0 -10 7 -10 15 0
8 5 15 10 15 6 0 10 -7 10 -15z"/>
</g>
</svg>
