<?xml version="1.0" standalone="no"?>
<!DOCTYPE svg PUBLIC "-//W3C//DTD SVG 20010904//EN"
 "http://www.w3.org/TR/2001/REC-SVG-20010904/DTD/svg10.dtd">
<svg version="1.0" xmlns="http://www.w3.org/2000/svg"
 width="1280.000000pt" height="720.000000pt" viewBox="0 0 1280.000000 720.000000"
 preserveAspectRatio="xMidYMid meet">
<metadata>
Created by potrace 1.16, written by Peter Selinger 2001-2019
</metadata>
<g transform="translate(0.000000,720.000000) scale(0.100000,-0.100000)"
fill="#000000" stroke="none">
<path d="M6305 7175 c-5 -1 -35 -8 -67 -14 -61 -13 -87 -31 -106 -75 -9 -21
-18 -27 -32 -23 -16 4 -21 -2 -26 -30 -4 -19 -21 -50 -40 -70 -18 -19 -36 -44
-40 -55 -3 -11 -15 -31 -27 -44 -23 -27 -47 -88 -47 -121 0 -13 -3 -23 -8 -23
-20 0 -44 -109 -51 -243 -8 -129 -26 -216 -50 -237 -10 -9 -31 -49 -31 -60 0
-6 -11 -23 -25 -38 -14 -15 -25 -33 -25 -40 0 -7 -6 -20 -12 -27 -32 -35 -38
-45 -38 -60 0 -8 -6 -15 -13 -15 -9 0 -12 -11 -9 -35 2 -19 8 -35 13 -35 5 0
9 -13 9 -29 0 -20 -12 -42 -35 -68 -20 -21 -65 -81 -100 -133 -35 -52 -73
-106 -84 -120 -12 -14 -21 -31 -21 -38 0 -7 -13 -27 -30 -45 -16 -18 -30 -36
-30 -42 0 -5 -14 -19 -30 -30 -17 -11 -42 -37 -56 -57 -15 -21 -35 -40 -46
-44 -10 -3 -63 -50 -118 -104 -88 -88 -175 -150 -210 -150 -14 0 -133 -46
-181 -70 -20 -10 -85 -28 -145 -40 -60 -12 -113 -25 -118 -31 -6 -5 -24 -9
-42 -9 -17 0 -49 -6 -71 -14 -43 -15 -203 -20 -203 -7 0 5 -8 11 -19 14 -17 4
-42 38 -57 80 -3 9 -13 17 -20 17 -8 0 -14 3 -14 8 0 13 -84 96 -125 124 -22
15 -52 38 -66 50 -32 29 -103 68 -123 68 -8 0 -18 -4 -21 -10 -9 -14 13 -50
30 -50 8 0 15 -6 15 -13 0 -7 9 -18 20 -25 11 -7 20 -19 20 -27 0 -8 9 -15 20
-15 13 0 20 -7 20 -20 0 -11 -7 -20 -15 -20 -8 0 -15 -2 -15 -5 0 -11 24 -55
30 -55 4 0 13 -12 19 -28 6 -15 35 -50 64 -78 111 -107 244 -174 349 -174 25
0 48 -4 50 -10 4 -12 104 -15 345 -12 155 2 194 5 207 17 8 8 21 15 29 15 22
0 181 62 185 72 2 4 10 8 18 8 23 0 148 64 163 84 7 10 28 24 46 32 40 16 125
92 125 111 0 16 49 62 68 63 6 0 12 9 12 20 0 11 7 20 15 20 8 0 20 9 27 20 7
11 18 20 25 20 7 0 13 6 13 14 0 8 9 17 19 21 11 3 23 15 26 26 4 10 13 19 21
19 8 0 14 5 14 10 0 6 8 18 19 29 10 10 20 23 22 28 2 6 16 13 31 17 22 5 31
1 44 -19 25 -38 26 -455 2 -535 -9 -30 -22 -80 -29 -110 -6 -30 -17 -68 -24
-85 -7 -16 -19 -52 -25 -80 -7 -27 -16 -54 -21 -60 -4 -5 -12 -26 -17 -45 -6
-19 -20 -60 -32 -90 -39 -96 -80 -271 -80 -339 0 -46 -7 -83 -27 -130 -19 -48
-28 -92 -33 -161 -5 -82 -12 -107 -47 -185 -31 -69 -42 -108 -46 -165 -4 -43
-17 -102 -32 -140 -17 -42 -23 -75 -19 -93 4 -19 1 -29 -10 -33 -37 -14 -50
-147 -17 -170 17 -12 18 -35 20 -276 2 -281 -6 -367 -41 -438 -29 -60 -42
-233 -34 -445 10 -241 6 -705 -5 -750 -14 -54 -35 -85 -58 -85 -11 0 -21 -5
-23 -11 -5 -16 -72 -28 -196 -35 -107 -7 -114 -6 -160 18 -61 33 -131 42 -160
22 -30 -21 -28 -37 9 -73 63 -64 195 -137 289 -161 124 -31 231 -73 276 -107
17 -12 45 -23 62 -23 21 0 32 -6 37 -19 3 -12 19 -21 43 -25 69 -11 93 -7 114
19 11 14 25 25 33 25 18 0 27 83 23 241 -1 74 1 139 4 145 7 10 19 79 39 219
12 80 34 209 53 310 8 39 14 84 15 100 0 17 5 74 11 129 13 131 13 373 0 378
-13 4 7 68 25 83 7 6 15 45 19 90 6 80 43 250 45 208 1 -13 5 -23 9 -23 11 0
46 186 38 199 -4 6 -2 18 3 28 5 10 17 41 27 68 22 65 44 97 60 91 7 -3 20 7
29 21 41 61 96 90 109 57 7 -17 5 -17 121 6 109 22 174 20 232 -7 60 -28 148
-44 161 -31 12 12 71 -58 78 -92 3 -14 9 -35 15 -48 5 -12 13 -51 19 -87 6
-36 22 -90 35 -120 14 -29 25 -66 25 -82 1 -15 7 -56 14 -89 7 -34 10 -68 6
-75 -4 -8 -10 -71 -13 -141 -3 -70 -11 -136 -16 -147 -18 -32 -25 -248 -13
-352 7 -52 19 -173 27 -269 9 -96 23 -238 31 -316 13 -125 13 -154 -1 -255
-17 -129 -20 -239 -6 -239 5 0 12 -8 16 -18 9 -31 51 -43 116 -36 60 7 139 47
139 70 0 21 145 64 216 64 87 1 267 44 298 72 6 4 18 8 28 8 10 0 18 5 18 10
0 6 6 10 13 10 21 0 67 54 67 78 0 30 -29 42 -99 42 -47 0 -61 -3 -61 -15 0
-21 -61 -29 -122 -16 -236 52 -258 62 -298 141 -23 46 -26 176 -9 395 5 72 12
165 14 208 2 42 9 103 14 135 6 31 13 145 16 252 2 107 10 222 17 255 12 60
14 264 4 497 -5 123 4 168 35 168 30 0 44 28 31 63 -6 18 -13 48 -16 67 -4 19
-20 109 -36 200 -57 308 -68 395 -79 620 -14 278 -32 490 -43 490 -4 0 -8 21
-8 48 0 26 -5 63 -10 82 -6 19 -17 76 -25 126 -8 49 -21 110 -29 135 -50 149
-54 254 -21 522 16 133 29 172 51 163 9 -3 19 -6 22 -6 4 0 23 -25 42 -55 19
-30 38 -55 43 -55 4 0 7 -5 7 -11 0 -11 57 -68 69 -70 3 0 26 -25 51 -54 25
-30 53 -57 63 -60 9 -4 17 -10 17 -15 0 -11 125 -111 160 -128 14 -7 61 -35
105 -62 109 -68 175 -100 206 -100 14 0 71 -11 125 -24 139 -34 222 -43 499
-56 155 -8 184 -7 212 7 19 8 38 24 44 35 5 10 27 25 47 33 20 9 46 26 57 40
11 14 39 46 62 72 24 27 43 55 43 64 0 9 7 19 15 23 8 3 15 14 15 24 0 10 10
38 21 63 29 59 36 109 15 109 -34 0 -156 -94 -156 -121 0 -5 -7 -9 -15 -9 -8
0 -15 -7 -15 -15 0 -8 -9 -20 -20 -27 -11 -7 -20 -18 -20 -25 0 -7 -6 -13 -14
-13 -8 0 -24 -13 -36 -30 -12 -16 -26 -30 -31 -30 -9 0 -37 -20 -69 -51 -21
-20 -90 -35 -90 -19 0 5 -17 10 -37 10 -22 0 -49 9 -63 20 -18 14 -41 20 -82
20 -50 0 -58 3 -58 19 0 15 -9 19 -55 23 -34 3 -62 12 -75 23 -16 14 -23 16
-29 7 -5 -9 -15 -9 -42 1 -18 6 -36 15 -39 19 -3 3 -31 16 -62 28 -32 12 -60
26 -63 31 -4 5 -19 9 -35 9 -16 0 -31 4 -35 10 -3 5 -33 19 -65 31 -33 12 -60
26 -60 30 0 5 -9 9 -20 9 -11 0 -23 7 -26 15 -4 8 -12 15 -19 15 -8 0 -15 10
-17 22 -2 13 -11 24 -21 26 -27 5 -57 38 -57 62 0 11 -7 20 -15 20 -18 0 -65
47 -65 65 0 8 -9 15 -19 15 -11 0 -22 8 -25 18 -3 9 -17 29 -31 44 -14 15 -28
42 -32 60 -3 18 -9 35 -12 38 -20 16 -41 64 -41 95 0 19 -4 35 -8 35 -5 0 -19
25 -31 55 -13 30 -27 55 -32 55 -5 0 -9 7 -9 15 0 8 -13 27 -28 42 -16 16 -35
43 -43 61 -8 19 -24 35 -36 38 -25 7 -31 29 -10 37 10 3 10 9 0 26 -7 11 -13
27 -13 35 0 7 -7 19 -15 26 -11 9 -15 32 -15 82 0 59 -5 79 -32 131 -18 34
-36 64 -40 65 -5 2 -8 9 -8 16 0 17 -24 66 -32 66 -3 0 -12 17 -19 38 -6 20
-15 39 -19 42 -7 5 -25 65 -39 130 -14 62 -55 185 -63 188 -4 2 -8 10 -8 18 0
21 -42 114 -52 114 -4 0 -8 4 -8 9 0 5 -25 50 -56 100 -43 70 -62 92 -83 96
-14 3 -53 15 -86 26 -52 17 -156 25 -190 14z m361 -355 c33 -98 37 -176 12
-235 -9 -22 -20 -53 -25 -70 -7 -27 -8 -26 -11 20 -1 28 -9 64 -17 82 -20 41
-19 99 0 107 8 3 15 16 15 28 0 26 -32 134 -43 144 -4 4 -7 13 -7 20 0 9 5 10
24 1 18 -9 31 -32 52 -97z"/>
</g>
</svg>
