<?xml version="1.0" standalone="no"?>
<!DOCTYPE svg PUBLIC "-//W3C//DTD SVG 20010904//EN"
 "http://www.w3.org/TR/2001/REC-SVG-20010904/DTD/svg10.dtd">
<svg version="1.0" xmlns="http://www.w3.org/2000/svg"
 width="1280.000000pt" height="720.000000pt" viewBox="0 0 1280.000000 720.000000"
 preserveAspectRatio="xMidYMid meet">
<metadata>
Created by potrace 1.16, written by Peter Selinger 2001-2019
</metadata>
<g transform="translate(0.000000,720.000000) scale(0.100000,-0.100000)"
fill="#000000" stroke="none">
<path d="M6365 7093 c-79 -10 -133 -25 -147 -42 -15 -18 -42 -85 -43 -106 0
-6 -10 -25 -23 -42 -12 -17 -22 -34 -22 -38 0 -3 -11 -30 -24 -58 -15 -33 -26
-78 -29 -122 -4 -63 -14 -101 -74 -260 -8 -22 -17 -62 -20 -90 -5 -57 -43
-175 -55 -175 -4 0 -8 -7 -8 -16 0 -8 -6 -22 -12 -29 -32 -35 -38 -45 -38 -60
0 -8 -14 -30 -31 -47 -17 -18 -33 -45 -36 -60 -3 -15 -9 -28 -14 -28 -5 0 -9
-9 -9 -19 0 -11 -5 -23 -10 -26 -6 -4 -9 -37 -8 -77 2 -53 0 -72 -11 -76 -7
-2 -22 -13 -32 -23 -11 -11 -23 -19 -29 -19 -5 0 -10 -5 -10 -12 0 -6 -7 -18
-15 -27 -37 -37 -75 -85 -75 -93 0 -5 -12 -35 -26 -66 -30 -65 -64 -159 -64
-178 0 -6 -13 -26 -30 -44 -16 -18 -30 -38 -30 -46 0 -8 -4 -14 -9 -14 -5 0
-20 -17 -32 -37 -13 -21 -27 -39 -31 -41 -4 -2 -8 -12 -8 -23 0 -10 -10 -29
-21 -40 -21 -21 -27 -21 -233 -15 -116 3 -376 9 -578 12 -203 3 -368 9 -368
13 0 3 -141 7 -313 8 -171 1 -430 5 -574 9 l-263 6 0 -186 0 -186 233 0 c127
0 288 5 357 10 69 5 259 13 423 16 264 6 297 6 297 -8 0 -12 17 -17 74 -23 73
-6 116 3 116 25 0 6 11 5 25 -2 14 -6 25 -17 25 -25 0 -9 13 -13 40 -13 22 0
40 5 40 10 0 13 397 14 402 1 4 -12 80 -17 96 -7 7 4 10 13 6 19 -3 7 2 3 10
-7 9 -11 16 -38 16 -60 1 -23 9 -81 20 -131 44 -209 56 -249 96 -346 13 -31
24 -59 24 -63 0 -3 11 -29 25 -58 15 -30 23 -60 19 -71 -4 -13 -2 -17 5 -13 6
4 11 1 11 -8 0 -8 3 -22 7 -31 5 -14 2 -16 -13 -12 -29 9 -327 13 -340 5 -6
-4 -14 -5 -18 -1 -10 11 -154 9 -169 -2 -10 -7 -14 -41 -16 -124 -1 -62 -6
-123 -12 -134 -8 -14 -8 -31 -1 -56 6 -20 9 -107 7 -193 -2 -129 0 -158 11
-158 8 0 14 9 14 20 0 13 10 24 25 30 14 5 36 21 49 35 21 23 26 24 39 11 10
-10 17 -12 25 -4 14 14 35 0 28 -19 -3 -8 -1 -23 5 -34 9 -17 7 -21 -9 -26
-11 -2 -25 -16 -31 -29 -6 -13 -17 -24 -26 -24 -8 0 -16 -4 -16 -10 -1 -5 -2
-14 -3 -19 -2 -18 -16 -24 -29 -13 -7 6 -23 9 -35 5 -18 -4 -22 -1 -22 16 0
12 -6 21 -15 21 -9 0 -15 -9 -15 -22 0 -13 -3 -34 -7 -47 -6 -24 -5 -24 45
-18 31 4 52 2 52 -4 0 -5 11 -2 25 7 13 8 28 13 34 10 5 -4 130 -7 277 -7 147
0 272 -3 279 -5 7 -3 10 -16 7 -31 l-5 -26 -136 7 c-75 3 -241 9 -369 12 -147
4 -235 11 -239 18 -7 10 -7 72 1 596 3 216 2 267 -4 190 -5 -58 -11 -202 -14
-320 -9 -364 -16 -494 -29 -502 -6 -4 -395 -4 -864 -1 l-853 6 0 -21 c0 -21 3
-22 137 -22 75 0 134 -3 131 -6 -4 -3 -65 -5 -137 -5 -125 1 -131 0 -131 -19
0 -18 7 -20 60 -20 l60 0 0 -30 0 -30 -60 0 c-53 0 -60 -2 -60 -20 0 -18 7
-20 58 -20 43 0 53 -3 42 -11 -11 -8 -12 -12 -2 -16 8 -3 12 -30 12 -84 l0
-79 -32 0 c-71 0 -78 -7 -78 -71 0 -48 3 -57 15 -53 8 4 15 1 15 -5 0 -6 -7
-11 -15 -11 -11 0 -15 -11 -15 -40 0 -36 3 -40 25 -40 25 0 25 -1 25 -80 0
-50 -4 -80 -11 -80 -6 0 -8 -9 -4 -22 5 -18 4 -20 -4 -8 -18 25 -31 -7 -31
-81 0 -66 0 -67 30 -73 22 -4 38 -18 58 -51 15 -25 30 -45 35 -45 4 0 17 16
28 35 20 34 39 46 39 25 0 -5 18 -10 40 -10 22 0 40 -4 40 -9 0 -5 8 -7 19 -4
10 3 24 21 31 44 13 39 30 53 30 24 0 -11 11 -15 40 -15 36 0 40 -2 40 -25 0
-17 5 -25 18 -25 9 0 23 -9 30 -20 20 -32 30 -24 48 40 17 61 34 75 53 43 10
-17 12 -17 25 0 20 25 34 21 41 -14 4 -17 13 -41 20 -55 l12 -24 15 22 c8 13
20 38 27 56 13 31 15 32 76 32 l62 0 18 -55 c20 -59 35 -71 35 -29 0 29 43 77
79 89 13 4 47 4 77 0 l54 -6 0 -40 c0 -28 4 -39 15 -39 8 0 15 7 15 15 0 8 11
26 25 40 32 31 84 34 103 5 17 -27 32 -25 32 5 l0 25 203 1 c262 2 418 -1 439
-7 9 -3 21 -19 28 -37 l11 -32 20 24 c10 13 19 30 19 38 0 13 10 15 50 11 39
-4 54 -11 71 -32 27 -34 39 -33 39 3 0 28 1 29 76 36 72 7 76 6 100 -20 l24
-26 23 23 c21 23 27 23 182 22 88 0 168 -4 178 -8 9 -5 25 -5 35 -1 28 13 60
16 66 7 5 -9 -24 -95 -37 -108 -4 -4 -7 -20 -7 -36 0 -17 -5 -28 -14 -28 -7 0
-22 -27 -34 -62 -11 -35 -29 -84 -41 -110 -56 -131 -85 -359 -86 -683 -1 -234
-3 -253 -23 -303 -12 -29 -22 -66 -22 -82 0 -17 -11 -53 -25 -80 -20 -40 -25
-64 -25 -125 0 -60 3 -75 15 -75 10 0 15 -11 16 -32 3 -66 5 -73 18 -101 8
-15 20 -27 28 -27 9 0 13 -13 13 -40 0 -22 5 -40 10 -40 6 0 10 -7 10 -15 0
-11 11 -15 40 -15 36 0 40 -2 40 -25 0 -14 -5 -25 -11 -25 -6 0 -20 -12 -31
-26 -11 -14 -26 -23 -34 -20 -24 9 -44 -23 -44 -70 l0 -44 220 0 220 0 0 40 0
40 -48 0 c-41 0 -53 5 -80 33 -18 18 -32 43 -32 55 0 21 42 72 60 72 6 0 10
18 10 40 0 39 1 40 36 40 31 0 35 2 24 14 -9 12 -7 17 9 28 12 7 21 22 21 33
0 10 7 39 17 63 l16 43 -28 29 c-16 17 -32 30 -37 30 -13 0 -48 39 -48 54 0 8
-5 18 -10 21 -6 3 -20 27 -32 53 -20 42 -22 62 -22 187 1 118 5 156 27 242 15
56 32 114 38 130 14 34 46 149 63 224 7 31 20 78 29 105 9 27 24 79 34 116 10
38 21 68 25 68 5 0 8 13 8 29 0 16 7 34 15 41 8 7 15 19 15 26 0 20 33 94 42
94 5 0 8 11 8 25 0 14 4 25 8 25 4 0 14 17 21 37 8 20 22 46 32 57 11 11 19
32 19 47 0 24 5 29 35 35 54 10 61 3 68 -71 7 -76 -1 -185 -14 -185 -5 0 -9
-16 -9 -35 0 -19 -4 -43 -9 -53 -11 -21 -43 -145 -49 -190 -2 -18 -8 -35 -13
-38 -5 -3 -9 -24 -9 -48 0 -45 -19 -189 -46 -341 -9 -49 -19 -143 -23 -208 -5
-65 -13 -123 -20 -130 -6 -6 -11 -24 -11 -39 0 -16 -6 -41 -14 -56 -26 -52
-36 -118 -27 -168 8 -39 6 -54 -5 -72 -10 -15 -12 -28 -6 -35 5 -7 12 -25 16
-40 5 -21 18 -33 49 -47 23 -10 34 -19 25 -19 -16 -1 -18 -14 -18 -121 0 -110
-2 -120 -19 -120 -15 0 -19 -11 -25 -61 -11 -110 -31 -99 179 -99 l185 0 0 80
0 80 -34 0 c-26 0 -43 10 -80 46 -25 26 -46 51 -46 55 0 5 18 9 40 9 29 0 40
4 40 15 0 11 11 15 40 15 22 0 40 4 40 10 0 5 18 13 40 16 22 4 40 10 40 15 0
4 16 13 36 19 19 7 38 18 41 26 3 8 13 14 24 14 24 0 39 29 39 75 0 32 -4 38
-35 51 -19 7 -50 14 -70 14 -19 0 -35 5 -35 10 0 6 -7 10 -15 10 -18 0 -65 47
-65 65 0 8 -7 15 -15 15 -8 0 -15 5 -15 11 0 6 -11 25 -25 43 -22 29 -25 43
-25 112 0 81 7 106 53 207 15 32 27 61 27 66 0 12 43 115 50 121 3 3 17 40 31
82 13 43 27 78 32 78 4 0 7 16 7 35 0 20 7 52 16 73 30 69 76 197 86 237 5 22
14 105 19 185 5 79 14 159 19 176 6 18 12 50 13 72 l1 39 66 7 c36 3 82 6 103
6 37 0 37 0 37 40 l0 40 -101 0 c-93 0 -100 1 -93 18 4 9 9 38 12 64 2 27 7
48 12 48 6 0 15 36 24 105 2 17 12 21 77 26 109 8 269 43 280 60 3 5 0 44 -7
87 -6 42 -20 157 -29 254 l-17 178 31 47 c17 25 31 56 31 67 0 12 7 30 15 40
8 11 15 30 15 42 0 13 4 26 10 29 10 6 2 65 -11 80 -5 5 -9 31 -9 57 0 26 -4
48 -10 48 -14 0 -12 78 2 82 8 3 11 58 11 199 -1 107 3 197 8 200 5 3 14 88
20 190 11 172 10 193 -10 324 -26 161 -43 488 -45 835 l-1 235 -30 55 c-16 30
-54 79 -83 109 -50 51 -52 54 -36 72 10 11 12 19 6 19 -16 0 -15 37 0 42 9 3
8 9 -5 22 -12 13 -17 34 -17 75 0 54 -21 138 -38 151 -4 3 -18 29 -31 58 -14
28 -28 52 -33 52 -4 0 -8 6 -8 13 0 7 -11 37 -25 65 -14 29 -31 79 -39 110 -7
32 -18 67 -23 77 -6 11 -18 45 -28 75 -10 30 -28 77 -40 105 -13 27 -29 65
-36 83 -8 17 -17 32 -21 32 -5 0 -8 6 -8 13 0 6 -12 26 -28 42 -15 17 -32 39
-38 50 -6 10 -19 23 -29 29 -10 6 -45 37 -78 69 -77 75 -140 101 -222 90z
m280 -377 c1 0 6 -14 13 -29 34 -79 -11 -207 -48 -138 -14 27 -13 88 2 93 16
6 14 68 -3 80 -10 6 -7 7 11 2 14 -3 25 -7 25 -8z m-801 -1547 c3 -17 5 -91 4
-163 -1 -72 -3 -112 -5 -88 -4 42 -4 42 -44 42 -21 0 -39 -4 -39 -10 0 -5 -18
-10 -40 -10 -33 0 -40 3 -40 20 0 11 7 20 15 20 8 0 15 -4 15 -10 0 -15 19
-12 36 4 16 17 19 66 4 66 -5 0 -10 -11 -10 -25 0 -16 -6 -25 -15 -25 -9 0
-15 9 -15 22 0 23 48 128 59 128 4 0 15 14 24 30 23 39 43 38 51 -1z m-1168
-361 c2 -3 2 -13 -2 -22 -6 -15 -18 -17 -82 -14 -75 3 -102 18 -71 40 14 9
145 6 155 -4z m44 -58 c0 -5 -4 -10 -10 -10 -5 0 -10 5 -10 10 0 6 5 10 10 10
6 0 10 -4 10 -10z m143 3 c-13 -2 -33 -2 -45 0 -13 2 -3 4 22 4 25 0 35 -2 23
-4z m257 -8 c0 -11 -11 -15 -40 -15 -22 0 -40 4 -40 9 0 6 -19 12 -42 14 -24
2 -6 4 40 5 67 2 82 -1 82 -13z m433 -22 c-7 -2 -19 -2 -25 0 -7 3 -2 5 12 5
14 0 19 -2 13 -5z m127 -13 c0 -17 7 -20 45 -20 36 0 45 3 45 18 1 15 2 15 12
-2 11 -19 11 -19 24 -1 12 17 14 13 14 -34 0 -51 -26 -176 -40 -196 -4 -5 -11
-28 -14 -50 -4 -22 -15 -58 -26 -80 -10 -22 -24 -55 -31 -72 -8 -18 -17 -33
-21 -33 -5 0 -8 -7 -8 -16 0 -9 -6 -30 -14 -47 -23 -52 -66 -203 -66 -231 0
-39 -15 -31 -29 14 -6 22 -16 40 -21 40 -6 0 -10 13 -10 30 0 16 -8 67 -19
112 -10 46 -26 137 -36 203 -9 66 -23 146 -31 178 -20 85 -19 147 4 147 9 0
26 7 36 15 11 8 39 15 63 15 32 0 43 4 43 15 0 11 11 15 40 15 33 0 40 -3 40
-20z m1357 -397 c-3 -10 -5 -4 -5 12 0 17 2 24 5 18 2 -7 2 -21 0 -30z m43
-209 c17 -87 37 -187 45 -221 17 -69 20 -149 6 -157 -4 -3 -11 25 -15 62 -7
70 -10 92 -51 313 -14 75 -25 144 -25 154 0 43 12 -1 40 -151z m-1920 -302 c0
-4 -12 -9 -27 -10 -15 -1 -30 -8 -35 -15 -5 -8 -8 -4 -8 11 0 19 5 22 35 22
19 0 35 -4 35 -8z m-26 -64 c5 -23 3 -28 -13 -28 -11 0 -23 5 -26 10 -3 6 1
10 9 10 10 0 16 9 16 22 0 27 5 21 14 -14z m-174 -18 c0 -5 -6 -10 -14 -10 -8
0 -18 5 -21 10 -3 6 3 10 14 10 12 0 21 -4 21 -10z m100 0 c0 -11 -14 -11 -50
0 -22 7 -21 8 13 9 20 1 37 -3 37 -9z m175 0 c-3 -5 -13 -10 -21 -10 -8 0 -14
5 -14 10 0 6 9 10 21 10 11 0 17 -4 14 -10z m102 -6 c-3 -3 -12 -4 -19 -1 -8
3 -5 6 6 6 11 1 17 -2 13 -5z m96 -1 c-7 -2 -19 -2 -25 0 -7 3 -2 5 12 5 14 0
19 -2 13 -5z m-100 -30 c-7 -2 -19 -2 -25 0 -7 3 -2 5 12 5 14 0 19 -2 13 -5z
m123 -79 c-6 -17 -62 -19 -72 -2 -5 8 -2 9 9 5 10 -4 17 -1 17 5 0 9 3 9 12 0
21 -21 28 -13 30 31 1 38 2 39 5 9 3 -19 2 -40 -1 -48z m-218 24 c19 -19 14
-28 -13 -28 -24 0 -34 18 -18 33 9 10 17 9 31 -5z m-108 -13 c0 -9 -9 -15 -22
-15 -21 0 -21 0 -2 15 24 18 24 18 24 0z m-80 -11 c0 -2 -9 -4 -21 -4 -11 0
-18 4 -14 10 5 8 35 3 35 -6z m310 -6 c0 -5 -18 -8 -40 -8 -22 0 -40 3 -40 8
0 4 18 7 40 7 22 0 40 -3 40 -7z m-268 -58 c-2 -16 -6 -30 -8 -30 -2 0 -4 14
-4 30 0 17 4 30 8 30 5 0 7 -13 4 -30z m348 11 c0 -11 -26 -22 -34 -14 -12 12
-5 23 14 23 11 0 20 -4 20 -9z m-202 -54 c3 -23 0 -27 -22 -27 -21 0 -26 5
-26 23 0 13 3 27 7 31 15 14 38 0 41 -27z m202 13 c0 -5 -4 -10 -10 -10 -5 0
-10 5 -10 10 0 6 5 10 10 10 6 0 10 -4 10 -10z m-500 -24 c0 -11 -19 -15 -25
-6 -3 5 1 10 9 10 9 0 16 -2 16 -4z m115 -6 c-3 -5 -15 -10 -26 -10 -10 0 -19
5 -19 10 0 6 12 10 26 10 14 0 23 -4 19 -10z m90 0 c-3 -5 -15 -10 -25 -10
-10 0 -22 5 -25 10 -4 6 7 10 25 10 18 0 29 -4 25 -10z m185 0 c0 -5 -7 -10
-15 -10 -8 0 -15 5 -15 10 0 6 7 10 15 10 8 0 15 -4 15 -10z m16 -137 c18 -24
17 -44 -1 -37 -11 5 -15 -1 -15 -20 0 -25 2 -26 39 -20 22 3 41 2 45 -4 10
-17 -61 -19 -95 -2 -27 13 -32 21 -33 58 -2 38 0 42 22 42 14 0 31 -8 38 -17z
m189 -33 c-5 -8 -11 -8 -17 -2 -6 6 -7 16 -3 22 5 8 11 8 17 2 6 -6 7 -16 3
-22z m-325 -16 c0 -8 -4 -14 -10 -14 -5 0 -10 9 -10 21 0 11 5 17 10 14 6 -3
10 -13 10 -21z m-1535 -269 c6 -2 -64 -3 -155 -2 -127 0 -145 2 -80 6 81 6
214 3 235 -4z m221 4 c3 -5 -33 -9 -80 -9 -47 0 -86 4 -86 9 0 11 159 11 166
0z m-616 -68 c0 -16 -9 -20 -50 -23 -28 -1 -52 1 -54 7 -8 25 8 35 55 35 42 0
49 -3 49 -19z m240 4 c0 -28 -34 -33 -182 -25 -5 0 -8 9 -8 20 0 19 7 20 95
20 77 0 95 -3 95 -15z m1872 -30 c-1 -22 -4 -105 -5 -185 l-2 -145 -35 1
c-109 1 -150 5 -150 14 0 6 37 11 88 12 l87 2 -82 3 -83 4 0 64 c0 78 7 100
26 84 10 -8 14 -8 14 0 0 6 11 8 29 5 34 -7 71 10 72 34 1 11 4 8 9 -8 7 -21
8 -19 9 18 1 35 -2 42 -18 42 -11 0 -22 4 -25 9 -6 9 -77 8 -94 -3 -14 -8 -29
61 -16 74 8 8 119 18 164 15 11 0 14 -11 12 -40z m106 18 c2 -12 -4 -37 -12
-55 -10 -20 -17 -72 -20 -135 -4 -89 -2 -104 12 -113 14 -7 11 -9 -15 -10
l-33 0 0 70 c0 38 6 91 13 117 10 37 10 47 0 50 -14 5 -18 84 -6 97 4 4 19 6
33 4 17 -2 26 -10 28 -25z m-1818 2 c0 -11 -12 -15 -42 -16 -70 -2 -85 2 -73
20 3 6 31 11 61 11 41 0 54 -4 54 -15z m215 0 c0 -12 -141 -23 -161 -12 -8 5
-12 13 -8 18 8 13 169 7 169 -6z m243 3 c-3 -9 -33 -13 -103 -13 -70 0 -100 4
-102 13 -4 9 21 12 102 12 81 0 106 -3 103 -12z m162 -33 c0 -53 -21 -61 -42
-17 -7 15 -23 28 -35 30 -12 2 -27 10 -33 18 -11 12 -3 14 49 14 l61 0 0 -45z
m700 20 c0 -14 -6 -28 -12 -30 -23 -8 -289 -26 -467 -31 -138 -4 -176 -3 -182
8 -10 16 -12 62 -2 71 3 4 154 7 335 7 l328 0 0 -25z m154 19 c9 -3 16 -18 16
-33 0 -25 -2 -26 -65 -29 l-65 -3 0 35 0 36 49 0 c27 0 56 -3 65 -6z m-1034
-109 c19 0 26 -107 10 -149 -10 -26 -12 -27 -82 -25 -114 3 -118 6 -118 86 0
38 4 73 8 78 4 6 36 12 72 14 36 1 67 4 69 6 2 3 9 1 15 -3 6 -3 18 -7 26 -7z
m-840 -85 l0 -78 -55 -4 -55 -3 0 72 c0 97 1 99 60 95 l50 -4 0 -78z m209 64
c15 9 24 -56 16 -110 -4 -32 -10 -43 -17 -36 -6 6 -17 8 -24 5 -9 -3 -14 2
-15 13 -1 16 -2 16 -6 2 -3 -12 -18 -17 -59 -20 -31 -1 -58 -1 -60 1 -7 8 -4
136 4 148 11 18 124 21 139 4 6 -7 16 -10 22 -7z m776 12 c16 -11 20 -30 23
-110 4 -91 3 -96 -16 -96 -13 0 -22 8 -24 22 -2 13 -12 22 -25 24 -22 4 -28
-5 -24 -33 1 -7 -3 -13 -9 -13 -10 0 -15 201 -5 211 10 11 63 8 80 -5z m-383
-10 c12 -17 9 -134 -2 -141 -6 -4 -43 -7 -83 -7 l-72 -1 -3 72 c-3 66 -1 72
20 81 30 12 131 9 140 -4z m-202 -70 l0 -74 -56 -4 c-45 -2 -58 0 -65 14 -10
18 -13 121 -4 130 3 3 32 6 65 7 l60 2 0 -75z m836 37 c118 1 124 2 125 21 2
19 2 19 6 -1 4 -23 33 -33 33 -13 0 6 10 2 22 -10 19 -18 36 -20 142 -22 67 0
127 -1 134 -1 9 1 12 -22 12 -83 0 -46 -4 -84 -9 -84 -5 0 -7 26 -4 58 6 69
-6 85 -64 79 l-38 -4 43 -1 42 -2 0 -54 0 -55 -35 6 c-23 4 -35 2 -35 -6 0 -6
17 -11 38 -12 30 0 33 -2 17 -9 -29 -12 -465 -12 -465 0 0 6 37 11 88 12 66 1
53 3 -58 7 -92 4 -148 2 -152 -4 -17 -22 -28 23 -26 100 3 68 6 80 19 77 10
-1 20 7 24 20 7 23 8 23 12 2 4 -20 10 -21 129 -21z m615 -35 c0 -7 0 -41 -1
-75 -1 -51 2 -63 14 -63 9 0 16 -4 16 -10 0 -6 -27 -10 -60 -10 -33 0 -60 4
-60 10 0 6 18 10 40 10 l40 0 0 45 0 45 -42 2 -43 1 43 4 c53 5 55 23 2 23
-29 0 -40 4 -40 15 0 19 90 22 91 3z m26 -30 c-3 -7 -5 -2 -5 12 0 14 2 19 5
13 2 -7 2 -19 0 -25z m367 -114 c28 -11 6 -24 -40 -24 -32 0 -44 4 -44 15 0
16 52 21 84 9z m86 -14 c8 -5 12 -12 9 -15 -8 -8 -39 5 -39 16 0 11 11 11 30
-1z m-1162 -7 c-10 -2 -26 -2 -35 0 -10 3 -2 5 17 5 19 0 27 -2 18 -5z m1988
-187 c-4 -78 -11 -145 -15 -149 -10 -10 -81 2 -81 13 0 5 7 10 15 12 13 2 16
26 19 132 3 134 8 149 48 138 20 -5 20 -10 14 -146z m-2307 79 c7 -37 -11
-204 -22 -207 -7 -3 -33 -3 -59 0 l-46 4 -7 73 c-4 40 -4 92 0 115 l7 42 61
-4 c51 -3 63 -7 66 -23z m138 -15 c13 0 15 -13 11 -83 -5 -90 -13 -116 -32
-97 -8 8 -7 13 4 20 12 7 12 12 2 22 -8 8 -12 40 -11 93 1 44 3 72 6 63 2 -10
11 -18 20 -18z m1517 8 c8 -32 7 -181 -2 -195 -9 -14 -140 -28 -176 -19 -40
10 -34 36 7 30 17 -3 59 -1 92 4 56 9 57 10 18 11 l-43 1 0 54 c0 40 -4 55
-16 60 -14 5 -13 9 2 35 14 24 26 31 58 34 23 2 44 4 47 5 4 1 9 -8 13 -20z
m-2199 2 c4 -6 11 -8 16 -4 5 3 23 2 40 -1 l31 -7 -7 -77 c-5 -42 -9 -85 -10
-96 -1 -17 -9 -20 -51 -20 l-49 0 -3 85 c-2 47 0 95 3 108 6 23 20 29 30 12z
m289 -6 c3 -9 6 -37 6 -62 0 -36 -5 -50 -20 -60 -13 -8 -20 -23 -20 -42 0 -28
-2 -30 -39 -30 -32 0 -40 4 -45 23 -8 29 -8 151 0 171 9 23 109 23 118 0z m96
6 c0 -5 -5 -10 -11 -10 -5 0 -7 5 -4 10 3 6 8 10 11 10 2 0 4 -4 4 -10z m1393
-4 c16 -12 17 -25 11 -110 l-7 -96 -83 0 -84 0 0 95 0 95 40 0 c25 0 40 -5 40
-12 0 -7 12 0 27 15 31 31 32 31 56 13z m168 -17 c4 -15 3 -58 -1 -95 -4 -46
-3 -71 4 -76 16 -11 -17 -20 -58 -16 -20 2 -36 6 -36 11 0 4 0 52 0 108 l0
100 42 -3 c35 -3 43 -7 49 -29z m329 16 c0 -8 -4 -15 -10 -15 -20 0 -10 -28
12 -34 18 -4 20 -8 10 -18 -17 -17 -15 -86 2 -104 8 -8 22 -14 30 -14 9 0 16
-4 16 -9 0 -9 -80 -25 -88 -17 -7 8 -12 187 -6 209 6 21 34 23 34 2z m-234
-70 c-9 -14 -16 -31 -14 -38 3 -18 -12 -57 -23 -57 -5 0 -10 26 -10 58 -2 107
3 119 37 87 26 -24 26 -26 10 -50z m-2212 43 c-4 -13 -7 -52 -6 -88 2 -62 -13
-111 -25 -82 -6 16 -23 15 -23 -2 0 -9 -7 -12 -20 -9 -16 4 -20 14 -20 45 0
35 2 39 15 28 13 -11 15 -8 15 19 0 23 -5 31 -17 32 -15 0 -15 2 2 8 12 5 23
4 27 -3 12 -17 9 3 -2 25 -6 10 -17 19 -25 19 -16 0 -20 12 -8 23 3 4 26 7 50
7 41 0 44 -1 37 -22z m1009 -105 c-3 -18 -9 -33 -14 -33 -5 0 -9 -7 -9 -15 0
-11 11 -15 41 -15 l41 0 -6 43 c-7 49 -7 127 0 139 3 4 50 8 105 8 l101 0 -7
-86 c-6 -68 -5 -88 6 -95 34 -21 39 -11 39 86 l0 95 35 0 c36 0 100 -27 135
-58 23 -19 29 -112 8 -112 -23 0 16 -20 40 -20 20 0 22 4 22 64 0 75 9 126 22
126 5 0 7 -43 6 -97 -3 -87 -5 -97 -23 -100 -47 -10 -327 -15 -480 -8 l-165 7
0 93 0 94 43 3 42 3 12 -45 c7 -25 10 -60 6 -77z m724 -11 l5 -63 -58 3 c-66
3 -68 6 -58 116 l6 62 39 0 c24 0 39 5 40 13 2 25 21 -70 26 -131z m-697 72
c0 -8 -4 -14 -10 -14 -5 0 -10 9 -10 21 0 11 5 17 10 14 6 -3 10 -13 10 -21z
m-570 -103 c0 -6 -4 -13 -10 -16 -5 -3 -10 1 -10 9 0 9 5 16 10 16 6 0 10 -4
10 -9z m2503 -1988 c-13 -2 -33 -2 -45 0 -13 2 -3 4 22 4 25 0 35 -2 23 -4z"/>
<path d="M4738 2743 c12 -2 32 -2 45 0 12 2 2 4 -23 4 -25 0 -35 -2 -22 -4z"/>
<path d="M4695 2630 c-4 -6 28 -10 89 -10 57 0 96 4 96 10 0 6 -36 10 -89 10
-50 0 -93 -4 -96 -10z"/>
<path d="M3600 2358 c-3 -26 -1 -43 3 -39 5 5 7 26 5 47 l-3 39 -5 -47z"/>
<path d="M3633 2360 c0 -25 2 -35 4 -22 2 12 2 32 0 45 -2 12 -4 2 -4 -23z"/>
<path d="M3335 2310 c4 -6 11 -8 16 -5 14 9 11 15 -7 15 -8 0 -12 -5 -9 -10z"/>
<path d="M3017 7033 c-4 -3 -7 -37 -7 -75 0 -52 4 -70 15 -74 8 -4 15 -12 15
-19 0 -8 11 -27 25 -43 14 -17 25 -35 25 -41 0 -6 6 -11 14 -11 8 0 16 -7 20
-15 6 -17 -2 -45 -14 -45 -20 0 -40 13 -40 26 0 8 -7 14 -15 14 -19 0 -19 -26
0 -34 8 -3 23 -21 32 -41 9 -19 23 -35 30 -35 7 0 13 -5 13 -11 0 -6 -6 -8
-12 -5 -7 3 -21 9 -30 12 -10 4 -18 13 -18 20 0 8 -7 17 -15 20 -8 4 -15 14
-15 23 -1 9 -7 27 -15 41 -13 23 -14 19 -15 -61 0 -81 2 -87 28 -111 24 -22
55 -57 131 -146 23 -27 64 -27 69 0 2 10 -9 33 -25 53 -21 26 -28 46 -28 78 0
23 -4 52 -8 65 -8 20 -5 22 22 22 20 0 34 -7 41 -20 6 -11 17 -20 25 -20 8 0
15 -8 15 -18 0 -22 72 -52 78 -33 2 6 11 11 19 11 12 0 14 7 9 31 -3 17 -6 35
-6 40 0 5 -6 9 -14 9 -20 0 -108 88 -96 95 6 3 10 16 10 28 -1 20 -2 21 -14 5
-10 -13 -15 -15 -24 -6 -7 7 -12 18 -12 25 0 7 -7 13 -15 13 -8 0 -15 5 -15
11 0 14 -55 69 -69 69 -6 0 -11 5 -11 12 0 6 -23 38 -52 71 -40 46 -48 61 -37
68 8 5 9 9 3 9 -6 0 -14 -3 -17 -7z m141 -315 c17 -17 15 -28 -6 -28 -24 0
-32 8 -25 26 6 17 15 18 31 2z"/>
<path d="M5760 6972 c0 -16 72 -32 92 -21 10 5 16 14 13 20 -8 11 -105 12
-105 1z"/>
<path d="M8593 6929 c-51 -19 -13 -41 53 -30 51 8 54 35 4 37 -19 1 -45 -2
-57 -7z"/>
<path d="M3040 6810 c0 -5 5 -10 10 -10 6 0 10 5 10 10 0 6 -4 10 -10 10 -5 0
-10 -4 -10 -10z"/>
<path d="M3202 6610 c0 -14 2 -19 5 -12 2 6 2 18 0 25 -3 6 -5 1 -5 -13z"/>
<path d="M9333 4963 c31 -2 83 -2 115 0 31 2 5 3 -58 3 -63 0 -89 -1 -57 -3z"/>
<path d="M7320 4925 c0 -22 -8 -43 -20 -55 -11 -11 -20 -33 -20 -48 l0 -29
378 -2 c207 -1 431 -4 497 -6 66 -2 338 -7 605 -10 267 -3 542 -8 613 -11
l127 -7 0 52 c0 50 -1 51 -30 51 -16 0 -30 5 -30 11 0 9 -175 11 -660 8 -578
-4 -660 -6 -660 -19 -1 -12 -4 -11 -14 3 -12 16 -26 18 -98 15 -45 -1 -210 -2
-365 0 l-283 2 0 40 c0 33 -3 40 -20 40 -16 0 -20 -7 -20 -35z"/>
<path d="M8193 4623 l2 -48 164 0 164 0 2 40 c1 22 -3 43 -9 47 -6 4 -82 8
-168 8 l-157 0 2 -47z"/>
<path d="M9408 4643 c-37 -4 -38 -5 -38 -44 l0 -39 65 0 65 0 0 45 c0 50 5 48
-92 38z"/>
<path d="M9360 4360 c0 -5 18 -10 40 -10 22 0 40 5 40 10 0 6 -18 10 -40 10
-22 0 -40 -4 -40 -10z"/>
<path d="M3022 4308 c-9 -9 -12 -147 -12 -560 l0 -548 378 -2 c878 -3 1015 -3
972 3 l-45 6 43 1 c23 1 42 6 42 10 0 5 18 17 39 27 56 25 59 41 9 49 -34 6
-38 9 -28 21 11 13 4 15 -46 13 -50 -1 -53 -2 -16 -5 53 -5 56 -23 3 -23 -48
0 -79 25 -83 65 l-3 30 65 0 c36 0 117 -3 180 -5 110 -5 115 -4 115 15 0 19
-8 20 -120 25 -118 5 -119 5 -53 13 37 4 84 5 106 1 30 -5 40 -3 45 10 11 28
-28 36 -179 36 l-147 0 7 243 c9 335 9 381 2 404 -8 25 -34 31 -167 40 -109 7
-103 2 -100 78 2 49 -10 58 -52 40 -29 -12 -38 -23 -47 -54 -9 -34 -15 -40
-54 -51 -25 -7 -67 -10 -98 -7 -29 3 -174 8 -323 10 -148 2 -279 5 -290 6 -11
1 -33 -1 -49 -5 l-29 -7 5 67 4 66 -31 0 c-17 0 -36 -5 -43 -12z m1238 -183
c11 -14 10 -189 -5 -525 -3 -52 -5 -98 -5 -102 0 -5 -56 -8 -125 -8 l-125 0 5
43 c2 23 7 165 10 316 3 151 8 278 11 283 3 4 54 8 113 8 83 0 111 -3 121 -15z
m-1005 -24 c-9 -8 -47 -15 -68 -12 -5 1 -5 6 -2 11 3 6 23 10 43 10 22 0 32
-4 27 -9z m200 -6 c0 -5 -21 -11 -47 -13 -39 -3 -48 0 -48 13 0 13 9 16 48 13
26 -2 47 -7 47 -13z m225 0 c0 -11 -15 -14 -72 -14 -65 1 -71 2 -53 15 26 20
125 19 125 -1z m160 0 c0 -9 -10 -16 -22 -16 -13 -1 -33 -3 -46 -4 -27 -3 -40
14 -21 26 24 15 89 11 89 -6z m110 -5 c0 -5 -5 -10 -11 -10 -5 0 -7 5 -4 10 3
6 8 10 11 10 2 0 4 -4 4 -10z m12 -100 c-11 -28 -23 -12 -15 19 3 13 9 19 15
13 5 -5 5 -19 0 -32z m1 -307 c-3 -87 -10 -164 -15 -170 -12 -15 -108 -18
-108 -3 0 6 -7 10 -17 10 -15 0 -15 1 0 18 10 10 17 22 17 27 0 4 10 16 23 27
12 11 22 25 22 32 0 7 12 24 27 37 20 19 28 40 37 96 6 40 11 74 11 77 0 3 2
6 4 6 3 0 2 -71 -1 -157z m-283 -153 c0 -5 -5 -10 -11 -10 -5 0 -7 5 -4 10 3
6 8 10 11 10 2 0 4 -4 4 -10z m63 -27 c-13 -2 -33 -2 -45 0 -13 2 -3 4 22 4
25 0 35 -2 23 -4z"/>
<path d="M4873 3989 c-13 -4 -23 -10 -23 -11 0 -2 43 -4 95 -5 63 -1 93 2 89
8 -3 6 -17 8 -31 5 -13 -4 -29 -4 -35 0 -17 11 -71 13 -95 3z"/>
<path d="M5068 3983 c6 -2 18 -2 25 0 6 3 1 5 -13 5 -14 0 -19 -2 -12 -5z"/>
<path d="M5160 3980 c-44 -7 -44 -7 18 -8 40 -1 61 2 57 8 -3 6 -12 9 -18 8
-7 0 -32 -4 -57 -8z"/>
<path d="M5300 3980 c0 -5 5 -10 10 -10 6 0 10 5 10 10 0 6 -4 10 -10 10 -5 0
-10 -4 -10 -10z"/>
<path d="M8263 3768 c-4 -7 -6 -282 -4 -610 2 -423 -1 -598 -8 -598 -7 0 -11
27 -11 71 0 123 -49 159 -215 159 -172 0 -175 -5 -187 -263 -11 -246 -12 -251
-68 -257 -38 -4 -45 -9 -51 -33 -16 -59 -33 -55 368 -73 127 -6 143 -9 148
-25 5 -14 16 -19 46 -19 27 0 39 -4 39 -14 0 -10 22 -16 80 -21 58 -5 80 -11
80 -21 0 -11 18 -14 80 -14 64 0 80 3 80 15 0 11 11 15 40 15 30 0 40 4 40 16
0 14 10 15 80 9 51 -5 80 -4 80 3 0 5 36 13 80 17 l79 7 7 34 c5 29 10 34 35
34 22 0 29 -5 29 -20 0 -17 7 -20 43 -20 23 -1 85 -3 137 -6 52 -2 121 -2 153
2 l57 6 0 105 c0 96 -1 105 -17 97 -10 -4 -36 -9 -58 -11 l-40 -3 38 18 c21 9
35 21 31 25 -4 4 1 7 11 7 15 0 16 3 7 12 -9 9 -7 14 6 24 14 10 8 13 -41 19
-87 11 -86 11 -80 -99 l6 -96 -76 0 c-42 0 -79 5 -82 10 -4 6 -6 200 -5 430 0
285 -3 420 -10 420 -16 0 -14 640 3 641 6 1 -6 5 -28 10 -22 4 -232 8 -467 8
-331 1 -429 -2 -435 -11z m838 -690 c-1 -112 2 -350 5 -529 l6 -326 -31 0 -31
0 0 111 c-1 61 -3 298 -6 526 -3 272 -1 410 5 400 9 -12 11 -12 17 3 3 9 13
17 21 17 13 0 15 -28 14 -202z m-157 -53 c-4 -8 -8 -15 -10 -15 -2 0 -4 7 -4
15 0 8 4 15 10 15 5 0 7 -7 4 -15z m233 -527 c-2 -13 -4 -3 -4 22 0 25 2 35 4
23 2 -13 2 -33 0 -45z m-1289 -104 l3 -126 -23 4 c-26 3 -25 0 -13 161 4 57
11 87 19 87 8 0 12 -37 14 -126z m317 -20 l-5 -96 -145 -2 -145 -1 1 30 c1 17
4 43 8 58 l6 28 34 -35 c35 -36 36 -36 118 -36 l83 0 0 40 c0 31 -4 40 -17 41
-17 1 -17 2 0 6 24 6 21 19 -5 27 -21 7 -19 9 17 21 22 7 43 13 47 14 4 1 5
-42 3 -95z m-270 77 c3 -5 1 -12 -5 -16 -5 -3 -10 1 -10 9 0 18 6 21 15 7z m0
-41 c3 -5 1 -10 -4 -10 -6 0 -11 5 -11 10 0 6 2 10 4 10 3 0 8 -4 11 -10z"/>
<path d="M8165 2310 c-3 -5 -1 -10 4 -10 6 0 11 5 11 10 0 6 -2 10 -4 10 -3 0
-8 -4 -11 -10z"/>
<path d="M8018 2303 c12 -2 32 -2 45 0 12 2 2 4 -23 4 -25 0 -35 -2 -22 -4z"/>
<path d="M7956 3218 c-3 -7 -4 -42 -3 -78 l2 -65 67 -5 c65 -5 67 -4 70 20 2
14 1 50 -2 80 l-5 55 -63 3 c-44 2 -63 -1 -66 -10z m124 -58 c0 -5 -25 -10
-55 -10 -30 0 -55 5 -55 10 0 6 25 10 55 10 30 0 55 -4 55 -10z"/>
<path d="M7899 3180 c-4 -42 -1 -64 9 -68 8 -2 12 10 12 37 0 23 -4 41 -10 41
-5 0 -10 -4 -11 -10z"/>
<path d="M3010 3161 l0 -21 455 0 c261 0 455 4 455 9 0 10 -178 18 -617 27
-293 6 -293 6 -293 -15z"/>
<path d="M7185 2221 l-100 -6 85 -7 c117 -11 510 -10 510 1 0 20 -243 26 -495
12z"/>
<path d="M5550 2150 c0 -5 5 -10 10 -10 6 0 10 5 10 10 0 6 -4 10 -10 10 -5 0
-10 -4 -10 -10z"/>
<path d="M4285 2070 c3 -5 8 -10 11 -10 2 0 4 5 4 10 0 6 -5 10 -11 10 -5 0
-7 -4 -4 -10z"/>
<path d="M6311 2064 c0 -11 3 -14 6 -6 3 7 2 16 -1 19 -3 4 -6 -2 -5 -13z"/>
<path d="M8937 983 c-11 -10 -8 -743 2 -743 5 0 12 8 14 18 4 16 5 16 6 0 1
-17 21 -18 271 -18 l270 0 0 88 c0 79 -3 89 -25 110 -29 28 -39 72 -33 152 3
49 10 66 32 89 27 28 27 29 8 35 -17 6 -20 13 -15 41 3 19 0 49 -8 66 l-13 32
-19 -24 -19 -24 27 -3 c19 -3 25 -8 21 -19 -3 -8 -6 -16 -6 -17 0 -7 -51 7
-56 15 -3 5 -13 9 -22 9 -15 -1 -15 -2 -1 -13 22 -17 27 -137 6 -137 -8 0 -17
-9 -20 -20 -6 -25 -51 -43 -100 -41 -67 3 -74 -3 -68 -57 9 -66 0 -116 -21
-120 -26 -5 -29 23 -26 238 l3 195 65 3 c67 3 139 -12 152 -32 5 -6 8 -2 8 10
0 27 -32 34 -159 35 -87 1 -126 12 -58 16 17 1 53 5 80 9 47 6 47 6 47 45 l0
38 113 4 c110 3 109 3 -43 7 -143 3 -149 4 -70 10 62 5 28 7 -126 8 -116 1
-214 -1 -217 -5z m503 -243 c0 -5 -4 -10 -10 -10 -5 0 -10 5 -10 10 0 6 5 10
10 10 6 0 10 -4 10 -10z m-483 -222 c-2 -24 -4 -5 -4 42 0 47 2 66 4 43 2 -24
2 -62 0 -85z"/>
<path d="M9453 983 c9 -2 25 -2 35 0 9 3 1 5 -18 5 -19 0 -27 -2 -17 -5z"/>
<path d="M9328 873 c6 -2 18 -2 25 0 6 3 1 5 -13 5 -14 0 -19 -2 -12 -5z"/>
<path d="M9460 874 c0 -9 31 -37 36 -32 9 9 -8 38 -22 38 -8 0 -14 -3 -14 -6z"/>
<path d="M9218 863 c12 -2 32 -2 45 0 12 2 2 4 -23 4 -25 0 -35 -2 -22 -4z"/>
<path d="M9190 713 l0 -88 61 3 c59 4 61 5 75 38 21 51 4 114 -32 114 -8 0
-14 5 -14 10 0 6 -20 10 -45 10 l-45 0 0 -87z"/>
<path d="M9486 741 c-4 -7 -5 -15 -2 -18 9 -9 19 4 14 18 -4 11 -6 11 -12 0z"/>
<path d="M9480 566 c0 -25 5 -48 10 -51 6 -4 10 13 10 44 0 28 -4 51 -10 51
-5 0 -10 -20 -10 -44z"/>
</g>
</svg>
