<?xml version="1.0" standalone="no"?>
<!DOCTYPE svg PUBLIC "-//W3C//DTD SVG 20010904//EN"
 "http://www.w3.org/TR/2001/REC-SVG-20010904/DTD/svg10.dtd">
<svg version="1.0" xmlns="http://www.w3.org/2000/svg"
 width="1280.000000pt" height="720.000000pt" viewBox="0 0 1280.000000 720.000000"
 preserveAspectRatio="xMidYMid meet">
<metadata>
Created by potrace 1.16, written by Peter Selinger 2001-2019
</metadata>
<g transform="translate(0.000000,720.000000) scale(0.100000,-0.100000)"
fill="#000000" stroke="none">
<path d="M6144 7163 c-4 -22 -18 -46 -35 -61 -18 -14 -29 -34 -29 -49 0 -23
-35 -84 -52 -91 -4 -2 -8 -10 -8 -18 0 -8 -4 -14 -10 -14 -5 0 -10 -8 -10 -17
0 -10 -18 -54 -40 -98 -22 -44 -40 -89 -40 -101 0 -11 -4 -24 -8 -30 -13 -14
-31 -83 -42 -166 -17 -119 -66 -261 -97 -281 -7 -4 -13 -16 -13 -26 0 -10 -18
-37 -40 -60 -22 -23 -40 -48 -40 -55 0 -8 -6 -16 -14 -19 -8 -3 -20 -22 -27
-41 -7 -20 -16 -36 -21 -36 -9 0 -38 -54 -38 -70 0 -5 9 -10 20 -10 11 0 20 5
20 10 0 6 7 10 15 10 9 0 19 8 22 17 7 18 53 62 66 63 21 1 2 -33 -33 -56 -22
-15 -40 -31 -40 -35 0 -5 -7 -9 -16 -9 -21 0 -94 -78 -94 -100 0 -5 -4 -10
-10 -10 -5 0 -10 -6 -10 -14 0 -8 -6 -21 -13 -28 -7 -7 -21 -30 -30 -50 -10
-21 -22 -38 -27 -38 -6 0 -10 -7 -10 -15 0 -18 -8 -28 -62 -83 -55 -54 -65
-62 -83 -62 -8 0 -15 -4 -15 -10 0 -5 -4 -10 -9 -10 -5 0 -23 -13 -41 -30 -18
-16 -36 -30 -41 -30 -5 0 -19 -9 -31 -20 -51 -46 -64 -57 -90 -70 -16 -7 -28
-17 -28 -22 0 -4 -7 -8 -15 -8 -8 0 -20 -9 -27 -20 -7 -11 -22 -20 -34 -20
-12 0 -37 -6 -55 -14 -19 -8 -69 -17 -111 -21 -51 -5 -78 -12 -78 -20 0 -8
-39 -16 -117 -25 -65 -7 -121 -17 -124 -22 -3 -5 -58 -11 -122 -15 -64 -3
-117 -10 -117 -15 0 -12 -188 -10 -234 3 -24 7 -40 18 -43 30 -3 10 -9 19 -13
19 -4 0 -18 10 -32 23 -14 12 -45 34 -69 49 -68 42 -82 52 -96 65 -17 15 -85
25 -150 20 -56 -3 -68 -9 -68 -34 0 -10 -9 -17 -23 -18 -12 -1 -28 -7 -34 -13
-16 -16 64 -92 97 -92 14 0 25 -3 25 -7 0 -5 18 -17 41 -27 29 -14 39 -25 36
-37 -3 -11 2 -19 14 -22 11 -3 19 -11 19 -18 0 -10 -73 -11 -350 -6 l-350 6 0
-185 0 -184 193 0 c105 0 248 5 317 10 69 5 277 12 463 16 297 6 337 5 337 -8
0 -11 16 -17 61 -22 90 -9 96 -8 118 15 16 18 22 19 40 7 12 -7 21 -18 21 -25
0 -8 15 -13 40 -13 24 0 40 5 40 12 0 8 102 10 403 6 237 -3 326 -2 217 2
-102 4 -211 8 -242 9 -39 1 -58 5 -58 14 0 16 575 10 710 -8 63 -8 81 -13 53
-14 -54 -1 -57 -21 -3 -21 38 0 40 -2 40 -30 0 -27 -15 -92 -38 -165 -11 -32
-30 -77 -84 -195 -33 -70 -53 -140 -77 -265 -6 -27 -14 -65 -18 -84 l-9 -35
-199 3 c-110 2 -234 4 -275 5 -41 2 -83 -1 -92 -6 -10 -5 -18 -3 -21 5 -3 9
-9 9 -24 0 -15 -8 -24 -8 -31 -1 -8 8 -19 7 -39 -1 l-29 -12 -1 -110 c-1 -61
-7 -124 -13 -140 -9 -20 -9 -37 -2 -61 6 -18 9 -103 7 -190 -2 -129 0 -158 11
-158 8 0 14 9 14 21 0 12 8 23 20 26 11 3 20 9 20 14 0 5 9 9 20 9 14 0 20 7
20 21 0 16 4 19 18 14 9 -4 27 -7 40 -6 18 1 22 -4 22 -29 0 -17 5 -30 10 -30
18 0 11 -22 -9 -27 -10 -2 -24 -16 -30 -29 -6 -13 -17 -24 -26 -24 -8 0 -16
-4 -16 -10 -1 -5 -2 -14 -3 -19 -2 -19 -16 -24 -31 -11 -11 9 -18 10 -28 1
-16 -13 -27 -5 -27 21 0 10 -7 18 -15 18 -9 0 -15 -9 -15 -22 0 -13 -3 -34 -7
-47 -6 -24 -5 -24 45 -18 31 4 52 2 52 -4 0 -5 11 -2 25 7 13 8 28 13 34 10 5
-3 99 -6 210 -7 110 0 203 -4 206 -9 3 -4 2 -16 -2 -26 -6 -16 -26 -17 -296
-11 -179 4 -294 10 -301 17 -11 11 -11 107 0 600 4 162 4 292 0 289 -3 -3 -10
-167 -16 -365 -13 -472 -18 -546 -32 -555 -7 -4 -396 -5 -865 -2 l-853 6 0
-21 c0 -21 5 -22 138 -25 l137 -3 -137 -2 c-129 -2 -138 -3 -138 -22 0 -16 8
-19 58 -22 54 -3 57 -4 60 -30 3 -28 3 -28 -57 -28 -54 0 -61 -2 -61 -20 0
-18 7 -20 55 -20 l55 0 0 -95 0 -95 -32 0 c-71 0 -78 -7 -78 -71 0 -48 3 -57
15 -53 8 4 15 1 15 -5 0 -6 -7 -11 -15 -11 -11 0 -15 -11 -15 -40 0 -35 3 -40
24 -40 22 0 24 -5 31 -77 4 -49 3 -79 -3 -81 -5 -1 -8 -12 -5 -22 3 -11 0 -20
-6 -20 -6 0 -11 5 -11 11 0 8 -5 8 -15 -1 -11 -9 -15 -32 -15 -81 0 -61 2 -69
19 -69 18 0 68 -48 89 -86 8 -15 13 -16 25 -6 8 7 18 23 21 36 6 23 36 45 36
26 0 -6 18 -10 40 -10 22 0 40 -4 40 -10 0 -26 32 -5 46 30 16 40 34 53 34 25
0 -11 11 -15 38 -15 30 0 42 -6 62 -31 49 -61 55 -65 59 -43 2 10 7 24 11 29
4 6 11 25 15 42 7 37 21 42 41 16 13 -17 15 -17 28 0 20 25 34 21 41 -14 4
-17 12 -41 19 -54 12 -23 13 -23 28 -6 9 11 22 35 29 55 12 33 16 36 54 36 22
0 49 3 60 6 17 4 22 -2 34 -40 7 -24 19 -53 27 -63 12 -17 13 -16 14 10 0 18
11 40 31 60 28 28 40 32 98 35 l66 4 14 -46 c7 -25 17 -46 22 -46 5 0 9 4 9 9
0 12 59 71 70 71 5 0 11 -6 13 -12 4 -10 6 -10 6 0 1 6 7 12 15 12 8 0 17 -17
21 -42 l8 -43 14 50 15 50 239 0 c131 0 239 -3 239 -6 0 -4 29 -4 64 -2 88 8
112 0 125 -39 l12 -33 19 25 c11 14 20 33 20 43 0 20 1 20 59 6 26 -6 52 -20
63 -34 26 -33 38 -31 38 4 0 28 1 29 76 36 72 7 76 6 100 -20 l24 -26 24 25
c42 46 63 29 44 -33 -7 -23 -16 -41 -20 -41 -5 0 -8 -18 -8 -40 0 -33 -3 -40
-20 -40 -16 0 -20 -7 -20 -33 0 -18 -7 -59 -15 -91 -25 -94 -37 -280 -41 -598
-2 -234 -6 -310 -18 -352 -9 -31 -16 -92 -16 -141 0 -47 -5 -95 -11 -107 -6
-11 -12 -68 -15 -126 -3 -94 -1 -113 18 -152 12 -25 23 -72 26 -105 5 -74 22
-95 74 -95 22 0 38 -5 38 -12 0 -8 32 -9 116 -5 64 4 120 9 123 13 3 3 6 57 6
119 0 105 -2 115 -22 135 -13 11 -23 24 -23 28 1 9 66 82 74 82 3 0 15 9 26
20 16 16 20 33 20 79 l0 60 -65 30 c-36 17 -65 35 -65 41 0 5 -6 10 -13 10
-24 0 -37 175 -19 252 8 35 16 81 19 103 3 22 8 42 12 45 8 6 70 244 83 320 5
30 16 84 24 120 8 36 14 77 14 93 0 15 5 27 10 27 6 0 10 18 10 39 0 47 46
201 60 201 6 0 10 7 10 15 0 23 22 65 34 65 6 0 19 22 29 50 l18 50 307 0
c169 -1 312 -4 317 -8 27 -19 54 -151 65 -317 6 -93 20 -224 32 -290 11 -66
27 -156 34 -200 27 -152 32 -180 54 -282 18 -88 22 -145 25 -400 5 -348 12
-443 31 -443 22 0 17 -9 -26 -50 -40 -38 -40 -39 -40 -114 l0 -76 135 0 135 0
0 80 0 80 -55 0 -55 0 0 50 0 50 40 0 c22 0 40 5 40 10 0 6 18 10 40 10 33 0
40 3 40 20 0 11 4 20 8 20 17 0 42 76 44 130 0 30 7 65 15 77 17 29 18 113 0
113 -7 0 -18 9 -25 20 -7 11 -19 20 -27 20 -8 0 -15 9 -15 19 0 11 -5 21 -10
23 -18 6 -39 81 -40 140 0 31 -4 68 -9 81 -6 16 -4 71 5 158 8 74 18 188 23
254 12 160 -3 529 -25 615 -9 36 -18 100 -21 143 l-5 77 41 0 41 0 0 45 c0 29
-4 45 -12 45 -17 -1 -78 -16 -100 -25 -14 -6 -18 -2 -18 18 0 14 -8 31 -17 36
-13 7 -14 10 -4 11 11 0 12 13 7 63 -9 87 24 332 55 410 9 22 18 27 45 27 18
0 45 5 61 11 15 6 48 14 73 18 40 5 45 9 48 35 4 28 -16 185 -43 346 -42 249
-67 472 -75 675 -5 121 -11 227 -14 235 -3 8 -10 59 -16 113 -5 53 -21 135
-34 181 -14 46 -32 138 -40 204 -20 153 -20 166 -1 158 9 -3 269 -6 578 -7
542 -2 1281 -11 1745 -23 l222 -5 0 38 0 39 -72 10 -73 9 73 2 c40 0 72 5 72
11 0 7 -177 10 -510 10 l-510 0 0 40 0 40 80 0 c51 0 80 4 80 11 0 7 18 10 48
7 58 -4 112 17 112 43 0 11 4 19 8 19 4 0 15 13 24 28 29 48 181 212 197 212
4 0 16 17 27 38 10 20 22 39 25 42 15 11 47 88 52 123 5 34 4 37 -19 37 -14 0
-32 -6 -39 -12 -32 -29 -43 -36 -63 -42 -12 -4 -22 -12 -22 -17 0 -5 -7 -9
-15 -9 -8 0 -15 -7 -15 -15 0 -8 -9 -24 -20 -35 -11 -11 -20 -29 -20 -40 0
-11 -9 -25 -20 -32 -11 -7 -20 -18 -20 -25 0 -7 -7 -13 -16 -13 -8 0 -32 -18
-53 -40 -20 -22 -43 -40 -49 -40 -7 0 -12 -4 -12 -10 0 -17 -98 -60 -136 -60
-20 0 -62 7 -93 15 -31 8 -96 19 -145 24 -48 6 -93 14 -100 19 -6 5 -24 12
-41 15 -52 9 -176 47 -206 62 -15 8 -36 15 -45 15 -10 0 -31 4 -48 10 -17 5
-64 19 -103 30 -40 11 -73 25 -73 30 0 6 -10 10 -23 10 -13 0 -32 8 -43 18
-10 10 -27 21 -36 25 -10 3 -18 13 -18 22 0 8 -9 15 -20 15 -11 0 -20 4 -20 8
0 5 -18 17 -40 27 -22 10 -40 22 -40 27 0 15 -54 57 -72 58 -10 0 -31 15 -48
34 -38 41 -99 136 -100 154 0 6 -3 12 -7 12 -5 0 -19 17 -33 38 -14 20 -33 46
-42 56 -10 11 -18 26 -18 34 0 17 -51 72 -66 72 -26 0 -64 42 -64 70 0 16 -7
35 -15 44 -8 8 -15 21 -15 29 0 26 -43 131 -62 151 -10 11 -18 25 -18 32 0 6
-18 44 -41 85 -40 72 -59 137 -81 269 -5 36 -16 80 -24 98 -8 18 -14 39 -14
47 0 8 -4 15 -9 15 -4 0 -11 16 -14 35 -3 19 -12 42 -19 50 -33 36 -38 46 -38
68 0 13 -9 32 -20 42 -11 10 -20 24 -20 32 0 7 -4 13 -10 13 -5 0 -10 5 -10
10 0 13 -66 109 -90 133 -17 15 -42 17 -219 17 l-200 0 -7 -37z m472 -220 c38
-49 74 -167 74 -243 0 -25 -11 -76 -25 -115 l-24 -70 -1 63 c0 34 -4 62 -10
62 -5 0 -10 18 -10 39 0 22 -5 41 -12 44 -9 3 -5 13 11 31 23 24 24 28 12 68
-7 24 -19 55 -27 70 -14 27 -19 68 -8 68 4 0 13 -8 20 -17z m500 -1473 c2 0 4
-7 4 -15 0 -8 6 -15 13 -15 18 -1 67 -47 67 -65 0 -8 8 -15 18 -15 9 0 32 -14
50 -30 19 -16 47 -35 63 -42 16 -7 29 -17 29 -23 0 -10 26 -27 63 -41 9 -3 17
-10 17 -15 0 -5 7 -9 15 -9 8 0 15 -4 15 -9 0 -5 9 -13 20 -16 11 -4 32 -17
47 -31 14 -13 32 -24 40 -24 8 0 28 -13 46 -30 18 -16 36 -30 40 -30 15 0 35
-26 39 -51 3 -22 8 -24 71 -27 37 -2 67 -7 67 -12 0 -6 109 -10 280 -10 l280
0 0 -40 0 -40 -120 0 c-89 0 -120 -3 -120 -12 0 -10 -2 -10 -9 0 -4 8 -17 13
-27 12 -11 -1 -151 -2 -311 -1 -253 1 -293 3 -293 16 0 8 -8 15 -19 15 -10 0
-46 3 -80 6 -58 7 -61 6 -61 -15 0 -20 -4 -21 -120 -21 -113 0 -120 1 -120 20
0 18 -7 20 -80 20 -73 0 -80 -2 -80 -20 0 -11 -4 -20 -9 -20 -20 0 -24 173 -7
310 9 74 16 151 16 171 0 20 7 42 15 49 8 6 17 22 21 33 3 12 16 30 27 39 19
15 25 15 55 2 19 -8 36 -14 38 -14z m-1350 -37 c4 -16 14 -41 22 -58 8 -16 14
-48 14 -70 -1 -22 4 -80 12 -130 17 -115 11 -202 -17 -232 -25 -28 -37 -29
-37 -3 0 19 -6 20 -117 16 -65 -2 -101 -2 -80 1 36 4 37 6 37 43 l0 40 -177 2
c-163 3 -178 5 -181 21 -3 12 4 20 17 24 12 3 21 10 21 17 0 6 18 20 40 30 22
11 40 22 40 26 0 3 18 14 40 24 22 10 40 24 40 32 0 8 6 14 14 14 8 0 23 10
33 23 10 12 36 35 58 51 22 17 58 47 80 68 22 21 43 38 47 38 5 0 8 7 8 15 0
8 9 15 19 15 11 0 23 5 26 10 12 19 35 10 41 -17z m-626 -463 c0 -5 -4 -10
-10 -10 -5 0 -10 5 -10 10 0 6 5 10 10 10 6 0 10 -4 10 -10z m4140 -110 c0 -5
-18 -10 -40 -10 -22 0 -40 5 -40 10 0 6 18 10 40 10 22 0 40 -4 40 -10z
m-2234 -57 c-10 -10 -19 5 -10 18 6 11 8 11 12 0 2 -7 1 -15 -2 -18z m-2375 0
c24 -24 -3 -34 -79 -31 -79 3 -104 19 -60 38 29 12 125 7 139 -7z m49 -53 c0
-5 -4 -10 -9 -10 -6 0 -13 5 -16 10 -3 6 1 10 9 10 9 0 16 -4 16 -10z m-240
-20 c0 -5 -18 -10 -40 -10 -22 0 -40 5 -40 10 0 6 18 10 40 10 22 0 40 -4 40
-10z m649 -938 c0 -11 -3 -12 -6 -4 -2 6 -12 12 -21 12 -14 0 -15 2 -2 9 18
12 30 5 29 -17z m31 8 c0 -5 -2 -10 -4 -10 -3 0 -8 5 -11 10 -3 6 -1 10 4 10
6 0 11 -4 11 -10z m-26 -62 c6 -25 4 -28 -19 -26 -14 1 -25 8 -25 15 0 7 7 10
15 7 11 -4 15 0 15 17 0 28 5 23 14 -13z m101 -8 c3 -6 -1 -13 -10 -16 -19 -8
-30 0 -20 15 8 14 22 14 30 1z m-275 -10 c0 -5 -9 -10 -19 -10 -11 0 -23 5
-26 10 -4 6 5 10 19 10 14 0 26 -4 26 -10z m90 0 c0 -12 -8 -12 -35 0 -18 8
-17 9 8 9 15 1 27 -3 27 -9z m390 0 c0 -5 -10 -10 -22 -10 -19 0 -20 2 -8 10
19 13 30 13 30 0z m-81 -47 c0 -11 -3 -13 -6 -5 -2 6 -17 12 -33 12 -16 0 -31
-6 -33 -12 -3 -8 -6 -6 -6 5 -1 13 7 17 39 17 32 0 40 -4 39 -17z m97 -69 c-6
-17 -62 -19 -72 -2 -5 8 -2 9 9 5 13 -5 17 -1 17 14 0 21 1 20 20 -2 l19 -24
2 45 c2 39 3 40 6 12 3 -19 2 -40 -1 -48z m-218 24 c18 -18 14 -35 -8 -33 -26
2 -34 11 -27 30 8 18 19 19 35 3z m-188 -24 c0 -2 -9 -4 -21 -4 -11 0 -18 4
-14 10 5 8 35 3 35 -6z m80 6 c0 -5 -10 -10 -22 -10 -19 0 -20 2 -8 10 19 13
30 13 30 0z m211 -2 c18 11 20 11 17 0 -3 -7 -21 -14 -41 -16 -28 -2 -37 1
-37 12 0 14 3 14 20 4 16 -10 24 -10 41 0z m81 -88 c-2 -16 -8 -30 -13 -30 -5
0 -9 14 -9 30 0 18 5 30 13 30 9 0 12 -10 9 -30z m-335 -2 c-3 -8 -6 -5 -6 6
-1 11 2 17 5 13 3 -3 4 -12 1 -19z m146 0 c14 -22 1 -48 -23 -48 -13 0 -20 7
-20 19 0 48 22 63 43 29z m-293 -32 c0 -11 -19 -15 -25 -6 -3 5 1 10 9 10 9 0
16 -2 16 -4z m115 -6 c-3 -5 -12 -10 -20 -10 -8 0 -17 5 -20 10 -4 6 5 10 20
10 15 0 24 -4 20 -10z m90 0 c-3 -5 -15 -10 -25 -10 -10 0 -22 5 -25 10 -4 6
7 10 25 10 18 0 29 -4 25 -10z m185 0 c0 -5 -7 -10 -15 -10 -8 0 -15 5 -15 10
0 6 7 10 15 10 8 0 15 -4 15 -10z m7 -175 c-1 -30 -6 -55 -12 -55 -23 1 -40
28 -42 68 -2 40 -1 42 27 42 29 0 29 0 27 -55z m33 -10 c0 -17 -2 -17 -10 -5
-5 8 -10 24 -10 35 0 17 2 17 10 5 5 -8 10 -24 10 -35z m-160 -7 c0 -5 -4 -8
-10 -8 -5 0 -10 10 -10 23 0 18 2 19 10 7 5 -8 10 -18 10 -22z m210 -29 c0 -5
-13 -9 -30 -9 -35 0 -41 17 -7 22 26 5 37 1 37 -13z m-1742 -234 c8 -8 -311
-5 -330 3 -10 4 60 6 154 4 94 -1 174 -4 176 -7z m218 3 c3 -4 -33 -8 -80 -8
-52 0 -86 4 -86 10 0 13 158 11 166 -2z m-616 -73 c0 -25 -2 -26 -51 -24 -52
3 -65 10 -55 34 4 11 21 15 56 15 47 0 50 -2 50 -25z m240 11 c0 -22 -19 -30
-85 -34 -78 -4 -105 3 -105 28 0 19 7 20 95 20 76 0 95 -3 95 -14z m377 -9
c-6 -18 -147 -25 -164 -9 -23 23 -8 27 82 24 60 -3 85 -7 82 -15z m1103 -16
c0 -34 -9 -44 -27 -30 -9 8 -13 8 -13 1 0 -11 -140 -19 -427 -24 l-153 -3 0
-42 0 -43 69 0 c119 0 191 11 192 29 0 11 3 8 9 -6 11 -27 30 -30 31 -5 1 13
2 14 5 2 9 -31 42 -39 173 -41 l131 -2 0 -79 c0 -43 -3 -78 -7 -78 -5 0 -6 25
-5 55 3 35 0 55 -7 55 -6 0 -11 -19 -11 -44 l0 -44 -232 -7 c-232 -7 -347 -6
-380 2 -15 4 -18 16 -18 84 0 72 2 79 20 79 17 0 20 7 20 39 0 30 -4 40 -20
44 -15 4 -20 14 -20 41 0 20 6 38 14 43 8 4 159 7 335 5 l321 -3 0 -28z
m-1320 14 c0 -11 -12 -15 -42 -16 -70 -2 -85 2 -73 20 3 6 31 11 61 11 41 0
54 -4 54 -15z m458 3 c-3 -9 -33 -13 -103 -13 -70 0 -100 4 -102 13 -4 9 21
12 102 12 81 0 106 -3 103 -12z m162 -33 c0 -38 -3 -45 -20 -45 -16 0 -20 7
-20 30 0 17 -3 29 -7 29 -29 -5 -62 3 -67 16 -4 12 5 15 54 15 l60 0 0 -45z
m868 10 l3 -30 -66 3 c-65 4 -65 4 -65 33 l0 30 63 -3 c61 -3 62 -4 65 -33z
m179 5 c-6 -16 -17 -30 -24 -30 -7 0 -13 -7 -13 -15 0 -8 -7 -15 -15 -15 -8 0
-15 6 -15 13 0 8 -3 8 -8 2 -4 -6 -17 -12 -29 -12 -16 -1 -23 6 -28 28 -10 46
8 59 80 59 l63 0 -11 -30z m-1209 -172 c-2 -37 -9 -73 -15 -79 -20 -20 -170
-9 -185 13 -4 7 -7 42 -6 78 3 74 -3 69 117 74 44 2 66 7 70 17 9 29 22 -39
19 -103z m-858 2 l0 -78 -55 -4 -55 -3 0 81 c0 44 2 83 4 85 2 2 27 2 55 1
l51 -4 0 -78z m226 24 c9 -48 -3 -107 -21 -100 -8 3 -16 0 -19 -7 -4 -8 -8 -8
-11 -2 -3 7 -28 9 -66 5 -33 -3 -62 -4 -64 -1 -8 7 -5 135 3 148 11 17 112 21
144 5 19 -9 29 -24 34 -48z m759 52 c16 -11 20 -30 23 -110 4 -91 3 -96 -16
-96 -14 0 -22 8 -24 22 -5 34 -50 32 -59 -2 -4 -14 -7 22 -8 82 -1 103 0 107
22 111 39 8 43 7 62 -7z m1119 -8 c7 -29 8 -176 0 -205 -3 -12 -12 -24 -20
-27 -21 -8 -164 5 -164 15 0 5 37 10 83 11 l82 2 -77 3 -78 4 2 64 c1 36 5 70
9 77 9 14 11 14 75 16 34 2 43 6 48 25 7 21 7 22 17 2 8 -17 9 -16 6 8 -5 33
8 36 17 5z m-1741 3 l37 -1 0 -74 0 -74 -57 -5 c-32 -2 -59 -3 -61 -2 -7 7
-14 115 -9 137 5 18 13 24 29 22 13 -1 40 -3 61 -3z m236 -5 c12 -8 16 -132 3
-140 -4 -2 -41 -6 -82 -7 l-75 -2 -3 58 c-5 98 -4 100 76 99 38 -1 74 -4 81
-8z m2406 -107 c0 -100 -2 -114 -17 -114 -9 0 -20 -4 -24 -8 -4 -4 -11 -7 -16
-7 -12 0 -10 224 2 236 6 6 21 10 33 9 21 -2 22 -5 22 -116z m161 95 c31 -6
31 -7 38 -85 9 -115 5 -126 -54 -131 -94 -6 -94 -6 -100 107 -7 125 -3 136 47
124 21 -5 52 -12 69 -15z m-918 -9 c13 -28 16 -133 6 -184 -6 -31 -8 -32 -53
-29 l-46 3 -3 85 c-2 47 0 100 3 118 5 29 9 32 44 32 31 0 40 -5 49 -25z m656
-7 c3 -13 3 -65 -1 -116 l-6 -93 -76 3 -76 3 -3 40 c-3 34 10 126 24 173 2 8
25 12 68 12 58 0 64 -2 70 -22z m-1051 -40 c10 -33 -5 -48 -49 -48 -57 0 -58
19 -1 22 l42 1 -42 4 c-29 3 -43 9 -43 19 0 18 86 20 93 2z m24 -30 c-3 -7 -5
-2 -5 12 0 14 2 19 5 13 2 -7 2 -19 0 -25z m0 -80 c-2 -13 -4 -3 -4 22 0 25 2
35 4 23 2 -13 2 -33 0 -45z m-7 -38 c0 -13 -16 -15 -65 -12 -57 5 -58 20 -2
24 47 3 67 0 67 -12z m-190 1 c0 -5 -10 -11 -22 -15 -33 -8 -543 -7 -534 1 4
4 114 10 244 13 130 4 254 7 275 8 20 1 37 -2 37 -7z m1530 -65 c11 -15 32
-268 22 -277 -11 -11 -156 -19 -171 -10 -9 6 -10 11 -2 15 6 4 15 5 20 1 15
-8 24 13 17 41 -4 13 -13 24 -21 24 -21 0 -26 32 -23 128 4 107 22 107 26 0 2
-46 6 -86 10 -90 4 -4 5 31 3 78 -1 46 -1 90 2 97 6 16 102 10 117 -7z m-205
-137 l0 -144 -30 0 -30 0 -3 139 c-3 145 0 154 41 151 22 -2 22 -4 22 -146z
m-107 -25 l-3 -116 -75 -3 c-41 -1 -92 0 -112 2 -33 5 -36 8 -29 27 5 11 11
53 15 91 11 108 19 122 69 121 23 -1 45 -5 49 -11 4 -5 8 -52 8 -102 l0 -93
28 0 27 0 -3 91 c-2 51 -1 103 3 118 14 55 26 -9 23 -125z m-2050 66 c1 -30
-1 -82 -5 -115 l-8 -60 -59 0 -59 0 -3 85 c-1 47 0 100 3 118 l6 34 61 -4 61
-4 3 -54z m1989 28 c-3 -7 -5 -2 -5 12 0 14 2 19 5 13 2 -7 2 -19 0 -25z
m-2277 11 c0 -8 4 -9 13 0 21 17 27 3 27 -63 0 -50 -4 -63 -20 -74 -14 -8 -20
-23 -20 -47 0 -34 -1 -35 -39 -35 -35 0 -39 3 -45 31 -8 40 -8 147 0 177 5 18
13 22 45 22 22 0 39 -5 39 -11z m426 -19 c11 0 14 -17 14 -77 0 -85 -11 -116
-32 -95 -9 9 -9 12 4 12 11 0 15 6 11 21 -4 16 -8 17 -14 7 -5 -7 -8 24 -8 77
1 50 3 82 6 73 2 -10 11 -18 19 -18z m416 -67 c-3 -78 -7 -93 -20 -94 -13 0
-13 -2 3 -9 50 -22 55 -16 55 70 l0 80 44 0 c49 0 101 -16 128 -39 22 -19 26
-111 6 -111 -23 0 16 -20 40 -20 18 0 22 5 22 34 0 62 13 156 21 156 5 0 9
-42 9 -94 0 -88 -1 -94 -22 -101 -37 -11 -260 -16 -460 -9 l-188 7 0 95 0 94
40 -4 c22 -2 41 1 43 7 2 5 7 -26 12 -70 5 -55 4 -80 -4 -83 -6 -2 -11 -10
-11 -18 0 -10 12 -14 40 -14 l40 0 0 95 0 95 94 0 c78 0 95 3 100 16 11 28 12
13 8 -83z m-1097 77 c3 -5 15 -6 28 -1 14 6 30 5 41 -1 16 -9 17 -19 11 -87
-4 -42 -8 -85 -9 -95 -1 -17 -9 -20 -53 -22 l-53 -2 0 103 c0 56 3 105 7 108
9 10 21 9 28 -3z m1781 -5 c12 -11 13 -33 8 -110 l-7 -95 -83 0 -84 0 0 100 0
100 40 0 c34 0 40 -3 40 -21 0 -18 2 -19 15 -9 8 7 15 18 15 25 0 8 8 16 18
18 9 3 18 5 20 6 2 0 10 -6 18 -14z m140 7 c20 -12 33 -79 23 -115 -5 -17 -9
-47 -9 -64 0 -32 -1 -33 -42 -33 l-43 0 3 102 c2 65 8 105 15 110 15 10 39 10
53 0z m-2098 -18 c18 -5 15 -31 -5 -38 -37 -14 -100 24 -77 47 6 5 51 1 82 -9z
m549 -56 c-2 -13 -4 -3 -4 22 0 25 2 35 4 23 2 -13 2 -33 0 -45z m493 22 c0
-22 -4 -40 -10 -40 -5 0 -10 18 -10 40 0 22 5 40 10 40 6 0 10 -18 10 -40z
m680 0 c0 -22 5 -40 10 -40 6 0 10 -27 10 -60 l0 -60 -55 0 c-30 0 -55 3 -56
8 0 4 -2 16 -5 27 -2 11 -1 53 2 93 l6 72 44 0 44 0 0 -40z m-1723 -97 l1 -73
-31 5 c-18 2 -38 4 -44 4 -17 1 -17 83 -1 99 10 10 10 15 -1 22 -11 6 -7 9 15
13 58 9 59 7 61 -70z m820 35 c-3 -8 -6 -5 -6 6 -1 11 2 17 5 13 3 -3 4 -12 1
-19z m-347 -67 c0 -6 -4 -13 -10 -16 -5 -3 -10 1 -10 9 0 9 5 16 10 16 6 0 10
-4 10 -9z m3060 -111 c0 -29 -4 -40 -15 -40 -11 0 -15 11 -15 40 0 29 4 40 15
40 11 0 15 -11 15 -40z"/>
<path d="M5793 5000 c0 -25 2 -35 4 -22 2 12 2 32 0 45 -2 12 -4 2 -4 -23z"/>
<path d="M4738 2743 c12 -2 32 -2 45 0 12 2 2 4 -23 4 -25 0 -35 -2 -22 -4z"/>
<path d="M4898 2743 c12 -2 32 -2 45 0 12 2 2 4 -23 4 -25 0 -35 -2 -22 -4z"/>
<path d="M5458 2633 c12 -2 32 -2 45 0 12 2 2 4 -23 4 -25 0 -35 -2 -22 -4z"/>
<path d="M3600 2358 c-3 -26 -1 -43 3 -39 5 5 7 26 5 47 l-3 39 -5 -47z"/>
<path d="M3363 2360 c0 -25 2 -35 4 -22 2 12 2 32 0 45 -2 12 -4 2 -4 -23z"/>
<path d="M3011 6963 c-1 -47 3 -75 12 -80 6 -4 18 -20 26 -35 8 -16 38 -53 68
-84 29 -31 53 -61 53 -66 0 -5 -19 -8 -42 -6 -41 3 -43 2 -41 -23 l1 -27 -24
25 c-28 28 -31 43 -8 43 9 0 14 7 12 17 -4 22 -28 29 -28 9 0 -9 -7 -16 -15
-16 -23 0 -21 -132 2 -151 9 -8 18 -13 20 -11 2 1 22 -19 44 -45 88 -104 98
-113 125 -113 25 0 26 2 20 33 -3 17 -14 37 -23 44 -18 14 -21 45 -10 113 3
25 3 34 -1 20 -7 -22 -9 -23 -15 -7 -11 30 -8 37 18 37 14 0 29 -8 35 -20 6
-11 17 -20 25 -20 9 0 15 -10 15 -25 0 -22 4 -25 34 -25 88 0 89 36 4 128 -34
37 -67 73 -73 80 -5 7 -18 22 -27 33 -10 10 -18 22 -18 25 0 10 -58 64 -69 64
-6 0 -11 6 -11 13 0 6 -19 33 -43 58 -23 25 -47 54 -54 65 -10 16 -12 7 -12
-53z m129 -335 c0 -7 -5 -20 -10 -28 -8 -12 -10 -9 -10 13 0 15 5 27 10 27 6
0 10 -6 10 -12z"/>
<path d="M5780 6971 c-22 -7 -23 -9 -7 -16 35 -15 92 -11 92 5 0 17 -46 23
-85 11z"/>
<path d="M8583 6924 c-16 -12 -16 -15 -3 -23 17 -11 89 -4 105 11 27 25 -70
36 -102 12z"/>
<path d="M3032 6805 c-9 -11 -10 -20 -3 -33 9 -15 10 -15 11 6 0 12 5 22 10
22 6 0 10 5 10 10 0 14 -13 12 -28 -5z"/>
<path d="M3060 6490 c0 -5 5 -10 11 -10 5 0 7 5 4 10 -3 6 -8 10 -11 10 -2 0
-4 -4 -4 -10z"/>
<path d="M9333 4963 c31 -2 83 -2 115 0 31 2 5 3 -58 3 -63 0 -89 -1 -57 -3z"/>
<path d="M7065 4672 c-25 -5 -35 -20 -35 -54 l0 -28 115 -1 c63 -1 130 -2 148
-3 31 -1 32 1 33 37 1 21 -4 40 -10 42 -18 6 -229 11 -251 7z"/>
<path d="M8192 4623 l3 -48 164 0 164 0 2 40 c1 22 -3 43 -9 47 -6 4 -82 8
-169 8 l-158 0 3 -47z"/>
<path d="M9368 4605 l4 -45 64 0 64 0 0 45 0 45 -68 0 -67 0 3 -45z"/>
<path d="M3022 4308 c-9 -9 -12 -147 -12 -560 l0 -548 373 -1 c204 0 518 -1
697 -2 179 -1 305 1 280 4 l-45 6 39 1 c30 2 47 10 73 37 19 19 43 35 54 35
18 0 19 2 6 14 -9 9 -47 17 -101 22 -93 7 -119 21 -114 58 3 20 7 21 138 18
74 -1 154 -5 178 -8 33 -4 43 -2 49 11 11 29 -17 35 -169 35 -81 0 -149 3
-151 8 -3 4 61 6 143 4 125 -3 148 -1 153 12 11 28 -29 37 -166 36 -72 -1
-138 -1 -145 -1 -11 1 -12 60 -7 324 4 210 3 327 -4 337 -10 15 -107 28 -211
29 l-55 1 0 57 0 58 -34 -2 c-33 -1 -76 -37 -65 -54 20 -32 -80 -66 -159 -55
-23 4 -163 6 -310 6 -191 -1 -273 2 -283 11 -10 8 -18 8 -27 1 -7 -6 -23 -8
-36 -5 -22 5 -23 10 -19 64 l4 59 -31 0 c-17 0 -36 -5 -43 -12z m1237 -182 c8
-9 10 -92 6 -292 -4 -154 -8 -294 -11 -311 l-5 -33 -125 0 -126 0 6 28 c3 15
8 158 12 317 3 160 8 293 11 298 2 4 53 7 112 7 80 0 112 -4 120 -14z m-1011
-28 c-5 -15 -60 -16 -65 -2 -2 6 13 11 32 12 24 1 35 -3 33 -10z m207 -3 c0
-5 -21 -11 -47 -13 -39 -3 -48 0 -48 13 0 13 9 16 48 13 26 -2 47 -7 47 -13z
m225 0 c0 -12 -14 -14 -70 -13 -57 1 -68 3 -59 15 17 19 129 18 129 -2z m160
1 c0 -9 -15 -15 -46 -18 -47 -3 -67 7 -43 23 23 15 89 11 89 -5z m123 -107
c-5 -18 -23 -27 -23 -11 1 25 14 52 20 42 4 -7 5 -21 3 -31z m3 -306 c-4 -135
-7 -159 -22 -170 -20 -15 -104 -18 -104 -4 0 5 -10 11 -22 13 l-23 3 23 20
c12 11 22 27 22 37 0 12 8 18 21 18 17 0 20 5 16 21 -4 15 0 23 14 26 23 6 63
68 56 87 -5 14 11 106 19 106 3 0 2 -71 0 -157z m-606 -43 c0 -5 -5 -10 -11
-10 -5 0 -7 5 -4 10 3 6 8 10 11 10 2 0 4 -4 4 -10z m400 -105 c0 -9 -9 -15
-22 -15 -22 1 -23 1 -4 15 25 19 26 19 26 0z m-17 -32 c-13 -2 -33 -2 -45 0
-13 2 -3 4 22 4 25 0 35 -2 23 -4z"/>
<path d="M4820 3985 c-22 -13 -23 -14 -5 -15 30 0 65 11 65 21 0 13 -32 10
-60 -6z"/>
<path d="M4890 3990 c0 -5 7 -10 15 -10 8 0 15 5 15 10 0 6 -7 10 -15 10 -8 0
-15 -4 -15 -10z"/>
<path d="M4945 3990 c-3 -5 1 -10 9 -10 8 0 18 5 21 10 3 6 -1 10 -9 10 -8 0
-18 -4 -21 -10z"/>
<path d="M5000 3990 c0 -5 7 -10 15 -10 8 0 15 5 15 10 0 6 -7 10 -15 10 -8 0
-15 -4 -15 -10z"/>
<path d="M5055 3990 c-20 -8 -20 -9 1 -9 12 -1 50 -3 85 -6 61 -4 62 -4 14 4
-27 5 -57 11 -65 14 -8 3 -24 2 -35 -3z"/>
<path d="M5245 3980 c-4 -7 13 -8 52 -4 76 9 80 14 10 14 -31 0 -59 -5 -62
-10z"/>
<path d="M8263 3763 c-8 -19 -9 -159 -6 -718 1 -214 -2 -412 -6 -440 l-8 -50
-2 71 c-2 129 -46 162 -216 163 -169 1 -174 -7 -187 -269 -11 -239 -12 -244
-68 -250 -38 -4 -45 -9 -51 -33 -16 -58 -27 -56 369 -73 140 -6 152 -8 152
-25 0 -15 8 -19 40 -19 22 0 40 -4 40 -9 0 -5 36 -12 80 -16 44 -4 80 -11 80
-16 0 -5 18 -9 40 -9 22 0 40 -4 40 -10 0 -5 18 -10 40 -10 29 0 40 4 40 15 0
11 11 15 40 15 27 0 40 4 40 13 0 11 29 15 117 20 66 4 119 11 121 17 2 5 21
10 43 10 21 0 40 3 40 8 7 39 9 85 9 262 0 113 -2 356 -6 540 -3 213 -2 330 4
321 7 -9 12 -10 16 -2 4 6 14 11 22 11 13 0 14 -24 10 -167 -3 -93 -5 -179 -6
-193 -1 -14 3 -52 9 -85 8 -47 13 -318 12 -657 0 -14 9 -18 42 -18 23 0 85 -3
137 -6 52 -2 121 -2 153 2 l57 6 0 104 0 104 -27 -6 c-16 -4 -29 -11 -31 -16
-2 -4 -21 -8 -43 -8 -39 0 -39 0 -39 -40 l0 -40 -78 0 c-67 0 -79 3 -90 21 -9
14 -10 24 -3 33 13 15 13 646 0 646 -5 0 -9 168 -9 404 l0 404 -22 6 c-13 3
-218 6 -456 6 -399 0 -433 -1 -439 -17z m687 -732 c0 -17 -18 -21 -24 -6 -3 9
0 15 9 15 8 0 15 -4 15 -9z m-640 -235 c0 -3 -4 -8 -10 -11 -5 -3 -10 -1 -10
4 0 6 5 11 10 11 6 0 10 -2 10 -4z m867 -278 c-2 -24 -4 -5 -4 42 0 47 2 66 4
43 2 -24 2 -62 0 -85z m-1288 -123 l2 -125 -27 0 c-22 0 -25 3 -21 23 3 12 9
68 13 125 5 72 10 102 19 102 10 0 13 -31 14 -125z m316 -22 c-5 -99 -10 -119
-21 -89 -4 10 -10 13 -13 8 -3 -5 -63 -11 -133 -14 l-127 -5 3 36 c2 20 4 51
5 69 1 27 5 32 24 31 18 -1 19 -2 3 -6 -16 -4 -13 -10 20 -44 31 -32 45 -39
76 -39 31 0 38 4 38 20 0 17 7 20 40 20 36 0 40 3 40 25 0 18 -7 26 -25 31
-14 3 -25 9 -25 13 0 6 74 38 92 40 4 1 5 -42 3 -96z m982 -35 c-2 -13 -4 -3
-4 22 0 25 2 35 4 23 2 -13 2 -33 0 -45z"/>
<path d="M8038 2303 c23 -2 61 -2 85 0 23 2 4 4 -43 4 -47 0 -66 -2 -42 -4z"/>
<path d="M7956 3218 c-3 -7 -4 -42 -3 -78 l2 -65 68 -3 68 -3 -3 78 -3 78 -63
3 c-44 2 -63 -1 -66 -10z m124 -58 c0 -5 -25 -10 -55 -10 -30 0 -55 5 -55 10
0 6 25 10 55 10 30 0 55 -4 55 -10z"/>
<path d="M7899 3180 c-4 -42 -1 -64 9 -68 8 -2 12 10 12 37 0 23 -4 41 -10 41
-5 0 -10 -4 -11 -10z"/>
<path d="M3010 3161 c0 -21 0 -21 455 -21 258 0 455 4 455 9 0 5 -111 12 -247
15 -137 3 -341 9 -455 12 -206 6 -208 6 -208 -15z"/>
<path d="M7613 3000 c0 -25 2 -35 4 -22 2 12 2 32 0 45 -2 12 -4 2 -4 -23z"/>
<path d="M9354 2450 c-6 -6 -8 -29 -5 -53 5 -35 10 -43 30 -45 16 -3 31 4 45
21 12 13 28 26 36 30 9 3 10 6 3 6 -18 1 -16 21 2 21 31 0 14 18 -22 24 -54 8
-78 7 -89 -4z"/>
<path d="M7085 2220 c-8 -13 98 -20 332 -20 220 0 263 3 263 19 0 9 -589 10
-595 1z"/>
<path d="M9070 2215 c0 -8 5 -15 10 -15 6 0 10 7 10 15 0 8 -4 15 -10 15 -5 0
-10 -7 -10 -15z"/>
<path d="M8930 969 c-8 -15 -10 -121 -4 -375 l7 -354 283 0 284 0 0 90 c0 63
-4 91 -13 97 -34 21 -47 58 -47 136 0 74 2 80 30 109 18 17 30 40 30 55 0 25
-1 25 -19 9 -19 -17 -19 -16 -14 22 3 24 0 49 -9 66 -14 26 -16 27 -31 11 -23
-22 -21 -35 4 -35 19 0 20 -4 15 -35 -4 -19 -2 -45 4 -57 11 -22 10 -22 -4 -4
-9 11 -16 31 -16 44 0 18 -4 23 -16 18 -11 -4 -18 1 -21 14 -3 11 -9 20 -14
20 -5 0 -9 12 -9 26 0 14 -3 23 -7 21 -5 -3 -44 -2 -88 3 -64 6 -71 8 -35 10
l45 3 -45 7 -45 7 43 1 42 2 0 40 0 39 113 4 c109 3 107 3 -43 6 -107 3 -141
6 -110 11 28 4 -20 8 -127 8 -165 2 -173 1 -183 -19z m22 -254 c3 -138 2 -200
-2 -145 -8 99 -13 396 -6 389 2 -2 5 -112 8 -244z m374 113 c27 -9 37 -21 49
-57 19 -57 20 -131 1 -131 -7 0 -16 -8 -19 -19 -6 -25 -58 -49 -95 -43 -38 5
-85 -5 -77 -17 8 -14 9 -114 1 -139 -8 -25 -31 -29 -39 -8 -5 11 -11 376 -8
419 1 12 152 8 187 -5z"/>
<path d="M9190 710 l0 -90 39 0 c63 0 89 14 100 55 12 45 7 76 -16 92 -10 7
-23 17 -30 23 -7 5 -30 10 -53 10 l-40 0 0 -90z"/>
<path d="M9328 873 c6 -2 18 -2 25 0 6 3 1 5 -13 5 -14 0 -19 -2 -12 -5z"/>
<path d="M9370 870 c0 -5 5 -10 10 -10 6 0 10 5 10 10 0 6 -4 10 -10 10 -5 0
-10 -4 -10 -10z"/>
<path d="M9460 874 c0 -9 31 -37 36 -32 9 9 -8 38 -22 38 -8 0 -14 -3 -14 -6z"/>
<path d="M9487 603 c-11 -10 -8 -71 3 -78 6 -4 10 12 10 39 0 47 -2 51 -13 39z"/>
<path d="M5440 120 c0 -5 -17 -10 -39 -10 -42 0 -51 -13 -51 -77 l0 -33 125 0
125 0 0 65 0 65 -80 0 c-47 0 -80 -4 -80 -10z"/>
</g>
</svg>
