<?xml version="1.0" standalone="no"?>
<!DOCTYPE svg PUBLIC "-//W3C//DTD SVG 20010904//EN"
 "http://www.w3.org/TR/2001/REC-SVG-20010904/DTD/svg10.dtd">
<svg version="1.0" xmlns="http://www.w3.org/2000/svg"
 width="1280.000000pt" height="720.000000pt" viewBox="0 0 1280.000000 720.000000"
 preserveAspectRatio="xMidYMid meet">
<metadata>
Created by potrace 1.16, written by Peter Selinger 2001-2019
</metadata>
<g transform="translate(0.000000,720.000000) scale(0.100000,-0.100000)"
fill="#000000" stroke="none">
<path d="M6284 7089 c-53 -12 -80 -41 -95 -104 -7 -27 -18 -57 -25 -65 -7 -8
-29 -44 -48 -78 -35 -62 -36 -67 -36 -171 0 -59 -4 -111 -9 -117 -9 -10 -55
-191 -66 -262 -4 -24 -13 -56 -21 -70 -8 -15 -14 -35 -14 -44 0 -10 -4 -18
-10 -18 -5 0 -10 -7 -10 -15 0 -21 -37 -92 -52 -102 -20 -12 -88 -100 -88
-112 0 -6 -4 -11 -10 -11 -5 0 -10 -7 -10 -15 0 -9 -7 -18 -15 -21 -11 -5 -15
-22 -15 -69 0 -56 -3 -64 -26 -80 -43 -28 -151 -140 -169 -176 -10 -19 -21
-36 -26 -39 -4 -3 -14 -23 -22 -45 -36 -96 -44 -112 -74 -141 -18 -17 -33 -35
-33 -41 0 -6 -6 -13 -13 -16 -8 -3 -22 -21 -31 -41 -9 -20 -23 -36 -31 -36 -8
0 -15 -6 -15 -13 0 -7 -13 -27 -29 -44 -16 -18 -39 -47 -52 -65 -13 -18 -26
-35 -30 -38 -4 -3 -67 -2 -140 2 -74 4 -308 10 -521 14 -214 4 -388 9 -388 13
0 3 -179 7 -398 8 -218 2 -477 6 -574 9 l-178 7 0 -187 0 -186 193 0 c105 0
248 5 317 10 69 5 277 12 463 16 297 6 337 5 337 -8 0 -11 16 -17 61 -22 90
-9 96 -8 118 15 18 20 21 20 42 5 20 -14 58 -16 256 -16 127 0 242 -4 255 -9
27 -10 39 -44 58 -161 13 -75 44 -197 60 -235 5 -11 15 -40 21 -65 7 -25 15
-49 19 -55 4 -5 17 -39 30 -75 13 -36 27 -69 32 -74 4 -6 8 -22 8 -36 0 -14 5
-31 11 -37 7 -7 9 -19 5 -29 -6 -15 -20 -16 -135 -11 -89 3 -133 1 -140 -6 -9
-9 -14 -8 -21 2 -7 12 -12 12 -23 3 -7 -7 -16 -9 -19 -6 -11 11 -105 11 -119
0 -12 -8 -16 -36 -18 -125 -1 -62 -6 -123 -12 -134 -8 -14 -8 -31 -1 -56 6
-20 9 -107 7 -193 -2 -129 0 -158 11 -158 8 0 14 9 14 20 0 13 10 24 25 30 14
5 36 21 49 35 21 23 26 24 39 11 10 -10 17 -12 25 -4 14 14 35 0 28 -19 -3 -8
-1 -23 5 -34 9 -17 7 -21 -9 -26 -11 -2 -25 -16 -31 -29 -6 -13 -17 -24 -26
-24 -8 0 -16 -4 -16 -10 -1 -5 -2 -14 -3 -19 -2 -18 -16 -24 -29 -13 -7 6 -23
9 -35 5 -18 -4 -22 -1 -22 16 0 12 -6 21 -15 21 -9 0 -15 -9 -15 -22 0 -13 -3
-34 -7 -47 -6 -24 -5 -24 45 -18 31 4 52 2 52 -4 0 -5 11 -2 25 7 13 8 28 13
33 10 7 -4 64 -5 277 -5 112 0 246 -5 249 -10 2 -3 0 -16 -5 -28 -9 -24 -35
-31 -41 -11 -3 7 -10 8 -20 2 -21 -12 -630 4 -642 17 -10 9 -10 56 -2 599 3
216 2 267 -4 190 -5 -58 -11 -202 -14 -320 -9 -364 -16 -494 -29 -502 -6 -4
-395 -4 -864 -1 l-853 6 0 -21 c0 -21 3 -22 137 -22 75 0 134 -3 131 -6 -4 -3
-65 -5 -137 -5 -125 1 -131 0 -131 -19 0 -18 7 -20 60 -20 l60 0 0 -30 0 -30
-60 0 c-53 0 -60 -2 -60 -20 0 -18 7 -20 58 -20 43 0 53 -3 42 -11 -11 -8 -12
-12 -2 -16 8 -3 12 -30 12 -84 l0 -79 -32 0 c-71 0 -78 -7 -78 -71 0 -48 3
-57 15 -53 8 4 15 1 15 -5 0 -6 -7 -11 -15 -11 -11 0 -15 -11 -15 -40 0 -36 3
-40 25 -40 25 0 25 -1 25 -80 0 -50 -4 -80 -11 -80 -6 0 -8 -9 -4 -22 5 -18 4
-20 -4 -8 -18 25 -31 -7 -31 -81 0 -66 0 -67 30 -73 22 -4 38 -18 58 -51 15
-25 30 -45 35 -45 4 0 17 16 29 36 13 22 26 33 35 30 8 -3 30 -6 49 -6 27 0
34 -4 34 -20 0 -33 36 -3 51 42 12 38 29 51 29 23 0 -11 11 -15 40 -15 36 0
40 -2 40 -25 0 -17 5 -25 18 -25 9 0 23 -9 30 -20 20 -32 30 -24 48 40 17 61
34 75 53 43 10 -17 12 -17 25 0 20 25 34 21 41 -14 4 -17 13 -41 20 -55 l12
-24 15 22 c8 13 20 38 27 56 13 31 15 32 76 32 l62 0 18 -55 c20 -59 35 -71
35 -29 0 29 43 77 79 89 13 4 47 4 77 0 l54 -6 0 -40 c0 -28 4 -39 15 -39 8 0
15 7 15 15 0 8 11 26 25 40 32 31 84 34 103 5 17 -27 32 -25 32 5 l0 25 203 1
c262 2 418 -1 439 -7 9 -3 21 -19 28 -37 l11 -32 20 24 c10 13 19 30 19 38 0
13 10 15 50 11 39 -4 54 -11 71 -32 27 -34 39 -33 39 3 0 28 1 29 76 36 72 7
76 6 100 -20 l24 -26 23 23 c21 23 28 23 180 23 l157 0 0 -47 c0 -26 -4 -49
-9 -52 -5 -3 -14 -27 -20 -52 -7 -26 -21 -65 -32 -88 -10 -22 -19 -50 -19 -64
0 -13 -5 -32 -10 -42 -34 -64 -67 -383 -51 -503 6 -45 13 -152 17 -237 6 -137
4 -162 -13 -215 -11 -33 -21 -87 -22 -120 -1 -33 -6 -64 -12 -70 -5 -5 -9 -15
-9 -22 0 -8 -14 -27 -31 -44 -27 -26 -31 -39 -41 -121 -9 -70 -9 -93 0 -96 7
-2 12 -24 12 -52 0 -39 4 -50 24 -64 14 -8 28 -26 32 -38 11 -35 30 -48 68
-48 26 0 36 -4 36 -16 0 -14 10 -15 80 -9 56 5 80 4 80 -4 0 -7 -26 -11 -70
-11 -40 0 -70 -4 -70 -10 0 -5 -9 -10 -19 -10 -32 0 -71 -56 -71 -101 l0 -39
195 0 195 0 0 45 0 45 -40 0 c-22 0 -40 4 -40 10 0 12 -48 60 -60 60 -6 0 -10
18 -10 40 0 29 4 40 15 40 11 0 15 11 15 40 0 31 -4 40 -17 40 -15 0 -15 1 2
14 13 9 21 33 26 77 4 35 12 65 17 67 6 2 3 26 -7 60 -15 47 -17 89 -14 242 3
194 23 343 63 470 12 36 30 110 41 165 11 55 27 134 35 175 9 41 19 105 23
142 4 37 12 73 19 80 7 7 12 28 12 48 0 21 14 62 34 100 19 36 37 81 41 100 4
19 16 41 26 48 11 7 19 22 19 32 0 23 28 52 42 44 6 -4 43 -6 84 -6 64 1 74
-1 79 -19 8 -23 -4 -150 -15 -164 -4 -5 -18 -43 -30 -82 -13 -40 -26 -73 -30
-73 -4 0 -10 -15 -12 -33 -3 -17 -14 -59 -26 -92 -41 -121 -52 -161 -52 -190
0 -16 -9 -61 -19 -100 -10 -38 -24 -104 -32 -145 -7 -41 -16 -77 -20 -80 -3
-3 -9 -23 -12 -45 -14 -103 -47 -253 -61 -280 -9 -17 -16 -40 -16 -52 0 -13
-6 -23 -13 -23 -7 0 -21 -25 -31 -54 -15 -44 -17 -68 -11 -118 4 -35 8 -90 9
-123 1 -56 3 -60 35 -82 19 -13 29 -23 22 -23 -6 0 -11 -17 -11 -40 l0 -40 40
0 40 0 0 -40 0 -40 80 0 c64 0 80 3 80 15 0 12 16 15 80 15 l80 0 0 35 c0 34
1 35 40 35 27 0 40 4 40 14 0 10 21 15 77 18 45 3 79 10 81 17 2 6 11 11 19
11 20 0 42 29 43 56 0 33 -44 74 -82 75 -121 4 -157 18 -182 71 -11 21 -26 38
-35 38 -20 1 -87 78 -102 117 -13 35 -19 123 -7 123 4 0 8 6 8 13 0 7 8 31 19
53 10 21 26 57 36 79 10 22 42 91 72 154 29 62 63 141 74 175 18 54 44 117 70
168 5 10 9 23 9 30 1 7 9 31 20 53 11 22 19 48 20 58 0 9 3 17 8 17 7 0 37
122 64 257 7 35 16 63 20 63 4 0 8 17 8 37 0 21 10 61 21 89 l22 51 60 7 c33
3 77 6 98 6 39 0 39 0 39 40 l0 40 -79 0 c-52 0 -82 4 -89 13 -14 17 0 118 28
210 l21 67 48 0 c27 0 79 7 117 14 38 8 85 18 106 21 20 3 38 11 41 18 2 6 1
41 -4 77 -4 36 -15 144 -24 240 -9 96 -18 183 -21 194 -5 16 10 60 26 76 3 3
11 21 18 40 8 19 22 57 33 85 23 59 25 115 5 115 -20 0 -28 107 -14 218 6 54
15 99 18 102 4 3 10 70 14 150 3 80 10 186 16 235 20 188 22 251 12 300 -6 28
-14 82 -17 122 -7 64 -6 72 11 76 17 4 17 6 -3 12 -21 7 -23 14 -23 71 0 44 4
64 13 65 48 2 774 -3 862 -6 61 -2 331 -7 600 -10 270 -3 547 -8 618 -11 l127
-7 0 52 c0 50 -1 51 -30 51 -16 0 -30 5 -30 11 0 9 -175 11 -660 8 l-660 -4
-1 -25 -1 -25 -11 28 -11 27 -402 0 -401 0 -10 -42 c-11 -46 -12 -42 -18 442
-4 239 -11 321 -30 347 -8 10 -15 26 -15 36 0 9 -4 17 -9 17 -5 0 -11 8 -15
18 -9 27 -28 52 -68 90 -41 37 -47 52 -23 52 19 0 19 29 0 100 -8 30 -15 74
-15 98 0 23 -4 42 -9 42 -5 0 -12 11 -15 25 -4 14 -11 25 -16 25 -6 0 -10 7
-10 15 0 8 -4 15 -8 15 -5 0 -15 18 -22 40 -7 22 -17 40 -22 40 -4 0 -8 7 -8
15 0 15 -19 55 -31 65 -3 3 -16 43 -28 89 -13 46 -26 91 -31 100 -4 9 -22 59
-39 111 -18 52 -36 97 -41 98 -6 2 -10 9 -10 16 0 18 -24 66 -32 66 -5 0 -8 6
-8 14 0 7 -20 40 -45 72 -25 31 -45 61 -45 66 0 4 -7 8 -16 8 -9 0 -40 24 -69
54 -29 29 -68 61 -86 70 -36 18 -146 20 -215 5z m371 -395 c17 -41 20 -134 5
-134 -6 0 -14 -10 -18 -21 -8 -20 -9 -20 -25 -4 -20 19 -23 86 -5 118 6 12 11
34 10 50 -3 38 15 34 33 -9z m-811 -1496 c13 -24 16 -62 14 -177 -1 -80 -3
-126 -5 -102 l-4 44 -127 -5 c-70 -3 -120 -4 -111 -1 15 4 30 40 43 103 3 14
17 39 31 55 14 17 42 49 62 73 45 52 75 55 97 10z m-1168 -390 c2 -3 2 -13 -2
-22 -5 -14 -19 -16 -81 -14 -54 1 -77 6 -81 16 -2 8 1 18 9 24 14 9 145 6 155
-4z m2321 -75 c-3 -10 -5 -4 -5 12 0 17 2 24 5 18 2 -7 2 -21 0 -30z m-2277
17 c0 -5 -4 -10 -10 -10 -5 0 -10 5 -10 10 0 6 5 10 10 10 6 0 10 -4 10 -10z
m320 -2 c0 -10 -48 -9 -115 1 -44 7 -40 8 32 7 46 -1 83 -4 83 -8z m640 -30
c0 -16 9 -18 80 -18 72 0 80 -2 80 -19 0 -23 -45 -205 -62 -246 -18 -49 -90
-210 -113 -255 -7 -14 -21 -60 -31 -102 -10 -43 -21 -78 -26 -78 -4 0 -8 -18
-8 -40 0 -35 -3 -40 -22 -39 -35 1 -93 25 -91 37 2 6 -8 23 -22 38 -15 17 -25
39 -25 58 0 17 -11 87 -25 156 -13 69 -25 148 -25 175 0 76 -23 255 -32 255
-4 0 -8 17 -8 38 l0 37 87 -1 c49 -1 69 1 46 3 -85 8 -40 20 77 20 110 0 120
-2 120 -19z m1357 -350 c-3 -7 -5 -2 -5 12 0 14 2 19 5 13 2 -7 2 -19 0 -25z
m47 -283 c14 -77 30 -164 36 -194 10 -55 14 -138 5 -129 -3 2 -16 81 -30 174
-14 93 -32 196 -40 229 -8 33 -14 76 -14 95 l1 35 9 -35 c5 -19 20 -98 33
-175z m-1924 -287 c0 -6 -3 -9 -6 -6 -3 4 -19 2 -35 -2 -27 -8 -38 -2 -22 13
11 12 63 8 63 -5z m-26 -60 c5 -23 3 -28 -13 -28 -11 0 -23 5 -26 10 -3 6 1
10 9 10 10 0 16 9 16 22 0 27 5 21 14 -14z m-174 -18 c0 -5 -6 -10 -14 -10 -8
0 -18 5 -21 10 -3 6 3 10 14 10 12 0 21 -4 21 -10z m80 1 c0 -4 -11 -6 -25 -3
-14 2 -25 6 -25 8 0 2 11 4 25 4 14 0 25 -4 25 -9z m195 -1 c-3 -5 -13 -10
-21 -10 -8 0 -14 5 -14 10 0 6 9 10 21 10 11 0 17 -4 14 -10z m102 -6 c-3 -3
-12 -4 -19 -1 -8 3 -5 6 6 6 11 1 17 -2 13 -5z m-10 -30 c-3 -3 -12 -4 -19 -1
-8 3 -5 6 6 6 11 1 17 -2 13 -5z m-89 -56 c19 -19 14 -28 -13 -28 -24 0 -34
18 -18 33 9 10 17 9 31 -5z m-108 -13 c0 -9 -9 -15 -22 -15 -21 0 -21 0 -2 15
24 18 24 18 24 0z m-80 -11 c0 -2 -9 -4 -21 -4 -11 0 -18 4 -14 10 5 8 35 3
35 -6z m310 -5 c0 -5 -18 -9 -40 -9 -22 0 -40 4 -40 9 0 4 18 8 40 8 22 0 40
-4 40 -8z m75 1 c4 -6 -6 -10 -22 -9 -25 0 -26 1 -8 9 11 5 21 9 22 9 1 1 5
-3 8 -9z m-343 -60 c-2 -16 -6 -30 -8 -30 -2 0 -4 14 -4 30 0 17 4 30 8 30 5
0 7 -13 4 -30z m335 4 c-3 -3 -12 -4 -19 -1 -8 3 -5 6 6 6 11 1 17 -2 13 -5z
m-189 -47 c3 -23 0 -27 -22 -27 -21 0 -26 5 -26 23 0 13 3 27 7 31 15 14 38 0
41 -27z m202 13 c0 -5 -4 -10 -10 -10 -5 0 -10 5 -10 10 0 6 5 10 10 10 6 0
10 -4 10 -10z m-500 -24 c0 -11 -19 -15 -25 -6 -3 5 1 10 9 10 9 0 16 -2 16
-4z m115 -6 c-3 -5 -15 -10 -26 -10 -10 0 -19 5 -19 10 0 6 12 10 26 10 14 0
23 -4 19 -10z m90 0 c-3 -5 -15 -10 -25 -10 -10 0 -22 5 -25 10 -4 6 7 10 25
10 18 0 29 -4 25 -10z m185 0 c0 -5 -7 -10 -15 -10 -8 0 -15 5 -15 10 0 6 7
10 15 10 8 0 15 -4 15 -10z m16 -137 c18 -24 17 -44 -1 -37 -11 5 -15 -1 -15
-20 0 -25 2 -26 39 -20 22 3 41 2 45 -4 10 -17 -61 -19 -95 -2 -27 13 -32 21
-33 58 -2 38 0 42 22 42 14 0 31 -8 38 -17z m-137 -45 c12 -15 11 -18 -3 -18
-10 0 -16 8 -16 22 0 12 1 19 3 17 1 -2 9 -12 16 -21z m-1534 -273 c6 -2 -64
-3 -155 -2 -127 0 -145 2 -80 6 81 6 214 3 235 -4z m221 4 c3 -5 -33 -9 -80
-9 -47 0 -86 4 -86 9 0 11 159 11 166 0z m-616 -68 c0 -16 -9 -20 -50 -23 -28
-1 -52 1 -54 7 -8 25 8 35 55 35 42 0 49 -3 49 -19z m240 4 c0 -28 -34 -33
-182 -25 -5 0 -8 9 -8 20 0 19 7 20 95 20 77 0 95 -3 95 -15z m1872 -30 c-1
-22 -4 -105 -5 -185 l-2 -145 -35 1 c-109 1 -150 5 -150 14 0 6 37 11 88 12
l87 2 -82 3 -83 4 0 64 c0 78 7 100 26 84 10 -8 14 -8 14 0 0 6 11 8 29 5 34
-7 71 10 72 34 1 11 4 8 9 -8 7 -21 8 -19 9 18 1 35 -2 42 -18 42 -11 0 -22 4
-25 9 -6 9 -77 8 -94 -3 -14 -8 -29 61 -16 74 8 8 119 18 164 15 11 0 14 -11
12 -40z m81 38 c3 -5 -1 -30 -8 -58 -7 -27 -15 -88 -16 -134 -3 -72 -1 -85 16
-97 10 -8 27 -14 36 -14 23 0 28 -9 22 -43 -5 -24 -10 -27 -43 -27 -36 0 -39
2 -44 38 -6 41 -5 323 1 335 2 4 10 7 18 7 8 0 16 -3 18 -7z m-1793 -18 c0
-11 -12 -15 -42 -16 -70 -2 -85 2 -73 20 3 6 31 11 61 11 41 0 54 -4 54 -15z
m215 0 c0 -12 -141 -23 -161 -12 -8 5 -12 13 -8 18 8 13 169 7 169 -6z m243 3
c-3 -9 -33 -13 -103 -13 -70 0 -100 4 -102 13 -4 9 21 12 102 12 81 0 106 -3
103 -12z m162 -33 c0 -53 -21 -61 -42 -17 -7 15 -23 28 -35 30 -12 2 -27 10
-33 18 -11 12 -3 14 49 14 l61 0 0 -45z m700 20 c0 -14 -6 -28 -12 -30 -23 -8
-289 -26 -467 -31 -138 -4 -176 -3 -182 8 -10 16 -12 62 -2 71 3 4 154 7 335
7 l328 0 0 -25z m154 19 c9 -3 16 -18 16 -33 0 -25 -2 -26 -65 -29 l-65 -3 0
35 0 36 49 0 c27 0 56 -3 65 -6z m-1034 -109 c19 0 26 -107 10 -149 -10 -26
-12 -27 -82 -25 -114 3 -118 6 -118 86 0 38 4 73 8 78 4 6 36 12 72 14 36 1
67 4 69 6 2 3 9 1 15 -3 6 -3 18 -7 26 -7z m-840 -85 l0 -78 -55 -4 -55 -3 0
72 c0 97 1 99 60 95 l50 -4 0 -78z m208 64 c18 11 29 -72 16 -122 -4 -14 -12
-21 -20 -18 -7 3 -15 0 -18 -7 -4 -8 -8 -8 -11 -2 -3 7 -28 9 -66 5 -33 -3
-62 -4 -64 -1 -8 7 -5 135 3 148 11 18 124 21 139 4 6 -7 16 -10 21 -7z m777
12 c16 -11 20 -30 23 -110 4 -91 3 -96 -16 -96 -13 0 -22 8 -24 22 -2 13 -12
22 -25 24 -22 4 -28 -5 -24 -33 1 -7 -3 -13 -9 -13 -10 0 -15 201 -5 211 10
11 63 8 80 -5z m-383 -10 c12 -17 9 -134 -2 -141 -6 -4 -43 -7 -83 -7 l-72 -1
-3 72 c-3 66 -1 72 20 81 30 12 131 9 140 -4z m-202 -70 l0 -74 -56 -4 c-45
-2 -58 0 -65 14 -10 18 -13 121 -4 130 3 3 32 6 65 7 l60 2 0 -75z m778 38
c37 3 93 6 124 6 45 0 57 3 61 18 4 13 5 11 6 -5 1 -22 31 -34 31 -13 0 6 10
2 22 -10 19 -18 36 -20 142 -22 67 0 127 -1 134 -1 9 1 12 -22 12 -83 0 -53
-4 -84 -11 -84 -6 0 -9 22 -8 60 1 33 -1 63 -4 67 -4 3 -7 -19 -7 -50 l0 -56
-35 6 c-23 4 -35 2 -35 -6 0 -6 17 -11 38 -12 30 0 33 -2 17 -9 -29 -12 -465
-12 -465 0 0 6 37 11 88 12 66 1 53 3 -58 7 -92 4 -148 2 -152 -4 -17 -22 -28
23 -26 100 3 68 6 80 19 77 10 -1 20 7 24 20 l8 23 4 -24 c5 -23 7 -24 71 -17z
m673 -36 c0 -7 0 -41 -1 -75 -1 -51 2 -63 14 -63 9 0 16 -4 16 -10 0 -6 -27
-10 -60 -10 -33 0 -60 4 -60 10 0 6 18 10 40 10 l40 0 0 45 0 45 -42 2 -43 1
43 4 c53 5 55 23 2 23 -29 0 -40 4 -40 15 0 19 90 22 91 3z m26 -30 c-3 -7 -5
-2 -5 12 0 14 2 19 5 13 2 -7 2 -19 0 -25z m542 -114 c91 -10 74 -24 -29 -24
-73 0 -90 3 -90 15 0 17 23 19 119 9z m-1251 -21 c-10 -2 -26 -2 -35 0 -10 3
-2 5 17 5 19 0 27 -2 18 -5z m1977 -176 c0 -80 -3 -148 -7 -152 -4 -4 -24 -8
-44 -9 -41 -1 -60 22 -25 31 12 3 21 8 22 12 0 3 2 58 3 123 3 81 8 121 17
132 28 32 34 9 34 -137z m-135 1 c0 -73 -4 -138 -8 -145 -4 -7 -16 -11 -27
-11 -19 2 -20 9 -17 122 3 149 7 166 32 166 19 0 20 -7 20 -132z m70 28 c0
-58 -4 -107 -9 -110 -15 -10 -21 22 -21 120 0 77 3 94 15 94 12 0 15 -18 15
-104z m-2231 39 c7 -37 -11 -204 -22 -207 -7 -3 -33 -3 -59 0 l-46 4 -7 73
c-4 40 -4 92 0 115 l7 42 61 -4 c51 -3 63 -7 66 -23z m138 -15 c13 0 15 -13
11 -83 -5 -90 -13 -116 -32 -97 -8 8 -7 13 4 20 12 7 12 12 2 22 -8 8 -12 40
-11 93 1 44 3 72 6 63 2 -10 11 -18 20 -18z m-682 10 c4 -6 11 -8 16 -4 5 3
23 2 40 -1 l31 -7 -7 -77 c-5 -42 -9 -85 -10 -96 -1 -17 -9 -20 -51 -20 l-49
0 -3 85 c-2 47 0 95 3 108 6 23 20 29 30 12z m289 -6 c3 -9 6 -37 6 -62 0 -36
-5 -50 -20 -60 -13 -8 -20 -23 -20 -42 0 -28 -2 -30 -39 -30 -32 0 -40 4 -45
23 -8 29 -8 151 0 171 9 23 109 23 118 0z m96 6 c0 -5 -5 -10 -11 -10 -5 0 -7
5 -4 10 3 6 8 10 11 10 2 0 4 -4 4 -10z m1404 -115 l-7 -95 -83 0 -84 0 0 95
0 95 40 0 c25 0 40 -5 40 -12 1 -7 9 -3 19 8 21 27 52 34 69 17 9 -9 11 -36 6
-108z m157 94 c4 -15 3 -58 -1 -95 -4 -46 -3 -71 4 -76 16 -11 -17 -20 -58
-16 -20 2 -36 6 -36 11 0 4 0 52 0 108 l0 100 42 -3 c35 -3 43 -7 49 -29z
m235 17 c19 -20 20 -179 0 -195 -17 -14 -126 -26 -160 -17 -40 10 -34 36 7 30
17 -3 59 -1 92 4 56 9 57 10 18 11 l-43 1 0 54 c0 40 -4 55 -16 60 -14 5 -13
9 3 36 14 24 24 30 51 30 18 0 40 -6 48 -14z m-140 -71 c-9 -14 -16 -31 -14
-38 3 -18 -12 -57 -23 -57 -5 0 -10 26 -10 58 -2 107 3 119 37 87 26 -24 26
-26 10 -50z m-2212 43 c-4 -13 -7 -52 -6 -88 2 -62 -13 -111 -25 -82 -6 16
-23 15 -23 -2 0 -9 -7 -12 -20 -9 -16 4 -20 14 -20 45 0 35 2 39 15 28 13 -11
15 -8 15 19 0 23 -5 31 -17 32 -14 0 -13 2 5 9 27 12 29 30 2 37 -11 3 -20 12
-20 19 0 10 14 14 51 14 48 0 50 -1 43 -22z m1009 -105 c-3 -18 -9 -33 -14
-33 -5 0 -9 -7 -9 -15 0 -11 11 -15 41 -15 l41 0 -6 43 c-7 49 -7 127 0 139 3
4 50 8 105 8 l101 0 -7 -86 c-6 -68 -5 -88 6 -95 34 -21 39 -11 39 86 l0 95
35 0 c36 0 100 -27 135 -58 23 -19 29 -112 8 -112 -23 0 16 -20 40 -20 20 0
22 4 22 64 0 75 9 126 22 126 5 0 7 -43 6 -97 -3 -87 -5 -97 -23 -100 -47 -10
-327 -15 -480 -8 l-165 7 0 93 0 94 43 3 42 3 12 -45 c7 -25 10 -60 6 -77z
m718 53 c5 -6 9 -36 9 -68 l0 -59 -57 3 c-65 3 -67 6 -57 116 l6 62 39 0 c24
0 40 5 41 13 0 6 3 -4 5 -23 3 -19 9 -39 14 -44z m-691 8 c0 -8 -4 -14 -10
-14 -5 0 -10 9 -10 21 0 11 5 17 10 14 6 -3 10 -13 10 -21z m-570 -109 c0 -8
-7 -15 -15 -15 -16 0 -20 12 -8 23 11 12 23 8 23 -8z"/>
<path d="M5666 4997 c-5 -15 -6 -31 -2 -34 11 -11 18 5 14 34 l-4 28 -8 -28z"/>
<path d="M4738 2743 c12 -2 32 -2 45 0 12 2 2 4 -23 4 -25 0 -35 -2 -22 -4z"/>
<path d="M4695 2630 c-4 -6 28 -10 89 -10 57 0 96 4 96 10 0 6 -36 10 -89 10
-50 0 -93 -4 -96 -10z"/>
<path d="M3600 2358 c-3 -26 -1 -43 3 -39 5 5 7 26 5 47 l-3 39 -5 -47z"/>
<path d="M3633 2360 c0 -25 2 -35 4 -22 2 12 2 32 0 45 -2 12 -4 2 -4 -23z"/>
<path d="M3335 2310 c4 -6 11 -8 16 -5 14 9 11 15 -7 15 -8 0 -12 -5 -9 -10z"/>
<path d="M3017 7033 c-4 -3 -7 -37 -7 -75 0 -52 4 -70 15 -74 8 -4 15 -12 15
-19 0 -8 11 -27 25 -43 14 -17 25 -35 25 -41 0 -6 6 -11 14 -11 8 0 16 -7 20
-15 6 -17 -2 -45 -14 -45 -20 0 -40 13 -40 26 0 8 -7 14 -15 14 -19 0 -19 -26
0 -34 8 -3 23 -21 32 -41 9 -19 23 -35 30 -35 7 0 13 -5 13 -11 0 -6 -6 -8
-12 -5 -7 3 -21 9 -30 12 -10 4 -18 13 -18 20 0 8 -7 17 -15 20 -8 4 -15 14
-15 23 -1 9 -7 27 -15 41 -13 23 -14 19 -15 -61 0 -81 2 -87 28 -111 24 -22
55 -57 131 -146 23 -27 64 -27 69 0 2 10 -9 33 -25 53 -21 26 -28 46 -28 78 0
23 -4 52 -8 65 -8 20 -5 22 22 22 20 0 34 -7 41 -20 6 -11 17 -20 25 -20 8 0
15 -8 15 -18 0 -22 72 -52 78 -33 2 6 11 11 19 11 12 0 14 7 9 31 -3 17 -6 35
-6 40 0 5 -6 9 -14 9 -20 0 -108 88 -96 95 6 3 10 15 10 27 0 17 -3 18 -15 8
-16 -14 -35 -6 -35 16 0 8 -7 14 -15 14 -8 0 -15 5 -15 11 0 14 -55 69 -69 69
-6 0 -11 5 -11 11 0 6 -11 24 -25 41 -14 16 -25 36 -25 44 0 8 -6 14 -14 14
-7 0 -19 7 -27 16 -10 13 -10 17 2 25 8 5 9 9 3 9 -6 0 -14 -3 -17 -7z m141
-315 c17 -17 15 -28 -6 -28 -24 0 -32 8 -25 26 6 17 15 18 31 2z"/>
<path d="M5760 6972 c0 -16 72 -32 92 -21 10 5 16 14 13 20 -8 11 -105 12
-105 1z"/>
<path d="M8593 6929 c-51 -19 -13 -41 53 -30 51 8 54 35 4 37 -19 1 -45 -2
-57 -7z"/>
<path d="M3040 6810 c0 -5 5 -10 10 -10 6 0 10 5 10 10 0 6 -4 10 -10 10 -5 0
-10 -4 -10 -10z"/>
<path d="M3202 6610 c0 -14 2 -19 5 -12 2 6 2 18 0 25 -3 6 -5 1 -5 -13z"/>
<path d="M9333 4963 c31 -2 83 -2 115 0 31 2 5 3 -58 3 -63 0 -89 -1 -57 -3z"/>
<path d="M8193 4623 l2 -48 164 0 164 0 2 40 c1 22 -3 43 -9 47 -6 4 -82 8
-168 8 l-157 0 2 -47z"/>
<path d="M9408 4643 c-37 -4 -38 -5 -38 -44 l0 -39 65 0 65 0 0 45 c0 50 5 48
-92 38z"/>
<path d="M9360 4360 c0 -5 18 -10 40 -10 22 0 40 5 40 10 0 6 -18 10 -40 10
-22 0 -40 -4 -40 -10z"/>
<path d="M3022 4308 c-9 -9 -12 -147 -12 -560 l0 -548 378 -2 c878 -3 1015 -3
972 3 l-45 6 43 1 c23 1 42 6 42 10 0 5 18 17 39 27 56 25 59 41 9 49 -34 6
-38 9 -28 21 11 13 4 15 -46 13 -50 -1 -53 -2 -16 -5 53 -5 56 -23 3 -23 -48
0 -79 25 -83 65 l-3 30 65 0 c36 0 117 -3 180 -5 110 -5 115 -4 115 15 0 19
-8 20 -120 25 -118 5 -119 5 -53 13 37 4 84 5 106 1 30 -5 40 -3 45 10 11 28
-28 36 -179 36 l-147 0 7 243 c9 335 9 381 2 404 -8 25 -34 31 -167 40 -109 7
-103 2 -100 78 2 49 -10 58 -52 40 -29 -12 -38 -23 -47 -54 -9 -34 -15 -40
-54 -51 -25 -7 -67 -10 -98 -7 -29 3 -174 8 -323 10 -148 2 -279 5 -290 6 -11
1 -33 -1 -49 -5 l-29 -7 5 67 4 66 -31 0 c-17 0 -36 -5 -43 -12z m1238 -183
c11 -14 10 -189 -5 -525 -3 -52 -5 -98 -5 -102 0 -5 -56 -8 -125 -8 l-125 0 5
43 c2 23 7 165 10 316 3 151 8 278 11 283 3 4 54 8 113 8 83 0 111 -3 121 -15z
m-1005 -24 c-9 -8 -47 -15 -68 -12 -5 1 -5 6 -2 11 3 6 23 10 43 10 22 0 32
-4 27 -9z m200 -6 c0 -5 -21 -11 -47 -13 -39 -3 -48 0 -48 13 0 13 9 16 48 13
26 -2 47 -7 47 -13z m225 0 c0 -11 -15 -14 -72 -14 -65 1 -71 2 -53 15 26 20
125 19 125 -1z m160 0 c0 -9 -10 -16 -22 -16 -13 -1 -33 -3 -46 -4 -27 -3 -40
14 -21 26 24 15 89 11 89 -6z m110 -5 c0 -5 -5 -10 -11 -10 -5 0 -7 5 -4 10 3
6 8 10 11 10 2 0 4 -4 4 -10z m10 -91 c0 -17 -4 -28 -10 -24 -5 3 -10 17 -10
31 0 13 5 24 10 24 6 0 10 -14 10 -31z m3 -316 c-3 -87 -10 -164 -15 -170 -12
-15 -108 -18 -108 -3 0 6 -7 10 -15 10 -8 0 -15 5 -15 10 0 6 7 13 15 16 8 4
15 11 15 16 0 6 10 19 23 30 12 11 22 25 22 32 0 7 12 24 27 37 20 19 28 40
37 96 6 40 11 74 11 77 0 3 2 6 5 6 2 0 1 -71 -2 -157z m-283 -153 c0 -5 -5
-10 -11 -10 -5 0 -7 5 -4 10 3 6 8 10 11 10 2 0 4 -4 4 -10z m63 -27 c-13 -2
-33 -2 -45 0 -13 2 -3 4 22 4 25 0 35 -2 23 -4z"/>
<path d="M4869 3983 l-24 -14 25 5 c14 3 42 6 63 6 20 0 37 3 37 8 0 13 -76
10 -101 -5z"/>
<path d="M5005 3990 c3 -5 8 -10 11 -10 2 0 4 5 4 10 0 6 -5 10 -11 10 -5 0
-7 -4 -4 -10z"/>
<path d="M5040 3980 c0 -5 5 -10 10 -10 6 0 10 5 10 10 0 6 -4 10 -10 10 -5 0
-10 -4 -10 -10z"/>
<path d="M5100 3978 c0 -5 32 -8 72 -8 39 0 68 3 64 7 -9 10 -136 10 -136 1z"/>
<path d="M8263 3768 c-4 -7 -6 -282 -4 -610 2 -423 -1 -598 -8 -598 -7 0 -11
27 -11 71 0 123 -49 159 -215 159 -172 0 -175 -5 -187 -263 -11 -246 -12 -251
-68 -257 -38 -4 -45 -9 -51 -33 -16 -59 -33 -55 368 -73 127 -6 143 -9 148
-25 5 -14 16 -19 46 -19 27 0 39 -4 39 -14 0 -10 22 -16 80 -21 58 -5 80 -11
80 -21 0 -16 72 -19 179 -8 56 6 61 9 61 31 l0 25 80 -7 c51 -5 80 -4 80 3 0
5 36 13 80 17 l79 7 7 34 c5 29 10 34 35 34 22 0 29 -5 29 -20 0 -13 7 -20 20
-20 11 0 20 -7 20 -15 0 -8 5 -15 10 -15 6 0 10 7 10 15 0 12 17 14 113 10 61
-3 136 -3 165 1 l52 6 0 105 c0 96 -1 104 -17 97 -10 -4 -36 -9 -58 -11 l-40
-3 38 18 c21 9 35 21 31 25 -4 4 1 7 11 7 15 0 16 3 7 12 -9 9 -7 14 6 24 14
10 8 13 -41 19 -87 11 -86 11 -80 -99 l6 -96 -76 0 c-42 0 -79 4 -82 10 -3 5
-6 199 -6 430 -1 246 -5 420 -10 420 -5 0 -9 134 -9 320 0 249 3 320 13 321 6
1 -6 5 -28 10 -22 4 -232 8 -467 8 -331 1 -429 -2 -435 -11z m838 -690 c-1
-112 2 -350 5 -529 l6 -326 -31 0 -31 0 0 111 c-1 61 -3 298 -6 526 -3 272 -1
410 5 400 9 -12 11 -12 17 3 3 9 13 17 21 17 13 0 15 -28 14 -202z m-157 -53
c-4 -8 -8 -15 -10 -15 -2 0 -4 7 -4 15 0 8 4 15 10 15 5 0 7 -7 4 -15z m233
-527 c-2 -13 -4 -3 -4 22 0 25 2 35 4 23 2 -13 2 -33 0 -45z m-1289 -104 l3
-126 -23 4 c-26 3 -25 0 -13 161 4 57 11 87 19 87 8 0 12 -37 14 -126z m317
-20 l-5 -96 -145 -2 -145 -1 1 30 c1 17 4 43 8 58 l6 28 34 -35 c29 -30 42
-36 78 -36 l43 0 0 39 c0 37 1 39 40 45 44 7 52 20 18 30 -21 7 -19 9 17 21
22 7 43 13 47 14 4 1 5 -42 3 -95z m-270 77 c3 -5 1 -12 -5 -16 -5 -3 -10 1
-10 9 0 18 6 21 15 7z m0 -41 c3 -5 1 -10 -4 -10 -6 0 -11 5 -11 10 0 6 2 10
4 10 3 0 8 -4 11 -10z"/>
<path d="M8165 2310 c-3 -5 -1 -10 4 -10 6 0 11 5 11 10 0 6 -2 10 -4 10 -3 0
-8 -4 -11 -10z"/>
<path d="M8018 2303 c12 -2 32 -2 45 0 12 2 2 4 -23 4 -25 0 -35 -2 -22 -4z"/>
<path d="M7956 3218 c-3 -7 -4 -42 -3 -78 l2 -65 67 -5 c65 -5 67 -4 70 20 2
14 1 50 -2 80 l-5 55 -63 3 c-44 2 -63 -1 -66 -10z m124 -58 c0 -5 -25 -10
-55 -10 -30 0 -55 5 -55 10 0 6 25 10 55 10 30 0 55 -4 55 -10z"/>
<path d="M7899 3180 c-4 -42 -1 -64 9 -68 8 -2 12 10 12 37 0 23 -4 41 -10 41
-5 0 -10 -4 -11 -10z"/>
<path d="M3010 3161 l0 -21 455 0 c261 0 455 4 455 9 0 10 -178 18 -617 27
-293 6 -293 6 -293 -15z"/>
<path d="M7613 3000 c0 -25 2 -35 4 -22 2 12 2 32 0 45 -2 12 -4 2 -4 -23z"/>
<path d="M7185 2221 l-100 -6 85 -7 c117 -11 510 -10 510 1 0 20 -243 26 -495
12z"/>
<path d="M5550 2150 c0 -5 5 -10 10 -10 6 0 10 5 10 10 0 6 -4 10 -10 10 -5 0
-10 -4 -10 -10z"/>
<path d="M4285 2070 c3 -5 8 -10 11 -10 2 0 4 5 4 10 0 6 -5 10 -11 10 -5 0
-7 -4 -4 -10z"/>
<path d="M8937 983 c-4 -3 -7 -172 -7 -375 l0 -368 285 0 285 0 0 88 c0 79 -3
89 -25 110 -29 28 -39 72 -33 152 3 49 10 66 32 89 27 28 27 29 8 35 -17 6
-20 13 -15 41 3 19 0 49 -8 66 l-13 32 -19 -24 -19 -24 27 -3 c19 -3 25 -8 21
-19 -3 -8 -6 -16 -6 -17 0 -7 -51 7 -56 15 -3 5 -13 9 -22 9 -15 -1 -15 -2 -1
-13 22 -17 27 -137 6 -137 -8 0 -17 -9 -20 -20 -6 -25 -51 -43 -100 -41 -67 3
-74 -3 -68 -57 9 -66 0 -116 -21 -120 -26 -5 -29 23 -26 238 l3 195 65 3 c67
3 139 -12 152 -32 5 -6 8 -2 8 10 0 27 -32 34 -159 35 -87 1 -126 12 -58 16
17 1 53 5 80 9 47 6 47 6 47 45 l0 38 113 4 c110 3 109 3 -43 7 -143 3 -149 4
-70 10 62 5 28 7 -126 8 -116 1 -214 -1 -217 -5z m503 -243 c0 -5 -4 -10 -10
-10 -5 0 -10 5 -10 10 0 6 5 10 10 10 6 0 10 -4 10 -10z m-483 -222 c-2 -24
-4 -5 -4 42 0 47 2 66 4 43 2 -24 2 -62 0 -85z"/>
<path d="M9453 983 c9 -2 25 -2 35 0 9 3 1 5 -18 5 -19 0 -27 -2 -17 -5z"/>
<path d="M9328 873 c6 -2 18 -2 25 0 6 3 1 5 -13 5 -14 0 -19 -2 -12 -5z"/>
<path d="M9460 874 c0 -9 31 -37 36 -32 9 9 -8 38 -22 38 -8 0 -14 -3 -14 -6z"/>
<path d="M9218 863 c12 -2 32 -2 45 0 12 2 2 4 -23 4 -25 0 -35 -2 -22 -4z"/>
<path d="M9190 713 l0 -88 61 3 c59 4 61 5 75 38 21 51 4 114 -32 114 -8 0
-14 5 -14 10 0 6 -20 10 -45 10 l-45 0 0 -87z"/>
<path d="M9486 741 c-4 -7 -5 -15 -2 -18 9 -9 19 4 14 18 -4 11 -6 11 -12 0z"/>
<path d="M9480 566 c0 -25 5 -48 10 -51 6 -4 10 13 10 44 0 28 -4 51 -10 51
-5 0 -10 -20 -10 -44z"/>
<path d="M6160 220 c0 -5 -17 -10 -37 -10 l-38 0 -1 -105 -2 -105 199 0 199 0
0 40 0 40 -40 0 -40 0 0 40 0 40 -40 0 c-39 0 -40 1 -40 35 l0 35 -80 0 c-47
0 -80 -4 -80 -10z"/>
</g>
</svg>
