<?xml version="1.0" standalone="no"?>
<!DOCTYPE svg PUBLIC "-//W3C//DTD SVG 20010904//EN"
 "http://www.w3.org/TR/2001/REC-SVG-20010904/DTD/svg10.dtd">
<svg version="1.0" xmlns="http://www.w3.org/2000/svg"
 width="1280.000000pt" height="720.000000pt" viewBox="0 0 1280.000000 720.000000"
 preserveAspectRatio="xMidYMid meet">
<metadata>
Created by potrace 1.16, written by Peter Selinger 2001-2019
</metadata>
<g transform="translate(0.000000,720.000000) scale(0.100000,-0.100000)"
fill="#000000" stroke="none">
<path d="M6269 7171 c-20 -4 -53 -15 -73 -25 -29 -14 -36 -22 -36 -46 0 -23
-7 -33 -30 -45 -16 -9 -30 -21 -30 -28 0 -6 -12 -32 -25 -57 -88 -163 -147
-333 -170 -490 -20 -140 -54 -229 -120 -319 -30 -41 -55 -80 -55 -87 0 -7 -9
-22 -21 -32 -17 -16 -20 -33 -21 -101 -1 -44 1 -84 5 -87 4 -4 -9 -34 -28 -68
-18 -34 -38 -88 -44 -121 -6 -33 -10 -179 -10 -325 0 -288 -14 -559 -28 -569
-13 -8 -34 -71 -28 -82 3 -4 -3 -61 -14 -126 -12 -65 -27 -208 -36 -318 -21
-271 -24 -290 -57 -365 -33 -74 -56 -151 -68 -227 -5 -28 -11 -57 -15 -63 -4
-6 -13 -37 -21 -69 -11 -50 -11 -66 2 -117 9 -32 17 -70 18 -84 2 -35 14 -50
34 -43 14 6 15 4 5 -8 -10 -13 -5 -19 33 -37 53 -26 54 -26 54 -7 0 8 5 15 10
15 6 0 10 18 10 40 0 24 15 77 39 133 29 68 42 117 51 186 6 52 13 98 17 104
3 5 9 43 14 85 9 79 16 96 37 83 10 -6 10 -24 1 -85 -6 -43 -15 -90 -20 -104
-6 -14 -13 -62 -16 -106 -5 -63 -15 -102 -46 -175 -22 -52 -39 -108 -39 -125
1 -17 -5 -44 -12 -61 -8 -16 -19 -75 -25 -130 -6 -55 -17 -124 -25 -153 -12
-46 -9 -117 6 -126 4 -2 112 -54 198 -95 36 -17 88 -36 115 -42 28 -6 54 -15
58 -19 4 -4 9 -77 11 -163 2 -107 7 -161 16 -172 10 -12 10 -18 1 -29 -8 -9
-11 -41 -10 -83 2 -37 -3 -140 -11 -228 -12 -143 -12 -181 3 -350 15 -171 75
-511 107 -610 5 -16 9 -86 8 -155 -1 -149 -14 -182 -88 -236 -63 -45 -90 -89
-90 -145 0 -44 1 -44 53 -66 69 -28 114 -33 155 -16 18 7 74 20 123 27 49 7
92 16 96 19 3 4 5 32 3 64 -1 32 -1 72 1 88 4 58 1 321 -6 400 -4 49 0 159 10
285 9 113 19 322 21 465 5 252 6 263 36 365 35 120 52 286 42 397 -6 71 -6 73
16 73 l22 0 -3 -197 c-2 -134 2 -217 11 -258 10 -46 11 -103 4 -245 -5 -102
-9 -349 -9 -550 0 -319 -3 -373 -18 -425 -14 -47 -17 -92 -16 -210 1 -82 -1
-175 -5 -206 l-8 -56 53 -17 c29 -10 79 -31 111 -47 32 -16 58 -25 58 -19 0 5
15 10 33 10 54 0 127 32 155 68 31 40 26 98 -10 122 -49 32 -96 82 -119 124
-22 42 -23 48 -11 103 15 75 15 102 -1 133 -11 21 -11 29 4 50 10 14 39 106
65 205 66 253 75 291 84 370 5 39 16 108 24 155 17 91 22 320 7 320 -15 0 -35
224 -22 249 7 12 10 25 7 29 -4 7 8 74 55 297 7 33 17 63 23 67 5 3 48 10 95
14 52 4 96 14 115 25 17 10 54 23 81 30 71 17 155 56 155 71 0 25 -51 385 -65
463 -8 44 -15 99 -15 121 0 41 35 143 54 156 5 3 2 22 -7 47 -20 49 -21 89 -7
206 6 50 12 140 15 200 2 61 7 184 11 275 3 91 6 170 6 175 2 64 -17 253 -29
300 -15 60 -16 85 -27 690 -5 265 -9 300 -46 375 -26 52 -98 130 -119 130 -16
0 -25 22 -12 29 8 6 7 17 -4 44 -8 20 -15 48 -15 62 0 14 -4 25 -9 25 -5 0
-12 19 -16 43 -8 50 -25 110 -34 117 -4 3 -22 34 -40 70 -18 36 -39 72 -46 80
-14 18 -51 137 -60 195 -18 110 -126 359 -210 483 -28 41 -76 74 -131 90 -44
13 -166 14 -225 3z m385 -259 c28 -54 56 -166 56 -221 0 -63 -24 -189 -39
-204 -6 -6 -9 10 -9 44 1 30 -2 83 -6 119 -4 36 -8 99 -10 141 -3 66 -7 82
-35 122 -17 25 -31 51 -31 57 0 18 59 -28 74 -58z"/>
<path d="M3197 3 c1762 -2 4644 -2 6405 0 1762 1 321 2 -3202 2 -3523 0 -4964
-1 -3203 -2z"/>
</g>
</svg>
