<?xml version="1.0" standalone="no"?>
<!DOCTYPE svg PUBLIC "-//W3C//DTD SVG 20010904//EN"
 "http://www.w3.org/TR/2001/REC-SVG-20010904/DTD/svg10.dtd">
<svg version="1.0" xmlns="http://www.w3.org/2000/svg"
 width="1280.000000pt" height="720.000000pt" viewBox="0 0 1280.000000 720.000000"
 preserveAspectRatio="xMidYMid meet">
<metadata>
Created by potrace 1.16, written by Peter Selinger 2001-2019
</metadata>
<g transform="translate(0.000000,720.000000) scale(0.100000,-0.100000)"
fill="#000000" stroke="none">
<path d="M6150 7174 c-6 -14 -10 -30 -10 -36 0 -6 -13 -24 -30 -40 -18 -17
-30 -38 -30 -54 0 -14 -11 -40 -25 -58 -14 -18 -25 -38 -25 -44 0 -6 -6 -17
-13 -24 -17 -17 -97 -184 -97 -202 0 -7 -6 -29 -14 -47 -8 -19 -22 -86 -31
-149 -10 -63 -22 -119 -26 -124 -5 -6 -9 -18 -9 -28 0 -24 -46 -122 -65 -138
-8 -7 -15 -24 -15 -37 0 -16 -7 -27 -20 -30 -11 -3 -20 -12 -20 -19 0 -8 -9
-19 -20 -26 -11 -7 -20 -20 -20 -29 0 -9 -9 -24 -20 -34 -11 -10 -20 -24 -20
-30 0 -7 -7 -18 -15 -25 -12 -10 -45 -66 -45 -77 0 -1 6 -3 14 -3 8 0 41 26
73 57 55 54 58 56 61 33 3 -15 -3 -29 -15 -37 -10 -8 -27 -21 -38 -31 -11 -9
-37 -26 -58 -37 -20 -11 -40 -28 -43 -39 -4 -11 -17 -31 -30 -45 -13 -14 -24
-34 -24 -43 0 -10 -6 -18 -13 -18 -8 0 -20 -18 -27 -40 -7 -22 -19 -40 -27
-40 -7 0 -13 -11 -13 -25 0 -14 -4 -25 -10 -25 -5 0 -10 -7 -10 -15 0 -8 -4
-15 -9 -15 -5 0 -29 -18 -52 -40 -24 -22 -49 -40 -56 -40 -7 0 -30 -18 -52
-40 -22 -22 -49 -40 -60 -40 -12 0 -21 -5 -21 -10 0 -6 -11 -16 -25 -22 -14
-6 -25 -19 -25 -30 0 -10 -6 -18 -13 -18 -18 0 -67 -24 -67 -32 0 -5 -7 -8
-15 -8 -8 0 -20 -9 -27 -20 -7 -11 -22 -20 -34 -20 -12 0 -38 -7 -57 -15 -20
-8 -52 -15 -72 -15 -19 0 -35 -4 -35 -10 0 -5 -18 -10 -40 -10 -22 0 -40 -4
-40 -8 0 -5 -53 -15 -117 -22 -65 -7 -121 -17 -124 -22 -3 -5 -58 -11 -122
-15 -64 -3 -117 -10 -117 -15 0 -12 -188 -10 -234 3 -24 7 -40 18 -43 30 -3
10 -9 19 -13 19 -5 0 -15 6 -22 13 -12 11 -106 76 -147 102 -9 6 -19 15 -23
20 -4 6 -55 12 -113 13 -101 4 -105 3 -105 -17 0 -13 -9 -25 -24 -31 -34 -13
-40 -27 -16 -42 11 -7 20 -17 20 -21 0 -17 29 -37 54 -37 14 0 26 -3 26 -7 0
-5 18 -17 40 -27 22 -11 40 -24 40 -31 0 -20 51 -56 88 -62 21 -3 44 -11 52
-18 8 -7 26 -16 40 -20 14 -4 63 -25 110 -46 84 -37 86 -38 255 -45 112 -4
199 -3 255 5 47 6 166 15 265 20 135 7 197 15 250 31 109 33 196 71 246 107
26 18 50 33 54 33 5 0 31 17 59 38 28 21 85 59 127 85 41 25 100 69 130 96 30
28 57 51 62 51 4 0 7 7 7 15 0 8 9 15 20 15 11 0 20 5 20 10 0 6 17 10 39 10
l39 0 13 -67 c19 -97 16 -388 -5 -473 -9 -36 -16 -78 -16 -93 0 -16 -6 -43
-14 -60 -8 -18 -16 -63 -19 -102 -5 -83 -38 -186 -105 -327 -52 -110 -73 -182
-92 -318 -18 -135 -40 -259 -61 -340 -25 -100 -61 -334 -68 -445 -6 -93 -13
-115 -35 -115 -23 0 -36 -50 -36 -144 l0 -93 53 -12 c28 -6 77 -11 106 -9 l55
3 8 -45 c11 -54 2 -203 -19 -320 -8 -47 -20 -121 -28 -165 -7 -44 -22 -97 -34
-118 -11 -21 -21 -48 -21 -62 0 -13 -4 -27 -10 -30 -5 -3 -10 -15 -10 -26 0
-10 -4 -19 -10 -19 -5 0 -10 -18 -10 -40 0 -29 -4 -40 -15 -40 -11 0 -15 -11
-15 -40 0 -22 -4 -40 -10 -40 -5 0 -10 -11 -10 -24 0 -14 -5 -37 -10 -51 -18
-48 -33 -285 -36 -576 -2 -219 -7 -301 -18 -347 -9 -33 -16 -95 -16 -137 0
-42 -7 -101 -16 -131 -10 -37 -12 -59 -5 -71 5 -11 6 -25 0 -34 -12 -23 -6
-79 9 -79 7 0 30 -8 52 -19 37 -18 43 -18 122 -3 46 8 94 23 107 33 13 11 34
19 46 19 23 0 55 28 55 48 0 7 7 12 15 12 8 0 26 12 40 26 22 22 26 33 23 77
-3 51 -3 51 -58 80 -30 16 -62 35 -71 43 -8 8 -21 14 -27 14 -25 0 -17 261 9
312 5 10 9 34 9 53 0 19 3 35 8 35 4 0 18 46 31 103 13 56 30 122 38 146 7 24
18 77 24 118 6 42 15 86 20 100 5 13 9 40 9 59 0 19 5 34 10 34 6 0 10 20 10
45 0 45 42 184 59 194 4 4 11 23 15 44 5 26 12 37 24 37 19 0 38 45 51 120 5
25 18 72 30 104 12 33 24 85 27 115 4 31 15 72 26 91 16 27 21 57 23 125 1 50
6 117 10 151 l8 61 153 7 c142 6 158 5 199 -14 24 -11 53 -20 63 -20 38 0 44
-23 40 -152 -4 -179 29 -488 53 -488 5 0 9 -10 9 -22 0 -13 9 -42 20 -66 14
-32 21 -75 26 -175 7 -149 46 -431 90 -652 3 -16 17 -86 31 -154 22 -111 25
-151 28 -420 2 -163 4 -302 4 -308 1 -10 38 -13 151 -13 l150 0 0 25 c0 16 6
25 15 25 11 0 15 12 15 48 1 26 7 58 15 72 22 39 18 72 -16 108 -16 17 -34 32
-40 32 -5 0 -9 9 -9 20 0 11 -4 20 -10 20 -18 0 -40 71 -40 129 0 31 -4 72
-10 91 -7 26 -4 82 11 215 35 297 23 792 -21 875 -5 10 -10 48 -10 84 0 37 -4
66 -10 66 -5 0 -10 -4 -10 -10 0 -5 -7 -10 -15 -10 -12 0 -15 14 -14 67 1 53
-2 69 -17 80 -10 7 -13 13 -7 13 7 0 11 36 10 103 0 111 22 271 49 355 17 50
18 52 54 52 21 0 70 7 109 16 62 14 71 19 71 38 0 20 -13 114 -66 481 -43 301
-54 402 -54 515 0 117 -30 411 -50 490 -27 106 -32 127 -40 145 -11 24 -15 73
-30 359 -10 189 -9 234 4 327 9 59 16 130 16 158 0 28 5 51 10 51 6 0 10 7 10
15 0 8 5 15 10 15 6 0 10 6 10 14 0 7 10 20 23 29 20 13 27 13 60 0 20 -8 37
-21 37 -29 0 -8 9 -14 19 -14 10 0 21 -7 25 -15 3 -8 12 -15 21 -15 9 0 15 -9
15 -25 0 -17 5 -25 18 -25 9 0 29 -10 43 -22 32 -29 59 -47 82 -54 9 -4 17
-11 17 -18 0 -11 25 -28 63 -42 9 -3 17 -10 17 -15 0 -5 7 -9 15 -9 8 0 15 -4
15 -9 0 -5 9 -13 20 -16 11 -4 32 -17 47 -31 14 -13 34 -24 44 -24 11 0 19 -4
19 -10 0 -5 6 -10 13 -10 6 0 29 -16 51 -35 21 -19 45 -35 52 -35 8 0 43 -10
77 -22 71 -26 185 -35 552 -44 211 -5 238 -4 310 15 70 18 84 25 113 61 19 22
40 40 47 40 17 0 79 60 118 113 39 52 75 87 91 87 7 0 21 17 32 38 10 20 21
39 24 42 30 29 50 90 30 90 -5 0 -10 7 -10 16 0 12 -16 7 -70 -22 -38 -20 -70
-40 -70 -45 0 -5 -6 -9 -14 -9 -8 0 -17 -14 -21 -30 -4 -17 -15 -36 -26 -43
-10 -6 -19 -17 -19 -24 0 -7 -7 -13 -16 -13 -8 0 -32 -18 -53 -40 -20 -22 -43
-40 -49 -40 -7 0 -12 -4 -12 -10 0 -17 -98 -60 -138 -60 -21 0 -64 7 -95 15
-32 8 -96 19 -143 25 -47 5 -91 13 -98 18 -6 5 -24 12 -41 15 -43 8 -162 43
-204 60 -20 8 -61 20 -91 27 -84 18 -180 51 -180 61 0 5 -10 9 -23 9 -13 0
-32 8 -43 18 -10 10 -27 21 -36 25 -10 3 -18 13 -18 22 0 8 -9 15 -20 15 -11
0 -20 4 -20 8 0 5 -18 15 -40 22 -22 7 -40 19 -40 27 0 18 -50 62 -71 63 -21
0 -79 56 -101 98 -43 78 -55 96 -80 124 -16 17 -28 34 -28 39 0 6 -9 19 -20
31 -11 12 -20 30 -20 40 0 10 -8 22 -17 25 -10 4 -22 12 -26 20 -4 7 -15 13
-22 13 -8 0 -15 5 -15 10 0 6 -7 10 -15 10 -18 0 -35 31 -35 62 0 13 -5 29
-12 36 -12 12 -31 58 -50 122 -5 19 -19 43 -29 53 -10 10 -19 23 -19 30 0 14
-51 117 -66 133 -17 19 -64 227 -64 284 0 17 -4 30 -9 30 -5 0 -12 18 -16 40
-4 22 -10 40 -15 40 -4 0 -10 15 -13 34 -3 18 -16 45 -30 60 -14 15 -28 42
-31 60 -4 19 -13 39 -21 46 -8 7 -15 19 -15 26 0 8 -4 14 -8 14 -5 0 -15 12
-23 28 -7 15 -24 41 -37 57 -63 83 -34 74 -255 75 l-197 0 -10 -26z m466 -231
c38 -49 74 -167 74 -243 0 -25 -11 -76 -25 -115 l-24 -70 -1 63 c0 34 -4 62
-10 62 -5 0 -10 18 -10 39 0 22 -5 41 -12 44 -9 3 -5 13 11 31 23 24 24 28 12
68 -7 24 -19 55 -27 70 -14 27 -19 68 -8 68 4 0 13 -8 20 -17z"/>
</g>
</svg>
