<?xml version="1.0" standalone="no"?>
<!DOCTYPE svg PUBLIC "-//W3C//DTD SVG 20010904//EN"
 "http://www.w3.org/TR/2001/REC-SVG-20010904/DTD/svg10.dtd">
<svg version="1.0" xmlns="http://www.w3.org/2000/svg"
 width="1280.000000pt" height="720.000000pt" viewBox="0 0 1280.000000 720.000000"
 preserveAspectRatio="xMidYMid meet">
<metadata>
Created by potrace 1.16, written by Peter Selinger 2001-2019
</metadata>
<g transform="translate(0.000000,720.000000) scale(0.100000,-0.100000)"
fill="#000000" stroke="none">
<path d="M6260 7177 c-54 -26 -90 -60 -90 -87 0 -19 -7 -30 -24 -38 -13 -6
-38 -36 -55 -66 -17 -31 -44 -80 -60 -108 -45 -81 -108 -281 -121 -388 -14
-105 -48 -240 -61 -240 -5 0 -9 -6 -9 -14 0 -8 -13 -39 -29 -70 -18 -33 -26
-58 -20 -62 6 -3 -1 -20 -15 -39 -15 -19 -26 -38 -26 -44 0 -5 -6 -16 -12 -23
-35 -37 -50 -81 -44 -124 5 -37 1 -51 -25 -93 -40 -64 -49 -104 -49 -236 0
-172 -23 -729 -30 -735 -4 -3 -10 -32 -13 -65 -3 -33 -13 -80 -22 -105 -27
-74 -54 -354 -59 -600 -3 -109 -6 -132 -29 -181 -14 -30 -36 -68 -50 -85 -51
-61 -86 -244 -79 -407 1 -34 6 -46 14 -41 7 5 9 1 6 -12 -4 -14 5 -27 28 -44
18 -14 34 -31 34 -37 0 -7 11 -13 24 -13 13 0 32 -3 41 -6 11 -5 16 -2 14 7
-1 8 2 32 6 54 5 22 8 48 6 58 -1 9 3 17 8 17 6 0 11 15 11 34 0 19 5 38 10
41 6 3 10 17 10 29 0 13 7 40 15 59 8 20 15 52 15 72 0 19 9 62 21 95 11 32
21 74 21 92 2 46 25 98 44 98 12 0 15 -7 11 -27 -3 -16 -10 -53 -15 -83 -6
-30 -16 -68 -23 -85 -16 -38 -14 -30 -23 -100 -4 -33 -14 -85 -23 -115 -34
-129 -61 -251 -68 -315 -7 -61 -39 -232 -53 -288 -10 -38 -9 -39 21 -52 18 -8
40 -23 49 -34 10 -12 24 -21 32 -21 7 0 33 -11 57 -24 24 -14 70 -32 101 -41
32 -9 60 -21 64 -26 3 -5 14 -7 25 -4 10 4 28 4 38 0 17 -5 20 -19 25 -113 4
-59 9 -144 12 -188 3 -52 -2 -151 -15 -270 -25 -225 -26 -269 -6 -484 14 -148
81 -521 105 -585 15 -40 9 -275 -7 -310 -14 -29 -90 -105 -105 -105 -18 0 -58
-77 -58 -110 0 -85 -11 -80 199 -80 l188 0 23 25 c17 19 24 36 23 63 -1 20 -2
56 -1 80 2 174 -1 349 -7 412 -4 45 0 159 10 285 9 116 18 325 21 465 4 214 8
269 26 340 11 47 27 90 34 96 11 9 14 55 14 213 0 162 3 201 13 201 16 0 27
-122 27 -305 1 -60 7 -150 14 -200 12 -76 12 -117 0 -269 -9 -122 -12 -283 -9
-508 3 -288 2 -334 -13 -371 -12 -32 -17 -81 -18 -213 -1 -94 -5 -197 -8 -228
-10 -76 -1 -86 78 -87 33 0 79 -4 101 -8 26 -4 51 -3 72 6 17 7 58 16 90 19
70 8 83 17 83 56 0 24 -14 44 -70 97 -92 88 -103 116 -88 218 10 67 9 84 -4
109 -12 26 -13 32 -1 40 20 13 136 453 154 584 5 36 14 90 19 120 6 30 13 116
17 191 4 110 2 150 -12 205 -26 103 -30 197 -11 217 9 8 12 17 7 19 -10 4 -5
41 34 230 l28 136 31 6 c17 3 63 8 101 12 43 4 79 14 93 24 12 10 46 23 75 30
95 22 137 41 137 63 0 22 -10 135 -36 422 l-15 170 36 85 c39 93 41 105 21
117 -19 12 -26 96 -14 193 12 109 23 419 23 675 0 156 -4 217 -18 276 -17 74
-40 535 -35 714 2 110 2 115 -10 212 -16 137 -60 214 -160 282 -22 16 -30 27
-24 34 13 16 9 46 -11 85 -13 24 -14 32 -5 32 10 0 10 2 1 8 -7 5 -18 35 -24
68 -6 32 -19 73 -30 90 -52 85 -119 237 -134 304 -33 145 -66 238 -131 366
-94 185 -136 244 -191 265 -34 13 -233 10 -263 -4z m350 -207 c31 -16 66 -88
91 -183 21 -82 21 -94 10 -170 -7 -45 -18 -98 -24 -117 -11 -33 -12 -30 -20
60 -4 52 -9 129 -12 170 -6 121 -14 151 -45 187 -17 19 -30 40 -30 48 0 18 5
18 30 5z"/>
<path d="M3197 3 c1762 -2 4644 -2 6405 0 1762 1 321 2 -3202 2 -3523 0 -4964
-1 -3203 -2z"/>
</g>
</svg>
