<?xml version="1.0" standalone="no"?>
<!DOCTYPE svg PUBLIC "-//W3C//DTD SVG 20010904//EN"
 "http://www.w3.org/TR/2001/REC-SVG-20010904/DTD/svg10.dtd">
<svg version="1.0" xmlns="http://www.w3.org/2000/svg"
 width="1280.000000pt" height="720.000000pt" viewBox="0 0 1280.000000 720.000000"
 preserveAspectRatio="xMidYMid meet">
<metadata>
Created by potrace 1.16, written by Peter Selinger 2001-2019
</metadata>
<g transform="translate(0.000000,720.000000) scale(0.100000,-0.100000)"
fill="#000000" stroke="none">
<path d="M6261 7049 c-75 -12 -93 -29 -111 -108 -7 -30 -20 -62 -30 -70 -33
-29 -98 -173 -105 -233 -3 -31 -26 -114 -51 -185 -25 -72 -44 -146 -44 -170 0
-24 -4 -43 -8 -43 -4 0 -16 -33 -26 -72 -10 -40 -25 -85 -32 -100 -8 -15 -14
-36 -14 -48 0 -11 -4 -20 -9 -20 -10 0 -41 -105 -41 -138 0 -12 -4 -22 -9 -22
-5 0 -12 -18 -16 -40 -4 -22 -11 -40 -16 -40 -5 0 -9 -8 -9 -17 0 -10 -9 -33
-20 -51 -21 -34 -26 -62 -11 -62 5 0 12 7 15 16 9 22 28 6 20 -18 -3 -11 -14
-28 -24 -38 -34 -34 -59 -138 -70 -295 -8 -125 -40 -319 -66 -409 -9 -32 -54
-149 -63 -166 -4 -8 -15 -40 -24 -70 -9 -31 -25 -65 -37 -77 -11 -12 -20 -27
-20 -33 0 -10 -20 -50 -30 -60 -12 -11 -64 -130 -76 -170 -4 -14 -17 -47 -30
-74 -13 -28 -24 -56 -24 -65 0 -8 -9 -33 -19 -55 -10 -23 -27 -57 -36 -78 -10
-22 -26 -38 -41 -42 -28 -7 -31 -21 -6 -35 16 -9 16 -10 -3 -17 -11 -4 -38
-14 -60 -24 -23 -9 -56 -20 -75 -24 -19 -4 -53 -18 -75 -31 l-40 -25 55 -1
c30 0 74 0 98 1 39 1 42 0 42 -25 l0 -26 -107 4 c-173 5 -202 -16 -204 -149
-1 -102 8 -148 39 -204 44 -76 62 -76 62 1 0 27 5 49 10 49 6 0 10 -4 10 -10
0 -18 50 -10 71 11 18 18 25 20 40 10 27 -16 81 -13 104 7 11 10 33 33 50 51
23 25 27 34 16 40 -20 13 -5 45 16 37 18 -7 33 9 33 36 0 9 32 47 71 85 68 65
137 172 121 187 -3 4 -1 11 6 15 15 9 39 50 83 144 22 45 38 67 50 67 11 0 20
10 24 28 3 15 24 54 45 86 22 32 40 65 40 72 0 8 7 14 15 14 9 0 20 12 25 28
6 15 15 36 20 47 5 11 16 49 25 84 9 35 22 80 30 100 7 20 20 57 30 84 15 44
45 65 45 33 0 -48 -131 -425 -190 -549 -55 -116 -89 -226 -101 -333 -5 -51
-14 -107 -19 -126 -6 -18 -10 -59 -10 -90 0 -33 -4 -58 -10 -58 -7 0 -8 -40
-4 -119 8 -136 -12 -267 -53 -358 -20 -45 -23 -67 -23 -170 0 -66 -4 -123 -9
-128 -5 -6 -7 -49 -4 -96 l6 -86 48 -22 c28 -12 70 -21 98 -21 27 0 78 -9 113
-20 34 -11 86 -20 115 -20 30 0 55 -5 60 -12 11 -18 13 -378 2 -378 -5 0 -9
-10 -9 -21 0 -12 -13 -43 -29 -68 -15 -26 -31 -57 -35 -68 -4 -12 -13 -27 -21
-33 -8 -7 -15 -21 -15 -30 0 -10 -4 -20 -9 -22 -9 -3 -53 -118 -72 -188 -23
-81 -50 -321 -64 -552 -9 -164 -19 -265 -30 -300 -9 -29 -19 -73 -21 -98 -2
-25 -14 -65 -25 -89 -16 -34 -19 -55 -14 -90 9 -64 26 -121 37 -121 5 0 18 -9
30 -20 62 -57 129 -67 429 -62 l146 2 12 41 c12 39 11 43 -12 66 -28 28 -80
42 -154 43 -29 0 -53 5 -53 10 0 6 6 10 13 10 6 0 18 4 26 9 19 12 -16 60 -45
61 -23 0 -29 11 -60 109 -29 93 -18 334 18 376 4 5 8 17 8 27 0 16 16 56 51
133 11 24 34 104 56 195 15 63 31 111 59 178 8 18 14 39 14 47 0 8 13 36 28
62 16 26 35 63 43 81 7 17 17 32 21 32 5 0 8 9 8 19 0 11 3 21 8 23 9 4 72
132 72 147 0 14 38 101 45 101 7 0 33 -59 40 -90 4 -16 11 -32 16 -35 5 -4 9
-13 9 -20 0 -8 11 -38 24 -67 13 -29 27 -64 30 -78 4 -14 13 -50 22 -80 34
-120 56 -238 69 -365 3 -37 20 -117 40 -194 39 -152 47 -223 40 -356 -4 -71
-11 -141 -17 -155 -16 -44 -52 -90 -71 -90 -14 0 -17 -5 -12 -20 5 -15 0 -23
-19 -32 -14 -6 -26 -15 -26 -20 0 -4 -5 -8 -10 -8 -6 0 -24 -14 -41 -31 -28
-28 -30 -36 -25 -72 9 -54 12 -57 56 -57 21 0 73 -5 114 -11 94 -13 205 1 267
33 37 19 46 30 54 64 6 22 18 48 28 58 21 21 22 76 3 119 -8 18 -16 72 -19
121 -3 49 -9 91 -15 95 -10 7 0 242 17 356 13 92 14 179 2 355 -9 148 -18 201
-46 279 -8 24 -15 52 -15 62 0 11 -9 28 -20 39 -11 11 -20 31 -20 45 0 14 -9
33 -20 42 -13 11 -16 19 -9 24 8 5 8 12 0 27 -7 13 -11 91 -11 211 l0 191 89
0 c155 0 163 5 175 119 4 36 12 60 26 73 16 15 20 31 20 89 0 39 7 97 15 128
28 108 65 397 72 551 l6 155 67 28 c36 15 72 27 78 27 7 0 12 6 12 14 0 8 13
17 29 21 15 3 38 14 50 23 38 29 91 84 91 93 0 5 7 9 15 9 8 0 15 5 15 12 0 7
13 26 28 43 19 19 35 54 47 98 9 37 24 74 31 82 8 7 14 34 14 59 0 26 8 59 19
78 11 18 23 50 26 71 4 22 13 37 21 37 8 0 14 10 14 25 0 14 5 25 10 25 6 0
10 7 10 15 0 8 -4 15 -10 15 -6 0 -9 60 -7 157 1 117 -1 157 -11 161 -6 2 -12
17 -12 33 0 30 -21 120 -30 129 -15 15 -30 53 -30 77 0 17 -8 33 -20 41 -11 7
-20 17 -20 23 0 5 -9 19 -20 31 -11 12 -20 32 -20 45 0 14 -6 23 -15 23 -8 0
-15 7 -15 15 0 9 -7 18 -15 21 -13 6 -75 87 -75 100 0 3 -13 22 -29 42 -15 20
-50 87 -76 149 -26 61 -59 123 -72 137 -12 14 -23 28 -23 31 0 4 -7 13 -15 21
-8 9 -15 24 -15 33 0 10 -7 24 -15 31 -8 7 -12 17 -9 22 3 5 15 1 27 -9 l21
-18 -17 27 c-9 15 -17 34 -17 43 0 8 -9 15 -20 15 -11 0 -20 6 -20 13 0 7 -9
23 -20 35 -11 12 -20 28 -20 36 0 9 -11 23 -24 31 -16 11 -22 22 -19 35 4 14
0 20 -11 20 -14 0 -66 92 -66 118 0 6 -4 12 -8 14 -4 2 -18 20 -31 41 -12 20
-27 37 -32 37 -5 0 -9 6 -9 13 0 23 -25 67 -37 67 -7 0 -13 8 -13 19 0 10 -6
24 -14 30 -8 6 -16 24 -19 39 -12 57 -61 227 -67 232 -4 3 -10 20 -13 39 -10
48 -48 121 -64 121 -7 0 -13 9 -13 20 0 28 -54 120 -95 165 -19 20 -35 41 -35
46 0 5 -7 9 -15 9 -8 0 -15 8 -15 18 -1 9 -21 30 -45 45 -36 23 -59 29 -117
32 -40 2 -102 -1 -137 -6z m375 -316 c18 -33 38 -88 44 -121 13 -62 7 -132
-10 -132 -6 0 -10 -18 -10 -40 0 -22 -4 -40 -10 -40 -5 0 -10 16 -10 36 0 23
-6 41 -16 49 -9 6 -20 34 -24 61 -7 41 -5 52 12 70 19 21 19 22 -6 84 -47 114
-26 136 30 33z m534 -963 c13 -8 13 -10 -2 -10 -9 0 -20 5 -23 10 -8 13 5 13
25 0z m-8 -596 c18 -20 47 -51 63 -69 45 -49 55 -63 55 -75 0 -5 4 -10 8 -10
5 0 17 -18 27 -40 10 -22 45 -68 77 -101 32 -33 58 -67 58 -75 0 -8 5 -14 11
-14 19 0 56 -46 69 -86 9 -26 10 -71 5 -153 -4 -64 -8 -200 -9 -304 l-2 -187
-29 -30 c-16 -17 -39 -30 -51 -30 -13 0 -26 -4 -29 -10 -3 -5 -15 -10 -26 -10
-21 0 -102 -39 -107 -52 -2 -5 -12 -8 -23 -8 -10 0 -19 -4 -19 -8 0 -11 -40
-29 -82 -37 l-34 -6 -12 60 c-7 33 -29 108 -48 168 -31 94 -35 117 -31 178 4
68 -7 174 -38 347 -17 95 -19 160 -6 174 5 5 11 50 15 99 14 224 44 307 113
314 7 0 27 -15 45 -35z m88 -1356 c0 -28 -48 -58 -91 -58 -21 0 -29 5 -29 18
0 22 57 61 93 61 22 1 27 -3 27 -21z"/>
</g>
</svg>
