<?xml version="1.0" standalone="no"?>
<!DOCTYPE svg PUBLIC "-//W3C//DTD SVG 20010904//EN"
 "http://www.w3.org/TR/2001/REC-SVG-20010904/DTD/svg10.dtd">
<svg version="1.0" xmlns="http://www.w3.org/2000/svg"
 width="1280.000000pt" height="720.000000pt" viewBox="0 0 1280.000000 720.000000"
 preserveAspectRatio="xMidYMid meet">
<metadata>
Created by potrace 1.16, written by Peter Selinger 2001-2019
</metadata>
<g transform="translate(0.000000,720.000000) scale(0.100000,-0.100000)"
fill="#000000" stroke="none">
<path d="M6295 7079 c-27 -6 -60 -19 -71 -30 -23 -22 -46 -92 -37 -115 3 -8
-2 -17 -11 -20 -9 -3 -16 -12 -16 -20 0 -8 -4 -14 -8 -14 -5 0 -23 -30 -40
-68 -24 -51 -32 -81 -32 -123 0 -50 -23 -147 -49 -204 -24 -53 -39 -112 -47
-185 -6 -53 -77 -220 -94 -220 -4 0 -10 -13 -13 -29 -3 -16 -13 -36 -22 -44
-8 -9 -15 -20 -15 -26 0 -6 -4 -11 -10 -11 -5 0 -12 -11 -16 -25 -3 -14 -10
-25 -14 -25 -16 0 -34 -75 -31 -127 3 -48 0 -55 -30 -83 -19 -16 -39 -30 -46
-30 -7 0 -13 -9 -13 -19 0 -10 -7 -21 -15 -25 -8 -3 -15 -12 -15 -21 0 -8 -7
-15 -16 -15 -9 0 -23 -20 -35 -47 -11 -27 -24 -56 -29 -65 -6 -10 -10 -25 -10
-33 0 -8 -4 -15 -8 -15 -8 0 -52 -115 -52 -136 0 -7 -13 -26 -30 -44 -16 -18
-30 -38 -30 -46 0 -8 -4 -14 -8 -14 -5 0 -18 -18 -31 -40 -12 -22 -26 -40 -32
-40 -5 0 -9 -11 -9 -25 0 -14 -4 -25 -10 -25 -5 0 -10 -9 -10 -20 0 -20 -34
-82 -101 -183 -41 -61 -69 -153 -68 -222 0 -40 63 -337 75 -357 4 -6 10 -24
15 -42 7 -31 47 -128 88 -219 12 -27 26 -72 31 -100 5 -29 25 -101 46 -162 28
-84 39 -135 45 -218 5 -61 15 -122 24 -139 8 -17 15 -36 15 -41 0 -6 6 -18 13
-26 18 -21 7 -249 -12 -260 -8 -6 -14 -37 -15 -92 -1 -46 -7 -93 -13 -104 -6
-11 -13 -64 -16 -117 -6 -108 -7 -105 71 -146 23 -13 42 -18 42 -13 0 18 17
12 46 -14 15 -14 38 -25 52 -25 23 0 134 -30 190 -51 32 -12 40 -43 43 -161 3
-95 1 -107 -20 -136 -17 -25 -20 -36 -12 -46 9 -11 8 -25 -5 -57 -9 -24 -21
-48 -26 -54 -4 -5 -8 -22 -8 -37 0 -17 -5 -28 -14 -28 -7 0 -22 -27 -34 -62
-11 -35 -29 -84 -41 -110 -56 -131 -85 -359 -86 -683 -1 -234 -3 -253 -23
-303 -12 -29 -22 -66 -22 -82 0 -17 -11 -53 -25 -80 -20 -40 -25 -64 -25 -125
0 -60 3 -75 15 -75 10 0 15 -10 15 -30 0 -28 6 -33 67 -61 61 -28 73 -30 137
-24 39 3 117 8 174 11 l102 5 0 27 c0 15 7 40 15 56 8 15 15 29 15 31 0 6 -39
44 -72 68 -21 15 -38 34 -38 42 0 7 -6 20 -13 27 -7 7 -22 36 -33 63 -16 41
-19 74 -18 190 1 125 5 152 33 254 17 63 34 118 38 124 7 11 39 129 57 208 7
31 20 78 29 105 9 27 24 79 34 117 10 37 21 67 25 67 5 0 8 13 8 29 0 16 7 34
15 41 8 7 15 19 15 26 0 20 33 94 42 94 5 0 8 11 8 25 0 14 4 25 8 25 5 0 15
18 22 40 7 22 17 40 21 40 5 0 14 20 20 45 6 25 15 45 19 45 8 0 40 72 40 90
0 6 -7 10 -15 10 -8 0 -15 5 -15 10 0 6 7 10 16 10 13 0 15 6 9 28 -11 43 -18
199 -10 248 4 29 11 44 21 44 8 0 14 -9 14 -19 0 -13 8 -21 22 -23 14 -2 25
-13 29 -28 11 -41 10 -222 -2 -260 -6 -19 -12 -107 -14 -195 -2 -106 -6 -160
-14 -163 -6 -2 -11 -21 -11 -42 0 -21 -4 -41 -9 -44 -5 -3 -11 -20 -13 -38 -6
-45 -38 -169 -49 -190 -5 -10 -9 -37 -9 -60 -1 -41 -9 -101 -44 -333 -8 -55
-18 -140 -21 -190 -6 -87 -19 -147 -52 -249 -25 -76 -31 -124 -22 -164 5 -23
4 -49 -2 -70 -8 -24 -8 -37 1 -47 7 -8 9 -15 6 -15 -4 0 -2 -9 4 -20 12 -22
83 -60 112 -60 10 0 18 -4 18 -9 0 -14 147 -36 237 -35 79 0 163 19 163 36 0
4 9 8 20 8 25 0 40 29 40 75 0 32 -4 38 -35 51 -19 7 -50 14 -70 14 -19 0 -35
5 -35 10 0 6 -7 10 -15 10 -18 0 -65 47 -65 65 0 8 -7 15 -15 15 -8 0 -15 5
-15 11 0 6 -11 25 -25 43 -22 29 -25 43 -25 112 0 81 7 106 53 207 15 32 27
61 27 66 0 12 43 115 50 121 3 3 17 40 31 82 13 43 27 78 32 78 4 0 7 16 7 35
0 20 7 52 16 73 30 69 76 197 86 237 5 22 14 105 19 185 5 79 14 159 19 176 6
18 12 51 13 73 1 32 5 41 19 41 10 0 15 6 13 13 -7 19 -17 71 -17 87 0 36 15
120 22 120 6 0 15 37 24 105 2 17 12 21 77 26 110 8 269 43 280 61 3 5 2 28
-2 51 -4 23 -18 136 -30 251 l-21 209 33 66 c70 140 86 206 58 236 -5 5 -9 33
-9 62 0 40 -4 53 -15 53 -11 0 -15 11 -15 40 0 27 4 40 14 40 17 0 27 146 19
290 -4 72 -3 104 6 109 7 5 15 74 22 192 11 172 10 193 -10 324 -26 161 -43
488 -45 835 -1 222 -2 237 -22 265 -12 17 -25 41 -29 55 -4 14 -34 51 -67 82
-56 54 -58 57 -38 68 18 10 19 13 6 26 -10 10 -13 25 -9 44 3 17 1 30 -4 30
-6 0 -8 20 -5 48 5 53 -11 124 -33 146 -8 8 -15 21 -15 29 0 9 -3 17 -7 19
-11 4 -73 130 -73 146 0 6 -3 12 -8 12 -4 0 -15 28 -25 63 -10 34 -25 75 -33
90 -8 16 -14 39 -14 52 0 27 -15 67 -81 210 -24 53 -59 108 -71 113 -5 2 -8
10 -8 18 0 8 -6 14 -14 14 -7 0 -16 9 -19 21 -3 11 -15 23 -26 26 -12 3 -21 9
-21 13 0 9 -80 89 -107 108 -55 37 -146 49 -238 31z m350 -363 c1 0 6 -14 13
-29 34 -79 -11 -207 -48 -138 -14 27 -13 88 2 93 16 6 14 68 -3 80 -10 6 -7 7
11 2 14 -3 25 -7 25 -8z m-797 -1528 c14 -14 16 -228 3 -328 -5 -36 -14 -105
-21 -155 -12 -94 -38 -213 -50 -230 -4 -5 -11 -28 -14 -50 -4 -22 -15 -58 -26
-80 -10 -22 -24 -55 -31 -72 -8 -18 -17 -33 -21 -33 -5 0 -8 -8 -8 -17 0 -10
-18 -69 -40 -131 -22 -62 -40 -126 -40 -143 0 -41 -15 -36 -29 11 -6 22 -16
40 -21 40 -6 0 -10 11 -10 25 0 14 -9 67 -19 118 -11 50 -27 144 -36 207 -10
63 -23 141 -31 173 -20 85 -19 147 4 147 10 0 30 22 50 58 18 31 53 86 78 122
24 36 44 69 44 73 0 5 10 23 23 40 33 47 87 138 87 148 0 4 9 14 19 21 11 8
25 26 32 41 13 29 37 35 57 15z m1156 -450 c3 -24 12 -122 20 -218 10 -112 24
-209 40 -270 14 -52 31 -135 36 -185 6 -49 18 -118 26 -151 16 -66 15 -189 -1
-189 -5 0 -13 32 -16 71 -4 40 -12 87 -17 105 -6 19 -18 84 -27 144 -15 103
-29 176 -55 270 -6 22 -15 101 -20 175 -5 74 -12 170 -16 213 -6 66 -5 77 9
77 10 0 17 -13 21 -42z"/>
</g>
</svg>
