<?xml version="1.0" standalone="no"?>
<!DOCTYPE svg PUBLIC "-//W3C//DTD SVG 20010904//EN"
 "http://www.w3.org/TR/2001/REC-SVG-20010904/DTD/svg10.dtd">
<svg version="1.0" xmlns="http://www.w3.org/2000/svg"
 width="1280.000000pt" height="720.000000pt" viewBox="0 0 1280.000000 720.000000"
 preserveAspectRatio="xMidYMid meet">
<metadata>
Created by potrace 1.16, written by Peter Selinger 2001-2019
</metadata>
<g transform="translate(0.000000,720.000000) scale(0.100000,-0.100000)"
fill="#000000" stroke="none">
<path d="M6225 7110 c-11 -4 -30 -10 -42 -15 -13 -4 -23 -16 -23 -26 0 -11 -7
-22 -15 -25 -10 -4 -15 -19 -15 -43 0 -29 -6 -40 -30 -56 -17 -11 -33 -29 -36
-40 -4 -11 -20 -32 -35 -48 -16 -15 -29 -34 -29 -42 0 -8 -4 -15 -8 -15 -5 0
-17 -17 -28 -37 -10 -21 -22 -40 -26 -44 -4 -3 -12 -27 -17 -55 -6 -27 -20
-78 -31 -114 -15 -45 -24 -107 -30 -205 -5 -77 -13 -153 -18 -170 -11 -35 -34
-88 -42 -95 -3 -3 -16 -25 -29 -50 -13 -25 -39 -68 -57 -97 -29 -44 -34 -59
-33 -110 1 -32 3 -50 6 -40 6 22 32 22 40 0 4 -11 0 -21 -12 -27 -38 -23 -113
-106 -118 -133 -3 -15 -14 -53 -25 -83 -10 -30 -22 -81 -26 -112 -4 -32 -12
-60 -17 -63 -5 -4 -9 -17 -9 -31 0 -14 -14 -52 -32 -86 -22 -42 -31 -73 -30
-99 2 -34 -18 -78 -57 -125 -16 -20 -61 -120 -61 -137 0 -10 -8 -17 -19 -17
-10 0 -30 -15 -43 -33 -25 -32 -37 -40 -115 -72 -24 -10 -43 -24 -43 -32 0 -9
-15 -13 -49 -13 -31 0 -53 -5 -61 -15 -7 -8 -19 -15 -27 -15 -7 0 -16 -7 -19
-15 -4 -10 -20 -15 -45 -15 -21 0 -39 -4 -39 -9 0 -4 -54 -14 -120 -21 -88 -9
-120 -17 -120 -26 0 -17 -38 -18 -107 -2 -44 11 -53 16 -53 35 0 12 -5 25 -11
28 -5 4 -14 17 -20 28 -16 39 -71 131 -87 150 -8 9 -20 17 -27 17 -6 0 -22 11
-34 24 -33 35 -109 65 -148 59 -37 -6 -38 -8 -15 -44 54 -85 82 -139 82 -158
0 -11 5 -21 10 -21 6 0 10 -6 10 -14 0 -19 19 -53 55 -101 69 -91 95 -105 190
-105 48 0 75 -4 75 -11 0 -15 538 -7 600 10 25 6 80 18 123 27 42 9 77 19 77
23 0 4 16 13 37 20 20 7 56 35 81 62 25 27 52 49 62 49 9 0 37 33 67 78 61 92
83 137 83 167 0 13 6 25 13 28 7 2 19 28 26 56 7 28 19 55 27 59 8 5 18 21 23
38 4 17 15 30 27 32 18 3 19 -7 22 -237 3 -247 0 -268 -38 -301 -18 -16 -32
-52 -79 -210 -18 -58 -38 -116 -45 -130 -26 -49 -64 -166 -71 -215 -4 -27 -11
-151 -16 -275 -15 -409 -28 -550 -68 -748 -5 -24 -5 -45 0 -48 5 -3 4 -14 -1
-25 -6 -11 -13 -57 -16 -102 l-6 -82 38 -39 39 -38 159 3 160 4 7 -25 c4 -14
8 -74 9 -135 2 -78 5 -101 11 -80 5 19 7 -12 6 -88 -2 -97 -5 -121 -19 -131
-19 -14 -26 -45 -15 -64 5 -6 4 -12 -1 -12 -6 0 -12 -10 -16 -22 -3 -13 -21
-41 -41 -62 -19 -22 -37 -48 -41 -58 -3 -10 -10 -18 -15 -18 -5 0 -9 -8 -9
-17 -1 -20 -33 -63 -47 -63 -5 0 -19 -24 -31 -54 -13 -29 -37 -73 -53 -97 -16
-24 -29 -53 -29 -65 0 -11 -9 -45 -19 -75 -54 -150 -66 -184 -71 -189 -9 -9
-70 -264 -70 -292 0 -16 -4 -28 -10 -28 -5 0 -10 -16 -10 -36 0 -20 -8 -48
-18 -62 -10 -15 -26 -43 -35 -62 -9 -19 -26 -46 -39 -60 -30 -33 -48 -86 -48
-143 0 -42 4 -49 44 -81 23 -20 47 -36 52 -36 5 0 31 -20 58 -44 38 -34 73
-52 155 -81 143 -50 172 -55 271 -49 185 11 186 11 198 50 18 60 17 61 -121
95 -35 8 -55 21 -79 50 -18 22 -38 39 -45 39 -7 0 -13 4 -13 9 0 5 -9 13 -20
16 -11 3 -20 12 -20 20 0 7 -6 15 -13 18 -7 3 -25 43 -41 89 l-28 84 22 89
c12 50 25 95 29 100 4 6 16 30 25 55 28 72 69 150 78 150 4 0 8 7 8 15 0 8 4
15 9 15 5 0 11 18 15 40 3 22 12 40 19 40 7 0 18 15 25 33 32 76 58 120 74
125 10 2 18 14 18 26 0 12 9 32 20 44 11 12 20 26 20 32 0 6 18 33 40 61 22
28 40 57 40 65 0 8 9 14 20 14 15 0 20 7 20 25 0 14 5 25 10 25 6 0 10 7 10
15 0 8 6 15 13 15 7 0 25 24 41 53 15 29 40 67 57 84 16 18 29 38 29 45 1 21
33 55 58 61 16 4 22 1 22 -13 0 -17 56 -166 70 -185 9 -13 24 -83 45 -210 8
-55 22 -138 30 -185 8 -47 16 -109 19 -137 3 -29 22 -119 43 -200 l38 -148 -3
-240 c-3 -215 -5 -242 -20 -255 -10 -8 -23 -27 -30 -42 -6 -16 -16 -28 -22
-28 -16 0 -12 -96 4 -109 9 -8 63 -13 153 -13 127 -2 142 0 183 22 25 12 50
30 57 39 18 23 16 51 -4 58 -10 3 -33 20 -50 37 -31 29 -33 35 -33 99 0 53 3
67 15 67 12 0 15 15 15 76 0 77 -6 93 -45 108 -16 7 -17 9 -5 14 25 8 30 24
30 92 0 36 10 145 22 243 19 158 20 184 8 230 -9 32 -13 101 -13 182 1 131 -2
158 -18 134 -6 -10 -9 -6 -9 14 0 15 5 27 12 27 9 0 9 3 0 12 -7 7 -12 24 -12
40 0 15 -9 42 -20 60 -11 18 -20 42 -20 53 0 35 -32 155 -42 155 -13 0 1 341
19 458 12 78 20 102 32 103 36 4 87 -4 100 -14 19 -16 65 -10 156 23 l80 28
-3 48 c-2 27 -9 87 -17 134 -25 153 -71 555 -86 750 -5 69 -7 177 -3 240 6
116 -7 230 -27 230 -5 0 -9 6 -9 14 0 7 -7 27 -15 42 -9 18 -15 57 -15 99 0
39 -13 151 -30 250 -32 196 -36 235 -20 235 13 0 4 110 -12 152 -7 18 -6 60 2
135 6 59 13 109 15 111 10 10 56 -55 65 -92 6 -23 24 -70 40 -106 16 -36 38
-89 49 -119 21 -57 46 -91 66 -91 17 0 96 -81 92 -93 -3 -11 82 -84 123 -105
14 -7 48 -26 75 -41 28 -16 57 -30 65 -30 8 -1 26 -10 40 -21 14 -11 32 -20
40 -20 8 0 21 -9 28 -20 9 -16 23 -20 61 -20 28 0 52 -4 55 -9 3 -5 33 -11 67
-13 34 -2 64 -10 68 -17 6 -10 33 -11 112 -6 102 7 105 8 138 42 19 19 47 40
62 45 16 5 29 15 29 22 0 6 22 19 49 29 43 15 59 16 126 6 93 -14 99 -10 100
69 l0 57 -110 8 c-135 10 -163 2 -224 -65 l-45 -48 -115 0 c-64 0 -145 5 -181
11 -61 10 -151 45 -158 62 -2 4 -8 7 -14 7 -13 0 -68 56 -68 69 0 6 -9 11 -20
11 -11 0 -20 7 -20 15 0 8 -9 20 -20 27 -11 7 -20 18 -20 25 0 7 -4 13 -10 13
-5 0 -15 18 -21 40 -9 28 -18 40 -31 40 -12 0 -18 7 -18 24 0 15 -15 38 -40
62 -28 27 -40 46 -40 66 0 24 -21 70 -40 88 -16 15 -40 76 -40 100 0 16 -4 30
-10 32 -12 4 -40 112 -40 155 0 18 -4 33 -9 33 -4 0 -11 33 -15 73 -7 73 -41
166 -62 167 -14 0 -24 23 -24 56 0 13 -4 24 -10 24 -5 0 -10 7 -10 15 0 8 5
15 10 15 16 0 12 23 -15 78 -14 29 -32 52 -40 52 -8 0 -15 9 -15 19 0 11 -4
22 -9 26 -5 3 -13 20 -17 38 -3 17 -17 54 -30 81 -13 28 -24 56 -24 63 0 7 -6
13 -13 13 -8 0 -19 18 -26 40 -6 22 -16 40 -21 40 -5 0 -12 10 -15 23 -4 12
-13 36 -20 52 -24 59 -34 101 -41 173 -3 39 -11 72 -15 72 -5 0 -9 12 -9 28 0
27 -29 115 -43 128 -4 4 -7 13 -7 19 0 13 -54 108 -87 154 -49 69 -87 116 -95
119 -4 2 -8 8 -8 13 0 13 -52 58 -67 59 -7 0 -13 4 -13 9 0 17 -217 36 -255
21z m394 -342 c36 -80 44 -123 37 -199 -10 -120 -17 -169 -27 -169 -5 0 -9 -7
-9 -15 0 -8 -4 -15 -10 -15 -13 0 -13 27 -1 32 6 2 5 21 -1 48 -17 78 -22 182
-9 190 11 6 2 62 -24 148 -14 42 24 25 44 -20z"/>
</g>
</svg>
