<?xml version="1.0" standalone="no"?>
<!DOCTYPE svg PUBLIC "-//W3C//DTD SVG 20010904//EN"
 "http://www.w3.org/TR/2001/REC-SVG-20010904/DTD/svg10.dtd">
<svg version="1.0" xmlns="http://www.w3.org/2000/svg"
 width="1280.000000pt" height="720.000000pt" viewBox="0 0 1280.000000 720.000000"
 preserveAspectRatio="xMidYMid meet">
<metadata>
Created by potrace 1.16, written by Peter Selinger 2001-2019
</metadata>
<g transform="translate(0.000000,720.000000) scale(0.100000,-0.100000)"
fill="#000000" stroke="none">
<path d="M6277 7175 c-27 -7 -64 -24 -83 -37 -29 -19 -34 -29 -34 -61 0 -30
-6 -44 -30 -64 -16 -13 -30 -31 -30 -39 0 -8 -4 -14 -10 -14 -5 0 -10 -9 -10
-19 0 -10 -7 -21 -15 -25 -8 -3 -15 -12 -15 -21 0 -8 -3 -15 -8 -15 -18 0 -45
-73 -112 -305 -4 -16 -11 -75 -15 -130 -7 -124 -20 -183 -57 -260 -15 -33 -28
-72 -28 -88 0 -15 -9 -35 -20 -44 -11 -10 -20 -28 -20 -41 0 -12 -12 -33 -26
-46 -21 -17 -28 -34 -32 -74 -3 -34 -12 -60 -27 -76 -31 -33 -65 -109 -75
-170 -13 -77 -30 -239 -30 -292 0 -26 -4 -73 -10 -103 -5 -31 -16 -112 -24
-181 -8 -69 -21 -168 -30 -220 -34 -220 -39 -273 -40 -435 0 -93 5 -210 12
-260 13 -101 19 -318 10 -381 -3 -23 -11 -51 -18 -64 -6 -12 -23 -61 -37 -109
-21 -73 -25 -108 -27 -235 -1 -146 -1 -149 22 -157 20 -8 25 -4 42 37 11 25
20 54 20 64 0 11 11 35 24 54 15 22 26 57 30 95 6 57 9 61 32 61 28 0 28 -2
-3 -140 -8 -36 -18 -101 -23 -145 -13 -115 -29 -232 -40 -290 -5 -27 -9 -82
-9 -121 -1 -56 3 -74 17 -87 10 -10 24 -17 30 -17 6 0 46 -11 89 -24 43 -13
115 -32 161 -42 45 -9 82 -20 82 -23 0 -3 2 -83 4 -178 2 -94 0 -189 -5 -210
-4 -21 -20 -132 -35 -248 -26 -207 -28 -321 -9 -570 3 -47 33 -214 40 -225 8
-13 28 -202 27 -245 -9 -223 -12 -253 -31 -297 -11 -26 -29 -52 -40 -58 -12
-6 -21 -17 -21 -25 0 -8 -4 -15 -10 -15 -15 0 -13 -120 3 -124 148 -38 198
-45 272 -41 98 6 121 24 110 90 -4 22 -10 126 -13 230 -5 119 -12 198 -19 211
-19 33 -5 210 32 414 8 41 17 111 20 155 3 44 11 171 19 283 8 111 18 208 24
215 5 6 12 29 16 50 4 20 11 37 15 37 5 0 11 27 13 61 2 33 9 64 16 67 7 5 14
73 19 182 7 160 10 175 27 178 18 4 18 -2 11 -130 -10 -194 -10 -233 5 -336
11 -76 11 -131 2 -290 -6 -109 -10 -343 -9 -522 3 -286 1 -330 -14 -370 -14
-36 -18 -91 -22 -265 -6 -232 -5 -237 41 -262 30 -18 168 -16 217 2 22 8 59
14 82 15 37 0 45 4 58 29 11 23 13 36 4 58 -9 25 -41 63 -53 63 -11 0 -66 56
-66 67 0 7 -4 13 -9 13 -23 0 -32 69 -20 145 10 58 10 83 1 107 -9 25 -8 35 5
54 9 14 19 42 23 62 4 20 19 75 33 122 44 147 85 322 91 390 3 36 13 92 22
125 24 88 25 368 1 410 -21 38 -23 134 -2 161 18 23 19 51 3 56 -9 3 -9 18 0
64 6 32 19 100 27 149 9 50 21 107 27 127 12 40 13 40 113 53 28 3 64 11 80
16 17 5 76 20 133 33 57 13 106 26 109 29 3 3 -4 124 -15 269 -13 161 -17 264
-11 266 5 2 9 8 9 14 0 6 10 25 23 42 13 17 35 70 50 117 28 88 33 119 19 119
-4 0 -6 15 -4 34 2 19 -3 65 -11 103 -11 46 -15 103 -12 178 8 244 2 532 -15
703 -7 72 -16 132 -19 132 -3 0 -8 53 -9 118 -2 64 -7 119 -11 122 -12 8 -32
408 -26 495 7 90 -15 273 -38 318 -21 40 -87 117 -101 117 -6 0 -19 9 -28 19
-9 10 -24 24 -34 30 -13 7 -15 13 -8 18 8 6 9 24 2 63 -5 30 -12 84 -16 120
-5 43 -17 82 -36 115 -89 156 -123 237 -160 375 -17 65 -46 143 -69 185 -9 17
-21 41 -28 55 -56 122 -76 161 -103 200 -46 67 -68 90 -87 90 -10 0 -44 7 -76
15 -68 18 -121 18 -186 0z m345 -211 c23 -8 72 -113 93 -198 13 -54 15 -91 9
-177 -3 -60 -10 -109 -15 -109 -5 0 -9 -9 -9 -20 0 -11 -5 -20 -11 -20 -8 0
-9 24 -5 78 6 67 1 126 -21 250 -3 17 -9 32 -15 32 -5 0 -6 18 -3 44 7 42 5
47 -29 82 -36 37 -47 61 -23 50 6 -3 20 -9 29 -12z m-66 -271 c-10 -10 -19 5
-10 18 6 11 8 11 12 0 2 -7 1 -15 -2 -18z m104 -243 c0 -12 -7 -17 -22 -15
-32 3 -32 3 -19 18 15 19 41 17 41 -3z m-770 -1445 c0 -53 -7 -131 -16 -173
-9 -42 -16 -97 -16 -122 0 -50 -24 -216 -39 -270 -22 -77 -54 -150 -66 -150
-19 0 -16 43 12 184 14 69 25 148 25 175 0 28 6 55 13 63 19 19 47 182 47 276
0 89 5 112 26 112 11 0 14 -21 14 -95z m1298 -1040 c17 -89 16 -105 -6 -105
-16 0 -20 12 -28 74 -10 80 -9 96 10 96 6 0 17 -28 24 -65z m62 -485 c0 -83
-1 -90 -20 -90 -19 0 -20 7 -20 90 0 83 1 90 20 90 19 0 20 -7 20 -90z"/>
</g>
</svg>
