<?xml version="1.0" standalone="no"?>
<!DOCTYPE svg PUBLIC "-//W3C//DTD SVG 20010904//EN"
 "http://www.w3.org/TR/2001/REC-SVG-20010904/DTD/svg10.dtd">
<svg version="1.0" xmlns="http://www.w3.org/2000/svg"
 width="1280.000000pt" height="720.000000pt" viewBox="0 0 1280.000000 720.000000"
 preserveAspectRatio="xMidYMid meet">
<metadata>
Created by potrace 1.16, written by Peter Selinger 2001-2019
</metadata>
<g transform="translate(0.000000,720.000000) scale(0.100000,-0.100000)"
fill="#000000" stroke="none">
<path d="M3011 6963 c-1 -47 3 -75 12 -80 6 -4 18 -20 26 -35 8 -16 38 -53 68
-84 29 -31 53 -61 53 -66 0 -5 -19 -8 -42 -6 -41 3 -43 2 -41 -23 l1 -27 -24
25 c-28 28 -31 43 -8 43 9 0 14 7 12 17 -4 22 -28 29 -28 9 0 -9 -7 -16 -15
-16 -23 0 -21 -132 2 -151 9 -8 18 -13 20 -11 2 1 22 -19 44 -45 88 -104 98
-113 125 -113 25 0 26 2 20 33 -3 17 -14 37 -23 44 -18 14 -21 45 -10 113 3
25 3 34 -1 20 -7 -22 -9 -23 -15 -7 -11 30 -8 37 18 37 14 0 29 -8 35 -20 6
-11 17 -20 25 -20 9 0 15 -10 15 -25 0 -22 4 -25 34 -25 88 0 89 36 4 128 -34
37 -67 73 -73 80 -5 7 -18 22 -27 33 -10 10 -18 22 -18 25 0 10 -58 64 -69 64
-6 0 -11 6 -11 13 0 6 -19 33 -43 58 -23 25 -47 54 -54 65 -10 16 -12 7 -12
-53z m129 -335 c0 -7 -5 -20 -10 -28 -8 -12 -10 -9 -10 13 0 15 5 27 10 27 6
0 10 -6 10 -12z"/>
<path d="M5760 6972 c0 -16 72 -32 92 -21 10 5 16 14 13 20 -8 11 -105 12
-105 1z"/>
<path d="M8584 6925 c-16 -13 -17 -16 -4 -24 17 -11 89 -4 105 11 28 25 -68
38 -101 13z"/>
<path d="M6240 6901 c0 -10 -8 -21 -19 -24 -11 -2 -26 -24 -37 -53 -10 -27
-24 -53 -31 -57 -7 -4 -21 -27 -31 -50 -11 -23 -28 -51 -39 -62 -23 -24 -53
-97 -53 -129 0 -13 -7 -37 -15 -52 -8 -16 -15 -39 -15 -51 0 -13 -4 -23 -8
-23 -7 0 -62 -127 -62 -144 0 -4 -8 -26 -19 -49 -10 -23 -22 -58 -25 -77 -12
-60 -61 -196 -76 -210 -12 -11 -50 -114 -50 -135 0 -13 -7 -25 -14 -28 -8 -3
-18 -22 -22 -41 -3 -20 -12 -36 -19 -36 -16 0 -25 -32 -25 -94 0 -33 -9 -67
-27 -105 -28 -55 -28 -59 -28 -245 0 -143 -3 -190 -12 -193 -8 -3 -13 -23 -13
-54 l0 -49 -40 0 c-22 0 -40 5 -40 10 0 6 -18 10 -40 10 -40 0 -40 0 -40 39
l0 40 -297 5 c-437 8 -1028 24 -1103 30 -36 3 -282 7 -547 9 l-483 4 0 -184 0
-183 203 0 c111 0 231 4 267 9 36 5 239 13 453 17 339 6 387 5 387 -8 0 -11
17 -17 61 -22 90 -9 96 -8 118 16 18 18 22 19 37 7 14 -11 112 -16 506 -24
268 -5 488 -7 488 -2 0 4 -92 7 -205 7 -143 0 -205 3 -205 11 0 8 -24 9 -80 4
-54 -5 -80 -4 -80 3 0 6 -19 12 -42 14 -40 4 484 -1 597 -5 l50 -2 3 -38 c4
-46 -13 -132 -33 -171 -8 -15 -15 -35 -15 -42 0 -8 -8 -14 -18 -14 -13 0 -23
-13 -32 -40 -7 -22 -16 -40 -20 -40 -4 0 -17 -31 -29 -69 -12 -38 -31 -79 -41
-91 -13 -15 -20 -38 -20 -63 0 -28 -8 -49 -30 -77 -16 -21 -30 -43 -30 -49 0
-6 -4 -11 -10 -11 -5 0 -10 -7 -10 -16 0 -28 -75 -91 -116 -97 -21 -4 -41 -3
-44 1 -7 9 -196 9 -206 0 -4 -4 -13 -3 -20 3 -9 8 -23 7 -49 -2 -29 -11 -34
-16 -28 -34 11 -30 4 -217 -9 -232 -8 -10 -8 -24 0 -51 6 -21 9 -105 7 -194
-2 -129 0 -158 11 -158 8 0 14 9 14 21 0 12 8 23 20 26 11 3 20 9 20 14 0 5 9
9 20 9 14 0 20 7 20 21 0 16 4 19 17 14 10 -4 28 -7 41 -6 18 1 22 -4 22 -29
0 -17 5 -30 10 -30 6 0 10 -7 10 -15 0 -8 -8 -15 -19 -15 -10 0 -21 -9 -24
-21 -3 -11 -15 -23 -26 -26 -12 -3 -22 -9 -22 -14 -1 -5 -2 -13 -3 -18 -2 -19
-16 -24 -31 -11 -11 9 -18 10 -28 1 -16 -13 -27 -5 -27 21 0 17 -29 27 -31 11
0 -5 -2 -25 -4 -47 l-4 -39 49 6 c30 4 50 2 50 -4 0 -5 11 -2 25 7 13 8 28 13
34 10 5 -3 144 -7 310 -7 176 -1 301 -6 301 -11 0 -5 -5 -18 -11 -29 -10 -20
-18 -20 -252 -14 -397 9 -521 15 -531 25 -10 10 -10 63 -2 600 3 188 2 275 -4
240 -5 -30 -11 -199 -15 -375 -7 -397 -12 -487 -27 -496 -7 -4 -396 -5 -865
-2 l-853 6 0 -21 c0 -21 5 -22 138 -25 l137 -3 -137 -2 c-129 -2 -138 -3 -138
-22 0 -16 8 -19 58 -22 54 -3 57 -4 60 -30 3 -28 3 -28 -57 -28 -54 0 -61 -2
-61 -20 0 -18 7 -20 55 -20 l55 0 0 -95 0 -95 -32 0 c-71 0 -78 -7 -78 -71 0
-48 3 -57 15 -53 8 4 15 1 15 -5 0 -6 -7 -11 -15 -11 -11 0 -15 -11 -15 -40 0
-35 3 -40 24 -40 22 0 24 -5 31 -77 4 -49 3 -79 -3 -81 -5 -1 -8 -12 -5 -22 3
-11 0 -20 -6 -20 -6 0 -11 5 -11 11 0 8 -5 8 -15 -1 -11 -9 -15 -32 -15 -81 0
-61 2 -69 19 -69 18 0 68 -48 89 -86 8 -15 13 -16 25 -6 8 7 18 23 21 36 6 23
36 45 36 26 0 -6 18 -10 40 -10 22 0 40 -4 40 -10 0 -5 8 -10 18 -10 13 0 23
13 32 40 13 40 30 54 30 25 0 -11 11 -15 38 -15 31 0 43 -7 72 -40 37 -43 50
-49 50 -25 0 8 4 15 9 15 5 0 12 18 16 40 7 44 26 52 43 18 l11 -23 0 23 c1
12 3 22 6 22 16 0 75 -73 75 -92 0 -21 0 -21 18 -2 9 10 25 36 34 57 17 36 19
37 73 37 l55 0 27 -57 c27 -58 27 -58 31 -25 2 18 15 44 30 59 25 25 34 27
122 30 52 1 87 0 78 -3 -24 -7 -26 -84 -3 -84 8 0 15 4 15 9 0 12 59 71 70 71
5 0 11 -6 13 -12 4 -10 6 -10 6 0 1 6 7 12 15 12 9 0 17 -17 21 -47 l8 -48 14
55 14 55 239 0 c132 0 240 -3 240 -6 0 -4 29 -4 64 -2 88 8 112 0 125 -39 l12
-33 19 25 c11 14 20 33 20 44 0 14 5 17 23 12 12 -3 30 -6 40 -6 9 0 17 -7 17
-15 0 -11 11 -15 40 -15 27 0 40 4 40 14 0 18 152 34 158 17 2 -6 10 -11 18
-11 8 0 14 -7 14 -15 0 -8 5 -15 10 -15 6 0 10 7 10 15 0 8 7 15 15 15 8 0 15
5 15 10 0 14 77 13 82 -1 3 -9 13 -9 40 0 49 16 305 12 319 -6 8 -9 6 -26 -7
-60 -9 -26 -21 -52 -26 -58 -4 -5 -8 -17 -8 -27 0 -10 -4 -18 -9 -18 -5 0 -26
-35 -47 -77 -22 -43 -49 -89 -61 -103 -13 -14 -23 -33 -23 -42 0 -10 -3 -18
-8 -18 -8 0 -27 -50 -44 -117 -6 -24 -15 -43 -20 -43 -4 0 -8 -18 -8 -40 0
-22 -4 -40 -10 -40 -5 0 -10 -18 -10 -39 0 -22 -4 -41 -9 -43 -9 -4 -51 -246
-51 -300 0 -20 -4 -59 -9 -85 -29 -149 -34 -173 -40 -173 -12 0 -40 -73 -51
-129 -5 -28 -20 -66 -34 -84 -26 -35 -44 -107 -26 -107 7 0 6 -11 -3 -32 -19
-46 -10 -128 14 -128 5 0 9 -6 9 -12 1 -20 47 -68 65 -68 14 0 16 -17 14 -132
-1 -124 0 -133 20 -146 12 -8 21 -21 21 -28 0 -11 31 -14 160 -14 l160 0 0 80
0 80 -40 0 c-29 0 -40 4 -40 15 0 11 11 15 40 15 36 0 40 3 40 25 0 21 5 25
30 25 28 0 30 2 30 38 0 39 -23 72 -49 72 -8 0 -10 17 -5 62 6 61 5 64 -25 92
-17 17 -31 36 -31 43 0 7 -6 13 -14 13 -9 0 -15 19 -20 61 -7 74 4 259 16 259
4 0 8 9 8 21 0 42 55 196 76 214 18 16 77 131 103 203 13 34 28 65 32 68 5 3
9 14 9 25 0 11 6 27 14 35 8 7 22 35 32 61 10 27 20 50 24 53 3 3 14 31 24 63
11 33 44 95 73 139 29 44 53 86 53 94 0 8 4 14 9 14 8 0 21 21 66 110 5 11 13
20 17 20 5 0 8 7 8 15 0 8 5 23 10 33 6 9 19 42 29 72 l19 55 53 3 c28 2 56
-1 60 -5 5 -5 13 -29 18 -53 5 -25 18 -72 29 -105 57 -169 65 -203 73 -330 5
-71 14 -152 20 -179 6 -27 13 -69 14 -95 3 -53 25 -189 50 -312 20 -96 22
-177 8 -334 -10 -119 -34 -186 -88 -245 -37 -41 -28 -153 13 -149 9 1 26 1 37
0 18 -2 18 -3 -5 -15 l-24 -14 42 -13 42 -12 0 -79 c0 -71 -2 -78 -20 -78 -17
0 -20 -7 -20 -40 0 -22 -4 -40 -10 -40 -5 0 -10 -18 -10 -40 l0 -40 160 0 160
0 0 80 c0 44 -4 80 -9 80 -5 0 -12 34 -16 75 -6 69 -5 79 21 130 16 30 36 58
46 61 12 3 18 15 18 33 0 37 -47 131 -65 131 -9 0 -15 9 -15 25 0 14 5 25 10
25 6 0 10 39 10 98 0 82 -3 102 -18 118 -12 12 -16 24 -11 34 5 8 15 69 24
135 8 66 22 158 30 203 17 94 23 160 32 380 4 104 3 152 -5 152 -6 0 -15 23
-21 50 -6 28 -17 61 -25 73 -8 12 -17 43 -21 69 -3 27 -10 48 -16 48 -5 0 -9
14 -9 31 0 16 -5 49 -11 72 -7 28 -7 51 0 68 9 25 13 26 60 21 l51 -5 0 42 0
41 -51 0 c-47 0 -52 -2 -62 -30 -6 -16 -15 -30 -19 -30 -9 0 -13 26 -8 50 1 8
5 48 9 89 l6 75 60 -3 c39 -1 90 6 140 20 44 12 112 27 150 33 l70 11 -3 45
c-2 25 -10 74 -18 110 -27 118 -54 274 -64 369 -6 52 -18 119 -27 150 -8 31
-17 67 -20 81 -3 14 -11 39 -18 56 -27 59 -65 190 -75 259 -5 39 -22 115 -36
170 -28 107 -53 222 -54 243 0 6 5 12 10 12 6 0 10 -6 10 -12 0 -7 18 -33 40
-58 22 -25 40 -51 40 -58 0 -6 32 -44 70 -83 39 -40 70 -74 70 -78 0 -3 16
-17 35 -30 44 -30 148 -39 244 -22 44 8 92 9 146 4 83 -9 129 -1 173 27 12 8
22 22 22 31 0 20 -45 59 -68 59 -10 0 -27 6 -38 14 -27 19 -170 29 -264 18
-68 -8 -70 -9 -25 -11 67 -2 101 -11 83 -22 -18 -12 -128 -11 -128 1 0 6 -17
10 -37 10 -42 0 -82 17 -94 40 -4 8 -13 36 -21 63 -7 26 -16 47 -20 47 -4 0
-8 9 -8 20 0 10 -8 43 -18 72 -35 100 -42 124 -42 151 0 14 -4 28 -9 32 -16 9
-41 110 -41 165 0 28 -5 61 -11 73 -7 11 -12 51 -12 87 l-1 65 90 3 c49 1 95
4 102 7 6 2 12 20 12 40 l0 35 -92 0 c-51 0 -98 4 -104 8 -15 11 -17 112 -2
112 66 3 954 -2 1023 -5 50 -2 317 -7 595 -10 278 -3 560 -8 628 -12 l122 -6
0 51 0 50 -77 7 c-43 3 -343 8 -667 11 -479 4 -591 3 -597 -8 -7 -10 -9 -10
-9 0 0 22 -30 13 -31 -10 l0 -23 -16 23 -15 22 -324 0 c-317 0 -324 0 -324 20
0 17 -7 20 -40 20 -33 0 -40 -3 -40 -20 0 -19 -7 -20 -110 -20 -89 0 -110 -3
-110 -14 0 -8 -4 -18 -10 -21 -6 -4 -10 17 -10 54 0 48 3 61 15 61 20 0 19 17
-2 28 -15 9 -15 16 -4 68 7 32 20 64 27 72 8 7 14 25 14 40 0 15 7 41 16 57
13 24 15 48 9 120 -3 49 -9 92 -13 95 -4 3 -16 22 -27 43 -11 20 -23 37 -27
37 -5 0 -8 7 -8 15 0 18 -49 64 -68 65 -9 0 -8 8 5 33 12 23 16 55 16 113 -1
70 -5 87 -28 125 -16 24 -31 46 -35 49 -4 3 -13 22 -21 43 -7 20 -17 37 -21
37 -4 0 -8 5 -8 12 0 6 -6 19 -13 27 -22 25 -78 197 -99 304 -6 31 -15 57 -20
57 -4 0 -8 9 -8 20 0 11 -4 28 -9 38 -23 42 -61 129 -67 155 -3 15 -9 27 -14
27 -4 0 -15 17 -26 37 -10 21 -23 43 -29 49 -5 6 -17 22 -25 34 -16 24 -68 88
-85 105 -36 34 -131 54 -257 55 -60 0 -68 -2 -68 -19z m438 -351 c42 -105 50
-171 28 -224 -9 -21 -16 -47 -16 -58 0 -16 -28 -58 -31 -46 -2 10 -8 62 -13
123 -4 39 -8 75 -11 82 -2 7 2 19 10 27 20 20 19 35 -10 112 -30 79 -29 76 -7
72 11 -2 28 -32 50 -88z m2585 -1697 c-13 -2 -33 -2 -45 0 -13 2 -3 4 22 4 25
0 35 -2 23 -4z m-4608 -43 c50 -19 23 -35 -59 -36 -59 -1 -79 3 -83 14 -3 8 0
18 8 23 19 12 102 11 134 -1z m65 -60 c0 -5 -4 -10 -9 -10 -6 0 -13 5 -16 10
-3 6 1 10 9 10 9 0 16 -4 16 -10z m2440 -134 c0 -3 -4 -8 -10 -11 -5 -3 -10
-1 -10 4 0 6 5 11 10 11 6 0 10 -2 10 -4z m-1340 -183 c0 -5 -12 -73 -26 -153
-14 -80 -28 -158 -30 -175 -3 -16 -17 -54 -30 -83 -13 -29 -24 -59 -24 -66 0
-29 -26 -34 -162 -31 -76 2 -142 7 -148 10 -17 10 -3 22 35 29 33 7 49 25 23
27 -10 0 -10 2 0 6 45 18 262 240 262 268 0 8 9 20 20 27 11 7 20 21 20 31 0
9 4 25 9 35 5 9 15 32 21 50 11 28 30 44 30 25z m-162 -539 c19 -5 23 -12 20
-38 -3 -30 -5 -31 -48 -31 -39 0 -45 3 -48 23 -7 49 15 62 76 46z m-43 -104
c3 -5 1 -10 -4 -10 -6 0 -11 5 -11 10 0 6 2 10 4 10 3 0 8 -4 11 -10z m-55
-70 c0 -13 -7 -20 -20 -20 -25 0 -25 9 -2 26 22 17 22 17 22 -6z m-600 0 c0
-13 -11 -13 -30 0 -12 8 -11 10 8 10 12 0 22 -4 22 -10z m480 0 c0 -5 -9 -10
-21 -10 -11 0 -17 5 -14 10 3 6 13 10 21 10 8 0 14 -4 14 -10z m-7 -37 c-7 -2
-19 -2 -25 0 -7 3 -2 5 12 5 14 0 19 -2 13 -5z m-195 -55 c19 -19 14 -28 -13
-28 -24 0 -34 18 -18 33 9 10 17 9 31 -5z m302 -25 c0 -7 -9 -13 -20 -13 -17
0 -18 3 -8 25 8 19 14 22 20 13 4 -7 8 -19 8 -25z m99 -26 c-2 -92 -13 -160
-28 -165 -11 -4 -13 3 -8 33 3 21 2 46 -3 55 -7 13 -5 21 5 30 17 14 20 46 5
55 -14 9 -12 42 3 48 22 8 27 -3 26 -56z m-509 38 c0 -8 -4 -15 -10 -15 -5 0
-7 7 -4 15 4 8 8 15 10 15 2 0 4 -7 4 -15z m313 -5 c3 6 4 5 3 -2 -3 -18 -46
-23 -60 -7 -8 9 -7 11 7 6 9 -4 17 -2 17 5 0 7 4 7 14 -1 10 -8 16 -9 19 -1z
m-83 -12 c0 -4 -18 -8 -40 -8 -22 0 -40 4 -40 8 0 5 18 9 40 9 22 0 40 -4 40
-9z m80 -58 c0 -5 -4 -10 -9 -10 -6 0 -13 5 -16 10 -3 6 1 10 9 10 9 0 16 -4
16 -10z m-204 -43 c-4 -29 -46 -37 -46 -9 0 11 3 27 6 36 9 24 45 1 40 -27z
m184 8 c0 -8 -4 -15 -10 -15 -5 0 -10 7 -10 15 0 8 5 15 10 15 6 0 10 -7 10
-15z m-485 -25 c-3 -5 -10 -10 -16 -10 -5 0 -9 5 -9 10 0 6 7 10 16 10 8 0 12
-4 9 -10z m120 0 c-3 -5 -12 -10 -20 -10 -8 0 -17 5 -20 10 -4 6 5 10 20 10
15 0 24 -4 20 -10z m90 0 c-3 -5 -15 -10 -26 -10 -10 0 -19 5 -19 10 0 6 12
10 26 10 14 0 23 -4 19 -10z m185 0 c0 -5 -7 -10 -15 -10 -8 0 -15 5 -15 10 0
6 7 10 15 10 8 0 15 -4 15 -10z m282 -135 c-6 -34 -12 -32 -12 6 0 16 4 28 9
25 4 -3 6 -17 3 -31z m-277 -31 c-5 -34 -3 -49 7 -55 9 -6 8 -9 -7 -9 -33 1
-50 22 -53 68 -2 41 -2 42 29 42 l31 0 -7 -46z m200 6 c0 -7 -6 -15 -12 -17
-8 -3 -13 4 -13 17 0 13 5 20 13 18 6 -3 12 -11 12 -18z m-178 -12 c-3 -8 -6
-5 -6 6 -1 11 2 17 5 13 3 -3 4 -12 1 -19z m-147 -14 c0 -8 -4 -14 -10 -14 -5
0 -10 9 -10 21 0 11 5 17 10 14 6 -3 10 -13 10 -21z m210 -34 c0 -5 -13 -10
-30 -10 -16 0 -30 5 -30 10 0 6 14 10 30 10 17 0 30 -4 30 -10z m-1853 -234
c9 -8 -197 -6 -219 2 -10 4 34 6 98 6 63 -1 117 -4 121 -8z m330 2 c2 -5 -34
-8 -81 -8 -53 0 -86 4 -86 10 0 13 159 10 167 -2z m-239 -5 c-16 -2 -40 -2
-55 0 -16 2 -3 4 27 4 30 0 43 -2 28 -4z m-378 -68 c0 -23 -3 -25 -49 -25 -52
0 -65 8 -55 34 4 12 20 16 55 16 46 0 49 -2 49 -25z m240 11 c0 -25 -22 -31
-108 -32 -85 -1 -96 3 -86 30 9 22 194 24 194 2z m370 -11 c0 -16 -141 -22
-157 -7 -7 8 -11 17 -9 20 6 11 166 -2 166 -13z m1110 -16 c0 -26 -3 -29 -20
-24 -11 3 -20 2 -20 -4 0 -10 -177 -20 -455 -24 l-170 -2 -3 35 c-2 21 2 38
11 45 9 6 124 9 335 7 l322 -3 0 -30z m396 14 c4 -14 2 -40 -5 -58 -7 -20 -9
-63 -5 -122 8 -103 0 -158 -22 -167 -21 -8 -164 5 -164 15 0 5 39 10 88 11
l87 2 -83 3 -82 4 1 62 c3 86 9 95 60 91 47 -4 79 9 80 34 1 11 4 8 9 -8 7
-21 8 -19 9 18 1 34 -2 42 -17 42 -10 0 -22 3 -26 8 -10 9 -56 10 -56 1 0 -3
-11 -6 -24 -6 -19 0 -26 6 -31 29 -9 41 8 56 68 61 29 2 64 4 79 5 22 2 29 -3
34 -25z m131 19 c14 -9 0 -85 -16 -90 -6 -2 -11 -23 -11 -48 0 -54 -30 -194
-42 -194 -4 0 -8 -9 -8 -21 0 -11 -4 -17 -10 -14 -9 6 -12 350 -3 368 5 9 74
9 90 -1z m-1847 -16 c0 -9 -15 -15 -43 -17 -57 -5 -77 -1 -77 17 0 11 15 14
60 14 45 0 60 -4 60 -14z m458 2 c-3 -9 -33 -14 -93 -16 -93 -3 -120 1 -110
18 10 16 208 13 203 -2z m162 -33 c0 -38 -3 -45 -20 -45 -16 0 -20 7 -20 30 0
17 -3 29 -7 29 -29 -5 -62 3 -67 16 -4 12 5 15 54 15 l60 0 0 -45z m868 7 c3
-29 1 -32 -20 -28 -13 3 -42 5 -65 5 -41 1 -43 2 -43 31 l0 31 63 -3 62 -3 3
-33z m-1030 -164 c-2 -37 -9 -73 -15 -79 -20 -20 -171 -9 -185 13 -10 16 -10
129 0 144 4 6 44 11 92 11 61 0 85 4 89 14 9 29 22 -39 19 -103z m-858 2 l0
-78 -55 -4 -55 -3 0 72 c0 97 1 99 60 95 l50 -4 0 -78z m226 24 c3 -19 3 -49
0 -66 -6 -33 -7 -33 -69 -36 -34 -1 -72 -4 -84 -6 -15 -3 -23 2 -27 17 -8 31
-7 120 2 134 11 17 112 21 144 5 19 -9 29 -24 34 -48z m766 48 c7 -7 14 -51
16 -107 4 -90 3 -95 -16 -95 -13 0 -22 9 -26 24 -8 31 -37 29 -53 -4 -12 -24
-12 -24 -13 15 -2 63 1 169 5 176 7 10 74 4 87 -9z m99 -42 c5 0 9 10 9 23 1
21 2 21 14 4 11 -14 35 -19 130 -24 109 -6 116 -5 117 13 1 18 2 18 6 1 3 -13
11 -17 23 -14 10 3 27 -1 38 -8 13 -10 60 -14 150 -16 l132 -2 0 -79 c0 -43
-3 -78 -7 -78 -5 0 -6 25 -5 55 3 35 0 55 -7 55 -6 0 -11 -19 -11 -44 l0 -44
-242 -7 c-202 -6 -284 -5 -380 4 -10 1 -10 112 -1 177 l7 49 9 -32 c6 -18 14
-33 18 -33z m-728 41 l37 -1 0 -74 0 -74 -57 -5 c-32 -2 -59 -3 -61 -2 -7 7
-14 115 -9 137 5 18 13 24 29 22 13 -1 40 -3 61 -3z m235 -5 c15 -9 16 -132 2
-141 -6 -4 -43 -7 -83 -7 l-72 -1 -3 65 c-2 46 1 70 11 79 14 15 124 18 145 5z
m1252 -67 c0 -6 7 -9 15 -5 11 4 15 -1 14 -17 0 -12 -3 -16 -6 -9 -7 17 -23
15 -23 -3 0 -11 -11 -15 -47 -13 l-48 1 43 4 c53 5 55 23 2 23 -29 0 -40 4
-40 15 0 11 12 15 45 15 26 0 45 -5 45 -11z m27 -111 c-2 -13 -4 -3 -4 22 0
25 2 35 4 23 2 -13 2 -33 0 -45z m-7 -38 c0 -13 -16 -15 -65 -12 -57 5 -58 20
-2 24 47 3 67 0 67 -12z m-200 -10 c-9 -6 -125 -9 -285 -8 -148 0 -250 4 -225
8 72 11 527 11 510 0z m-827 -200 c-1 -57 -5 -110 -7 -117 -6 -14 -116 -19
-117 -5 -6 90 -7 174 -2 200 l6 34 61 -4 61 -4 -2 -104z m-243 27 c0 -51 -3
-64 -20 -75 -14 -8 -20 -23 -20 -47 0 -34 -1 -35 -39 -35 -32 0 -40 4 -45 23
-9 33 -7 170 3 185 5 9 23 13 49 11 23 -2 44 0 48 4 16 15 24 -8 24 -66z m797
-24 c-6 -52 -15 -93 -21 -94 -16 -1 26 -17 47 -18 15 -1 17 9 17 79 l0 80 44
0 c92 0 156 -41 156 -101 0 -21 -5 -41 -10 -44 -16 -10 -1 -25 26 -25 21 0 24
5 24 34 0 62 13 156 21 156 5 0 9 -42 9 -94 l0 -95 -57 -11 c-40 -9 -126 -11
-283 -6 -124 3 -249 6 -277 6 l-53 0 0 96 0 96 40 -4 c22 -2 41 1 43 7 2 5 7
-26 12 -70 5 -55 4 -80 -4 -83 -6 -2 -11 -10 -11 -18 0 -10 12 -14 40 -14 l40
0 0 95 0 95 95 0 c77 0 97 3 102 15 11 30 11 10 0 -82z m-1018 73 c10 -7 12
-24 7 -75 -13 -130 -11 -126 -67 -127 l-49 -2 0 93 c0 52 2 99 5 107 6 15 81
18 104 4z m607 -6 c11 0 14 -17 14 -77 0 -85 -11 -116 -32 -95 -9 9 -9 12 4
12 11 0 15 6 11 21 -4 16 -8 17 -14 7 -5 -7 -8 22 -8 72 0 47 3 79 6 73 2 -7
11 -13 19 -13z m1100 5 c12 -11 13 -33 8 -110 l-7 -95 -83 0 -84 0 0 100 0
100 40 0 c34 0 40 -3 40 -21 0 -18 2 -19 15 -9 8 7 15 18 15 25 0 8 8 16 18
18 9 3 18 5 20 6 2 0 10 -6 18 -14z m-1953 -12 c13 -8 7 -31 -10 -37 -37 -15
-100 24 -76 47 6 7 69 -1 86 -10z m1037 -28 c0 -25 -4 -45 -10 -45 -11 0 -14
73 -3 83 11 12 13 8 13 -38z m-493 -27 c-2 -13 -4 -3 -4 22 0 25 2 35 4 23 2
-13 2 -33 0 -45z m1173 22 c0 -22 5 -40 10 -40 6 0 10 -27 10 -60 l0 -60 -55
0 c-30 0 -55 3 -56 8 0 4 -2 16 -5 27 -2 11 -1 53 2 93 l6 72 44 0 44 0 0 -40z
m364 5 c34 -15 36 -17 36 -65 0 -27 -5 -52 -11 -55 -7 -5 -4 -14 7 -26 17 -18
15 -19 -40 -19 -40 0 -55 3 -50 11 4 6 6 47 5 90 -1 44 2 79 7 79 5 0 26 -7
46 -15z m132 -43 c-11 -2 -15 -9 -12 -19 7 -17 -10 -53 -24 -53 -11 0 -14 83
-4 93 3 3 18 0 32 -6 21 -10 22 -13 8 -15z m-2220 -59 l1 -73 -31 5 c-17 2
-37 4 -43 4 -17 1 -17 83 -1 99 10 10 10 15 -1 22 -11 6 -7 9 15 13 58 9 59 7
60 -70z m821 35 c-3 -8 -6 -5 -6 6 -1 11 2 17 5 13 3 -3 4 -12 1 -19z m1563
-15 c0 -77 -3 -80 -94 -87 -87 -7 -116 -2 -116 19 0 10 10 12 33 9 17 -3 59
-1 92 4 56 9 57 10 18 11 l-43 1 0 40 0 40 55 0 55 0 0 -37z m79 -10 c-3 -46
-2 -48 24 -51 47 -6 29 -22 -24 -22 -43 0 -50 3 -45 16 3 9 6 36 6 60 0 38 3
44 21 44 18 0 20 -5 18 -47z m611 -29 l0 -65 -47 3 -48 3 1 40 c3 91 0 85 49
85 l45 0 0 -66z m-2602 -16 c-2 -6 -10 -14 -16 -16 -7 -2 -10 2 -6 12 7 18 28
22 22 4z"/>
<path d="M5460 2860 c0 -24 15 -27 24 -4 9 22 8 24 -9 24 -8 0 -15 -9 -15 -20z"/>
<path d="M4738 2743 c12 -2 32 -2 45 0 12 2 2 4 -23 4 -25 0 -35 -2 -22 -4z"/>
<path d="M3600 2358 c-3 -26 -1 -43 3 -39 5 5 7 26 5 47 l-3 39 -5 -47z"/>
<path d="M3363 2360 c0 -25 2 -35 4 -22 2 12 2 32 0 45 -2 12 -4 2 -4 -23z"/>
<path d="M3032 6805 c-9 -11 -10 -20 -3 -33 9 -15 10 -15 11 6 0 12 5 22 10
22 6 0 10 5 10 10 0 14 -13 12 -28 -5z"/>
<path d="M3060 6490 c0 -5 5 -10 11 -10 5 0 7 5 4 10 -3 6 -8 10 -11 10 -2 0
-4 -4 -4 -10z"/>
<path d="M7160 5562 c0 -5 9 -12 21 -15 13 -3 19 -1 16 6 -5 15 -37 22 -37 9z"/>
<path d="M7200 5509 c0 -5 5 -7 10 -4 6 3 10 8 10 11 0 2 -4 4 -10 4 -5 0 -10
-5 -10 -11z"/>
<path d="M9333 4963 c31 -2 83 -2 115 0 31 2 5 3 -58 3 -63 0 -89 -1 -57 -3z"/>
<path d="M8192 4623 l3 -48 164 0 164 0 2 40 c1 22 -3 43 -9 47 -6 4 -82 8
-169 8 l-158 0 3 -47z"/>
<path d="M9368 4605 l4 -45 64 0 64 0 0 45 0 45 -68 0 -67 0 3 -45z"/>
<path d="M9360 4360 c0 -6 30 -10 70 -10 40 0 70 4 70 10 0 6 -30 10 -70 10
-40 0 -70 -4 -70 -10z"/>
<path d="M3028 4309 c-17 -9 -18 -47 -18 -559 l0 -550 573 -1 c314 -1 628 -2
697 -3 69 -1 106 0 83 2 -55 4 -56 22 -2 22 32 0 47 6 71 30 16 17 36 30 43
30 9 0 12 6 8 16 -5 13 -18 15 -84 9 -53 -5 -79 -4 -79 3 0 6 17 13 38 15 23
3 19 3 -11 2 -54 -2 -75 11 -73 47 1 23 1 23 136 20 74 -1 154 -5 178 -8 33
-4 43 -2 48 11 4 9 3 19 -1 23 -3 4 -59 10 -123 13 l-117 5 106 2 c84 2 108 5
113 17 10 27 -31 35 -179 35 l-146 0 6 323 c4 210 3 327 -4 337 -10 15 -107
28 -211 29 l-55 1 0 57 0 58 -34 -2 c-33 -1 -76 -37 -65 -54 20 -32 -80 -66
-159 -55 -23 4 -160 6 -304 6 -171 -1 -270 3 -283 10 -13 7 -26 7 -37 2 -9 -5
-24 -7 -34 -5 -16 5 -19 15 -19 64 0 55 -2 59 -22 59 -13 0 -31 -5 -40 -11z
m1231 -183 c8 -9 10 -92 6 -292 -4 -154 -8 -294 -11 -311 l-5 -33 -125 0 -126
0 6 28 c3 15 8 158 12 317 3 160 8 293 11 298 2 4 53 7 112 7 80 0 112 -4 120
-14z m-1009 -25 c0 -11 -59 -20 -65 -11 -3 4 -2 10 2 14 10 9 63 7 63 -3z
m205 -6 c0 -5 -21 -11 -47 -13 -39 -3 -48 0 -48 13 0 13 9 16 48 13 26 -2 47
-7 47 -13z m225 0 c0 -12 -14 -15 -65 -15 -60 0 -75 6 -58 23 3 4 33 7 65 7
45 0 58 -3 58 -15z m160 0 c0 -16 -16 -20 -65 -16 -37 3 -44 9 -25 21 25 16
90 12 90 -5z m123 -106 c-5 -18 -23 -27 -23 -11 1 25 14 52 20 42 4 -7 5 -21
3 -31z m0 -306 c-3 -87 -10 -162 -15 -168 -5 -6 -66 -10 -141 -10 -76 0 -113
2 -87 6 25 3 34 7 20 8 -25 2 -25 2 -5 17 18 13 20 13 23 0 2 -9 11 -16 20
-16 21 0 62 42 62 64 0 10 8 16 21 16 17 0 20 5 16 21 -4 13 0 22 11 26 30 10
63 56 61 83 -3 26 10 110 17 110 2 0 1 -71 -3 -157z m-603 -43 c0 -5 -5 -10
-11 -10 -5 0 -7 5 -4 10 3 6 8 10 11 10 2 0 4 -4 4 -10z"/>
<path d="M4825 3984 l-30 -15 34 6 c18 3 37 5 42 5 5 0 9 5 9 10 0 14 -19 11
-55 -6z"/>
<path d="M4960 3989 c0 -5 5 -7 10 -4 6 3 10 8 10 11 0 2 -4 4 -10 4 -5 0 -10
-5 -10 -11z"/>
<path d="M5000 3990 c0 -5 7 -10 15 -10 8 0 15 5 15 10 0 6 -7 10 -15 10 -8 0
-15 -4 -15 -10z"/>
<path d="M5060 3985 c0 -8 9 -15 20 -15 11 0 20 7 20 15 0 8 -9 15 -20 15 -11
0 -20 -7 -20 -15z"/>
<path d="M8263 3763 c-8 -19 -9 -159 -6 -718 1 -214 -2 -412 -6 -440 -8 -50
-8 -50 -10 24 -2 128 -47 161 -222 161 -162 0 -169 -10 -181 -270 -11 -239
-12 -244 -68 -250 -38 -4 -45 -9 -51 -33 -4 -16 -6 -34 -3 -41 6 -15 90 -23
352 -33 168 -6 172 -7 172 -28 0 -20 8 -22 160 -40 88 -10 160 -22 160 -27 0
-4 18 -8 40 -8 22 0 40 5 40 10 0 6 18 10 40 10 27 0 40 4 40 13 0 11 29 15
117 20 66 4 119 11 121 17 2 5 21 10 43 10 21 0 40 3 40 8 13 75 13 19 5 607
-4 328 -3 515 3 505 9 -12 11 -12 17 3 3 9 12 17 20 17 11 0 14 -29 14 -155 0
-95 -4 -164 -12 -180 -9 -20 -8 -31 3 -52 10 -22 14 -102 16 -363 2 -210 7
-336 13 -338 6 -2 10 -8 10 -13 0 -6 -4 -7 -10 -4 -5 3 -10 1 -10 -4 0 -6 19
-11 43 -11 23 0 85 -3 137 -6 52 -3 121 -2 153 1 l57 7 0 104 c0 57 -2 104 -5
104 -2 0 -14 -4 -27 -9 -13 -5 -42 -14 -65 -20 -40 -11 -43 -14 -43 -46 l0
-35 -78 0 c-68 0 -79 3 -90 21 -10 15 -11 24 -3 32 15 15 15 647 1 647 -6 0
-10 33 -10 80 0 47 4 80 10 80 6 0 10 18 10 40 0 22 -4 40 -10 40 -6 0 -10
101 -10 284 l0 284 -22 6 c-13 3 -218 6 -456 6 -399 0 -433 -1 -439 -17z m687
-732 c0 -17 -18 -21 -24 -6 -3 9 0 15 9 15 8 0 15 -4 15 -9z m-640 -235 c0 -3
-4 -8 -10 -11 -5 -3 -10 -1 -10 4 0 6 5 11 10 11 6 0 10 -2 10 -4z m867 -218
c-2 -13 -4 -3 -4 22 0 25 2 35 4 23 2 -13 2 -33 0 -45z m-1288 -183 l2 -125
-27 0 c-22 0 -25 3 -21 23 3 12 9 68 13 125 5 72 11 102 19 102 10 0 13 -32
14 -125z m316 -20 l-5 -95 -144 -3 -145 -2 3 35 c2 19 4 50 5 68 1 27 5 32 24
31 18 -1 19 -2 3 -6 -16 -4 -13 -10 20 -44 38 -39 39 -39 116 -39 l78 0 0 45
c0 39 -3 45 -25 51 -14 3 -25 9 -25 13 0 6 74 38 92 40 4 1 5 -42 3 -94z"/>
<path d="M8000 2300 c0 -11 43 -12 115 0 47 7 45 7 -32 9 -50 0 -83 -3 -83 -9z"/>
<path d="M7956 3218 c-3 -7 -4 -42 -3 -78 l2 -65 68 -3 68 -3 -3 78 -3 78 -63
3 c-44 2 -63 -1 -66 -10z m124 -58 c0 -5 -25 -10 -55 -10 -30 0 -55 5 -55 10
0 6 25 10 55 10 30 0 55 -4 55 -10z"/>
<path d="M7899 3180 c-4 -42 -1 -64 9 -68 8 -2 12 10 12 37 0 23 -4 41 -10 41
-5 0 -10 -4 -11 -10z"/>
<path d="M3010 3160 c0 -20 7 -20 455 -20 261 0 455 4 455 9 0 10 -192 18
-617 26 -288 5 -293 4 -293 -15z"/>
<path d="M7613 3000 c0 -25 2 -35 4 -22 2 12 2 32 0 45 -2 12 -4 2 -4 -23z"/>
<path d="M9354 2450 c-14 -14 -4 -90 12 -97 19 -7 86 25 79 38 -4 5 1 9 11 9
13 0 14 3 5 14 -9 11 -7 15 11 21 20 6 18 8 -17 15 -55 12 -89 12 -101 0z"/>
<path d="M7140 2220 c-126 -10 -8 -20 240 -20 226 0 300 5 300 19 0 7 -450 9
-540 1z"/>
<path d="M9070 2215 c0 -8 5 -15 10 -15 6 0 10 7 10 15 0 8 -4 15 -10 15 -5 0
-10 -7 -10 -15z"/>
<path d="M8930 969 c-8 -15 -10 -121 -4 -375 l7 -354 283 0 284 0 0 90 c0 63
-4 91 -13 97 -34 21 -47 58 -47 136 0 74 2 80 30 109 18 17 30 40 30 55 0 25
-1 25 -19 9 -19 -17 -19 -16 -14 22 3 24 0 49 -9 66 -14 26 -16 27 -31 11 -23
-22 -21 -35 4 -35 19 0 20 -4 15 -35 -4 -19 -2 -45 4 -57 11 -22 10 -22 -4 -4
-9 11 -16 31 -16 44 0 18 -4 23 -16 18 -11 -4 -18 1 -21 14 -3 11 -9 20 -14
20 -5 0 -9 10 -9 23 0 24 10 23 -152 27 -94 2 -133 13 -65 17 17 1 53 5 80 9
47 6 47 6 47 45 l0 38 113 4 c111 3 111 3 -43 7 l-155 4 155 6 c135 5 119 6
-127 8 -277 2 -283 2 -293 -19z m22 -254 c3 -138 2 -200 -2 -145 -8 99 -13
396 -6 389 2 -2 5 -112 8 -244z m374 113 c27 -9 37 -21 49 -57 19 -57 20 -131
1 -131 -7 0 -16 -8 -19 -19 -6 -25 -58 -49 -95 -43 -38 5 -85 -5 -77 -17 8
-14 9 -114 1 -139 -8 -26 -31 -29 -40 -6 -8 21 -8 409 1 417 11 12 145 8 179
-5z"/>
<path d="M9190 710 l0 -90 39 0 c63 0 89 14 100 55 12 45 7 76 -16 92 -10 7
-23 17 -30 23 -7 5 -30 10 -53 10 l-40 0 0 -90z"/>
<path d="M9328 873 c6 -2 18 -2 25 0 6 3 1 5 -13 5 -14 0 -19 -2 -12 -5z"/>
<path d="M9370 870 c0 -5 5 -10 10 -10 6 0 10 5 10 10 0 6 -4 10 -10 10 -5 0
-10 -4 -10 -10z"/>
<path d="M9460 874 c0 -9 31 -37 36 -32 9 9 -8 38 -22 38 -8 0 -14 -3 -14 -6z"/>
<path d="M9218 863 c12 -2 32 -2 45 0 12 2 2 4 -23 4 -25 0 -35 -2 -22 -4z"/>
<path d="M9487 603 c-11 -10 -8 -71 3 -78 6 -4 10 12 10 39 0 47 -2 51 -13 39z"/>
<path d="M5920 280 l0 -40 40 0 40 0 0 40 0 40 -40 0 -40 0 0 -40z"/>
<path d="M5920 40 l0 -40 40 0 40 0 0 40 0 40 -40 0 -40 0 0 -40z"/>
</g>
</svg>
