<?xml version="1.0" standalone="no"?>
<!DOCTYPE svg PUBLIC "-//W3C//DTD SVG 20010904//EN"
 "http://www.w3.org/TR/2001/REC-SVG-20010904/DTD/svg10.dtd">
<svg version="1.0" xmlns="http://www.w3.org/2000/svg"
 width="1280.000000pt" height="720.000000pt" viewBox="0 0 1280.000000 720.000000"
 preserveAspectRatio="xMidYMid meet">
<metadata>
Created by potrace 1.16, written by Peter Selinger 2001-2019
</metadata>
<g transform="translate(0.000000,720.000000) scale(0.100000,-0.100000)"
fill="#000000" stroke="none">
<path d="M3011 6963 c-1 -47 3 -75 12 -80 6 -4 18 -20 26 -35 8 -16 38 -53 68
-84 29 -31 53 -61 53 -66 0 -5 -19 -8 -42 -6 -41 3 -43 2 -41 -23 l1 -27 -24
25 c-28 28 -31 43 -8 43 9 0 14 7 12 17 -4 22 -28 29 -28 9 0 -9 -7 -16 -15
-16 -23 0 -21 -132 2 -151 9 -8 18 -13 20 -11 2 1 22 -19 44 -45 88 -104 98
-113 125 -113 25 0 26 2 20 33 -3 17 -14 37 -23 44 -18 14 -21 45 -10 113 3
25 3 34 -1 20 -7 -22 -9 -23 -15 -7 -11 30 -8 37 18 37 14 0 29 -8 35 -20 6
-11 17 -20 25 -20 9 0 15 -10 15 -25 0 -22 4 -25 34 -25 88 0 89 36 4 128 -34
37 -67 73 -73 80 -5 7 -18 22 -27 33 -10 10 -18 22 -18 25 0 10 -58 64 -69 64
-6 0 -11 6 -11 13 0 6 -19 33 -43 58 -23 25 -47 54 -54 65 -10 16 -12 7 -12
-53z m129 -335 c0 -7 -5 -20 -10 -28 -8 -12 -10 -9 -10 13 0 15 5 27 10 27 6
0 10 -6 10 -12z"/>
<path d="M5760 6972 c0 -16 72 -32 92 -21 10 5 16 14 13 20 -8 11 -105 12
-105 1z"/>
<path d="M6279 6971 c-53 -8 -94 -46 -104 -98 -3 -18 -10 -33 -15 -33 -15 0
-50 -43 -50 -61 0 -10 -7 -24 -15 -33 -8 -8 -15 -21 -15 -29 0 -8 -9 -22 -20
-32 -11 -10 -20 -23 -20 -29 0 -6 -9 -22 -20 -36 -11 -14 -20 -33 -20 -42 0
-10 -7 -18 -15 -18 -9 0 -15 -9 -15 -24 0 -13 -15 -53 -34 -90 -19 -36 -36
-80 -39 -98 -11 -73 -58 -285 -68 -308 -6 -14 -18 -36 -26 -50 -21 -38 -39
-78 -70 -157 -15 -40 -34 -73 -40 -73 -8 0 -13 -15 -13 -40 0 -29 -4 -40 -15
-40 -18 0 -20 -21 -4 -37 9 -9 15 -8 26 3 20 20 43 18 43 -5 0 -10 -11 -35
-25 -55 -14 -20 -25 -43 -25 -51 0 -8 -4 -15 -9 -15 -5 0 -17 -24 -27 -52 -14
-41 -17 -77 -14 -158 6 -193 4 -261 -8 -268 -6 -4 -12 -25 -14 -47 -3 -39 -4
-40 -45 -43 l-43 -3 0 45 0 45 -337 5 c-429 7 -1058 23 -1143 30 -36 3 -282 7
-547 9 l-483 4 0 -184 0 -183 203 0 c111 0 231 4 267 9 36 5 239 13 453 17
339 6 387 5 387 -8 0 -11 17 -17 61 -22 90 -9 96 -8 118 15 17 19 21 19 43 6
19 -12 97 -16 433 -21 226 -4 440 -9 478 -12 55 -6 67 -4 67 8 0 13 -28 14
-200 10 -155 -4 -200 -2 -200 8 0 9 -19 10 -80 5 -54 -5 -80 -4 -80 3 0 6 -19
12 -42 14 -24 2 101 2 277 -1 176 -2 322 -8 323 -12 2 -5 22 -10 45 -10 l42
-2 -35 -6 c-34 -6 -34 -7 -12 -19 19 -11 22 -21 22 -67 0 -51 -32 -144 -52
-153 -5 -2 -8 -10 -8 -19 0 -8 -7 -21 -15 -29 -8 -8 -19 -34 -25 -57 -6 -23
-18 -55 -26 -70 -8 -16 -14 -41 -14 -55 0 -41 -60 -218 -81 -241 -11 -12 -17
-26 -14 -31 3 -5 1 -19 -5 -30 -11 -21 -17 -21 -216 -17 -113 2 -207 0 -210
-5 -3 -5 -12 -4 -19 2 -11 9 -23 8 -50 -1 -29 -11 -34 -16 -28 -34 11 -29 5
-195 -8 -227 -8 -19 -8 -37 -1 -60 6 -18 9 -103 7 -190 -2 -129 0 -158 11
-158 8 0 14 9 14 21 0 12 8 23 20 26 11 3 20 9 20 14 0 5 9 9 20 9 14 0 20 7
20 21 0 16 4 19 18 14 9 -4 27 -7 40 -6 18 1 22 -4 22 -29 0 -17 5 -30 10 -30
6 0 10 -7 10 -15 0 -8 -8 -15 -19 -15 -10 0 -21 -9 -24 -21 -3 -11 -15 -23
-26 -26 -12 -3 -22 -9 -22 -14 -1 -5 -2 -13 -3 -18 -2 -19 -16 -24 -31 -11
-11 9 -18 10 -28 1 -16 -13 -27 -5 -27 21 0 17 -29 27 -31 11 0 -5 -2 -25 -4
-47 l-4 -39 49 6 c30 4 50 2 50 -4 0 -5 11 -2 25 7 13 8 28 13 33 10 5 -3 138
-6 296 -7 158 -1 288 -5 290 -8 2 -3 0 -15 -4 -26 -7 -19 -16 -20 -216 -19
-303 3 -537 13 -549 25 -6 6 -9 64 -8 147 11 604 11 742 3 692 -5 -30 -11
-199 -15 -375 -7 -397 -12 -487 -27 -496 -7 -4 -396 -5 -865 -2 l-853 6 0 -21
c0 -21 5 -22 138 -25 l137 -3 -137 -2 c-129 -2 -138 -3 -138 -22 0 -16 8 -19
58 -22 54 -3 57 -4 60 -30 3 -28 3 -28 -57 -28 -54 0 -61 -2 -61 -20 0 -18 7
-20 55 -20 l55 0 0 -95 0 -95 -32 0 c-71 0 -78 -7 -78 -71 0 -48 3 -57 15 -53
8 4 15 1 15 -5 0 -6 -7 -11 -15 -11 -11 0 -15 -11 -15 -40 0 -35 3 -40 24 -40
22 0 24 -5 31 -77 4 -49 3 -79 -3 -81 -5 -1 -8 -12 -5 -22 3 -11 0 -20 -6 -20
-6 0 -11 5 -11 11 0 8 -5 8 -15 -1 -11 -9 -15 -32 -15 -81 0 -61 2 -69 19 -69
18 0 68 -48 89 -86 8 -15 13 -16 25 -6 8 7 18 23 21 36 6 23 36 45 36 26 0 -6
18 -10 40 -10 22 0 40 -4 40 -10 0 -5 8 -10 18 -10 13 0 23 13 32 40 13 40 30
54 30 25 0 -11 11 -15 38 -15 31 0 43 -7 72 -40 37 -43 50 -49 50 -25 0 8 4
15 9 15 5 0 12 18 16 40 7 44 26 52 43 18 l11 -23 0 23 c1 12 3 22 6 22 16 0
75 -73 75 -92 0 -21 0 -21 18 -2 9 10 25 36 34 56 17 37 19 38 73 38 l55 0 27
-57 c27 -58 27 -58 31 -25 2 18 15 44 30 59 25 25 34 27 122 30 52 1 87 0 78
-3 -24 -7 -26 -84 -3 -84 8 0 15 4 15 9 0 12 59 71 70 71 5 0 11 -6 13 -12 4
-10 6 -10 6 0 1 6 7 12 15 12 9 0 17 -17 21 -47 l8 -48 14 55 14 55 239 0
c132 0 240 -3 240 -6 0 -4 29 -4 64 -2 88 8 112 0 125 -39 l12 -33 19 25 c11
14 20 33 20 44 0 14 5 17 23 12 12 -3 30 -6 40 -6 9 0 17 -7 17 -15 0 -11 11
-15 40 -15 27 0 40 4 40 14 0 18 152 34 158 17 2 -6 10 -11 18 -11 8 0 14 -7
14 -15 0 -8 5 -15 10 -15 6 0 10 7 10 15 0 8 7 15 15 15 8 0 15 5 15 10 0 14
77 13 82 -1 3 -9 14 -9 42 1 28 9 80 11 185 6 80 -3 156 -6 169 -6 17 0 22 -6
22 -24 0 -14 -4 -28 -10 -31 -5 -3 -10 -20 -10 -36 0 -33 -52 -143 -73 -156
-8 -4 -22 -24 -33 -43 -10 -19 -27 -42 -36 -51 -10 -9 -18 -20 -18 -24 0 -4
-17 -35 -38 -69 -22 -34 -42 -78 -46 -98 -4 -21 -11 -38 -15 -38 -5 0 -11 -12
-13 -28 -8 -46 -52 -207 -59 -212 -7 -6 -23 -90 -43 -227 -19 -130 -47 -244
-62 -261 -13 -12 -44 -109 -44 -135 0 -14 -45 -87 -60 -97 -11 -8 -20 -80 -10
-80 5 0 9 -18 7 -40 -1 -22 -5 -40 -9 -40 -17 0 -7 -29 13 -35 11 -4 49 -34
85 -68 l66 -61 -7 -78 c-5 -54 -4 -78 4 -78 7 0 11 -28 11 -80 l0 -80 150 0
150 0 0 80 0 80 -40 0 c-29 0 -40 4 -40 15 0 11 11 15 40 15 22 0 40 4 40 9 0
5 36 12 80 16 74 7 98 17 68 28 -8 2 -9 8 -4 13 5 5 11 4 13 -3 3 -7 11 -13
19 -13 10 0 14 12 14 40 0 29 -4 40 -15 40 -16 0 -17 4 -19 100 -1 65 -1 65
-38 83 -21 10 -38 23 -38 28 0 5 -5 9 -12 9 -6 0 -33 22 -60 50 -27 27 -53 50
-58 50 -24 0 -6 272 21 315 4 6 10 26 14 45 9 45 33 97 62 136 13 17 23 38 23
47 0 9 5 19 10 22 13 8 80 151 80 171 0 14 20 55 31 64 3 3 12 22 20 43 7 20
17 37 21 37 4 0 8 7 8 15 0 14 18 53 30 65 5 5 15 23 44 75 6 11 16 24 22 30
6 5 20 26 30 45 11 18 36 59 57 89 20 30 37 60 37 68 0 7 5 13 10 13 6 0 10 8
10 18 0 9 7 26 15 36 16 21 65 165 65 191 0 18 5 19 31 5 11 -7 19 -22 19 -38
1 -15 7 -38 15 -52 8 -14 14 -35 15 -46 0 -12 7 -35 15 -50 8 -16 15 -36 15
-44 0 -9 4 -20 9 -25 18 -21 42 -119 52 -217 6 -57 19 -143 29 -193 10 -49 28
-144 39 -210 11 -66 30 -160 42 -210 19 -83 20 -103 11 -255 l-9 -165 -47 -73
c-26 -39 -53 -72 -61 -72 -17 0 -30 -75 -20 -118 5 -24 13 -31 41 -36 36 -7
41 -15 23 -33 -9 -9 2 -11 42 -9 30 2 44 2 32 -1 -22 -4 -23 -8 -23 -124 0
-99 -3 -119 -15 -119 -11 0 -15 -11 -15 -40 l0 -40 164 0 164 0 7 86 7 85 -31
26 c-28 24 -31 31 -31 84 0 48 4 61 20 71 11 7 20 18 20 24 0 7 13 26 30 44
17 18 30 42 30 55 0 36 -21 85 -36 85 -11 0 -13 21 -7 119 6 124 -3 173 -34
185 -13 5 -12 8 1 22 11 10 16 34 16 73 0 32 9 123 20 202 21 158 22 451 1
541 -6 27 -10 51 -9 55 3 12 -14 77 -21 83 -3 3 -12 23 -18 45 -6 22 -21 67
-32 99 -14 39 -21 84 -21 133 l0 73 80 0 80 0 0 40 0 40 -80 0 c-64 0 -80 -3
-80 -15 0 -8 -7 -15 -15 -15 -13 0 -14 17 -9 118 4 64 10 119 15 122 4 3 9 19
12 35 4 23 5 20 4 -10 l-2 -40 45 1 c58 1 133 36 191 90 46 42 47 42 107 37
55 -5 61 -4 72 17 16 29 8 554 -9 620 -6 25 -16 68 -22 95 -9 45 -38 138 -59
190 -48 120 -70 187 -70 213 0 16 -6 33 -12 36 -7 3 -2 3 12 0 13 -4 38 -22
55 -42 47 -54 76 -62 234 -62 78 0 172 -5 211 -12 60 -10 74 -10 95 2 13 8 25
20 25 25 1 6 20 15 43 20 22 6 42 15 44 20 1 6 -17 19 -42 30 -25 11 -45 23
-45 27 0 5 -8 8 -17 8 -10 0 -31 7 -47 15 -51 27 -156 14 -156 -20 0 -8 -4
-15 -10 -15 -5 0 -10 5 -10 10 0 6 -19 10 -43 10 -24 0 -52 7 -63 15 -11 9
-42 14 -76 15 -45 0 -58 3 -58 15 0 8 -6 15 -12 15 -11 0 -42 95 -65 200 -3
14 -11 30 -18 35 -6 6 -18 41 -26 79 -7 38 -18 74 -25 80 -13 14 -29 280 -19
325 l6 29 87 -2 c107 -2 122 4 122 49 l0 35 -105 0 -105 0 0 25 c0 14 -4 25
-10 25 -5 0 -10 19 -10 41 l0 42 78 -6 c42 -4 266 -7 497 -8 425 -2 1194 -13
1603 -23 l222 -5 0 48 0 49 -77 7 c-43 3 -343 8 -667 11 -479 4 -591 3 -597
-8 -7 -10 -9 -10 -9 0 0 22 -30 13 -31 -10 l0 -23 -16 23 -15 22 -324 0 c-317
0 -324 0 -324 20 0 17 -7 20 -40 20 -33 0 -40 -3 -40 -20 0 -19 -7 -20 -110
-20 -93 0 -110 -3 -119 -17 -7 -13 -10 20 -11 115 0 106 3 137 15 148 8 9 15
26 15 39 0 13 4 26 9 29 13 8 33 119 35 188 0 55 -17 123 -35 138 -4 3 -9 15
-13 28 -4 12 -12 22 -17 22 -5 0 -9 10 -9 23 0 13 -5 28 -12 35 -9 9 -9 15 -1
23 12 12 7 64 -7 84 -4 6 -10 52 -14 104 -7 99 -26 161 -48 161 -8 0 -20 17
-28 38 -7 20 -19 42 -26 47 -7 6 -29 42 -49 80 -20 39 -41 74 -46 80 -5 5 -9
21 -9 36 0 25 -12 69 -30 114 -4 11 -13 40 -20 65 -15 58 -33 100 -42 100 -5
0 -8 6 -8 14 0 23 -42 110 -59 123 -9 6 -13 15 -9 19 4 4 -4 20 -17 36 -14 16
-25 34 -25 39 0 5 -7 9 -15 9 -8 0 -15 7 -15 15 0 19 -45 84 -77 112 -14 13
-42 28 -62 34 -47 14 -163 19 -222 10z m370 -313 c41 -102 52 -139 57 -195 5
-44 3 -63 -5 -63 -6 0 -11 -17 -11 -40 0 -22 -4 -40 -9 -40 -5 0 -11 -9 -14
-20 -10 -40 -24 -19 -23 37 0 36 -4 58 -12 61 -18 6 -15 87 3 102 21 17 19 37
-10 114 -30 79 -29 76 -7 76 11 0 23 -13 31 -32z m-2 -440 c-3 -8 -6 -5 -6 6
-1 11 2 17 5 13 3 -3 4 -12 1 -19z m2616 -1365 c-13 -2 -33 -2 -45 0 -13 2 -3
4 22 4 25 0 35 -2 23 -4z m-4608 -43 c50 -19 23 -35 -59 -36 -59 -1 -79 3 -83
14 -3 8 0 18 8 23 19 12 102 11 134 -1z m65 -60 c0 -5 -4 -10 -9 -10 -6 0 -13
5 -16 10 -3 6 1 10 9 10 9 0 16 -4 16 -10z m1091 -480 c-18 -83 -54 -183 -74
-205 -10 -11 -20 -30 -23 -42 -4 -13 -10 -23 -15 -23 -5 0 -12 -18 -15 -40
l-7 -40 -59 0 c-45 0 -60 4 -65 16 -4 10 1 22 10 29 10 7 17 17 17 24 0 6 5
11 10 11 6 0 10 5 10 10 0 6 15 28 34 48 19 20 45 51 57 67 13 17 29 36 36 43
7 7 13 20 13 28 0 8 5 14 10 14 6 0 10 5 10 10 0 6 12 40 28 75 30 72 41 61
23 -25z m-171 -375 c14 9 23 -21 16 -51 -6 -21 -12 -25 -39 -22 -34 3 -43 21
-33 64 6 21 9 23 26 14 11 -6 25 -8 30 -5z m-480 -94 c0 -5 -9 -11 -20 -14
-11 -3 -20 -1 -20 5 0 5 -4 6 -10 3 -5 -3 -10 -1 -10 4 0 6 14 11 30 11 17 0
30 -4 30 -9z m-26 -63 c6 -25 4 -28 -19 -26 -14 1 -25 8 -25 15 0 7 7 10 15 7
11 -4 15 0 15 17 0 28 5 23 14 -13z m423 -23 c-7 -17 -57 -21 -57 -4 0 5 4 8
9 5 4 -3 17 1 27 9 22 16 29 12 21 -10z m-597 5 c0 -5 -6 -10 -14 -10 -8 0
-18 5 -21 10 -3 6 3 10 14 10 12 0 21 -4 21 -10z m90 0 c0 -5 -4 -10 -9 -10
-6 0 -13 5 -16 10 -3 6 1 10 9 10 9 0 16 -4 16 -10z m120 6 c0 -3 -4 -8 -10
-11 -5 -3 -10 -1 -10 4 0 6 5 11 10 11 6 0 10 -2 10 -4z m365 -126 c-3 -6 -12
-10 -20 -10 -10 0 -11 5 -2 24 10 20 14 22 20 10 4 -8 5 -19 2 -24z m76 -3
c-8 -8 -11 -5 -11 9 0 27 14 41 18 19 2 -9 -1 -22 -7 -28z m-576 13 c3 -5 -1
-10 -10 -10 -9 0 -13 5 -10 10 3 6 8 10 10 10 2 0 7 -4 10 -10z m410 -9 c-3
-6 -14 -10 -23 -10 -15 1 -15 2 1 6 9 2 17 9 17 15 0 6 3 9 6 5 3 -3 3 -10 -1
-16z m-328 3 c-3 -3 -12 -4 -19 -1 -8 3 -5 6 6 6 11 1 17 -2 13 -5z m-36 -87
c-10 -9 -11 -8 -5 6 3 10 9 15 12 12 3 -3 0 -11 -7 -18z m359 -17 c-20 -12
-33 -1 -19 16 9 11 15 12 23 4 8 -8 7 -13 -4 -20z m-500 -14 c0 -11 -19 -15
-25 -6 -3 5 1 10 9 10 9 0 16 -2 16 -4z m115 -6 c-3 -5 -12 -10 -20 -10 -8 0
-17 5 -20 10 -4 6 5 10 20 10 15 0 24 -4 20 -10z m65 0 c0 -5 -4 -10 -10 -10
-5 0 -10 5 -10 10 0 6 5 10 10 10 6 0 10 -4 10 -10z m210 0 c0 -5 -7 -10 -15
-10 -8 0 -15 5 -15 10 0 6 7 10 15 10 8 0 15 -4 15 -10z m5 -166 c-5 -34 -3
-49 7 -55 9 -6 8 -9 -7 -9 -33 1 -50 22 -53 68 -2 41 -2 42 29 42 l31 0 -7
-46z m200 -4 c-5 -8 -11 -8 -17 -2 -6 6 -7 16 -3 22 5 8 11 8 17 2 6 -6 7 -16
3 -22z m-178 -2 c-3 -8 -6 -5 -6 6 -1 11 2 17 5 13 3 -3 4 -12 1 -19z m-147
-20 c0 -5 -4 -8 -10 -8 -5 0 -10 10 -10 23 0 18 2 19 10 7 5 -8 10 -18 10 -22z
m210 -28 c0 -5 -13 -10 -30 -10 -16 0 -30 5 -30 10 0 6 14 10 30 10 17 0 30
-4 30 -10z m-1853 -234 c9 -8 -197 -6 -219 2 -10 4 34 6 98 6 63 -1 117 -4
121 -8z m330 2 c2 -5 -34 -8 -81 -8 -53 0 -86 4 -86 10 0 13 159 10 167 -2z
m-239 -5 c-16 -2 -40 -2 -55 0 -16 2 -3 4 27 4 30 0 43 -2 28 -4z m-378 -68
c0 -23 -3 -25 -49 -25 -52 0 -65 8 -55 34 4 12 20 16 55 16 46 0 49 -2 49 -25z
m240 11 c0 -25 -22 -31 -108 -32 -85 -1 -96 3 -86 30 9 22 194 24 194 2z m370
-11 c0 -16 -141 -22 -157 -7 -7 8 -11 17 -9 20 6 11 166 -2 166 -13z m1110
-16 c0 -26 -3 -29 -20 -24 -11 3 -20 2 -20 -4 0 -10 -177 -20 -455 -24 l-170
-2 -3 35 c-2 21 2 38 11 45 9 6 124 9 335 7 l322 -3 0 -30z m396 14 c4 -14 2
-40 -5 -58 -7 -20 -9 -63 -5 -122 8 -103 0 -158 -22 -167 -21 -8 -164 5 -164
15 0 5 39 10 88 11 l87 2 -83 3 -82 4 1 62 c3 86 9 95 60 91 50 -4 79 9 80 39
1 17 3 16 9 -8 7 -28 8 -27 9 13 1 34 -2 42 -17 42 -10 0 -22 3 -26 8 -10 9
-56 10 -56 1 0 -3 -11 -6 -24 -6 -19 0 -26 6 -31 29 -9 41 8 56 68 61 29 2 64
4 79 5 22 2 29 -3 34 -25z m129 17 c11 -17 -6 -90 -20 -90 -7 0 -16 -7 -19
-16 -5 -13 -9 -13 -31 3 -19 14 -24 27 -25 59 0 22 3 44 7 47 10 11 81 8 88
-3z m-1845 -14 c0 -9 -15 -15 -43 -17 -57 -5 -77 -1 -77 17 0 11 15 14 60 14
45 0 60 -4 60 -14z m458 2 c-3 -9 -33 -14 -93 -16 -93 -3 -120 1 -110 18 10
16 208 13 203 -2z m162 -33 c0 -38 -3 -45 -20 -45 -16 0 -20 7 -20 30 0 17 -3
29 -7 29 -29 -5 -62 3 -67 16 -4 12 5 15 54 15 l60 0 0 -45z m868 7 c3 -29 1
-32 -20 -28 -13 3 -42 5 -65 5 -41 1 -43 2 -43 31 l0 31 63 -3 62 -3 3 -33z
m-1030 -164 c-2 -37 -9 -73 -15 -79 -20 -20 -171 -9 -185 13 -10 16 -10 129 0
144 4 6 44 11 92 11 61 0 85 4 89 14 9 29 22 -39 19 -103z m-858 2 l0 -78 -55
-4 -55 -3 0 72 c0 97 1 99 60 95 l50 -4 0 -78z m226 24 c3 -19 3 -49 0 -66 -6
-33 -7 -33 -69 -36 -34 -1 -72 -4 -84 -6 -15 -3 -23 2 -27 17 -8 31 -7 120 2
134 11 17 112 21 144 5 19 -9 29 -24 34 -48z m766 48 c7 -7 14 -51 16 -107 4
-90 3 -95 -16 -95 -13 0 -22 9 -26 24 -8 31 -37 29 -53 -4 -12 -24 -12 -24
-13 15 -2 63 1 169 5 176 7 10 74 4 87 -9z m99 -42 c5 0 9 10 9 23 1 21 2 21
14 4 11 -14 35 -19 130 -24 109 -6 116 -5 117 13 1 18 2 18 6 1 3 -13 11 -17
23 -14 10 3 27 -1 38 -8 13 -10 60 -14 150 -16 l132 -2 0 -79 c0 -43 -3 -78
-7 -78 -5 0 -6 25 -5 55 3 35 0 55 -7 55 -6 0 -11 -19 -11 -44 l0 -44 -242 -7
c-202 -6 -284 -5 -380 4 -10 1 -10 112 -1 177 l7 49 9 -32 c6 -18 14 -33 18
-33z m-728 41 l37 -1 0 -74 0 -74 -57 -5 c-32 -2 -59 -3 -61 -2 -7 7 -14 115
-9 137 5 18 13 24 29 22 13 -1 40 -3 61 -3z m235 -5 c15 -9 16 -132 2 -141 -6
-4 -43 -7 -83 -7 l-72 -1 -3 65 c-2 46 1 70 11 79 14 15 124 18 145 5z m1625
-79 c-2 -28 -9 -76 -15 -105 -10 -45 -15 -52 -32 -50 -19 3 -21 10 -24 100 -2
88 -1 99 18 118 20 20 23 20 39 6 14 -13 17 -28 14 -69z m-373 12 c0 -6 7 -9
15 -5 11 4 15 -1 14 -17 0 -12 -3 -16 -6 -9 -7 17 -23 15 -23 -3 0 -11 -11
-15 -47 -13 l-48 1 43 4 c53 5 55 23 2 23 -29 0 -40 4 -40 15 0 11 12 15 45
15 26 0 45 -5 45 -11z m27 -111 c-2 -13 -4 -3 -4 22 0 25 2 35 4 23 2 -13 2
-33 0 -45z m-7 -38 c0 -13 -16 -15 -65 -12 -57 5 -58 20 -2 24 47 3 67 0 67
-12z m-200 -10 c-9 -6 -125 -9 -285 -8 -148 0 -250 4 -225 8 72 11 527 11 510
0z m1950 -35 c0 -8 -4 -15 -10 -15 -5 0 -10 7 -10 15 0 8 5 15 10 15 6 0 10
-7 10 -15z m-2777 -165 c-1 -57 -5 -110 -7 -117 -6 -14 -116 -19 -117 -5 -6
90 -7 174 -2 200 l6 34 61 -4 61 -4 -2 -104z m-243 27 c0 -51 -3 -64 -20 -75
-14 -8 -20 -23 -20 -47 0 -34 -1 -35 -39 -35 -32 0 -40 4 -45 23 -9 33 -7 170
3 185 5 9 23 13 49 11 23 -2 44 0 48 4 16 15 24 -8 24 -66z m797 -24 c-6 -52
-15 -93 -21 -94 -16 -1 26 -17 47 -18 15 -1 17 9 17 79 l0 80 44 0 c92 0 156
-41 156 -101 0 -21 -5 -41 -10 -44 -16 -10 -1 -25 26 -25 21 0 24 5 24 34 0
62 13 156 21 156 5 0 9 -42 9 -94 l0 -95 -57 -11 c-40 -9 -126 -11 -283 -6
-124 3 -249 6 -277 6 l-53 0 0 96 0 96 40 -4 c22 -2 41 1 43 7 2 5 7 -26 12
-70 5 -55 4 -80 -4 -83 -6 -2 -11 -10 -11 -18 0 -10 12 -14 40 -14 l40 0 0 95
0 95 95 0 c77 0 97 3 102 15 11 30 11 10 0 -82z m-1018 73 c10 -7 12 -24 7
-75 -13 -130 -11 -126 -67 -127 l-49 -2 0 93 c0 52 2 99 5 107 6 15 81 18 104
4z m607 -6 c11 0 14 -17 14 -77 0 -85 -11 -116 -32 -95 -9 9 -9 12 4 12 11 0
15 6 11 21 -4 16 -8 17 -14 7 -5 -7 -8 22 -8 72 0 47 3 79 6 73 2 -7 11 -13
19 -13z m1100 5 c12 -11 13 -33 8 -110 l-7 -95 -83 0 -84 0 0 100 0 100 40 0
c34 0 40 -3 40 -21 0 -18 2 -19 15 -9 8 7 15 18 15 25 0 8 8 16 18 18 9 3 18
5 20 6 2 0 10 -6 18 -14z m149 1 c16 -12 19 -25 17 -82 -2 -38 -7 -73 -12 -78
-6 -6 -4 -17 7 -28 15 -17 14 -18 -41 -18 -39 0 -55 3 -50 11 3 6 6 51 5 100
-1 49 1 94 4 99 9 14 48 12 70 -4z m-2102 -13 c13 -8 7 -31 -10 -37 -37 -15
-100 24 -76 47 6 7 69 -1 86 -10z m1037 -28 c0 -25 -4 -45 -10 -45 -11 0 -14
73 -3 83 11 12 13 8 13 -38z m-493 -27 c-2 -13 -4 -3 -4 22 0 25 2 35 4 23 2
-13 2 -33 0 -45z m1173 22 c0 -22 5 -40 10 -40 6 0 10 -27 10 -60 l0 -60 -55
0 c-30 0 -55 3 -56 8 0 4 -2 16 -5 27 -2 11 -1 53 2 93 l6 72 44 0 44 0 0 -40z
m510 2 c0 -4 -7 -17 -15 -29 -8 -12 -13 -27 -10 -35 6 -14 -20 -57 -28 -48 -5
5 -11 89 -8 128 1 22 2 22 31 7 17 -9 30 -19 30 -23z m140 29 c15 -195 17
-190 -85 -196 -89 -5 -115 0 -115 20 0 10 9 12 33 9 17 -3 59 -1 92 4 56 9 57
10 18 11 l-43 1 0 54 c0 39 -4 55 -15 60 -13 4 -14 10 -5 26 9 17 20 20 65 19
30 -1 55 -5 55 -8z m80 -111 c0 -48 1 -51 30 -56 45 -10 36 -24 -15 -24 l-45
0 0 81 c0 71 2 79 15 65 9 -9 15 -34 15 -66z m-2454 -17 l1 -73 -31 5 c-17 2
-37 4 -43 4 -17 1 -17 83 -1 99 10 10 10 15 -1 22 -11 6 -7 9 15 13 58 9 59 7
60 -70z m2514 27 c0 -27 -4 -50 -10 -50 -5 0 -10 23 -10 50 0 28 5 50 10 50 6
0 10 -22 10 -50z m-1693 8 c-3 -8 -6 -5 -6 6 -1 11 2 17 5 13 3 -3 4 -12 1
-19z m-349 -70 c-2 -6 -10 -14 -16 -16 -7 -2 -10 2 -6 12 7 18 28 22 22 4z"/>
<path d="M4738 2743 c12 -2 32 -2 45 0 12 2 2 4 -23 4 -25 0 -35 -2 -22 -4z"/>
<path d="M3600 2358 c-3 -26 -1 -43 3 -39 5 5 7 26 5 47 l-3 39 -5 -47z"/>
<path d="M3363 2360 c0 -25 2 -35 4 -22 2 12 2 32 0 45 -2 12 -4 2 -4 -23z"/>
<path d="M8584 6925 c-16 -13 -17 -16 -4 -24 17 -11 89 -4 105 11 28 25 -68
38 -101 13z"/>
<path d="M3032 6805 c-9 -11 -10 -20 -3 -33 9 -15 10 -15 11 6 0 12 5 22 10
22 6 0 10 5 10 10 0 14 -13 12 -28 -5z"/>
<path d="M3060 6490 c0 -5 5 -10 11 -10 5 0 7 5 4 10 -3 6 -8 10 -11 10 -2 0
-4 -4 -4 -10z"/>
<path d="M7196 5603 c-6 -14 -5 -15 5 -6 7 7 10 15 7 18 -3 3 -9 -2 -12 -12z"/>
<path d="M7153 4963 c9 -2 25 -2 35 0 9 3 1 5 -18 5 -19 0 -27 -2 -17 -5z"/>
<path d="M9333 4963 c31 -2 83 -2 115 0 31 2 5 3 -58 3 -63 0 -89 -1 -57 -3z"/>
<path d="M8192 4623 l3 -48 164 0 164 0 2 40 c1 22 -3 43 -9 47 -6 4 -82 8
-169 8 l-158 0 3 -47z"/>
<path d="M9368 4605 l4 -45 64 0 64 0 0 45 0 45 -68 0 -67 0 3 -45z"/>
<path d="M9360 4360 c0 -6 30 -10 70 -10 40 0 70 4 70 10 0 6 -30 10 -70 10
-40 0 -70 -4 -70 -10z"/>
<path d="M3028 4309 c-17 -9 -18 -47 -18 -559 l0 -550 573 -1 c314 -1 628 -2
697 -3 69 -1 106 0 83 2 -55 4 -56 22 -2 22 32 0 47 6 71 30 16 17 36 30 43
30 9 0 12 6 8 16 -5 13 -18 15 -84 9 -53 -5 -79 -4 -79 3 0 6 17 13 38 15 23
3 19 3 -11 2 -54 -2 -75 11 -73 47 1 23 1 23 136 20 74 -1 154 -5 178 -8 33
-4 43 -2 48 11 4 9 3 19 -1 23 -3 4 -59 10 -123 13 l-117 5 106 2 c84 2 108 5
113 17 10 27 -31 35 -179 35 l-146 0 6 323 c4 210 3 327 -4 337 -10 15 -107
28 -211 29 l-55 1 0 57 0 58 -34 -2 c-33 -1 -76 -37 -65 -54 20 -32 -80 -66
-159 -55 -23 4 -160 6 -304 6 -171 -1 -270 3 -283 10 -13 7 -26 7 -37 2 -9 -5
-24 -7 -34 -5 -16 5 -19 15 -19 64 0 55 -2 59 -22 59 -13 0 -31 -5 -40 -11z
m1231 -183 c8 -9 10 -92 6 -292 -4 -154 -8 -294 -11 -311 l-5 -33 -125 0 -126
0 6 28 c3 15 8 158 12 317 3 160 8 293 11 298 2 4 53 7 112 7 80 0 112 -4 120
-14z m-1009 -25 c0 -11 -59 -20 -65 -11 -3 4 -2 10 2 14 10 9 63 7 63 -3z
m205 -6 c0 -5 -21 -11 -47 -13 -39 -3 -48 0 -48 13 0 13 9 16 48 13 26 -2 47
-7 47 -13z m225 0 c0 -12 -14 -15 -65 -15 -60 0 -75 6 -58 23 3 4 33 7 65 7
45 0 58 -3 58 -15z m160 0 c0 -16 -16 -20 -65 -16 -37 3 -44 9 -25 21 25 16
90 12 90 -5z m123 -106 c-5 -18 -23 -27 -23 -11 1 25 14 52 20 42 4 -7 5 -21
3 -31z m0 -306 c-3 -87 -10 -162 -15 -168 -5 -6 -66 -10 -141 -10 -76 0 -113
2 -87 6 25 3 34 7 20 8 -25 2 -25 2 -5 17 18 13 20 13 23 0 2 -9 11 -16 20
-16 21 0 62 42 62 64 0 10 8 16 21 16 17 0 20 5 16 21 -4 13 0 22 11 26 30 10
63 56 61 83 -3 26 10 110 17 110 2 0 1 -71 -3 -157z m-603 -43 c0 -5 -5 -10
-11 -10 -5 0 -7 5 -4 10 3 6 8 10 11 10 2 0 4 -4 4 -10z"/>
<path d="M4825 3984 l-30 -15 34 6 c18 3 37 5 42 5 5 0 9 5 9 10 0 14 -19 11
-55 -6z"/>
<path d="M4960 3989 c0 -5 5 -7 10 -4 6 3 10 8 10 11 0 2 -4 4 -10 4 -5 0 -10
-5 -10 -11z"/>
<path d="M5000 3990 c0 -5 7 -10 15 -10 8 0 15 5 15 10 0 6 -7 10 -15 10 -8 0
-15 -4 -15 -10z"/>
<path d="M5055 3989 c-13 -5 0 -8 40 -8 33 -1 92 -3 130 -6 l70 -4 -70 9
c-119 16 -149 17 -170 9z"/>
<path d="M8263 3763 c-8 -19 -9 -159 -6 -718 1 -214 -2 -412 -6 -440 -8 -50
-8 -50 -10 24 -2 128 -47 161 -222 161 -162 0 -169 -10 -181 -270 -11 -239
-12 -244 -68 -250 -38 -4 -45 -9 -51 -33 -4 -16 -6 -34 -3 -41 6 -15 90 -23
352 -33 168 -6 172 -7 172 -28 0 -20 8 -22 160 -40 88 -10 160 -22 160 -27 0
-4 18 -8 40 -8 22 0 40 5 40 10 0 6 18 10 40 10 27 0 40 4 40 13 0 11 29 15
117 20 66 4 119 11 121 17 2 5 21 10 43 10 21 0 40 3 40 8 13 75 13 19 5 607
-4 328 -3 515 3 505 9 -12 11 -12 17 3 3 9 12 17 20 17 11 0 14 -29 14 -155 0
-95 -4 -164 -12 -180 -9 -20 -8 -31 3 -52 10 -22 14 -102 16 -363 2 -210 7
-336 13 -338 6 -2 10 -8 10 -13 0 -6 -4 -7 -10 -4 -5 3 -10 1 -10 -4 0 -6 19
-11 43 -11 23 0 85 -3 137 -6 52 -3 121 -2 153 1 l57 7 0 104 c0 57 -2 104 -5
104 -2 0 -14 -4 -27 -9 -13 -5 -42 -14 -65 -20 -40 -11 -43 -14 -43 -46 l0
-35 -78 0 c-68 0 -79 3 -90 21 -10 15 -11 24 -3 32 15 15 15 647 1 647 -6 0
-10 33 -10 80 0 47 4 80 10 80 6 0 10 18 10 40 0 22 -4 40 -10 40 -6 0 -10
101 -10 284 l0 284 -22 6 c-13 3 -218 6 -456 6 -399 0 -433 -1 -439 -17z m687
-732 c0 -17 -18 -21 -24 -6 -3 9 0 15 9 15 8 0 15 -4 15 -9z m-640 -235 c0 -3
-4 -8 -10 -11 -5 -3 -10 -1 -10 4 0 6 5 11 10 11 6 0 10 -2 10 -4z m867 -218
c-2 -13 -4 -3 -4 22 0 25 2 35 4 23 2 -13 2 -33 0 -45z m-1288 -183 l2 -125
-27 0 c-22 0 -25 3 -21 23 3 12 9 68 13 125 5 72 11 102 19 102 10 0 13 -32
14 -125z m316 -20 l-5 -95 -144 -3 -145 -2 3 35 c2 19 4 50 5 68 1 27 5 32 24
31 18 -1 19 -2 3 -6 -16 -4 -13 -10 20 -44 38 -39 39 -39 116 -39 l78 0 0 45
c0 39 -3 45 -25 51 -14 3 -25 9 -25 13 0 6 74 38 92 40 4 1 5 -42 3 -94z"/>
<path d="M8000 2300 c0 -11 43 -12 115 0 47 7 45 7 -32 9 -50 0 -83 -3 -83 -9z"/>
<path d="M7956 3218 c-3 -7 -4 -42 -3 -78 l2 -65 68 -3 68 -3 -3 78 -3 78 -63
3 c-44 2 -63 -1 -66 -10z m124 -58 c0 -5 -25 -10 -55 -10 -30 0 -55 5 -55 10
0 6 25 10 55 10 30 0 55 -4 55 -10z"/>
<path d="M7899 3180 c-4 -42 -1 -64 9 -68 8 -2 12 10 12 37 0 23 -4 41 -10 41
-5 0 -10 -4 -11 -10z"/>
<path d="M3010 3160 c0 -20 7 -20 455 -20 261 0 455 4 455 9 0 10 -192 18
-617 26 -288 5 -293 4 -293 -15z"/>
<path d="M7613 3000 c0 -25 2 -35 4 -22 2 12 2 32 0 45 -2 12 -4 2 -4 -23z"/>
<path d="M9354 2450 c-14 -14 -4 -90 12 -97 19 -7 86 25 79 38 -4 5 1 9 11 9
13 0 14 3 5 14 -9 11 -7 15 11 21 20 6 18 8 -17 15 -55 12 -89 12 -101 0z"/>
<path d="M7140 2221 c-59 -5 -62 -7 -31 -13 50 -12 543 -9 561 2 10 7 -24 10
-106 10 -66 0 -174 2 -240 4 -65 2 -148 1 -184 -3z"/>
<path d="M9070 2215 c0 -8 5 -15 10 -15 6 0 10 7 10 15 0 8 -4 15 -10 15 -5 0
-10 -7 -10 -15z"/>
<path d="M8930 969 c-8 -15 -10 -121 -4 -375 l7 -354 283 0 284 0 0 90 c0 63
-4 91 -13 97 -34 21 -47 58 -47 136 0 74 2 80 30 109 18 17 30 40 30 55 0 25
-1 25 -19 9 -19 -17 -19 -16 -14 22 3 24 0 49 -9 66 -14 26 -16 27 -31 11 -23
-22 -21 -35 4 -35 19 0 20 -4 15 -35 -4 -19 -2 -45 4 -57 11 -22 10 -22 -4 -4
-9 11 -16 31 -16 44 0 18 -4 23 -16 18 -11 -4 -18 1 -21 14 -3 11 -9 20 -14
20 -5 0 -9 10 -9 23 0 24 10 23 -152 27 -94 2 -133 13 -65 17 17 1 53 5 80 9
47 6 47 6 47 45 l0 38 113 4 c111 3 111 3 -43 7 l-155 4 155 6 c135 5 119 6
-127 8 -277 2 -283 2 -293 -19z m22 -254 c3 -138 2 -200 -2 -145 -8 99 -13
396 -6 389 2 -2 5 -112 8 -244z m374 113 c27 -9 37 -21 49 -57 19 -57 20 -131
1 -131 -7 0 -16 -8 -19 -19 -6 -25 -58 -49 -95 -43 -38 5 -85 -5 -77 -17 8
-14 9 -114 1 -139 -8 -26 -31 -29 -40 -6 -8 21 -8 409 1 417 11 12 145 8 179
-5z"/>
<path d="M9190 710 l0 -90 39 0 c63 0 89 14 100 55 12 45 7 76 -16 92 -10 7
-23 17 -30 23 -7 5 -30 10 -53 10 l-40 0 0 -90z"/>
<path d="M9328 873 c6 -2 18 -2 25 0 6 3 1 5 -13 5 -14 0 -19 -2 -12 -5z"/>
<path d="M9370 870 c0 -5 5 -10 10 -10 6 0 10 5 10 10 0 6 -4 10 -10 10 -5 0
-10 -4 -10 -10z"/>
<path d="M9460 874 c0 -9 31 -37 36 -32 9 9 -8 38 -22 38 -8 0 -14 -3 -14 -6z"/>
<path d="M9218 863 c12 -2 32 -2 45 0 12 2 2 4 -23 4 -25 0 -35 -2 -22 -4z"/>
<path d="M9487 603 c-11 -10 -8 -71 3 -78 6 -4 10 12 10 39 0 47 -2 51 -13 39z"/>
<path d="M5920 40 l0 -40 40 0 40 0 0 40 0 40 -40 0 -40 0 0 -40z"/>
</g>
</svg>
