<?xml version="1.0" standalone="no"?>
<!DOCTYPE svg PUBLIC "-//W3C//DTD SVG 20010904//EN"
 "http://www.w3.org/TR/2001/REC-SVG-20010904/DTD/svg10.dtd">
<svg version="1.0" xmlns="http://www.w3.org/2000/svg"
 width="1280.000000pt" height="720.000000pt" viewBox="0 0 1280.000000 720.000000"
 preserveAspectRatio="xMidYMid meet">
<metadata>
Created by potrace 1.16, written by Peter Selinger 2001-2019
</metadata>
<g transform="translate(0.000000,720.000000) scale(0.100000,-0.100000)"
fill="#000000" stroke="none">
<path d="M6305 7170 c-68 -8 -115 -25 -115 -40 0 -5 -6 -10 -14 -10 -8 0 -16
-14 -19 -32 -13 -79 -29 -128 -43 -128 -8 0 -14 -5 -14 -11 0 -6 -14 -39 -31
-72 -25 -50 -31 -76 -36 -151 -2 -50 -11 -111 -19 -135 -8 -25 -14 -57 -14
-73 0 -16 -4 -36 -10 -46 -5 -9 -14 -51 -20 -92 -15 -111 -25 -154 -63 -265
-36 -106 -57 -153 -85 -187 -40 -49 -97 -100 -131 -117 -42 -22 -135 -117
-145 -149 -4 -12 -12 -22 -17 -22 -5 0 -9 -13 -9 -29 0 -17 -5 -33 -11 -37 -6
-3 -20 -25 -30 -48 -21 -44 -40 -78 -50 -86 -3 -3 -9 -12 -13 -20 -11 -23 -29
-52 -53 -87 -13 -17 -23 -36 -23 -42 0 -6 -6 -11 -14 -11 -8 0 -17 -11 -20
-25 -4 -14 -11 -25 -16 -25 -6 0 -10 -7 -10 -15 0 -8 -3 -15 -8 -15 -7 0 -25
-30 -38 -62 -3 -10 -13 -18 -20 -18 -8 0 -14 -9 -14 -20 0 -11 -7 -20 -15 -20
-8 0 -15 -8 -15 -18 0 -10 -15 -26 -35 -36 -19 -11 -35 -23 -35 -28 0 -4 -6
-8 -13 -8 -22 0 -83 -65 -143 -153 -120 -177 -234 -329 -281 -374 -13 -12 -23
-29 -23 -37 0 -8 -9 -20 -20 -26 -11 -6 -20 -17 -20 -25 0 -8 -9 -20 -20 -27
-11 -7 -20 -18 -20 -25 0 -14 -32 -77 -42 -81 -5 -2 -8 -9 -8 -15 1 -11 -59
-136 -70 -147 -10 -10 -31 -45 -36 -62 -4 -10 -10 -18 -15 -18 -5 0 -9 -14 -9
-32 0 -34 20 -98 31 -98 4 0 12 -13 18 -28 13 -31 66 -62 106 -62 13 0 25 -4
27 -8 5 -13 78 -23 78 -11 0 5 -8 13 -17 16 -10 4 -22 12 -26 20 -4 7 -12 13
-18 13 -19 0 -47 36 -54 70 -4 19 -11 37 -16 40 -16 10 13 80 33 80 11 0 18 7
18 20 0 11 9 29 19 39 10 10 22 37 26 60 4 23 11 41 16 41 6 0 24 13 42 30 18
16 36 30 40 30 4 0 22 13 40 30 18 16 38 30 45 30 6 0 12 9 12 20 0 11 6 20
13 20 7 0 39 25 72 55 32 30 62 55 67 55 4 0 8 7 8 15 0 8 7 15 15 15 8 0 15
5 15 10 0 6 11 10 25 10 14 0 25 5 25 11 0 11 54 69 65 69 3 0 28 21 54 48 26
26 69 59 96 74 43 22 67 49 167 190 64 89 117 172 118 183 0 11 6 30 13 42 16
28 136 153 148 153 5 0 9 4 9 9 0 9 57 71 65 71 3 0 17 -13 33 -28 27 -26 30
-37 37 -128 10 -117 8 -233 -5 -329 -5 -38 -14 -151 -20 -250 -8 -141 -14
-189 -29 -220 -50 -104 -90 -194 -101 -230 -7 -22 -16 -49 -21 -60 -4 -11 -17
-53 -29 -92 -12 -40 -26 -73 -31 -73 -5 0 -9 -16 -9 -35 0 -25 -4 -33 -14 -29
-10 4 -19 -11 -31 -48 -18 -54 -67 -162 -144 -319 -23 -48 -45 -106 -48 -130
-3 -24 -9 -48 -13 -54 -14 -18 -58 -140 -64 -177 -4 -21 -11 -38 -16 -38 -19
0 -50 -45 -50 -73 0 -35 48 -147 70 -164 8 -6 30 -14 49 -17 19 -3 44 -15 57
-27 19 -18 26 -20 38 -10 9 8 27 10 45 6 l30 -6 3 -92 c2 -51 0 -96 -3 -102
-4 -5 -9 -68 -13 -140 -6 -142 -9 -171 -21 -198 -7 -18 -13 -524 -7 -657 2
-36 7 -169 13 -297 14 -310 -4 -433 -62 -433 -10 0 -20 -4 -23 -9 -7 -10 -55
-22 -193 -47 l-91 -17 -32 26 c-36 31 -33 30 -98 16 -58 -12 -94 -44 -86 -77
14 -50 158 -114 309 -137 126 -19 271 -58 268 -72 -3 -17 78 -44 155 -50 62
-5 72 -4 72 11 0 11 9 16 30 16 17 0 31 1 32 3 1 1 5 92 9 202 4 110 14 256
23 325 65 486 76 607 76 842 0 214 4 248 31 248 11 0 19 -6 19 -12 0 -9 4 -8
10 2 5 8 10 85 10 171 0 150 1 156 25 189 26 35 31 69 16 98 -12 24 -2 82 15
82 8 0 14 9 14 20 0 14 7 20 23 20 13 0 27 -4 33 -9 5 -5 45 -11 89 -14 44 -2
128 -10 188 -17 86 -11 107 -16 107 -29 -1 -39 -22 -163 -42 -241 -11 -47 -20
-110 -19 -141 1 -37 -6 -76 -20 -115 -24 -63 -66 -134 -80 -134 -5 0 -9 -5 -9
-12 0 -12 -29 -80 -55 -128 -32 -60 -95 -253 -100 -308 -3 -24 -8 -48 -12 -55
-4 -7 -10 -32 -14 -57 -15 -95 -21 -126 -29 -145 -8 -21 -48 -166 -55 -200 -4
-21 -17 -76 -33 -135 -16 -56 -34 -103 -49 -125 -7 -11 -13 -30 -13 -42 0 -13
-4 -23 -10 -23 -17 0 -60 -86 -60 -120 0 -44 44 -108 79 -116 14 -3 39 -10 55
-15 16 -5 65 -9 109 -9 67 0 83 -3 101 -21 37 -36 96 -69 125 -69 48 0 91 -12
91 -25 0 -10 40 -15 155 -20 85 -4 161 -5 170 -2 9 4 15 19 15 36 0 48 -9 61
-43 61 -44 0 -147 20 -182 36 -16 7 -50 22 -75 32 -37 15 -55 33 -92 88 -74
110 -88 143 -88 202 0 37 7 67 25 100 14 26 25 53 25 60 0 7 4 20 10 30 5 9
21 46 36 82 37 93 54 132 67 155 40 74 67 133 67 148 0 11 18 56 39 100 21 45
45 97 52 115 8 17 17 32 21 32 5 0 8 9 8 19 0 11 5 23 10 26 6 3 10 21 10 39
0 17 4 36 9 41 5 6 18 44 30 85 12 41 26 85 32 98 5 13 9 34 9 47 0 13 6 30
13 37 6 7 21 29 31 48 11 19 22 37 25 40 16 14 34 82 37 140 5 85 24 171 41
177 7 3 13 18 13 34 0 16 4 37 9 47 5 9 15 31 21 49 14 37 27 41 143 52 48 4
90 11 94 14 3 4 7 146 9 316 l3 309 43 84 c37 72 43 92 43 148 2 198 5 230 20
230 12 0 15 19 15 108 0 59 8 154 16 212 9 58 20 134 24 170 15 111 11 278
-11 420 -11 74 -25 214 -29 310 -27 513 -46 710 -71 726 -5 3 -9 16 -9 30 0
14 -6 24 -15 24 -12 0 -14 15 -12 77 1 54 -2 78 -10 80 -7 3 -13 13 -13 22 0
10 -9 26 -20 36 -31 28 -70 112 -70 150 0 19 -4 35 -10 35 -5 0 -10 8 -10 19
0 10 -11 30 -25 45 -14 15 -25 31 -25 36 0 16 -61 140 -68 140 -10 0 -34 74
-68 204 -14 54 -31 108 -39 120 -7 11 -19 40 -26 64 -7 23 -18 47 -26 53 -7 6
-13 18 -13 25 0 8 -7 14 -15 14 -8 0 -15 8 -15 18 0 9 -11 29 -25 44 -14 15
-25 32 -25 38 0 5 -4 10 -9 10 -10 0 -101 88 -101 98 -1 26 -139 95 -181 91
-8 -1 -41 -5 -74 -9z m322 -359 c36 -68 43 -134 21 -184 -16 -33 -22 -33 -42
-5 -19 26 -20 63 -5 122 9 38 8 49 -10 84 -24 47 -26 55 -9 50 6 -2 26 -32 45
-67z m400 -2083 c-3 -8 -6 -5 -6 6 -1 11 2 17 5 13 3 -3 4 -12 1 -19z m26
-210 c3 -21 2 -38 -4 -38 -5 0 -9 19 -9 42 0 49 5 47 13 -4z"/>
</g>
</svg>
