<?xml version="1.0" standalone="no"?>
<!DOCTYPE svg PUBLIC "-//W3C//DTD SVG 20010904//EN"
 "http://www.w3.org/TR/2001/REC-SVG-20010904/DTD/svg10.dtd">
<svg version="1.0" xmlns="http://www.w3.org/2000/svg"
 width="1280.000000pt" height="720.000000pt" viewBox="0 0 1280.000000 720.000000"
 preserveAspectRatio="xMidYMid meet">
<metadata>
Created by potrace 1.16, written by Peter Selinger 2001-2019
</metadata>
<g transform="translate(0.000000,720.000000) scale(0.100000,-0.100000)"
fill="#000000" stroke="none">
<path d="M6240 7182 c-62 -17 -100 -37 -100 -53 0 -19 -55 -91 -63 -83 -3 3
-3 -3 0 -14 2 -11 0 -23 -6 -26 -6 -4 -11 -16 -11 -26 0 -10 -3 -20 -8 -22
-13 -6 -91 -133 -97 -161 -4 -15 -11 -30 -16 -33 -5 -3 -9 -14 -9 -24 0 -10
-4 -20 -8 -22 -20 -7 -75 -175 -80 -243 -3 -38 -9 -73 -15 -77 -10 -6 -52
-116 -64 -165 -3 -13 -9 -23 -13 -23 -5 0 -12 -10 -15 -22 -4 -13 -18 -37 -31
-55 -13 -17 -24 -36 -24 -42 0 -11 -59 -102 -72 -111 -4 -3 -17 -26 -28 -50
-27 -58 -39 -77 -72 -115 -16 -16 -28 -35 -28 -41 0 -7 -6 -14 -14 -17 -8 -3
-19 -22 -26 -41 -8 -25 -18 -36 -31 -36 -10 0 -19 -6 -19 -13 0 -15 -74 -67
-96 -67 -8 0 -14 -6 -14 -14 0 -8 -16 -16 -40 -20 -22 -3 -40 -10 -40 -14 0
-9 -49 -32 -67 -32 -7 0 -13 -4 -13 -9 0 -5 -17 -15 -37 -22 -20 -6 -46 -20
-57 -30 -11 -11 -30 -19 -43 -19 -13 0 -23 -6 -23 -14 0 -9 -15 -17 -40 -21
-22 -4 -40 -11 -40 -16 0 -5 -18 -9 -40 -9 -22 0 -40 -4 -40 -10 0 -5 -18 -10
-40 -10 -22 0 -40 -4 -40 -8 0 -4 -32 -16 -70 -26 -39 -10 -76 -24 -83 -31 -7
-7 -31 -15 -53 -17 -39 -5 -105 -28 -114 -39 -3 -4 -21 -10 -40 -14 -19 -4
-37 -10 -40 -14 -6 -8 -83 -31 -127 -38 -19 -3 -33 -11 -33 -19 0 -10 -12 -14
-39 -14 -22 0 -41 -5 -43 -12 -3 -8 -44 -12 -134 -12 -118 -1 -132 1 -161 22
-17 12 -36 22 -42 22 -5 0 -22 11 -37 25 -21 19 -38 25 -75 25 -35 0 -51 5
-61 19 -17 24 -71 51 -103 51 -14 0 -25 5 -25 10 0 6 -13 10 -30 10 -16 0 -30
-4 -30 -10 0 -5 -11 -10 -25 -10 -14 0 -25 -6 -25 -13 0 -22 42 -50 120 -78
41 -14 104 -41 139 -58 36 -17 70 -31 78 -31 7 0 13 -4 13 -10 0 -5 -16 -10
-35 -10 -42 0 -47 -15 -7 -23 15 -3 49 -26 76 -51 l48 -46 190 0 c111 0 206
-5 228 -11 28 -9 56 -8 126 5 115 20 282 52 364 70 36 8 90 18 120 21 30 3 64
10 75 15 11 4 55 16 98 25 42 10 77 21 77 25 0 4 14 10 32 14 27 5 159 67 258
120 14 8 59 30 100 51 41 20 80 42 85 48 6 7 26 21 45 31 34 20 47 28 75 54 7
6 20 12 29 12 8 0 18 5 21 10 3 6 15 10 26 10 10 0 19 -4 19 -10 0 -5 7 -10
15 -10 8 0 15 -9 15 -19 0 -11 5 -32 11 -48 22 -54 27 -405 8 -533 -5 -36 -12
-92 -15 -125 -3 -33 -12 -73 -19 -90 -7 -16 -19 -56 -26 -87 -8 -32 -17 -58
-20 -58 -4 0 -10 -16 -14 -36 -7 -38 -23 -79 -60 -154 -36 -70 -63 -169 -79
-288 -9 -60 -20 -122 -26 -136 -5 -15 -10 -46 -10 -69 -1 -23 -9 -67 -20 -97
-11 -30 -19 -69 -20 -87 0 -17 -13 -69 -29 -115 -30 -86 -46 -150 -56 -228 -3
-25 -10 -56 -15 -70 -4 -14 -16 -61 -26 -105 -9 -44 -21 -85 -26 -92 -5 -6
-10 -36 -11 -66 l-2 -55 43 -5 c25 -3 53 -13 63 -24 19 -18 19 -28 9 -259 -6
-131 -18 -275 -26 -320 -7 -44 -14 -105 -14 -135 0 -30 -4 -59 -9 -64 -15 -16
-29 -225 -41 -600 -16 -528 -15 -522 -34 -550 -10 -14 -29 -31 -44 -37 -15 -7
-35 -18 -44 -26 -15 -12 -45 -14 -170 -9 -136 5 -155 4 -189 -13 -40 -21 -49
-36 -49 -84 0 -29 7 -36 71 -74 77 -46 141 -67 259 -81 88 -12 124 -25 162
-62 28 -28 79 -44 169 -55 60 -7 62 -5 87 76 13 41 18 341 7 360 -5 9 1 21 18
35 15 11 27 30 27 40 0 27 36 212 60 309 11 43 20 89 20 101 0 12 3 25 8 29
10 11 29 138 42 281 6 66 16 122 21 123 5 2 9 63 9 137 0 106 3 135 15 145 8
7 15 18 15 26 0 7 9 19 21 27 17 13 21 28 25 106 2 51 11 111 19 134 8 23 15
55 15 70 0 50 40 230 61 273 10 22 19 52 19 66 0 48 8 49 281 38 140 -6 272
-15 294 -20 44 -10 62 -28 74 -80 4 -19 14 -60 21 -90 7 -30 16 -60 21 -66 12
-14 29 -136 29 -205 0 -31 7 -76 16 -100 14 -40 14 -68 -2 -312 -15 -244 -15
-275 -1 -360 41 -244 92 -660 91 -752 -1 -44 -3 -120 -5 -170 -2 -49 0 -111 4
-137 l8 -48 58 0 c33 0 72 7 87 15 16 8 36 15 44 15 9 0 21 5 27 11 25 25 125
52 257 70 106 14 151 25 190 45 87 45 176 120 176 147 0 42 -94 53 -152 17
-43 -26 -74 -25 -188 6 -52 14 -108 28 -125 31 -35 7 -59 33 -86 93 -20 43
-21 57 -15 355 4 171 11 365 16 433 5 72 5 174 -1 250 -9 127 -5 192 12 192 5
0 9 7 9 15 0 8 -4 15 -8 15 -5 0 -5 28 0 63 5 37 5 96 -1 147 -21 181 -24 293
-7 325 9 17 16 35 16 41 0 12 29 28 75 42 17 5 30 13 30 18 -1 33 -30 189 -45
239 -18 62 -40 174 -59 305 -6 41 -13 203 -15 360 -5 270 -16 401 -46 530 -29
123 -90 456 -89 483 0 18 0 95 0 172 -1 77 3 169 9 205 5 36 10 95 10 133 0
37 4 67 9 67 5 0 11 18 15 40 5 34 10 40 31 40 15 0 25 6 25 14 0 30 52 27
105 -6 10 -7 35 -23 55 -35 19 -12 71 -46 115 -77 44 -31 90 -56 103 -56 12 0
22 -4 22 -9 0 -5 17 -15 37 -22 20 -6 46 -20 57 -30 11 -11 30 -19 43 -19 13
0 23 -6 23 -13 0 -7 17 -20 38 -30 20 -9 44 -21 52 -26 8 -4 45 -23 83 -42 37
-18 67 -37 67 -41 0 -4 36 -8 80 -8 47 0 80 -4 80 -10 0 -5 14 -10 30 -10 17
0 30 -4 30 -10 0 -5 9 -10 20 -10 11 0 20 -4 20 -10 0 -6 41 -10 103 -10 116
-1 238 -20 287 -45 41 -21 150 -33 150 -16 0 7 27 11 80 11 47 0 80 -4 80 -10
0 -5 7 -10 15 -10 25 0 65 23 65 37 0 8 13 13 36 13 38 0 73 29 74 63 0 9 4
17 8 17 5 0 17 18 28 40 10 22 24 40 29 40 10 0 27 27 41 63 3 9 14 17 24 17
12 0 21 10 25 29 3 16 17 42 31 58 13 15 24 38 24 50 0 12 6 23 13 26 6 2 9 8
5 12 -18 19 -138 -66 -138 -98 0 -11 -92 -107 -103 -107 -5 0 -23 -11 -41 -25
-18 -14 -38 -25 -44 -25 -7 0 -12 -4 -12 -8 0 -22 -142 -43 -154 -23 -3 4 -34
14 -68 21 -35 7 -67 16 -73 21 -5 4 -28 10 -50 14 -22 4 -44 11 -50 15 -5 4
-27 10 -47 14 -21 4 -38 10 -38 14 0 7 -45 25 -115 44 -22 6 -42 14 -45 17 -7
10 -133 61 -147 61 -7 0 -13 5 -13 10 0 6 -8 10 -17 10 -10 0 -31 7 -47 15
-15 8 -44 15 -62 15 -19 0 -34 5 -34 10 0 6 -8 10 -18 10 -28 0 -142 41 -142
51 0 5 -8 9 -17 9 -10 0 -33 14 -51 30 -19 16 -47 35 -63 42 -16 7 -29 16 -29
20 0 5 -8 8 -19 8 -10 0 -24 7 -31 15 -7 8 -20 15 -30 15 -10 0 -23 7 -30 15
-7 8 -19 15 -26 15 -16 0 -104 84 -104 99 0 6 -9 15 -20 21 -11 6 -20 17 -20
25 0 8 -3 15 -8 15 -4 0 -18 17 -31 38 -13 21 -36 47 -51 57 -14 10 -31 27
-36 39 -6 14 -20 22 -41 24 -18 2 -33 9 -33 15 0 12 -25 28 -62 43 -21 7 -24
24 -5 24 10 0 13 20 10 88 -3 96 -13 164 -20 144 -3 -7 -19 13 -36 45 -16 32
-34 60 -38 61 -5 2 -9 9 -9 16 0 7 -8 21 -17 32 -22 24 -73 126 -73 145 0 8
-4 19 -8 25 -5 5 -17 44 -27 87 -9 42 -21 77 -26 77 -5 0 -9 9 -9 20 0 38 -42
132 -61 137 -11 3 -19 14 -19 27 0 12 -8 31 -17 42 -10 11 -29 41 -42 67 -46
92 -127 141 -258 157 -43 6 -91 12 -108 14 -16 2 -41 1 -55 -2z m383 -270 c23
-25 67 -165 67 -212 0 -49 -21 -140 -32 -140 -5 0 -6 -11 -2 -24 3 -13 1 -27
-5 -30 -7 -4 -11 1 -11 13 0 11 -7 46 -15 78 -8 31 -15 74 -15 95 0 25 5 41
15 44 17 7 21 54 4 54 -5 0 -8 4 -5 9 4 5 -3 30 -14 56 -30 70 -24 98 13 57z
m-1186 -4274 c-2 -18 -4 -6 -4 27 0 33 2 48 4 33 2 -15 2 -42 0 -60z"/>
<path d="M8668 4893 c17 -2 47 -2 65 0 17 2 3 4 -33 4 -36 0 -50 -2 -32 -4z"/>
</g>
</svg>
