<?xml version="1.0" standalone="no"?>
<!DOCTYPE svg PUBLIC "-//W3C//DTD SVG 20010904//EN"
 "http://www.w3.org/TR/2001/REC-SVG-20010904/DTD/svg10.dtd">
<svg version="1.0" xmlns="http://www.w3.org/2000/svg"
 width="1280.000000pt" height="720.000000pt" viewBox="0 0 1280.000000 720.000000"
 preserveAspectRatio="xMidYMid meet">
<metadata>
Created by potrace 1.16, written by Peter Selinger 2001-2019
</metadata>
<g transform="translate(0.000000,720.000000) scale(0.100000,-0.100000)"
fill="#000000" stroke="none">
<path d="M6263 6914 c-13 -3 -23 -12 -23 -20 0 -8 -6 -14 -14 -14 -15 0 -46
-58 -46 -87 0 -10 -13 -31 -28 -48 -54 -58 -106 -156 -122 -227 -13 -60 -33
-118 -42 -118 -4 0 -11 -18 -14 -40 -4 -22 -10 -40 -13 -40 -4 0 -15 -26 -25
-57 -10 -32 -22 -66 -27 -75 -5 -10 -9 -23 -9 -30 0 -18 -43 -152 -50 -158 -4
-3 -10 -22 -14 -42 -4 -20 -11 -38 -16 -40 -9 -3 -42 -80 -57 -133 -4 -11 -9
-22 -12 -25 -15 -12 -71 -174 -71 -204 0 -19 -12 -55 -27 -82 l-28 -49 -1
-215 c-1 -118 -6 -246 -12 -285 -6 -38 -9 -92 -6 -120 10 -82 -38 -238 -106
-345 -26 -42 -140 -287 -140 -302 0 -17 -57 -110 -72 -116 -4 -2 -8 -10 -8
-19 0 -17 -156 -170 -183 -179 -10 -3 -47 -35 -81 -71 l-63 -65 -7 -82 c-5
-71 -3 -89 14 -124 25 -51 50 -68 113 -76 42 -5 51 -3 69 17 28 31 58 114 58
159 0 44 19 58 79 58 29 0 39 4 35 13 -3 8 6 18 20 25 30 13 54 88 60 188 5
68 5 69 38 77 41 11 46 16 28 27 -9 6 -10 10 -3 10 24 0 217 187 228 221 4 10
11 19 16 19 5 0 14 11 19 25 5 14 17 28 25 31 8 4 15 16 15 28 0 12 4 26 9 32
4 5 14 30 21 57 9 35 17 47 31 47 23 0 24 -18 4 -84 -8 -27 -15 -65 -15 -85 0
-20 -9 -68 -21 -106 -11 -39 -26 -97 -34 -130 -8 -33 -30 -101 -49 -152 -39
-104 -60 -224 -77 -453 -6 -85 -17 -169 -24 -185 -7 -17 -16 -62 -20 -100 -4
-39 -14 -83 -22 -99 -9 -16 -19 -61 -24 -100 -9 -75 -67 -318 -78 -326 -3 -3
-16 -32 -27 -65 l-22 -61 22 -26 c28 -35 101 -68 145 -67 20 1 49 -4 64 -10
16 -6 53 -11 83 -11 31 0 64 -5 74 -10 13 -7 21 -7 25 0 10 16 45 12 45 -5 0
-8 7 -15 15 -15 10 0 15 -10 15 -28 0 -16 3 -32 7 -36 14 -14 1 -140 -18 -176
-30 -58 -49 -102 -49 -117 0 -7 -4 -13 -9 -13 -5 0 -26 -35 -47 -77 -22 -43
-49 -89 -61 -103 -13 -14 -23 -33 -23 -42 0 -10 -3 -18 -8 -18 -8 0 -27 -50
-44 -117 -6 -24 -15 -43 -20 -43 -4 0 -8 -18 -8 -40 0 -22 -4 -40 -10 -40 -5
0 -10 -16 -10 -36 0 -19 -4 -43 -9 -52 -12 -24 -51 -252 -51 -301 0 -56 -36
-240 -49 -251 -15 -12 -42 -86 -48 -129 -3 -25 -14 -58 -25 -73 -29 -41 -51
-110 -37 -118 7 -5 6 -18 -5 -44 -9 -21 -11 -36 -5 -36 6 0 8 -9 4 -20 -9 -28
12 -60 40 -60 13 0 25 -4 27 -9 5 -13 129 -52 186 -58 28 -3 52 -10 52 -14 0
-5 18 -9 40 -9 35 0 40 3 40 23 1 20 2 21 14 4 16 -20 26 -22 26 -4 0 7 9 30
20 52 20 40 27 95 12 95 -14 0 -72 87 -72 107 0 11 -5 24 -11 30 -12 12 -10
49 11 198 15 112 22 145 30 145 4 0 10 17 14 37 3 21 13 51 21 67 8 15 15 35
15 42 0 8 6 14 13 14 6 0 23 22 36 48 33 65 111 242 111 254 0 5 6 16 14 24 8
7 22 35 32 61 10 27 20 50 24 53 3 3 14 31 24 63 11 33 44 95 73 139 29 44 53
86 53 94 0 8 5 14 10 14 6 0 10 6 10 14 0 8 6 21 13 28 6 7 21 30 32 51 11 20
23 37 27 37 5 0 8 8 8 18 0 10 4 22 8 27 5 6 17 33 26 60 10 28 22 59 27 70 5
11 9 52 8 90 -4 131 -6 127 49 123 l47 -3 6 -110 c7 -123 18 -195 29 -195 5 0
11 -18 15 -40 4 -22 11 -42 16 -46 5 -3 9 -17 9 -32 0 -15 9 -52 21 -82 12
-33 23 -91 26 -145 3 -49 10 -96 15 -102 6 -7 7 -24 4 -38 -3 -13 -1 -46 5
-72 5 -26 12 -70 14 -98 6 -69 28 -207 56 -352 21 -112 22 -130 11 -206 -7
-46 -12 -115 -12 -153 0 -39 -4 -74 -8 -79 -5 -6 -15 -26 -23 -45 -7 -19 -26
-47 -41 -62 -23 -23 -28 -36 -28 -76 0 -28 6 -54 13 -60 18 -15 275 -18 290
-3 6 6 27 11 47 11 40 1 90 38 90 68 0 30 -49 122 -65 122 -9 0 -15 9 -15 25
0 14 5 25 10 25 6 0 10 39 10 98 0 82 -3 102 -18 118 -12 12 -16 24 -11 34 5
8 15 69 24 135 8 66 22 158 30 203 17 94 23 160 32 380 4 104 3 152 -5 152 -6
0 -15 23 -21 50 -6 28 -17 61 -25 73 -8 12 -17 43 -21 69 -3 27 -10 48 -14 48
-5 0 -12 26 -16 58 -9 67 -9 90 -1 157 5 44 4 47 -6 23 -7 -16 -15 -28 -20
-28 -9 0 -13 25 -8 50 1 8 5 48 9 89 l6 75 60 -3 c39 -1 90 6 140 20 44 12
112 27 150 33 l70 11 -3 45 c-2 25 -10 74 -18 110 -27 118 -54 274 -64 369 -6
52 -18 119 -27 150 -8 31 -17 67 -20 81 -3 14 -11 39 -18 56 -27 59 -65 190
-75 259 -5 39 -22 115 -36 170 -28 107 -53 222 -54 243 0 6 5 12 10 12 6 0 10
-6 10 -12 0 -7 18 -33 40 -58 22 -25 40 -51 40 -58 0 -6 32 -44 70 -83 39 -40
70 -74 70 -78 0 -3 16 -17 35 -30 44 -30 148 -39 244 -22 44 8 92 9 146 4 83
-9 129 -1 173 27 12 8 22 22 22 31 0 20 -45 59 -68 59 -10 0 -27 6 -38 14 -27
19 -170 29 -264 18 -68 -8 -70 -9 -25 -11 67 -2 101 -11 83 -22 -18 -12 -128
-11 -128 1 0 6 -17 10 -37 10 -42 0 -82 17 -94 40 -4 8 -13 36 -21 63 -7 26
-16 47 -20 47 -4 0 -8 9 -8 20 0 10 -8 43 -18 72 -35 100 -42 124 -42 151 0
14 -4 28 -9 32 -16 9 -41 110 -41 165 0 28 -5 60 -11 71 -14 27 -22 174 -20
399 0 185 12 272 38 298 7 7 13 25 13 40 0 15 7 41 16 57 13 24 15 48 10 120
-4 50 -11 92 -16 93 -6 2 -10 8 -10 14 0 6 -11 23 -25 40 -14 16 -25 35 -25
41 0 15 -54 67 -69 67 -16 0 -13 37 5 65 13 19 14 39 9 100 -4 41 -11 75 -16
75 -5 0 -9 7 -9 16 0 8 -6 22 -12 29 -30 34 -38 45 -38 55 0 6 -18 45 -39 88
-22 42 -43 89 -46 105 -4 15 -11 27 -15 27 -4 0 -10 19 -13 43 -6 48 -33 162
-46 192 -26 59 -40 94 -52 128 -7 20 -17 37 -21 37 -4 0 -8 7 -8 15 0 19 -27
74 -46 93 -8 7 -14 20 -14 28 0 8 -7 17 -15 20 -8 4 -15 11 -15 16 0 6 -10 23
-22 38 -45 55 -73 93 -76 101 -2 5 -12 9 -22 9 -9 0 -34 7 -55 16 -37 15 -181
27 -222 18z m415 -364 c42 -105 50 -171 28 -224 -9 -21 -16 -47 -16 -58 0 -16
-28 -58 -31 -46 -2 10 -8 62 -13 123 -4 39 -8 75 -11 82 -2 7 2 19 10 27 20
20 19 35 -10 112 -30 79 -29 76 -7 72 11 -2 28 -32 50 -88z m-1548 -2935 c0
-8 -4 -15 -10 -15 -5 0 -7 7 -4 15 4 8 8 15 10 15 2 0 4 -7 4 -15z m-75 -135
c-3 -5 -12 -10 -20 -10 -8 0 -17 5 -20 10 -4 6 5 10 20 10 15 0 24 -4 20 -10z
m90 0 c-3 -5 -15 -10 -26 -10 -10 0 -19 5 -19 10 0 6 12 10 26 10 14 0 23 -4
19 -10z"/>
</g>
</svg>
