<?xml version="1.0" standalone="no"?>
<!DOCTYPE svg PUBLIC "-//W3C//DTD SVG 20010904//EN"
 "http://www.w3.org/TR/2001/REC-SVG-20010904/DTD/svg10.dtd">
<svg version="1.0" xmlns="http://www.w3.org/2000/svg"
 width="1280.000000pt" height="720.000000pt" viewBox="0 0 1280.000000 720.000000"
 preserveAspectRatio="xMidYMid meet">
<metadata>
Created by potrace 1.16, written by Peter Selinger 2001-2019
</metadata>
<g transform="translate(0.000000,720.000000) scale(0.100000,-0.100000)"
fill="#000000" stroke="none">
<path d="M6295 7180 c-11 -5 -36 -9 -55 -9 -28 -1 -40 -8 -57 -34 -13 -18 -23
-45 -23 -59 0 -25 -23 -44 -40 -33 -4 3 -13 -10 -20 -28 -6 -17 -18 -43 -26
-57 -94 -162 -153 -344 -174 -530 -6 -52 -18 -115 -27 -140 -16 -43 -57 -114
-78 -135 -41 -40 -57 -70 -71 -126 -8 -35 -20 -72 -25 -82 -6 -11 -9 -40 -8
-65 1 -26 -4 -58 -11 -72 -60 -107 -67 -150 -79 -530 -6 -162 -15 -311 -21
-330 -6 -19 -15 -75 -20 -125 -6 -49 -15 -117 -20 -150 -26 -150 -40 -324 -40
-481 0 -176 -23 -353 -55 -431 -8 -19 -13 -39 -10 -43 3 -5 2 -10 -2 -12 -5
-1 -21 -31 -38 -66 -16 -35 -35 -68 -42 -74 -16 -13 -17 -107 -3 -196 11 -66
55 -160 79 -170 21 -8 41 27 41 71 0 41 14 77 36 90 16 9 48 80 74 162 18 58
57 250 62 310 2 19 9 31 21 33 22 4 22 -17 1 -134 -9 -49 -20 -116 -24 -149
-9 -66 -35 -204 -75 -395 -26 -128 -52 -273 -61 -345 -5 -36 -2 -43 33 -76 29
-28 62 -45 138 -69 55 -18 104 -36 109 -41 6 -5 24 -9 40 -9 67 0 76 -8 76
-64 0 -28 5 -69 10 -92 11 -49 -3 -288 -25 -419 -26 -157 -29 -313 -10 -500 9
-93 23 -199 30 -235 26 -129 47 -226 63 -290 10 -41 16 -109 17 -185 0 -140
-17 -199 -68 -237 -72 -52 -97 -87 -97 -133 0 -63 24 -87 96 -96 158 -21 164
-22 164 -10 0 6 13 11 29 11 16 0 50 14 77 33 l49 34 4 79 c4 90 4 269 -1 489
-2 83 3 222 10 310 8 88 17 277 21 420 6 207 10 267 23 295 9 19 19 49 21 65
3 17 10 57 17 90 6 33 13 130 14 215 2 129 5 155 18 158 21 4 31 -151 17 -263
-8 -67 -7 -98 6 -160 25 -123 28 -182 16 -327 -6 -76 -12 -305 -12 -509 0
-317 -2 -377 -16 -408 -12 -28 -16 -78 -18 -221 -1 -102 -6 -201 -10 -222 -10
-50 1 -78 30 -78 13 0 25 -5 27 -12 2 -6 37 -13 85 -16 136 -8 283 39 283 90
0 46 -13 67 -59 98 -56 39 -100 103 -102 151 -1 19 1 66 5 104 6 55 5 74 -7
90 -13 17 -13 21 0 30 13 10 59 161 114 380 11 44 24 94 29 111 6 17 10 47 10
68 0 21 10 84 21 139 25 116 31 346 11 383 -11 21 -20 84 -25 178 -3 40 0 50
15 54 21 5 23 13 6 30 -9 9 -8 29 2 84 14 81 48 244 56 269 4 13 24 18 97 24
51 4 93 6 94 4 1 -2 12 6 25 17 13 12 50 26 88 34 114 21 104 -11 96 328 -6
253 -5 297 8 311 16 17 76 158 76 177 0 6 -7 24 -15 40 -18 37 -33 192 -23
230 10 33 20 401 18 614 -1 128 -11 251 -26 330 -12 61 -44 632 -42 740 3 130
-17 261 -46 307 -45 69 -66 92 -116 124 -45 29 -48 33 -32 45 14 10 15 15 5
25 -7 7 -13 25 -13 40 0 15 -4 30 -9 33 -4 3 -11 34 -13 70 -6 66 -9 74 -72
186 -60 106 -75 142 -105 261 -17 63 -33 125 -37 139 -10 38 -137 298 -172
354 -17 26 -44 55 -61 64 -16 10 -44 26 -63 36 -36 21 -176 31 -213 16z m362
-267 c11 -21 31 -72 43 -113 19 -65 22 -89 16 -175 -7 -107 -22 -179 -35 -170
-5 2 -6 25 -3 50 2 25 -1 87 -8 138 -7 51 -14 102 -14 114 -1 12 -4 25 -8 29
-4 4 -5 18 -2 30 9 35 -2 65 -36 102 -16 18 -30 40 -30 48 0 26 53 -10 77 -53z"/>
</g>
</svg>
