<?xml version="1.0" standalone="no"?>
<!DOCTYPE svg PUBLIC "-//W3C//DTD SVG 20010904//EN"
 "http://www.w3.org/TR/2001/REC-SVG-20010904/DTD/svg10.dtd">
<svg version="1.0" xmlns="http://www.w3.org/2000/svg"
 width="1280.000000pt" height="720.000000pt" viewBox="0 0 1280.000000 720.000000"
 preserveAspectRatio="xMidYMid meet">
<metadata>
Created by potrace 1.16, written by Peter Selinger 2001-2019
</metadata>
<g transform="translate(0.000000,720.000000) scale(0.100000,-0.100000)"
fill="#000000" stroke="none">
<path d="M6260 7173 c-14 -2 -29 -9 -34 -14 -6 -5 -25 -9 -43 -9 -31 0 -33 -2
-33 -33 0 -36 -25 -67 -53 -67 -11 0 -17 -8 -17 -22 0 -11 -18 -45 -40 -74
-22 -29 -40 -57 -40 -61 0 -4 -11 -30 -24 -58 -59 -121 -78 -199 -96 -378 -6
-64 -18 -130 -26 -145 -7 -15 -14 -37 -14 -49 0 -13 -4 -23 -8 -23 -5 0 -17
-18 -28 -40 -10 -22 -25 -40 -31 -40 -7 0 -13 -9 -13 -20 0 -11 -9 -29 -20
-40 -25 -25 -29 -100 -5 -100 9 0 15 -9 15 -24 0 -27 -46 -77 -92 -102 -16 -8
-28 -19 -28 -24 0 -6 -7 -10 -15 -10 -8 0 -15 -6 -15 -14 0 -19 -60 -116 -71
-116 -5 0 -9 -14 -9 -30 0 -26 -14 -64 -30 -80 -19 -19 -50 -72 -50 -85 0 -22
-41 -75 -57 -75 -21 0 -103 -89 -103 -111 0 -10 -7 -19 -15 -19 -9 0 -18 -7
-21 -15 -4 -8 -15 -15 -25 -15 -10 0 -19 -7 -19 -15 0 -9 -7 -18 -15 -21 -8
-4 -15 -14 -15 -24 0 -26 -76 -100 -103 -100 -7 0 -18 -5 -23 -10 -17 -17
-150 -50 -199 -50 -25 0 -45 -4 -45 -10 0 -6 -30 -10 -70 -10 -52 0 -70 -3
-70 -14 0 -22 -131 -36 -322 -34 -98 1 -178 6 -178 10 0 4 -17 16 -37 27 -36
18 -64 43 -141 124 -34 37 -68 47 -157 47 -27 0 -81 7 -118 17 -59 14 -70 14
-78 2 -5 -9 -4 -15 4 -18 7 -2 22 -15 34 -28 24 -25 90 -53 126 -53 21 0 97
-75 97 -95 0 -7 7 -19 17 -26 9 -8 22 -28 29 -45 17 -40 99 -131 135 -149 42
-22 413 -21 457 0 31 16 98 14 433 -9 33 -2 68 2 88 10 18 8 41 14 50 14 31 0
206 96 216 118 5 12 14 22 20 22 10 0 105 103 105 114 0 3 8 14 18 24 9 10 55
61 102 115 46 53 87 97 91 97 14 0 109 104 109 120 0 8 12 -12 25 -45 14 -34
24 -77 23 -100 -2 -57 13 -165 23 -165 12 0 11 -146 0 -168 -5 -9 -15 -51 -21
-92 -6 -41 -18 -91 -27 -110 -8 -19 -17 -68 -19 -110 -6 -87 -19 -139 -51
-195 -23 -41 -45 -86 -81 -167 -34 -76 -60 -205 -66 -333 -4 -79 -14 -155 -31
-219 -13 -54 -25 -108 -24 -120 0 -32 -16 -121 -40 -217 -12 -48 -21 -101 -21
-118 0 -17 -9 -89 -21 -160 -11 -71 -19 -153 -17 -182 l3 -54 70 -13 c39 -7
97 -16 130 -20 l60 -7 3 -117 c1 -69 -1 -118 -7 -118 -5 0 -12 -28 -16 -62 -3
-35 -12 -83 -20 -108 -7 -25 -17 -64 -20 -88 -6 -38 -5 -42 14 -42 11 0 23 -5
26 -10 4 -6 -7 -10 -24 -10 -24 0 -31 -4 -31 -20 0 -11 -7 -36 -14 -55 -14
-32 -13 -35 2 -36 10 -1 7 -4 -8 -8 -19 -5 -26 -16 -32 -46 -8 -52 -31 -115
-40 -115 -4 0 -11 -18 -14 -40 -4 -22 -10 -40 -13 -40 -6 0 -15 -25 -52 -147
-10 -33 -30 -133 -53 -273 -8 -47 -17 -146 -21 -220 -7 -146 -28 -324 -45
-380 -5 -19 -10 -50 -10 -67 0 -21 -5 -33 -14 -33 -19 0 -33 -144 -16 -165 6
-7 12 -27 12 -44 1 -17 5 -31 10 -31 5 0 7 -4 4 -8 -8 -14 23 -52 43 -52 9 0
22 -5 28 -11 7 -7 86 -13 214 -15 112 -3 254 -8 316 -12 124 -8 143 -2 157 51
3 15 11 27 16 27 6 0 10 17 10 38 0 32 -5 41 -25 50 -14 7 -32 12 -40 12 -8 0
-15 6 -15 14 0 16 -21 26 -56 26 -13 0 -24 3 -24 8 0 7 -17 16 -130 63 -35 15
-66 32 -68 38 -2 6 -12 11 -23 11 -10 0 -19 6 -19 13 0 7 -14 46 -31 87 -28
66 -31 81 -26 138 7 66 44 229 57 247 4 6 17 44 30 85 12 41 28 94 36 118 8
23 14 58 14 77 0 19 4 35 8 35 9 0 37 76 47 127 4 18 11 33 16 33 5 0 9 12 9
26 0 26 88 214 100 214 4 0 13 18 20 40 7 22 19 40 27 40 7 0 13 10 13 22 0
12 16 37 38 57 47 45 70 104 49 126 -10 10 -13 28 -9 62 6 63 15 72 11 11 -3
-27 -1 -48 2 -48 3 0 9 53 13 117 19 348 21 363 47 381 36 26 56 30 160 31
133 1 141 -5 150 -130 4 -52 12 -138 19 -192 9 -73 9 -110 1 -142 -16 -63 -13
-156 5 -180 8 -11 19 -38 25 -60 6 -22 25 -83 44 -135 21 -61 38 -131 45 -195
6 -55 17 -134 25 -175 8 -41 26 -140 40 -220 13 -80 34 -192 46 -250 29 -145
22 -313 -16 -415 -40 -106 -54 -125 -97 -131 -58 -10 -74 -34 -62 -94 6 -28 7
-56 2 -65 -6 -10 -3 -25 9 -45 15 -27 23 -30 65 -30 26 0 48 4 48 9 0 5 55 11
123 12 107 4 126 7 154 27 17 12 35 22 39 22 4 0 15 7 24 15 14 12 15 24 9 63
-4 26 -8 115 -8 197 -1 128 -4 156 -20 189 -14 27 -17 44 -11 64 9 28 26 194
39 382 9 122 4 355 -9 420 -5 25 -12 66 -15 92 -3 26 -10 50 -16 53 -5 4 -9
21 -9 40 0 19 -6 35 -14 38 -8 3 -18 22 -22 41 -3 20 -10 36 -15 36 -5 0 -9
10 -9 23 0 13 -7 32 -15 43 -8 10 -15 31 -15 45 0 14 -7 40 -16 58 -19 38 -19
34 -5 231 6 85 16 157 21 158 6 2 10 22 10 43 0 22 7 62 16 90 14 42 20 49 43
49 57 0 222 41 244 60 5 4 -3 86 -18 181 -14 96 -30 208 -36 249 -5 41 -23
179 -39 305 -19 145 -30 274 -30 350 0 254 -31 457 -84 555 -27 51 -46 790
-20 790 7 0 15 22 19 49 4 28 13 52 21 55 8 3 14 12 14 21 0 29 29 15 84 -41
31 -30 56 -58 56 -62 0 -12 57 -72 69 -72 6 0 11 -4 11 -9 0 -5 47 -56 105
-112 58 -57 105 -110 105 -119 0 -8 23 -28 50 -45 28 -16 80 -49 116 -71 48
-31 80 -44 122 -49 31 -3 93 -12 137 -20 44 -8 157 -19 250 -24 139 -9 190 -8
280 4 61 8 133 15 162 15 40 0 58 5 79 24 l28 23 -54 -3 c-30 -2 -46 -1 -35 2
47 12 65 27 65 56 0 26 3 28 40 28 l40 0 0 40 c0 36 3 40 25 40 17 0 25 6 25
18 1 20 34 62 50 62 12 0 33 16 58 44 9 10 25 26 35 35 9 8 17 20 17 27 0 6 9
19 19 28 11 10 18 23 15 30 -3 7 2 29 11 49 20 48 19 67 -4 67 -24 0 -114 -45
-131 -65 -7 -8 -16 -15 -21 -15 -17 0 -57 -46 -68 -80 -7 -20 -29 -48 -52 -65
-22 -16 -46 -36 -54 -42 -7 -7 -16 -13 -19 -13 -2 0 -18 -12 -34 -27 -100 -93
-142 -107 -262 -83 -93 18 -355 92 -358 101 -2 5 -15 9 -30 9 -14 0 -33 6 -41
13 -21 18 -96 47 -121 47 -11 0 -20 5 -20 10 0 6 -6 10 -13 10 -22 0 -115 50
-121 65 -3 8 -13 15 -23 15 -20 1 -83 54 -83 70 0 5 -6 10 -13 10 -6 0 -18 13
-25 29 -15 34 -39 62 -67 77 -11 6 -24 20 -30 32 -5 12 -13 22 -17 22 -5 0 -8
6 -8 13 0 7 -9 18 -20 25 -11 7 -20 19 -20 27 0 8 -3 15 -7 15 -9 0 -33 49
-33 67 0 7 -4 13 -9 13 -5 0 -16 18 -25 40 -9 22 -20 40 -26 40 -5 0 -13 12
-16 28 -4 15 -20 43 -35 63 -16 20 -29 44 -29 53 0 8 -13 25 -29 37 -20 15
-29 30 -29 48 1 32 -26 86 -46 94 -8 3 -17 21 -21 39 -8 37 -51 135 -70 158
-7 8 -21 38 -31 65 -10 28 -21 52 -24 55 -10 8 -39 111 -45 160 -10 79 -29
160 -37 160 -4 0 -8 11 -8 25 0 13 -5 37 -11 52 -31 78 -53 123 -61 123 -4 0
-8 7 -8 15 0 16 -44 90 -67 113 -7 7 -13 19 -13 25 -1 29 -57 76 -100 86 -54
11 -245 21 -280 14z m360 -258 c65 -69 81 -355 19 -355 -14 0 -19 12 -24 68
-3 37 -8 79 -11 94 -4 20 -1 28 15 33 24 7 27 20 9 32 -7 4 -14 17 -15 28 -2
23 -17 81 -28 108 -10 25 8 21 35 -8z m27 -397 c-3 -8 -6 -5 -6 6 -1 11 2 17
5 13 3 -3 4 -12 1 -19z"/>
</g>
</svg>
