<?xml version="1.0" standalone="no"?>
<!DOCTYPE svg PUBLIC "-//W3C//DTD SVG 20010904//EN"
 "http://www.w3.org/TR/2001/REC-SVG-20010904/DTD/svg10.dtd">
<svg version="1.0" xmlns="http://www.w3.org/2000/svg"
 width="1280.000000pt" height="720.000000pt" viewBox="0 0 1280.000000 720.000000"
 preserveAspectRatio="xMidYMid meet">
<metadata>
Created by potrace 1.16, written by Peter Selinger 2001-2019
</metadata>
<g transform="translate(0.000000,720.000000) scale(0.100000,-0.100000)"
fill="#000000" stroke="none">
<path d="M6240 7050 c0 -5 -5 -10 -11 -10 -16 0 -48 -42 -49 -62 0 -10 -5 -18
-10 -18 -7 0 -7 -6 -1 -19 8 -15 4 -24 -24 -50 -19 -17 -35 -37 -35 -44 0 -7
-18 -33 -40 -57 -22 -25 -40 -51 -40 -57 0 -7 -6 -13 -12 -13 -12 0 -68 -121
-68 -146 0 -5 -6 -21 -14 -36 -19 -36 -43 -152 -57 -275 -6 -56 -17 -110 -25
-120 -7 -10 -14 -28 -14 -40 0 -13 -3 -23 -8 -23 -12 0 -55 -91 -89 -187 -10
-29 -22 -53 -28 -53 -12 0 -37 -51 -29 -59 3 -3 14 0 24 7 16 9 21 9 28 -4 6
-11 -3 -40 -31 -98 -22 -44 -44 -84 -49 -87 -23 -15 -36 -156 -31 -323 4 -118
2 -183 -6 -211 -7 -22 -15 -112 -17 -200 -4 -120 -10 -174 -25 -218 -10 -31
-19 -63 -19 -71 0 -7 -11 -33 -24 -58 -23 -44 -61 -184 -77 -288 -20 -131 -28
-167 -43 -204 -9 -21 -16 -51 -16 -67 0 -16 -9 -38 -20 -49 -11 -11 -20 -31
-20 -45 0 -26 -41 -118 -65 -145 -8 -9 -14 -44 -15 -85 -2 -70 14 -247 24
-264 3 -4 36 -11 73 -14 61 -5 71 -3 100 19 17 13 38 24 46 24 15 0 23 24 58
167 21 88 21 94 6 150 -21 73 -13 212 14 264 10 19 26 50 35 69 9 19 37 71 63
115 26 44 62 110 79 148 19 39 38 67 47 67 27 0 16 -30 -64 -184 -86 -166 -80
-141 -116 -456 -9 -74 -27 -178 -40 -230 -13 -52 -32 -131 -41 -175 -9 -44
-21 -89 -26 -101 -11 -24 -15 -85 -23 -321 -5 -134 -3 -174 7 -182 7 -6 27
-22 45 -36 17 -14 33 -36 35 -48 3 -19 11 -23 58 -28 30 -4 83 -16 117 -28 34
-11 71 -21 83 -21 30 0 98 -67 111 -110 7 -23 9 -68 4 -121 -3 -46 -7 -112 -8
-146 -1 -34 -6 -65 -10 -69 -4 -4 -7 -16 -7 -26 0 -10 -6 -18 -12 -18 -7 0
-22 -18 -32 -40 -11 -22 -23 -40 -28 -40 -4 0 -8 -6 -8 -13 0 -8 -11 -27 -25
-43 -14 -16 -35 -46 -47 -66 -12 -21 -25 -38 -30 -38 -4 0 -8 -7 -8 -15 0 -14
-18 -53 -30 -65 -15 -15 -52 -105 -74 -180 -14 -47 -37 -119 -50 -160 -13 -41
-34 -129 -46 -195 -44 -245 -59 -311 -87 -375 -27 -63 -32 -75 -38 -100 -4
-14 -21 -46 -37 -72 -28 -45 -29 -51 -23 -123 6 -63 10 -75 26 -75 10 0 24 -8
31 -18 7 -9 40 -30 72 -47 l59 -29 221 0 c122 0 242 3 267 8 42 7 48 12 53 38
9 43 8 48 -9 48 -8 0 -15 6 -15 14 0 19 -79 43 -167 52 -70 6 -89 16 -58 28 8
3 15 12 15 21 0 8 -7 15 -15 15 -8 0 -15 7 -15 15 0 8 -6 15 -13 15 -35 0 -59
181 -37 278 17 76 65 204 102 272 59 106 88 173 88 198 0 10 9 28 20 40 11 12
20 25 20 30 0 19 41 102 50 102 6 0 10 9 10 19 0 11 3 21 8 23 10 4 42 67 42
82 0 6 8 19 18 27 25 23 45 50 66 92 11 20 23 37 28 37 4 0 8 4 8 10 0 9 19
35 46 64 6 6 21 34 33 61 12 28 27 62 34 78 6 15 18 27 24 27 7 0 13 10 13 22
0 37 16 9 55 -97 72 -197 75 -206 121 -467 9 -54 20 -98 24 -98 4 0 5 -12 3
-28 -2 -15 12 -90 32 -167 63 -243 69 -290 55 -410 -5 -44 -12 -116 -14 -160
-3 -44 -5 -81 -5 -82 -1 -2 -7 -3 -15 -3 -7 0 -19 -7 -26 -15 -10 -12 -10 -15
1 -15 19 -1 -32 -39 -51 -40 -19 0 -40 -45 -40 -86 l0 -32 106 -7 c192 -13
271 -2 327 46 25 22 19 70 -9 84 -44 22 -54 37 -54 82 0 33 6 49 24 66 32 30
39 58 31 127 -6 55 -9 59 -36 65 -33 7 -37 19 -11 34 14 8 19 34 29 148 6 76
16 194 23 262 8 79 9 126 2 130 -5 3 -12 71 -14 151 -4 111 -11 162 -28 218
-18 58 -25 70 -35 62 -11 -9 -15 2 -21 59 -3 39 -10 71 -14 71 -4 0 -12 25
-19 55 -7 30 -19 62 -27 70 -13 12 -14 38 -9 152 6 149 7 157 36 220 11 24 19
65 19 93 0 27 5 50 10 50 6 0 10 27 10 60 0 49 3 60 16 60 15 0 16 -10 10 -77
-4 -43 -12 -83 -17 -89 -6 -7 -4 -16 6 -24 12 -10 26 -9 71 5 61 19 122 72
146 125 15 36 28 41 97 45 29 2 57 8 61 15 4 6 10 53 14 103 4 51 16 161 26
245 11 84 20 178 20 210 0 65 -28 198 -59 287 -12 32 -21 76 -21 96 0 20 -7
56 -15 79 -17 49 -20 140 -5 140 6 0 28 -18 49 -40 21 -22 42 -40 47 -40 5 0
15 -9 22 -20 11 -18 23 -20 123 -20 69 0 134 6 172 16 34 9 77 14 97 11 34 -4
48 0 119 31 33 14 33 15 16 28 -10 8 -22 14 -27 14 -4 0 -8 6 -8 13 0 8 -21
18 -51 25 -65 15 -98 15 -104 -1 -8 -20 -224 -3 -273 22 -75 38 -137 125 -166
232 -15 56 -22 77 -76 239 -17 52 -35 111 -41 130 -10 38 -10 265 0 367 4 34
3 72 -1 83 -5 15 -2 30 11 48 24 34 40 135 43 274 2 60 6 108 11 108 10 0 9
78 -2 84 -5 3 -12 22 -16 43 -4 20 -15 48 -26 61 -10 14 -19 31 -19 38 0 8 -7
14 -16 14 -14 0 -16 9 -11 68 4 50 1 81 -13 122 -10 30 -21 78 -25 105 -8 59
-26 105 -41 105 -6 0 -28 35 -49 78 -21 42 -42 80 -47 83 -15 10 -45 72 -53
109 -22 106 -58 246 -66 255 -5 5 -9 17 -9 28 0 10 -11 35 -25 55 -14 20 -25
41 -25 46 0 5 -7 17 -16 27 -8 9 -16 23 -17 31 -2 13 -26 48 -59 90 -10 11
-18 26 -18 33 0 17 -80 99 -110 112 -14 6 -38 16 -53 22 -35 14 -237 15 -237
1z m416 -347 c46 -98 48 -167 11 -293 l-25 -85 -1 78 c-1 61 -4 77 -16 77 -12
0 -15 13 -15 55 0 40 4 57 15 61 17 7 20 45 6 72 -27 53 -35 112 -15 112 2 0
20 -35 40 -77z m461 -1785 c-3 -8 -6 -5 -6 6 -1 11 2 17 5 13 3 -3 4 -12 1
-19z m506 -1015 c-13 -2 -33 -2 -45 0 -13 2 -3 4 22 4 25 0 35 -2 23 -4z
m-2186 -309 c-3 -3 -12 -4 -19 -1 -8 3 -5 6 6 6 11 1 17 -2 13 -5z"/>
<path d="M6720 40 l0 -40 40 0 40 0 0 40 0 40 -40 0 -40 0 0 -40z"/>
</g>
</svg>
