<?xml version="1.0" standalone="no"?>
<!DOCTYPE svg PUBLIC "-//W3C//DTD SVG 20010904//EN"
 "http://www.w3.org/TR/2001/REC-SVG-20010904/DTD/svg10.dtd">
<svg version="1.0" xmlns="http://www.w3.org/2000/svg"
 width="1280.000000pt" height="720.000000pt" viewBox="0 0 1280.000000 720.000000"
 preserveAspectRatio="xMidYMid meet">
<metadata>
Created by potrace 1.16, written by Peter Selinger 2001-2019
</metadata>
<g transform="translate(0.000000,720.000000) scale(0.100000,-0.100000)"
fill="#000000" stroke="none">
<path d="M6161 7171 c-12 -16 -21 -36 -21 -44 0 -18 -55 -89 -63 -81 -3 3 -3
-3 0 -14 2 -11 0 -23 -6 -26 -6 -4 -11 -16 -11 -26 0 -10 -3 -20 -8 -22 -13
-6 -91 -133 -97 -161 -4 -15 -11 -30 -16 -33 -5 -3 -9 -14 -9 -24 0 -10 -4
-20 -8 -22 -20 -7 -75 -175 -80 -243 -3 -38 -9 -73 -15 -77 -10 -6 -52 -116
-64 -165 -3 -13 -9 -23 -13 -23 -5 0 -12 -10 -15 -22 -4 -13 -18 -37 -31 -55
-13 -17 -24 -36 -24 -42 0 -11 -59 -102 -72 -111 -4 -3 -17 -26 -28 -50 -27
-58 -39 -77 -72 -115 -16 -16 -28 -35 -28 -41 0 -7 -6 -14 -14 -17 -8 -3 -19
-22 -26 -41 -8 -25 -18 -36 -31 -36 -10 0 -19 -6 -19 -13 0 -15 -74 -67 -96
-67 -8 0 -14 -6 -14 -14 0 -8 -16 -16 -40 -20 -22 -3 -40 -10 -40 -14 0 -9
-49 -32 -67 -32 -7 0 -13 -4 -13 -9 0 -5 -17 -15 -37 -22 -20 -6 -46 -20 -57
-30 -11 -11 -30 -19 -43 -19 -13 0 -23 -6 -23 -14 0 -9 -15 -17 -40 -21 -22
-4 -40 -11 -40 -16 0 -5 -18 -9 -40 -9 -22 0 -40 -4 -40 -10 0 -5 -18 -10 -40
-10 -22 0 -40 -4 -40 -8 0 -4 -32 -16 -70 -26 -39 -10 -76 -24 -83 -31 -7 -7
-31 -15 -53 -17 -39 -5 -105 -28 -114 -39 -3 -4 -21 -10 -40 -14 -19 -4 -37
-10 -40 -14 -6 -8 -83 -31 -127 -38 -19 -3 -33 -11 -33 -19 0 -10 -12 -14 -39
-14 -22 0 -41 -5 -43 -12 -3 -8 -44 -12 -134 -12 -114 -1 -132 1 -159 19 -16
12 -42 26 -57 33 -16 6 -28 18 -28 27 0 12 -13 15 -59 15 -47 0 -63 4 -73 19
-17 24 -71 51 -103 51 -14 0 -25 4 -25 8 0 5 -12 14 -26 21 -23 10 -26 9 -31
-9 -3 -13 -14 -20 -29 -20 -13 0 -24 -6 -24 -13 0 -22 42 -50 120 -78 41 -14
104 -41 139 -58 36 -17 70 -31 78 -31 7 0 13 -5 13 -12 0 -8 -84 -10 -335 -5
l-335 6 0 -185 0 -184 193 0 c105 0 248 5 317 10 69 5 277 12 463 16 297 6
337 5 337 -8 0 -11 16 -17 61 -22 90 -9 96 -8 118 15 16 18 22 19 40 7 12 -7
21 -18 21 -25 0 -8 15 -13 40 -13 24 0 40 5 40 12 0 8 102 10 403 6 237 -3
326 -2 217 2 -102 4 -211 8 -242 9 -39 1 -58 5 -58 14 0 9 68 11 317 9 177 -2
319 -8 321 -13 2 -5 21 -9 43 -9 28 0 39 -4 39 -15 0 -11 11 -15 40 -15 35 0
40 -3 40 -24 0 -13 -6 -36 -14 -50 -8 -15 -20 -54 -27 -87 -7 -32 -16 -59 -20
-59 -4 0 -10 -16 -14 -36 -7 -38 -23 -78 -60 -154 -38 -76 -73 -205 -90 -330
-2 -14 -4 -27 -4 -30 -1 -5 -174 -4 -418 3 -73 2 -138 0 -145 -4 -7 -5 -16 -3
-20 4 -6 9 -12 9 -26 0 -14 -8 -23 -8 -30 -1 -8 8 -19 7 -39 -1 l-29 -12 -1
-110 c-1 -61 -7 -124 -13 -140 -9 -20 -9 -37 -2 -61 6 -18 9 -103 7 -190 -2
-129 0 -158 11 -158 8 0 14 9 14 21 0 12 8 23 20 26 11 3 20 9 20 14 0 5 8 9
19 9 11 0 21 9 24 21 4 16 9 19 23 11 9 -5 25 -7 35 -5 16 4 19 0 19 -26 0
-17 5 -31 10 -31 18 0 11 -22 -9 -27 -10 -2 -24 -16 -30 -29 -6 -13 -17 -24
-26 -24 -8 0 -16 -4 -16 -10 -1 -5 -2 -14 -3 -19 -2 -19 -16 -24 -31 -11 -11
9 -18 10 -28 1 -16 -13 -27 -5 -27 21 0 10 -7 18 -15 18 -9 0 -15 -9 -15 -22
0 -13 -3 -34 -7 -47 -6 -24 -5 -24 45 -18 34 4 52 2 52 -5 0 -7 6 -6 15 2 11
10 52 12 148 11 293 -6 272 -4 272 -26 0 -12 -9 -21 -23 -25 -37 -8 -526 10
-536 20 -10 10 -10 120 0 600 4 162 4 292 0 289 -3 -3 -10 -167 -16 -365 -13
-472 -18 -546 -32 -555 -7 -4 -396 -5 -865 -2 l-853 6 0 -21 c0 -21 5 -22 138
-25 l137 -3 -137 -2 c-129 -2 -138 -3 -138 -22 0 -16 8 -19 58 -22 54 -3 57
-4 60 -30 3 -28 3 -28 -57 -28 -54 0 -61 -2 -61 -20 0 -18 7 -20 55 -20 l55 0
0 -95 0 -95 -32 0 c-71 0 -78 -7 -78 -71 0 -48 3 -57 15 -53 8 4 15 1 15 -5 0
-6 -7 -11 -15 -11 -11 0 -15 -11 -15 -40 0 -35 3 -40 24 -40 22 0 24 -5 31
-77 4 -49 3 -79 -3 -81 -5 -1 -8 -12 -5 -22 3 -11 0 -20 -6 -20 -6 0 -11 5
-11 11 0 8 -5 8 -15 -1 -11 -9 -15 -32 -15 -81 0 -61 2 -69 19 -69 18 0 68
-48 89 -86 8 -15 13 -16 25 -6 8 7 18 23 21 36 6 23 36 45 36 26 0 -6 18 -10
40 -10 22 0 40 -4 40 -10 0 -26 32 -5 46 30 16 40 34 53 34 25 0 -11 11 -15
38 -15 30 0 42 -6 62 -31 49 -61 55 -65 59 -43 2 10 7 24 11 29 4 6 11 25 15
42 7 37 21 42 41 16 13 -17 15 -17 28 0 20 25 34 21 41 -14 4 -17 12 -41 19
-54 12 -23 13 -23 28 -6 9 11 22 35 29 55 12 33 16 36 54 36 22 0 49 3 60 6
17 4 22 -2 34 -40 7 -24 19 -53 27 -63 12 -17 13 -16 14 10 0 18 11 40 31 60
28 28 40 32 98 35 l66 4 14 -46 c7 -25 17 -46 22 -46 5 0 9 4 9 9 0 12 59 71
70 71 5 0 11 -6 13 -12 4 -10 6 -10 6 0 1 6 7 12 15 12 9 0 17 -17 21 -47 l8
-48 14 55 14 55 239 0 c132 0 240 -3 240 -6 0 -4 29 -4 64 -2 88 8 112 0 125
-39 l12 -33 19 25 c11 14 20 33 20 43 0 20 1 20 59 6 26 -6 52 -20 63 -34 26
-33 38 -31 38 4 0 28 1 29 76 36 108 10 104 21 73 -220 -12 -97 -19 -199 -17
-260 5 -159 -12 -655 -23 -710 -6 -28 -16 -57 -23 -65 -15 -19 -52 -40 -71
-40 -8 0 -15 -4 -15 -9 0 -15 -121 -21 -215 -9 -88 10 -95 10 -139 -11 -26
-13 -46 -30 -46 -39 0 -8 -7 -24 -16 -34 -16 -16 -16 -18 0 -24 9 -3 16 -10
16 -16 0 -22 113 -98 146 -98 8 0 14 -4 14 -9 0 -5 19 -11 43 -14 114 -13 204
-31 240 -47 l40 -18 -54 -15 c-66 -19 -166 -37 -202 -37 -14 0 -29 -4 -32 -10
-3 -5 -28 -10 -55 -10 -30 0 -52 -5 -57 -13 -4 -8 -30 -22 -56 -32 -49 -18
-70 -35 -43 -35 8 0 16 -4 18 -8 2 -5 56 -12 121 -16 100 -5 117 -4 117 9 0
12 15 14 88 11 84 -4 89 -5 127 -40 21 -20 33 -36 27 -36 -7 0 -25 -14 -41
-32 -22 -24 -40 -33 -77 -39 l-49 -6 43 -2 c37 -1 42 -4 42 -25 0 -23 4 -24
80 -31 44 -4 80 -11 80 -16 0 -5 -4 -9 -10 -9 -5 0 -10 -18 -10 -40 0 -38 -2
-40 -30 -40 -28 0 -30 -2 -30 -40 l0 -40 161 0 162 0 -7 61 c-3 34 -6 70 -6
80 0 11 -6 19 -13 19 -11 0 -15 42 -21 195 -4 108 -4 200 -1 204 3 5 7 93 8
197 3 153 7 189 19 198 9 6 18 29 21 51 15 98 36 207 56 290 12 50 26 108 31
130 17 70 38 227 45 320 4 49 10 92 15 95 5 3 10 62 11 130 2 104 5 129 20
149 11 13 19 29 19 36 0 7 6 15 13 18 6 2 199 5 427 6 326 1 419 -1 432 -11
17 -12 17 -27 6 -210 -9 -158 -9 -217 1 -295 7 -54 16 -125 21 -158 4 -33 21
-172 39 -308 33 -261 35 -305 30 -559 -2 -87 -1 -158 4 -158 4 0 7 -18 7 -40
0 -22 5 -40 10 -40 6 0 10 -40 10 -100 0 -87 -3 -103 -20 -120 -11 -11 -24
-20 -30 -20 -5 0 -10 -18 -10 -40 0 -22 -4 -40 -10 -40 -5 0 -10 -18 -10 -40
l0 -40 165 0 165 0 0 40 c0 22 5 40 10 40 6 0 10 18 10 40 0 29 -4 40 -15 40
-11 0 -15 11 -15 40 l0 40 40 0 40 0 0 80 c0 69 2 80 17 80 14 0 14 3 5 12
-10 10 -15 10 -21 -1 -11 -17 -45 -7 -39 11 5 13 109 36 166 37 25 1 32 5 32
21 0 17 7 20 40 20 71 0 43 18 -40 25 -44 4 -80 11 -80 15 0 4 -19 8 -42 8
-52 0 -108 11 -108 22 0 22 93 51 214 64 101 12 140 21 180 42 87 45 176 120
176 147 0 42 -94 53 -152 17 -43 -26 -74 -25 -188 6 -52 14 -108 28 -125 31
-35 7 -59 33 -86 93 -20 43 -21 57 -15 355 4 171 11 365 16 433 5 72 5 174 -1
250 -9 132 -5 192 15 193 6 0 135 0 286 -1 257 -1 310 2 310 19 0 3 -134 7
-297 8 -164 2 -301 3 -304 3 -3 0 -2 28 3 62 5 38 5 97 -1 148 -21 181 -24
293 -7 325 9 17 16 35 16 41 0 12 29 28 75 42 17 5 30 13 30 18 -1 33 -30 189
-45 239 -18 62 -40 174 -59 305 -6 41 -13 203 -15 360 -3 171 -11 323 -19 380
-8 52 -18 123 -21 158 -4 34 -13 81 -21 103 -18 51 -75 326 -75 363 0 21 4 27
15 22 9 -3 269 -6 578 -7 542 -2 1281 -11 1745 -23 l222 -5 0 38 0 39 -72 10
-73 9 73 2 c46 1 72 5 72 12 0 8 -116 11 -427 9 -574 -4 -593 -4 -593 15 0 12
16 15 80 15 47 0 80 4 80 10 0 6 33 10 80 10 47 0 80 -4 80 -10 0 -5 18 -10
40 -10 36 0 40 3 40 25 0 22 4 25 36 25 38 0 73 29 74 63 0 9 4 17 8 17 5 0
17 18 28 40 10 22 24 40 29 40 10 0 27 27 41 63 3 9 14 17 24 17 12 0 21 10
25 29 3 16 17 42 31 58 13 15 24 38 24 51 0 12 5 22 10 22 6 0 10 7 10 15 0 8
-3 15 -6 15 -26 0 -134 -91 -134 -113 0 -11 -92 -107 -103 -107 -5 0 -23 -11
-41 -25 -18 -14 -38 -25 -44 -25 -7 0 -12 -4 -12 -8 0 -22 -142 -43 -154 -23
-3 4 -34 14 -68 21 -35 7 -67 16 -73 21 -5 4 -28 10 -50 14 -22 4 -44 11 -50
15 -5 4 -27 10 -47 14 -21 4 -38 10 -38 14 0 7 -45 25 -115 44 -22 6 -42 14
-45 17 -7 10 -133 61 -147 61 -7 0 -13 5 -13 10 0 6 -8 10 -17 10 -10 0 -31 7
-47 15 -15 8 -44 15 -62 15 -19 0 -34 5 -34 10 0 6 -8 10 -18 10 -28 0 -142
41 -142 51 0 5 -8 9 -17 9 -10 0 -33 14 -51 30 -19 16 -47 35 -63 42 -16 7
-29 16 -29 20 0 5 -8 8 -19 8 -10 0 -24 7 -31 15 -7 8 -20 15 -30 15 -10 0
-23 7 -30 15 -7 8 -19 15 -26 15 -16 0 -104 84 -104 99 0 6 -9 15 -20 21 -11
6 -20 17 -20 25 0 8 -4 15 -8 15 -5 0 -15 12 -23 28 -14 27 -68 82 -81 82 -4
0 -8 10 -10 23 -2 18 -10 23 -40 25 -21 2 -38 9 -38 15 0 12 -25 28 -62 43
-21 7 -24 24 -5 24 10 0 13 20 10 88 -3 96 -13 164 -20 144 -3 -7 -19 13 -36
45 -16 32 -34 60 -38 61 -5 2 -9 9 -9 16 0 7 -8 21 -17 32 -22 24 -73 126 -73
145 0 8 -4 19 -8 25 -5 5 -17 44 -27 87 -9 42 -21 77 -26 77 -5 0 -9 9 -9 20
0 38 -42 132 -61 137 -11 3 -19 14 -19 27 0 12 -8 31 -18 42 -9 10 -23 33 -30
49 -8 17 -31 53 -51 80 -21 28 -41 58 -44 68 -4 9 -18 22 -32 29 -14 6 -25 15
-25 20 0 4 -76 8 -169 8 l-170 0 -20 -29z m462 -259 c23 -25 67 -165 67 -212
0 -49 -21 -140 -32 -140 -5 0 -6 -11 -2 -24 3 -13 1 -27 -5 -30 -7 -4 -11 1
-11 13 0 11 -7 46 -15 78 -8 31 -15 74 -15 95 0 25 5 41 15 44 17 7 21 54 4
54 -5 0 -8 4 -5 9 4 5 -3 30 -14 56 -30 70 -24 98 13 57z m508 -1458 c8 -8 20
-14 26 -14 6 0 13 -3 15 -7 2 -5 15 -15 30 -23 14 -8 64 -41 111 -72 46 -32
94 -58 106 -58 11 0 21 -4 21 -9 0 -5 17 -15 37 -22 20 -6 46 -20 57 -30 11
-11 30 -19 43 -19 13 0 23 -6 23 -13 0 -7 18 -20 40 -30 22 -9 40 -21 40 -27
0 -5 9 -10 21 -10 21 0 132 -57 137 -71 2 -5 39 -9 83 -9 l79 0 0 -30 0 -30
120 0 c73 0 120 -4 120 -10 0 -6 33 -10 80 -10 l80 0 0 -40 0 -40 -120 0 c-89
0 -120 -3 -120 -12 0 -10 -2 -10 -9 0 -4 8 -17 13 -27 12 -11 -1 -151 -2 -311
-1 -253 1 -293 3 -293 16 0 8 -8 15 -19 15 -10 0 -46 3 -80 6 -58 7 -61 6 -61
-15 0 -20 -4 -21 -120 -21 -113 0 -120 1 -120 20 0 18 -7 20 -80 20 -73 0 -80
2 -80 20 0 11 -5 20 -11 20 -12 0 -11 12 7 295 4 55 10 102 13 105 10 8 31 44
37 63 4 9 13 17 20 17 8 0 14 6 14 14 0 28 59 28 91 0z m-1401 -4 c0 -5 7 -10
15 -10 9 0 15 -9 15 -22 0 -13 7 -36 15 -52 11 -20 14 -43 9 -72 -3 -23 -1
-82 5 -130 9 -71 9 -111 -3 -197 -8 -60 -16 -110 -18 -112 -2 -3 -3 39 -2 93
1 53 0 79 -3 56 l-4 -41 -107 -6 c-59 -2 -131 -3 -159 0 l-53 6 0 38 0 39
-208 0 c-148 0 -211 3 -220 12 -17 17 -15 26 8 33 11 3 20 13 20 21 0 10 12
14 40 14 22 0 40 4 40 8 0 9 129 72 148 72 6 0 12 4 12 9 0 5 8 12 18 15 9 4
37 17 62 31 25 13 53 24 63 24 9 1 17 5 17 9 0 5 18 17 40 27 22 10 40 23 40
29 0 6 18 19 40 29 22 9 40 21 40 27 0 5 7 10 15 10 9 0 18 7 21 15 4 8 14 15
24 15 11 0 22 5 25 10 3 6 15 10 26 10 10 0 19 -4 19 -10z m3550 -590 c0 -5
-18 -10 -40 -10 -22 0 -40 5 -40 10 0 6 18 10 40 10 22 0 40 -4 40 -10z
m-4625 -50 c50 -19 23 -35 -59 -36 -59 -1 -79 3 -83 14 -3 8 0 18 8 23 19 12
102 11 134 -1z m2390 0 c3 -5 1 -10 -4 -10 -6 0 -11 5 -11 10 0 6 2 10 4 10 3
0 8 -4 11 -10z m-2325 -60 c0 -5 -4 -10 -9 -10 -6 0 -13 5 -16 10 -3 6 1 10 9
10 9 0 16 -4 16 -10z m-240 -20 c0 -5 -18 -10 -40 -10 -22 0 -40 5 -40 10 0 6
18 10 40 10 22 0 40 -4 40 -10z m649 -938 c0 -11 -3 -12 -6 -4 -2 6 -12 12
-21 12 -14 0 -15 2 -2 9 18 12 30 5 29 -17z m31 8 c0 -5 -2 -10 -4 -10 -3 0
-8 5 -11 10 -3 6 -1 10 4 10 6 0 11 -4 11 -10z m-26 -62 c6 -25 4 -28 -19 -26
-14 1 -25 8 -25 15 0 7 7 10 15 7 11 -4 15 0 15 17 0 28 5 23 14 -13z m101 -8
c3 -6 -1 -13 -10 -16 -19 -8 -30 0 -20 15 8 14 22 14 30 1z m-275 -10 c0 -5
-9 -10 -19 -10 -11 0 -23 5 -26 10 -4 6 5 10 19 10 14 0 26 -4 26 -10z m90 0
c0 -12 -8 -12 -35 0 -18 8 -17 9 8 9 15 1 27 -3 27 -9z m390 0 c0 -5 -10 -10
-22 -10 -19 0 -20 2 -8 10 19 13 30 13 30 0z m-81 -47 c0 -11 -3 -13 -6 -5 -2
6 -17 12 -33 12 -16 0 -31 -6 -33 -12 -3 -8 -6 -6 -6 5 -1 13 7 17 39 17 32 0
40 -4 39 -17z m97 -69 c-6 -17 -62 -19 -72 -2 -5 8 -2 9 9 5 13 -5 17 -1 17
14 0 21 1 20 20 -2 l19 -24 2 45 c2 39 3 40 6 12 3 -19 2 -40 -1 -48z m-218
24 c18 -18 14 -35 -8 -33 -26 2 -34 11 -27 30 8 18 19 19 35 3z m-188 -24 c0
-2 -9 -4 -21 -4 -11 0 -18 4 -14 10 5 8 35 3 35 -6z m80 6 c0 -5 -10 -10 -22
-10 -19 0 -20 2 -8 10 19 13 30 13 30 0z m211 -2 c18 11 20 11 17 0 -3 -7 -19
-13 -38 -13 -19 0 -35 6 -38 13 -3 11 -1 11 17 0 17 -11 25 -11 42 0z m83 -73
c-4 -8 -1 -15 6 -15 10 0 10 -3 0 -15 -19 -23 -30 -18 -30 15 0 20 5 30 15 30
9 0 12 -6 9 -15z m-191 -17 c14 -22 1 -48 -23 -48 -13 0 -20 7 -20 19 0 48 22
63 43 29z m-293 -32 c0 -11 -19 -15 -25 -6 -3 5 1 10 9 10 9 0 16 -2 16 -4z
m115 -6 c-3 -5 -12 -10 -20 -10 -8 0 -17 5 -20 10 -4 6 5 10 20 10 15 0 24 -4
20 -10z m90 0 c-3 -5 -15 -10 -25 -10 -10 0 -22 5 -25 10 -4 6 7 10 25 10 18
0 29 -4 25 -10z m185 0 c0 -5 -7 -10 -15 -10 -8 0 -15 5 -15 10 0 6 7 10 15
10 8 0 15 -4 15 -10z m7 -175 c-1 -30 -6 -55 -12 -55 -23 1 -40 28 -43 68 -2
41 -1 42 28 42 29 0 29 0 27 -55z m20 3 c-3 -8 -6 -5 -6 6 -1 11 2 17 5 13 3
-3 4 -12 1 -19z m-147 -20 c0 -5 -4 -8 -10 -8 -5 0 -10 10 -10 23 0 18 2 19
10 7 5 -8 10 -18 10 -22z m-1532 -263 c8 -8 -311 -5 -330 3 -10 4 60 6 154 4
94 -1 174 -4 176 -7z m218 3 c3 -4 -33 -8 -80 -8 -52 0 -86 4 -86 10 0 13 158
11 166 -2z m-616 -73 c0 -25 -2 -26 -51 -24 -52 3 -65 10 -55 34 4 11 21 15
56 15 47 0 50 -2 50 -25z m240 11 c0 -22 -19 -30 -85 -34 -78 -4 -105 3 -105
28 0 19 7 20 95 20 76 0 95 -3 95 -14z m377 -9 c-6 -18 -147 -25 -164 -9 -23
23 -8 27 82 24 60 -3 85 -7 82 -15z m1103 -16 c0 -34 -9 -44 -27 -30 -9 8 -13
8 -13 1 0 -11 -140 -19 -427 -24 l-153 -3 0 -42 0 -43 69 0 c119 0 191 11 192
29 0 11 3 8 9 -6 11 -27 30 -30 31 -5 1 13 2 14 5 2 9 -31 42 -39 173 -41
l131 -2 0 -79 c0 -43 -3 -78 -7 -78 -5 0 -6 25 -5 55 3 35 0 55 -7 55 -6 0
-11 -19 -11 -44 l0 -44 -232 -7 c-232 -7 -347 -6 -380 2 -15 4 -18 16 -18 84
0 72 2 79 20 79 17 0 20 7 20 39 0 30 -4 40 -20 44 -15 4 -20 14 -20 41 0 20
6 38 14 43 8 4 159 7 335 5 l321 -3 0 -28z m-1320 14 c0 -11 -12 -15 -42 -16
-70 -2 -85 2 -73 20 3 6 31 11 61 11 41 0 54 -4 54 -15z m458 3 c-3 -9 -33
-13 -103 -13 -70 0 -100 4 -102 13 -4 9 21 12 102 12 81 0 106 -3 103 -12z
m162 -33 c0 -38 -3 -45 -20 -45 -16 0 -20 7 -20 30 0 17 -3 29 -7 29 -29 -5
-62 3 -67 16 -4 12 5 15 54 15 l60 0 0 -45z m868 10 l3 -30 -66 3 c-65 4 -65
4 -65 33 l0 30 63 -3 c61 -3 62 -4 65 -33z m132 13 c-1 -30 -30 -63 -57 -65
-17 -1 -23 5 -28 28 -9 39 9 59 51 59 29 0 34 -4 34 -22z m-1162 -180 c-2 -37
-9 -73 -15 -79 -20 -20 -171 -9 -185 13 -10 16 -10 129 0 143 4 6 45 11 92 12
60 0 85 4 89 14 9 29 22 -40 19 -103z m-858 2 l0 -78 -55 -4 -55 -3 0 81 c0
44 2 83 4 85 2 2 27 2 55 1 l51 -4 0 -78z m226 24 c9 -48 -3 -107 -21 -100 -8
3 -16 0 -19 -7 -4 -8 -8 -8 -11 -2 -3 7 -28 9 -66 5 -33 -3 -62 -4 -64 -1 -8
7 -5 135 3 148 11 17 112 21 144 5 19 -9 29 -24 34 -48z m759 52 c16 -11 20
-30 23 -110 4 -91 3 -96 -16 -96 -14 0 -22 8 -24 22 -5 34 -50 32 -59 -2 -4
-14 -7 22 -8 82 -1 103 0 107 22 111 39 8 43 7 62 -7z m1918 -31 c4 -23 3 -81
0 -129 l-6 -86 -108 0 -108 0 -6 43 c-6 45 -6 81 2 165 l5 53 108 -2 108 -1 5
-43z m102 -81 c0 -105 -2 -119 -17 -119 -9 0 -20 -4 -24 -8 -20 -19 -24 3 -24
123 l0 130 33 -4 32 -3 0 -119z m-2642 107 l37 -1 0 -74 0 -74 -57 -5 c-32 -2
-59 -3 -61 -2 -7 7 -14 115 -9 137 5 18 13 24 29 22 13 -1 40 -3 61 -3z m236
-5 c12 -8 16 -132 3 -140 -4 -2 -41 -6 -82 -7 l-75 -2 -3 58 c-5 98 -4 100 76
99 38 -1 74 -4 81 -8z m1511 -110 c0 -83 -7 -113 -26 -120 -21 -8 -164 5 -164
15 0 5 37 10 83 11 l82 2 -77 3 -78 4 2 64 c1 36 5 70 9 77 9 14 11 14 75 16
34 2 43 6 48 25 l6 22 20 -24 c16 -18 20 -38 20 -95z m1166 98 c42 -8 49 -52
49 -304 l0 -235 -35 0 c-19 0 -41 -4 -49 -9 -18 -12 -133 -20 -166 -12 -14 4
-23 11 -19 17 3 6 12 8 20 5 7 -3 16 -1 20 5 10 16 -5 59 -21 59 -21 0 -26 32
-23 130 4 109 22 108 26 -2 4 -117 17 -117 17 0 0 59 4 97 10 96 91 -12 146
-13 140 -4 -3 5 5 14 19 20 16 6 26 17 26 30 0 17 -6 20 -45 20 -32 0 -45 -4
-45 -14 0 -15 -80 -25 -122 -16 -22 5 -23 12 -28 102 -7 139 -16 129 103 122
56 -3 112 -7 123 -10z m-1423 -56 c10 -33 -5 -48 -49 -48 -57 0 -58 19 -1 22
l42 1 -42 4 c-29 3 -43 9 -43 19 0 18 86 20 93 2z m24 -30 c-3 -7 -5 -2 -5 12
0 14 2 19 5 13 2 -7 2 -19 0 -25z m0 -80 c-2 -13 -4 -3 -4 22 0 25 2 35 4 23
2 -13 2 -33 0 -45z m280 -20 c-2 -18 -4 -6 -4 27 0 33 2 48 4 33 2 -15 2 -42
0 -60z m479 4 c-13 -12 -18 9 -10 45 l8 38 4 -39 c2 -21 1 -41 -2 -44z m-766
-22 c0 -13 -16 -15 -65 -12 -57 5 -58 20 -2 24 47 3 67 0 67 -12z m-190 1 c0
-5 -10 -11 -22 -15 -33 -8 -543 -7 -534 1 4 4 114 10 244 13 130 4 254 7 275
8 20 1 37 -2 37 -7z m960 -1 c0 -5 -7 -10 -15 -10 -8 0 -15 5 -15 10 0 6 7 10
15 10 8 0 15 -4 15 -10z m739 -96 c5 -38 11 -107 13 -154 2 -74 0 -85 -15 -88
-16 -3 -17 11 -17 159 0 89 2 160 5 158 2 -3 9 -36 14 -75z m-374 -105 l0
-144 -30 0 -30 0 -3 139 c-3 145 0 154 41 151 22 -2 22 -4 22 -146z m-107 -24
l-3 -116 -70 -4 c-38 -3 -89 -2 -112 1 l-43 6 0 107 c0 58 4 111 8 116 11 16
123 19 133 3 5 -7 9 -55 9 -105 l0 -93 28 0 27 0 -3 91 c-2 51 -1 103 3 118
14 55 26 -9 23 -124z m-2050 65 c1 -30 -1 -82 -5 -115 l-8 -60 -59 0 -59 0 -3
85 c-1 47 0 100 3 118 l6 34 61 -4 61 -4 3 -54z m1989 28 c-3 -7 -5 -2 -5 12
0 14 2 19 5 13 2 -7 2 -19 0 -25z m-2277 11 c0 -8 4 -9 13 0 21 17 27 3 27
-63 0 -50 -4 -63 -20 -74 -14 -8 -20 -23 -20 -47 0 -34 -1 -35 -39 -35 -35 0
-39 3 -45 31 -8 40 -8 147 0 177 5 18 13 22 45 22 22 0 39 -5 39 -11z m426
-19 c11 0 14 -17 14 -77 0 -85 -11 -116 -32 -95 -9 9 -9 12 4 12 11 0 15 6 11
21 -4 16 -8 17 -14 7 -5 -7 -8 24 -8 77 1 50 3 82 6 73 2 -10 11 -18 19 -18z
m411 -67 c-6 -52 -15 -93 -21 -94 -16 -1 26 -17 47 -18 15 -1 17 9 17 79 l0
80 44 0 c49 0 101 -16 128 -39 22 -19 26 -111 6 -111 -23 0 16 -20 40 -20 18
0 22 5 22 34 0 62 13 156 21 156 5 0 9 -42 9 -94 0 -88 -1 -94 -22 -101 -37
-11 -260 -16 -460 -9 l-188 7 0 95 0 94 40 -4 c22 -2 41 1 43 7 2 5 7 -26 12
-70 5 -55 4 -80 -4 -83 -6 -2 -11 -10 -11 -18 0 -10 12 -14 40 -14 l40 0 0 95
0 95 94 0 c78 0 95 3 100 16 13 33 14 7 3 -83z m-1092 77 c3 -5 15 -6 28 -1
14 6 30 5 41 -1 16 -9 17 -19 11 -87 -4 -42 -8 -85 -9 -95 -1 -17 -9 -20 -53
-22 l-53 -2 0 103 c0 56 3 105 7 108 9 10 21 9 28 -3z m1782 -5 c12 -12 13
-30 8 -93 -10 -119 -4 -112 -96 -112 l-79 0 0 100 0 100 40 0 c34 0 40 -3 40
-21 0 -18 2 -19 15 -9 8 7 15 18 15 25 0 8 8 16 18 18 9 3 18 5 20 6 2 0 10
-6 19 -14z m-1959 -11 c18 -5 15 -31 -5 -38 -37 -14 -100 24 -77 47 6 5 51 1
82 -9z m549 -56 c-2 -13 -4 -3 -4 22 0 25 2 35 4 23 2 -13 2 -33 0 -45z m493
22 c0 -22 -4 -40 -10 -40 -5 0 -10 18 -10 40 0 22 5 40 10 40 6 0 10 -18 10
-40z m680 0 c0 -22 5 -40 10 -40 6 0 10 -27 10 -60 l0 -60 -55 0 c-30 0 -55 3
-56 8 0 4 -2 16 -5 27 -2 11 -1 53 2 93 l6 72 44 0 44 0 0 -40z m790 -27 c0
-48 -3 -64 -10 -53 -13 20 -13 120 0 120 6 0 10 -29 10 -67z m-2513 -70 l1
-73 -31 5 c-18 2 -38 4 -44 4 -17 1 -17 83 -1 99 10 10 10 15 -1 22 -11 6 -7
9 15 13 58 9 59 7 61 -70z m820 35 c-3 -8 -6 -5 -6 6 -1 11 2 17 5 13 3 -3 4
-12 1 -19z m1622 -59 c-10 -6 -6 -9 13 -9 33 0 58 -9 58 -21 0 -14 -77 -11
-82 4 -3 6 -3 30 0 52 l5 40 10 -29 c7 -21 6 -30 -4 -37z m-1969 -8 c0 -6 -4
-13 -10 -16 -5 -3 -10 1 -10 9 0 9 5 16 10 16 6 0 10 -4 10 -9z"/>
<path d="M4738 2743 c12 -2 32 -2 45 0 12 2 2 4 -23 4 -25 0 -35 -2 -22 -4z"/>
<path d="M4898 2743 c12 -2 32 -2 45 0 12 2 2 4 -23 4 -25 0 -35 -2 -22 -4z"/>
<path d="M3600 2358 c-3 -26 -1 -43 3 -39 5 5 7 26 5 47 l-3 39 -5 -47z"/>
<path d="M3363 2360 c0 -25 2 -35 4 -22 2 12 2 32 0 45 -2 12 -4 2 -4 -23z"/>
<path d="M3011 6963 c-1 -47 3 -75 12 -80 6 -4 18 -20 26 -35 8 -16 38 -53 68
-84 29 -31 53 -61 53 -66 0 -5 -19 -8 -42 -6 -41 3 -43 2 -41 -23 l1 -27 -24
25 c-28 28 -31 43 -8 43 9 0 14 7 12 17 -4 22 -28 29 -28 9 0 -9 -7 -16 -15
-16 -23 0 -21 -132 2 -151 9 -8 18 -13 20 -11 2 1 22 -19 44 -45 88 -104 98
-113 125 -113 25 0 26 2 20 33 -3 17 -14 37 -23 44 -18 14 -21 45 -10 113 3
25 3 34 -1 20 -7 -22 -9 -23 -15 -7 -11 30 -8 37 18 37 14 0 29 -8 35 -20 6
-11 17 -20 25 -20 9 0 15 -10 15 -25 0 -22 4 -25 34 -25 88 0 89 36 4 128 -34
37 -67 73 -73 80 -5 7 -18 22 -27 33 -10 10 -18 22 -18 25 0 10 -58 64 -69 64
-6 0 -11 6 -11 13 0 6 -19 33 -43 58 -23 25 -47 54 -54 65 -10 16 -12 7 -12
-53z m129 -335 c0 -7 -5 -20 -10 -28 -8 -12 -10 -9 -10 13 0 15 5 27 10 27 6
0 10 -6 10 -12z"/>
<path d="M5780 6971 c-22 -7 -23 -9 -7 -16 35 -15 92 -11 92 5 0 17 -46 23
-85 11z"/>
<path d="M8583 6924 c-16 -12 -16 -15 -3 -23 17 -11 89 -4 105 11 27 25 -70
36 -102 12z"/>
<path d="M3032 6805 c-9 -11 -10 -20 -3 -33 9 -15 10 -15 11 6 0 12 5 22 10
22 6 0 10 5 10 10 0 14 -13 12 -28 -5z"/>
<path d="M3060 6490 c0 -5 5 -10 11 -10 5 0 7 5 4 10 -3 6 -8 10 -11 10 -2 0
-4 -4 -4 -10z"/>
<path d="M9318 4963 c23 -2 61 -2 85 0 23 2 4 4 -43 4 -47 0 -66 -2 -42 -4z"/>
<path d="M8640 4890 c0 -6 33 -10 80 -10 47 0 80 4 80 10 0 6 -33 10 -80 10
-47 0 -80 -4 -80 -10z"/>
<path d="M7063 4674 c-12 -3 -27 -12 -34 -20 -11 -13 -9 -15 12 -11 13 2 18 2
12 0 -7 -3 -13 -15 -13 -28 0 -22 2 -23 133 -27 72 -3 138 -3 145 0 7 2 12 21
12 43 0 38 -1 39 -33 39 -19 0 -74 2 -123 4 -49 3 -99 2 -111 0z"/>
<path d="M8192 4623 l3 -48 164 0 164 0 2 40 c1 22 -3 43 -9 47 -6 4 -82 8
-169 8 l-158 0 3 -47z"/>
<path d="M9368 4605 l4 -45 64 0 64 0 0 45 0 45 -68 0 -67 0 3 -45z"/>
<path d="M3022 4308 c-9 -9 -12 -147 -12 -560 l0 -548 373 -1 c204 0 518 -1
697 -2 179 -1 305 1 280 4 l-45 6 39 1 c30 2 47 10 73 37 19 19 43 35 54 35
18 0 19 2 6 14 -9 9 -47 17 -101 22 -93 7 -119 21 -114 58 3 20 7 21 138 18
74 -1 154 -5 178 -8 33 -4 43 -2 49 11 11 29 -17 35 -169 35 -81 0 -149 3
-151 8 -3 4 61 6 143 4 125 -3 148 -1 153 12 11 28 -29 37 -166 36 -72 -1
-138 -1 -145 -1 -11 1 -12 60 -7 324 4 210 3 327 -4 337 -10 15 -107 28 -211
29 l-55 1 0 57 0 58 -34 -2 c-33 -1 -76 -37 -65 -54 20 -32 -80 -66 -159 -55
-23 4 -163 6 -310 6 -191 -1 -273 2 -283 11 -10 8 -18 8 -27 1 -7 -6 -23 -8
-36 -5 -22 5 -23 10 -19 64 l4 59 -31 0 c-17 0 -36 -5 -43 -12z m1237 -182 c8
-9 10 -92 6 -292 -4 -154 -8 -294 -11 -311 l-5 -33 -125 0 -126 0 6 28 c3 15
8 158 12 317 3 160 8 293 11 298 2 4 53 7 112 7 80 0 112 -4 120 -14z m-1011
-28 c-5 -15 -60 -16 -65 -2 -2 6 13 11 32 12 24 1 35 -3 33 -10z m207 -3 c0
-5 -21 -11 -47 -13 -39 -3 -48 0 -48 13 0 13 9 16 48 13 26 -2 47 -7 47 -13z
m225 0 c0 -12 -14 -14 -70 -13 -57 1 -68 3 -59 15 17 19 129 18 129 -2z m160
1 c0 -9 -15 -15 -46 -18 -47 -3 -67 7 -43 23 23 15 89 11 89 -5z m123 -107
c-5 -18 -23 -27 -23 -11 1 25 14 52 20 42 4 -7 5 -21 3 -31z m3 -306 c-4 -135
-7 -159 -22 -170 -20 -15 -104 -18 -104 -4 0 5 -10 11 -22 13 l-23 3 23 20
c12 11 22 27 22 37 0 12 8 18 21 18 17 0 20 5 16 21 -4 15 0 23 14 26 23 6 63
68 56 87 -5 14 11 106 19 106 3 0 2 -71 0 -157z m-606 -43 c0 -5 -5 -10 -11
-10 -5 0 -7 5 -4 10 3 6 8 10 11 10 2 0 4 -4 4 -10z m400 -105 c0 -9 -9 -15
-22 -15 -22 1 -23 1 -4 15 25 19 26 19 26 0z m-17 -32 c-13 -2 -33 -2 -45 0
-13 2 -3 4 22 4 25 0 35 -2 23 -4z"/>
<path d="M4820 3985 c-22 -13 -23 -14 -5 -15 30 0 65 11 65 21 0 13 -32 10
-60 -6z"/>
<path d="M4890 3990 c0 -5 7 -10 15 -10 8 0 15 5 15 10 0 6 -7 10 -15 10 -8 0
-15 -4 -15 -10z"/>
<path d="M4945 3990 c-3 -5 1 -10 9 -10 8 0 18 5 21 10 3 6 -1 10 -9 10 -8 0
-18 -4 -21 -10z"/>
<path d="M5000 3990 c0 -5 7 -10 15 -10 8 0 15 5 15 10 0 6 -7 10 -15 10 -8 0
-15 -4 -15 -10z"/>
<path d="M5055 3990 c-20 -8 -20 -9 1 -9 12 -1 50 -3 85 -6 61 -4 62 -4 14 4
-27 5 -57 11 -65 14 -8 3 -24 2 -35 -3z"/>
<path d="M5245 3980 c-3 -5 3 -10 14 -10 12 0 21 5 21 10 0 6 -6 10 -14 10 -8
0 -18 -4 -21 -10z"/>
<path d="M8263 3763 c-8 -19 -9 -159 -6 -718 1 -214 -2 -412 -6 -440 l-8 -50
-2 71 c-2 129 -46 162 -216 163 -169 1 -174 -7 -187 -269 -11 -239 -12 -244
-68 -250 -38 -4 -45 -9 -51 -33 -16 -58 -27 -56 369 -73 140 -6 152 -8 152
-25 0 -15 8 -19 40 -19 22 0 40 -4 40 -9 0 -5 36 -12 80 -16 44 -4 80 -11 80
-16 0 -5 18 -9 40 -9 22 0 40 -4 40 -10 0 -5 18 -10 40 -10 29 0 40 4 40 15 0
11 11 15 40 15 27 0 40 4 40 13 0 11 29 15 117 20 66 4 119 11 121 17 2 5 21
10 43 10 21 0 40 3 40 8 7 42 9 83 9 252 0 107 -2 350 -6 540 -3 219 -2 340 4
331 7 -9 12 -10 16 -2 4 6 14 11 22 11 12 0 14 -27 14 -155 0 -95 -4 -164 -12
-180 -9 -20 -8 -31 3 -52 10 -22 14 -103 17 -363 2 -184 4 -343 4 -352 -1 -14
8 -18 41 -18 23 0 85 -3 137 -6 52 -2 121 -2 153 2 l57 6 0 104 0 104 -27 -6
c-16 -4 -29 -11 -31 -16 -2 -4 -21 -8 -43 -8 -39 0 -39 0 -39 -40 l0 -40 -78
0 c-67 0 -79 3 -90 21 -9 14 -10 24 -3 33 13 15 13 646 0 646 -5 0 -9 168 -9
404 l0 404 -22 6 c-13 3 -218 6 -456 6 -399 0 -433 -1 -439 -17z m687 -732 c0
-17 -18 -21 -24 -6 -3 9 0 15 9 15 8 0 15 -4 15 -9z m-640 -235 c0 -3 -4 -8
-10 -11 -5 -3 -10 -1 -10 4 0 6 5 11 10 11 6 0 10 -2 10 -4z m867 -278 c-2
-24 -4 -5 -4 42 0 47 2 66 4 43 2 -24 2 -62 0 -85z m-1288 -123 l2 -125 -27 0
c-22 0 -25 3 -21 23 3 12 9 68 13 125 5 72 10 102 19 102 10 0 13 -31 14 -125z
m316 -22 c-5 -99 -10 -119 -21 -89 -4 10 -10 13 -13 8 -3 -5 -63 -11 -133 -14
l-127 -5 3 36 c2 20 4 51 5 69 1 27 5 32 24 31 18 -1 19 -2 3 -6 -16 -4 -13
-10 20 -44 31 -32 45 -39 76 -39 31 0 38 4 38 20 0 17 7 20 40 20 36 0 40 3
40 25 0 18 -7 26 -25 31 -14 3 -25 9 -25 13 0 6 74 38 92 40 4 1 5 -42 3 -96z
m982 -35 c-2 -13 -4 -3 -4 22 0 25 2 35 4 23 2 -13 2 -33 0 -45z"/>
<path d="M8038 2303 c23 -2 61 -2 85 0 23 2 4 4 -43 4 -47 0 -66 -2 -42 -4z"/>
<path d="M7956 3218 c-3 -7 -4 -42 -3 -78 l2 -65 68 -3 68 -3 -3 78 -3 78 -63
3 c-44 2 -63 -1 -66 -10z m124 -58 c0 -5 -25 -10 -55 -10 -30 0 -55 5 -55 10
0 6 25 10 55 10 30 0 55 -4 55 -10z"/>
<path d="M7899 3180 c-4 -42 -1 -64 9 -68 8 -2 12 10 12 37 0 23 -4 41 -10 41
-5 0 -10 -4 -11 -10z"/>
<path d="M3010 3161 c0 -21 0 -21 455 -21 258 0 455 4 455 9 0 5 -111 12 -247
15 -137 3 -341 9 -455 12 -206 6 -208 6 -208 -15z"/>
<path d="M7613 3000 c0 -25 2 -35 4 -22 2 12 2 32 0 45 -2 12 -4 2 -4 -23z"/>
<path d="M9354 2450 c-6 -6 -8 -29 -5 -53 5 -35 10 -43 30 -45 16 -3 31 4 45
21 12 13 28 26 36 30 9 3 10 6 3 6 -18 1 -16 21 2 21 31 0 14 18 -22 24 -54 8
-78 7 -89 -4z"/>
<path d="M9070 2215 c0 -8 5 -15 10 -15 6 0 10 7 10 15 0 8 -4 15 -10 15 -5 0
-10 -7 -10 -15z"/>
<path d="M8930 969 c-8 -15 -10 -121 -4 -375 l7 -354 283 0 284 0 0 90 c0 63
-4 91 -13 97 -34 21 -47 58 -47 136 0 74 2 80 30 109 18 17 30 40 30 55 0 25
-1 25 -19 9 -19 -17 -19 -16 -14 22 3 24 0 49 -9 66 -14 26 -16 27 -31 11 -23
-22 -21 -35 4 -35 19 0 20 -4 15 -35 -4 -19 -2 -45 4 -57 11 -22 10 -22 -4 -4
-9 11 -16 31 -16 44 0 18 -4 23 -16 18 -11 -4 -18 1 -21 14 -3 11 -9 20 -14
20 -5 0 -9 12 -9 26 0 14 -3 23 -7 21 -5 -3 -44 -2 -88 3 -64 6 -71 8 -35 10
l45 3 -45 7 -45 7 43 1 42 2 0 40 0 39 113 4 c109 3 107 3 -43 6 -107 3 -141
6 -110 11 28 4 -20 8 -127 8 -165 2 -173 1 -183 -19z m22 -254 c3 -138 2 -200
-2 -145 -8 99 -13 396 -6 389 2 -2 5 -112 8 -244z m374 113 c27 -9 37 -21 49
-57 19 -57 20 -131 1 -131 -7 0 -16 -8 -19 -19 -6 -25 -58 -49 -95 -43 -38 5
-85 -5 -77 -17 8 -14 9 -114 1 -139 -8 -25 -31 -29 -39 -8 -5 11 -11 376 -8
419 1 12 152 8 187 -5z"/>
<path d="M9190 710 l0 -90 39 0 c63 0 89 14 100 55 12 45 7 76 -16 92 -10 7
-23 17 -30 23 -7 5 -30 10 -53 10 l-40 0 0 -90z"/>
<path d="M9328 873 c6 -2 18 -2 25 0 6 3 1 5 -13 5 -14 0 -19 -2 -12 -5z"/>
<path d="M9370 870 c0 -5 5 -10 10 -10 6 0 10 5 10 10 0 6 -4 10 -10 10 -5 0
-10 -4 -10 -10z"/>
<path d="M9460 874 c0 -9 31 -37 36 -32 9 9 -8 38 -22 38 -8 0 -14 -3 -14 -6z"/>
<path d="M9487 603 c-11 -10 -8 -71 3 -78 6 -4 10 12 10 39 0 47 -2 51 -13 39z"/>
<path d="M5600 90 c0 -5 18 -10 40 -10 22 0 40 5 40 10 0 6 -18 10 -40 10 -22
0 -40 -4 -40 -10z"/>
</g>
</svg>
