<?xml version="1.0" standalone="no"?>
<!DOCTYPE svg PUBLIC "-//W3C//DTD SVG 20010904//EN"
 "http://www.w3.org/TR/2001/REC-SVG-20010904/DTD/svg10.dtd">
<svg version="1.0" xmlns="http://www.w3.org/2000/svg"
 width="1280.000000pt" height="720.000000pt" viewBox="0 0 1280.000000 720.000000"
 preserveAspectRatio="xMidYMid meet">
<metadata>
Created by potrace 1.16, written by Peter Selinger 2001-2019
</metadata>
<g transform="translate(0.000000,720.000000) scale(0.100000,-0.100000)"
fill="#000000" stroke="none">
<path d="M6330 7183 c-53 -5 -137 -33 -151 -49 -7 -8 -12 -28 -11 -44 0 -23
-7 -33 -34 -49 -19 -11 -34 -28 -34 -38 0 -10 -20 -50 -45 -88 -63 -97 -129
-302 -150 -464 -9 -68 -21 -135 -26 -149 -21 -54 -44 -99 -80 -154 -26 -40
-34 -58 -24 -58 20 0 19 -10 -4 -34 -11 -12 -34 -50 -51 -85 -26 -52 -31 -72
-26 -103 5 -30 1 -46 -18 -76 -53 -79 -58 -108 -67 -417 -5 -159 -12 -301 -15
-315 -3 -14 -7 -83 -9 -155 -3 -100 -9 -153 -30 -230 -26 -101 -36 -198 -54
-540 -10 -180 -37 -318 -80 -410 -69 -148 -74 -169 -67 -268 10 -146 20 -194
46 -222 18 -19 33 -25 55 -23 25 3 31 8 37 38 20 98 26 120 42 135 9 9 16 25
16 35 0 11 7 45 16 77 9 32 25 103 36 158 11 55 25 124 31 153 11 54 37 74 37
27 0 -42 -30 -205 -57 -305 -24 -93 -28 -111 -53 -235 -6 -33 -16 -76 -21 -95
-5 -22 -5 -36 1 -38 14 -5 12 -43 -4 -88 -7 -22 -19 -72 -26 -112 -8 -40 -17
-75 -22 -78 -4 -3 -8 -23 -8 -45 0 -33 4 -41 24 -49 13 -5 28 -15 33 -23 11
-20 116 -71 187 -91 32 -10 66 -24 74 -33 11 -10 17 -12 20 -4 5 16 38 14 57
-5 13 -14 15 -40 14 -169 -2 -114 1 -158 10 -169 11 -13 11 -16 1 -16 -10 0
-11 -18 -7 -77 4 -49 1 -120 -8 -188 -15 -107 -21 -346 -11 -364 3 -5 10 -67
16 -137 8 -116 53 -357 95 -514 16 -61 12 -247 -7 -309 -7 -21 -39 -61 -85
-106 -70 -67 -74 -73 -71 -110 2 -32 9 -42 37 -59 28 -16 53 -19 150 -20 114
-1 119 0 167 29 l49 31 9 79 c10 94 11 337 1 450 -4 49 0 160 10 285 9 113 18
320 21 460 5 240 7 261 34 360 22 83 29 136 34 255 9 210 16 265 32 265 12 0
14 -40 12 -217 -3 -181 0 -233 15 -303 17 -78 18 -98 6 -235 -7 -87 -12 -302
-12 -515 1 -336 -1 -370 -19 -432 -17 -59 -19 -89 -16 -269 4 -193 5 -203 26
-219 25 -21 93 -32 202 -35 65 -1 82 2 133 29 58 30 59 31 54 67 -4 30 -20 52
-80 112 -84 82 -87 93 -73 196 6 42 5 76 -2 98 -8 27 -8 40 2 57 7 11 21 53
31 91 10 39 33 126 52 193 43 155 53 201 63 282 4 36 15 106 24 155 21 118 21
289 -1 385 -27 120 -21 201 36 465 l27 130 101 10 c66 7 108 16 120 26 10 9
54 24 98 33 44 9 83 20 87 24 9 9 -8 546 -18 586 -4 18 -1 33 10 45 20 23 57
114 63 160 4 22 1 36 -8 42 -14 9 -16 115 -6 374 16 413 15 611 -3 740 -28
200 -41 378 -45 640 -6 312 -15 395 -51 460 -37 65 -49 79 -107 122 -35 26
-45 38 -38 47 10 12 5 35 -20 101 -4 11 -12 51 -18 88 -5 38 -18 81 -28 95
-17 27 -48 83 -83 152 -22 44 -57 149 -66 198 -20 118 -153 415 -231 516 -56
73 -129 94 -273 79z m303 -243 c29 -34 59 -108 77 -192 11 -47 11 -77 0 -163
-7 -58 -19 -113 -27 -123 -11 -15 -13 -6 -12 63 0 44 -4 114 -10 155 -5 41 -8
77 -5 81 2 4 -3 15 -12 23 -8 9 -11 16 -5 16 30 0 3 87 -38 124 -12 11 -21 25
-21 33 0 23 27 14 53 -17z m-93 -250 c0 -5 -2 -10 -4 -10 -3 0 -8 5 -11 10 -3
6 -1 10 4 10 6 0 11 -4 11 -10z"/>
<path d="M6784 2228 c0 -23 6 -43 11 -45 6 -2 9 13 8 34 -2 54 -2 53 -12 53
-5 0 -8 -19 -7 -42z"/>
</g>
</svg>
