<?xml version="1.0" standalone="no"?>
<!DOCTYPE svg PUBLIC "-//W3C//DTD SVG 20010904//EN"
 "http://www.w3.org/TR/2001/REC-SVG-20010904/DTD/svg10.dtd">
<svg version="1.0" xmlns="http://www.w3.org/2000/svg"
 width="1280.000000pt" height="720.000000pt" viewBox="0 0 1280.000000 720.000000"
 preserveAspectRatio="xMidYMid meet">
<metadata>
Created by potrace 1.16, written by Peter Selinger 2001-2019
</metadata>
<g transform="translate(0.000000,720.000000) scale(0.100000,-0.100000)"
fill="#000000" stroke="none">
<path d="M6335 7093 c-38 -2 -79 -7 -90 -12 -11 -5 -32 -13 -47 -19 -30 -12
-53 -50 -63 -104 -4 -20 -18 -46 -31 -59 -13 -12 -24 -31 -24 -42 0 -10 -8
-31 -19 -45 -22 -32 -61 -119 -61 -138 0 -7 -6 -19 -13 -26 -37 -36 -91 -246
-112 -433 -4 -33 -13 -70 -21 -82 -8 -12 -14 -35 -14 -51 0 -16 -7 -35 -15
-42 -8 -7 -15 -19 -15 -26 0 -8 -4 -14 -9 -14 -14 0 -31 -90 -41 -210 -5 -59
-13 -106 -19 -108 -6 -2 -11 -21 -11 -43 0 -21 -4 -39 -8 -39 -23 0 -71 -215
-72 -325 0 -53 -48 -277 -64 -304 -4 -5 -11 -33 -16 -63 -10 -51 -41 -120
-100 -223 -15 -27 -29 -56 -29 -63 -1 -13 -48 -90 -65 -107 -6 -5 -24 -39 -41
-75 -16 -36 -34 -72 -40 -80 -16 -21 -52 -101 -61 -130 -3 -14 -12 -32 -19
-40 -6 -8 -21 -36 -31 -62 -10 -27 -24 -48 -30 -48 -6 0 -17 -18 -24 -40 -8
-26 -19 -40 -30 -40 -10 0 -24 -16 -35 -40 -14 -31 -24 -40 -44 -41 -24 -2
-24 -2 -3 -6 33 -6 29 -39 -7 -46 -28 -6 -131 6 -186 21 -21 6 -41 4 -65 -6
-19 -8 -45 -18 -58 -23 l-23 -9 22 -31 c18 -26 20 -35 11 -50 -14 -22 -16 -89
-3 -89 16 0 32 -87 21 -115 -18 -47 5 -60 41 -24 l22 22 16 -31 c14 -27 18
-29 34 -18 9 7 17 18 17 25 0 6 18 11 44 11 37 0 49 6 85 40 35 34 48 40 84
40 50 0 102 29 120 67 16 35 107 123 128 123 9 0 24 15 33 33 9 17 24 42 32
54 16 22 15 23 -5 23 -14 0 -21 6 -21 20 0 15 7 20 25 20 26 0 34 15 13 22 -8
3 -3 14 15 32 15 15 27 33 27 41 0 8 7 15 15 15 8 0 15 3 15 8 0 4 29 39 65
77 35 39 64 76 65 83 0 6 4 12 9 12 5 0 17 17 26 38 10 20 35 61 57 90 22 29
46 76 54 104 9 28 33 85 55 127 21 42 42 91 45 109 5 23 11 32 23 30 25 -6 17
-43 -29 -148 -24 -52 -55 -143 -71 -203 -16 -59 -39 -124 -52 -145 -30 -48
-54 -100 -63 -137 -4 -16 -16 -45 -26 -63 -10 -18 -23 -65 -28 -104 -6 -39
-13 -74 -16 -79 -12 -20 -38 -289 -35 -374 3 -116 -6 -191 -26 -211 -12 -12
-14 -32 -10 -102 5 -96 -12 -213 -44 -300 -10 -29 -19 -60 -19 -70 0 -9 -7
-30 -15 -46 -8 -15 -15 -46 -15 -67 l0 -39 43 0 c23 0 53 -7 65 -16 12 -8 44
-17 70 -20 65 -6 190 -23 232 -32 26 -6 42 -19 65 -52 28 -43 30 -50 30 -145
0 -55 -6 -129 -14 -163 -12 -55 -12 -65 0 -73 10 -6 10 -9 2 -9 -7 0 -16 -18
-19 -40 -4 -22 -10 -40 -14 -40 -4 0 -19 -24 -33 -54 -15 -30 -32 -58 -37 -61
-6 -3 -10 -15 -10 -26 0 -10 -4 -19 -10 -19 -5 0 -10 -8 -10 -18 0 -10 -4 -22
-9 -27 -12 -14 -61 -162 -73 -220 -5 -27 -13 -81 -17 -120 -5 -38 -13 -91 -20
-116 -6 -26 -13 -129 -15 -230 -5 -188 -13 -256 -40 -350 -9 -29 -16 -68 -16
-86 0 -18 -3 -33 -8 -33 -4 0 -15 -18 -25 -40 -19 -44 -23 -120 -6 -120 6 0 8
-9 4 -20 -4 -13 2 -28 19 -45 14 -14 26 -30 26 -35 0 -6 6 -10 13 -10 6 0 37
-13 68 -28 l56 -27 238 5 238 5 13 45 c7 24 12 45 11 46 -51 43 -84 54 -161
54 -78 1 -80 1 -53 16 15 8 27 21 27 28 0 15 -32 46 -47 46 -18 0 -52 45 -68
90 -30 85 -36 167 -19 270 9 52 19 102 24 111 5 9 12 33 15 53 4 20 11 36 16
36 5 0 9 6 9 12 0 7 9 35 19 63 11 27 25 70 31 95 7 25 18 59 25 75 7 17 16
46 20 65 13 62 78 250 86 250 5 0 9 7 9 16 0 9 9 27 20 41 11 14 20 34 20 43
0 10 7 23 15 30 8 7 15 19 15 26 0 8 16 43 35 79 19 36 39 83 45 105 6 22 14
40 19 40 4 0 20 -33 34 -73 37 -105 51 -141 58 -147 13 -12 116 -446 129 -541
5 -41 16 -94 25 -119 53 -149 66 -275 45 -423 -10 -69 -42 -147 -60 -147 -6 0
-10 -5 -10 -11 0 -17 -32 -38 -57 -39 -18 0 -23 -6 -23 -26 0 -31 -24 -53 -60
-54 -36 -1 -93 -75 -85 -109 10 -41 32 -51 112 -51 41 0 118 -5 170 -12 75 -9
98 -9 101 0 2 7 25 12 57 12 65 0 103 15 107 43 2 11 12 25 22 31 11 6 27 18
36 27 20 19 45 132 30 137 -5 2 -10 10 -10 17 0 7 -7 26 -15 41 -8 16 -15 50
-15 76 0 43 -15 96 -31 108 -4 3 -3 28 2 55 14 85 28 486 19 540 -5 28 -9 82
-10 120 0 39 -7 95 -15 125 -8 30 -15 70 -15 88 0 17 -4 32 -9 32 -5 0 -12 15
-15 33 -3 17 -17 54 -31 81 -14 27 -25 57 -25 67 0 9 -6 19 -14 22 -7 3 -16
26 -19 51 -4 25 -9 57 -13 71 -5 19 -2 25 10 25 12 0 16 10 16 45 0 33 -4 45
-15 45 -12 0 -15 16 -15 87 0 48 6 111 12 140 l13 53 81 0 c133 0 169 8 209
47 27 26 35 42 35 69 0 19 9 52 19 72 14 28 22 77 30 201 7 90 14 168 18 174
3 5 9 109 12 231 l6 221 60 33 c33 18 72 38 88 45 15 6 27 18 28 27 0 8 19 31
43 50 41 34 57 55 72 93 3 9 15 17 25 17 13 0 19 7 19 23 0 12 6 31 14 42 7
11 16 38 19 60 15 97 20 115 33 115 10 0 14 14 14 50 0 28 6 61 14 73 8 12 17
41 21 64 4 24 14 47 22 52 12 6 16 38 21 165 3 113 2 156 -7 156 -6 0 -11 17
-11 40 0 22 -4 40 -10 40 -5 0 -10 18 -10 40 0 22 -4 40 -10 40 -5 0 -10 18
-10 40 0 22 -4 40 -10 40 -5 0 -10 18 -10 40 0 22 5 40 10 40 15 0 12 38 -3
47 -8 4 -22 24 -32 43 -9 19 -24 49 -33 65 -8 17 -25 40 -37 53 -13 12 -28 44
-34 70 -7 26 -17 56 -23 67 -6 11 -17 46 -25 78 -7 31 -19 83 -26 115 -18 77
-60 152 -85 152 -6 0 -18 10 -26 21 -9 13 -21 19 -30 16 -10 -4 -20 1 -26 13
-16 29 -12 39 21 59 25 15 28 21 17 32 -7 8 -21 30 -30 49 -26 52 -40 72 -70
103 -16 15 -28 33 -28 41 0 8 -7 16 -15 20 -8 3 -23 21 -32 41 -10 21 -24 35
-35 35 -11 0 -18 7 -18 19 0 10 -10 29 -22 43 -20 22 -44 63 -62 108 -3 8 -15
29 -26 45 -41 64 -66 130 -93 250 -11 50 -24 92 -28 93 -5 2 -9 14 -9 26 0 29
-49 126 -66 133 -8 3 -14 13 -14 23 0 10 -15 33 -32 52 -57 59 -128 141 -128
147 0 9 -57 51 -69 51 -5 0 -11 4 -13 9 -4 12 -62 18 -143 14z m313 -365 c26
-55 32 -79 32 -135 0 -42 -5 -76 -13 -87 -13 -18 -15 -18 -40 4 -23 20 -27 32
-27 76 0 29 5 56 10 59 16 10 12 49 -10 100 -11 26 -20 56 -20 68 0 21 0 21
18 1 10 -10 32 -49 50 -86z m704 -1188 c-4 -3 -10 -9 -14 -14 -3 -5 -13 6 -21
25 -9 23 -11 36 -3 41 12 8 49 -43 38 -52z m-268 -325 c3 -8 11 -15 18 -15 7
0 29 -25 48 -55 19 -30 38 -54 43 -55 4 0 7 -10 7 -22 1 -13 23 -50 50 -83 27
-33 76 -98 110 -144 85 -117 90 -145 84 -476 -6 -337 -9 -359 -42 -390 -15
-14 -35 -25 -45 -25 -20 0 -150 -61 -155 -72 -2 -5 -9 -8 -17 -8 -7 0 -18 -7
-25 -15 -7 -8 -23 -15 -35 -15 -20 0 -23 6 -29 68 -18 178 -24 214 -42 234
-17 18 -19 36 -16 187 2 116 -1 197 -12 262 -8 52 -18 126 -21 164 -4 39 -13
95 -21 125 -20 78 -17 129 12 239 14 53 28 99 31 104 8 13 51 7 57 -8z m501
-245 c3 -5 1 -10 -4 -10 -6 0 -11 5 -11 10 0 6 2 10 4 10 3 0 8 -4 11 -10z"/>
</g>
</svg>
