<?xml version="1.0" standalone="no"?>
<!DOCTYPE svg PUBLIC "-//W3C//DTD SVG 20010904//EN"
 "http://www.w3.org/TR/2001/REC-SVG-20010904/DTD/svg10.dtd">
<svg version="1.0" xmlns="http://www.w3.org/2000/svg"
 width="1280.000000pt" height="720.000000pt" viewBox="0 0 1280.000000 720.000000"
 preserveAspectRatio="xMidYMid meet">
<metadata>
Created by potrace 1.16, written by Peter Selinger 2001-2019
</metadata>
<g transform="translate(0.000000,720.000000) scale(0.100000,-0.100000)"
fill="#000000" stroke="none">
<path d="M6183 7171 c-13 -16 -23 -32 -23 -36 0 -3 -7 -13 -15 -21 -8 -9 -15
-27 -15 -42 0 -33 -46 -62 -53 -33 -2 9 -7 -4 -11 -29 -6 -29 -18 -55 -37 -73
-16 -15 -29 -34 -29 -41 0 -8 -3 -16 -7 -18 -11 -4 -71 -128 -77 -158 -2 -14
-14 -59 -26 -100 -15 -49 -24 -114 -27 -190 -3 -63 -11 -134 -19 -158 -18 -53
-60 -139 -74 -147 -5 -3 -10 -15 -10 -26 0 -11 -18 -39 -40 -61 -22 -23 -40
-50 -40 -61 0 -10 -7 -25 -15 -34 -16 -15 -12 -76 6 -98 5 -6 -8 -27 -31 -50
-21 -22 -39 -48 -40 -57 0 -10 -4 -18 -9 -18 -5 0 -20 -27 -33 -60 -12 -33
-26 -60 -30 -60 -5 0 -8 -15 -8 -34 0 -18 -7 -47 -15 -62 -8 -16 -15 -36 -15
-46 0 -9 -3 -18 -7 -20 -11 -4 -43 -67 -43 -83 0 -8 -9 -19 -20 -25 -11 -6
-20 -17 -20 -24 0 -7 -9 -21 -20 -31 -11 -10 -20 -25 -20 -34 0 -8 -9 -24 -20
-36 -46 -48 -60 -66 -60 -75 0 -5 -6 -10 -13 -10 -8 0 -22 -18 -32 -40 -15
-34 -23 -40 -49 -40 -31 0 -43 -12 -62 -62 -4 -13 -17 -18 -45 -18 -22 0 -39
-4 -39 -9 0 -5 -36 -12 -80 -16 -76 -7 -80 -8 -80 -31 0 -24 -1 -24 -103 -24
-57 0 -155 -7 -218 -15 -184 -25 -181 -25 -233 28 -25 25 -46 50 -46 56 0 6
-4 11 -10 11 -5 0 -10 6 -10 14 0 8 -32 46 -71 85 -68 68 -122 101 -188 116
-17 3 -33 11 -36 16 -4 5 -25 9 -48 9 l-42 0 30 -25 c17 -13 45 -30 63 -37 57
-22 34 -29 -75 -24 -88 5 -103 3 -80 -6 15 -7 27 -16 27 -21 0 -6 -154 -8
-415 -5 l-415 6 0 -184 0 -184 188 0 c103 0 248 4 322 9 215 15 664 18 681 5
8 -7 32 -14 54 -17 22 -3 110 -15 195 -27 143 -20 182 -22 495 -17 229 4 350
9 370 17 17 7 53 16 80 20 l50 8 -42 1 c-24 0 -43 6 -43 11 0 11 156 12 312 1
79 -5 99 -3 103 8 3 8 8 11 11 8 4 -3 3 -14 -2 -24 -8 -19 -30 -121 -40 -188
-7 -48 -25 -96 -72 -190 -53 -107 -63 -140 -86 -285 l-21 -135 -220 4 c-121 2
-251 4 -290 5 -38 2 -78 -1 -87 -6 -10 -5 -18 -3 -21 5 -3 9 -9 9 -24 0 -15
-8 -24 -8 -31 -1 -8 8 -19 7 -39 -1 l-29 -12 -1 -110 c-1 -61 -7 -124 -13
-140 -9 -20 -9 -37 -2 -61 6 -18 9 -103 7 -190 -2 -129 0 -158 11 -158 8 0 14
9 14 21 0 12 8 23 20 26 11 3 20 9 20 14 0 5 9 9 20 9 14 0 20 7 20 21 0 16 4
19 18 14 9 -4 27 -7 40 -6 18 1 22 -4 22 -29 0 -17 5 -30 10 -30 18 0 11 -22
-9 -27 -10 -2 -24 -16 -30 -29 -6 -13 -17 -24 -26 -24 -8 0 -16 -4 -16 -10 -1
-5 -2 -14 -3 -19 -2 -19 -16 -24 -31 -11 -11 9 -18 10 -28 1 -16 -13 -27 -5
-27 21 0 10 -7 18 -15 18 -9 0 -15 -9 -15 -22 0 -13 -3 -34 -7 -47 -6 -24 -5
-24 45 -18 31 4 52 2 52 -4 0 -5 11 -2 25 7 13 8 28 13 34 10 5 -3 121 -6 258
-7 136 -1 251 -3 255 -5 3 -2 4 -14 1 -26 l-6 -21 -340 6 c-224 3 -343 9 -350
16 -12 12 -12 100 -1 601 4 162 4 292 0 289 -3 -3 -10 -167 -16 -365 -13 -472
-18 -546 -32 -555 -7 -4 -396 -5 -865 -2 l-853 6 0 -21 c0 -21 5 -22 138 -25
l137 -3 -137 -2 c-129 -2 -138 -3 -138 -22 0 -16 8 -19 58 -22 54 -3 57 -4 60
-30 3 -28 3 -28 -57 -28 -54 0 -61 -2 -61 -20 0 -18 7 -20 55 -20 l55 0 0 -95
0 -95 -32 0 c-71 0 -78 -7 -78 -71 0 -48 3 -57 15 -53 8 4 15 1 15 -5 0 -6 -7
-11 -15 -11 -11 0 -15 -11 -15 -40 0 -35 3 -40 24 -40 22 0 24 -5 31 -77 4
-49 3 -79 -3 -81 -5 -1 -8 -12 -5 -22 3 -11 0 -20 -6 -20 -6 0 -11 5 -11 11 0
8 -5 8 -15 -1 -11 -9 -15 -32 -15 -81 0 -61 2 -69 19 -69 18 0 68 -48 89 -86
8 -15 13 -16 25 -6 8 7 18 23 21 36 6 23 36 45 36 26 0 -6 18 -10 40 -10 22 0
40 -4 40 -10 0 -26 32 -5 46 30 16 40 34 53 34 25 0 -11 11 -15 38 -15 30 0
42 -6 62 -31 49 -61 55 -65 59 -43 2 10 7 24 11 29 4 6 11 25 15 42 7 37 21
42 41 16 13 -17 15 -17 28 0 20 25 34 21 41 -14 4 -17 12 -41 19 -54 12 -23
13 -23 28 -6 9 11 22 35 29 55 12 33 16 36 54 36 22 0 49 3 60 6 17 4 22 -2
34 -40 7 -24 19 -53 27 -63 12 -17 13 -16 14 10 0 18 11 40 31 60 28 28 40 32
98 35 l66 4 14 -46 c7 -25 17 -46 22 -46 5 0 9 4 9 9 0 12 59 71 70 71 5 0 11
-6 13 -12 4 -10 6 -10 6 0 1 6 7 12 15 12 9 0 17 -17 21 -47 l8 -48 14 55 14
55 239 0 c132 0 240 -3 240 -6 0 -4 29 -4 64 -2 88 8 112 0 125 -39 l12 -33
19 25 c11 14 20 33 20 43 0 20 1 20 59 6 26 -6 52 -20 63 -34 26 -33 38 -31
38 4 0 28 1 29 76 36 72 7 76 6 100 -20 l24 -26 23 23 c21 23 28 23 180 23 86
0 157 -3 157 -7 0 -5 -9 -17 -20 -28 -11 -11 -20 -29 -20 -40 0 -13 -7 -20
-20 -20 -13 0 -20 -7 -20 -20 0 -12 -10 -31 -22 -43 -27 -26 -88 -139 -88
-161 0 -9 -4 -16 -8 -16 -10 0 -42 -65 -42 -83 0 -7 -18 -69 -40 -137 -22 -68
-40 -133 -40 -145 0 -12 -4 -25 -8 -30 -10 -11 -43 -155 -68 -290 -21 -119
-59 -235 -76 -235 -5 0 -8 -9 -8 -20 0 -11 -4 -20 -9 -20 -14 0 -41 -89 -41
-136 0 -37 5 -47 37 -73 21 -17 52 -38 71 -47 41 -19 37 -40 -8 -36 -36 4 -90
-15 -90 -31 0 -19 24 -77 32 -77 4 0 8 -4 8 -10 0 -17 72 -79 86 -73 11 4 14
-5 14 -36 0 -23 -4 -41 -10 -41 -5 0 -10 -10 -10 -22 0 -12 -8 -30 -17 -40
-16 -17 -16 -20 0 -35 16 -16 17 -16 17 0 0 13 9 17 39 17 22 0 41 5 43 12 3
9 6 9 12 0 4 -7 2 -12 -3 -12 -6 0 -11 -18 -11 -40 l0 -40 77 0 c76 0 76 0
115 40 28 28 48 40 68 40 26 0 28 3 32 48 4 44 1 50 -34 84 -30 29 -38 44 -38
72 0 34 14 49 22 24 3 -9 26 -9 101 0 52 7 129 12 171 12 l74 0 11 51 c6 28 9
55 5 60 -10 17 -87 49 -118 49 -16 0 -36 7 -45 15 -46 44 -97 85 -107 85 -20
0 -91 75 -104 110 -54 148 -36 261 78 490 26 52 50 97 53 100 3 3 9 22 13 42
4 21 11 38 16 38 6 0 10 7 10 16 0 9 8 28 19 42 10 15 24 44 32 65 7 20 17 37
21 37 4 0 8 9 8 19 0 11 4 22 9 25 5 3 18 26 30 51 12 25 26 45 31 45 6 0 10
9 10 20 0 20 95 160 108 160 4 0 18 18 32 40 13 22 32 40 41 40 11 0 20 11 24
29 13 59 33 70 128 72 100 2 114 -5 123 -62 4 -22 10 -39 15 -39 5 0 9 -8 9
-18 0 -10 4 -22 9 -27 20 -23 54 -163 71 -292 4 -37 16 -99 25 -138 9 -38 22
-113 30 -165 7 -52 28 -151 46 -220 30 -114 33 -138 33 -275 -1 -149 -16 -275
-38 -298 -14 -16 -34 -47 -43 -67 -3 -8 -17 -25 -30 -37 -19 -18 -23 -32 -23
-83 l0 -60 35 0 c18 0 38 -6 42 -14 4 -8 25 -21 46 -29 34 -15 51 -37 27 -37
-5 0 -10 -18 -10 -40 0 -22 -4 -40 -10 -40 -5 0 -10 -18 -10 -40 0 -22 -4 -40
-10 -40 -5 0 -10 -18 -10 -40 0 -22 -4 -40 -10 -40 -5 0 -10 -18 -10 -40 l0
-40 160 0 160 0 0 35 c0 28 -8 42 -40 71 -36 33 -40 41 -40 85 0 27 5 49 10
49 6 0 10 18 10 40 0 29 4 40 15 40 11 0 15 11 15 40 0 30 4 40 16 40 9 0 14
6 11 13 -2 6 9 20 25 29 30 19 36 45 16 81 -14 27 -30 137 -29 197 3 91 -10
190 -24 190 -20 0 -28 19 -15 34 14 18 30 213 36 476 6 225 -9 413 -39 483 -8
18 -20 46 -27 62 -8 17 -16 48 -18 70 -2 22 -7 42 -11 45 -13 8 -31 70 -25 84
5 14 75 26 152 26 l42 0 0 40 0 40 -82 2 c-101 2 -107 2 -135 -7 l-23 -7 5
133 c6 162 32 374 51 411 16 30 33 29 72 -6 24 -21 69 -24 107 -7 25 11 112
40 143 48 20 5 23 11 19 32 -19 94 -81 539 -106 761 -21 184 -30 311 -29 415
0 141 -22 333 -41 360 -11 14 -28 82 -36 135 -3 25 -10 63 -15 85 -5 22 -11
69 -12 105 l-4 65 279 -5 c183 -3 280 -9 285 -16 10 -15 126 -46 192 -51 50
-4 75 -10 121 -33 8 -4 85 -11 172 -15 171 -8 182 -12 189 -70 l3 -30 164 0
163 0 3 42 c3 50 6 48 -120 60 -65 5 -78 9 -47 11 24 2 42 8 42 15 0 12 25 28
63 43 9 3 17 13 17 21 0 13 46 14 358 9 196 -4 426 -9 510 -12 l152 -6 0 40 0
40 -72 10 -73 9 73 2 c44 0 72 5 72 12 0 7 -126 10 -430 7 -237 -2 -424 -1
-418 1 18 6 68 58 68 70 0 6 7 11 15 11 12 0 14 8 9 40 -4 27 -3 40 5 40 6 0
11 17 11 40 0 33 -3 40 -20 40 -11 0 -20 -4 -20 -8 0 -5 -18 -14 -40 -21 -22
-6 -40 -16 -40 -21 0 -6 -7 -10 -15 -10 -8 0 -15 -4 -15 -10 0 -5 -11 -10 -25
-10 -14 0 -25 -4 -25 -8 0 -4 -14 -16 -30 -26 -17 -9 -41 -27 -53 -39 -34 -33
-99 -82 -127 -97 -14 -7 -29 -19 -33 -26 -4 -8 -12 -14 -18 -14 -5 0 -23 -10
-39 -21 -22 -17 -36 -20 -64 -15 -34 7 -52 -7 -23 -17 6 -2 9 -8 5 -12 -4 -4
-17 2 -29 14 -19 17 -20 21 -6 21 9 0 17 7 17 15 0 12 -15 15 -72 15 -70 0
-168 24 -168 42 0 4 -18 8 -40 8 -32 0 -40 4 -40 18 0 17 -47 42 -81 42 -8 0
-20 9 -26 19 -7 11 -33 29 -58 40 -25 11 -45 25 -45 30 0 6 -7 11 -15 11 -8 0
-15 4 -15 10 0 5 -13 16 -29 24 -36 19 -131 114 -131 131 0 7 -18 29 -40 49
-22 20 -40 43 -40 51 0 8 -13 37 -30 63 -16 27 -30 54 -30 61 0 6 -4 11 -10
11 -5 0 -10 18 -10 40 0 22 -4 40 -10 40 -11 0 -31 67 -24 84 3 7 -2 19 -11
26 -8 7 -15 21 -15 30 0 10 -4 20 -8 22 -4 2 -20 28 -35 59 -15 32 -34 62 -42
69 -10 8 -15 30 -15 61 0 27 -4 49 -10 49 -5 0 -10 8 -10 19 0 10 -8 29 -18
42 -10 13 -26 41 -37 62 -11 20 -22 37 -26 37 -4 0 -12 15 -19 33 -29 72 -55
127 -62 127 -5 0 -8 6 -8 13 0 6 -15 44 -33 82 -34 71 -48 122 -68 255 -11 69
-22 107 -62 216 -9 22 -33 67 -55 100 -21 32 -47 75 -58 94 -10 19 -21 37 -24
40 -3 3 -17 21 -30 40 -32 47 -38 52 -90 86 -43 27 -51 29 -175 31 l-130 3
-22 -29z m430 -308 c8 -10 25 -48 37 -85 17 -53 21 -84 17 -145 -5 -98 -28
-181 -44 -162 -17 22 -28 206 -12 225 10 12 9 29 -6 87 -10 40 -22 78 -28 85
-15 19 17 15 36 -5z m-891 -1015 c-16 -16 -25 29 -10 54 13 23 13 22 16 -11 2
-18 -1 -38 -6 -43z m1309 -528 c7 -22 17 -40 23 -40 6 0 17 -14 24 -30 8 -17
19 -36 25 -43 18 -19 37 -50 43 -69 4 -10 11 -18 18 -18 28 0 56 -69 62 -155
l7 -85 -57 0 c-49 0 -56 2 -56 20 0 18 -7 20 -79 20 l-78 0 -6 85 c-5 74 13
301 28 343 9 26 35 11 46 -28z m-1227 -62 c3 -13 4 -32 3 -43 -3 -38 15 -175
24 -175 5 0 9 -18 9 -40 l0 -40 -80 0 -80 0 0 40 c0 28 -4 40 -14 40 -8 0 -17
9 -21 20 -6 20 10 60 24 60 5 0 11 8 15 18 6 19 25 50 43 69 6 7 17 26 25 43
15 36 46 40 52 8z m3476 -398 c0 -6 -33 -9 -82 -8 -71 1 -77 2 -38 8 70 11
120 11 120 0z m-4151 -1068 c0 -11 -3 -12 -6 -4 -2 6 -12 12 -21 12 -14 0 -15
2 -2 9 18 12 30 5 29 -17z m31 8 c0 -5 -2 -10 -4 -10 -3 0 -8 5 -11 10 -3 6
-1 10 4 10 6 0 11 -4 11 -10z m-26 -62 c6 -25 4 -28 -19 -26 -14 1 -25 8 -25
15 0 7 7 10 15 7 11 -4 15 0 15 17 0 28 5 23 14 -13z m104 -16 c2 -7 -6 -12
-17 -12 -21 0 -27 11 -14 24 9 9 26 2 31 -12z m-278 -2 c0 -5 -9 -10 -19 -10
-11 0 -23 5 -26 10 -4 6 5 10 19 10 14 0 26 -4 26 -10z m90 0 c0 -5 -4 -10 -9
-10 -6 0 -13 5 -16 10 -3 6 1 10 9 10 9 0 16 -4 16 -10z m390 0 c0 -5 -10 -10
-22 -10 -19 0 -20 2 -8 10 19 13 30 13 30 0z m120 -5 c0 -16 -12 -18 -50 -8
l-25 7 30 7 c17 4 33 7 38 8 4 0 7 -6 7 -14z m-227 -2 c-7 -2 -19 -2 -25 0 -7
3 -2 5 12 5 14 0 19 -2 13 -5z m26 -40 c0 -11 -3 -13 -6 -5 -2 6 -17 12 -33
12 -16 0 -31 -6 -33 -12 -3 -8 -6 -6 -6 5 -1 13 7 17 39 17 32 0 40 -4 39 -17z
m-121 -45 c17 -17 15 -25 -8 -31 -23 -6 -34 7 -26 28 7 18 18 19 34 3z m213
-12 c7 17 8 17 8 -3 1 -20 -4 -23 -33 -23 -19 0 -38 5 -42 12 -5 8 -2 9 9 5
13 -5 17 -1 17 16 0 21 0 21 17 -2 16 -23 17 -23 24 -5z m86 -22 c-3 -3 -12
-4 -20 -2 -11 2 -12 9 -5 28 l10 25 11 -23 c5 -12 8 -25 4 -28z m-487 10 c0
-2 -9 -4 -21 -4 -11 0 -18 4 -14 10 5 8 35 3 35 -6z m80 6 c0 -5 -10 -10 -22
-10 -19 0 -20 2 -8 10 19 13 30 13 30 0z m210 -2 c17 10 20 10 20 -3 0 -11
-11 -15 -40 -15 -29 0 -40 4 -40 15 0 13 3 13 20 3 16 -10 24 -10 40 0z m87
-88 c2 -21 -2 -30 -12 -30 -10 0 -15 10 -15 30 0 39 24 39 27 0z m-340 -2 c-3
-8 -6 -5 -6 6 -1 11 2 17 5 13 3 -3 4 -12 1 -19z m146 0 c14 -22 1 -48 -23
-48 -13 0 -20 7 -20 19 0 48 22 63 43 29z m214 -15 c-3 -10 -5 -4 -5 12 0 17
2 24 5 18 2 -7 2 -21 0 -30z m-507 -17 c0 -11 -19 -15 -25 -6 -3 5 1 10 9 10
9 0 16 -2 16 -4z m115 -6 c-3 -5 -12 -10 -20 -10 -8 0 -17 5 -20 10 -4 6 5 10
20 10 15 0 24 -4 20 -10z m90 0 c-3 -5 -15 -10 -25 -10 -10 0 -22 5 -25 10 -4
6 7 10 25 10 18 0 29 -4 25 -10z m185 0 c0 -5 -7 -10 -15 -10 -8 0 -15 5 -15
10 0 6 7 10 15 10 8 0 15 -4 15 -10z m7 -175 c-1 -30 -6 -55 -12 -55 -23 1
-40 28 -42 68 -2 40 -1 42 27 42 29 0 29 0 27 -55z m33 -3 c0 -7 -4 -10 -10
-7 -5 3 -10 16 -10 28 0 18 2 19 10 7 5 -8 10 -21 10 -28z m-160 -14 c0 -5 -4
-8 -10 -8 -5 0 -10 10 -10 23 0 18 2 19 10 7 5 -8 10 -18 10 -22z m210 12 c0
-5 -2 -10 -4 -10 -3 0 -8 5 -11 10 -3 6 -1 10 4 10 6 0 11 -4 11 -10z m3 -35
c1 -6 -13 -11 -30 -13 -37 -4 -45 14 -10 21 29 5 38 4 40 -8z m-1745 -240 c8
-8 -311 -5 -330 3 -10 4 60 6 154 4 94 -1 174 -4 176 -7z m218 3 c3 -4 -33 -8
-80 -8 -52 0 -86 4 -86 10 0 13 158 11 166 -2z m-616 -73 c0 -25 -2 -26 -51
-24 -52 3 -65 10 -55 34 4 11 21 15 56 15 47 0 50 -2 50 -25z m240 11 c0 -22
-19 -30 -85 -34 -78 -4 -105 3 -105 28 0 19 7 20 95 20 76 0 95 -3 95 -14z
m377 -9 c-6 -18 -147 -25 -164 -9 -23 23 -8 27 82 24 60 -3 85 -7 82 -15z
m1103 -16 c0 -34 -9 -44 -27 -30 -9 8 -13 8 -13 1 0 -11 -140 -19 -427 -24
l-153 -3 0 -42 0 -43 69 0 c119 0 191 11 192 29 0 11 3 8 9 -6 11 -27 30 -30
31 -5 1 13 2 14 5 2 9 -31 42 -39 173 -41 l131 -2 0 -79 c0 -43 -3 -78 -7 -78
-5 0 -6 25 -5 55 3 35 0 55 -7 55 -6 0 -11 -19 -11 -44 l0 -44 -232 -7 c-232
-7 -347 -6 -380 2 -15 4 -18 16 -18 84 0 72 2 79 20 79 17 0 20 7 20 39 0 30
-4 40 -20 44 -15 4 -20 14 -20 41 0 20 6 38 14 43 8 4 159 7 335 5 l321 -3 0
-28z m397 4 c3 -55 -5 -68 -40 -61 -55 11 -87 13 -87 6 0 -4 -11 -7 -24 -7
-19 0 -26 6 -31 29 -10 44 8 57 83 61 98 5 97 5 99 -28z m-1717 10 c0 -11 -12
-15 -42 -16 -70 -2 -85 2 -73 20 3 6 31 11 61 11 41 0 54 -4 54 -15z m458 3
c-3 -9 -33 -13 -103 -13 -70 0 -100 4 -102 13 -4 9 21 12 102 12 81 0 106 -3
103 -12z m162 -33 c0 -38 -3 -45 -20 -45 -16 0 -20 7 -20 30 0 17 -3 29 -7 29
-29 -5 -62 3 -67 16 -4 12 5 15 54 15 l60 0 0 -45z m868 10 l3 -30 -66 3 c-65
4 -65 4 -65 33 l0 30 63 -3 c61 -3 62 -4 65 -33z m281 13 c0 -7 -4 -22 -9 -33
-7 -17 -9 -15 -9 13 -1 17 4 32 9 32 6 0 10 -6 9 -12z m-1311 -180 c-2 -37 -9
-73 -15 -79 -20 -20 -170 -9 -185 13 -4 7 -7 42 -6 78 3 74 -3 69 117 74 44 2
66 7 70 17 9 29 22 -39 19 -103z m1249 0 c7 -98 -1 -154 -23 -162 -21 -8 -164
5 -164 15 0 5 37 10 83 11 l82 2 -77 3 -78 4 2 64 c1 36 5 70 9 77 4 6 29 13
56 15 66 5 70 7 78 43 11 52 25 21 32 -72z m-2107 2 l0 -78 -55 -4 -55 -3 0
81 c0 44 2 83 4 85 2 2 27 2 55 1 l51 -4 0 -78z m226 24 c9 -48 -3 -107 -21
-100 -8 3 -16 0 -19 -7 -4 -8 -8 -8 -11 -2 -3 7 -28 9 -66 5 -33 -3 -62 -4
-64 -1 -8 7 -5 135 3 148 11 17 112 21 144 5 19 -9 29 -24 34 -48z m759 52
c16 -11 20 -30 23 -110 4 -91 3 -96 -16 -96 -14 0 -22 8 -24 22 -5 34 -50 32
-59 -2 -4 -14 -7 22 -8 82 -1 103 0 107 22 111 39 8 43 7 62 -7z m-622 -5 l37
-1 0 -74 0 -74 -57 -5 c-32 -2 -59 -3 -61 -2 -7 7 -14 115 -9 137 5 18 13 24
29 22 13 -1 40 -3 61 -3z m236 -5 c12 -8 16 -132 3 -140 -4 -2 -41 -6 -82 -7
l-75 -2 -3 58 c-5 98 -4 100 76 99 38 -1 74 -4 81 -8z m1648 -62 c15 -15 17
-111 3 -149 -9 -23 -14 -26 -52 -23 l-43 3 -3 95 -3 96 43 -4 c23 -3 48 -10
55 -18z m-394 -6 c10 -33 -5 -48 -49 -48 -57 0 -58 19 -1 22 l42 1 -42 4 c-29
3 -43 9 -43 19 0 18 86 20 93 2z m645 0 c12 -12 17 -124 6 -151 -4 -11 -28
-15 -104 -16 l-99 -2 -6 43 c-4 24 -5 61 -3 83 l3 40 70 6 c39 3 81 6 96 7 14
1 30 -3 37 -10z m597 -73 c0 -75 -1 -80 -22 -83 -22 -3 -23 -1 -23 83 0 84 1
86 23 83 21 -3 22 -8 22 -83z m-1218 43 c-3 -7 -5 -2 -5 12 0 14 2 19 5 13 2
-7 2 -19 0 -25z m1133 -33 c0 -36 -4 -65 -9 -65 -9 0 -22 109 -14 123 13 23
23 -1 23 -58z m-1133 -47 c-2 -13 -4 -3 -4 22 0 25 2 35 4 23 2 -13 2 -33 0
-45z m-7 -38 c0 -13 -16 -15 -65 -12 -57 5 -58 20 -2 24 47 3 67 0 67 -12z
m-190 1 c0 -5 -10 -11 -22 -15 -33 -8 -543 -7 -534 1 4 4 114 10 244 13 130 4
254 7 275 8 20 1 37 -2 37 -7z m1327 -254 c-3 -71 -10 -97 -22 -86 -2 3 0 34
6 70 6 35 8 98 5 139 l-5 75 10 -60 c6 -33 8 -95 6 -138z m73 167 c0 -19 4
-25 15 -20 25 9 37 -39 39 -149 l1 -100 -37 0 c-40 0 -53 18 -18 23 21 3 21 7
15 95 -3 50 -9 94 -12 97 -3 3 -3 -24 -1 -60 2 -53 0 -65 -12 -65 -12 0 -16
19 -18 103 -2 86 0 102 13 102 10 0 15 -9 15 -26z m-2232 -74 c1 -30 -1 -82
-5 -115 l-8 -60 -59 0 -59 0 -3 85 c-1 47 0 100 3 118 l6 34 61 -4 61 -4 3
-54z m-288 39 c0 -8 4 -9 13 0 21 17 27 3 27 -63 0 -50 -4 -63 -20 -74 -14 -8
-20 -23 -20 -47 0 -34 -1 -35 -39 -35 -35 0 -39 3 -45 31 -8 40 -8 147 0 177
5 18 13 22 45 22 22 0 39 -5 39 -11z m426 -19 c11 0 14 -17 14 -77 0 -85 -11
-116 -32 -95 -9 9 -9 12 4 12 11 0 15 6 11 21 -4 16 -8 17 -14 7 -5 -7 -8 24
-8 77 1 50 3 82 6 73 2 -10 11 -18 19 -18z m416 -67 c-3 -78 -7 -93 -20 -94
-13 0 -13 -2 3 -9 50 -22 55 -16 55 70 l0 80 44 0 c49 0 101 -16 128 -39 22
-19 26 -111 6 -111 -23 0 16 -20 40 -20 18 0 22 5 22 34 0 62 13 156 21 156 5
0 9 -42 9 -94 0 -88 -1 -94 -22 -101 -37 -11 -260 -16 -460 -9 l-188 7 0 95 0
94 40 -4 c22 -2 41 1 43 7 2 5 7 -26 12 -70 5 -55 4 -80 -4 -83 -6 -2 -11 -10
-11 -18 0 -10 12 -14 40 -14 l40 0 0 95 0 95 94 0 c78 0 95 3 100 16 11 28 12
13 8 -83z m-1097 77 c3 -5 15 -6 28 -1 14 6 30 5 41 -1 16 -9 17 -19 11 -87
-4 -42 -8 -85 -9 -95 -1 -17 -9 -20 -53 -22 l-53 -2 0 103 c0 56 3 105 7 108
9 10 21 9 28 -3z m1781 -5 c12 -11 13 -33 8 -110 l-7 -95 -83 0 -84 0 0 100 0
100 40 0 c29 0 40 -4 40 -15 0 -22 21 -18 27 4 3 11 12 22 22 24 9 3 17 5 19
6 2 0 10 -6 18 -14z m145 4 c18 -9 20 -19 18 -110 l-2 -99 -46 0 -46 0 3 102
c2 65 8 105 15 110 17 11 35 10 58 -3z m271 -91 c2 -57 1 -107 -2 -111 -8 -10
-158 -19 -182 -11 -10 3 -18 12 -18 20 0 11 6 13 20 9 11 -3 52 -3 92 1 l73 8
-42 8 -43 9 0 49 c0 29 -5 50 -12 52 -9 3 -9 12 1 36 12 30 17 32 61 32 l48 0
4 -102z m-2374 76 c18 -5 15 -31 -5 -38 -37 -14 -100 24 -77 47 6 5 51 1 82
-9z m549 -56 c-2 -13 -4 -3 -4 22 0 25 2 35 4 23 2 -13 2 -33 0 -45z m493 22
c0 -22 -4 -40 -10 -40 -5 0 -10 18 -10 40 0 22 5 40 10 40 6 0 10 -18 10 -40z
m680 0 c0 -22 5 -40 10 -40 6 0 10 -27 10 -60 l0 -60 -55 0 c-30 0 -55 3 -56
8 0 4 -2 16 -5 27 -2 11 -1 53 2 93 l6 72 44 0 44 0 0 -40z m482 23 c20 -18
24 -48 8 -58 -6 -4 -10 -14 -9 -23 2 -10 -1 -27 -5 -39 -15 -45 -26 -21 -26
57 0 44 3 80 7 80 3 0 15 -7 25 -17z m225 -105 c-2 -24 -4 -5 -4 42 0 47 2 66
4 43 2 -24 2 -62 0 -85z m-2430 -15 l1 -73 -31 5 c-18 2 -38 4 -44 4 -17 1
-17 83 -1 99 10 10 10 15 -1 22 -11 6 -7 9 15 13 58 9 59 7 61 -70z m820 35
c-3 -8 -6 -5 -6 6 -1 11 2 17 5 13 3 -3 4 -12 1 -19z m-347 -67 c0 -6 -4 -13
-10 -16 -5 -3 -10 1 -10 9 0 9 5 16 10 16 6 0 10 -4 10 -9z m2475 -1 c3 -5 1
-10 -4 -10 -6 0 -11 5 -11 10 0 6 2 10 4 10 3 0 8 -4 11 -10z m487 -95 c-3
-16 -11 -25 -23 -25 -22 0 -23 4 -7 30 18 28 36 25 30 -5z"/>
<path d="M4738 2743 c12 -2 32 -2 45 0 12 2 2 4 -23 4 -25 0 -35 -2 -22 -4z"/>
<path d="M4898 2743 c12 -2 32 -2 45 0 12 2 2 4 -23 4 -25 0 -35 -2 -22 -4z"/>
<path d="M5458 2633 c12 -2 32 -2 45 0 12 2 2 4 -23 4 -25 0 -35 -2 -22 -4z"/>
<path d="M3600 2358 c-3 -26 -1 -43 3 -39 5 5 7 26 5 47 l-3 39 -5 -47z"/>
<path d="M3363 2360 c0 -25 2 -35 4 -22 2 12 2 32 0 45 -2 12 -4 2 -4 -23z"/>
<path d="M3011 6963 c-1 -47 3 -75 12 -80 6 -4 18 -20 26 -35 8 -16 38 -53 68
-84 29 -31 53 -61 53 -66 0 -5 -19 -8 -42 -6 -41 3 -43 2 -41 -23 l1 -27 -24
25 c-28 28 -31 43 -8 43 9 0 14 7 12 17 -4 22 -28 29 -28 9 0 -9 -7 -16 -15
-16 -23 0 -21 -132 2 -151 9 -8 18 -13 20 -11 2 1 22 -19 44 -45 88 -104 98
-113 125 -113 25 0 26 2 20 33 -3 17 -14 37 -23 44 -18 14 -21 45 -10 113 3
25 3 34 -1 20 -7 -22 -9 -23 -15 -7 -11 30 -8 37 18 37 14 0 29 -8 35 -20 6
-11 17 -20 25 -20 9 0 15 -10 15 -25 0 -22 4 -25 34 -25 88 0 89 36 4 128 -34
37 -67 73 -73 80 -5 7 -18 22 -27 33 -10 10 -18 22 -18 25 0 10 -58 64 -69 64
-6 0 -11 6 -11 13 0 6 -19 33 -43 58 -23 25 -47 54 -54 65 -10 16 -12 7 -12
-53z m129 -335 c0 -7 -5 -20 -10 -28 -8 -12 -10 -9 -10 13 0 15 5 27 10 27 6
0 10 -6 10 -12z"/>
<path d="M5780 6971 c-22 -7 -23 -9 -7 -16 35 -15 92 -11 92 5 0 17 -46 23
-85 11z"/>
<path d="M8583 6924 c-16 -12 -16 -15 -3 -23 17 -11 89 -4 105 11 27 25 -70
36 -102 12z"/>
<path d="M3032 6805 c-9 -11 -10 -20 -3 -33 9 -15 10 -15 11 6 0 12 5 22 10
22 6 0 10 5 10 10 0 14 -13 12 -28 -5z"/>
<path d="M3060 6490 c0 -5 5 -10 11 -10 5 0 7 5 4 10 -3 6 -8 10 -11 10 -2 0
-4 -4 -4 -10z"/>
<path d="M7190 5953 c0 -5 4 -15 10 -23 11 -18 25 -7 17 15 -6 15 -27 21 -27
8z"/>
<path d="M4284 5061 c-10 -10 -3 -33 16 -53 11 -12 20 -27 20 -32 0 -6 17 -22
36 -36 l36 -26 121 15 c67 8 124 18 125 23 2 4 39 8 83 8 64 0 79 3 79 15 0
11 11 15 40 15 22 0 40 5 40 10 0 6 18 10 40 10 33 0 40 4 40 19 0 17 -12 19
-162 25 -215 8 -509 12 -514 7z"/>
<path d="M9333 4963 c31 -2 83 -2 115 0 31 2 5 3 -58 3 -63 0 -89 -1 -57 -3z"/>
<path d="M4520 4890 c-39 -6 -33 -7 38 -8 49 -1 82 2 82 8 0 11 -50 11 -120 0z"/>
<path d="M5680 4710 c0 -5 -19 -10 -42 -10 -23 0 -39 -3 -35 -6 9 -9 157 7
157 17 0 5 -18 9 -40 9 -22 0 -40 -4 -40 -10z"/>
<path d="M7062 4674 c-27 -6 -36 -25 -28 -58 6 -23 9 -24 138 -28 73 -3 139
-3 146 0 7 2 12 21 12 43 0 38 -1 39 -33 39 -19 0 -74 2 -123 4 -49 3 -99 2
-112 0z m5 -30 c-3 -3 -12 -4 -19 -1 -8 3 -5 6 6 6 11 1 17 -2 13 -5z"/>
<path d="M9368 4605 l4 -45 64 0 64 0 0 45 0 45 -68 0 -67 0 3 -45z"/>
<path d="M3022 4308 c-9 -9 -12 -147 -12 -560 l0 -548 373 -1 c204 0 518 -1
697 -2 179 -1 305 1 280 4 l-45 6 39 1 c30 2 47 10 73 37 19 19 43 35 54 35
18 0 19 2 6 14 -9 9 -47 17 -101 22 -93 7 -119 21 -114 58 3 20 7 21 138 18
74 -1 154 -5 178 -8 33 -4 43 -2 49 11 11 29 -17 35 -169 35 -81 0 -149 3
-151 8 -3 4 61 6 143 4 125 -3 148 -1 153 12 11 28 -29 37 -166 36 -72 -1
-138 -1 -145 -1 -11 1 -12 60 -7 324 4 210 3 327 -4 337 -10 15 -107 28 -212
29 l-55 1 4 52 c2 40 -1 55 -13 64 -26 19 -73 -13 -85 -58 -10 -34 -14 -37
-66 -48 -30 -7 -74 -9 -97 -6 -23 4 -163 6 -310 6 -191 -1 -273 2 -283 11 -10
8 -18 8 -27 1 -7 -6 -23 -8 -36 -5 -22 5 -23 10 -19 64 l4 59 -31 0 c-17 0
-36 -5 -43 -12z m1237 -182 c8 -9 10 -92 6 -292 -4 -154 -8 -294 -11 -311 l-5
-33 -125 0 -126 0 6 28 c3 15 8 158 12 317 3 160 8 293 11 298 2 4 53 7 112 7
80 0 112 -4 120 -14z m-1011 -28 c-5 -15 -60 -16 -65 -2 -2 6 13 11 32 12 24
1 35 -3 33 -10z m207 -3 c0 -5 -21 -11 -47 -13 -39 -3 -48 0 -48 13 0 13 9 16
48 13 26 -2 47 -7 47 -13z m225 0 c0 -12 -14 -14 -70 -13 -57 1 -68 3 -59 15
17 19 129 18 129 -2z m160 1 c0 -9 -15 -15 -46 -18 -47 -3 -67 7 -43 23 23 15
89 11 89 -5z m123 -107 c-5 -18 -23 -27 -23 -11 1 25 14 52 20 42 4 -7 5 -21
3 -31z m3 -306 c-4 -135 -7 -159 -22 -170 -20 -15 -104 -18 -104 -4 0 5 -10
11 -22 13 l-23 3 23 20 c12 11 22 27 22 37 0 12 8 18 21 18 17 0 20 5 16 21
-4 15 0 23 14 26 23 6 63 68 56 87 -5 14 11 106 19 106 3 0 2 -71 0 -157z
m-606 -43 c0 -5 -5 -10 -11 -10 -5 0 -7 5 -4 10 3 6 8 10 11 10 2 0 4 -4 4
-10z m400 -105 c0 -9 -9 -15 -22 -15 -22 1 -23 1 -4 15 25 19 26 19 26 0z
m-17 -32 c-13 -2 -33 -2 -45 0 -13 2 -3 4 22 4 25 0 35 -2 23 -4z"/>
<path d="M4820 3985 c-22 -13 -23 -14 -5 -15 30 0 65 11 65 21 0 13 -32 10
-60 -6z"/>
<path d="M4890 3990 c0 -5 7 -10 15 -10 8 0 15 5 15 10 0 6 -7 10 -15 10 -8 0
-15 -4 -15 -10z"/>
<path d="M4945 3990 c-3 -5 1 -10 9 -10 8 0 18 5 21 10 3 6 -1 10 -9 10 -8 0
-18 -4 -21 -10z"/>
<path d="M5000 3990 c0 -5 7 -10 15 -10 8 0 15 5 15 10 0 6 -7 10 -15 10 -8 0
-15 -4 -15 -10z"/>
<path d="M5055 3990 c-20 -8 -20 -9 1 -9 12 -1 50 -3 85 -6 61 -4 62 -4 14 4
-27 5 -57 11 -65 14 -8 3 -24 2 -35 -3z"/>
<path d="M5245 3980 c-3 -5 3 -10 14 -10 12 0 21 5 21 10 0 6 -6 10 -14 10 -8
0 -18 -4 -21 -10z"/>
<path d="M5295 3980 c4 -6 11 -8 16 -5 14 9 11 15 -7 15 -8 0 -12 -5 -9 -10z"/>
<path d="M8263 3763 c-8 -19 -9 -159 -6 -718 1 -214 -2 -412 -6 -440 l-8 -50
-2 71 c-2 129 -46 162 -216 163 -169 1 -174 -7 -187 -269 -11 -239 -12 -244
-68 -250 -38 -4 -45 -9 -51 -33 -16 -58 -27 -56 369 -73 140 -6 152 -8 152
-25 0 -15 8 -19 40 -19 22 0 40 -4 40 -9 0 -5 36 -12 80 -16 44 -4 80 -11 80
-16 0 -5 18 -9 40 -9 22 0 40 -4 40 -10 0 -5 18 -10 40 -10 29 0 40 4 40 15 0
11 11 15 40 15 27 0 40 4 40 13 0 11 29 15 117 20 66 4 119 11 121 17 2 5 21
10 43 10 21 0 40 3 40 8 7 42 9 83 9 252 0 107 -2 350 -6 540 -3 219 -2 340 4
331 7 -9 12 -10 16 -2 4 6 14 11 22 11 12 0 14 -27 14 -155 0 -95 -4 -164 -12
-180 -9 -20 -8 -31 3 -52 10 -22 14 -103 17 -363 2 -184 4 -343 4 -352 -1 -14
8 -18 41 -18 23 0 85 -3 137 -6 52 -2 121 -2 153 2 l57 6 0 104 0 104 -27 -6
c-16 -4 -29 -11 -31 -16 -2 -4 -21 -8 -43 -8 -39 0 -39 0 -39 -40 l0 -40 -78
0 c-67 0 -79 3 -90 21 -9 14 -10 24 -3 33 13 15 13 646 0 646 -5 0 -9 168 -9
404 l0 404 -22 6 c-13 3 -218 6 -456 6 -399 0 -433 -1 -439 -17z m687 -732 c0
-17 -18 -21 -24 -6 -3 9 0 15 9 15 8 0 15 -4 15 -9z m-640 -235 c0 -3 -4 -8
-10 -11 -5 -3 -10 -1 -10 4 0 6 5 11 10 11 6 0 10 -2 10 -4z m867 -278 c-2
-24 -4 -5 -4 42 0 47 2 66 4 43 2 -24 2 -62 0 -85z m-1288 -123 l2 -125 -27 0
c-22 0 -25 3 -21 23 3 12 9 68 13 125 5 72 10 102 19 102 10 0 13 -31 14 -125z
m316 -22 c-5 -99 -10 -119 -21 -89 -4 10 -10 13 -13 8 -3 -5 -63 -11 -133 -14
l-127 -5 3 36 c2 20 4 51 5 69 1 27 5 32 24 31 18 -1 19 -2 3 -6 -16 -4 -13
-10 20 -44 31 -32 45 -39 76 -39 31 0 38 4 38 20 0 17 7 20 40 20 36 0 40 3
40 25 0 18 -7 26 -25 31 -14 3 -25 9 -25 13 0 6 74 38 92 40 4 1 5 -42 3 -96z
m982 -35 c-2 -13 -4 -3 -4 22 0 25 2 35 4 23 2 -13 2 -33 0 -45z"/>
<path d="M8038 2303 c23 -2 61 -2 85 0 23 2 4 4 -43 4 -47 0 -66 -2 -42 -4z"/>
<path d="M7956 3218 c-3 -7 -4 -42 -3 -78 l2 -65 68 -3 68 -3 -3 78 -3 78 -63
3 c-44 2 -63 -1 -66 -10z m124 -58 c0 -5 -25 -10 -55 -10 -30 0 -55 5 -55 10
0 6 25 10 55 10 30 0 55 -4 55 -10z"/>
<path d="M7899 3180 c-4 -42 -1 -64 9 -68 8 -2 12 10 12 37 0 23 -4 41 -10 41
-5 0 -10 -4 -11 -10z"/>
<path d="M3010 3161 c0 -21 0 -21 455 -21 258 0 455 4 455 9 0 5 -111 12 -247
15 -137 3 -341 9 -455 12 -206 6 -208 6 -208 -15z"/>
<path d="M7613 3000 c0 -25 2 -35 4 -22 2 12 2 32 0 45 -2 12 -4 2 -4 -23z"/>
<path d="M9354 2450 c-6 -6 -8 -29 -5 -53 5 -35 10 -43 30 -45 16 -3 31 4 45
21 12 13 28 26 36 30 9 3 10 6 3 6 -18 1 -16 21 2 21 31 0 14 18 -22 24 -54 8
-78 7 -89 -4z"/>
<path d="M7085 2220 c-8 -13 98 -20 332 -20 220 0 263 3 263 19 0 9 -589 10
-595 1z"/>
<path d="M9070 2215 c0 -8 5 -15 10 -15 6 0 10 7 10 15 0 8 -4 15 -10 15 -5 0
-10 -7 -10 -15z"/>
<path d="M5545 2150 c4 -6 11 -8 16 -5 14 9 11 15 -7 15 -8 0 -12 -5 -9 -10z"/>
<path d="M8930 969 c-8 -15 -10 -121 -4 -375 l7 -354 283 0 284 0 0 90 c0 63
-4 91 -13 97 -33 20 -47 58 -47 130 0 78 13 119 40 128 11 4 17 17 18 38 1 28
-1 30 -12 15 -20 -27 -25 -22 -19 20 3 24 0 50 -9 66 -14 26 -16 27 -31 11
-23 -22 -21 -35 4 -35 19 0 20 -4 15 -35 -4 -19 -2 -45 4 -57 11 -22 10 -22
-4 -4 -9 11 -16 31 -16 44 0 18 -4 23 -16 18 -11 -4 -18 1 -21 14 -3 11 -9 20
-14 20 -5 0 -9 12 -9 26 0 14 -3 23 -7 21 -5 -3 -44 -2 -88 3 -64 6 -71 8 -35
10 l45 3 -45 7 -45 7 43 1 42 2 0 40 0 39 113 4 c109 3 107 3 -43 6 -107 3
-141 6 -110 11 28 4 -20 8 -127 8 -165 2 -173 1 -183 -19z m22 -254 c3 -138 2
-200 -2 -145 -8 99 -13 396 -6 389 2 -2 5 -112 8 -244z m374 113 c27 -9 37
-21 49 -57 19 -57 20 -131 1 -131 -7 0 -16 -8 -19 -19 -6 -25 -58 -49 -95 -43
-38 5 -85 -5 -77 -17 8 -14 9 -114 1 -139 -8 -25 -31 -29 -39 -8 -5 11 -11
376 -8 419 1 12 152 8 187 -5z"/>
<path d="M9190 710 l0 -90 39 0 c63 0 89 14 100 55 12 45 7 76 -16 92 -10 7
-23 17 -30 23 -7 5 -30 10 -53 10 l-40 0 0 -90z"/>
<path d="M9328 873 c6 -2 18 -2 25 0 6 3 1 5 -13 5 -14 0 -19 -2 -12 -5z"/>
<path d="M9370 870 c0 -5 5 -10 10 -10 6 0 10 5 10 10 0 6 -4 10 -10 10 -5 0
-10 -4 -10 -10z"/>
<path d="M9460 874 c0 -9 31 -37 36 -32 9 9 -8 38 -22 38 -8 0 -14 -3 -14 -6z"/>
<path d="M9487 603 c-11 -10 -8 -73 3 -73 6 0 10 18 10 40 0 41 -2 45 -13 33z"/>
<path d="M5520 140 c0 -5 -18 -10 -40 -10 -36 0 -40 -2 -40 -25 0 -22 -4 -25
-40 -25 l-40 0 0 -40 0 -40 145 0 145 0 0 40 c0 24 5 40 12 40 7 0 -3 16 -22
35 -28 29 -41 35 -77 35 -24 0 -43 -4 -43 -10z"/>
<path d="M5798 83 c23 -2 61 -2 85 0 23 2 4 4 -43 4 -47 0 -66 -2 -42 -4z"/>
</g>
</svg>
