<?xml version="1.0" standalone="no"?>
<!DOCTYPE svg PUBLIC "-//W3C//DTD SVG 20010904//EN"
 "http://www.w3.org/TR/2001/REC-SVG-20010904/DTD/svg10.dtd">
<svg version="1.0" xmlns="http://www.w3.org/2000/svg"
 width="1280.000000pt" height="720.000000pt" viewBox="0 0 1280.000000 720.000000"
 preserveAspectRatio="xMidYMid meet">
<metadata>
Created by potrace 1.16, written by Peter Selinger 2001-2019
</metadata>
<g transform="translate(0.000000,720.000000) scale(0.100000,-0.100000)"
fill="#000000" stroke="none">
<path d="M3011 6963 c-1 -47 3 -75 12 -80 6 -4 18 -20 26 -35 8 -16 38 -53 68
-84 29 -31 53 -61 53 -66 0 -5 -19 -8 -42 -6 -41 3 -43 2 -41 -23 l1 -27 -24
25 c-28 28 -31 43 -8 43 9 0 14 7 12 17 -4 22 -28 29 -28 9 0 -9 -7 -16 -15
-16 -23 0 -21 -132 2 -151 9 -8 18 -13 20 -11 2 1 22 -19 44 -45 88 -104 98
-113 125 -113 25 0 26 2 20 33 -3 17 -14 37 -23 44 -18 14 -21 45 -10 113 3
25 3 34 -1 20 -7 -22 -9 -23 -15 -7 -11 30 -8 37 18 37 14 0 29 -8 35 -20 6
-11 17 -20 25 -20 9 0 15 -10 15 -25 0 -22 4 -25 34 -25 88 0 89 36 4 128 -34
37 -67 73 -73 80 -5 7 -18 22 -27 33 -10 10 -18 22 -18 25 0 10 -58 64 -69 64
-6 0 -11 6 -11 13 0 6 -19 33 -43 58 -23 25 -47 54 -54 65 -10 16 -12 7 -12
-53z m129 -335 c0 -7 -5 -20 -10 -28 -8 -12 -10 -9 -10 13 0 15 5 27 10 27 6
0 10 -6 10 -12z"/>
<path d="M5765 6971 c-3 -6 5 -13 18 -16 32 -8 77 -3 80 10 3 13 -89 19 -98 6z"/>
<path d="M6230 6963 c-29 -32 -50 -68 -50 -86 0 -11 -9 -31 -21 -45 -72 -93
-111 -167 -130 -250 -11 -48 -29 -123 -39 -167 -10 -44 -24 -134 -30 -200 -10
-116 -30 -198 -57 -240 -7 -11 -13 -27 -13 -37 0 -10 -6 -18 -12 -18 -13 0
-38 -44 -38 -67 0 -7 -4 -13 -8 -13 -5 0 -17 -18 -28 -40 -10 -22 -25 -40 -31
-40 -7 0 -13 -6 -13 -14 0 -7 -9 -16 -19 -19 -10 -2 -27 -21 -36 -40 -9 -20
-23 -41 -31 -48 -8 -6 -14 -16 -14 -21 0 -5 -7 -16 -15 -25 -9 -8 -19 -28 -22
-44 -3 -16 -9 -29 -14 -29 -5 0 -9 -18 -9 -40 0 -22 -4 -40 -9 -40 -5 0 -10
-70 -13 -156 -2 -100 -8 -158 -15 -162 -6 -4 -13 -23 -15 -42 l-3 -35 -335 1
c-347 2 -1085 20 -1155 28 -22 3 -266 7 -542 9 l-503 4 0 -184 0 -183 203 0
c111 0 231 4 267 9 36 5 239 13 453 17 339 6 387 5 387 -8 0 -11 17 -17 61
-22 90 -9 96 -8 118 15 17 19 21 19 43 6 18 -12 93 -16 373 -22 193 -4 371 -8
397 -9 26 -1 48 4 48 9 0 6 -45 9 -120 6 -90 -3 -120 0 -120 9 0 9 -20 10 -80
5 -54 -5 -80 -4 -80 3 0 6 -19 13 -42 15 -24 2 61 2 187 0 127 -2 244 -6 262
-9 36 -5 46 -23 37 -70 -4 -25 -12 -34 -26 -34 -20 0 -67 -47 -68 -67 0 -7 -7
-13 -15 -13 -8 0 -15 -7 -15 -16 0 -8 -6 -22 -12 -29 -30 -33 -36 -43 -47 -78
-7 -20 -18 -37 -25 -37 -6 0 -16 -15 -21 -32 -6 -18 -19 -37 -31 -42 -12 -5
-31 -26 -44 -45 -13 -20 -35 -53 -48 -74 -14 -21 -40 -45 -59 -53 -18 -9 -33
-20 -33 -24 0 -13 -61 -24 -112 -21 -38 2 -48 0 -48 -13 0 -9 -4 -16 -10 -16
-5 0 -10 -18 -10 -39 0 -22 -5 -41 -11 -43 -9 -3 -9 -12 -3 -32 l10 -29 12 41
13 41 75 -1 c46 -1 78 3 82 9 4 6 23 14 42 18 29 5 38 13 51 45 15 33 27 43
95 75 178 83 173 81 209 113 7 6 18 12 23 12 24 0 242 186 242 208 0 4 14 22
30 40 17 18 30 42 30 52 0 28 91 124 102 108 6 -10 12 -9 23 6 14 19 15 18 15
-10 -1 -29 -29 -246 -50 -379 -6 -38 -27 -118 -46 -177 -19 -59 -34 -114 -34
-123 0 -8 -4 -15 -10 -15 -5 0 -10 -11 -10 -24 0 -59 9 -57 -244 -51 -457 12
-507 12 -512 3 -3 -5 -12 -4 -19 2 -11 9 -23 8 -50 -1 -29 -11 -34 -16 -28
-34 11 -29 5 -195 -8 -227 -8 -19 -8 -37 -1 -60 6 -18 9 -103 7 -190 -2 -129
0 -158 11 -158 8 0 14 9 14 21 0 12 8 23 20 26 11 3 20 9 20 14 0 5 9 9 20 9
14 0 20 7 20 21 0 16 4 19 17 14 10 -4 28 -7 41 -6 18 1 22 -4 22 -29 0 -17 5
-30 10 -30 6 0 10 -7 10 -15 0 -8 -8 -15 -19 -15 -10 0 -21 -9 -24 -21 -3 -11
-15 -23 -26 -26 -12 -3 -22 -9 -22 -14 -1 -5 -2 -13 -3 -18 -2 -19 -16 -24
-31 -11 -11 9 -18 10 -28 1 -16 -13 -27 -5 -27 21 0 17 -29 27 -31 11 0 -5 -2
-25 -4 -47 l-4 -39 49 6 c30 4 50 2 50 -4 0 -5 11 -2 25 7 13 8 28 13 33 10 5
-3 136 -6 291 -7 249 -2 281 -4 281 -18 -1 -40 -7 -41 -261 -36 -353 7 -482
14 -493 25 -10 10 -10 198 -2 600 4 148 2 198 -4 160 -5 -30 -12 -179 -15
-330 -7 -359 -12 -452 -28 -462 -6 -4 -396 -5 -864 -1 l-853 6 0 -21 c0 -21 3
-22 137 -22 75 0 134 -3 131 -6 -4 -3 -65 -5 -137 -5 -124 1 -131 0 -131 -18
0 -17 8 -20 58 -23 54 -3 57 -4 60 -30 3 -28 3 -28 -57 -28 -54 0 -61 -2 -61
-20 0 -18 7 -20 55 -20 l55 0 0 -95 0 -95 -32 0 c-71 0 -78 -7 -78 -71 0 -48
3 -57 15 -53 8 4 15 1 15 -5 0 -6 -7 -11 -15 -11 -11 0 -15 -11 -15 -40 0 -35
3 -40 24 -40 22 0 24 -5 31 -77 4 -49 3 -79 -3 -81 -5 -1 -8 -12 -5 -22 3 -11
0 -20 -6 -20 -6 0 -11 5 -11 11 0 8 -5 8 -15 -1 -11 -9 -15 -32 -15 -81 0 -61
2 -69 19 -69 18 0 68 -48 89 -86 8 -15 13 -16 25 -6 8 7 18 23 21 36 6 23 36
45 36 26 0 -6 18 -10 40 -10 22 0 40 -4 40 -10 0 -26 32 -5 46 30 16 40 34 53
34 25 0 -11 11 -15 38 -15 30 0 42 -6 62 -31 49 -61 55 -65 59 -43 2 10 7 24
11 29 4 6 11 25 15 42 7 37 21 42 41 16 13 -17 13 -17 14 0 0 9 4 17 8 17 18
0 72 -67 72 -90 0 -24 0 -24 19 -4 10 11 24 37 32 57 12 34 16 37 54 37 22 0
49 3 60 6 17 4 22 -2 34 -40 7 -24 19 -53 27 -63 12 -16 13 -15 14 14 0 21 9
41 28 60 25 25 33 27 122 30 52 1 87 0 78 -3 -24 -7 -26 -84 -3 -84 8 0 15 4
15 9 0 12 59 71 70 71 5 0 11 -6 13 -12 4 -10 6 -10 6 0 1 6 7 12 15 12 9 0
17 -17 21 -47 l8 -48 14 55 14 55 239 0 c132 0 240 -3 240 -6 0 -4 29 -4 64
-2 88 8 112 0 125 -39 l12 -33 19 25 c11 14 20 33 20 44 0 14 5 17 23 12 12
-3 30 -6 40 -6 9 0 17 -7 17 -15 0 -11 11 -15 40 -15 27 0 40 4 40 14 0 18
152 34 158 17 2 -6 10 -11 18 -11 8 0 14 -7 14 -15 0 -8 5 -15 10 -15 6 0 10
7 10 15 0 8 7 15 15 15 8 0 15 5 15 10 0 14 77 13 82 -1 3 -9 14 -9 41 0 21 7
44 10 52 7 20 -7 19 -84 0 -110 -8 -11 -15 -32 -15 -46 0 -23 -32 -116 -60
-175 -6 -11 -15 -45 -21 -75 -6 -30 -15 -75 -20 -100 -27 -129 -39 -280 -39
-490 0 -213 -1 -229 -24 -292 -14 -37 -28 -88 -32 -113 -9 -63 -45 -105 -90
-105 -19 0 -34 -4 -34 -10 0 -5 -11 -12 -24 -16 -13 -3 -27 -15 -29 -26 -8
-30 20 -93 49 -108 31 -17 30 -22 -6 -43 -16 -10 -33 -29 -36 -43 -3 -13 -12
-24 -20 -24 -9 0 -5 -12 14 -40 26 -38 29 -39 85 -40 l57 0 0 -80 c0 -79 0
-80 25 -80 23 0 25 -4 25 -40 0 -22 5 -40 10 -40 6 0 10 -18 10 -40 l0 -40
160 0 160 0 0 80 c0 79 0 80 -25 80 -32 0 -32 13 0 38 14 11 25 24 25 28 0 13
-83 94 -96 94 -8 0 -14 29 -19 80 -4 44 -11 80 -15 80 -4 0 -11 17 -15 37 -5
28 -3 38 9 45 9 5 16 22 16 38 0 17 9 53 20 82 12 29 25 96 30 148 5 52 13
109 19 125 5 17 33 104 62 195 29 91 56 169 61 175 4 5 8 24 8 43 0 30 18 100
41 157 13 33 27 96 34 155 10 92 36 193 61 239 13 24 24 50 24 58 0 7 7 16 15
19 8 3 19 22 26 42 7 20 18 43 26 50 7 7 13 31 13 52 l0 38 256 1 c141 1 267
-2 280 -5 18 -5 24 -13 24 -35 0 -15 6 -43 14 -61 29 -67 38 -142 41 -330 3
-217 16 -397 44 -603 15 -109 20 -199 19 -412 0 -274 7 -403 23 -414 5 -3 0
-23 -11 -44 -11 -22 -20 -56 -20 -76 0 -21 -4 -39 -9 -41 -5 -2 -12 -38 -16
-80 l-7 -78 146 0 146 0 -1 73 c0 39 -4 97 -9 127 -9 60 -11 57 73 123 71 57
127 113 127 127 0 9 -7 37 -16 63 -12 35 -21 47 -36 47 -37 0 -104 52 -121 95
-14 35 -27 147 -29 255 -2 42 24 193 52 310 11 47 24 147 30 224 5 76 14 144
20 150 18 23 -20 472 -42 487 -4 3 -11 57 -15 120 -3 63 -11 117 -16 121 -7 4
-6 37 2 100 7 51 14 104 15 118 2 38 41 60 108 60 33 0 72 7 93 17 49 24 47
58 -8 131 -44 59 -61 106 -107 306 -19 77 -22 128 -24 380 -4 289 -4 292 -35
411 -17 66 -31 134 -31 150 0 17 -5 46 -10 65 -14 48 -50 284 -50 329 0 20 -5
42 -10 47 -6 6 -13 42 -15 80 -3 38 -2 62 1 54 24 -54 30 -73 44 -140 10 -48
20 -74 28 -72 6 1 12 -7 12 -18 0 -11 7 -20 15 -20 9 0 34 -18 56 -40 22 -22
46 -40 52 -40 15 0 67 -54 67 -69 0 -6 9 -11 20 -11 11 0 23 -7 27 -16 9 -24
52 -64 68 -64 8 0 15 -7 15 -15 0 -9 11 -20 25 -25 14 -5 28 -17 31 -25 4 -8
16 -15 28 -15 12 0 27 -9 33 -19 7 -11 25 -22 40 -26 15 -3 46 -17 68 -31 83
-51 104 -56 179 -49 39 4 73 10 76 14 11 14 51 31 72 31 13 1 34 7 48 15 14 8
42 14 64 15 60 0 118 20 154 54 38 36 41 56 7 56 -14 0 -25 5 -25 10 0 14
-135 13 -179 -2 -46 -14 -101 -36 -124 -49 -9 -5 -39 -12 -65 -15 -26 -3 -64
-12 -86 -20 -34 -13 -43 -13 -81 1 -35 14 -45 24 -55 56 -7 21 -21 47 -32 58
-10 11 -18 25 -18 30 0 5 -8 16 -19 23 -10 7 -30 36 -45 65 -15 28 -34 57 -42
64 -8 6 -14 18 -14 25 0 8 -9 14 -20 14 -17 0 -20 7 -20 40 0 29 -4 40 -15 40
-8 0 -15 6 -15 13 0 6 -12 35 -25 62 -14 28 -25 64 -25 81 0 17 -7 37 -15 44
-21 17 -19 40 4 40 11 0 21 -9 24 -21 8 -31 32 -18 35 21 l3 32 -44 -6 c-55
-8 -67 4 -70 74 l-2 52 420 -1 c231 -1 465 -4 520 -6 55 -2 325 -7 600 -10
275 -3 555 -8 623 -12 l122 -6 0 51 0 50 -77 7 c-43 3 -343 8 -667 11 -479 4
-591 3 -597 -8 -7 -10 -9 -10 -9 0 0 22 -30 13 -31 -10 l0 -23 -16 23 -15 22
-324 0 c-317 0 -324 0 -324 20 0 17 -7 20 -40 20 -33 0 -40 -3 -40 -20 0 -18
-7 -20 -69 -20 l-68 0 -10 -42 -11 -43 -1 38 c0 22 -7 40 -15 43 -10 4 -15 42
-21 152 -6 123 -4 158 10 212 14 51 16 88 11 169 -3 58 -9 107 -14 110 -12 10
-32 50 -32 66 0 8 -4 15 -10 15 -5 0 -10 7 -10 15 0 8 -6 15 -12 15 -7 0 -25
12 -40 25 -22 19 -28 33 -28 65 0 27 -4 40 -13 40 -9 0 -19 22 -27 58 -10 47
-35 109 -90 222 -9 19 -25 91 -46 205 -35 195 -44 227 -112 412 -11 28 -31 66
-45 85 -14 18 -36 52 -48 74 -13 23 -43 63 -66 88 -37 41 -48 47 -113 61 -98
21 -230 20 -250 -2z m422 -270 c18 -31 34 -82 52 -163 12 -54 9 -89 -14 -180
-6 -25 -14 -60 -17 -77 -8 -48 -33 -43 -33 6 0 22 5 41 12 43 9 3 9 12 0 38
-7 18 -12 53 -12 76 0 24 -5 44 -10 44 -12 0 6 41 23 51 14 10 1 68 -28 125
-18 36 -21 50 -12 56 18 12 21 10 39 -19z m2611 -1840 c-13 -2 -33 -2 -45 0
-13 2 -3 4 22 4 25 0 35 -2 23 -4z m-4608 -43 c50 -19 23 -35 -59 -36 -59 -1
-79 3 -83 14 -3 8 0 18 8 23 19 12 102 11 134 -1z m65 -60 c0 -5 -4 -10 -9
-10 -6 0 -13 5 -16 10 -3 6 1 10 9 10 9 0 16 -4 16 -10z m925 -885 c0 -15 -7
-32 -16 -38 -26 -16 -49 -1 -49 31 0 36 5 41 38 38 22 -3 27 -8 27 -31z m-516
-72 c0 -11 -3 -13 -6 -5 -2 6 -9 10 -14 6 -5 -3 -9 0 -9 5 0 6 7 11 15 11 8 0
15 -8 14 -17z m31 7 c0 -5 -2 -10 -4 -10 -3 0 -8 5 -11 10 -3 6 -1 10 4 10 6
0 11 -4 11 -10z m-26 -62 c6 -25 4 -28 -19 -26 -14 1 -25 8 -25 15 0 7 7 10
15 7 11 -4 15 0 15 17 0 28 5 23 14 -13z m101 -8 c3 -6 -1 -13 -10 -16 -19 -8
-30 0 -20 15 8 14 22 14 30 1z m325 -10 c0 -13 -7 -20 -20 -20 -18 0 -19 2 -8
20 7 11 16 20 20 20 5 0 8 -9 8 -20z m-600 0 c0 -13 -11 -13 -30 0 -12 8 -11
10 8 10 12 0 22 -4 22 -10z m90 0 c0 -5 -4 -10 -9 -10 -6 0 -13 5 -16 10 -3 6
1 10 9 10 9 0 16 -4 16 -10z m390 0 c0 -5 -10 -10 -22 -10 -19 0 -20 2 -8 10
19 13 30 13 30 0z m170 -20 c0 -5 -2 -10 -4 -10 -3 0 -8 5 -11 10 -3 6 -1 10
4 10 6 0 11 -4 11 -10z m-251 -27 c0 -11 -3 -13 -6 -5 -2 6 -17 12 -33 12 -16
0 -31 -6 -33 -12 -3 -8 -6 -6 -6 5 -1 13 7 17 39 17 32 0 40 -4 39 -17z m97
-69 c-6 -17 -62 -19 -72 -2 -5 8 -2 9 9 5 10 -3 17 -2 17 4 0 6 7 6 20 -1 18
-10 20 -7 21 22 1 25 3 27 6 10 3 -13 2 -30 -1 -38z m-218 24 c17 -17 15 -25
-8 -31 -23 -6 -34 7 -26 28 7 18 18 19 34 3z m298 -35 c-11 -12 -27 13 -20 32
7 17 8 17 17 -3 6 -12 7 -25 3 -29z m-486 11 c0 -2 -9 -4 -21 -4 -11 0 -18 4
-14 10 5 8 35 3 35 -6z m85 6 c4 -6 -6 -10 -22 -10 -22 0 -25 2 -13 10 19 12
27 12 35 0z m205 -2 c17 10 20 10 20 -3 0 -11 -11 -15 -40 -15 -29 0 -40 4
-40 15 0 13 3 13 20 3 16 -10 24 -10 40 0z m110 -68 c0 -5 -6 -10 -14 -10 -8
0 -18 5 -21 10 -3 6 3 10 14 10 12 0 21 -4 21 -10z m-217 -22 c14 -22 1 -48
-23 -48 -13 0 -20 7 -20 19 0 48 22 63 43 29z m187 -13 c0 -8 -4 -15 -10 -15
-5 0 -10 7 -10 15 0 8 5 15 10 15 6 0 10 -7 10 -15z m-485 -25 c-3 -5 -10 -10
-16 -10 -5 0 -9 5 -9 10 0 6 7 10 16 10 8 0 12 -4 9 -10z m125 0 c0 -5 -11
-10 -25 -10 -14 0 -25 5 -25 10 0 6 11 10 25 10 14 0 25 -4 25 -10z m85 0 c-3
-5 -15 -10 -26 -10 -10 0 -19 5 -19 10 0 6 12 10 26 10 14 0 23 -4 19 -10z
m185 0 c0 -5 -7 -10 -15 -10 -8 0 -15 5 -15 10 0 6 7 10 15 10 8 0 15 -4 15
-10z m5 -166 c-5 -34 -3 -49 7 -55 9 -6 8 -9 -7 -9 -33 1 -50 22 -53 68 -2 41
-2 42 29 42 l31 0 -7 -46z m200 -4 c-5 -8 -11 -8 -17 -2 -6 6 -7 16 -3 22 5 8
11 8 17 2 6 -6 7 -16 3 -22z m-178 -2 c-3 -8 -6 -5 -6 6 -1 11 2 17 5 13 3 -3
4 -12 1 -19z m-147 -20 c0 -5 -4 -8 -10 -8 -5 0 -10 10 -10 23 0 18 2 19 10 7
5 -8 10 -18 10 -22z m210 -28 c0 -5 -13 -10 -30 -10 -16 0 -30 5 -30 10 0 6
14 10 30 10 17 0 30 -4 30 -10z m-1742 -235 c8 -8 -311 -5 -330 3 -10 4 60 6
154 4 94 -1 174 -4 176 -7z m218 3 c3 -4 -33 -8 -80 -8 -52 0 -86 4 -86 10 0
13 158 11 166 -2z m-616 -73 c0 -23 -3 -25 -49 -25 -52 0 -65 8 -55 34 4 12
20 16 55 16 46 0 49 -2 49 -25z m240 11 c0 -24 -21 -31 -105 -33 -79 -2 -99 6
-88 34 8 20 193 19 193 -1z m377 -9 c-6 -18 -147 -25 -164 -9 -23 23 -8 27 82
24 60 -3 85 -7 82 -15z m1103 -16 c0 -34 -9 -44 -27 -30 -8 7 -13 7 -13 2 0
-11 -234 -25 -447 -27 l-133 -1 0 -40 0 -40 88 1 c155 1 170 2 175 22 4 13 5
11 6 -5 1 -23 31 -34 31 -11 0 6 8 2 18 -10 17 -20 30 -21 155 -23 l137 -1 0
-79 c0 -43 -3 -79 -8 -79 -4 0 -6 21 -3 46 2 25 -2 51 -8 57 -8 8 -11 -1 -11
-35 l0 -46 -242 -7 c-202 -6 -284 -5 -380 4 -5 1 -8 37 -8 81 0 73 2 80 20 80
17 0 20 7 20 39 0 30 -4 40 -20 44 -15 4 -20 14 -20 41 0 20 6 38 14 43 8 4
159 7 335 5 l321 -3 0 -28z m396 12 c4 -14 2 -40 -5 -58 -7 -20 -9 -63 -5
-122 8 -103 0 -158 -22 -167 -21 -8 -164 5 -164 15 0 5 39 10 88 11 l87 2 -83
3 -82 4 1 62 c3 86 9 95 60 91 47 -4 79 9 80 34 1 11 4 8 9 -8 7 -21 8 -19 9
18 1 23 -2 42 -6 42 -5 1 -27 5 -50 9 -24 5 -43 5 -43 1 0 -4 -11 -7 -24 -7
-18 0 -26 6 -31 24 -12 48 1 62 63 66 31 2 69 4 84 5 22 2 29 -3 34 -25z m109
15 c7 -19 -10 -83 -21 -81 -6 1 -8 -13 -6 -31 6 -52 -16 -204 -33 -228 -13
-20 -15 -6 -13 157 1 99 3 183 5 188 7 12 63 8 68 -5z m-1825 -13 c0 -11 -12
-15 -42 -16 -70 -2 -85 2 -73 20 3 6 31 11 61 11 41 0 54 -4 54 -15z m458 3
c-3 -9 -33 -13 -103 -13 -70 0 -100 4 -102 13 -4 9 21 12 102 12 81 0 106 -3
103 -12z m162 -33 c0 -38 -3 -45 -20 -45 -16 0 -20 7 -20 30 0 17 -3 29 -7 29
-29 -5 -62 3 -67 16 -4 12 5 15 54 15 l60 0 0 -45z m868 7 c3 -29 1 -32 -20
-28 -13 3 -42 5 -65 5 -41 1 -43 2 -43 31 l0 31 63 -3 62 -3 3 -33z m-1030
-164 c-2 -37 -9 -73 -15 -79 -20 -20 -171 -9 -185 13 -10 16 -10 129 0 143 4
6 45 11 92 12 60 0 85 4 89 14 9 29 22 -40 19 -103z m-896 82 l38 0 0 -79 0
-79 -55 -4 -55 -3 0 77 c0 86 7 115 23 99 6 -6 28 -11 49 -11z m264 -56 c3
-19 3 -49 0 -66 -6 -33 -7 -33 -69 -36 -34 -1 -72 -4 -84 -6 -15 -3 -23 2 -27
17 -8 31 -7 120 2 134 11 17 112 21 144 5 19 -9 29 -24 34 -48z m763 57 c10
-6 15 -39 19 -110 4 -96 4 -101 -16 -101 -13 0 -22 9 -26 24 -5 22 -9 24 -36
16 l-30 -9 0 88 c0 48 2 90 5 92 8 9 70 9 84 0z m-626 -10 l37 -1 0 -74 0 -74
-57 -5 c-32 -2 -59 -3 -61 -2 -7 7 -14 115 -9 137 5 18 13 24 29 22 13 -1 40
-3 61 -3z m235 -5 c15 -9 16 -132 2 -141 -6 -4 -43 -7 -83 -7 l-72 -1 -3 65
c-2 46 1 70 11 79 14 15 124 18 145 5z m1252 -67 c0 -6 7 -9 15 -5 11 4 15 -1
14 -17 0 -12 -3 -16 -6 -9 -7 17 -23 15 -23 -3 0 -11 -11 -15 -47 -13 l-48 1
43 4 c53 5 55 23 2 23 -29 0 -40 4 -40 15 0 11 12 15 45 15 26 0 45 -5 45 -11z
m27 -111 c-2 -13 -4 -3 -4 22 0 25 2 35 4 23 2 -13 2 -33 0 -45z m-7 -38 c0
-13 -16 -15 -65 -12 -57 5 -58 20 -2 24 47 3 67 0 67 -12z m-190 1 c0 -5 -10
-11 -22 -15 -33 -8 -543 -7 -534 1 4 4 114 10 244 13 130 4 254 7 275 8 20 1
37 -2 37 -7z m1617 -92 c22 -8 23 -14 25 -109 1 -55 2 -108 2 -117 1 -14 -7
-18 -34 -18 -19 0 -41 -4 -49 -9 -18 -12 -133 -20 -166 -12 -28 7 -25 28 3 24
15 -3 17 10 14 124 -2 113 0 127 15 132 24 6 162 -4 190 -15z m-289 -121 l-3
-133 -30 0 -30 0 -3 124 c-3 132 0 141 46 141 23 0 23 0 20 -132z m73 32 c3
-70 1 -85 -11 -85 -12 0 -16 17 -18 79 -2 44 0 86 3 94 12 32 23 -6 26 -88z
m-2238 -29 c-1 -56 -4 -109 -7 -117 -4 -10 -22 -14 -61 -14 -30 0 -55 3 -56 8
-6 90 -7 174 -2 200 l6 34 61 -4 61 -4 -2 -103z m-283 88 c0 -8 4 -9 13 0 21
17 27 3 27 -61 0 -45 -5 -63 -20 -78 -11 -11 -20 -33 -20 -50 0 -28 -2 -30
-39 -30 -35 0 -39 3 -45 31 -8 40 -8 147 0 177 5 18 13 22 45 22 22 0 39 -5
39 -11z m426 -19 c11 0 14 -17 14 -77 0 -85 -11 -116 -32 -95 -9 9 -9 12 4 12
11 0 15 6 11 21 -4 16 -8 17 -14 7 -5 -7 -8 24 -8 77 1 50 3 82 6 73 2 -10 11
-18 19 -18z m411 -67 c-6 -52 -15 -93 -21 -94 -16 -1 26 -17 47 -18 15 -1 17
9 17 79 l0 80 44 0 c49 0 101 -16 128 -39 22 -19 26 -111 6 -111 -23 0 16 -20
40 -20 18 0 22 5 22 34 0 62 13 156 21 156 5 0 9 -42 9 -94 0 -88 -1 -94 -22
-101 -37 -11 -260 -16 -460 -9 l-188 7 0 95 0 94 40 -4 c22 -2 41 1 43 7 2 5
7 -26 12 -70 5 -55 4 -80 -4 -83 -6 -2 -11 -10 -11 -18 0 -10 12 -14 40 -14
l40 0 0 95 0 95 94 0 c78 0 95 3 100 16 13 33 14 7 3 -83z m-1092 77 c4 -6 15
-5 30 2 19 8 28 8 41 -3 13 -11 15 -25 9 -89 -5 -41 -9 -84 -10 -94 -1 -16
-11 -20 -53 -22 l-52 -2 0 102 c0 57 3 106 7 109 9 10 21 9 28 -3z m1781 -5
c12 -11 13 -33 8 -110 l-7 -95 -83 0 -84 0 0 100 0 100 40 0 c34 0 40 -3 40
-21 0 -18 2 -19 15 -9 8 7 15 18 15 25 0 8 8 16 18 18 9 3 18 5 20 6 2 0 10
-6 18 -14z m160 3 c11 -17 6 -150 -6 -162 -6 -6 -4 -16 7 -28 15 -17 14 -18
-41 -18 -39 0 -55 3 -50 11 3 6 6 56 5 110 l-2 99 40 0 c22 0 43 -5 47 -12z
m-2135 -8 c27 0 30 -3 23 -22 -4 -13 -7 -60 -6 -105 l1 -83 -32 4 c-18 3 -38
5 -44 5 -17 1 -17 83 -1 99 10 10 10 15 -2 22 -12 8 -11 10 7 10 18 0 23 -7
26 -42 3 -30 4 -27 2 10 -2 50 -9 64 -39 75 -5 2 -7 11 -3 21 5 11 13 16 23
12 9 -3 29 -6 45 -6z m2216 3 c-4 -3 2 -13 14 -21 18 -12 22 -12 38 2 26 24
31 20 30 -26 -1 -24 -3 -36 -6 -27 -6 26 -44 32 -50 8 -3 -10 -9 -19 -13 -19
-5 0 -6 -8 -4 -17 4 -18 -22 -61 -30 -52 -3 3 -6 35 -8 73 -2 50 2 70 12 76
18 11 26 13 17 3z m573 -97 c0 -58 -4 -107 -8 -110 -4 -2 -14 -1 -22 5 -10 6
-11 9 -2 9 9 0 12 27 12 100 0 60 4 100 10 100 6 0 10 -41 10 -104z m-2223 32
c-2 -13 -4 -3 -4 22 0 25 2 35 4 23 2 -13 2 -33 0 -45z m493 22 c0 -22 -4 -40
-10 -40 -5 0 -10 18 -10 40 0 22 5 40 10 40 6 0 10 -18 10 -40z m680 6 c0 -19
5 -38 10 -41 6 -3 10 -33 10 -66 l0 -59 -55 0 c-30 0 -55 3 -56 8 0 4 -2 16
-5 27 -2 11 -1 53 2 93 l6 72 44 0 c43 0 44 0 44 -34z m-903 -68 c-3 -8 -6 -5
-6 6 -1 11 2 17 5 13 3 -3 4 -12 1 -19z m-349 -70 c-2 -6 -10 -14 -16 -16 -7
-2 -10 2 -6 12 7 18 28 22 22 4z m1768 -8 c24 0 34 -5 34 -15 0 -10 -10 -15
-34 -15 -45 0 -66 9 -66 27 0 10 6 13 16 9 9 -3 31 -6 50 -6z"/>
<path d="M4738 2743 c12 -2 32 -2 45 0 12 2 2 4 -23 4 -25 0 -35 -2 -22 -4z"/>
<path d="M5451 2864 c0 -11 3 -14 6 -6 3 7 2 16 -1 19 -3 4 -6 -2 -5 -13z"/>
<path d="M3600 2358 c-3 -26 -1 -43 3 -39 5 5 7 26 5 47 l-3 39 -5 -47z"/>
<path d="M8583 6924 c-16 -12 -16 -15 -3 -23 17 -11 89 -4 105 11 27 25 -70
36 -102 12z"/>
<path d="M3032 6805 c-9 -11 -10 -20 -3 -33 9 -15 10 -15 11 6 0 12 5 22 10
22 6 0 10 5 10 10 0 14 -13 12 -28 -5z"/>
<path d="M3060 6490 c0 -5 5 -10 11 -10 5 0 7 5 4 10 -3 6 -8 10 -11 10 -2 0
-4 -4 -4 -10z"/>
<path d="M9333 4963 c31 -2 83 -2 115 0 31 2 5 3 -58 3 -63 0 -89 -1 -57 -3z"/>
<path d="M8192 4623 l3 -48 164 0 164 0 2 40 c1 22 -3 43 -9 47 -6 4 -82 8
-169 8 l-158 0 3 -47z"/>
<path d="M9368 4605 l4 -45 64 0 64 0 0 45 0 45 -68 0 -67 0 3 -45z"/>
<path d="M9360 4360 c0 -6 30 -10 70 -10 40 0 70 4 70 10 0 6 -30 10 -70 10
-40 0 -70 -4 -70 -10z"/>
<path d="M3028 4309 c-17 -9 -18 -47 -18 -559 l0 -550 573 -1 c314 -1 628 -2
697 -3 69 -1 106 0 83 2 -55 4 -56 22 -2 22 32 0 47 6 71 30 16 17 36 30 43
30 8 0 12 6 9 14 -4 10 -32 17 -95 22 -96 7 -117 18 -115 56 1 23 1 23 136 20
74 -1 154 -5 178 -8 33 -4 43 -2 48 11 4 9 3 19 -1 23 -3 4 -59 10 -123 13
l-117 5 106 2 c84 2 108 5 113 17 10 27 -31 35 -179 35 l-146 0 6 323 c4 210
3 327 -4 337 -10 15 -107 28 -211 29 l-55 1 0 57 0 58 -34 -2 c-33 -1 -76 -37
-65 -54 20 -32 -79 -66 -159 -55 -23 3 -176 6 -339 7 -164 0 -307 3 -319 6
-19 5 -21 11 -17 64 4 58 4 59 -21 59 -14 0 -34 -5 -43 -11z m1231 -183 c8 -9
10 -92 6 -292 -4 -154 -8 -294 -11 -311 l-5 -33 -125 0 -126 0 6 28 c3 15 8
158 12 317 3 160 8 293 11 298 2 4 53 7 112 7 80 0 112 -4 120 -14z m-1009
-26 c0 -5 -11 -10 -25 -10 -14 0 -28 0 -32 -1 -4 0 -9 4 -11 10 -2 7 11 11 32
11 20 0 36 -4 36 -10z m205 -5 c0 -5 -21 -11 -47 -13 -39 -3 -48 0 -48 13 0
13 9 16 48 13 26 -2 47 -7 47 -13z m225 0 c0 -12 -14 -14 -70 -13 -57 1 -68 3
-59 15 17 19 129 18 129 -2z m160 0 c0 -15 -4 -16 -61 -19 -34 -1 -49 12 -28
25 24 15 89 11 89 -6z m123 -106 c-5 -18 -23 -27 -23 -11 1 25 14 52 20 42 4
-7 5 -21 3 -31z m3 -305 c-3 -96 -9 -161 -16 -168 -7 -7 -59 -11 -143 -11 -76
0 -113 2 -87 6 25 3 34 7 21 7 -20 2 -21 4 -11 17 7 8 16 15 21 15 5 0 9 -7 9
-15 0 -8 7 -15 15 -15 18 0 65 47 65 65 0 9 9 15 21 15 17 0 20 5 16 21 -4 15
0 23 14 26 23 6 63 68 56 87 -5 14 11 106 19 106 3 0 3 -70 0 -156z m-606 -44
c0 -5 -5 -10 -11 -10 -5 0 -7 5 -4 10 3 6 8 10 11 10 2 0 4 -4 4 -10z"/>
<path d="M4825 3984 l-30 -15 34 6 c18 3 37 5 42 5 5 0 9 5 9 10 0 14 -19 11
-55 -6z"/>
<path d="M4960 3989 c0 -5 5 -7 10 -4 6 3 10 8 10 11 0 2 -4 4 -10 4 -5 0 -10
-5 -10 -11z"/>
<path d="M5000 3990 c0 -5 7 -10 15 -10 8 0 15 5 15 10 0 6 -7 10 -15 10 -8 0
-15 -4 -15 -10z"/>
<path d="M5055 3990 c-20 -8 -20 -9 1 -9 12 -1 50 -3 85 -6 61 -4 62 -4 14 4
-27 5 -57 11 -65 14 -8 3 -24 2 -35 -3z"/>
<path d="M5245 3980 c-3 -5 3 -10 14 -10 12 0 21 5 21 10 0 6 -6 10 -14 10 -8
0 -18 -4 -21 -10z"/>
<path d="M8263 3763 c-8 -19 -9 -159 -6 -718 1 -214 -2 -412 -6 -440 l-8 -50
-2 71 c-2 129 -46 162 -216 163 -169 1 -174 -7 -187 -269 -11 -239 -12 -244
-68 -250 -38 -4 -45 -9 -51 -33 -4 -16 -6 -34 -3 -41 6 -15 90 -23 352 -33
158 -6 172 -8 172 -25 0 -14 8 -18 40 -18 22 0 40 -4 40 -9 0 -4 54 -14 120
-21 66 -7 120 -17 120 -21 0 -5 18 -9 40 -9 22 0 40 5 40 10 0 6 18 10 40 10
27 0 40 4 40 13 0 11 29 15 117 20 66 4 119 11 121 17 2 5 21 10 43 10 21 0
40 3 40 8 13 75 13 19 5 612 -3 303 -2 519 3 511 6 -9 11 -10 15 -2 4 6 14 11
22 11 12 0 14 -27 14 -155 0 -95 -4 -164 -12 -180 -9 -20 -8 -31 3 -52 10 -22
14 -102 16 -363 2 -210 7 -336 13 -338 6 -2 10 -8 10 -13 0 -6 -4 -7 -10 -4
-5 3 -10 1 -10 -4 0 -6 19 -11 43 -11 23 0 85 -3 137 -6 52 -2 121 -2 153 2
l57 6 0 104 c0 57 -3 104 -7 104 -5 -1 -19 -7 -33 -15 -14 -8 -42 -14 -62 -15
-38 0 -38 -1 -38 -40 l0 -40 -78 0 c-68 0 -79 3 -90 21 -10 15 -11 24 -3 32
15 15 15 647 1 647 -7 0 -10 141 -10 404 l0 404 -22 6 c-13 3 -218 6 -456 6
-399 0 -433 -1 -439 -17z m687 -732 c0 -17 -18 -21 -24 -6 -3 9 0 15 9 15 8 0
15 -4 15 -9z m-640 -235 c0 -3 -4 -8 -10 -11 -5 -3 -10 -1 -10 4 0 6 5 11 10
11 6 0 10 -2 10 -4z m867 -218 c-2 -13 -4 -3 -4 22 0 25 2 35 4 23 2 -13 2
-33 0 -45z m-1288 -183 l2 -125 -27 0 c-22 0 -25 3 -21 23 3 12 9 68 13 125 5
72 11 102 19 102 10 0 13 -32 14 -125z m316 -20 l-5 -95 -144 -3 -145 -2 3 35
c2 19 4 50 5 68 1 26 5 32 24 31 19 0 19 -1 4 -7 -16 -7 -14 -11 15 -39 30
-28 41 -32 116 -38 l82 -7 0 46 c0 40 -3 46 -25 52 -14 3 -25 9 -25 13 0 6 74
38 92 40 4 1 5 -42 3 -94z"/>
<path d="M8018 2303 c12 -2 32 -2 45 0 12 2 2 4 -23 4 -25 0 -35 -2 -22 -4z"/>
<path d="M7956 3218 c-3 -7 -4 -42 -3 -78 l2 -65 68 -3 68 -3 -3 78 -3 78 -63
3 c-44 2 -63 -1 -66 -10z m124 -58 c0 -5 -25 -10 -55 -10 -30 0 -55 5 -55 10
0 6 25 10 55 10 30 0 55 -4 55 -10z"/>
<path d="M7899 3180 c-4 -42 -1 -64 9 -68 8 -2 12 10 12 37 0 23 -4 41 -10 41
-5 0 -10 -4 -11 -10z"/>
<path d="M3010 3161 c0 -21 0 -21 455 -21 258 0 455 4 455 9 0 5 -111 12 -247
15 -137 3 -341 9 -455 12 -206 6 -208 6 -208 -15z"/>
<path d="M7613 3000 c0 -25 2 -35 4 -22 2 12 2 32 0 45 -2 12 -4 2 -4 -23z"/>
<path d="M9354 2450 c-6 -6 -8 -29 -5 -53 5 -37 9 -42 34 -45 18 -2 29 2 33
12 3 9 13 16 21 16 8 0 11 5 8 10 -3 6 2 10 12 11 10 0 13 3 6 6 -18 7 -16 23
2 23 31 0 14 18 -22 24 -54 8 -78 7 -89 -4z"/>
<path d="M7140 2221 c-121 -11 -13 -21 240 -21 225 0 300 5 300 19 0 8 -457
10 -540 2z"/>
<path d="M9070 2215 c0 -8 5 -15 10 -15 6 0 10 7 10 15 0 8 -4 15 -10 15 -5 0
-10 -7 -10 -15z"/>
<path d="M8930 969 c-8 -15 -10 -121 -4 -375 l7 -354 283 0 284 0 0 90 c0 63
-4 91 -13 97 -34 21 -47 58 -47 136 0 74 2 80 30 109 18 17 30 40 30 55 0 25
-1 26 -20 8 -19 -17 -19 -17 -13 19 3 20 0 49 -8 67 l-13 32 -19 -24 c-19 -24
-19 -24 3 -27 19 -3 21 -8 16 -38 -4 -18 -2 -44 4 -56 11 -22 10 -22 -4 -4 -9
11 -16 31 -16 44 0 18 -4 23 -16 18 -11 -4 -18 1 -21 14 -3 11 -9 20 -14 20
-12 0 -11 47 1 55 12 8 13 25 1 25 -5 0 -11 -10 -14 -21 -5 -19 -11 -21 -41
-15 -19 4 -73 7 -120 7 -83 0 -121 12 -53 16 17 1 53 5 80 9 47 6 47 6 47 45
l0 38 113 4 c109 3 107 3 -43 6 -107 3 -141 6 -110 11 28 4 -20 8 -127 8 -165
2 -173 1 -183 -19z m22 -254 c3 -138 2 -200 -2 -145 -8 99 -13 396 -6 389 2
-2 5 -112 8 -244z m374 113 c27 -9 37 -21 49 -57 19 -57 20 -131 1 -131 -7 0
-16 -8 -19 -19 -6 -25 -58 -49 -95 -43 -38 5 -85 -5 -77 -17 8 -14 9 -114 1
-139 -8 -26 -31 -29 -40 -6 -3 9 -6 108 -6 220 l0 204 77 0 c42 0 91 -5 109
-12z"/>
<path d="M9190 710 l0 -90 39 0 c63 0 89 14 100 55 12 45 7 76 -16 92 -10 7
-23 17 -30 23 -7 5 -30 10 -53 10 l-40 0 0 -90z"/>
<path d="M9328 873 c6 -2 18 -2 25 0 6 3 1 5 -13 5 -14 0 -19 -2 -12 -5z"/>
<path d="M9460 874 c0 -9 31 -37 36 -32 9 9 -8 38 -22 38 -8 0 -14 -3 -14 -6z"/>
<path d="M9218 863 c12 -2 32 -2 45 0 12 2 2 4 -23 4 -25 0 -35 -2 -22 -4z"/>
<path d="M9487 603 c-11 -10 -8 -71 3 -78 6 -4 10 12 10 39 0 47 -2 51 -13 39z"/>
</g>
</svg>
