<?xml version="1.0" standalone="no"?>
<!DOCTYPE svg PUBLIC "-//W3C//DTD SVG 20010904//EN"
 "http://www.w3.org/TR/2001/REC-SVG-20010904/DTD/svg10.dtd">
<svg version="1.0" xmlns="http://www.w3.org/2000/svg"
 width="1280.000000pt" height="720.000000pt" viewBox="0 0 1280.000000 720.000000"
 preserveAspectRatio="xMidYMid meet">
<metadata>
Created by potrace 1.16, written by Peter Selinger 2001-2019
</metadata>
<g transform="translate(0.000000,720.000000) scale(0.100000,-0.100000)"
fill="#000000" stroke="none">
<path d="M6183 7164 c-13 -20 -23 -49 -23 -66 0 -18 -8 -36 -21 -47 -81 -65
-204 -393 -215 -571 -8 -129 -20 -167 -111 -345 -43 -83 -100 -155 -123 -155
-6 0 -10 -6 -10 -14 0 -8 -7 -16 -15 -20 -8 -3 -15 -12 -15 -20 0 -19 20 -32
29 -19 3 6 19 13 34 17 25 6 27 5 18 -11 -6 -10 -30 -39 -54 -66 -72 -77 -77
-107 -77 -486 l0 -322 -377 5 c-440 6 -1089 23 -1183 30 -36 3 -282 7 -547 9
l-483 4 0 -184 0 -183 203 0 c111 0 231 4 267 9 36 5 239 13 453 17 354 6 387
5 387 -10 0 -9 8 -16 19 -16 10 0 45 -3 78 -6 53 -6 62 -4 80 15 18 20 24 21
42 9 12 -7 21 -18 21 -25 0 -8 15 -13 40 -13 22 0 40 5 40 11 0 8 125 10 438
7 240 -3 348 -3 240 -1 -133 2 -198 7 -198 14 0 8 -25 9 -80 4 -54 -5 -80 -4
-80 3 0 6 -17 13 -37 15 -21 3 16 3 81 1 66 -2 214 -4 329 -4 l210 0 -7 -72
c-3 -40 -10 -102 -15 -138 -18 -129 -31 -258 -41 -395 -6 -76 -15 -144 -20
-150 -4 -5 -10 -23 -12 -40 l-3 -30 -160 4 c-331 7 -366 7 -371 -1 -3 -5 -12
-4 -19 2 -11 9 -23 8 -50 -1 -29 -11 -34 -16 -28 -34 11 -29 5 -195 -8 -227
-8 -19 -8 -37 -1 -60 6 -18 9 -103 7 -190 -2 -129 0 -158 11 -158 8 0 14 9 14
21 0 12 8 23 20 26 11 3 20 9 20 14 0 5 9 9 20 9 14 0 20 7 20 21 0 16 4 19
18 14 9 -4 27 -7 40 -6 18 1 22 -4 22 -29 0 -17 5 -30 10 -30 6 0 10 -7 10
-15 0 -8 -8 -15 -19 -15 -10 0 -21 -9 -24 -21 -3 -11 -15 -23 -26 -26 -12 -3
-22 -9 -22 -14 -1 -5 -2 -13 -3 -18 -2 -19 -16 -24 -31 -11 -11 9 -18 10 -28
1 -16 -13 -27 -5 -27 21 0 17 -29 27 -31 11 0 -5 -2 -25 -4 -47 l-4 -39 49 6
c30 4 50 2 50 -4 0 -5 11 -2 25 7 13 8 29 13 34 10 6 -4 134 -7 286 -7 l275 0
0 -24 c0 -28 17 -26 -210 -30 -74 -2 -225 2 -334 8 l-200 12 -8 30 c-4 17 -6
50 -3 75 9 86 14 796 5 740 -7 -44 -21 -511 -24 -805 -1 -43 -5 -62 -16 -66
-8 -4 -399 -4 -867 -1 l-853 5 0 -21 c0 -21 5 -22 138 -25 l137 -3 -137 -2
c-129 -2 -138 -3 -138 -22 0 -16 8 -19 58 -22 54 -3 57 -4 60 -30 3 -28 3 -28
-57 -28 -54 0 -61 -2 -61 -20 0 -18 7 -20 55 -20 l55 0 0 -95 0 -95 -32 0
c-71 0 -78 -7 -78 -71 0 -48 3 -57 15 -53 8 4 15 1 15 -5 0 -6 -7 -11 -15 -11
-11 0 -15 -11 -15 -40 0 -35 3 -40 24 -40 22 0 24 -5 31 -77 4 -49 3 -79 -3
-81 -5 -1 -8 -12 -5 -22 3 -11 0 -20 -6 -20 -6 0 -11 5 -11 11 0 8 -5 8 -15
-1 -11 -9 -15 -32 -15 -81 0 -61 2 -69 19 -69 18 0 68 -48 89 -86 8 -15 13
-16 25 -6 8 7 18 23 21 36 6 23 36 45 36 26 0 -6 18 -10 40 -10 22 0 40 -4 40
-10 0 -5 8 -10 18 -10 13 0 23 13 32 40 13 40 30 54 30 25 0 -11 11 -15 37
-15 30 0 43 -7 75 -42 37 -40 39 -41 53 -22 7 10 17 36 20 57 8 42 26 48 43
15 l11 -23 0 23 c1 12 3 22 6 22 15 0 75 -72 75 -90 0 -11 5 -20 10 -20 6 0
10 6 10 14 0 8 3 16 8 18 4 2 15 20 24 41 17 36 19 37 73 37 l55 0 27 -57 c27
-58 27 -58 31 -25 2 18 15 44 30 59 25 25 34 27 122 30 52 1 87 0 78 -3 -24
-7 -26 -84 -3 -84 8 0 15 4 15 9 0 12 59 71 70 71 5 0 11 -6 13 -12 4 -10 6
-10 6 0 1 6 7 12 15 12 9 0 17 -17 21 -47 l8 -48 14 55 14 55 239 0 c132 0
240 -3 240 -6 0 -4 29 -4 64 -2 88 8 112 0 125 -39 l12 -33 19 25 c11 14 20
33 20 44 0 14 5 17 23 12 12 -3 30 -6 40 -6 9 0 17 -7 17 -15 0 -11 11 -15 40
-15 27 0 40 4 40 14 0 18 152 34 158 17 2 -6 10 -11 18 -11 8 0 14 -7 14 -15
0 -8 5 -15 10 -15 6 0 10 7 10 15 0 8 7 15 15 15 8 0 15 5 15 10 0 14 77 13
82 -1 3 -9 14 -9 42 1 28 9 80 11 185 6 80 -3 152 -6 159 -6 6 0 12 -7 12 -15
0 -15 -27 -65 -41 -75 -4 -3 -11 -19 -15 -35 -3 -17 -17 -44 -30 -62 -13 -17
-24 -39 -24 -47 0 -9 -4 -16 -10 -16 -5 0 -10 -7 -10 -16 0 -9 -6 -30 -13 -47
-22 -50 -35 -97 -48 -167 -6 -36 -18 -92 -26 -125 -28 -113 -32 -140 -48 -330
-9 -104 -20 -191 -24 -193 -5 -1 -6 -14 -3 -27 3 -17 -1 -27 -12 -31 -9 -3
-16 -15 -16 -25 0 -25 -60 -159 -71 -159 -5 0 -9 -7 -9 -15 0 -8 -4 -15 -10
-15 -38 0 -26 -109 15 -142 37 -29 47 -52 35 -82 -5 -14 -16 -26 -25 -26 -17
0 -22 -55 -6 -65 18 -11 41 -68 41 -102 0 -23 5 -33 15 -33 11 0 15 -11 15
-40 l0 -40 40 0 c33 0 40 -3 40 -20 0 -17 7 -20 40 -20 33 0 40 3 40 20 0 18
7 20 83 20 l83 0 38 39 39 39 -29 4 c-20 3 -11 6 31 12 33 4 70 12 83 19 28
13 62 66 62 96 0 24 -37 71 -57 71 -7 0 -13 9 -13 20 0 17 -7 20 -40 20 -29 0
-40 4 -40 15 0 16 -28 60 -62 100 -10 12 -26 56 -37 99 -17 67 -18 91 -10 169
11 115 76 348 100 363 5 3 9 16 9 30 0 13 4 24 8 24 10 0 52 117 52 143 0 9 5
17 10 17 6 0 10 18 10 40 0 22 4 40 10 40 5 0 15 18 21 40 7 22 16 40 21 40 4
0 8 5 8 12 0 17 81 182 92 186 4 2 8 12 8 23 0 10 3 19 8 19 7 0 25 30 38 63
3 9 12 17 19 17 7 0 15 14 19 32 3 17 13 39 21 48 8 9 21 34 28 56 l14 39 59
0 59 0 11 -46 c7 -26 19 -62 27 -80 37 -84 53 -170 106 -564 11 -82 27 -186
35 -230 34 -188 39 -237 32 -308 -15 -151 -45 -307 -60 -307 -5 0 -20 -12 -34
-28 -13 -15 -44 -48 -67 -74 -42 -45 -43 -47 -34 -89 6 -24 12 -46 15 -49 3
-3 46 -7 95 -8 68 -3 89 -7 89 -18 0 -10 12 -14 40 -14 39 0 40 -1 40 -35 0
-34 -1 -35 -40 -35 -36 0 -40 -2 -40 -25 0 -18 -5 -25 -20 -25 -18 0 -20 -7
-20 -80 0 -47 -4 -80 -10 -80 -5 0 -10 -18 -10 -40 l0 -40 159 0 158 0 7 61
c8 84 8 99 -4 99 -6 0 -27 16 -47 36 -26 26 -32 38 -23 44 9 5 11 23 8 54 -5
41 -3 49 19 66 15 11 23 26 20 34 -4 10 -1 13 7 10 22 -8 39 49 31 103 -4 26
-8 113 -9 193 -3 159 -10 210 -32 210 -8 0 -14 5 -14 10 0 6 4 10 10 10 10 0
13 16 30 160 6 52 18 142 26 200 20 145 12 481 -12 518 -10 16 -13 27 -6 31 7
4 4 26 -9 65 -10 33 -19 67 -19 76 0 10 -7 20 -15 24 -9 3 -15 18 -15 35 0 16
-4 32 -9 35 -5 4 -12 24 -16 46 -4 22 -12 40 -18 40 -7 0 -3 7 7 15 13 10 43
15 83 15 l63 0 0 40 0 41 -72 -3 c-56 -2 -73 -6 -74 -18 -1 -8 -2 -19 -3 -23
0 -5 -8 -2 -16 7 -17 16 -21 86 -5 86 6 0 10 51 10 134 0 135 18 247 44 270 6
6 33 22 59 35 35 18 54 36 69 65 35 71 44 77 113 75 34 -1 67 1 74 5 6 4 11
31 11 59 1 55 5 89 40 361 26 200 22 279 -21 451 -18 71 -63 300 -91 470 -6
33 -21 92 -34 131 -13 39 -24 78 -24 87 0 9 -4 17 -9 17 -11 0 -32 90 -25 102
8 12 188 1 192 -12 2 -5 9 -10 15 -10 19 -1 67 -47 67 -65 0 -8 5 -15 10 -15
6 0 10 -18 10 -40 0 -22 -4 -40 -10 -40 -26 0 -6 -29 30 -43 27 -10 40 -21 40
-35 0 -13 11 -22 38 -30 21 -6 47 -21 59 -32 12 -11 26 -20 30 -20 19 0 113
-66 114 -80 0 -8 19 -30 42 -48 45 -37 64 -38 187 -13 50 11 190 38 233 46 9
2 17 0 17 -4 0 -12 77 -28 99 -20 27 10 28 39 1 39 -11 0 -20 7 -20 16 0 8 -5
12 -11 9 -16 -11 -69 16 -69 35 0 11 -17 22 -54 35 -47 16 -61 17 -117 6 -35
-7 -82 -15 -104 -18 -22 -3 -43 -10 -46 -16 -8 -11 -103 -13 -137 -3 -18 6
-22 15 -22 52 0 24 -4 44 -9 44 -5 0 -12 13 -16 30 -4 16 -17 45 -31 65 -13
20 -24 42 -24 50 0 8 -6 15 -14 15 -9 0 -17 15 -21 40 -4 22 -11 40 -16 40 -5
0 -9 6 -9 14 0 19 -52 140 -62 144 -4 2 -8 21 -8 43 0 28 -4 39 -15 39 -10 0
-15 10 -15 31 0 34 -55 159 -71 159 -5 0 -9 11 -9 25 0 14 -6 25 -13 25 -7 0
-20 29 -31 70 -9 38 -22 72 -27 75 -5 4 -9 26 -9 51 0 31 -4 44 -14 44 -17 0
-22 37 -35 247 -5 83 -14 160 -20 171 -6 12 -11 32 -11 45 0 27 -44 116 -66
133 -8 6 -14 19 -14 28 0 9 -5 16 -12 16 -6 0 -4 8 6 19 18 20 16 33 -19 101
-13 25 -26 62 -30 83 -4 20 -11 37 -16 37 -5 0 -9 9 -9 19 0 18 -17 43 -62 92
-10 10 -18 25 -18 33 0 8 -3 16 -7 18 -15 6 -63 106 -82 169 -10 35 -26 101
-36 147 -10 45 -22 82 -27 82 -4 0 -8 10 -8 23 0 22 -45 127 -58 137 -4 3 -25
39 -46 80 -22 41 -42 77 -46 80 -3 3 -20 25 -37 50 -17 25 -48 60 -68 78 l-37
32 -151 0 -152 -1 -22 -35z m439 -251 c10 -9 18 -26 18 -39 0 -13 5 -26 10
-29 6 -3 10 -15 10 -25 0 -10 5 -20 11 -22 14 -5 25 -158 12 -158 -6 0 -14
-21 -18 -46 -11 -76 -24 -97 -24 -43 -1 29 -7 51 -16 59 -20 17 -19 139 1 147
15 6 19 43 5 43 -4 0 -14 21 -21 48 -7 26 -14 55 -17 65 -6 21 5 22 29 0z
m408 -1778 c5 -6 14 -50 21 -99 9 -68 10 -93 1 -107 -7 -10 -12 -26 -12 -34 0
-8 -4 -15 -10 -15 -5 0 -10 11 -10 25 0 18 -4 23 -15 19 -9 -4 -15 0 -15 9 0
9 -7 20 -16 25 -14 8 -17 27 -17 108 -1 55 5 123 13 152 l14 52 19 -62 c10
-35 23 -68 27 -73z m-1462 -192 c-4 -22 -22 -20 -26 1 -2 10 3 16 13 16 10 0
15 -7 13 -17z m1492 -124 c0 -5 -4 -9 -10 -9 -5 0 -10 7 -10 16 0 8 5 12 10 9
6 -3 10 -10 10 -16z m-2405 -9 c50 -19 23 -35 -59 -36 -59 -1 -79 3 -83 14 -3
8 0 18 8 23 19 12 102 11 134 -1z m2499 -26 c34 -17 46 -37 46 -81 0 -21 -5
-23 -55 -25 -30 -1 -63 -2 -72 -2 -20 -1 -42 38 -50 89 l-6 35 51 0 c28 0 67
-7 86 -16z m-2434 -34 c0 -5 -4 -10 -9 -10 -6 0 -13 5 -16 10 -3 6 1 10 9 10
9 0 16 -4 16 -10z m900 -882 c0 -16 -3 -19 -11 -11 -6 6 -8 16 -5 22 11 17 16
13 16 -11z m-460 -68 c0 -5 -6 -9 -12 -7 -9 1 -13 -11 -12 -40 1 -39 -1 -42
-23 -41 -12 1 -23 8 -23 15 0 7 7 10 15 7 12 -5 15 2 15 31 0 21 -4 34 -10 30
-5 -3 -10 -1 -10 4 0 6 14 11 30 11 17 0 30 -4 30 -10z m78 -78 c2 -7 -6 -12
-17 -12 -21 0 -27 11 -14 24 9 9 26 2 31 -12z m-278 -2 c0 -5 -6 -10 -14 -10
-8 0 -18 5 -21 10 -3 6 3 10 14 10 12 0 21 -4 21 -10z m90 0 c0 -5 -4 -10 -9
-10 -6 0 -13 5 -16 10 -3 6 1 10 9 10 9 0 16 -4 16 -10z m287 -6 c-3 -3 -12
-4 -19 -1 -8 3 -5 6 6 6 11 1 17 -2 13 -5z m-7 -28 c0 -2 -11 -6 -25 -8 -13
-3 -22 -1 -19 3 5 9 44 13 44 5z m-90 -50 c0 -2 3 -11 6 -20 5 -12 0 -16 -20
-16 -24 0 -35 18 -19 33 7 8 33 10 33 3z m-205 -26 c3 -5 -1 -10 -10 -10 -9 0
-13 5 -10 10 3 6 8 10 10 10 2 0 7 -4 10 -10z m105 0 c0 -5 -12 -10 -27 -9
-25 0 -26 1 -8 9 27 12 35 12 35 0z m219 -16 c2 -2 -14 -4 -37 -4 -23 0 -42 4
-42 9 0 9 69 4 79 -5z m-278 -77 c-10 -9 -11 -8 -5 6 3 10 9 15 12 12 3 -3 0
-11 -7 -18z m119 13 c11 18 43 -14 38 -38 -5 -25 -48 -29 -48 -4 0 11 -2 26
-3 34 -2 7 -2 9 1 4 2 -4 8 -3 12 4z m-260 -44 c0 -11 -19 -15 -25 -6 -3 5 1
10 9 10 9 0 16 -2 16 -4z m115 -6 c-3 -5 -12 -10 -20 -10 -8 0 -17 5 -20 10
-4 6 5 10 20 10 15 0 24 -4 20 -10z m90 0 c-3 -5 -15 -10 -26 -10 -10 0 -19 5
-19 10 0 6 12 10 26 10 14 0 23 -4 19 -10z m185 0 c0 -5 -7 -10 -15 -10 -8 0
-15 5 -15 10 0 6 7 10 15 10 8 0 15 -4 15 -10z m9 -137 c0 -10 -4 -27 -9 -38
-5 -13 -3 -26 8 -37 14 -16 13 -18 -2 -18 -39 0 -51 16 -48 64 4 41 7 46 28
46 16 0 24 -6 23 -17z m30 -51 c1 -7 -3 -10 -9 -7 -5 3 -10 18 -9 33 0 24 1
25 9 7 5 -11 9 -26 9 -33z m166 28 c0 -7 -6 -15 -12 -17 -8 -3 -13 4 -13 17 0
13 5 20 13 18 6 -3 12 -11 12 -18z m-325 -28 c0 -15 -2 -15 -10 -2 -13 20 -13
33 0 25 6 -3 10 -14 10 -23z m210 2 c0 -8 -4 -12 -10 -9 -5 3 -10 10 -10 16 0
5 5 9 10 9 6 0 10 -7 10 -16z m0 -34 c0 -5 -13 -10 -30 -10 -16 0 -30 5 -30
10 0 6 14 10 30 10 17 0 30 -4 30 -10z m-1853 -234 c9 -8 -197 -6 -219 2 -10
4 34 6 98 6 63 -1 117 -4 121 -8z m330 2 c2 -5 -34 -8 -81 -8 -53 0 -86 4 -86
10 0 13 159 10 167 -2z m-239 -5 c-16 -2 -40 -2 -55 0 -16 2 -3 4 27 4 30 0
43 -2 28 -4z m-378 -68 c0 -23 -3 -25 -49 -25 -52 0 -65 8 -55 34 4 12 20 16
55 16 46 0 49 -2 49 -25z m240 11 c0 -25 -22 -31 -108 -32 -85 -1 -96 3 -86
30 9 22 194 24 194 2z m373 -11 c3 -15 -142 -19 -159 -4 -7 6 -12 14 -10 18 6
10 166 -3 169 -14z m1107 -16 c0 -26 -3 -29 -20 -24 -11 3 -20 2 -20 -4 0 -10
-177 -20 -455 -24 l-170 -2 -3 35 c-2 21 2 38 11 45 9 6 124 9 335 7 l322 -3
0 -30z m398 1 c4 -56 -7 -64 -72 -53 -31 6 -56 7 -56 3 0 -4 -11 -7 -24 -7
-19 0 -26 6 -31 29 -9 41 8 56 68 61 106 8 112 6 115 -33z m94 35 c3 -3 1 -25
-5 -50 -9 -38 -14 -44 -34 -43 -19 2 -23 8 -23 38 0 20 5 41 12 48 12 12 41
16 50 7z m-1812 -20 c0 -12 -13 -15 -60 -15 -47 0 -60 3 -60 15 0 12 13 15 60
15 47 0 60 -3 60 -15z m458 3 c-3 -9 -33 -14 -93 -16 -93 -3 -120 1 -110 18
10 16 208 13 203 -2z m162 -33 c0 -38 -3 -45 -20 -45 -16 0 -20 7 -20 30 0 17
-3 29 -7 29 -29 -5 -62 3 -67 16 -4 12 5 15 54 15 l60 0 0 -45z m868 7 c3 -29
1 -32 -20 -28 -13 3 -42 5 -65 5 -41 1 -43 2 -43 31 l0 31 63 -3 62 -3 3 -33z
m-1030 -163 c-2 -38 -9 -74 -15 -80 -20 -20 -171 -9 -185 13 -13 21 -10 136 4
144 7 5 48 9 91 10 43 1 81 5 85 8 14 15 24 -31 20 -95z m-858 1 l0 -78 -55
-4 -55 -3 0 72 c0 97 1 99 60 95 l50 -4 0 -78z m226 24 c3 -19 3 -49 0 -66 -6
-33 -7 -33 -69 -36 -34 -1 -72 -4 -84 -6 -15 -3 -23 2 -27 17 -8 31 -7 120 2
134 11 17 112 21 144 5 19 -9 29 -24 34 -48z m766 48 c7 -7 14 -51 16 -107 4
-90 3 -95 -16 -95 -13 0 -22 9 -26 24 -8 31 -37 29 -53 -4 -12 -24 -12 -24
-13 15 -2 63 1 169 5 176 7 10 74 4 87 -9z m99 -42 c5 0 9 10 9 23 1 21 2 21
14 4 11 -14 35 -19 130 -24 109 -6 116 -5 117 13 1 18 2 18 6 1 3 -13 11 -17
23 -14 10 3 27 -1 38 -8 13 -10 60 -14 150 -16 l132 -2 0 -79 c0 -43 -3 -78
-7 -78 -5 0 -6 25 -5 55 3 35 0 55 -7 55 -6 0 -11 -19 -11 -44 l0 -44 -242 -7
c-202 -6 -284 -5 -380 4 -10 1 -10 112 -1 177 l7 49 9 -32 c6 -18 14 -33 18
-33z m1018 -70 c1 -86 -5 -116 -25 -124 -21 -8 -164 5 -164 15 0 5 39 10 88
11 l87 2 -83 3 -82 4 1 62 c3 86 9 95 60 91 46 -4 79 9 79 32 0 8 5 12 10 9 6
-3 11 2 11 12 3 43 17 -49 18 -117z m144 85 c4 -22 7 -78 5 -125 l-3 -85 -50
0 -50 0 -3 85 c-4 120 -1 130 48 130 22 0 40 5 40 10 0 6 -18 10 -40 10 -22 0
-40 5 -40 11 0 6 17 9 42 7 40 -3 43 -5 51 -43z m-1890 26 l37 -1 0 -74 0 -74
-57 -5 c-32 -2 -59 -3 -61 -2 -7 7 -14 115 -9 137 5 18 13 24 29 22 13 -1 40
-3 61 -3z m235 -5 c15 -9 16 -132 2 -141 -6 -4 -43 -7 -83 -7 l-72 -1 -3 65
c-2 46 1 70 11 79 14 15 124 18 145 5z m1722 -6 c5 9 12 4 21 -16 13 -25 23
-31 89 -45 l75 -15 0 -75 0 -74 -101 -3 -101 -3 -7 32 c-12 62 -2 241 12 200
3 -10 6 -11 12 -1z m-470 -61 c0 -6 7 -9 15 -5 11 4 15 -1 14 -17 0 -12 -3
-16 -6 -9 -2 6 -9 12 -14 12 -13 0 -11 -117 2 -126 20 -12 -7 -19 -55 -16 -57
5 -61 22 -6 22 l40 0 0 45 0 45 -42 2 -43 1 43 4 c53 5 55 23 2 23 -29 0 -40
4 -40 15 0 11 12 15 45 15 26 0 45 -5 45 -11z m768 -29 c22 0 23 -3 20 -67
l-3 -68 -41 -3 c-39 -3 -42 -1 -48 29 -15 77 -4 124 28 115 11 -3 31 -6 44 -6z
m-738 -60 c0 -22 -4 -40 -10 -40 -5 0 -10 18 -10 40 0 22 5 40 10 40 6 0 10
-18 10 -40z m807 -72 c-3 -22 -4 -21 -11 4 -5 16 -5 36 0 45 7 16 8 15 11 -4
3 -13 3 -33 0 -45z m-1017 2 c-9 -6 -125 -9 -285 -8 -148 0 -250 4 -225 8 72
11 527 11 510 0z m1523 -237 c5 -102 5 -103 -18 -103 -20 0 -22 4 -19 43 2 23
7 83 10 132 8 111 19 81 27 -72z m-2350 37 c-1 -57 -5 -110 -7 -117 -6 -14
-116 -19 -117 -5 -6 90 -7 174 -2 200 l6 34 61 -4 61 -4 -2 -104z m-243 27 c0
-51 -3 -64 -20 -75 -14 -8 -20 -23 -20 -47 0 -34 -1 -35 -39 -35 -32 0 -40 4
-45 23 -9 33 -7 170 3 185 5 9 23 13 49 11 23 -2 44 0 48 4 16 15 24 -8 24
-66z m797 -24 c-6 -52 -15 -93 -21 -94 -16 -1 26 -17 47 -18 15 -1 17 9 17 79
l0 80 44 0 c92 0 156 -41 156 -101 0 -21 -5 -41 -10 -44 -16 -10 -1 -25 26
-25 21 0 24 5 24 34 0 62 13 156 21 156 5 0 9 -42 9 -94 l0 -95 -57 -11 c-40
-9 -126 -11 -283 -6 -124 3 -249 6 -277 6 l-53 0 0 96 0 96 40 -4 c22 -2 41 1
43 7 2 5 7 -26 12 -70 5 -55 4 -80 -4 -83 -6 -2 -11 -10 -11 -18 0 -10 12 -14
40 -14 l40 0 0 95 0 95 95 0 c77 0 97 3 102 15 11 30 11 10 0 -82z m1107 4
c10 -133 8 -137 -89 -142 -89 -5 -115 0 -115 20 0 10 9 12 33 9 17 -3 59 -1
92 4 56 9 57 10 18 11 l-43 1 0 54 c0 33 -5 56 -12 58 -9 3 -9 12 1 36 11 26
19 31 54 35 23 2 45 4 48 5 4 1 9 -40 13 -91z m220 71 c8 -30 8 -137 0 -177
-5 -25 -11 -31 -28 -29 -19 3 -21 10 -24 93 -3 108 2 135 27 135 11 0 21 -9
25 -22z m-2345 -2 c10 -7 12 -24 7 -75 -13 -130 -11 -126 -67 -127 l-49 -2 0
93 c0 52 2 99 5 107 6 15 81 18 104 4z m607 -6 c11 0 14 -17 14 -77 0 -85 -11
-116 -32 -95 -9 9 -9 12 4 12 11 0 15 6 11 21 -4 16 -8 17 -14 7 -5 -7 -8 22
-8 72 0 47 3 79 6 73 2 -7 11 -13 19 -13z m1100 5 c12 -11 13 -33 8 -110 l-7
-95 -83 0 -84 0 0 100 0 100 40 0 c34 0 40 -3 40 -21 0 -18 2 -19 15 -9 8 7
15 18 15 25 0 8 8 16 18 18 9 3 18 5 20 6 2 0 10 -6 18 -14z m158 -1 c10 -27
7 -152 -5 -159 -7 -5 -4 -14 7 -26 17 -18 15 -19 -40 -19 -39 0 -55 3 -50 11
3 6 6 56 5 110 l-2 99 39 0 c27 0 42 -5 46 -16z m102 -43 c4 -7 2 -22 -4 -32
-7 -10 -9 -25 -6 -32 3 -8 -3 -23 -13 -33 -17 -17 -18 -15 -21 46 -2 36 0 75
3 89 l6 25 14 -25 c8 -13 17 -30 21 -38z m237 52 c4 -3 2 -12 -4 -19 -6 -8 -8
-22 -4 -31 11 -25 5 -117 -7 -124 -6 -4 8 -10 31 -14 55 -9 52 -25 -4 -25
l-45 0 0 103 c0 57 3 107 7 110 8 9 18 9 26 0z m-2450 -20 c13 -8 7 -31 -10
-37 -37 -15 -100 24 -76 47 6 7 69 -1 86 -10z m1037 -28 c0 -25 -4 -45 -10
-45 -11 0 -14 73 -3 83 11 12 13 8 13 -38z m-493 -27 c-2 -13 -4 -3 -4 22 0
25 2 35 4 23 2 -13 2 -33 0 -45z m1173 22 c0 -22 5 -40 10 -40 6 0 10 -27 10
-60 l0 -60 -55 0 c-30 0 -55 3 -56 8 0 4 -2 16 -5 27 -2 11 -1 53 2 93 l6 72
44 0 44 0 0 -40z m790 -40 c0 -44 -4 -80 -9 -80 -12 0 -19 110 -8 117 5 3 7
14 4 24 -3 11 -1 19 4 19 5 0 9 -36 9 -80z m-2514 -57 l1 -73 -31 5 c-17 2
-37 4 -43 4 -17 1 -17 83 -1 99 10 10 10 15 -1 22 -11 6 -7 9 15 13 58 9 59 7
60 -70z m821 35 c-3 -8 -6 -5 -6 6 -1 11 2 17 5 13 3 -3 4 -12 1 -19z m-349
-70 c-2 -6 -10 -14 -16 -16 -7 -2 -10 2 -6 12 7 18 28 22 22 4z"/>
<path d="M4738 2743 c12 -2 32 -2 45 0 12 2 2 4 -23 4 -25 0 -35 -2 -22 -4z"/>
<path d="M5453 2633 c9 -2 23 -2 30 0 6 3 -1 5 -18 5 -16 0 -22 -2 -12 -5z"/>
<path d="M3600 2358 c-3 -26 -1 -43 3 -39 5 5 7 26 5 47 l-3 39 -5 -47z"/>
<path d="M3363 2360 c0 -25 2 -35 4 -22 2 12 2 32 0 45 -2 12 -4 2 -4 -23z"/>
<path d="M3011 6963 c-1 -47 3 -75 12 -80 6 -4 18 -20 26 -35 8 -16 38 -53 68
-84 29 -31 53 -61 53 -66 0 -5 -19 -8 -42 -6 -41 3 -43 2 -41 -23 l1 -27 -24
25 c-28 28 -31 43 -8 43 9 0 14 7 12 17 -4 22 -28 29 -28 9 0 -9 -7 -16 -15
-16 -23 0 -21 -132 2 -151 9 -8 18 -13 20 -11 2 1 22 -19 44 -45 88 -104 98
-113 125 -113 25 0 26 2 20 33 -3 17 -14 37 -23 44 -18 14 -21 45 -10 113 3
25 3 34 -1 20 -7 -22 -9 -23 -15 -7 -11 30 -8 37 18 37 14 0 29 -8 35 -20 6
-11 17 -20 25 -20 9 0 15 -10 15 -25 0 -22 4 -25 34 -25 88 0 89 36 4 128 -34
37 -67 73 -73 80 -5 7 -18 22 -27 33 -10 10 -18 22 -18 25 0 10 -58 64 -69 64
-6 0 -11 6 -11 13 0 6 -19 33 -43 58 -23 25 -47 54 -54 65 -10 16 -12 7 -12
-53z m129 -335 c0 -7 -5 -20 -10 -28 -8 -12 -10 -9 -10 13 0 15 5 27 10 27 6
0 10 -6 10 -12z"/>
<path d="M5760 6972 c0 -16 72 -32 92 -21 10 5 16 14 13 20 -8 11 -105 12
-105 1z"/>
<path d="M8584 6925 c-16 -13 -17 -16 -4 -24 17 -11 89 -4 105 11 28 25 -68
38 -101 13z"/>
<path d="M3032 6805 c-9 -11 -10 -20 -3 -33 9 -15 10 -15 11 6 0 12 5 22 10
22 6 0 10 5 10 10 0 14 -13 12 -28 -5z"/>
<path d="M3060 6490 c0 -5 5 -10 11 -10 5 0 7 5 4 10 -3 6 -8 10 -11 10 -2 0
-4 -4 -4 -10z"/>
<path d="M7200 5840 c0 -11 4 -20 9 -20 13 0 32 26 24 33 -13 14 -33 6 -33
-13z"/>
<path d="M9333 4963 c31 -2 83 -2 115 0 31 2 5 3 -58 3 -63 0 -89 -1 -57 -3z"/>
<path d="M7520 4850 l0 -60 278 0 c152 -1 311 -3 352 -5 41 -2 307 -6 590 -10
283 -3 570 -8 638 -11 l122 -7 0 51 0 50 -77 7 c-43 3 -343 8 -667 11 -479 4
-591 3 -597 -8 -7 -10 -9 -10 -9 0 0 22 -30 13 -31 -10 l0 -23 -16 23 c-15 22
-18 22 -259 22 -210 0 -244 2 -244 15 0 11 -11 15 -40 15 l-40 0 0 -60z m1743
3 c-13 -2 -33 -2 -45 0 -13 2 -3 4 22 4 25 0 35 -2 23 -4z"/>
<path d="M8192 4623 l3 -48 164 0 164 0 2 40 c1 22 -3 43 -9 47 -6 4 -82 8
-169 8 l-158 0 3 -47z"/>
<path d="M9368 4605 l4 -45 64 0 64 0 0 45 0 45 -68 0 -67 0 3 -45z"/>
<path d="M9360 4360 c0 -6 30 -10 70 -10 40 0 70 4 70 10 0 6 -30 10 -70 10
-40 0 -70 -4 -70 -10z"/>
<path d="M3028 4309 c-17 -9 -18 -47 -18 -559 l0 -550 573 -1 c314 -1 628 -2
697 -3 69 -1 106 0 83 2 -55 4 -56 22 -2 22 32 0 47 6 71 30 16 17 36 30 43
30 9 0 12 6 8 16 -5 13 -18 15 -84 9 -53 -5 -79 -4 -79 3 0 6 17 13 38 15 23
3 19 3 -11 2 -54 -2 -75 11 -73 47 1 23 1 23 136 20 74 -1 154 -5 178 -8 33
-4 43 -2 48 11 4 9 3 19 -1 23 -3 4 -59 10 -123 13 l-117 5 106 2 c84 2 108 5
113 17 10 27 -31 35 -179 35 l-146 0 6 323 c4 210 3 327 -4 337 -10 15 -107
28 -211 29 l-55 1 0 57 0 58 -34 -2 c-33 -1 -76 -37 -65 -54 20 -32 -80 -66
-159 -55 -23 4 -160 6 -304 6 -171 -1 -270 3 -283 10 -13 7 -26 7 -37 2 -9 -5
-24 -7 -34 -5 -16 5 -19 15 -19 64 0 55 -2 59 -22 59 -13 0 -31 -5 -40 -11z
m1231 -183 c8 -9 10 -92 6 -292 -4 -154 -8 -294 -11 -311 l-5 -33 -125 0 -126
0 6 28 c3 15 8 158 12 317 3 160 8 293 11 298 2 4 53 7 112 7 80 0 112 -4 120
-14z m-1009 -25 c0 -11 -59 -20 -65 -11 -3 4 -2 10 2 14 10 9 63 7 63 -3z
m205 -6 c0 -5 -21 -11 -47 -13 -39 -3 -48 0 -48 13 0 13 9 16 48 13 26 -2 47
-7 47 -13z m225 0 c0 -12 -14 -15 -65 -15 -60 0 -75 6 -58 23 3 4 33 7 65 7
45 0 58 -3 58 -15z m160 0 c0 -16 -16 -20 -65 -16 -37 3 -44 9 -25 21 25 16
90 12 90 -5z m123 -106 c-5 -18 -23 -27 -23 -11 1 25 14 52 20 42 4 -7 5 -21
3 -31z m3 -305 c-3 -98 -9 -161 -16 -168 -7 -7 -58 -11 -143 -11 -76 0 -113 2
-87 6 25 3 34 7 20 8 -25 2 -25 2 -5 17 18 13 20 13 23 0 7 -35 67 -2 85 47 3
9 14 17 23 17 12 0 15 6 11 21 -4 13 0 22 11 26 30 10 63 56 61 83 -3 27 10
110 17 110 2 0 2 -70 0 -156z m-606 -44 c0 -5 -5 -10 -11 -10 -5 0 -7 5 -4 10
3 6 8 10 11 10 2 0 4 -4 4 -10z"/>
<path d="M4825 3984 l-30 -15 34 6 c18 3 37 5 42 5 5 0 9 5 9 10 0 14 -19 11
-55 -6z"/>
<path d="M4960 3989 c0 -5 5 -7 10 -4 6 3 10 8 10 11 0 2 -4 4 -10 4 -5 0 -10
-5 -10 -11z"/>
<path d="M5000 3990 c0 -5 7 -10 15 -10 8 0 15 5 15 10 0 6 -7 10 -15 10 -8 0
-15 -4 -15 -10z"/>
<path d="M5054 3989 c-11 -4 18 -8 66 -8 93 1 97 5 9 11 -31 3 -64 1 -75 -3z"/>
<path d="M8263 3763 c-8 -19 -9 -159 -6 -718 1 -214 -2 -412 -6 -440 -8 -50
-8 -50 -10 24 -2 128 -47 161 -222 161 -162 0 -169 -10 -181 -270 -11 -239
-12 -244 -68 -250 -38 -4 -45 -9 -51 -33 -4 -16 -6 -34 -3 -41 6 -15 90 -23
352 -33 168 -6 172 -7 172 -28 0 -20 8 -22 160 -40 88 -10 160 -22 160 -27 0
-4 18 -8 40 -8 22 0 40 5 40 10 0 6 18 10 40 10 27 0 40 4 40 13 0 11 29 15
117 20 66 4 119 11 121 17 2 5 21 10 43 10 21 0 40 3 40 8 13 75 13 19 5 607
-4 328 -3 515 3 505 9 -12 11 -12 17 3 3 9 12 17 20 17 11 0 14 -29 14 -155 0
-95 -4 -164 -12 -180 -9 -20 -8 -31 3 -52 10 -22 14 -102 16 -363 2 -210 7
-336 13 -338 6 -2 10 -8 10 -13 0 -6 -4 -7 -10 -4 -5 3 -10 1 -10 -4 0 -6 19
-11 43 -11 23 0 85 -3 137 -6 52 -3 121 -2 153 1 l57 7 0 104 c0 57 -2 104 -5
104 -2 0 -14 -4 -27 -9 -13 -5 -42 -14 -65 -20 -40 -11 -43 -14 -43 -46 l0
-35 -78 0 c-68 0 -79 3 -90 21 -10 15 -11 24 -3 32 15 15 15 647 1 647 -6 0
-10 33 -10 80 0 47 4 80 10 80 6 0 10 18 10 40 0 22 -4 40 -10 40 -6 0 -10
101 -10 284 l0 284 -22 6 c-13 3 -218 6 -456 6 -399 0 -433 -1 -439 -17z m687
-732 c0 -17 -18 -21 -24 -6 -3 9 0 15 9 15 8 0 15 -4 15 -9z m-640 -235 c0 -3
-4 -8 -10 -11 -5 -3 -10 -1 -10 4 0 6 5 11 10 11 6 0 10 -2 10 -4z m867 -218
c-2 -13 -4 -3 -4 22 0 25 2 35 4 23 2 -13 2 -33 0 -45z m-1288 -183 l2 -125
-27 0 c-22 0 -25 3 -21 23 3 12 9 68 13 125 5 72 11 102 19 102 10 0 13 -32
14 -125z m316 -20 l-5 -95 -144 -3 -145 -2 3 35 c2 19 4 50 5 68 1 27 5 32 24
31 18 -1 19 -2 3 -6 -16 -4 -13 -10 20 -44 38 -39 39 -39 116 -39 l78 0 0 45
c0 39 -3 45 -25 51 -14 3 -25 9 -25 13 0 6 74 38 92 40 4 1 5 -42 3 -94z"/>
<path d="M8000 2300 c0 -11 43 -12 115 0 47 7 45 7 -32 9 -50 0 -83 -3 -83 -9z"/>
<path d="M7956 3218 c-3 -7 -4 -42 -3 -78 l2 -65 68 -3 68 -3 -3 78 -3 78 -63
3 c-44 2 -63 -1 -66 -10z m124 -58 c0 -5 -25 -10 -55 -10 -30 0 -55 5 -55 10
0 6 25 10 55 10 30 0 55 -4 55 -10z"/>
<path d="M7899 3180 c-4 -42 -1 -64 9 -68 8 -2 12 10 12 37 0 23 -4 41 -10 41
-5 0 -10 -4 -11 -10z"/>
<path d="M3010 3160 c0 -20 7 -20 455 -20 261 0 455 4 455 9 0 10 -192 18
-617 26 -288 5 -293 4 -293 -15z"/>
<path d="M7613 3000 c0 -25 2 -35 4 -22 2 12 2 32 0 45 -2 12 -4 2 -4 -23z"/>
<path d="M7635 2931 c-3 -5 -1 -12 5 -16 5 -3 10 1 10 9 0 18 -6 21 -15 7z"/>
<path d="M9354 2450 c-14 -14 -4 -90 12 -97 19 -7 86 25 79 38 -4 5 1 9 11 9
13 0 14 3 5 14 -9 11 -7 15 11 21 20 6 18 8 -17 15 -55 12 -89 12 -101 0z"/>
<path d="M7140 2221 c-122 -11 -12 -21 240 -21 229 0 300 5 300 19 0 9 -451
10 -540 2z"/>
<path d="M9070 2215 c0 -8 5 -15 10 -15 6 0 10 7 10 15 0 8 -4 15 -10 15 -5 0
-10 -7 -10 -15z"/>
<path d="M8930 969 c-8 -15 -10 -121 -4 -375 l7 -354 283 0 284 0 0 90 c0 63
-4 91 -13 97 -34 21 -47 58 -47 136 0 74 2 80 30 109 18 17 30 40 30 55 0 25
-1 25 -19 9 -19 -17 -19 -16 -14 22 3 24 0 49 -9 66 -14 26 -16 27 -31 11 -23
-22 -21 -35 4 -35 19 0 20 -4 15 -35 -4 -19 -2 -45 4 -57 11 -22 10 -22 -4 -4
-9 11 -16 31 -16 44 0 18 -4 23 -16 18 -11 -4 -18 1 -21 14 -3 11 -9 20 -14
20 -5 0 -9 10 -9 23 0 24 10 23 -152 27 -94 2 -133 13 -65 17 17 1 53 5 80 9
47 6 47 6 47 45 l0 38 113 4 c111 3 111 3 -43 7 l-155 4 155 6 c135 5 119 6
-127 8 -277 2 -283 2 -293 -19z m22 -254 c3 -138 2 -200 -2 -145 -8 99 -13
396 -6 389 2 -2 5 -112 8 -244z m374 113 c27 -9 37 -21 49 -57 19 -57 20 -131
1 -131 -7 0 -16 -8 -19 -19 -6 -25 -58 -49 -95 -43 -38 5 -85 -5 -77 -17 8
-14 9 -114 1 -139 -8 -26 -31 -29 -40 -6 -8 21 -8 409 1 417 11 12 145 8 179
-5z"/>
<path d="M9190 710 l0 -90 39 0 c63 0 89 14 100 55 12 45 7 76 -16 92 -10 7
-23 17 -30 23 -7 5 -30 10 -53 10 l-40 0 0 -90z"/>
<path d="M9328 873 c6 -2 18 -2 25 0 6 3 1 5 -13 5 -14 0 -19 -2 -12 -5z"/>
<path d="M9370 870 c0 -5 5 -10 10 -10 6 0 10 5 10 10 0 6 -4 10 -10 10 -5 0
-10 -4 -10 -10z"/>
<path d="M9460 874 c0 -9 31 -37 36 -32 9 9 -8 38 -22 38 -8 0 -14 -3 -14 -6z"/>
<path d="M9218 863 c12 -2 32 -2 45 0 12 2 2 4 -23 4 -25 0 -35 -2 -22 -4z"/>
<path d="M9487 603 c-11 -10 -8 -71 3 -78 6 -4 10 12 10 39 0 47 -2 51 -13 39z"/>
<path d="M5760 106 c0 -24 -3 -26 -40 -26 l-40 0 0 -40 0 -40 160 0 160 0 0
40 0 40 -40 0 c-33 0 -40 3 -40 20 0 13 -7 20 -19 20 -10 0 -46 3 -80 6 -61 7
-61 7 -61 -20z"/>
</g>
</svg>
