<?xml version="1.0" standalone="no"?>
<!DOCTYPE svg PUBLIC "-//W3C//DTD SVG 20010904//EN"
 "http://www.w3.org/TR/2001/REC-SVG-20010904/DTD/svg10.dtd">
<svg version="1.0" xmlns="http://www.w3.org/2000/svg"
 width="1280.000000pt" height="720.000000pt" viewBox="0 0 1280.000000 720.000000"
 preserveAspectRatio="xMidYMid meet">
<metadata>
Created by potrace 1.16, written by Peter Selinger 2001-2019
</metadata>
<g transform="translate(0.000000,720.000000) scale(0.100000,-0.100000)"
fill="#000000" stroke="none">
<path d="M6232 7145 c-23 -17 -72 -107 -72 -132 0 -7 -7 -21 -16 -30 -53 -59
-114 -204 -140 -333 -3 -14 -9 -34 -14 -45 -13 -29 -37 -153 -56 -279 -8 -59
-19 -115 -24 -125 -5 -9 -19 -40 -31 -68 -12 -29 -25 -53 -30 -53 -5 0 -9 -8
-9 -17 0 -9 -9 -36 -20 -60 -36 -78 -56 -127 -75 -182 -10 -30 -27 -63 -37
-73 -17 -17 -43 -68 -77 -153 -7 -16 -19 -124 -26 -240 -8 -124 -21 -236 -31
-271 -9 -32 -20 -88 -25 -124 -9 -75 -27 -148 -59 -240 -36 -104 -55 -230 -74
-490 -22 -286 -23 -291 -45 -342 -11 -27 -34 -62 -52 -79 -39 -38 -31 -48 20
-24 39 17 61 14 61 -9 0 -10 -61 -30 -160 -52 -29 -7 -76 -74 -103 -149 -11
-30 -19 -83 -20 -132 l-2 -83 110 -1 c60 -1 116 0 124 1 8 1 17 -4 21 -10 7
-12 60 107 60 135 0 7 -9 20 -20 28 -18 12 -18 15 -5 20 8 4 15 1 16 -6 1 -17
17 24 18 46 1 11 -7 17 -21 18 l-23 1 22 6 c12 4 31 19 43 35 12 15 30 27 41
27 12 0 20 9 24 28 3 15 12 56 20 92 7 36 17 88 20 115 4 28 10 57 15 64 13
22 32 2 26 -27 -3 -15 -8 -52 -12 -82 -3 -30 -10 -62 -14 -71 -5 -8 -12 -51
-15 -95 -3 -43 -11 -99 -16 -124 -5 -25 -11 -153 -12 -285 -2 -132 -9 -291
-16 -353 -9 -84 -9 -117 -1 -127 6 -7 46 -21 88 -30 109 -24 117 -29 130 -83
6 -26 25 -99 42 -162 17 -63 33 -144 36 -180 10 -131 68 -482 94 -566 6 -17
10 -45 10 -62 0 -18 4 -32 9 -32 5 0 12 -16 15 -35 4 -19 13 -47 21 -62 8 -15
15 -35 15 -45 0 -9 3 -18 8 -20 4 -2 17 -34 28 -73 22 -70 67 -203 83 -240 5
-11 16 -40 26 -65 9 -25 21 -53 26 -62 5 -10 9 -25 9 -33 0 -9 9 -34 19 -55
16 -34 28 -78 46 -166 3 -14 -8 -37 -30 -65 -19 -24 -35 -52 -35 -61 0 -10 -5
-18 -12 -18 -6 0 -25 -11 -42 -24 -17 -12 -46 -31 -65 -41 -19 -9 -43 -26 -54
-36 -16 -14 -36 -19 -84 -19 -35 0 -63 -4 -63 -8 0 -5 -18 -17 -40 -27 -22
-10 -40 -24 -40 -31 0 -7 -5 -14 -12 -16 -13 -5 -16 -64 -4 -75 12 -12 374 -7
445 7 35 6 80 22 100 36 20 13 42 24 51 24 8 0 29 9 45 20 17 11 48 29 70 39
22 11 59 37 83 59 39 36 42 42 42 92 0 54 -17 120 -32 120 -4 0 -10 17 -14 37
-4 21 -10 43 -14 48 -13 18 -70 311 -120 615 -16 103 -49 240 -61 256 -5 6
-16 44 -25 85 -25 116 -31 140 -48 199 -9 30 -17 84 -17 120 -1 36 -7 83 -14
105 -11 36 -21 305 -16 459 l1 49 168 -6 c191 -7 227 -16 237 -61 11 -55 24
-278 25 -413 0 -96 3 -132 13 -136 9 -3 12 -71 12 -293 1 -268 10 -410 35
-553 6 -30 10 -91 10 -135 1 -45 7 -117 15 -161 11 -61 13 -124 8 -265 -8
-234 -17 -221 144 -213 82 4 121 10 128 20 7 9 45 14 130 17 126 5 222 25 241
51 6 8 15 15 21 15 12 0 63 53 63 66 0 14 -33 40 -60 47 -12 3 -58 1 -101 -6
-70 -10 -85 -9 -134 8 -30 10 -55 24 -55 32 0 7 -8 13 -18 13 -19 0 -63 41
-79 75 -19 38 -24 95 -14 177 40 330 59 624 40 613 -5 -4 -9 -1 -9 4 0 6 6 11
14 11 9 0 15 18 19 57 8 72 -11 337 -23 341 -11 4 -14 504 -4 589 8 62 15 66
147 83 69 10 87 16 88 29 3 41 -3 94 -21 191 -18 98 -29 178 -65 470 -8 63
-17 162 -20 220 -4 58 -15 166 -26 240 -11 74 -24 167 -29 205 -5 39 -14 97
-19 130 -6 33 -15 92 -20 130 -6 39 -17 106 -25 150 -25 133 -35 239 -47 486
-8 174 -8 242 0 257 6 11 11 39 11 62 0 53 11 73 57 101 21 13 44 29 51 36 27
26 107 4 177 -49 169 -128 233 -179 249 -197 11 -11 25 -21 31 -21 7 0 15 -7
19 -15 3 -8 12 -15 21 -15 9 0 38 -18 66 -40 28 -22 54 -40 57 -40 13 0 30
-56 36 -118 3 -35 13 -79 22 -98 9 -19 14 -40 11 -47 -3 -7 6 -23 18 -35 13
-13 26 -37 30 -55 17 -91 27 -136 37 -172 5 -22 11 -61 13 -86 2 -44 1 -47
-39 -71 -23 -14 -60 -28 -81 -32 -56 -11 -115 -30 -115 -37 0 -4 -23 -9 -51
-13 -49 -7 -129 -47 -129 -65 0 -25 85 -28 111 -5 13 11 27 14 46 9 27 -6 27
-7 8 -21 -11 -7 -30 -22 -41 -32 -12 -10 -47 -24 -78 -31 -96 -21 -55 -32 102
-27 160 6 185 10 221 38 13 10 30 18 37 18 8 0 14 5 14 10 0 6 7 10 15 10 8 0
15 3 15 8 0 4 10 12 23 17 12 6 23 20 25 32 2 13 12 29 23 37 20 13 20 26 22
325 1 220 -1 314 -9 319 -11 7 -16 25 -33 122 -8 46 -52 144 -71 155 -5 3 -10
12 -10 20 0 13 -139 155 -152 155 -5 0 -8 7 -8 15 0 8 -8 15 -17 15 -22 0 -63
42 -63 64 0 9 -7 16 -17 16 -9 0 -30 10 -47 23 -17 13 -39 26 -48 30 -10 3
-18 11 -18 17 0 5 -8 10 -18 10 -20 0 -139 114 -148 142 -3 10 -10 18 -15 18
-8 0 -38 29 -75 73 -6 8 -15 23 -18 34 -8 24 -72 53 -118 53 -38 0 -57 24 -52
65 4 25 -1 34 -30 55 -20 14 -36 32 -36 41 0 9 -7 22 -15 29 -8 7 -15 18 -15
26 0 7 -6 17 -12 21 -17 10 -38 49 -38 67 0 8 -4 16 -8 18 -23 9 -92 235 -108
352 -4 25 -11 46 -15 46 -5 0 -9 9 -9 20 0 31 -48 140 -62 140 -5 0 -8 7 -8
16 0 15 -65 133 -79 144 -3 3 -12 16 -20 30 -28 51 -96 126 -131 144 -52 27
-256 35 -288 11z m422 -325 c41 -92 52 -158 38 -228 -7 -32 -12 -70 -12 -85 0
-15 -4 -27 -8 -27 -5 0 -14 -10 -20 -22 -8 -18 -9 -8 -5 45 5 60 4 67 -11 61
-14 -5 -16 3 -16 62 0 46 5 73 15 84 14 15 13 21 -4 61 -10 24 -22 59 -26 77
-12 56 19 38 49 -28z m-784 -1904 c0 -66 -10 -106 -28 -106 -12 0 -14 11 -8
67 4 36 9 70 12 75 13 21 24 4 24 -36z"/>
<path d="M8586 6921 c-4 -7 -5 -15 -2 -18 9 -9 19 4 14 18 -4 11 -6 11 -12 0z"/>
</g>
</svg>
