<?xml version="1.0" standalone="no"?>
<!DOCTYPE svg PUBLIC "-//W3C//DTD SVG 20010904//EN"
 "http://www.w3.org/TR/2001/REC-SVG-20010904/DTD/svg10.dtd">
<svg version="1.0" xmlns="http://www.w3.org/2000/svg"
 width="1280.000000pt" height="720.000000pt" viewBox="0 0 1280.000000 720.000000"
 preserveAspectRatio="xMidYMid meet">
<metadata>
Created by potrace 1.16, written by Peter Selinger 2001-2019
</metadata>
<g transform="translate(0.000000,720.000000) scale(0.100000,-0.100000)"
fill="#000000" stroke="none">
<path d="M6267 7049 c-65 -9 -106 -44 -107 -90 0 -27 -21 -79 -32 -79 -9 0
-48 -69 -48 -86 0 -8 -5 -14 -11 -14 -18 0 -39 -67 -56 -183 -9 -61 -19 -114
-23 -117 -9 -7 -45 -157 -60 -250 -6 -41 -16 -83 -22 -94 -5 -10 -16 -44 -24
-74 -8 -31 -21 -63 -27 -72 -7 -8 -18 -26 -24 -40 -61 -137 -87 -190 -95 -190
-4 0 -8 -6 -8 -13 0 -25 -25 -67 -40 -68 -8 0 -4 -5 10 -10 13 -6 26 -12 28
-14 5 -5 -18 -46 -35 -63 -7 -7 -13 -27 -13 -43 0 -16 -4 -29 -8 -29 -14 0
-31 -113 -35 -240 -3 -72 -12 -158 -23 -202 l-18 -78 -38 0 c-31 0 -38 4 -38
20 0 19 -10 19 -327 24 -181 2 -508 9 -728 15 -397 10 -1287 30 -1397 31 l-58
0 0 -185 0 -185 203 0 c111 0 231 4 267 9 36 5 239 13 453 17 339 6 387 5 387
-8 0 -11 17 -17 61 -22 90 -9 96 -8 118 15 17 19 21 19 43 6 33 -22 578 -30
578 -9 0 11 -15 13 -80 7 -65 -6 -80 -4 -80 7 0 11 47 13 278 10 152 -2 279
-6 281 -8 11 -11 -16 -15 -125 -22 l-119 -7 90 -5 c50 -3 93 -1 96 3 4 5 15 7
25 5 21 -4 43 -65 28 -76 -5 -4 -18 -23 -28 -42 -11 -19 -26 -41 -33 -48 -7
-7 -13 -27 -13 -43 0 -16 -4 -29 -10 -29 -5 0 -10 -9 -10 -19 0 -11 -4 -22 -9
-26 -5 -3 -15 -30 -21 -60 -6 -30 -16 -55 -21 -55 -5 0 -9 -9 -9 -19 0 -11
-11 -51 -25 -89 -14 -38 -25 -81 -25 -96 0 -15 -7 -29 -15 -32 -10 -4 -15 -20
-15 -44 0 -30 -4 -39 -21 -43 -17 -5 -19 -9 -9 -26 6 -12 8 -25 5 -30 -3 -5
-92 -9 -197 -9 -106 0 -205 -3 -220 -7 -23 -6 -25 -10 -18 -35 10 -36 3 -186
-11 -222 -8 -18 -8 -37 -1 -60 6 -18 9 -102 8 -190 -2 -127 0 -158 11 -158 7
0 13 9 13 20 0 13 10 24 25 30 14 5 37 22 51 37 24 26 27 26 38 11 9 -12 16
-14 23 -7 15 15 36 1 29 -18 -3 -8 -1 -23 5 -34 9 -17 7 -21 -9 -26 -11 -2
-25 -16 -31 -29 -6 -13 -17 -24 -26 -24 -8 0 -16 -4 -16 -10 -1 -5 -2 -14 -3
-19 -2 -19 -16 -24 -31 -11 -11 9 -18 10 -28 1 -16 -13 -27 -5 -27 21 0 17
-29 27 -31 11 0 -5 -2 -25 -4 -47 l-4 -39 49 6 c33 4 50 2 50 -5 0 -7 5 -6 15
2 14 12 285 21 285 10 0 -3 67 -4 150 -2 l150 3 0 -24 c0 -21 -6 -25 -46 -31
-68 -9 -334 -7 -334 2 0 5 -75 9 -166 9 -112 1 -170 5 -177 12 -8 8 -11 55
-10 149 10 580 11 741 2 602 -4 -80 -10 -242 -13 -360 -7 -307 -14 -413 -28
-421 -7 -4 -396 -5 -865 -2 l-853 6 0 -21 c0 -21 5 -22 138 -25 l137 -3 -137
-2 c-129 -2 -138 -3 -138 -22 0 -16 8 -19 58 -22 54 -3 57 -4 60 -30 3 -28 3
-28 -57 -28 -54 0 -61 -2 -61 -20 0 -18 7 -20 55 -20 l55 0 0 -95 0 -95 -32 0
c-71 0 -78 -7 -78 -71 0 -48 3 -57 15 -53 8 4 15 1 15 -5 0 -6 -7 -11 -15 -11
-11 0 -15 -11 -15 -40 0 -35 3 -40 24 -40 22 0 24 -5 31 -77 4 -49 3 -79 -3
-81 -5 -1 -8 -12 -5 -22 3 -11 0 -20 -6 -20 -6 0 -11 5 -11 11 0 8 -5 8 -15
-1 -11 -9 -15 -32 -15 -81 0 -61 2 -69 19 -69 18 0 66 -46 90 -87 10 -17 12
-17 28 3 10 12 23 28 28 36 13 19 105 13 105 -7 0 -29 38 -2 50 36 13 39 30
53 30 24 0 -11 11 -15 35 -15 37 0 59 -15 88 -63 10 -15 21 -27 26 -27 5 0 17
27 27 60 19 63 28 71 50 43 13 -17 15 -17 28 0 19 25 33 21 40 -11 9 -35 29
-82 36 -82 3 0 16 25 29 55 l24 55 61 0 62 0 18 -50 c21 -58 36 -73 36 -35 0
30 43 78 79 90 13 4 47 4 77 0 l54 -6 0 -40 c0 -28 4 -39 15 -39 8 0 15 5 15
11 0 13 55 69 68 69 6 0 13 -6 15 -12 4 -10 6 -10 6 0 1 6 7 12 15 12 9 0 16
-17 21 -47 l8 -48 13 48 c7 27 14 50 16 52 2 2 118 4 258 4 140 0 278 0 305 1
74 1 92 -6 105 -42 l11 -33 20 24 c10 13 19 30 19 38 0 13 10 15 50 11 39 -4
54 -11 71 -32 27 -34 39 -33 39 3 0 28 0 29 77 36 54 5 78 4 81 -4 2 -6 10
-11 18 -11 8 0 14 -7 14 -15 0 -8 5 -15 10 -15 6 0 10 7 10 15 0 8 7 15 15 15
8 0 15 4 15 8 0 13 313 13 321 0 5 -8 20 -8 53 1 26 6 51 9 55 7 10 -7 -9 -96
-21 -96 -4 0 -8 -7 -8 -15 0 -14 -18 -53 -30 -65 -12 -11 -50 -117 -50 -138 0
-12 -4 -22 -8 -22 -5 0 -17 -46 -27 -103 -16 -86 -19 -161 -20 -487 -1 -265
-5 -394 -13 -413 -7 -16 -12 -56 -12 -91 0 -34 -4 -66 -9 -71 -6 -6 -11 -55
-12 -110 -1 -78 2 -107 15 -132 10 -18 22 -33 27 -33 5 0 9 -18 9 -40 0 -29
-4 -40 -15 -40 -12 0 -15 -16 -15 -80 0 -52 4 -80 11 -80 8 0 9 -24 4 -80 l-7
-80 196 0 196 0 0 40 0 40 -51 0 -52 0 7 61 c3 34 6 70 6 80 0 11 5 19 11 19
6 0 27 17 48 38 20 22 54 45 75 52 l39 13 -24 13 c-22 12 -22 13 -4 15 11 1
27 2 35 3 24 2 26 109 3 141 -10 13 -22 25 -28 25 -19 0 -62 45 -69 72 -5 24
-12 28 -40 28 l-34 0 -5 73 c-3 39 -10 97 -16 127 -6 30 -12 62 -13 70 -7 42
26 233 53 305 29 79 56 185 64 245 3 30 11 60 16 66 5 6 11 30 13 51 5 48 26
124 38 138 4 5 8 17 8 28 0 19 28 95 61 162 10 22 19 48 19 58 0 10 15 42 34
72 19 29 38 71 42 92 8 46 17 53 70 53 48 0 55 -6 80 -80 10 -30 21 -59 25
-65 17 -23 60 -218 70 -310 5 -55 15 -131 21 -170 6 -38 12 -86 14 -105 4 -48
28 -184 55 -305 33 -152 37 -585 5 -585 -12 0 -36 -45 -36 -67 0 -7 5 -13 10
-13 6 0 10 -24 10 -53 0 -42 4 -55 21 -65 14 -9 18 -17 11 -25 -8 -9 -32 -259
-32 -328 0 -5 64 -9 146 -9 l147 0 -7 61 c-3 34 -6 70 -6 80 0 11 -7 19 -15
19 -11 0 -15 11 -15 40 0 29 4 40 15 40 11 0 15 11 15 40 0 22 4 40 9 40 15 0
63 70 81 119 18 46 18 46 -8 99 -15 29 -38 58 -52 65 -32 16 -37 43 -13 76 13
18 18 41 16 76 -3 71 -14 125 -24 125 -10 0 -3 122 12 230 38 265 40 296 30
355 -5 33 -9 128 -9 211 0 88 -4 160 -11 171 -5 11 -20 50 -32 87 -12 36 -26
66 -30 66 -5 0 -9 18 -9 40 0 22 -5 40 -11 40 -6 0 -9 20 -7 52 3 48 5 52 28
53 14 1 53 2 88 3 l62 2 0 41 0 41 -97 -4 -98 -3 4 120 c1 66 5 123 7 126 2 3
43 9 91 12 99 7 113 17 113 76 0 20 7 49 15 65 8 15 15 39 15 52 0 13 11 70
24 127 27 116 35 163 72 402 28 184 28 284 -1 396 -20 76 -14 89 40 89 23 0
84 13 135 29 51 17 105 33 120 36 15 3 37 15 48 25 12 11 29 20 38 20 9 0 32
18 51 40 19 22 41 40 49 40 8 0 14 7 14 16 0 9 9 27 19 40 11 14 23 49 26 79
4 30 13 60 21 66 8 6 14 24 14 40 0 15 4 30 8 33 5 3 17 32 27 66 10 34 24 60
32 60 7 0 13 10 13 22 0 12 7 30 17 40 14 16 14 18 1 18 -14 0 -16 25 -16 197
0 136 -3 198 -11 201 -6 2 -11 21 -11 42 0 24 -5 40 -15 44 -8 3 -15 16 -15
30 0 14 -7 31 -15 40 -8 8 -15 22 -15 30 0 15 -21 45 -62 88 -10 10 -18 23
-18 29 0 5 -13 24 -30 42 -16 18 -30 38 -30 45 0 6 -4 12 -10 12 -5 0 -10 5
-10 11 0 13 -55 69 -68 69 -6 0 -19 18 -29 40 -10 22 -23 40 -30 40 -6 0 -17
14 -25 30 -7 17 -16 30 -19 30 -4 0 -12 12 -19 28 -19 46 -34 72 -42 72 -5 0
-8 6 -8 13 0 17 -23 67 -31 67 -4 0 -14 11 -23 25 -15 23 -15 27 -2 40 8 8 24
15 35 15 29 0 26 14 -4 28 -14 6 -25 16 -25 21 0 15 -30 41 -46 41 -8 0 -19
-11 -25 -24 -12 -25 -39 -25 -39 -1 0 7 -13 15 -30 18 -62 13 -100 57 -49 57
10 0 19 5 19 10 0 6 -4 10 -10 10 -5 0 -10 9 -10 20 0 10 -9 24 -20 30 -11 6
-20 19 -20 28 0 10 -9 35 -20 57 -11 22 -20 46 -20 55 -1 19 -24 50 -37 50 -6
0 -13 8 -17 18 -5 17 -26 52 -36 62 -3 3 -10 16 -16 30 -55 121 -58 130 -100
295 -10 39 -21 72 -24 75 -4 3 -10 20 -13 39 -8 39 -47 121 -58 121 -4 0 -10
13 -14 30 -4 16 -10 32 -15 35 -4 3 -18 24 -30 47 -12 24 -25 45 -29 48 -4 3
-28 31 -54 64 -26 32 -58 67 -71 77 -45 36 -138 46 -259 28z m370 -316 c17
-34 37 -88 44 -120 12 -59 6 -133 -11 -133 -6 0 -10 -18 -10 -40 0 -22 -4 -40
-10 -40 -5 0 -10 18 -10 40 0 22 -4 40 -9 40 -13 0 -31 57 -31 95 0 18 7 38
16 46 17 14 16 16 -15 99 -39 102 -16 110 36 13z m511 -1478 c6 -14 15 -25 20
-25 22 0 192 -184 192 -208 0 -16 49 -62 65 -62 10 0 15 -10 15 -29 0 -17 5
-33 10 -36 26 -16 -10 -20 -164 -17 -137 2 -166 5 -166 17 0 11 -12 15 -40 15
-29 0 -40 -4 -40 -15 0 -8 -4 -15 -10 -15 -6 0 -10 52 -10 135 0 83 4 135 10
135 6 0 10 9 10 19 0 11 14 35 30 53 17 18 30 38 30 45 0 23 36 14 48 -12z
m-1725 -302 c-13 -2 -33 -2 -45 0 -13 2 -3 4 22 4 25 0 35 -2 23 -4z m145 -5
c-6 -18 -28 -21 -28 -4 0 9 7 16 16 16 9 0 14 -5 12 -12z m1487 -117 c3 -5 1
-12 -5 -16 -5 -3 -10 1 -10 9 0 18 6 21 15 7z m-2379 -23 c2 -3 2 -13 -2 -22
-5 -14 -19 -16 -81 -14 -54 1 -77 6 -81 16 -2 8 1 18 9 24 14 9 145 6 155 -4z
m2710 -18 l212 0 11 -27 c15 -37 10 -619 -6 -648 -19 -35 -46 -52 -103 -65
-30 -7 -70 -21 -88 -31 -18 -10 -38 -19 -44 -19 -11 0 -81 -30 -120 -51 -10
-5 -24 -9 -32 -9 -15 0 -29 -27 -21 -40 6 -10 76 -1 89 11 14 12 43 11 51 -2
4 -5 -6 -22 -21 -36 -34 -31 -153 -95 -164 -88 -5 3 -13 27 -19 54 -11 53 -78
278 -87 292 -3 5 -14 55 -25 111 -25 129 -37 521 -17 546 10 12 28 13 93 8 44
-3 175 -6 291 -6z m-2666 -40 c0 -5 -4 -10 -10 -10 -5 0 -10 5 -10 10 0 6 5
10 10 10 6 0 10 -4 10 -10z m143 3 c-13 -2 -33 -2 -45 0 -13 2 -3 4 22 4 25 0
35 -2 23 -4z m974 -145 c-3 -7 -5 -2 -5 12 0 14 2 19 5 13 2 -7 2 -19 0 -25z
m-95 -320 c-11 -29 -34 -82 -50 -118 -41 -87 -72 -183 -72 -220 0 -27 -3 -30
-34 -30 -19 0 -41 3 -50 6 -20 8 -21 33 0 41 8 3 13 12 10 19 -3 8 -2 14 3 14
5 0 11 8 14 18 6 17 45 88 142 255 54 93 68 99 37 15z m-132 -421 c0 -12 -4
-29 -10 -37 -8 -12 -10 -12 -16 3 -8 22 4 70 16 62 6 -3 10 -16 10 -28z m-460
-67 c0 -5 -6 -10 -14 -10 -8 0 -18 5 -21 10 -3 6 3 10 14 10 12 0 21 -4 21
-10z m48 -44 c-3 -19 -11 -22 -98 -27 -85 -6 -97 -5 -115 12 -19 19 -19 19 0
20 11 1 28 1 38 0 9 -1 17 2 17 8 0 6 33 10 81 9 76 0 80 -1 77 -22z m354 -48
c-6 -6 -20 -7 -33 -2 l-24 8 25 6 c30 8 46 2 32 -12z m-115 6 c-3 -3 -12 -4
-19 -1 -8 3 -5 6 6 6 11 1 17 -2 13 -5z m-510 -30 c-3 -3 -12 -4 -19 -1 -8 3
-5 6 6 6 11 1 17 -2 13 -5z m360 -26 c-3 -8 -6 -5 -6 6 -1 11 2 17 5 13 3 -3
4 -12 1 -19z m70 0 c-3 -8 -6 -5 -6 6 -1 11 2 17 5 13 3 -3 4 -12 1 -19z m103
-23 l0 -45 -40 0 c-23 0 -40 5 -40 11 0 6 7 9 15 5 8 -3 15 -1 15 5 0 6 7 6
20 -1 18 -10 20 -8 20 30 0 22 2 40 5 40 3 0 5 -20 5 -45z m80 -26 c0 -12 -7
-19 -20 -19 -17 0 -18 3 -8 25 12 27 28 24 28 -6z m-220 -9 c19 0 30 6 33 18
4 13 5 11 6 -5 1 -20 -4 -23 -39 -23 -35 0 -40 3 -39 23 1 16 2 18 6 5 3 -12
14 -18 33 -18z m114 -53 c13 -10 16 -20 12 -35 -9 -29 -32 -28 -40 1 -13 48
-5 58 28 34z m-210 -23 c9 -3 16 -17 16 -30 0 -19 -5 -24 -24 -24 -31 0 -36 8
-25 38 9 24 10 25 33 16z m-74 -33 c0 -12 -20 -25 -27 -18 -7 7 6 27 18 27 5
0 9 -4 9 -9z m180 -11 c0 -5 -9 -10 -20 -10 -11 0 -20 5 -20 10 0 6 9 10 20
10 11 0 20 -4 20 -10z m-19 -132 c0 -10 2 -10 6 0 2 6 9 12 15 12 7 0 8 -15 4
-41 -4 -26 -2 -46 5 -55 9 -11 8 -14 -5 -14 -39 0 -51 16 -48 64 2 25 8 46 13
46 5 0 9 -6 10 -12z m224 -38 c-5 -8 -11 -8 -17 -2 -6 6 -7 16 -3 22 5 8 11 8
17 2 6 -6 7 -16 3 -22z m-165 -11 c0 -11 -4 -17 -10 -14 -5 3 -10 15 -10 26 0
11 5 17 10 14 6 -3 10 -15 10 -26z m-160 -12 c0 -5 -4 -5 -10 -2 -5 3 -10 14
-10 23 0 15 2 15 10 2 5 -8 10 -19 10 -23z m215 13 c-3 -5 -10 -10 -16 -10 -5
0 -9 5 -9 10 0 6 7 10 16 10 8 0 12 -4 9 -10z m-5 -40 c0 -5 -14 -10 -31 -10
-17 0 -28 4 -24 10 3 6 17 10 31 10 13 0 24 -4 24 -10z m-1742 -235 c8 -8
-311 -5 -330 3 -10 4 60 6 154 4 94 -1 174 -4 176 -7z m218 4 c3 -5 -33 -9
-80 -9 -47 0 -86 4 -86 9 0 11 159 11 166 0z m-616 -75 c0 -24 -2 -25 -47 -23
-50 3 -65 13 -56 36 3 8 22 13 54 13 46 0 49 -2 49 -26z m240 11 c0 -21 -28
-31 -94 -34 -73 -2 -96 5 -96 30 0 17 8 19 95 19 77 0 95 -3 95 -15z m1872
-35 c-1 -25 -2 -107 -2 -182 0 -81 -4 -139 -10 -143 -6 -3 -10 3 -10 14 0 19
-6 21 -80 21 l-81 0 2 63 c3 83 9 94 54 91 51 -4 85 11 86 38 1 19 3 18 9 -7
7 -28 8 -27 9 13 1 34 -2 42 -17 42 -10 0 -22 3 -26 8 -10 9 -56 10 -56 1 0
-3 -11 -6 -24 -6 -18 0 -26 6 -31 24 -12 50 0 62 73 66 113 6 107 8 104 -43z
m90 5 c-1 -22 -3 -97 -4 -167 -1 -123 -1 -128 -22 -130 -11 0 -1 -4 24 -7 56
-8 55 -26 -2 -26 l-43 0 -3 98 c-2 62 1 97 8 97 5 0 10 18 10 40 0 22 -4 40
-10 40 -14 0 -12 74 2 88 25 25 43 9 40 -33z m-1802 20 c0 -11 -12 -15 -42
-16 -70 -2 -85 2 -73 20 3 6 31 11 61 11 41 0 54 -4 54 -15z m215 0 c0 -12
-141 -23 -161 -12 -8 5 -12 13 -8 18 8 13 169 7 169 -6z m243 3 c-3 -9 -33
-14 -93 -16 -93 -3 -120 1 -110 18 10 16 208 13 203 -2z m162 -33 c0 -38 -3
-45 -20 -45 -15 0 -20 7 -20 28 0 23 -5 28 -27 30 -15 1 -34 9 -42 17 -14 13
-8 15 47 15 l62 0 0 -45z m700 14 c0 -26 -3 -29 -20 -24 -11 3 -20 2 -20 -3 0
-11 -246 -24 -470 -26 l-155 -1 -3 28 c-7 59 -22 57 338 57 l330 0 0 -31z
m168 -7 c3 -29 1 -32 -20 -28 -13 3 -42 5 -65 5 -41 1 -43 2 -43 31 l0 31 63
-3 62 -3 3 -33z m-1030 -163 c-2 -38 -9 -74 -15 -80 -16 -16 -156 -11 -183 6
-11 7 -12 121 -2 146 6 12 25 15 90 16 45 0 86 3 89 7 15 15 25 -30 21 -95z
m-858 1 l0 -78 -55 -4 -55 -3 0 72 c0 97 1 99 60 95 l50 -4 0 -78z m208 64
c19 11 30 -89 14 -124 -4 -9 -22 -16 -42 -17 -19 -1 -57 -3 -85 -4 l-50 -3 -3
59 c-5 99 -2 104 71 107 43 2 66 -1 74 -11 6 -7 16 -10 21 -7z m777 12 c16
-11 20 -30 23 -110 4 -91 3 -96 -16 -96 -13 0 -22 8 -24 22 -2 13 -12 22 -25
24 -22 4 -28 -5 -24 -33 1 -7 -3 -13 -9 -13 -10 0 -15 201 -5 211 10 11 63 8
80 -5z m-394 -6 c16 -9 19 -22 19 -75 0 -35 -5 -67 -10 -70 -6 -4 -43 -7 -83
-7 l-72 -1 -3 65 c-4 83 9 98 79 98 28 0 59 -5 70 -10z m-191 -74 l0 -74 -57
-5 c-32 -2 -60 -3 -61 -2 -7 7 -14 124 -9 139 5 12 21 16 67 16 l60 0 0 -74z
m710 54 c0 -19 7 -20 125 -20 112 0 125 2 126 18 1 16 2 16 6 0 5 -19 33 -25
33 -8 0 6 10 2 22 -10 19 -18 36 -20 142 -22 67 0 127 -1 134 -1 9 1 12 -22
12 -83 0 -54 -4 -84 -11 -84 -7 0 -10 21 -7 60 1 33 0 60 -4 60 -5 0 -8 -22
-8 -49 l0 -50 -35 6 c-23 4 -35 2 -35 -6 0 -6 17 -11 38 -12 30 0 33 -2 17 -9
-11 -5 -139 -8 -285 -8 -165 0 -246 4 -215 8 28 5 137 9 243 9 111 1 192 5
192 10 0 10 -496 5 -512 -5 -4 -3 -8 0 -8 5 0 6 -7 11 -15 11 -12 0 -15 15
-15 78 0 42 5 84 10 92 6 10 10 11 10 3 0 -7 5 -13 10 -13 6 0 10 9 10 20 0
11 5 20 10 20 6 0 10 -9 10 -20z m740 -51 c0 -6 7 -9 15 -5 11 4 15 -1 14 -17
0 -12 -3 -16 -6 -9 -12 30 -23 7 -23 -48 0 -47 3 -60 15 -60 8 0 15 -4 15 -10
0 -6 -27 -10 -60 -10 -33 0 -60 4 -60 10 0 6 18 10 40 10 l40 0 0 45 0 45 -42
2 -43 1 43 4 c53 5 55 23 2 23 -29 0 -40 4 -40 15 0 11 12 15 45 15 26 0 45
-5 45 -11z m230 -155 c0 -14 -8 -16 -46 -10 -26 3 -62 6 -80 6 -19 0 -34 5
-34 10 0 6 33 10 80 10 67 0 80 -3 80 -16z m1052 -213 c3 -141 -2 -153 -63
-134 l-34 11 33 7 c25 6 32 13 32 32 0 16 -7 27 -19 30 -24 6 -27 20 -23 84 5
64 22 63 22 0 0 -28 5 -53 11 -57 9 -5 10 14 7 69 -5 72 5 108 23 90 4 -5 9
-64 11 -132z m-2289 10 c-1 -56 -4 -109 -7 -117 -4 -10 -22 -14 -61 -14 -30 0
-55 1 -56 3 -5 25 -9 180 -4 205 l6 34 62 -4 62 -4 -2 -103z m144 69 c13 0 15
-13 11 -83 -5 -90 -13 -116 -32 -97 -8 8 -7 13 4 20 12 7 12 12 2 22 -8 8 -12
40 -11 93 1 44 3 72 6 63 2 -10 11 -18 20 -18z m1523 -79 c0 -120 2 -117 -94
-125 -87 -7 -116 -2 -116 19 0 9 11 12 38 8 20 -3 53 0 72 5 25 7 29 10 13 11
-21 1 -23 6 -23 55 0 33 -5 56 -12 58 -9 3 -9 12 1 36 11 27 19 31 54 34 58 4
67 -10 67 -101z m-2141 83 c23 -5 23 -6 16 -82 -4 -42 -8 -86 -9 -97 -1 -17
-8 -20 -51 -20 l-50 0 -3 85 c-2 47 0 95 3 107 5 23 12 24 94 7z m229 -48 c3
-50 0 -61 -17 -73 -13 -9 -21 -25 -21 -44 0 -27 -3 -29 -39 -29 -46 0 -51 10
-51 112 0 96 2 99 69 96 l56 -3 3 -59z m799 -28 c-6 -50 -15 -88 -21 -89 -16
-1 26 -17 47 -18 15 -1 17 9 17 78 l0 79 48 4 c26 3 54 1 62 -3 13 -7 13 -8 0
-9 -8 -1 5 -9 30 -18 45 -17 45 -18 48 -70 2 -37 -1 -52 -10 -52 -23 0 15 -20
40 -20 18 0 22 5 22 34 0 62 13 156 21 156 5 0 9 -42 9 -94 0 -88 -1 -94 -22
-101 -39 -12 -310 -18 -483 -10 l-165 7 0 93 0 93 44 3 44 4 11 -47 c11 -49 5
-108 -10 -108 -5 0 -9 -7 -9 -15 0 -11 11 -15 41 -15 l41 0 -6 43 c-7 49 -7
127 0 139 3 4 47 8 99 8 56 0 97 4 100 11 12 18 12 6 2 -83z m689 77 c12 -11
13 -33 8 -110 l-7 -95 -83 0 -84 0 0 100 0 100 40 0 c34 0 40 -3 40 -21 0 -18
2 -19 15 -9 8 7 15 18 15 25 0 8 8 16 18 18 9 3 18 5 20 6 2 0 10 -6 18 -14z
m160 -7 c10 -33 5 -151 -7 -159 -8 -5 -8 -9 0 -13 23 -15 9 -26 -32 -26 -46 0
-60 6 -50 23 3 5 5 52 4 103 l-2 94 40 0 c32 0 41 -4 47 -22z m100 -37 c4 -7
2 -22 -5 -33 -6 -10 -9 -23 -6 -28 7 -11 -15 -60 -27 -60 -9 0 -11 140 -2 165
7 16 14 8 40 -44z m238 50 c4 -5 1 -11 -5 -13 -7 -2 -7 -12 0 -31 6 -16 11
-53 11 -82 0 -44 4 -57 22 -69 22 -16 21 -16 -22 -16 l-45 0 3 110 c3 85 6
110 17 110 8 0 16 -4 19 -9z m-2450 -33 c-4 -13 -7 -60 -6 -105 l1 -83 -32 4
c-18 3 -38 5 -44 5 -9 1 -13 17 -13 46 0 43 12 60 23 33 3 -7 6 -1 6 15 1 19
-4 27 -16 28 -14 0 -13 2 5 9 27 12 29 30 2 37 -11 3 -20 12 -20 19 0 10 14
14 51 14 48 0 50 -1 43 -22z m1727 -58 c5 0 9 -27 9 -60 l0 -60 -55 0 c-30 0
-55 3 -56 8 0 4 -3 16 -5 27 -2 11 -2 48 2 83 l6 62 39 0 c24 0 40 5 41 13 1
6 3 -7 5 -30 2 -24 8 -43 14 -43z m-691 14 c0 -8 -4 -14 -10 -14 -5 0 -10 9
-10 21 0 11 5 17 10 14 6 -3 10 -13 10 -21z m-570 -103 c0 -6 -4 -13 -10 -16
-5 -3 -10 1 -10 9 0 9 5 16 10 16 6 0 10 -4 10 -9z"/>
<path d="M7360 4970 c0 -5 5 -10 11 -10 5 0 7 5 4 10 -3 6 -8 10 -11 10 -2 0
-4 -4 -4 -10z"/>
<path d="M7037 4650 c-4 -16 -4 -37 -1 -45 7 -16 9 -16 179 -16 l110 0 3 39 2
39 -97 6 c-54 4 -119 7 -144 7 -44 0 -47 -2 -52 -30z"/>
<path d="M5568 3973 c7 -3 16 -2 19 1 4 3 -2 6 -13 5 -11 0 -14 -3 -6 -6z"/>
<path d="M5415 3530 c-3 -5 1 -10 9 -10 9 0 16 5 16 10 0 6 -4 10 -9 10 -6 0
-13 -4 -16 -10z"/>
<path d="M4738 2743 c12 -2 32 -2 45 0 12 2 2 4 -23 4 -25 0 -35 -2 -22 -4z"/>
<path d="M3603 2360 c0 -25 2 -35 4 -22 2 12 2 32 0 45 -2 12 -4 2 -4 -23z"/>
<path d="M3358 2365 c-2 -25 0 -45 4 -45 5 0 8 20 8 45 0 25 -2 45 -4 45 -2 0
-6 -20 -8 -45z"/>
<path d="M3017 7033 c-4 -3 -7 -37 -7 -75 0 -52 4 -70 15 -74 8 -4 15 -12 15
-19 0 -8 11 -27 25 -43 14 -17 25 -35 25 -41 0 -6 6 -11 14 -11 16 0 29 -27
19 -42 -3 -7 -1 -8 6 -4 12 8 41 -10 41 -25 0 -5 -19 -8 -42 -7 -41 3 -43 2
-41 -23 l1 -27 -24 25 c-13 13 -24 28 -24 32 0 5 -7 22 -15 37 -14 28 -15 25
-15 -62 0 -73 3 -94 17 -105 9 -8 17 -12 19 -9 2 3 13 -9 26 -25 13 -17 42
-50 65 -75 24 -25 43 -48 43 -52 0 -5 14 -8 31 -8 30 0 31 1 25 33 -3 17 -14
37 -23 44 -18 14 -21 45 -10 113 3 25 3 34 -1 20 -7 -22 -9 -23 -15 -7 -11 30
-8 37 18 37 14 0 29 -8 35 -20 6 -11 17 -20 25 -20 8 0 15 -8 15 -18 0 -11 13
-23 35 -31 30 -10 37 -10 50 3 16 15 20 54 7 71 -4 6 -30 31 -59 57 -28 26
-48 50 -42 53 5 4 9 16 9 28 -1 20 -2 21 -14 5 -10 -13 -15 -15 -24 -6 -7 7
-12 18 -12 25 0 7 -7 13 -15 13 -8 0 -15 5 -15 11 0 14 -55 69 -69 69 -6 0
-11 6 -11 13 0 6 -23 37 -50 66 -53 58 -57 66 -37 74 6 3 7 6 1 6 -6 1 -14 -2
-17 -6z m123 -405 c0 -7 -5 -20 -10 -28 -8 -12 -10 -9 -10 13 0 15 5 27 10 27
6 0 10 -6 10 -12z"/>
<path d="M5760 6972 c0 -16 72 -32 92 -21 10 5 16 14 13 20 -8 11 -105 12
-105 1z"/>
<path d="M8583 6924 c-16 -12 -16 -15 -3 -23 17 -11 89 -4 105 11 27 25 -70
36 -102 12z"/>
<path d="M3040 6810 c0 -5 5 -10 10 -10 6 0 10 5 10 10 0 6 -4 10 -10 10 -5 0
-10 -4 -10 -10z"/>
<path d="M3042 6733 c5 -25 28 -28 28 -4 0 12 -6 21 -16 21 -9 0 -14 -7 -12
-17z"/>
<path d="M3400 6630 c0 -5 5 -10 10 -10 6 0 10 5 10 10 0 6 -4 10 -10 10 -5 0
-10 -4 -10 -10z"/>
<path d="M9238 4963 c23 -2 61 -2 85 0 23 2 4 4 -43 4 -47 0 -66 -2 -42 -4z"/>
<path d="M9453 4963 c9 -2 25 -2 35 0 9 3 1 5 -18 5 -19 0 -27 -2 -17 -5z"/>
<path d="M7896 4858 c-9 -12 -16 -33 -16 -45 0 -22 3 -23 98 -23 53 -1 131 -3
172 -5 41 -2 307 -6 590 -10 283 -3 570 -8 638 -11 l122 -7 0 52 0 51 -70 0
c-45 0 -70 4 -70 11 0 9 -165 11 -620 8 l-620 -4 -1 -25 -1 -25 -11 28 c-11
27 -12 27 -103 27 -85 0 -94 -2 -108 -22z m1367 -5 c-13 -2 -33 -2 -45 0 -13
2 -3 4 22 4 25 0 35 -2 23 -4z"/>
<path d="M8193 4623 l2 -48 164 0 164 0 2 40 c1 22 -3 43 -9 47 -6 4 -82 8
-168 8 l-157 0 2 -47z"/>
<path d="M9368 4605 l4 -45 64 0 64 0 0 45 0 45 -68 0 -67 0 3 -45z"/>
<path d="M3022 4308 c-9 -9 -12 -147 -12 -560 l0 -548 458 -2 c848 -3 937 -3
892 3 l-45 6 41 1 c32 2 47 9 74 37 19 19 41 35 49 36 9 1 -3 5 -27 11 -36 8
-41 12 -31 24 10 12 3 14 -47 12 -50 -1 -53 -2 -16 -5 53 -5 56 -23 3 -23 -48
0 -79 25 -83 65 l-3 30 135 -3 c74 -1 154 -5 178 -8 33 -4 43 -2 48 11 4 9 3
19 -1 23 -3 4 -59 10 -123 13 l-117 5 106 2 c84 2 108 5 113 17 10 27 -31 35
-179 35 l-146 0 6 323 c4 196 3 327 -3 336 -10 14 -119 30 -212 31 l-55 0 0
57 0 58 -34 -2 c-33 -1 -76 -37 -65 -54 20 -32 -80 -66 -159 -55 -23 4 -160 6
-304 6 -171 -1 -270 3 -283 10 -13 7 -26 7 -37 2 -9 -5 -25 -7 -36 -4 -17 4
-19 12 -15 63 l4 59 -31 0 c-17 0 -36 -5 -43 -12z m1236 -180 c9 -9 11 -83 6
-303 -3 -159 -7 -300 -10 -312 -4 -22 -8 -23 -130 -23 l-126 0 6 28 c3 15 8
158 12 317 3 160 8 293 11 298 7 12 218 8 231 -5z m-1008 -28 c0 -5 -11 -10
-25 -10 -14 0 -28 0 -32 -1 -4 0 -9 4 -11 10 -2 7 11 11 32 11 20 0 36 -4 36
-10z m205 -5 c0 -5 -21 -11 -47 -13 -39 -3 -48 0 -48 13 0 13 9 16 48 13 26
-2 47 -7 47 -13z m225 0 c0 -12 -14 -14 -70 -13 -57 1 -68 3 -59 15 17 19 129
18 129 -2z m160 0 c0 -15 -4 -16 -61 -19 -34 -1 -49 12 -28 25 24 15 89 11 89
-6z m105 -5 c3 -6 -4 -10 -17 -10 -18 0 -20 2 -8 10 19 12 18 12 25 0z m18
-101 c-5 -18 -23 -27 -23 -11 1 25 14 52 20 42 4 -7 5 -21 3 -31z m1 -306 c-3
-87 -10 -162 -16 -168 -5 -6 -67 -10 -141 -11 -105 0 -120 1 -74 8 62 8 107
38 107 71 0 11 8 17 21 17 17 0 20 5 16 21 -4 13 0 22 11 26 33 12 62 55 62
93 0 40 10 100 16 100 2 0 1 -71 -2 -157z m-604 -43 c0 -5 -5 -10 -11 -10 -5
0 -7 5 -4 10 3 6 8 10 11 10 2 0 4 -4 4 -10z"/>
<path d="M4870 3983 c-24 -13 -23 -13 15 -6 22 4 84 7 138 6 54 -1 96 2 92 5
-13 13 -220 9 -245 -5z"/>
<path d="M5200 3990 c0 -5 4 -10 9 -10 6 0 13 5 16 10 3 6 -1 10 -9 10 -9 0
-16 -4 -16 -10z"/>
<path d="M8263 3768 c-4 -7 -6 -258 -5 -558 1 -300 -2 -570 -7 -600 l-9 -55
-1 73 c-2 127 -49 162 -219 162 -166 0 -172 -9 -184 -270 -10 -238 -12 -244
-68 -250 -38 -4 -45 -9 -51 -33 -4 -16 -6 -34 -3 -41 6 -15 90 -23 352 -33
158 -6 172 -8 172 -25 0 -14 8 -18 40 -18 22 0 40 -4 40 -10 0 -5 18 -10 40
-10 22 0 40 -4 40 -10 0 -5 18 -10 40 -10 29 0 40 -4 40 -15 0 -12 16 -15 80
-15 64 0 80 3 80 15 0 11 11 15 40 15 27 0 40 4 40 13 0 11 29 15 117 20 66 4
119 11 121 17 2 5 21 10 43 10 35 0 39 3 47 32 6 25 13 32 33 32 17 1 25 -6
27 -22 3 -19 10 -22 45 -22 23 -1 85 -3 137 -6 52 -2 121 -2 153 2 l57 6 0
105 c0 96 -1 105 -17 97 -10 -4 -36 -9 -58 -11 l-40 -3 38 18 c21 9 35 21 31
25 -4 4 1 7 12 7 16 0 16 2 4 10 -13 8 -12 11 5 24 18 13 15 15 -38 21 -87 11
-86 11 -80 -99 l6 -96 -76 0 c-44 0 -79 5 -83 11 -3 6 -5 145 -5 310 2 203 -1
299 -8 299 -7 0 -11 31 -11 80 0 47 4 80 10 80 6 0 10 18 10 40 0 22 -4 40
-10 40 -16 0 -13 640 3 641 6 1 -6 5 -28 10 -22 4 -232 8 -467 8 -331 1 -429
-2 -435 -11z m838 -690 c-1 -112 2 -350 5 -529 l6 -326 -31 0 -31 0 0 111 c-1
61 -3 298 -6 526 -3 272 -1 410 5 400 9 -12 11 -12 17 3 3 9 13 17 21 17 13 0
15 -28 14 -202z m-151 -47 c0 -17 -18 -21 -24 -6 -3 9 0 15 9 15 8 0 15 -4 15
-9z m227 -513 c-2 -24 -4 -5 -4 42 0 47 2 66 4 43 2 -24 2 -62 0 -85z m-1288
-124 c2 -125 2 -125 -21 -122 -22 3 -23 6 -20 88 4 116 11 160 27 160 10 0 13
-29 14 -126z m316 -20 l-5 -96 -145 -2 -145 -1 1 30 c1 17 4 43 8 58 l6 28 34
-35 c29 -30 42 -36 78 -36 l43 0 0 40 0 40 43 1 42 1 -35 15 -35 15 50 18 c28
10 53 19 57 19 4 1 5 -42 3 -95z m-269 51 c1 -14 -2 -25 -7 -25 -5 0 -9 14 -9
32 0 36 12 31 16 -7z"/>
<path d="M8165 2310 c-3 -5 -1 -10 4 -10 6 0 11 5 11 10 0 6 -2 10 -4 10 -3 0
-8 -4 -11 -10z"/>
<path d="M8018 2303 c12 -2 32 -2 45 0 12 2 2 4 -23 4 -25 0 -35 -2 -22 -4z"/>
<path d="M7956 3218 c-3 -7 -4 -42 -3 -78 l2 -65 68 -3 68 -3 -3 78 -3 78 -63
3 c-44 2 -63 -1 -66 -10z m124 -58 c0 -5 -25 -10 -55 -10 -30 0 -55 5 -55 10
0 6 25 10 55 10 30 0 55 -4 55 -10z"/>
<path d="M7899 3180 c-4 -42 -1 -64 9 -68 8 -2 12 10 12 37 0 23 -4 41 -10 41
-5 0 -10 -4 -11 -10z"/>
<path d="M3010 3160 c0 -20 7 -20 455 -20 261 0 455 4 455 9 0 10 -192 18
-617 26 -288 5 -293 4 -293 -15z"/>
<path d="M7613 3000 c0 -25 2 -35 4 -22 2 12 2 32 0 45 -2 12 -4 2 -4 -23z"/>
<path d="M7180 2221 l-105 -6 94 -7 c129 -11 511 -10 511 1 0 20 -237 25 -500
12z"/>
<path d="M5545 2150 c4 -6 11 -8 16 -5 14 9 11 15 -7 15 -8 0 -12 -5 -9 -10z"/>
<path d="M8937 983 c-4 -3 -7 -172 -7 -375 l0 -368 285 0 285 0 0 90 c0 63 -4
91 -13 97 -34 21 -47 58 -47 135 0 72 2 80 30 112 29 32 29 35 11 41 -16 5
-19 12 -14 40 3 19 0 49 -8 66 l-13 32 -19 -24 -19 -24 26 -3 c27 -3 31 -10
18 -27 -10 -15 -30 -17 -51 -6 -17 10 -18 6 -13 -59 4 -58 2 -70 -10 -70 -9 0
-18 -9 -21 -20 -6 -25 -51 -43 -100 -41 -67 3 -74 -3 -68 -57 9 -66 0 -116
-21 -120 -26 -5 -29 23 -26 238 l3 195 65 3 c67 3 139 -12 152 -32 5 -6 8 -2
8 10 0 27 -32 34 -159 35 -87 1 -126 12 -58 16 17 1 53 5 80 9 47 6 47 6 47
45 l0 38 113 4 c110 3 109 3 -43 7 -143 3 -149 4 -70 10 62 5 28 7 -126 8
-116 1 -214 -1 -217 -5z m503 -253 c0 -5 -5 -10 -11 -10 -5 0 -7 5 -4 10 3 6
8 10 11 10 2 0 4 -4 4 -10z m-483 -212 c-2 -24 -4 -5 -4 42 0 47 2 66 4 43 2
-24 2 -62 0 -85z"/>
<path d="M9453 983 c9 -2 25 -2 35 0 9 3 1 5 -18 5 -19 0 -27 -2 -17 -5z"/>
<path d="M9328 873 c6 -2 18 -2 25 0 6 3 1 5 -13 5 -14 0 -19 -2 -12 -5z"/>
<path d="M9460 874 c0 -9 31 -37 36 -32 9 9 -8 38 -22 38 -8 0 -14 -3 -14 -6z"/>
<path d="M9218 863 c12 -2 32 -2 45 0 12 2 2 4 -23 4 -25 0 -35 -2 -22 -4z"/>
<path d="M9190 713 l0 -88 61 3 c59 4 61 5 75 38 17 41 11 84 -13 101 -10 7
-23 17 -30 23 -7 5 -30 10 -53 10 l-40 0 0 -87z"/>
<path d="M9486 741 c-4 -7 -5 -15 -2 -18 9 -9 19 4 14 18 -4 11 -6 11 -12 0z"/>
<path d="M9480 570 c0 -22 5 -40 10 -40 6 0 10 18 10 40 0 22 -4 40 -10 40 -5
0 -10 -18 -10 -40z"/>
</g>
</svg>
