<?xml version="1.0" standalone="no"?>
<!DOCTYPE svg PUBLIC "-//W3C//DTD SVG 20010904//EN"
 "http://www.w3.org/TR/2001/REC-SVG-20010904/DTD/svg10.dtd">
<svg version="1.0" xmlns="http://www.w3.org/2000/svg"
 width="1280.000000pt" height="720.000000pt" viewBox="0 0 1280.000000 720.000000"
 preserveAspectRatio="xMidYMid meet">
<metadata>
Created by potrace 1.16, written by Peter Selinger 2001-2019
</metadata>
<g transform="translate(0.000000,720.000000) scale(0.100000,-0.100000)"
fill="#000000" stroke="none">
<path d="M6193 7043 c-25 -5 -55 -49 -77 -112 -8 -22 -24 -51 -36 -63 -11 -13
-23 -33 -26 -45 -4 -13 -10 -23 -15 -23 -5 0 -9 -6 -9 -14 0 -7 -7 -19 -15
-26 -8 -7 -15 -22 -15 -34 0 -12 -4 -26 -8 -31 -5 -6 -19 -44 -31 -85 -13 -41
-35 -115 -51 -165 -15 -49 -34 -116 -41 -148 -7 -32 -16 -60 -21 -63 -4 -3 -8
-21 -8 -40 0 -19 -4 -34 -8 -34 -5 0 -14 -18 -21 -40 -6 -22 -15 -40 -20 -40
-4 0 -14 -19 -21 -42 -15 -52 -42 -112 -52 -116 -5 -2 -8 -19 -8 -38 0 -19 -7
-51 -15 -71 -9 -20 -13 -46 -10 -57 3 -12 2 -15 -1 -8 -11 24 -24 11 -24 -24
0 -20 -9 -49 -21 -65 -11 -16 -32 -57 -45 -90 -22 -54 -26 -85 -34 -250 -7
-149 -12 -193 -25 -205 -8 -8 -15 -29 -15 -45 0 -23 -4 -29 -22 -29 -12 0 -30
-7 -40 -17 -16 -14 -18 -14 -18 -1 0 14 -37 17 -277 22 -508 11 -1105 24
-1318 30 -115 3 -351 8 -522 11 l-313 4 0 -184 0 -185 188 0 c103 0 248 4 322
9 74 5 285 13 468 16 291 6 332 5 332 -8 0 -11 18 -16 74 -22 73 -6 116 3 116
25 0 6 11 5 25 -2 14 -6 25 -17 25 -25 0 -9 13 -13 40 -13 24 0 40 5 40 12 0
8 91 10 363 6 199 -2 299 -1 222 3 -77 3 -168 7 -202 8 -46 1 -63 5 -63 15 0
11 36 12 198 9 108 -3 203 -6 210 -8 7 -3 12 -22 12 -50 0 -25 -6 -55 -12 -67
-20 -33 -58 -68 -73 -68 -8 0 -15 -6 -15 -13 0 -21 -24 -67 -35 -67 -11 -1
-82 -91 -92 -115 -3 -8 -11 -15 -19 -15 -8 0 -14 -9 -14 -20 0 -12 -15 -28
-40 -42 -22 -13 -40 -29 -40 -35 0 -7 -11 -13 -25 -13 -14 0 -25 -4 -25 -9 0
-17 -29 -20 -44 -6 -8 8 -19 15 -24 15 -5 0 -29 18 -52 40 -23 22 -48 40 -55
40 -8 0 -15 5 -17 11 -2 7 -32 8 -93 3 -50 -4 -84 -9 -77 -11 22 -8 13 -20
-27 -33 -73 -24 -62 -53 58 -150 24 -19 49 -41 56 -47 8 -7 18 -13 24 -13 6 0
19 -5 29 -11 22 -14 192 -3 192 12 0 5 18 9 39 9 22 0 42 4 45 8 3 5 30 14 60
21 30 7 60 19 66 27 7 7 23 14 36 14 12 0 26 5 29 10 3 6 15 10 26 10 10 0 19
3 19 8 0 4 21 18 48 32 54 28 100 58 122 80 25 25 129 100 138 100 5 0 12 8
16 18 7 21 24 47 54 80 12 14 22 33 22 43 0 11 4 19 10 19 5 0 13 18 16 40 4
22 12 40 18 40 7 0 22 17 35 38 l22 37 -5 -70 c-3 -44 -16 -99 -35 -148 -16
-43 -37 -108 -45 -145 -8 -37 -22 -96 -30 -132 -8 -36 -24 -92 -36 -124 -11
-33 -23 -84 -27 -113 -5 -45 -9 -53 -27 -54 -25 -2 -421 3 -521 6 -38 1 -78
-2 -87 -7 -10 -5 -18 -3 -21 5 -3 9 -9 9 -23 1 -14 -8 -24 -8 -36 -1 -12 8
-23 8 -40 -1 -23 -12 -24 -19 -25 -124 -1 -61 -7 -123 -13 -139 -9 -20 -9 -37
-2 -61 6 -18 9 -103 7 -190 -2 -129 0 -158 11 -158 8 0 14 9 14 21 0 12 8 23
20 26 11 3 20 9 20 14 0 5 9 9 20 9 14 0 20 7 20 21 0 16 4 19 17 14 10 -4 28
-7 41 -6 18 1 22 -4 22 -29 0 -17 5 -30 10 -30 18 0 11 -22 -9 -27 -10 -2 -24
-16 -30 -29 -6 -13 -17 -24 -26 -24 -8 0 -16 -4 -16 -10 -1 -5 -2 -14 -3 -19
-2 -19 -16 -24 -31 -11 -11 9 -18 10 -28 1 -16 -13 -27 -5 -27 21 0 10 -7 18
-15 18 -9 0 -15 -9 -15 -22 0 -13 -3 -34 -7 -47 -6 -24 -5 -24 45 -18 34 4 52
2 52 -5 0 -7 6 -6 15 2 11 9 53 12 147 11 72 -1 217 -3 322 -4 173 -2 191 -4
194 -19 2 -12 -5 -21 -20 -26 -36 -12 -768 4 -781 17 -12 12 -12 99 -1 601 4
162 4 292 0 289 -3 -3 -10 -167 -16 -365 -13 -472 -18 -546 -32 -555 -7 -4
-396 -5 -865 -2 l-853 6 0 -21 c0 -21 5 -22 138 -25 l137 -3 -137 -2 c-129 -2
-138 -3 -138 -22 0 -16 8 -19 58 -22 54 -3 57 -4 60 -30 3 -28 3 -28 -57 -28
-54 0 -61 -2 -61 -20 0 -18 7 -20 55 -20 l55 0 0 -95 0 -95 -32 0 c-71 0 -78
-7 -78 -71 0 -48 3 -57 15 -53 8 4 15 1 15 -5 0 -6 -7 -11 -15 -11 -11 0 -15
-11 -15 -40 0 -35 3 -40 24 -40 22 0 24 -5 31 -77 4 -49 3 -79 -3 -81 -5 -1
-8 -12 -5 -22 3 -11 0 -20 -6 -20 -6 0 -11 5 -11 11 0 8 -5 8 -15 -1 -11 -9
-15 -32 -15 -81 0 -61 2 -69 19 -69 18 0 68 -48 89 -86 8 -15 13 -16 25 -6 8
7 18 23 21 36 6 23 36 45 36 26 0 -6 18 -10 40 -10 22 0 40 -4 40 -10 0 -26
32 -5 46 30 16 40 34 53 34 25 0 -11 11 -15 38 -15 30 0 42 -6 62 -31 49 -61
55 -65 59 -43 2 10 7 24 11 29 4 6 11 25 15 42 7 37 21 42 41 15 13 -16 15
-16 28 1 20 25 34 21 41 -14 4 -17 12 -41 19 -54 12 -23 13 -23 28 -6 9 11 22
35 29 55 12 33 16 36 54 36 22 0 49 3 60 6 17 4 22 -2 34 -40 7 -24 19 -53 27
-63 12 -17 13 -16 14 10 0 18 11 40 31 60 28 28 40 32 98 35 l66 4 14 -46 c7
-25 17 -46 22 -46 5 0 9 4 9 9 0 12 59 71 70 71 5 0 11 -6 13 -12 4 -10 6 -10
6 0 1 6 7 12 15 12 9 0 17 -17 21 -47 l8 -48 14 55 14 55 239 0 c132 0 240 -3
240 -6 0 -4 29 -4 64 -2 88 8 112 0 125 -39 l12 -33 19 25 c11 14 20 33 20 43
0 20 1 20 59 6 26 -6 52 -20 63 -34 26 -33 38 -31 38 4 0 28 1 29 76 36 72 7
76 6 100 -20 l24 -26 23 23 c21 23 27 24 177 22 85 -1 167 -2 182 -3 l27 -1
-17 -45 c-9 -25 -20 -45 -24 -45 -4 0 -8 -7 -8 -16 0 -8 -6 -22 -12 -29 -26
-29 -34 -40 -41 -57 -3 -10 -11 -18 -17 -18 -5 0 -10 -9 -10 -20 0 -11 -4 -20
-8 -20 -5 0 -15 -18 -22 -40 -7 -22 -17 -40 -22 -40 -4 0 -8 -9 -8 -20 0 -11
-4 -20 -8 -20 -9 0 -52 -166 -52 -200 0 -11 -7 -37 -15 -57 -17 -41 -39 -190
-54 -373 -11 -129 -25 -179 -91 -318 -41 -85 -40 -124 4 -168 19 -19 36 -44
40 -57 5 -20 0 -24 -39 -35 -42 -11 -62 -32 -31 -32 8 0 20 -16 26 -36 7 -19
18 -38 26 -41 9 -3 14 -20 14 -44 0 -28 4 -39 15 -39 11 0 15 -11 15 -40 0
-30 4 -40 16 -40 12 0 7 -11 -19 -39 -26 -29 -34 -45 -30 -65 5 -23 10 -26 44
-26 l39 0 0 -95 0 -95 120 0 120 0 0 40 c0 33 -3 40 -20 40 -17 0 -20 7 -20
45 0 57 27 85 82 85 l38 0 0 63 c0 58 -3 66 -31 93 l-31 29 59 6 58 6 -77 1
c-87 2 -108 21 -25 23 l52 2 -57 6 c-102 11 -74 21 63 22 112 1 269 13 219 18
-11 1 -15 13 -15 43 0 40 -2 43 -40 57 -22 8 -46 21 -53 28 -7 7 -20 13 -28
13 -8 0 -14 5 -14 10 0 6 -9 10 -20 10 -11 0 -20 6 -20 14 0 14 -61 66 -77 66
-5 0 -17 33 -28 73 -10 39 -21 77 -25 82 -14 21 0 205 20 250 5 11 14 39 20
62 6 23 15 45 20 48 6 3 10 15 10 26 0 10 3 19 8 19 8 0 19 25 52 120 13 36
27 69 32 75 4 5 8 18 8 29 0 24 31 96 42 96 4 0 8 8 8 18 0 20 76 171 93 187
13 11 33 46 79 135 16 30 32 57 36 60 16 11 62 122 62 149 l0 29 93 4 c104 5
121 -3 130 -55 5 -30 13 -69 37 -177 5 -25 10 -90 10 -145 1 -55 5 -136 11
-180 5 -44 14 -132 19 -195 5 -63 15 -149 22 -190 13 -82 19 -680 6 -680 -5 0
-8 -10 -8 -23 0 -13 -6 -29 -12 -36 -10 -11 -10 -14 0 -18 7 -3 12 -22 12 -44
0 -28 4 -39 15 -39 8 0 15 -9 15 -21 0 -11 5 -29 10 -40 9 -16 7 -19 -15 -19
l-25 0 0 -120 c0 -113 -1 -120 -20 -120 -17 0 -20 -7 -20 -40 l0 -40 165 0
165 0 0 40 c0 22 -4 40 -10 40 -5 0 -10 18 -10 40 0 29 -4 40 -15 40 -12 0
-15 15 -15 75 0 75 0 75 40 111 22 20 40 41 40 48 0 6 18 19 40 29 39 18 40
20 40 67 0 47 -1 48 -40 64 -28 11 -40 22 -40 36 0 11 -4 20 -10 20 -5 0 -10
6 -10 14 0 8 -5 16 -12 18 -8 3 -13 44 -15 124 -2 65 -9 129 -16 142 -8 17 -8
28 0 41 6 9 14 50 17 91 9 100 26 210 36 235 5 11 13 63 19 115 35 321 37 480
5 555 -8 19 -14 57 -14 85 0 27 -4 50 -10 50 -16 0 -11 70 6 87 10 11 41 18
90 21 l74 5 0 39 0 40 -92 -3 -93 -3 3 114 c2 63 5 117 8 121 2 4 42 10 89 14
72 6 85 9 85 25 0 23 15 34 65 50 22 7 43 15 47 19 17 16 -32 488 -77 746 -7
44 -19 139 -25 210 -17 203 -27 280 -55 430 -14 77 -30 176 -35 220 -15 130
-28 208 -40 245 -6 19 -14 104 -17 188 l-6 152 30 0 c26 0 31 -5 46 -47 9 -27
24 -79 33 -118 10 -38 21 -72 26 -76 4 -3 12 -45 17 -95 9 -89 24 -144 38
-144 5 0 17 -18 27 -40 11 -22 22 -40 26 -40 4 0 15 -18 25 -40 10 -22 22 -40
27 -40 4 0 8 -9 8 -19 0 -10 7 -21 15 -25 8 -3 15 -12 15 -21 0 -10 10 -15 31
-15 l31 0 -7 183 c-3 100 -8 232 -10 292 -2 61 -11 146 -19 190 -9 44 -16 92
-16 108 0 15 -5 27 -11 27 -8 0 -10 17 -7 51 4 37 2 52 -8 56 -10 4 -14 24
-14 69 0 36 -4 64 -10 64 -6 0 -10 54 -10 143 0 159 -15 314 -32 334 -8 10 -8
17 0 25 8 8 13 7 18 -5 3 -10 17 -17 31 -17 21 0 23 3 14 14 -6 8 -13 27 -14
44 -2 27 -6 31 -40 36 -20 4 -45 16 -55 27 -9 12 -24 29 -33 38 -43 45 -68 90
-74 136 -11 87 -16 105 -30 105 -8 0 -16 17 -20 40 -4 25 -12 40 -21 40 -8 0
-14 8 -14 18 0 10 -11 33 -25 52 -14 19 -25 38 -25 43 0 5 -6 23 -14 40 -14
33 -32 114 -46 202 -14 91 -23 125 -30 125 -4 0 -11 15 -14 34 -4 19 -13 39
-21 46 -8 7 -15 18 -15 25 0 25 -55 135 -67 135 -7 0 -13 7 -13 16 0 18 -59
104 -72 104 -4 0 -8 9 -8 20 0 11 -4 20 -10 20 -5 0 -25 16 -44 36 -24 25 -49
39 -78 45 -44 8 -195 10 -235 2z m420 -336 c33 -68 59 -218 39 -225 -7 -2 -12
-21 -12 -43 0 -27 -4 -39 -14 -39 -8 0 -16 -3 -19 -7 -2 -5 -2 -2 -1 4 2 7 -3
31 -11 54 -18 49 -20 115 -4 125 20 12 -1 117 -39 187 -2 5 4 7 14 5 12 -2 30
-26 47 -61z m-13 -372 c0 -8 -4 -15 -10 -15 -5 0 -7 7 -4 15 4 8 8 15 10 15 2
0 4 -7 4 -15z m-833 -387 c-3 -8 -6 -5 -6 6 -1 11 2 17 5 13 3 -3 4 -12 1 -19z
m-1112 -1138 c15 -6 25 -16 22 -23 -6 -18 -158 -17 -165 1 -3 8 1 18 9 23 19
12 102 11 134 -1z m65 -60 c0 -5 -4 -10 -9 -10 -6 0 -13 5 -16 10 -3 6 1 10 9
10 9 0 16 -4 16 -10z m-240 -20 c0 -5 -18 -10 -40 -10 -22 0 -40 5 -40 10 0 6
18 10 40 10 22 0 40 -4 40 -10z m650 -938 c0 -14 -2 -14 -9 -3 -5 7 -14 10
-20 7 -6 -4 -11 -3 -11 3 0 11 21 20 33 14 4 -2 7 -12 7 -21z m30 8 c0 -5 -2
-10 -4 -10 -3 0 -8 5 -11 10 -3 6 -1 10 4 10 6 0 11 -4 11 -10z m-26 -62 c6
-25 4 -28 -19 -26 -14 1 -25 8 -25 15 0 7 7 10 15 7 11 -4 15 0 15 17 0 28 5
23 14 -13z m104 -16 c2 -7 -6 -12 -17 -12 -21 0 -27 11 -14 24 9 9 26 2 31
-12z m-278 -2 c0 -5 -9 -10 -19 -10 -11 0 -23 5 -26 10 -4 6 5 10 19 10 14 0
26 -4 26 -10z m90 0 c0 -5 -4 -10 -9 -10 -6 0 -13 5 -16 10 -3 6 1 10 9 10 9
0 16 -4 16 -10z m390 0 c0 -5 -10 -10 -22 -10 -19 0 -20 2 -8 10 19 13 30 13
30 0z m120 -5 c0 -8 -7 -15 -15 -15 -16 0 -20 12 -8 23 11 12 23 8 23 -8z
m-227 -2 c-7 -2 -19 -2 -25 0 -7 3 -2 5 12 5 14 0 19 -2 13 -5z m184 1 c-3 -3
-12 -4 -19 -1 -8 3 -5 6 6 6 11 1 17 -2 13 -5z m-158 -41 c0 -11 -3 -13 -6 -5
-2 6 -17 12 -33 12 -16 0 -31 -6 -33 -12 -3 -8 -6 -6 -6 5 -1 13 7 17 39 17
32 0 40 -4 39 -17z m-121 -45 c17 -17 15 -25 -8 -31 -23 -6 -34 7 -26 28 7 18
18 19 34 3z m213 -12 c7 17 8 17 8 -3 1 -20 -4 -23 -33 -23 -19 0 -38 5 -42
12 -5 8 -2 9 9 5 13 -5 17 -1 17 16 0 21 0 21 17 -2 16 -23 17 -23 24 -5z m83
-24 c-25 -6 -32 2 -22 28 l9 25 14 -25 c12 -21 12 -25 -1 -28z m-484 12 c0 -2
-9 -4 -21 -4 -11 0 -18 4 -14 10 5 8 35 3 35 -6z m80 6 c0 -5 -10 -10 -22 -10
-19 0 -20 2 -8 10 19 13 30 13 30 0z m210 -2 c17 10 20 10 20 -3 0 -11 -11
-15 -40 -15 -29 0 -40 4 -40 15 0 13 3 13 20 3 16 -10 24 -10 40 0z m87 -88
c2 -21 -2 -30 -12 -30 -10 0 -15 10 -15 30 0 39 24 39 27 0z m-340 -2 c-3 -8
-6 -5 -6 6 -1 11 2 17 5 13 3 -3 4 -12 1 -19z m146 0 c14 -22 1 -48 -23 -48
-13 0 -20 7 -20 19 0 48 22 63 43 29z m214 -10 c-3 -7 -5 -2 -5 12 0 14 2 19
5 13 2 -7 2 -19 0 -25z m-507 -22 c0 -11 -19 -15 -25 -6 -3 5 1 10 9 10 9 0
16 -2 16 -4z m115 -6 c-3 -5 -12 -10 -20 -10 -8 0 -17 5 -20 10 -4 6 5 10 20
10 15 0 24 -4 20 -10z m90 0 c-3 -5 -15 -10 -25 -10 -10 0 -22 5 -25 10 -4 6
7 10 25 10 18 0 29 -4 25 -10z m185 0 c0 -5 -7 -10 -15 -10 -8 0 -15 5 -15 10
0 6 7 10 15 10 8 0 15 -4 15 -10z m7 -175 c-1 -30 -6 -55 -12 -55 -23 1 -40
28 -42 68 -2 40 -1 42 27 42 29 0 29 0 27 -55z m33 -3 c0 -7 -4 -10 -10 -7 -5
3 -10 16 -10 28 0 18 2 19 10 7 5 -8 10 -21 10 -28z m170 18 c0 -5 -4 -10 -10
-10 -5 0 -10 5 -10 10 0 6 5 10 10 10 6 0 10 -4 10 -10z m-330 -32 c0 -5 -4
-8 -10 -8 -5 0 -10 10 -10 23 0 18 2 19 10 7 5 -8 10 -18 10 -22z m210 12 c0
-5 -2 -10 -4 -10 -3 0 -8 5 -11 10 -3 6 -1 10 4 10 6 0 11 -4 11 -10z m0 -35
c0 -10 -10 -15 -30 -15 -16 0 -30 4 -30 9 0 8 10 12 53 20 4 0 7 -6 7 -14z
m-1742 -240 c8 -8 -311 -5 -330 3 -10 4 60 6 154 4 94 -1 174 -4 176 -7z m218
3 c3 -4 -33 -8 -80 -8 -52 0 -86 4 -86 10 0 13 158 11 166 -2z m-616 -73 c0
-25 -2 -26 -51 -24 -52 3 -65 10 -55 34 4 11 21 15 56 15 47 0 50 -2 50 -25z
m240 11 c0 -22 -19 -30 -85 -34 -78 -4 -105 3 -105 28 0 19 7 20 95 20 76 0
95 -3 95 -14z m377 -9 c-6 -18 -147 -25 -164 -9 -23 23 -8 27 82 24 60 -3 85
-7 82 -15z m1103 -16 c0 -34 -9 -44 -27 -30 -9 8 -13 8 -13 1 0 -11 -140 -19
-427 -24 l-153 -3 0 -42 0 -43 69 0 c119 0 191 11 192 29 0 11 3 8 9 -6 11
-27 30 -30 31 -5 1 13 2 14 5 2 9 -31 42 -39 173 -41 l131 -2 0 -79 c0 -43 -3
-78 -7 -78 -5 0 -6 25 -5 55 3 35 0 55 -7 55 -6 0 -11 -19 -11 -44 l0 -44
-232 -7 c-232 -7 -347 -6 -380 2 -15 4 -18 16 -18 84 0 72 2 79 20 79 17 0 20
7 20 39 0 30 -4 40 -20 44 -15 4 -20 14 -20 41 0 20 6 38 14 43 8 4 159 7 335
5 l321 -3 0 -28z m393 -11 c-1 -25 -2 -95 -2 -155 1 -123 -6 -161 -27 -169
-21 -8 -164 5 -164 15 0 5 37 10 83 11 l82 2 -77 3 -78 4 2 64 c1 36 5 70 9
77 9 14 11 14 76 16 36 2 44 6 57 34 21 41 21 45 -11 54 -36 10 -73 12 -73 3
0 -3 -11 -6 -24 -6 -19 0 -26 6 -31 29 -10 43 8 57 78 61 106 6 102 8 100 -43z
m135 38 c6 -8 8 -70 5 -170 l-6 -158 -46 -2 -46 -1 43 -4 c29 -3 42 -9 42 -19
0 -12 -10 -14 -42 -12 l-43 3 -3 70 c-2 39 0 94 3 123 l6 52 40 0 c57 0 54 28
-3 32 -36 3 -44 7 -46 27 -2 12 -1 34 2 47 5 20 13 24 45 24 21 0 43 -6 49
-12z m-1848 -13 c0 -11 -12 -15 -42 -16 -70 -2 -85 2 -73 20 3 6 31 11 61 11
41 0 54 -4 54 -15z m458 3 c-3 -9 -33 -13 -103 -13 -70 0 -100 4 -102 13 -4 9
21 12 102 12 81 0 106 -3 103 -12z m162 -33 c0 -38 -3 -45 -20 -45 -16 0 -20
7 -20 30 0 17 -3 29 -7 29 -29 -5 -62 3 -67 16 -4 12 5 15 54 15 l60 0 0 -45z
m868 10 l3 -30 -66 3 c-65 4 -65 4 -65 33 l0 30 63 -3 c61 -3 62 -4 65 -33z
m-1030 -167 c-2 -37 -9 -73 -15 -79 -20 -20 -170 -9 -185 13 -4 7 -7 42 -6 78
3 74 -3 69 117 74 44 2 66 7 70 17 9 29 22 -39 19 -103z m-858 2 l0 -78 -55
-4 -55 -3 0 81 c0 44 2 83 4 85 2 2 27 2 55 1 l51 -4 0 -78z m226 24 c9 -48
-3 -107 -21 -100 -8 3 -16 0 -19 -7 -4 -8 -8 -8 -11 -2 -3 7 -28 9 -66 5 -33
-3 -62 -4 -64 -1 -8 7 -5 135 3 148 11 17 112 21 144 5 19 -9 29 -24 34 -48z
m759 52 c16 -11 20 -30 23 -110 4 -91 3 -96 -16 -96 -14 0 -22 8 -24 22 -5 34
-50 32 -59 -2 -4 -14 -7 22 -8 82 -1 103 0 107 22 111 39 8 43 7 62 -7z m-622
-5 l37 -1 0 -74 0 -74 -57 -5 c-32 -2 -59 -3 -61 -2 -7 7 -14 115 -9 137 5 18
13 24 29 22 13 -1 40 -3 61 -3z m236 -5 c12 -8 16 -132 3 -140 -4 -2 -41 -6
-82 -7 l-75 -2 -3 58 c-5 98 -4 100 76 99 38 -1 74 -4 81 -8z m1254 -68 c10
-33 -5 -48 -49 -48 -57 0 -58 19 -1 22 l42 1 -42 4 c-29 3 -43 9 -43 19 0 18
86 20 93 2z m24 -30 c-3 -7 -5 -2 -5 12 0 14 2 19 5 13 2 -7 2 -19 0 -25z m0
-80 c-2 -13 -4 -3 -4 22 0 25 2 35 4 23 2 -13 2 -33 0 -45z m-7 -38 c0 -13
-16 -15 -65 -12 -57 5 -58 20 -2 24 47 3 67 0 67 -12z m-190 1 c0 -5 -10 -11
-22 -15 -33 -8 -543 -7 -534 1 4 4 114 10 244 13 130 4 254 7 275 8 20 1 37
-2 37 -7z m1467 -85 c1 -1 3 -62 5 -136 l3 -135 -40 -1 c-22 -1 -46 1 -52 4
-18 6 -5 23 15 20 21 -4 27 51 13 137 l-10 60 2 -65 c2 -52 -1 -65 -13 -65
-12 0 -16 19 -18 97 l-3 98 48 -7 c26 -3 49 -6 50 -7z m-2299 -76 c1 -30 -1
-82 -5 -115 l-8 -60 -59 0 -59 0 -3 85 c-1 47 0 100 3 118 l6 34 61 -4 61 -4
3 -54z m-288 39 c0 -8 4 -9 13 0 21 17 27 3 27 -63 0 -50 -4 -63 -20 -74 -14
-8 -20 -23 -20 -47 0 -34 -1 -35 -39 -35 -35 0 -39 3 -45 31 -8 40 -8 147 0
177 5 18 13 22 45 22 22 0 39 -5 39 -11z m426 -19 c11 0 14 -17 14 -77 0 -85
-11 -116 -32 -95 -9 9 -9 12 4 12 11 0 15 6 11 21 -4 16 -8 17 -14 7 -5 -7 -8
24 -8 77 1 50 3 82 6 73 2 -10 11 -18 19 -18z m416 -67 c-3 -78 -7 -93 -20
-94 -13 0 -13 -2 3 -9 50 -22 55 -16 55 70 l0 80 44 0 c49 0 101 -16 128 -39
22 -19 26 -111 6 -111 -23 0 16 -20 40 -20 18 0 22 5 22 34 0 62 13 156 21
156 5 0 9 -42 9 -94 0 -88 -1 -94 -22 -101 -37 -11 -260 -16 -460 -9 l-188 7
0 95 0 94 40 -4 c22 -2 41 1 43 7 2 5 7 -26 12 -70 5 -55 4 -80 -4 -83 -6 -2
-11 -10 -11 -18 0 -10 12 -14 40 -14 l40 0 0 95 0 95 94 0 c78 0 95 3 100 16
11 28 12 13 8 -83z m1100 -5 c2 -57 1 -109 -2 -116 -4 -8 -34 -14 -86 -17 -88
-5 -114 0 -114 20 0 10 9 12 33 9 17 -3 59 -1 92 4 33 5 48 10 33 11 -51 2
-58 10 -58 61 0 29 -5 50 -12 52 -9 3 -9 12 1 36 11 26 19 31 54 35 23 2 45 4
49 5 4 1 8 -44 10 -100z m-2197 82 c3 -5 15 -6 28 -1 14 6 30 5 41 -1 16 -9
17 -19 11 -87 -4 -42 -8 -85 -9 -95 -1 -17 -9 -20 -53 -22 l-53 -2 0 103 c0
56 3 105 7 108 9 10 21 9 28 -3z m1781 -5 c12 -11 13 -33 8 -110 l-7 -95 -83
0 -84 0 0 100 0 100 40 0 c29 0 40 -4 40 -15 0 -22 21 -18 27 4 3 11 12 22 22
24 9 3 17 5 19 6 2 0 10 -6 18 -14z m145 4 c18 -9 20 -19 18 -110 l-2 -99 -46
0 -46 0 3 102 c2 65 8 105 15 110 17 11 35 10 58 -3z m-2103 -15 c18 -5 15
-31 -5 -38 -37 -14 -100 24 -77 47 6 5 51 1 82 -9z m2222 -47 c0 -9 -5 -19
-10 -22 -6 -4 -10 -14 -9 -23 4 -23 -10 -62 -22 -62 -10 0 -13 153 -3 163 9 8
44 -37 44 -56z m-1673 -9 c-2 -13 -4 -3 -4 22 0 25 2 35 4 23 2 -13 2 -33 0
-45z m493 22 c0 -22 -4 -40 -10 -40 -5 0 -10 18 -10 40 0 22 5 40 10 40 6 0
10 -18 10 -40z m680 0 c0 -22 5 -40 10 -40 6 0 10 -27 10 -60 l0 -60 -55 0
c-30 0 -55 3 -56 8 0 4 -2 16 -5 27 -2 11 -1 53 2 93 l6 72 44 0 44 0 0 -40z
m-1723 -97 l1 -73 -31 5 c-18 2 -38 4 -44 4 -17 1 -17 83 -1 99 10 10 10 15
-1 22 -11 6 -7 9 15 13 58 9 59 7 61 -70z m820 35 c-3 -8 -6 -5 -6 6 -1 11 2
17 5 13 3 -3 4 -12 1 -19z m1610 -40 c-2 -13 -4 -3 -4 22 0 25 2 35 4 23 2
-13 2 -33 0 -45z m-1957 -27 c0 -6 -4 -13 -10 -16 -5 -3 -10 1 -10 9 0 9 5 16
10 16 6 0 10 -4 10 -9z m1957 -23 c-3 -8 -6 -5 -6 6 -1 11 2 17 5 13 3 -3 4
-12 1 -19z"/>
<path d="M4738 2743 c12 -2 32 -2 45 0 12 2 2 4 -23 4 -25 0 -35 -2 -22 -4z"/>
<path d="M4898 2743 c12 -2 32 -2 45 0 12 2 2 4 -23 4 -25 0 -35 -2 -22 -4z"/>
<path d="M3600 2358 c-3 -26 -1 -43 3 -39 5 5 7 26 5 47 l-3 39 -5 -47z"/>
<path d="M3363 2360 c0 -25 2 -35 4 -22 2 12 2 32 0 45 -2 12 -4 2 -4 -23z"/>
<path d="M3011 6963 c-1 -47 3 -75 12 -80 6 -4 18 -20 26 -35 8 -16 38 -53 68
-84 29 -31 53 -61 53 -66 0 -5 -19 -8 -42 -6 -41 3 -43 2 -41 -23 l1 -27 -24
25 c-28 28 -31 43 -8 43 9 0 14 7 12 17 -4 22 -28 29 -28 9 0 -9 -7 -16 -15
-16 -23 0 -21 -132 2 -151 9 -8 18 -13 20 -11 2 1 22 -19 44 -45 88 -104 98
-113 125 -113 25 0 26 2 20 33 -3 17 -14 37 -23 44 -18 14 -21 45 -10 113 3
25 3 34 -1 20 -7 -22 -9 -23 -15 -7 -11 30 -8 37 18 37 14 0 29 -8 35 -20 6
-11 17 -20 25 -20 9 0 15 -10 15 -25 0 -22 4 -25 34 -25 88 0 89 36 4 128 -34
37 -67 73 -73 80 -5 7 -18 22 -27 33 -10 10 -18 22 -18 25 0 10 -58 64 -69 64
-6 0 -11 6 -11 13 0 6 -19 33 -43 58 -23 25 -47 54 -54 65 -10 16 -12 7 -12
-53z m129 -335 c0 -7 -5 -20 -10 -28 -8 -12 -10 -9 -10 13 0 15 5 27 10 27 6
0 10 -6 10 -12z"/>
<path d="M5780 6971 c-22 -7 -23 -9 -7 -16 35 -15 92 -11 92 5 0 17 -46 23
-85 11z"/>
<path d="M8583 6924 c-16 -12 -16 -15 -3 -23 17 -11 89 -4 105 11 27 25 -70
36 -102 12z"/>
<path d="M3032 6805 c-9 -11 -10 -20 -3 -33 9 -15 10 -15 11 6 0 12 5 22 10
22 6 0 10 5 10 10 0 14 -13 12 -28 -5z"/>
<path d="M3060 6490 c0 -5 5 -10 11 -10 5 0 7 5 4 10 -3 6 -8 10 -11 10 -2 0
-4 -4 -4 -10z"/>
<path d="M9058 4963 c12 -2 32 -2 45 0 12 2 2 4 -23 4 -25 0 -35 -2 -22 -4z"/>
<path d="M9273 4963 c42 -2 112 -2 155 0 42 1 7 3 -78 3 -85 0 -120 -2 -77 -3z"/>
<path d="M7270 4841 l0 -39 93 -6 c50 -3 346 -8 657 -11 611 -6 1023 -12 1303
-21 l177 -5 0 40 0 39 -72 10 -73 9 73 2 c40 0 72 5 72 11 0 16 -1377 14
-1384 -2 -5 -10 -7 -10 -12 0 -4 9 -98 12 -420 12 l-414 0 0 -39z m2010 19 c0
-6 -33 -9 -82 -8 -71 1 -77 2 -38 8 70 11 120 11 120 0z"/>
<path d="M8192 4623 l3 -48 164 0 164 0 2 40 c1 22 -3 43 -9 47 -6 4 -82 8
-169 8 l-158 0 3 -47z"/>
<path d="M9368 4605 l4 -45 64 0 64 0 0 45 0 45 -68 0 -67 0 3 -45z"/>
<path d="M3022 4308 c-9 -9 -12 -147 -12 -560 l0 -548 373 -1 c204 0 518 -1
697 -2 179 -1 305 1 280 4 l-45 6 39 1 c30 2 47 10 73 37 19 19 43 35 54 35
18 0 19 2 6 14 -9 9 -47 17 -101 22 -93 7 -119 21 -114 58 3 20 7 21 138 18
74 -1 154 -5 178 -8 33 -4 43 -2 49 11 11 29 -17 35 -169 35 -81 0 -149 3
-151 8 -3 4 61 6 143 4 125 -3 148 -1 153 12 11 28 -29 37 -166 36 -72 -1
-138 -1 -145 -1 -11 1 -12 60 -7 324 4 210 3 327 -4 337 -10 15 -107 28 -212
29 l-55 1 4 52 c2 40 -1 55 -13 64 -26 19 -73 -13 -85 -58 -10 -34 -14 -37
-66 -48 -30 -7 -74 -9 -97 -6 -23 4 -163 6 -310 6 -191 -1 -273 2 -283 11 -10
8 -18 8 -27 1 -7 -6 -23 -8 -36 -5 -22 5 -23 10 -19 64 l4 59 -31 0 c-17 0
-36 -5 -43 -12z m1237 -182 c8 -9 10 -92 6 -292 -4 -154 -8 -294 -11 -311 l-5
-33 -125 0 -126 0 6 28 c3 15 8 158 12 317 3 160 8 293 11 298 2 4 53 7 112 7
80 0 112 -4 120 -14z m-1011 -28 c-5 -15 -60 -16 -65 -2 -2 6 13 11 32 12 24
1 35 -3 33 -10z m207 -3 c0 -5 -21 -11 -47 -13 -39 -3 -48 0 -48 13 0 13 9 16
48 13 26 -2 47 -7 47 -13z m225 0 c0 -12 -14 -14 -70 -13 -57 1 -68 3 -59 15
17 19 129 18 129 -2z m160 1 c0 -9 -15 -15 -46 -18 -47 -3 -67 7 -43 23 23 15
89 11 89 -5z m123 -107 c-5 -18 -23 -27 -23 -11 1 25 14 52 20 42 4 -7 5 -21
3 -31z m3 -306 c-4 -135 -7 -159 -22 -170 -20 -15 -104 -18 -104 -4 0 5 -10
11 -22 13 l-23 3 23 20 c12 11 22 27 22 37 0 12 8 18 21 18 17 0 20 5 16 21
-4 15 0 23 14 26 23 6 63 68 56 87 -5 14 11 106 19 106 3 0 2 -71 0 -157z
m-606 -43 c0 -5 -5 -10 -11 -10 -5 0 -7 5 -4 10 3 6 8 10 11 10 2 0 4 -4 4
-10z m400 -105 c0 -9 -9 -15 -22 -15 -22 1 -23 1 -4 15 25 19 26 19 26 0z
m-17 -32 c-13 -2 -33 -2 -45 0 -13 2 -3 4 22 4 25 0 35 -2 23 -4z"/>
<path d="M7280 4003 c0 -23 8 -32 40 -47 22 -11 40 -23 40 -28 0 -4 18 -8 39
-8 22 0 43 -4 46 -10 3 -5 40 -10 81 -10 66 0 74 2 74 19 0 20 -3 21 -102 41
-38 7 -58 16 -58 26 0 10 -12 14 -39 14 -22 0 -41 4 -43 9 -1 4 -20 11 -40 15
-37 7 -38 6 -38 -21z"/>
<path d="M4890 3990 c0 -5 7 -10 15 -10 8 0 15 5 15 10 0 6 -7 10 -15 10 -8 0
-15 -4 -15 -10z"/>
<path d="M4945 3990 c-3 -5 1 -10 9 -10 8 0 18 5 21 10 3 6 -1 10 -9 10 -8 0
-18 -4 -21 -10z"/>
<path d="M5000 3990 c0 -5 7 -10 15 -10 8 0 15 5 15 10 0 6 -7 10 -15 10 -8 0
-15 -4 -15 -10z"/>
<path d="M5055 3990 c-20 -8 -20 -9 1 -9 12 -1 50 -3 85 -6 61 -4 62 -4 14 4
-27 5 -57 11 -65 14 -8 3 -24 2 -35 -3z"/>
<path d="M4800 3980 c0 -5 7 -10 16 -10 8 0 12 5 9 10 -3 6 -10 10 -16 10 -5
0 -9 -4 -9 -10z"/>
<path d="M5245 3980 c-4 -7 13 -8 52 -4 76 9 80 14 10 14 -31 0 -59 -5 -62
-10z"/>
<path d="M8263 3763 c-8 -19 -9 -159 -6 -718 1 -214 -2 -412 -6 -440 l-8 -50
-2 71 c-2 129 -46 162 -216 163 -169 1 -174 -7 -187 -269 -11 -239 -12 -244
-68 -250 -38 -4 -45 -9 -51 -33 -16 -58 -27 -56 369 -73 140 -6 152 -8 152
-25 0 -15 8 -19 40 -19 22 0 40 -4 40 -9 0 -5 36 -12 80 -16 44 -4 80 -11 80
-16 0 -5 18 -9 40 -9 22 0 40 -4 40 -10 0 -5 18 -10 40 -10 29 0 40 4 40 15 0
11 11 15 40 15 27 0 40 4 40 13 0 11 29 15 117 20 66 4 119 11 121 17 2 5 21
10 43 10 21 0 40 3 40 8 7 42 9 83 9 252 0 107 -2 350 -6 540 -3 219 -2 340 4
331 7 -9 12 -10 16 -2 4 6 14 11 22 11 12 0 14 -27 14 -155 0 -95 -4 -164 -12
-180 -9 -20 -8 -31 3 -52 10 -22 14 -103 17 -363 2 -184 4 -343 4 -352 -1 -14
8 -18 41 -18 23 0 85 -3 137 -6 52 -2 121 -2 153 2 l57 6 0 104 0 104 -27 -6
c-16 -4 -29 -11 -31 -16 -2 -4 -21 -8 -43 -8 -39 0 -39 0 -39 -40 l0 -40 -78
0 c-67 0 -79 3 -90 21 -9 14 -10 24 -3 33 13 15 13 646 0 646 -5 0 -9 168 -9
404 l0 404 -22 6 c-13 3 -218 6 -456 6 -399 0 -433 -1 -439 -17z m687 -732 c0
-17 -18 -21 -24 -6 -3 9 0 15 9 15 8 0 15 -4 15 -9z m-640 -235 c0 -3 -4 -8
-10 -11 -5 -3 -10 -1 -10 4 0 6 5 11 10 11 6 0 10 -2 10 -4z m867 -278 c-2
-24 -4 -5 -4 42 0 47 2 66 4 43 2 -24 2 -62 0 -85z m-1288 -123 l2 -125 -27 0
c-22 0 -25 3 -21 23 3 12 9 68 13 125 5 72 10 102 19 102 10 0 13 -31 14 -125z
m316 -22 c-5 -99 -10 -119 -21 -89 -4 10 -10 13 -13 8 -3 -5 -63 -11 -133 -14
l-127 -5 3 36 c2 20 4 51 5 69 1 27 5 32 24 31 18 -1 19 -2 3 -6 -16 -4 -13
-10 20 -44 31 -32 45 -39 76 -39 31 0 38 4 38 20 0 17 7 20 40 20 36 0 40 3
40 25 0 18 -7 26 -25 31 -14 3 -25 9 -25 13 0 6 74 38 92 40 4 1 5 -42 3 -96z
m982 -35 c-2 -13 -4 -3 -4 22 0 25 2 35 4 23 2 -13 2 -33 0 -45z"/>
<path d="M8038 2303 c23 -2 61 -2 85 0 23 2 4 4 -43 4 -47 0 -66 -2 -42 -4z"/>
<path d="M7956 3218 c-3 -7 -4 -42 -3 -78 l2 -65 68 -3 68 -3 -3 78 -3 78 -63
3 c-44 2 -63 -1 -66 -10z m124 -58 c0 -5 -25 -10 -55 -10 -30 0 -55 5 -55 10
0 6 25 10 55 10 30 0 55 -4 55 -10z"/>
<path d="M7899 3180 c-4 -42 -1 -64 9 -68 8 -2 12 10 12 37 0 23 -4 41 -10 41
-5 0 -10 -4 -11 -10z"/>
<path d="M3010 3161 c0 -21 0 -21 455 -21 258 0 455 4 455 9 0 5 -111 12 -247
15 -137 3 -341 9 -455 12 -206 6 -208 6 -208 -15z"/>
<path d="M7613 3000 c0 -25 2 -35 4 -22 2 12 2 32 0 45 -2 12 -4 2 -4 -23z"/>
<path d="M9354 2450 c-6 -6 -8 -29 -5 -53 5 -35 10 -43 30 -45 16 -3 31 4 45
21 12 13 28 26 36 30 9 3 10 6 3 6 -18 1 -16 21 2 21 31 0 14 18 -22 24 -54 8
-78 7 -89 -4z"/>
<path d="M7085 2220 c-8 -13 98 -20 332 -20 220 0 263 3 263 19 0 9 -589 10
-595 1z"/>
<path d="M9070 2215 c0 -8 5 -15 10 -15 6 0 10 7 10 15 0 8 -4 15 -10 15 -5 0
-10 -7 -10 -15z"/>
<path d="M5545 2150 c4 -6 11 -8 16 -5 14 9 11 15 -7 15 -8 0 -12 -5 -9 -10z"/>
<path d="M8930 969 c-8 -15 -10 -121 -4 -375 l7 -354 283 0 284 0 0 90 c0 63
-4 91 -13 97 -33 20 -47 58 -47 130 0 78 13 119 40 128 11 4 17 17 18 38 1 28
-1 30 -12 15 -20 -27 -25 -22 -19 20 3 24 0 50 -9 66 -14 26 -16 27 -31 11
-23 -22 -21 -35 4 -35 19 0 20 -4 15 -35 -4 -21 -2 -44 5 -57 11 -21 11 -22
-4 -9 -10 7 -17 27 -17 43 0 23 -4 29 -16 24 -11 -4 -18 1 -21 14 -3 11 -9 20
-14 20 -5 0 -9 12 -9 26 0 14 -3 23 -7 21 -5 -3 -44 -2 -88 3 -64 6 -71 8 -35
10 l45 3 -45 7 -45 7 43 1 42 2 0 40 0 39 113 4 c109 3 107 3 -43 6 -107 3
-141 6 -110 11 28 4 -20 8 -127 8 -165 2 -173 1 -183 -19z m22 -254 c3 -138 2
-200 -2 -145 -8 99 -13 396 -6 389 2 -2 5 -112 8 -244z m374 113 c27 -9 37
-21 49 -57 19 -57 20 -131 1 -131 -7 0 -16 -8 -19 -19 -6 -25 -58 -49 -95 -43
-38 5 -85 -5 -77 -17 8 -14 9 -114 1 -139 -8 -25 -31 -29 -39 -8 -5 11 -11
376 -8 419 1 12 152 8 187 -5z"/>
<path d="M9190 710 l0 -90 39 0 c63 0 89 14 100 55 12 45 7 76 -16 92 -10 7
-23 17 -30 23 -7 5 -30 10 -53 10 l-40 0 0 -90z"/>
<path d="M9328 873 c6 -2 18 -2 25 0 6 3 1 5 -13 5 -14 0 -19 -2 -12 -5z"/>
<path d="M9370 870 c0 -5 5 -10 10 -10 6 0 10 5 10 10 0 6 -4 10 -10 10 -5 0
-10 -4 -10 -10z"/>
<path d="M9460 874 c0 -9 31 -37 36 -32 9 9 -8 38 -22 38 -8 0 -14 -3 -14 -6z"/>
<path d="M9487 603 c-11 -10 -8 -73 3 -73 6 0 10 18 10 40 0 41 -2 45 -13 33z"/>
</g>
</svg>
