<?xml version="1.0" standalone="no"?>
<!DOCTYPE svg PUBLIC "-//W3C//DTD SVG 20010904//EN"
 "http://www.w3.org/TR/2001/REC-SVG-20010904/DTD/svg10.dtd">
<svg version="1.0" xmlns="http://www.w3.org/2000/svg"
 width="1280.000000pt" height="720.000000pt" viewBox="0 0 1280.000000 720.000000"
 preserveAspectRatio="xMidYMid meet">
<metadata>
Created by potrace 1.16, written by Peter Selinger 2001-2019
</metadata>
<g transform="translate(0.000000,720.000000) scale(0.100000,-0.100000)"
fill="#000000" stroke="none">
<path d="M6238 7095 c-31 -21 -38 -33 -48 -80 -6 -30 -16 -55 -21 -55 -5 0 -9
-9 -9 -20 0 -11 -4 -20 -10 -20 -5 0 -10 -9 -10 -20 0 -11 -4 -20 -9 -20 -5 0
-20 -21 -33 -47 -18 -38 -24 -71 -29 -163 -3 -63 -15 -153 -26 -200 -11 -47
-26 -123 -33 -169 -7 -47 -19 -96 -26 -110 -8 -14 -14 -33 -14 -41 0 -29 -120
-214 -161 -251 -23 -20 -52 -56 -64 -80 -12 -24 -33 -50 -47 -57 -24 -11 -141
-122 -163 -154 -21 -30 -35 -53 -42 -68 -4 -8 -12 -20 -17 -27 -30 -34 -36
-43 -36 -53 0 -7 -24 -35 -53 -63 -70 -69 -157 -172 -157 -186 0 -6 -6 -11
-14 -11 -7 0 -16 -8 -20 -17 -8 -25 -29 -57 -43 -66 -7 -4 -13 -13 -13 -19 0
-6 -29 -59 -64 -118 -87 -144 -93 -167 -77 -288 20 -164 47 -280 127 -547 26
-90 32 -134 20 -154 -10 -15 9 -31 37 -31 9 0 17 -4 17 -10 0 -5 -9 -10 -21
-10 -18 0 -20 -4 -15 -26 4 -15 29 -64 57 -109 27 -45 49 -87 49 -94 0 -6 5
-11 10 -11 6 0 10 -7 10 -15 0 -9 11 -20 23 -24 13 -5 29 -22 34 -38 6 -15 21
-55 33 -88 36 -99 41 -109 61 -123 17 -12 19 -26 19 -127 0 -91 -4 -125 -20
-165 -11 -28 -20 -61 -20 -74 0 -13 -9 -58 -19 -99 -24 -96 -16 -140 31 -179
18 -15 44 -32 58 -39 14 -6 33 -15 42 -20 10 -5 33 -9 51 -9 19 0 48 -5 66
-11 l31 -11 -1 -131 c0 -73 -4 -157 -8 -187 -6 -37 -5 -57 3 -63 7 -5 5 -11
-6 -18 -13 -7 -18 -23 -18 -55 0 -24 -9 -70 -21 -102 -68 -184 -88 -526 -52
-892 21 -220 21 -294 -3 -397 -13 -55 -23 -77 -36 -81 -10 -2 -18 -10 -18 -17
0 -7 -17 -16 -37 -20 -39 -8 -43 -9 -103 -20 -56 -11 -89 -32 -88 -57 3 -41
34 -72 92 -92 49 -17 73 -18 213 -12 88 3 159 11 161 16 2 6 10 10 18 10 10 0
14 14 14 56 0 33 10 86 25 130 27 82 31 124 13 153 -9 14 -8 23 5 42 10 13 17
35 17 49 0 25 18 127 46 265 8 39 19 102 24 140 26 198 42 341 50 443 4 63 13
119 19 125 6 6 11 23 11 37 0 14 5 31 10 36 12 12 90 213 90 231 0 7 -5 13
-12 13 -7 0 -4 6 5 13 20 15 47 146 54 265 4 58 9 82 18 82 7 0 15 6 18 13 3
9 30 13 98 12 85 -1 98 -4 138 -29 l43 -28 -5 -51 c-13 -120 -28 -207 -51
-289 -13 -48 -20 -88 -16 -90 18 -6 -42 -178 -62 -178 -4 0 -8 -8 -8 -18 0
-10 -4 -22 -8 -27 -5 -6 -19 -39 -32 -75 -13 -36 -32 -79 -41 -97 -26 -46 -70
-171 -79 -223 -10 -58 -71 -279 -109 -395 -32 -100 -43 -138 -66 -237 -20 -86
-35 -119 -87 -200 -27 -39 -24 -168 3 -168 16 0 54 -40 54 -57 0 -19 94 -70
155 -84 25 -6 179 -13 342 -15 287 -4 297 -4 308 15 14 27 13 35 -7 58 -16 18
-58 28 -188 48 -16 3 -35 11 -41 20 -6 8 -17 15 -24 15 -8 0 -35 22 -62 50
-26 27 -51 50 -56 50 -16 0 -79 67 -92 98 -23 59 -18 111 18 192 18 41 37 84
42 95 72 167 104 235 111 235 9 0 31 45 53 108 9 24 22 50 31 58 8 9 15 23 15
33 0 9 9 36 20 59 11 22 20 46 20 52 0 5 5 10 10 10 6 0 10 9 10 20 0 11 5 20
10 20 6 0 10 6 10 14 0 17 62 179 71 186 3 3 9 19 12 35 14 82 66 218 89 235
3 3 9 22 13 43 4 20 11 37 16 37 5 0 9 9 9 19 0 11 8 33 18 50 15 28 15 33 2
42 -11 8 -12 12 -2 16 7 3 12 24 12 51 0 49 18 128 43 197 14 36 18 40 54 42
21 2 85 10 142 19 l103 17 -6 71 c-4 39 -11 143 -16 231 -6 88 -14 186 -20
218 -8 53 -7 65 17 125 15 37 30 68 34 70 15 6 32 74 21 81 -12 7 -18 110 -14
239 2 75 4 82 22 82 17 0 20 7 20 40 0 22 -4 40 -10 40 -5 0 -10 18 -10 40 0
22 4 40 8 40 5 0 12 42 16 93 4 50 12 130 18 177 15 126 13 252 -5 370 -9 58
-17 133 -17 167 0 53 3 63 20 68 11 3 20 14 20 23 0 33 -13 62 -26 62 -11 0
-14 19 -15 78 0 42 -4 201 -8 352 -8 287 -10 300 -61 392 -6 10 -10 27 -10 38
0 11 -6 20 -12 20 -21 0 -73 71 -58 80 8 5 9 13 2 26 -18 36 -40 89 -57 138
-14 38 -15 50 -5 56 10 6 8 18 -9 54 -13 25 -26 46 -31 46 -4 0 -11 12 -15 27
-7 28 -45 117 -70 164 -8 15 -21 53 -30 85 -8 32 -19 62 -25 68 -5 5 -10 25
-10 43 0 18 -4 41 -10 51 -5 9 -25 55 -45 102 -60 142 -79 180 -92 180 -7 0
-13 7 -13 15 0 13 -22 38 -75 83 -8 6 -21 12 -30 12 -8 0 -15 8 -15 18 0 21
-38 59 -91 90 -31 19 -51 22 -135 21 -87 0 -103 -3 -136 -24z m407 -372 c19
-45 23 -99 10 -130 -18 -43 -41 -42 -55 2 -10 30 -9 37 5 52 12 12 16 27 12
55 -5 40 14 55 28 21z m-820 -1456 c10 -18 23 -35 29 -39 6 -4 13 -60 17 -125
4 -65 10 -159 14 -208 7 -80 5 -100 -17 -175 -14 -47 -31 -112 -38 -145 -16
-76 -80 -249 -120 -321 -16 -30 -30 -64 -30 -75 0 -10 -4 -19 -9 -19 -5 0 -18
-33 -31 -72 -12 -40 -26 -83 -31 -96 -5 -13 -9 -34 -9 -47 0 -23 -4 -25 -41
-25 -52 0 -119 19 -119 34 0 7 -25 25 -56 41 -70 37 -104 79 -104 128 0 21 -5
37 -10 37 -14 0 -6 500 9 591 9 55 17 73 47 105 20 22 48 57 62 78 15 21 100
112 189 202 186 186 209 198 248 131z m-392 -1674 c-7 -2 -21 -2 -30 0 -10 3
-4 5 12 5 17 0 24 -2 18 -5z m7 -83 c0 -5 -4 -10 -10 -10 -5 0 -10 5 -10 10 0
6 5 10 10 10 6 0 10 -4 10 -10z"/>
<path d="M7290 4650 c0 -5 7 -10 16 -10 8 0 12 5 9 10 -3 6 -10 10 -16 10 -5
0 -9 -4 -9 -10z"/>
</g>
</svg>
