<?xml version="1.0" standalone="no"?>
<!DOCTYPE svg PUBLIC "-//W3C//DTD SVG 20010904//EN"
 "http://www.w3.org/TR/2001/REC-SVG-20010904/DTD/svg10.dtd">
<svg version="1.0" xmlns="http://www.w3.org/2000/svg"
 width="1280.000000pt" height="720.000000pt" viewBox="0 0 1280.000000 720.000000"
 preserveAspectRatio="xMidYMid meet">
<metadata>
Created by potrace 1.16, written by Peter Selinger 2001-2019
</metadata>
<g transform="translate(0.000000,720.000000) scale(0.100000,-0.100000)"
fill="#000000" stroke="none">
<path d="M6295 7189 c-88 -12 -117 -32 -128 -90 -6 -31 -15 -48 -29 -54 -12
-6 -25 -17 -29 -25 -3 -8 -13 -28 -20 -45 -8 -16 -24 -46 -36 -65 -78 -125
-166 -456 -164 -619 0 -49 -5 -75 -24 -110 -13 -25 -42 -86 -65 -136 -23 -49
-48 -97 -54 -105 -7 -8 -19 -35 -27 -60 -7 -25 -28 -67 -46 -93 -61 -90 -59
-76 -55 -612 2 -277 -8 -398 -47 -553 -21 -85 -45 -254 -61 -442 -14 -154 -29
-255 -40 -258 -6 -2 -10 -17 -10 -34 0 -16 -22 -76 -49 -131 -27 -56 -52 -113
-56 -127 -3 -14 -11 -35 -17 -47 -7 -15 -7 -40 1 -85 6 -36 11 -83 11 -105 0
-52 26 -114 51 -120 10 -3 19 -10 19 -16 0 -20 51 -77 69 -77 12 0 20 -10 24
-27 7 -35 -2 -83 -15 -83 -6 0 -8 -8 -5 -19 2 -10 -2 -52 -10 -92 -8 -41 -15
-85 -15 -99 0 -39 66 -88 201 -150 67 -30 121 -61 121 -67 0 -15 16 -17 25 -3
10 16 44 11 53 -7 5 -10 10 -38 11 -62 1 -25 4 -48 6 -52 7 -10 7 -295 0 -369
-3 -36 -10 -112 -15 -170 -12 -126 -12 -249 0 -310 25 -135 29 -165 22 -168
-5 -1 -7 -17 -5 -35 7 -56 84 -439 94 -464 5 -13 9 -82 8 -151 0 -152 -13
-187 -90 -246 -84 -64 -104 -112 -75 -179 l13 -33 59 8 c33 5 113 11 179 14
78 4 127 12 141 21 28 18 27 5 23 628 -1 83 4 202 10 265 6 63 14 239 17 390
4 203 10 289 21 330 38 135 44 175 50 332 6 158 7 168 26 168 19 0 19 -5 12
-168 -6 -139 -4 -181 11 -252 14 -72 16 -110 9 -250 -5 -91 -9 -338 -10 -550
-1 -317 -3 -389 -15 -410 -12 -19 -16 -77 -18 -262 l-4 -237 29 -14 c15 -8 52
-17 81 -20 29 -3 60 -13 69 -22 9 -9 22 -13 32 -9 22 9 37 12 94 19 61 8 117
59 117 107 0 30 -10 42 -92 113 -65 57 -79 104 -63 216 6 43 4 64 -7 86 -13
25 -13 31 -1 39 12 8 93 292 124 434 6 25 14 59 20 76 5 17 9 46 9 65 0 19 9
87 20 152 21 123 27 331 11 342 -5 3 -12 31 -16 63 -3 31 -8 71 -11 88 -4 26
-1 33 16 37 24 6 28 63 6 81 -15 11 -9 47 46 311 l13 60 85 10 c81 10 146 28
291 81 107 40 102 22 63 234 -18 102 -38 210 -44 240 -6 30 -16 88 -22 128
-10 72 -9 75 21 136 36 73 37 82 14 94 -14 8 -15 25 -10 137 3 71 10 131 14
134 9 6 15 190 16 456 0 79 -10 243 -24 375 -21 211 -23 272 -20 605 3 403 -3
464 -53 542 -26 41 -89 103 -106 103 -5 0 -10 21 -10 46 0 33 -7 57 -28 87
-45 67 -50 77 -97 173 -25 50 -45 101 -45 112 0 11 -5 33 -10 48 -6 15 -15 52
-20 83 -7 49 -29 142 -58 251 -16 63 -107 239 -183 353 -47 72 -85 99 -167
116 -59 12 -58 12 -157 0z m358 -292 c21 -39 43 -116 52 -179 7 -48 -21 -238
-35 -238 -8 0 -22 142 -24 250 -3 111 -5 127 -19 142 -11 12 -37 63 -37 73 0
16 49 -22 63 -48z m-997 -3165 c-23 -131 -46 -213 -63 -219 -25 -10 -26 6 -5
79 12 40 27 109 33 153 6 44 16 91 22 103 l11 24 10 -22 c6 -14 4 -52 -8 -118z
m1127 -1502 c-7 -25 -23 -37 -23 -16 0 23 11 46 20 41 5 -3 6 -14 3 -25z"/>
</g>
</svg>
