<?xml version="1.0" standalone="no"?>
<!DOCTYPE svg PUBLIC "-//W3C//DTD SVG 20010904//EN"
 "http://www.w3.org/TR/2001/REC-SVG-20010904/DTD/svg10.dtd">
<svg version="1.0" xmlns="http://www.w3.org/2000/svg"
 width="1280.000000pt" height="720.000000pt" viewBox="0 0 1280.000000 720.000000"
 preserveAspectRatio="xMidYMid meet">
<metadata>
Created by potrace 1.16, written by Peter Selinger 2001-2019
</metadata>
<g transform="translate(0.000000,720.000000) scale(0.100000,-0.100000)"
fill="#000000" stroke="none">
<path d="M6228 7155 c-46 -22 -64 -37 -66 -53 -2 -13 -17 -36 -33 -53 -16 -16
-29 -34 -29 -40 0 -6 -13 -30 -30 -54 -16 -24 -30 -48 -30 -54 0 -6 -4 -19
-10 -29 -11 -21 -65 -199 -79 -262 -5 -25 -15 -100 -22 -167 -7 -68 -15 -123
-19 -123 -4 0 -13 -18 -20 -40 -7 -22 -21 -48 -32 -59 -10 -11 -18 -27 -18
-36 0 -9 -9 -26 -20 -38 -12 -12 -23 -32 -26 -44 -4 -13 -12 -23 -20 -23 -8 0
-14 -7 -14 -15 0 -8 -9 -24 -20 -35 -22 -22 -27 -66 -8 -72 16 -6 1 -27 -28
-38 -13 -5 -24 -17 -24 -25 0 -9 -13 -28 -28 -43 -58 -55 -64 -109 -63 -580 0
-193 -4 -352 -9 -365 -5 -12 -14 -70 -19 -128 -5 -59 -16 -120 -24 -136 -19
-37 -38 -233 -44 -465 -3 -112 -9 -178 -15 -178 -6 0 -8 -12 -5 -30 4 -16 3
-32 -2 -34 -4 -3 -11 -25 -14 -48 -4 -24 -20 -77 -36 -118 -38 -97 -68 -294
-49 -318 31 -39 89 -72 129 -72 22 0 29 -5 29 -20 0 -11 5 -20 11 -20 13 0 6
-132 -11 -200 -6 -25 -15 -83 -20 -130 -5 -47 -12 -95 -15 -106 -7 -24 14 -34
75 -34 27 0 42 -8 70 -38 35 -38 36 -39 146 -52 62 -7 117 -16 124 -20 10 -6
15 -80 22 -285 9 -274 9 -278 -13 -324 -12 -25 -28 -67 -35 -93 -8 -27 -21
-72 -29 -100 -15 -54 -39 -418 -36 -558 1 -41 6 -117 13 -168 13 -117 6 -255
-15 -276 -8 -9 -18 -44 -22 -78 -4 -35 -11 -81 -17 -103 -5 -22 -13 -71 -18
-110 -4 -38 -15 -89 -24 -112 -11 -29 -14 -57 -9 -89 5 -38 15 -54 61 -100 47
-46 60 -54 94 -54 21 0 38 -4 38 -10 0 -5 18 -10 40 -10 28 0 40 4 40 15 0 8
17 19 40 26 37 11 56 25 88 63 16 20 15 75 -3 106 -8 14 -18 33 -21 42 -3 10
-10 18 -15 18 -5 0 -9 18 -9 39 0 22 -4 41 -10 43 -13 4 -15 375 -2 391 6 7
11 46 11 86 0 41 4 77 9 80 5 3 19 49 31 101 13 52 30 115 38 140 8 25 19 72
23 105 5 33 18 107 30 165 12 58 26 127 30 154 5 27 20 72 34 100 36 74 66
154 66 176 0 10 4 20 9 22 15 6 36 238 36 406 0 152 1 165 20 178 14 11 32 13
65 9 25 -4 48 -9 51 -11 3 -2 9 -77 12 -166 11 -268 36 -483 58 -498 12 -9 29
-129 29 -210 0 -66 10 -157 40 -391 5 -37 16 -104 24 -150 49 -264 58 -380 57
-746 0 -148 2 -183 13 -183 8 0 16 -7 20 -15 4 -12 29 -15 136 -15 109 0 130
2 130 15 0 9 9 15 25 15 23 0 25 4 25 44 0 26 6 51 15 60 8 8 15 19 15 25 0 6
4 11 9 11 23 0 16 30 -13 63 -18 21 -36 37 -40 37 -4 0 -12 4 -19 10 -81 65
-72 36 -88 300 -3 37 11 152 21 175 9 21 29 272 35 430 2 50 7 134 10 188 5
61 4 97 -2 97 -6 0 -13 26 -16 58 -8 71 -16 94 -30 85 -7 -4 -8 0 -3 12 3 10
0 27 -7 39 -7 12 -14 50 -15 86 -2 35 -7 67 -12 70 -5 3 -16 27 -24 52 -11 37
-12 74 -5 175 11 166 19 223 30 223 5 0 9 14 9 31 0 75 35 159 67 159 7 0 13
5 13 10 0 6 12 23 27 38 25 24 34 27 102 27 l76 0 6 205 c4 113 12 262 17 332
9 102 8 150 -3 245 -9 65 -19 131 -24 148 -5 16 -15 77 -22 135 -7 58 -15 107
-19 110 -6 5 -27 124 -37 210 -3 25 -8 47 -12 50 -3 3 -13 32 -22 65 -18 66
-48 164 -102 330 -20 61 -43 130 -51 155 -24 77 -40 230 -27 276 6 21 14 87
18 147 l6 107 48 0 47 0 18 -56 c10 -31 27 -69 39 -83 30 -36 86 -126 120
-191 15 -30 34 -62 41 -71 8 -8 14 -23 14 -32 0 -9 4 -17 9 -17 5 0 17 -24 25
-53 17 -60 69 -137 91 -137 8 0 15 -4 15 -10 0 -5 18 -28 40 -50 22 -22 40
-43 40 -46 0 -4 36 -42 80 -85 44 -43 80 -85 80 -94 0 -8 7 -15 16 -15 12 0
14 -7 10 -27 -5 -24 1 -33 42 -63 25 -19 60 -43 77 -54 16 -10 32 -22 35 -26
43 -67 149 -150 191 -150 13 0 42 -9 63 -21 21 -11 45 -18 52 -15 16 6 19 36
3 36 -6 0 -9 12 -7 28 l3 27 80 -1 c70 0 113 -9 213 -39 19 -6 22 -4 22 18 0
19 -8 27 -32 37 -18 6 -40 15 -48 20 -9 4 -30 11 -47 14 -17 4 -34 14 -37 22
-3 8 -19 14 -41 14 -19 0 -35 5 -35 10 0 6 -54 10 -142 10 -155 1 -178 7 -178
53 0 13 -6 27 -14 30 -8 3 -20 22 -27 41 -7 20 -19 36 -26 36 -7 0 -13 8 -13
19 0 10 -7 24 -15 31 -8 7 -15 18 -15 26 0 19 -32 84 -42 84 -4 0 -8 8 -8 18
0 10 -11 28 -25 40 -16 14 -25 32 -25 51 0 16 -7 34 -15 41 -8 7 -15 25 -15
39 0 16 -10 37 -25 51 -14 13 -25 28 -25 33 0 5 -11 23 -25 41 -51 63 -70 94
-113 179 -18 37 -38 67 -43 67 -5 0 -9 9 -9 20 0 11 -7 23 -15 26 -8 4 -15 12
-15 20 0 8 -4 14 -10 14 -5 0 -10 8 -10 18 0 9 -7 30 -15 46 -8 15 -15 37 -15
47 0 11 -4 19 -10 19 -5 0 -10 7 -10 15 0 8 -4 15 -8 15 -5 0 -14 25 -21 55
-7 30 -17 57 -22 60 -5 4 -9 19 -9 35 0 27 -17 78 -30 90 -3 3 -14 39 -24 80
-11 41 -30 88 -43 103 -12 16 -23 35 -23 43 0 8 -9 14 -20 14 -13 0 -20 7 -20
19 0 11 -5 23 -10 26 -8 5 -7 11 1 21 9 11 8 22 -7 52 -10 20 -22 39 -25 42
-3 3 -9 22 -13 43 -4 20 -11 37 -16 37 -6 0 -10 13 -10 29 0 16 -7 34 -15 41
-8 7 -15 19 -15 26 0 8 -4 14 -10 14 -5 0 -19 19 -30 43 -21 42 -41 78 -50 87
-19 19 -63 150 -75 220 -10 57 -49 180 -57 180 -5 0 -8 9 -8 19 0 11 -4 23
-10 26 -5 3 -14 24 -20 45 -6 22 -14 40 -19 40 -4 0 -20 25 -36 55 -15 30 -31
55 -36 55 -4 0 -11 9 -14 21 -7 22 -23 43 -65 90 -25 26 -28 27 -157 30 -130
4 -133 3 -195 -26z m410 -249 c11 -22 27 -57 36 -78 21 -47 22 -161 1 -182 -9
-9 -16 -35 -16 -69 -2 -84 -19 -94 -19 -12 0 45 -6 77 -15 89 -20 26 -19 101
1 131 9 14 12 30 8 37 -5 7 -18 40 -29 74 -19 56 -19 61 -3 56 9 -2 26 -23 36
-46z"/>
</g>
</svg>
