<?xml version="1.0" standalone="no"?>
<!DOCTYPE svg PUBLIC "-//W3C//DTD SVG 20010904//EN"
 "http://www.w3.org/TR/2001/REC-SVG-20010904/DTD/svg10.dtd">
<svg version="1.0" xmlns="http://www.w3.org/2000/svg"
 width="1280.000000pt" height="720.000000pt" viewBox="0 0 1280.000000 720.000000"
 preserveAspectRatio="xMidYMid meet">
<metadata>
Created by potrace 1.16, written by Peter Selinger 2001-2019
</metadata>
<g transform="translate(0.000000,720.000000) scale(0.100000,-0.100000)"
fill="#000000" stroke="none">
<path d="M3011 6963 c-1 -47 3 -75 12 -80 6 -4 18 -20 26 -35 8 -16 38 -53 68
-84 29 -31 53 -61 53 -66 0 -5 -19 -8 -42 -6 -41 3 -43 2 -41 -23 l1 -27 -24
25 c-28 28 -31 43 -8 43 9 0 14 7 12 17 -4 22 -28 29 -28 9 0 -9 -7 -16 -15
-16 -23 0 -21 -132 2 -151 9 -8 18 -13 20 -11 2 1 22 -19 44 -45 88 -104 98
-113 125 -113 25 0 26 2 20 33 -3 17 -14 37 -23 44 -18 14 -21 45 -10 113 3
25 3 34 -1 20 -7 -22 -9 -23 -15 -7 -11 30 -8 37 18 37 14 0 29 -8 35 -20 6
-11 17 -20 25 -20 9 0 15 -10 15 -25 0 -22 4 -25 34 -25 88 0 89 36 4 128 -34
37 -67 73 -73 80 -5 7 -18 22 -27 33 -10 10 -18 22 -18 25 0 10 -58 64 -69 64
-6 0 -11 6 -11 13 0 6 -19 33 -43 58 -23 25 -47 54 -54 65 -10 16 -12 7 -12
-53z m129 -335 c0 -7 -5 -20 -10 -28 -8 -12 -10 -9 -10 13 0 15 5 27 10 27 6
0 10 -6 10 -12z"/>
<path d="M5760 6972 c0 -16 72 -32 92 -21 10 5 16 14 13 20 -8 11 -105 12
-105 1z"/>
<path d="M8584 6925 c-16 -13 -17 -16 -4 -24 17 -11 89 -4 105 11 28 25 -68
38 -101 13z"/>
<path d="M6271 6922 c-13 -2 -26 -12 -28 -23 -3 -10 -11 -19 -18 -19 -16 0
-45 -44 -45 -68 0 -10 -9 -27 -20 -37 -12 -10 -30 -39 -41 -64 -11 -25 -28
-55 -38 -66 -20 -22 -51 -103 -51 -135 0 -11 -6 -37 -14 -57 -31 -85 -59 -195
-86 -348 -5 -27 -19 -72 -31 -100 -40 -94 -70 -155 -80 -161 -5 -3 -17 -23
-26 -45 -8 -21 -19 -39 -23 -39 -4 0 -10 -8 -14 -17 -5 -18 -26 -53 -36 -63
-18 -18 -60 -112 -60 -134 0 -14 -4 -26 -9 -26 -5 0 -12 -17 -16 -37 -4 -21
-12 -41 -18 -45 -8 -5 -12 -56 -13 -160 -2 -236 -2 -238 -18 -238 -8 0 -17
-12 -20 -26 -8 -29 -27 -28 -41 4 -9 20 -15 21 -345 26 -427 7 -1056 23 -1140
30 -36 3 -282 7 -547 9 l-483 4 0 -184 0 -183 203 0 c111 0 231 4 267 9 36 5
239 13 453 17 339 6 387 5 387 -8 0 -11 17 -17 61 -22 90 -9 96 -8 118 15 16
18 22 19 40 7 12 -7 21 -18 21 -25 0 -8 15 -13 40 -13 22 0 40 5 40 11 0 11
794 4 838 -8 31 -8 29 -66 -3 -118 -14 -22 -28 -48 -31 -57 -4 -10 -10 -18
-15 -18 -5 0 -17 -16 -26 -35 -9 -19 -20 -35 -24 -35 -3 0 -19 -26 -35 -57
-16 -32 -31 -60 -34 -63 -5 -5 -12 -20 -44 -93 -9 -20 -27 -43 -41 -49 -16 -7
-25 -19 -25 -34 0 -12 -6 -24 -14 -27 -8 -3 -17 -20 -21 -38 -4 -19 -15 -33
-26 -36 -10 -3 -19 -14 -19 -24 0 -13 -7 -19 -24 -19 -14 0 -28 -5 -31 -10
-14 -23 -91 -50 -141 -50 -71 0 -104 -16 -104 -49 0 -29 -15 -59 -25 -50 -3 4
-9 42 -13 85 l-7 79 -12 -115 c-7 -63 -12 -221 -11 -350 1 -286 -8 -451 -24
-461 -7 -4 -396 -5 -865 -2 l-853 6 0 -21 c0 -21 5 -22 138 -25 l137 -3 -137
-2 c-129 -2 -138 -3 -138 -22 0 -16 8 -19 58 -22 54 -3 57 -4 60 -30 3 -28 3
-28 -57 -28 -54 0 -61 -2 -61 -20 0 -18 7 -20 55 -20 l55 0 0 -95 0 -95 -32 0
c-71 0 -78 -7 -78 -71 0 -48 3 -57 15 -53 8 4 15 1 15 -5 0 -6 -7 -11 -15 -11
-11 0 -15 -11 -15 -40 0 -35 3 -40 24 -40 22 0 24 -5 31 -77 4 -49 3 -79 -3
-81 -5 -1 -8 -12 -5 -22 3 -11 0 -20 -6 -20 -6 0 -11 5 -11 11 0 8 -5 8 -15
-1 -11 -9 -15 -32 -15 -81 0 -61 2 -69 19 -69 18 0 68 -48 89 -86 8 -15 13
-16 25 -6 8 7 18 23 21 36 6 23 36 45 36 26 0 -6 18 -10 40 -10 22 0 40 -4 40
-10 0 -5 8 -10 18 -10 13 0 23 13 32 40 13 40 30 54 30 25 0 -11 11 -15 38
-15 30 0 42 -6 62 -31 50 -62 55 -65 58 -41 2 12 7 22 12 22 4 0 11 18 15 40
7 44 26 52 43 18 l11 -23 0 23 c1 12 3 22 6 22 16 0 75 -73 75 -92 0 -21 0
-21 18 -2 9 10 25 36 34 57 17 36 19 37 73 37 l55 0 27 -58 c27 -57 27 -57 31
-24 2 18 15 44 30 59 25 25 34 27 122 30 52 1 87 0 78 -3 -24 -7 -26 -84 -3
-84 8 0 15 4 15 9 0 12 59 71 70 71 5 0 11 -6 13 -12 4 -10 6 -10 6 0 1 6 7
12 15 12 9 0 17 -17 21 -47 l8 -48 14 55 14 55 239 0 c132 0 240 -3 240 -6 0
-4 29 -4 64 -2 88 8 112 0 125 -39 l12 -33 19 25 c11 14 20 33 20 44 0 14 5
17 23 12 12 -3 30 -6 40 -6 9 0 17 -7 17 -15 0 -11 11 -15 40 -15 27 0 40 4
40 14 0 18 152 34 158 17 2 -6 10 -11 18 -11 8 0 14 -7 14 -15 0 -8 5 -15 10
-15 6 0 10 7 10 15 0 8 7 15 15 15 8 0 15 5 15 10 0 14 77 13 82 -2 3 -9 12
-9 38 0 18 7 69 12 112 12 86 0 110 -11 97 -45 -4 -11 -8 -31 -8 -44 -1 -38
-54 -171 -68 -171 -7 0 -13 -6 -13 -12 0 -17 -62 -142 -72 -146 -4 -2 -8 -11
-8 -20 0 -9 -9 -46 -19 -82 -18 -60 -51 -205 -66 -290 -3 -19 -10 -114 -15
-210 -8 -171 -21 -254 -45 -295 -7 -11 -22 -67 -35 -125 -13 -62 -30 -113 -41
-126 -11 -11 -19 -28 -19 -37 0 -9 -6 -17 -14 -17 -32 0 -36 -154 -6 -210 11
-19 19 -31 20 -27 0 7 80 -72 80 -80 0 -1 -7 -3 -15 -3 -11 0 -15 -11 -15 -40
0 -29 4 -40 15 -40 11 0 15 -12 15 -45 0 -39 5 -51 35 -80 l34 -35 206 0 205
0 0 40 0 40 -40 0 -40 0 0 80 0 80 80 0 c47 0 80 4 80 10 0 6 -18 10 -40 10
-22 0 -40 5 -40 10 0 6 -18 10 -40 10 -33 0 -40 3 -40 20 0 17 -7 20 -49 20
-48 0 -50 1 -62 38 -7 20 -14 64 -15 97 -1 33 -5 89 -9 124 -5 38 -3 84 4 115
6 28 11 71 12 96 2 61 37 216 60 263 11 22 19 45 19 53 0 8 5 14 10 14 6 0 10
6 10 13 0 12 37 98 60 138 5 9 12 33 15 53 4 20 11 36 16 36 5 0 9 18 9 40 0
22 3 40 8 40 4 0 13 17 20 38 21 59 43 135 49 162 3 14 11 39 18 55 7 17 17
44 21 60 3 17 15 39 25 50 10 11 22 31 28 45 11 25 32 61 41 70 12 12 30 51
30 65 0 8 6 15 13 15 13 0 47 69 47 94 0 8 5 18 10 21 6 3 10 15 10 26 0 31
40 39 185 39 l134 0 11 -42 c6 -24 16 -61 21 -83 5 -22 13 -49 18 -60 26 -65
33 -109 41 -289 6 -109 13 -202 16 -208 3 -5 8 -37 9 -71 4 -57 20 -190 45
-347 13 -90 3 -518 -14 -545 -7 -11 -16 -32 -20 -47 -7 -29 10 -116 25 -132
14 -15 11 -94 -3 -100 -10 -5 -10 -7 0 -12 8 -4 12 -31 12 -85 l0 -79 -40 0
-40 0 0 -40 0 -40 169 0 168 0 7 61 c9 88 8 99 -9 99 -12 0 -15 15 -15 78 l0
78 40 24 c22 14 40 33 40 43 0 9 5 17 11 17 42 0 53 97 14 135 -13 14 -28 25
-34 25 -5 0 -19 16 -30 36 -20 33 -21 46 -15 135 5 83 3 104 -11 125 -13 20
-14 32 -6 57 5 18 15 68 21 112 6 44 20 121 31 170 11 50 24 149 30 220 22
313 22 330 8 356 -7 13 -17 53 -20 89 -4 36 -19 115 -33 175 -14 61 -26 123
-26 138 0 27 2 28 30 22 30 -7 30 -6 30 39 0 41 -3 46 -22 46 -12 0 -30 -8
-41 -18 -19 -17 -19 -16 -11 58 5 41 9 94 9 116 l0 41 145 6 c80 2 153 8 163
12 22 9 22 35 -2 104 -24 68 -74 278 -91 381 -7 41 -24 118 -38 170 -37 140
-41 167 -42 255 -1 129 -16 241 -55 406 -75 317 -81 347 -75 394 l5 40 32 -50
c18 -28 48 -67 68 -88 19 -21 35 -44 35 -51 0 -8 7 -16 15 -20 8 -3 15 -12 15
-21 0 -8 7 -15 15 -15 8 0 15 -5 15 -10 0 -19 140 -150 160 -150 13 0 20 -7
20 -20 0 -11 8 -28 18 -38 9 -10 22 -27 28 -37 9 -17 27 -20 135 -23 113 -4
128 -2 162 17 22 12 55 21 82 21 24 0 47 5 50 10 3 6 25 10 48 10 58 0 105 15
128 41 44 51 11 71 -126 77 -91 4 -108 2 -175 -23 -49 -18 -103 -29 -155 -32
-76 -4 -82 -3 -106 20 -13 14 -40 62 -58 106 -18 45 -36 81 -40 81 -3 0 -11
12 -18 28 -42 96 -53 126 -53 143 0 10 -4 19 -10 19 -5 0 -15 18 -21 40 -7 22
-16 40 -21 40 -4 0 -8 18 -8 40 0 22 -4 40 -10 40 -5 0 -10 18 -10 39 0 22 -5
41 -10 43 -13 4 -25 104 -14 110 5 3 34 2 64 -2 71 -10 90 0 90 46 l0 36 -82
-3 -83 -4 -12 49 c-7 27 -9 56 -4 64 7 12 76 14 462 13 250 -1 495 -4 544 -6
50 -2 317 -7 595 -10 278 -3 560 -8 628 -12 l122 -6 0 51 0 50 -77 7 c-43 3
-343 8 -667 11 -479 4 -591 3 -597 -8 -7 -10 -9 -10 -9 0 0 22 -30 13 -31 -10
l0 -23 -16 23 c-15 22 -16 22 -299 22 -233 0 -284 2 -284 14 0 9 -20 15 -61
20 -93 9 -99 8 -99 -14 0 -18 -7 -20 -80 -20 l-80 0 0 56 c0 30 -4 53 -9 50
-5 -3 -7 -24 -4 -46 4 -27 0 -51 -13 -77 l-19 -38 -8 100 c-12 163 -11 172 27
290 9 28 18 88 21 134 3 48 10 88 16 92 8 4 9 14 4 25 -8 17 -9 17 -12 -3 -3
-13 -8 -23 -13 -23 -12 0 -50 64 -50 84 0 9 -4 16 -10 16 -5 0 -10 6 -10 13 0
6 -14 21 -30 32 -16 11 -30 25 -30 31 0 6 -6 24 -14 40 -8 16 -17 57 -20 92
-7 59 -36 134 -57 148 -5 3 -9 15 -9 28 0 12 -3 26 -7 30 -17 17 -93 286 -93
330 0 12 -4 26 -8 32 -5 5 -14 33 -21 63 -8 29 -20 65 -27 80 -8 14 -14 33
-14 41 0 9 -4 20 -9 25 -5 6 -16 34 -26 63 -9 28 -20 52 -23 52 -8 0 -32 49
-32 66 0 6 -7 14 -15 18 -8 3 -15 10 -15 16 0 13 -69 108 -96 132 -33 29 -232
62 -303 50z m387 -304 c50 -107 76 -263 48 -290 -8 -8 -16 -30 -18 -48 -5 -58
-25 -46 -37 23 -15 85 -14 153 2 169 14 14 13 23 -8 73 -16 37 -35 95 -35 106
0 25 30 3 48 -33z m12 -412 c0 -7 -7 -19 -15 -26 -13 -11 -15 -8 -15 14 0 16
5 26 15 26 8 0 15 -6 15 -14z m2593 -1353 c-13 -2 -33 -2 -45 0 -13 2 -3 4 22
4 25 0 35 -2 23 -4z m-4608 -43 c50 -19 23 -35 -59 -36 -59 -1 -79 3 -83 14
-3 8 0 18 8 23 19 12 102 11 134 -1z m65 -60 c0 -5 -4 -10 -9 -10 -6 0 -13 5
-16 10 -3 6 1 10 9 10 9 0 16 -4 16 -10z m799 -6 c15 -13 -32 -18 -204 -22
-150 -4 -195 -2 -195 8 0 9 -19 10 -80 5 -54 -5 -80 -4 -80 3 0 6 -19 12 -42
14 -24 2 101 2 277 -1 176 -2 322 -5 324 -7z m312 -204 c-6 -30 -18 -102 -26
-160 -25 -162 -53 -285 -80 -352 -14 -34 -25 -67 -25 -74 0 -17 -40 -45 -53
-37 -5 3 -90 7 -189 9 -183 3 -238 9 -238 24 0 5 9 12 20 15 23 7 25 16 9 32
-14 14 17 43 84 76 29 14 66 39 84 55 17 16 37 32 45 35 30 15 54 35 114 97
91 94 104 109 104 125 0 8 4 15 9 15 5 0 20 17 32 38 13 20 27 39 31 40 4 2 8
15 8 29 0 13 17 59 38 101 l37 77 3 -45 c2 -25 -1 -70 -7 -100z m-167 -653
c11 -8 17 -23 14 -38 -3 -21 -8 -24 -48 -24 -39 0 -45 3 -48 23 -2 13 -1 30 2
38 7 18 56 18 80 1z m-537 -99 c-3 -8 -6 -5 -6 6 -1 11 2 17 5 13 3 -3 4 -12
1 -19z m-317 -96 c-6 -36 -7 -70 -1 -84 5 -12 7 -96 6 -185 -2 -134 0 -163 11
-163 8 0 14 9 14 21 0 12 8 23 20 26 11 3 20 9 20 14 0 5 9 9 20 9 14 0 20 7
20 21 0 16 4 19 18 14 9 -4 27 -7 40 -6 18 1 22 -4 22 -29 0 -17 5 -30 10 -30
6 0 10 -7 10 -15 0 -8 -8 -15 -19 -15 -10 0 -21 -9 -24 -21 -3 -11 -15 -23
-26 -26 -12 -3 -22 -9 -22 -14 -1 -5 -2 -13 -3 -18 -2 -19 -16 -24 -31 -11
-11 9 -18 10 -28 1 -16 -13 -27 -5 -27 21 0 17 -29 27 -31 11 0 -5 -2 -25 -4
-47 l-4 -39 49 6 c30 4 50 2 50 -4 0 -5 11 -2 25 7 13 8 28 13 33 10 5 -3 141
-6 301 -7 161 -1 294 -6 297 -11 3 -4 2 -17 -1 -28 -6 -19 -14 -20 -243 -15
-367 7 -526 15 -536 25 -12 12 -8 430 5 540 14 122 18 138 29 119 6 -10 5 -41
0 -77z m324 46 c6 -25 4 -28 -19 -26 -14 1 -25 8 -25 15 0 7 7 10 15 7 11 -4
15 0 15 17 0 28 5 23 14 -13z m104 -16 c2 -7 -6 -12 -17 -12 -21 0 -27 11 -14
24 9 9 26 2 31 -12z m322 -2 c0 -13 -7 -20 -20 -20 -18 0 -19 2 -8 20 7 11 16
20 20 20 5 0 8 -9 8 -20z m-600 0 c0 -5 -9 -10 -20 -10 -11 0 -20 5 -20 10 0
6 9 10 20 10 11 0 20 -4 20 -10z m90 0 c0 -5 -4 -10 -10 -10 -5 0 -10 5 -10
10 0 6 5 10 10 10 6 0 10 -4 10 -10z m390 0 c0 -5 -9 -10 -21 -10 -11 0 -17 5
-14 10 3 6 13 10 21 10 8 0 14 -4 14 -10z m-107 -7 c-7 -2 -19 -2 -25 0 -7 3
-2 5 12 5 14 0 19 -2 13 -5z m-18 -30 c-11 -3 -23 -10 -27 -17 -5 -7 -8 -5 -8
7 0 12 7 17 28 16 21 -1 22 -2 7 -6z m122 1 c-3 -3 -12 -4 -19 -1 -8 3 -5 6 6
6 11 1 17 -2 13 -5z m19 -80 c-6 -17 -62 -19 -72 -2 -5 8 -2 9 9 5 10 -4 17
-1 17 5 0 9 3 9 12 0 20 -20 28 -14 29 21 1 24 3 26 6 9 3 -13 2 -30 -1 -38z
m-218 24 c19 -19 14 -28 -13 -28 -24 0 -34 18 -18 33 9 10 17 9 31 -5z m298
-35 c-11 -12 -27 13 -20 32 7 17 8 17 17 -3 6 -12 7 -25 3 -29z m98 -74 c-6
-65 -13 -104 -21 -106 -14 -5 -16 102 -2 128 5 10 3 29 -4 48 -10 27 -9 33 3
41 28 17 33 -7 24 -111z m-504 96 c0 -9 -9 -15 -22 -15 -21 0 -21 0 -2 15 24
18 24 18 24 0z m-85 -16 c-3 -4 -12 -6 -20 -3 -8 4 -13 10 -10 15 3 4 12 6 20
3 8 -4 13 -10 10 -15z m295 9 c17 10 20 10 20 -3 0 -11 -11 -15 -40 -15 -29 0
-40 4 -40 15 0 13 3 13 20 3 16 -10 24 -10 40 0z m110 -68 c0 -5 -6 -10 -14
-10 -8 0 -18 5 -21 10 -3 6 3 10 14 10 12 0 21 -4 21 -10z m-212 -44 c-2 -13
-12 -22 -25 -24 -18 -3 -23 1 -23 20 0 13 5 29 12 36 16 16 40 -5 36 -32z
m182 9 c0 -8 -4 -15 -10 -15 -5 0 -10 7 -10 15 0 8 5 15 10 15 6 0 10 -7 10
-15z m-485 -25 c-3 -5 -10 -10 -16 -10 -5 0 -9 5 -9 10 0 6 7 10 16 10 8 0 12
-4 9 -10z m120 0 c-3 -5 -12 -10 -20 -10 -8 0 -17 5 -20 10 -4 6 5 10 20 10
15 0 24 -4 20 -10z m90 0 c-3 -5 -15 -10 -26 -10 -10 0 -19 5 -19 10 0 6 12
10 26 10 14 0 23 -4 19 -10z m185 0 c0 -5 -7 -10 -15 -10 -8 0 -15 5 -15 10 0
6 7 10 15 10 8 0 15 -4 15 -10z m277 -147 c-3 -10 -5 -2 -5 17 0 19 2 27 5 18
2 -10 2 -26 0 -35z m-272 -19 c-5 -34 -3 -49 7 -55 9 -6 8 -9 -7 -9 -33 1 -50
22 -53 68 -2 41 -2 42 29 42 l31 0 -7 -46z m200 6 c0 -7 -6 -15 -12 -17 -8 -3
-13 4 -13 17 0 13 5 20 13 18 6 -3 12 -11 12 -18z m-178 -12 c-3 -8 -6 -5 -6
6 -1 11 2 17 5 13 3 -3 4 -12 1 -19z m-147 -14 c0 -8 -4 -14 -10 -14 -5 0 -10
9 -10 21 0 11 5 17 10 14 6 -3 10 -13 10 -21z m210 -34 c0 -5 -13 -10 -30 -10
-16 0 -30 5 -30 10 0 6 14 10 30 10 17 0 30 -4 30 -10z m-1853 -234 c9 -8
-197 -6 -219 2 -10 4 34 6 98 6 63 -1 117 -4 121 -8z m330 2 c2 -5 -34 -8 -81
-8 -53 0 -86 4 -86 10 0 13 159 10 167 -2z m-239 -5 c-16 -2 -40 -2 -55 0 -16
2 -3 4 27 4 30 0 43 -2 28 -4z m-378 -68 c0 -23 -3 -25 -49 -25 -52 0 -65 8
-55 34 4 12 20 16 55 16 46 0 49 -2 49 -25z m240 11 c0 -25 -22 -31 -108 -32
-85 -1 -96 3 -86 30 9 22 194 24 194 2z m370 -11 c0 -16 -141 -22 -157 -7 -7
8 -11 17 -9 20 6 11 166 -2 166 -13z m1110 -16 c0 -26 -3 -29 -20 -24 -11 3
-20 2 -20 -4 0 -10 -177 -20 -455 -24 l-170 -2 -3 35 c-2 21 2 38 11 45 9 6
124 9 335 7 l322 -3 0 -30z m396 14 c4 -14 2 -40 -5 -58 -7 -20 -9 -63 -5
-122 8 -103 0 -158 -22 -167 -21 -8 -164 5 -164 15 0 5 39 10 88 11 l87 2 -83
3 -82 4 1 62 c3 86 9 95 60 91 50 -4 79 9 80 39 1 17 3 16 9 -8 7 -28 8 -27 9
13 1 34 -2 42 -17 42 -10 0 -22 3 -26 8 -10 9 -56 10 -56 1 0 -3 -11 -6 -24
-6 -19 0 -26 6 -31 29 -9 41 8 56 68 61 29 2 64 4 79 5 22 2 29 -3 34 -25z
m124 -23 c0 -49 -5 -55 -37 -51 -15 2 -17 -15 -3 -24 15 -9 12 -47 -9 -128
-35 -128 -40 -132 -40 -32 0 50 4 110 10 135 7 31 7 46 0 48 -12 4 -15 84 -4
95 3 4 24 7 45 7 l38 0 0 -50z m-1840 26 c0 -9 -15 -15 -43 -17 -57 -5 -77 -1
-77 17 0 11 15 14 60 14 45 0 60 -4 60 -14z m458 2 c-3 -9 -33 -13 -103 -13
-70 0 -100 4 -102 13 -4 9 21 12 102 12 81 0 106 -3 103 -12z m162 -33 c0 -38
-3 -45 -20 -45 -16 0 -20 7 -20 30 0 17 -3 29 -7 29 -29 -5 -62 3 -67 16 -4
12 5 15 54 15 l60 0 0 -45z m868 7 c3 -29 1 -32 -20 -28 -13 3 -42 5 -65 5
-41 1 -43 2 -43 31 l0 31 63 -3 62 -3 3 -33z m-1030 -164 c-2 -37 -9 -73 -15
-79 -20 -20 -171 -9 -185 13 -10 16 -10 129 0 143 4 6 45 11 92 12 60 0 85 4
89 14 9 29 22 -40 19 -103z m-858 2 l0 -78 -55 -4 -55 -3 0 72 c0 97 1 99 60
95 l50 -4 0 -78z m226 24 c3 -19 3 -49 0 -66 -6 -33 -7 -33 -69 -36 -34 -1
-72 -4 -84 -6 -15 -3 -23 2 -27 17 -8 31 -7 120 2 134 11 17 112 21 144 5 19
-9 29 -24 34 -48z m766 48 c7 -7 14 -51 16 -107 4 -90 3 -95 -16 -95 -13 0
-22 9 -26 24 -8 31 -37 29 -53 -4 -12 -24 -12 -24 -13 15 -2 63 1 169 5 176 7
10 74 4 87 -9z m99 -42 c5 0 9 10 9 23 1 21 2 21 14 4 11 -14 35 -19 130 -24
109 -6 116 -5 117 13 1 18 2 18 6 1 3 -13 11 -17 23 -14 10 3 27 -1 38 -8 13
-10 60 -14 150 -16 l132 -2 0 -79 c0 -43 -3 -78 -7 -78 -5 0 -6 25 -5 55 3 35
0 55 -7 55 -6 0 -11 -19 -11 -44 l0 -44 -242 -7 c-202 -6 -284 -5 -380 4 -10
1 -10 112 -1 177 l7 49 9 -32 c6 -18 14 -33 18 -33z m-728 41 l37 -1 0 -74 0
-74 -57 -5 c-32 -2 -59 -3 -61 -2 -7 7 -14 115 -9 137 5 18 13 24 29 22 13 -1
40 -3 61 -3z m235 -5 c15 -9 16 -132 2 -141 -6 -4 -43 -7 -83 -7 l-72 -1 -3
65 c-2 46 1 70 11 79 14 15 124 18 145 5z m1252 -67 c0 -6 7 -9 15 -5 11 4 15
-1 14 -17 0 -12 -3 -16 -6 -9 -7 17 -23 15 -23 -3 0 -11 -11 -15 -47 -13 l-48
1 43 4 c53 5 55 23 2 23 -29 0 -40 4 -40 15 0 11 12 15 45 15 26 0 45 -5 45
-11z m27 -111 c-2 -13 -4 -3 -4 22 0 25 2 35 4 23 2 -13 2 -33 0 -45z m-7 -38
c0 -13 -16 -15 -65 -12 -57 5 -58 20 -2 24 47 3 67 0 67 -12z m-200 -10 c-9
-6 -125 -9 -285 -8 -148 0 -250 4 -225 8 72 11 527 11 510 0z m-827 -200 c-1
-57 -5 -110 -7 -117 -6 -14 -116 -19 -117 -5 -6 90 -7 174 -2 200 l6 34 61 -4
61 -4 -2 -104z m-243 27 c0 -51 -3 -64 -20 -75 -14 -8 -20 -23 -20 -47 0 -34
-1 -35 -39 -35 -32 0 -40 4 -45 23 -9 33 -7 170 3 185 5 9 23 13 49 11 23 -2
44 0 48 4 16 15 24 -8 24 -66z m797 -24 c-6 -52 -15 -93 -21 -94 -16 -1 26
-17 47 -18 15 -1 17 9 17 79 l0 80 44 0 c92 0 156 -41 156 -101 0 -21 -5 -41
-10 -44 -16 -10 -1 -25 26 -25 21 0 24 5 24 34 0 62 13 156 21 156 5 0 9 -42
9 -94 l0 -95 -57 -11 c-40 -9 -126 -11 -283 -6 -124 3 -249 6 -277 6 l-53 0 0
96 0 96 40 -4 c22 -2 41 1 43 7 2 5 7 -26 12 -70 5 -55 4 -80 -4 -83 -6 -2
-11 -10 -11 -18 0 -10 12 -14 40 -14 l40 0 0 95 0 95 95 0 c77 0 97 3 102 15
11 30 11 10 0 -82z m-1018 73 c10 -7 12 -24 7 -75 -13 -130 -11 -126 -67 -127
l-49 -2 0 93 c0 52 2 99 5 107 6 15 81 18 104 4z m607 -6 c11 0 14 -17 14 -77
0 -85 -11 -116 -32 -95 -9 9 -9 12 4 12 11 0 15 6 11 21 -4 16 -8 17 -14 7 -5
-7 -8 22 -8 72 0 47 3 79 6 73 2 -7 11 -13 19 -13z m1100 5 c12 -11 13 -33 8
-110 l-7 -95 -83 0 -84 0 0 100 0 100 40 0 c34 0 40 -3 40 -21 0 -18 2 -19 15
-9 8 7 15 18 15 25 0 8 8 16 18 18 9 3 18 5 20 6 2 0 10 -6 18 -14z m164 -12
c8 -7 -1 -138 -11 -147 -5 -6 -2 -17 8 -28 15 -17 14 -18 -41 -18 -39 0 -55 3
-50 11 3 6 6 55 5 109 l-2 98 43 -10 c24 -6 45 -13 48 -15z m-2117 0 c13 -8 7
-31 -10 -37 -37 -15 -100 24 -76 47 6 7 69 -1 86 -10z m1037 -28 c0 -25 -4
-45 -10 -45 -11 0 -14 73 -3 83 11 12 13 8 13 -38z m-493 -27 c-2 -13 -4 -3
-4 22 0 25 2 35 4 23 2 -13 2 -33 0 -45z m1173 22 c0 -22 5 -40 10 -40 6 0 10
-27 10 -60 l0 -60 -55 0 c-30 0 -55 3 -56 8 0 4 -2 16 -5 27 -2 11 -1 53 2 93
l6 72 44 0 44 0 0 -40z m635 24 c12 -13 15 -33 13 -98 l-3 -81 -74 -8 c-83 -9
-121 -4 -121 18 0 10 9 12 33 9 17 -3 59 -1 92 4 56 9 57 10 18 11 l-43 1 0
54 c0 39 -4 55 -15 60 -13 4 -14 10 -5 26 14 25 81 28 105 4z m-140 -8 c18
-13 18 -15 2 -40 -10 -15 -15 -31 -12 -36 7 -12 -12 -50 -25 -50 -6 0 -10 32
-10 70 0 74 8 84 45 56z m906 -13 c6 -34 12 -117 10 -141 -2 -25 -71 -44 -140
-39 -36 3 -67 6 -69 6 -2 1 0 6 3 11 4 6 15 8 25 5 16 -5 18 1 18 69 0 42 3
80 7 86 7 11 144 14 146 3z m-169 -49 c-4 -44 -6 -49 -21 -39 -12 7 -15 68 -4
79 16 15 28 -4 25 -40z m-2956 -51 l1 -73 -31 5 c-17 2 -37 4 -43 4 -17 1 -17
83 -1 99 10 10 10 15 -1 22 -11 6 -7 9 15 13 58 9 59 7 60 -70z m821 35 c-3
-8 -6 -5 -6 6 -1 11 2 17 5 13 3 -3 4 -12 1 -19z m-349 -70 c-2 -6 -10 -14
-16 -16 -7 -2 -10 2 -6 12 7 18 28 22 22 4z m2905 -1945 c-13 -2 -33 -2 -45 0
-13 2 -3 4 22 4 25 0 35 -2 23 -4z"/>
<path d="M4738 2743 c12 -2 32 -2 45 0 12 2 2 4 -23 4 -25 0 -35 -2 -22 -4z"/>
<path d="M3600 2358 c-3 -26 -1 -43 3 -39 5 5 7 26 5 47 l-3 39 -5 -47z"/>
<path d="M3363 2360 c0 -25 2 -35 4 -22 2 12 2 32 0 45 -2 12 -4 2 -4 -23z"/>
<path d="M3032 6805 c-9 -11 -10 -20 -3 -33 9 -15 10 -15 11 6 0 12 5 22 10
22 6 0 10 5 10 10 0 14 -13 12 -28 -5z"/>
<path d="M3060 6490 c0 -5 5 -10 11 -10 5 0 7 5 4 10 -3 6 -8 10 -11 10 -2 0
-4 -4 -4 -10z"/>
<path d="M9333 4963 c31 -2 83 -2 115 0 31 2 5 3 -58 3 -63 0 -89 -1 -57 -3z"/>
<path d="M8192 4623 l3 -48 164 0 164 0 2 40 c1 22 -3 43 -9 47 -6 4 -82 8
-169 8 l-158 0 3 -47z"/>
<path d="M9368 4605 l4 -45 64 0 64 0 0 45 0 45 -68 0 -67 0 3 -45z"/>
<path d="M9360 4360 c0 -6 30 -10 70 -10 40 0 70 4 70 10 0 6 -30 10 -70 10
-40 0 -70 -4 -70 -10z"/>
<path d="M3028 4309 c-17 -9 -18 -47 -18 -559 l0 -550 573 -1 c314 -1 628 -2
697 -3 69 -1 106 0 83 2 -55 4 -56 22 -2 22 32 0 47 6 71 30 16 17 36 30 43
30 9 0 12 6 8 16 -5 13 -18 15 -84 9 -53 -5 -79 -4 -79 3 0 6 17 13 38 15 23
3 19 3 -11 2 -54 -2 -75 11 -73 47 1 23 2 23 116 21 63 -2 143 -5 178 -8 51
-4 64 -2 69 11 10 27 -17 34 -131 34 -60 0 -107 2 -105 5 3 2 51 5 106 6 77 1
103 4 107 15 10 26 -33 34 -179 34 l-146 0 6 323 c4 210 3 327 -4 337 -10 15
-107 28 -211 29 l-55 1 0 57 0 58 -34 -2 c-33 -1 -76 -37 -65 -54 20 -32 -80
-66 -159 -55 -23 4 -160 6 -304 6 -171 -1 -270 3 -283 10 -13 7 -26 7 -37 2
-9 -5 -24 -7 -34 -5 -16 5 -19 15 -19 64 0 55 -2 59 -22 59 -13 0 -31 -5 -40
-11z m1231 -183 c8 -9 10 -92 6 -292 -4 -154 -8 -294 -11 -311 l-5 -33 -125 0
-126 0 6 28 c3 15 8 158 12 317 3 160 8 293 11 298 2 4 53 7 112 7 80 0 112
-4 120 -14z m-1009 -25 c0 -11 -59 -20 -65 -11 -3 4 -2 10 2 14 10 9 63 7 63
-3z m205 -6 c0 -5 -21 -11 -47 -13 -39 -3 -48 0 -48 13 0 13 9 16 48 13 26 -2
47 -7 47 -13z m225 0 c0 -12 -14 -15 -65 -15 -60 0 -75 6 -58 23 3 4 33 7 65
7 45 0 58 -3 58 -15z m160 0 c0 -16 -16 -20 -65 -16 -37 3 -44 9 -25 21 25 16
90 12 90 -5z m123 -106 c-5 -18 -23 -27 -23 -11 1 25 14 52 20 42 4 -7 5 -21
3 -31z m0 -306 c-3 -87 -10 -162 -15 -168 -5 -6 -66 -10 -141 -10 -76 0 -113
2 -87 6 25 3 34 7 20 8 -25 2 -25 2 -5 17 18 13 20 13 23 0 2 -9 11 -16 20
-16 21 0 62 42 62 64 0 10 8 16 21 16 17 0 20 5 16 21 -4 13 0 22 11 26 30 10
63 56 61 83 -3 26 10 110 17 110 2 0 1 -71 -3 -157z m-603 -43 c0 -5 -5 -10
-11 -10 -5 0 -7 5 -4 10 3 6 8 10 11 10 2 0 4 -4 4 -10z"/>
<path d="M4825 3984 l-30 -15 34 6 c18 3 37 5 42 5 5 0 9 5 9 10 0 14 -19 11
-55 -6z"/>
<path d="M8263 3763 c-8 -19 -9 -159 -6 -718 1 -214 -2 -412 -6 -440 -8 -50
-8 -50 -10 24 -2 128 -47 161 -222 161 -162 0 -169 -10 -181 -270 -11 -239
-12 -244 -68 -250 -38 -4 -45 -9 -51 -33 -4 -16 -6 -34 -3 -41 6 -15 90 -23
352 -33 168 -6 172 -7 172 -28 0 -20 8 -22 160 -40 88 -10 160 -22 160 -27 0
-4 18 -8 40 -8 22 0 40 5 40 10 0 6 18 10 40 10 27 0 40 4 40 13 0 11 29 15
117 20 66 4 119 11 121 17 2 5 21 10 43 10 21 0 40 3 40 8 13 75 13 19 5 607
-4 328 -3 515 3 505 9 -12 11 -12 17 3 3 9 12 17 20 17 11 0 14 -29 14 -155 0
-95 -4 -164 -12 -180 -9 -20 -8 -31 3 -52 10 -22 14 -102 16 -363 2 -210 7
-336 13 -338 6 -2 10 -8 10 -13 0 -6 -4 -7 -10 -4 -5 3 -10 1 -10 -4 0 -6 19
-11 43 -11 23 0 85 -3 137 -6 52 -3 121 -2 153 1 l57 7 0 104 c0 57 -2 104 -5
104 -2 0 -14 -4 -27 -9 -13 -5 -42 -14 -65 -20 -40 -11 -43 -14 -43 -46 l0
-35 -78 0 c-68 0 -79 3 -90 21 -10 15 -11 24 -3 32 15 15 15 647 1 647 -6 0
-10 33 -10 80 0 47 4 80 10 80 6 0 10 18 10 40 0 22 -4 40 -10 40 -6 0 -10
101 -10 284 l0 284 -22 6 c-13 3 -218 6 -456 6 -399 0 -433 -1 -439 -17z m687
-732 c0 -17 -18 -21 -24 -6 -3 9 0 15 9 15 8 0 15 -4 15 -9z m-640 -235 c0 -3
-4 -8 -10 -11 -5 -3 -10 -1 -10 4 0 6 5 11 10 11 6 0 10 -2 10 -4z m867 -218
c-2 -13 -4 -3 -4 22 0 25 2 35 4 23 2 -13 2 -33 0 -45z m-1288 -183 l2 -125
-27 0 c-22 0 -25 3 -21 23 3 12 9 68 13 125 5 72 11 102 19 102 10 0 13 -32
14 -125z m316 -20 l-5 -95 -144 -3 -145 -2 3 35 c2 19 4 50 5 68 1 27 5 32 24
31 18 -1 19 -2 3 -6 -16 -4 -13 -10 20 -44 38 -39 39 -39 116 -39 l78 0 0 45
c0 39 -3 45 -25 51 -14 3 -25 9 -25 13 0 6 74 38 92 40 4 1 5 -42 3 -94z"/>
<path d="M8000 2300 c0 -11 43 -12 115 0 47 7 45 7 -32 9 -50 0 -83 -3 -83 -9z"/>
<path d="M7956 3218 c-3 -7 -4 -42 -3 -78 l2 -65 68 -3 68 -3 -3 78 -3 78 -63
3 c-44 2 -63 -1 -66 -10z m124 -58 c0 -5 -25 -10 -55 -10 -30 0 -55 5 -55 10
0 6 25 10 55 10 30 0 55 -4 55 -10z"/>
<path d="M7899 3180 c-4 -42 -1 -64 9 -68 8 -2 12 10 12 37 0 23 -4 41 -10 41
-5 0 -10 -4 -11 -10z"/>
<path d="M3010 3160 c0 -20 7 -20 455 -20 261 0 455 4 455 9 0 10 -192 18
-617 26 -288 5 -293 4 -293 -15z"/>
<path d="M7613 3000 c0 -25 2 -35 4 -22 2 12 2 32 0 45 -2 12 -4 2 -4 -23z"/>
<path d="M9354 2450 c-14 -14 -4 -90 12 -97 19 -7 86 25 79 38 -4 5 1 9 11 9
13 0 14 3 5 14 -9 11 -7 15 11 21 20 6 18 8 -17 15 -55 12 -89 12 -101 0z"/>
<path d="M7140 2221 c-122 -11 -12 -21 240 -21 229 0 300 5 300 19 0 9 -451
10 -540 2z"/>
<path d="M9070 2215 c0 -8 5 -15 10 -15 6 0 10 7 10 15 0 8 -4 15 -10 15 -5 0
-10 -7 -10 -15z"/>
<path d="M8930 969 c-8 -15 -10 -121 -4 -375 l7 -354 283 0 284 0 0 90 c0 63
-4 91 -13 97 -34 21 -47 58 -47 136 0 74 2 80 30 109 18 17 30 40 30 55 0 25
-1 25 -19 9 -19 -17 -19 -16 -14 22 3 24 0 49 -9 66 -14 26 -16 27 -31 11 -23
-22 -21 -35 4 -35 19 0 20 -4 15 -35 -4 -19 -2 -45 4 -57 11 -22 10 -22 -4 -4
-9 11 -16 31 -16 44 0 18 -4 23 -16 18 -11 -4 -18 1 -21 14 -3 11 -9 20 -14
20 -5 0 -9 10 -9 23 0 24 10 23 -152 27 -94 2 -133 13 -65 17 17 1 53 5 80 9
47 6 47 6 47 45 l0 38 113 4 c111 3 111 3 -43 7 l-155 4 155 6 c135 5 119 6
-127 8 -277 2 -283 2 -293 -19z m22 -254 c3 -138 2 -200 -2 -145 -8 99 -13
396 -6 389 2 -2 5 -112 8 -244z m374 113 c27 -9 37 -21 49 -57 19 -57 20 -131
1 -131 -7 0 -16 -8 -19 -19 -6 -25 -58 -49 -95 -43 -38 5 -85 -5 -77 -17 8
-14 9 -114 1 -139 -8 -26 -31 -29 -40 -6 -8 21 -8 409 1 417 11 12 145 8 179
-5z"/>
<path d="M9190 710 l0 -90 39 0 c63 0 89 14 100 55 12 45 7 76 -16 92 -10 7
-23 17 -30 23 -7 5 -30 10 -53 10 l-40 0 0 -90z"/>
<path d="M9328 873 c6 -2 18 -2 25 0 6 3 1 5 -13 5 -14 0 -19 -2 -12 -5z"/>
<path d="M9370 870 c0 -5 5 -10 10 -10 6 0 10 5 10 10 0 6 -4 10 -10 10 -5 0
-10 -4 -10 -10z"/>
<path d="M9460 874 c0 -9 31 -37 36 -32 9 9 -8 38 -22 38 -8 0 -14 -3 -14 -6z"/>
<path d="M9218 863 c12 -2 32 -2 45 0 12 2 2 4 -23 4 -25 0 -35 -2 -22 -4z"/>
<path d="M9487 603 c-11 -10 -8 -71 3 -78 6 -4 10 12 10 39 0 47 -2 51 -13 39z"/>
</g>
</svg>
