<?xml version="1.0" standalone="no"?>
<!DOCTYPE svg PUBLIC "-//W3C//DTD SVG 20010904//EN"
 "http://www.w3.org/TR/2001/REC-SVG-20010904/DTD/svg10.dtd">
<svg version="1.0" xmlns="http://www.w3.org/2000/svg"
 width="1280.000000pt" height="720.000000pt" viewBox="0 0 1280.000000 720.000000"
 preserveAspectRatio="xMidYMid meet">
<metadata>
Created by potrace 1.16, written by Peter Selinger 2001-2019
</metadata>
<g transform="translate(0.000000,720.000000) scale(0.100000,-0.100000)"
fill="#000000" stroke="none">
<path d="M6325 7186 c-5 -3 -32 -7 -58 -11 -64 -9 -87 -32 -87 -90 0 -36 -3
-45 -18 -45 -10 0 -26 -16 -37 -37 -11 -21 -32 -59 -48 -85 -26 -43 -75 -181
-114 -317 -9 -31 -19 -92 -24 -136 -14 -138 -15 -139 -79 -278 -11 -24 -20
-49 -20 -55 0 -7 -5 -12 -10 -12 -6 0 -13 -8 -17 -17 -3 -10 -16 -32 -28 -48
-19 -25 -47 -97 -61 -152 -2 -7 -13 -13 -24 -13 -15 0 -20 -7 -20 -24 0 -14
-5 -28 -10 -31 -6 -4 -22 -25 -36 -47 -30 -48 -34 -80 -74 -598 -6 -80 -15
-146 -20 -148 -6 -2 -10 -32 -10 -66 0 -34 -11 -120 -24 -191 -36 -199 -47
-348 -44 -611 3 -218 1 -242 -14 -258 -10 -10 -18 -25 -18 -34 0 -9 -8 -39
-19 -67 -10 -27 -25 -70 -34 -95 -8 -25 -27 -72 -41 -105 -26 -60 -36 -158
-17 -169 4 -3 11 -19 15 -36 7 -39 47 -57 130 -59 32 -1 63 -4 69 -8 6 -4 7
-61 3 -157 -3 -83 -8 -199 -11 -258 l-4 -108 64 0 c53 0 69 -4 87 -22 11 -11
42 -25 67 -30 25 -4 48 -13 50 -19 1 -5 12 -19 23 -29 16 -14 22 -36 26 -89 3
-48 9 -71 17 -71 40 0 64 -172 65 -454 0 -99 4 -205 10 -235 5 -31 14 -87 20
-126 13 -81 32 -145 42 -145 5 0 8 -14 8 -31 0 -31 54 -259 70 -294 5 -11 11
-33 14 -50 10 -60 40 -180 46 -185 10 -8 27 -80 39 -158 11 -74 5 -105 -26
-125 -7 -4 -13 -14 -13 -21 0 -16 -53 -76 -68 -76 -5 0 -12 -3 -14 -7 -1 -5
-26 -27 -54 -50 -46 -38 -58 -43 -102 -43 -32 0 -54 -5 -62 -15 -7 -8 -18 -15
-25 -15 -24 0 -55 -51 -55 -90 0 -34 3 -38 33 -45 40 -10 251 -7 336 5 73 10
135 47 158 95 15 31 73 65 111 65 34 0 89 42 96 74 8 40 8 86 -2 86 -10 0 -31
63 -43 125 -4 28 -11 117 -14 199 -3 82 -9 154 -12 159 -3 5 -10 82 -14 171
-5 88 -13 211 -18 271 -9 105 -46 339 -56 355 -7 11 -17 728 -10 758 3 15 15
33 27 41 28 17 163 27 172 12 4 -6 18 -11 30 -11 45 0 59 -54 68 -255 5 -99
13 -225 19 -280 12 -112 12 -107 8 -427 -2 -170 1 -233 9 -236 7 -2 12 -23 12
-47 0 -24 4 -66 9 -92 5 -26 16 -97 25 -158 8 -60 25 -175 37 -254 19 -122 21
-166 15 -293 -5 -109 -3 -159 6 -184 l12 -34 81 0 c58 0 87 5 103 16 13 9 47
22 75 30 29 7 75 20 103 28 29 8 93 18 143 21 50 4 91 11 91 16 0 5 7 9 15 9
27 0 163 72 191 101 l26 28 -21 30 c-20 27 -28 31 -71 31 -32 0 -64 -8 -97
-25 -42 -22 -54 -24 -78 -15 -16 6 -60 18 -98 26 -121 25 -187 68 -187 122 0
10 -3 21 -6 25 -3 3 -5 124 -5 269 1 145 2 272 1 283 -1 11 0 47 2 80 3 64 3
313 -1 510 -1 66 1 191 4 277 4 108 3 158 -5 158 -5 0 -10 18 -10 40 0 22 5
40 10 40 6 0 10 11 10 25 0 14 6 55 12 90 11 58 16 66 45 80 18 9 68 18 113
22 55 4 80 10 80 19 0 7 -7 46 -16 86 -10 44 -19 163 -24 303 -5 127 -15 277
-23 335 -8 58 -14 116 -14 130 -1 59 -77 561 -93 615 -6 22 -14 56 -17 75 -2
19 -8 44 -13 55 -13 30 -37 140 -50 225 -6 41 -19 131 -29 200 -36 234 -46
363 -33 432 10 56 17 68 61 111 72 68 112 62 241 -39 30 -23 67 -46 82 -49 18
-5 42 -26 65 -59 54 -74 66 -86 80 -86 7 0 13 -4 13 -9 0 -5 19 -21 43 -35 47
-28 117 -91 117 -105 0 -5 22 -23 49 -40 58 -38 75 -56 89 -99 18 -52 80 -131
110 -139 14 -3 54 -36 89 -72 56 -58 63 -69 63 -106 0 -23 -4 -45 -9 -50 -4
-6 -22 -45 -40 -87 -35 -87 -40 -154 -15 -214 21 -50 19 -49 42 -26 25 25 68
19 100 -14 13 -13 26 -24 30 -24 8 0 81 81 93 104 4 6 3 40 -2 76 -6 36 -7 74
-5 86 3 11 -3 38 -14 59 -11 22 -20 47 -20 56 0 9 -9 19 -20 22 -12 3 -20 14
-20 26 0 12 -3 21 -8 21 -9 0 -26 41 -43 105 -7 28 -15 52 -19 55 -13 11 -50
82 -50 96 0 9 -11 30 -24 47 -13 18 -30 50 -37 72 -7 22 -21 49 -31 61 -10 11
-18 26 -18 32 0 7 -4 12 -8 12 -5 0 -17 18 -28 40 -10 22 -22 40 -26 40 -10 0
-68 60 -68 71 0 5 -9 9 -20 9 -11 0 -38 18 -60 40 -22 22 -47 40 -56 40 -9 0
-18 9 -21 19 -3 11 -13 21 -24 24 -10 3 -19 12 -19 21 0 9 -8 16 -20 16 -13 0
-20 7 -20 20 0 12 -7 20 -16 20 -9 0 -18 9 -21 20 -3 11 -14 20 -24 20 -12 0
-19 7 -19 20 0 12 -7 20 -16 20 -9 0 -18 9 -21 20 -3 11 -14 20 -24 20 -11 0
-19 6 -19 14 0 7 -9 16 -21 19 -11 3 -23 15 -26 26 -3 12 -12 21 -19 21 -8 0
-14 10 -14 25 0 14 -4 25 -8 25 -5 0 -17 16 -28 35 -10 19 -24 35 -31 35 -7 0
-13 7 -13 15 0 8 -9 15 -19 15 -13 0 -31 19 -53 56 -24 40 -40 57 -60 61 -21
4 -28 11 -28 29 0 13 5 24 10 24 18 0 10 17 -25 53 -20 20 -45 62 -57 92 -12
31 -29 60 -40 66 -10 5 -18 17 -18 25 0 18 -31 77 -42 82 -5 2 -8 9 -8 15 0 7
-13 44 -29 82 -15 39 -34 108 -41 155 -19 121 -96 327 -134 359 -7 6 -23 33
-36 61 -13 27 -27 50 -32 50 -4 0 -8 4 -8 10 0 13 -41 60 -53 60 -5 0 -15 7
-21 16 -18 24 -113 54 -186 59 -36 3 -69 3 -75 1z m339 -311 c34 -73 49 -136
43 -182 -7 -55 -44 -191 -47 -173 -4 23 -10 68 -16 138 -3 34 -10 62 -15 62
-4 0 1 16 13 36 12 20 17 39 12 42 -8 6 -44 108 -44 125 0 4 6 7 14 7 7 0 25
-25 40 -55z m-1224 -3105 c0 -5 -5 -10 -11 -10 -5 0 -7 5 -4 10 3 6 8 10 11
10 2 0 4 -4 4 -10z"/>
<path d="M8577 6923 c-11 -10 -8 -20 8 -27 10 -4 15 1 15 14 0 20 -11 26 -23
13z"/>
</g>
</svg>
