<?xml version="1.0" standalone="no"?>
<!DOCTYPE svg PUBLIC "-//W3C//DTD SVG 20010904//EN"
 "http://www.w3.org/TR/2001/REC-SVG-20010904/DTD/svg10.dtd">
<svg version="1.0" xmlns="http://www.w3.org/2000/svg"
 width="1280.000000pt" height="720.000000pt" viewBox="0 0 1280.000000 720.000000"
 preserveAspectRatio="xMidYMid meet">
<metadata>
Created by potrace 1.16, written by Peter Selinger 2001-2019
</metadata>
<g transform="translate(0.000000,720.000000) scale(0.100000,-0.100000)"
fill="#000000" stroke="none">
<path d="M6190 7048 c-25 -10 -66 -81 -72 -123 -2 -11 -10 -20 -18 -20 -8 0
-30 -29 -48 -65 -18 -36 -37 -72 -41 -80 -18 -30 -41 -88 -41 -104 0 -9 -4
-16 -8 -16 -4 0 -17 -26 -27 -57 -11 -32 -25 -69 -32 -83 -7 -14 -16 -42 -19
-62 -4 -21 -9 -38 -13 -38 -9 0 -29 -93 -37 -172 -4 -38 -10 -68 -14 -68 -4 0
-11 -21 -14 -47 -4 -27 -16 -66 -26 -88 -85 -179 -100 -215 -100 -238 0 -15
-4 -27 -10 -27 -5 0 -10 -19 -10 -43 0 -30 -8 -54 -27 -82 -53 -76 -83 -181
-83 -286 0 -42 -7 -95 -15 -119 -8 -23 -15 -53 -15 -66 0 -12 -6 -29 -13 -36
-7 -7 -19 -29 -27 -48 -7 -19 -20 -44 -27 -55 -11 -16 -13 -17 -13 -3 0 15
-28 17 -262 21 -678 13 -1202 26 -1264 31 -38 4 -257 8 -486 10 l-418 3 0
-185 0 -184 253 5 c138 3 392 11 562 16 379 13 644 8 657 -11 7 -10 11 -10 20
3 9 14 16 15 35 6 13 -5 23 -16 23 -24 0 -9 13 -13 40 -13 24 0 40 5 40 12 0
8 75 10 298 6 163 -3 268 -2 232 2 -36 4 -98 8 -137 9 -56 1 -73 4 -73 15 0
12 27 13 163 9 89 -2 168 -6 175 -9 28 -8 -16 -104 -49 -104 -11 0 -19 -4 -19
-8 0 -10 -87 -72 -100 -72 -6 0 -10 -4 -10 -8 0 -5 -18 -18 -40 -31 -22 -12
-40 -26 -40 -32 0 -5 -9 -9 -21 -9 -11 0 -33 -8 -47 -19 -15 -10 -42 -22 -59
-26 -19 -3 -33 -13 -33 -21 0 -9 -12 -14 -36 -14 -27 0 -37 -5 -41 -20 -6 -23
-11 -24 -50 -9 -32 12 -93 75 -93 95 0 8 -6 14 -13 14 -7 0 -37 25 -67 57 -74
76 -135 103 -228 102 l-72 -1 0 -34 c0 -27 10 -44 45 -82 25 -26 48 -55 51
-64 3 -10 10 -18 15 -18 5 0 9 -6 9 -14 0 -18 115 -136 150 -154 45 -24 522 3
599 34 18 8 41 14 49 14 20 0 155 51 162 62 3 4 25 14 48 22 73 26 192 128
192 165 0 10 7 21 15 24 8 4 25 23 38 45 18 28 36 42 66 51 23 6 46 9 51 6 6
-3 10 0 10 9 0 8 -6 16 -12 19 -7 2 -10 8 -5 12 15 17 31 -16 29 -63 -4 -74
-24 -192 -33 -192 -4 0 -11 -17 -15 -37 -4 -21 -12 -49 -19 -63 -7 -14 -20
-59 -30 -100 -10 -41 -29 -98 -41 -127 -27 -59 -54 -159 -54 -196 0 -14 -6
-27 -13 -30 -12 -4 -161 -2 -489 7 -64 1 -123 -1 -130 -5 -7 -5 -16 -3 -20 4
-6 9 -12 9 -26 0 -14 -8 -23 -8 -30 -1 -8 8 -19 7 -39 -1 l-29 -12 -1 -110
c-1 -61 -7 -124 -13 -140 -9 -20 -9 -37 -2 -61 6 -18 9 -103 7 -190 -2 -129 0
-158 11 -158 8 0 14 9 14 21 0 12 8 23 20 26 11 3 20 9 20 14 0 5 9 9 20 9 14
0 20 7 20 21 0 16 4 19 18 14 9 -4 27 -7 40 -6 18 1 22 -4 22 -29 0 -17 5 -30
10 -30 18 0 11 -22 -9 -27 -10 -2 -24 -16 -30 -29 -6 -13 -17 -24 -26 -24 -8
0 -16 -4 -16 -10 -1 -5 -2 -14 -3 -19 -2 -19 -16 -24 -31 -11 -11 9 -18 10
-28 1 -16 -13 -27 -5 -27 21 0 10 -7 18 -15 18 -9 0 -15 -9 -15 -22 0 -13 -3
-34 -7 -47 -6 -24 -5 -24 45 -18 31 4 52 2 52 -4 0 -5 11 -2 25 7 13 8 28 13
34 10 5 -3 138 -7 296 -7 286 -1 286 -1 283 -23 l-3 -21 -373 1 c-262 1 -377
5 -385 13 -12 12 -12 94 -1 601 4 162 4 292 0 289 -3 -3 -10 -167 -16 -365
-13 -472 -18 -546 -32 -555 -7 -4 -396 -5 -865 -2 l-853 6 0 -21 c0 -21 5 -22
138 -25 l137 -3 -137 -2 c-129 -2 -138 -3 -138 -22 0 -16 8 -19 58 -22 54 -3
57 -4 60 -30 3 -28 3 -28 -57 -28 -54 0 -61 -2 -61 -20 0 -18 7 -20 55 -20
l55 0 0 -95 0 -95 -32 0 c-71 0 -78 -7 -78 -71 0 -48 3 -57 15 -53 8 4 15 1
15 -5 0 -6 -7 -11 -15 -11 -11 0 -15 -11 -15 -40 0 -35 3 -40 24 -40 22 0 24
-5 31 -77 4 -49 3 -79 -3 -81 -5 -1 -8 -12 -5 -22 3 -11 0 -20 -6 -20 -6 0
-11 5 -11 11 0 8 -5 8 -15 -1 -11 -9 -15 -32 -15 -81 0 -61 2 -69 19 -69 18 0
68 -48 89 -86 8 -15 13 -16 25 -6 8 7 18 23 21 36 6 23 36 45 36 26 0 -6 18
-10 40 -10 22 0 40 -4 40 -10 0 -26 32 -5 46 30 16 40 34 53 34 25 0 -11 11
-15 38 -15 30 0 42 -6 62 -31 49 -61 55 -65 59 -43 2 10 7 24 11 29 4 6 11 25
15 42 7 37 21 42 41 15 13 -16 15 -16 28 1 20 25 34 21 41 -14 4 -17 12 -41
19 -54 12 -23 13 -23 28 -6 9 11 22 35 29 55 12 33 16 36 54 36 22 0 49 3 60
6 17 4 22 -2 34 -40 7 -24 19 -53 27 -63 12 -17 13 -16 14 10 0 18 11 40 31
60 28 28 40 32 98 35 l66 4 14 -46 c7 -25 17 -46 22 -46 5 0 9 4 9 9 0 12 59
71 70 71 5 0 11 -6 13 -12 4 -10 6 -10 6 0 1 6 7 12 15 12 9 0 17 -17 21 -47
l8 -48 14 55 14 55 239 0 c132 0 240 -3 240 -6 0 -4 29 -4 64 -2 88 8 112 0
125 -39 l12 -33 19 25 c11 14 20 33 20 43 0 20 1 20 59 6 26 -6 52 -20 63 -34
26 -33 38 -31 38 4 0 28 1 29 76 36 72 7 76 6 100 -20 l24 -26 23 23 c21 23
28 23 180 23 86 0 157 -3 157 -7 0 -5 9 -8 19 -8 11 0 22 -6 24 -12 4 -10 6
-10 6 0 1 6 8 12 16 12 8 0 15 5 15 10 0 12 27 13 34 1 10 -16 -26 -91 -44
-91 -11 0 -22 -14 -30 -40 -7 -22 -19 -40 -27 -40 -7 0 -13 -6 -13 -13 0 -21
-24 -67 -35 -67 -9 0 -45 -67 -45 -84 0 -6 -38 -64 -50 -76 -9 -9 -30 -76 -30
-96 0 -10 -14 -57 -31 -104 -48 -131 -87 -285 -104 -414 -4 -27 -10 -58 -15
-70 -4 -11 -14 -41 -21 -66 -7 -25 -16 -47 -19 -50 -6 -6 -14 -19 -61 -98 -27
-47 -31 -60 -27 -108 4 -43 11 -61 33 -84 16 -17 34 -30 41 -30 10 0 24 -21
24 -36 0 -2 -11 -4 -25 -4 -63 0 -84 -71 -30 -100 21 -11 25 -21 25 -57 0 -41
1 -43 30 -43 28 0 30 -2 30 -40 0 -22 -4 -40 -10 -40 -5 0 -10 -18 -10 -40 0
-29 -4 -40 -15 -40 -22 0 -18 -13 10 -38 16 -14 39 -22 60 -22 l35 0 0 -90 0
-90 80 0 80 0 0 75 c0 74 1 75 38 110 30 28 45 35 80 35 l42 0 0 49 0 50 43 4
42 4 -42 1 c-31 1 -43 6 -43 17 0 11 -11 15 -40 15 -33 0 -40 3 -40 20 0 16 8
20 58 23 l57 3 -57 2 c-67 2 -79 21 -15 23 31 1 20 5 -43 14 l-85 12 106 2
c127 1 271 19 281 35 4 6 8 25 8 43 0 24 -5 33 -22 38 -13 3 -32 11 -43 16
-11 5 -42 15 -70 22 -37 9 -51 17 -53 32 -5 24 -51 75 -68 75 -6 0 -14 7 -18
15 -3 8 -12 15 -21 15 -8 0 -15 9 -15 20 0 12 -6 33 -14 48 -7 15 -19 50 -26
79 -10 45 -9 62 9 132 11 45 27 98 37 118 9 21 21 49 27 63 6 14 21 39 32 55
12 17 32 53 44 80 12 28 26 57 31 65 5 8 19 36 31 63 12 26 25 47 29 47 4 0
11 11 14 25 4 14 11 25 16 25 6 0 10 7 10 15 0 8 14 34 30 57 17 22 30 46 30
53 0 7 14 26 30 43 17 18 30 36 30 41 0 6 12 23 26 38 15 15 38 45 52 66 13
20 28 37 32 37 4 0 13 18 20 40 7 22 19 40 25 40 12 0 75 119 75 142 0 7 10
19 22 27 18 11 22 11 32 -5 6 -11 14 -30 18 -44 8 -32 33 -113 52 -170 8 -25
19 -83 25 -130 6 -47 18 -132 26 -190 9 -58 20 -148 25 -200 6 -52 24 -169 41
-260 29 -156 30 -172 22 -310 -4 -80 -6 -167 -5 -194 4 -48 -21 -126 -40 -126
-11 0 -10 -138 2 -142 5 -2 16 -20 25 -41 14 -33 14 -37 0 -37 -13 0 -15 -20
-15 -120 0 -73 -4 -120 -10 -120 -5 0 -10 -18 -10 -40 l0 -40 165 0 165 0 0
40 c0 22 -4 40 -10 40 -5 0 -10 18 -10 40 0 29 -4 40 -15 40 -12 0 -15 15 -15
78 0 65 3 82 19 96 18 17 19 17 24 -1 3 -10 5 2 6 27 2 43 4 46 44 65 37 18
42 25 45 57 3 32 -1 39 -27 53 -17 8 -31 21 -31 29 0 7 -8 20 -17 29 -15 13
-19 37 -21 148 -3 102 -7 135 -18 143 -12 9 -13 20 -4 66 6 30 15 109 20 175
5 66 16 149 24 185 23 102 11 559 -15 576 -5 3 -9 16 -9 30 0 14 -6 32 -14 39
-13 13 -30 103 -41 215 -4 43 -3 50 5 31 10 -22 14 -23 72 -17 33 3 78 6 99 6
39 0 39 0 39 39 l0 40 -87 3 c-105 4 -123 1 -123 -21 -1 -14 -2 -14 -11 2 -5
9 -7 22 -4 28 4 5 9 69 12 142 2 73 9 134 14 135 5 2 9 10 9 17 0 7 7 15 15
19 8 3 15 1 15 -4 0 -24 158 -3 237 31 l45 19 -7 83 c-3 45 -15 179 -25 297
-21 235 -35 435 -46 660 -6 145 -20 216 -83 425 -13 43 -21 97 -21 142 0 42
-4 73 -10 73 -5 0 -10 20 -10 45 0 24 -7 70 -15 101 -18 69 -39 314 -28 325 5
5 33 5 63 2 54 -5 56 -7 73 -47 19 -47 21 -74 7 -96 -9 -13 -11 -13 -21 0 -9
13 -10 12 -5 -3 3 -10 6 -27 6 -38 0 -13 7 -19 24 -19 45 0 87 -26 112 -69 13
-24 24 -52 24 -62 0 -10 4 -19 10 -19 5 0 13 -14 18 -32 4 -17 17 -36 27 -42
11 -6 35 -27 55 -47 38 -39 102 -79 126 -79 9 0 27 -9 41 -20 37 -29 93 -25
93 7 0 33 -24 93 -37 93 -9 0 -13 13 -13 40 0 26 -5 40 -13 40 -7 0 -18 23
-25 53 -6 28 -19 57 -27 63 -8 6 -15 23 -15 36 0 14 -6 31 -14 37 -30 25 -67
119 -64 163 l3 42 330 -2 c182 -2 389 -5 460 -7 72 -3 346 -7 610 -10 264 -3
537 -8 608 -11 l127 -7 0 41 0 40 -72 10 -73 9 73 2 c40 0 72 5 72 11 0 16
-1377 14 -1384 -2 -5 -10 -7 -10 -12 0 -4 9 -89 12 -375 12 l-369 0 0 -40 c0
-22 -4 -40 -10 -40 -5 0 -10 18 -10 40 0 29 -4 40 -15 40 -11 0 -15 11 -15 40
0 29 -4 40 -15 40 -9 0 -15 9 -15 23 0 13 -8 32 -18 43 -19 21 -42 99 -42 144
0 17 -4 30 -8 30 -4 0 -8 70 -9 156 -2 126 -5 158 -17 168 -23 17 -66 103 -66
132 0 13 -6 24 -12 25 -7 0 2 7 20 15 36 16 42 33 12 41 -11 3 -20 9 -20 14 0
5 -7 9 -15 9 -9 0 -19 8 -22 18 -4 9 -15 28 -25 41 -10 13 -18 34 -18 47 0 12
-4 26 -10 29 -5 3 -10 21 -10 38 0 40 -32 131 -55 153 -9 9 -19 29 -22 45 -3
16 -9 29 -14 29 -4 0 -14 18 -20 40 -7 22 -16 40 -21 40 -4 0 -8 9 -8 20 0 11
-4 20 -8 20 -13 0 -38 66 -52 135 -50 245 -263 606 -372 630 -54 12 -231 14
-258 3z m435 -355 c30 -75 46 -205 26 -217 -6 -4 -11 -23 -11 -42 0 -23 -5
-34 -14 -34 -8 0 -16 -6 -19 -12 -2 -7 -4 1 -4 17 0 17 -7 60 -14 97 -12 61
-11 69 4 86 17 19 23 52 9 52 -7 0 -14 24 -39 119 -5 21 -4 22 14 12 12 -6 33
-41 48 -78z m-22 -362 c3 -13 1 -18 -9 -14 -7 2 -10 11 -7 19 7 19 10 18 16
-5z m2677 -1471 c0 -6 -33 -9 -82 -8 -71 1 -77 2 -38 8 70 11 120 11 120 0z
m-4625 -50 c15 -6 25 -16 22 -23 -6 -18 -158 -17 -165 1 -3 8 1 18 9 23 19 12
102 11 134 -1z m65 -60 c0 -5 -4 -10 -9 -10 -6 0 -13 5 -16 10 -3 6 1 10 9 10
9 0 16 -4 16 -10z m410 -958 c0 -14 -2 -14 -9 -3 -5 7 -14 10 -20 7 -6 -4 -11
-3 -11 3 0 11 21 20 33 14 4 -2 7 -12 7 -21z m30 8 c0 -5 -2 -10 -4 -10 -3 0
-8 5 -11 10 -3 6 -1 10 4 10 6 0 11 -4 11 -10z m-26 -62 c6 -25 4 -28 -19 -26
-14 1 -25 8 -25 15 0 7 7 10 15 7 11 -4 15 0 15 17 0 28 5 23 14 -13z m104
-16 c2 -7 -6 -12 -17 -12 -21 0 -27 11 -14 24 9 9 26 2 31 -12z m-278 -2 c0
-5 -9 -10 -19 -10 -11 0 -23 5 -26 10 -4 6 5 10 19 10 14 0 26 -4 26 -10z m90
0 c0 -5 -4 -10 -9 -10 -6 0 -13 5 -16 10 -3 6 1 10 9 10 9 0 16 -4 16 -10z
m390 0 c0 -5 -10 -10 -22 -10 -19 0 -20 2 -8 10 19 13 30 13 30 0z m80 -2 c0
-9 3 -9 12 0 16 16 28 15 28 -3 0 -16 -17 -19 -44 -9 -18 7 -22 24 -6 24 6 0
10 -5 10 -12z m-187 -5 c-7 -2 -19 -2 -25 0 -7 3 -2 5 12 5 14 0 19 -2 13 -5z
m26 -40 c0 -11 -3 -13 -6 -5 -2 6 -17 12 -33 12 -16 0 -31 -6 -33 -12 -3 -8
-6 -6 -6 5 -1 13 7 17 39 17 32 0 40 -4 39 -17z m-121 -45 c17 -17 15 -25 -8
-31 -23 -6 -34 7 -26 28 7 18 18 19 34 3z m213 -12 c7 17 8 17 8 -3 1 -20 -4
-23 -33 -23 -19 0 -38 5 -42 12 -5 8 -2 9 9 5 13 -5 17 -1 17 16 0 21 0 21 17
-2 16 -23 17 -23 24 -5z m83 -24 c-25 -6 -32 2 -22 28 l9 25 14 -25 c12 -21
12 -25 -1 -28z m-484 12 c0 -2 -9 -4 -21 -4 -11 0 -18 4 -14 10 5 8 35 3 35
-6z m80 6 c0 -5 -10 -10 -22 -10 -19 0 -20 2 -8 10 19 13 30 13 30 0z m210 -2
c17 10 20 10 20 -3 0 -11 -11 -15 -40 -15 -29 0 -40 4 -40 15 0 13 3 13 20 3
16 -10 24 -10 40 0z m87 -88 c2 -21 -2 -30 -12 -30 -10 0 -15 10 -15 30 0 39
24 39 27 0z m-340 -2 c-3 -8 -6 -5 -6 6 -1 11 2 17 5 13 3 -3 4 -12 1 -19z
m146 0 c14 -22 1 -48 -23 -48 -13 0 -20 7 -20 19 0 48 22 63 43 29z m-293 -32
c0 -11 -19 -15 -25 -6 -3 5 1 10 9 10 9 0 16 -2 16 -4z m115 -6 c-3 -5 -12
-10 -20 -10 -8 0 -17 5 -20 10 -4 6 5 10 20 10 15 0 24 -4 20 -10z m90 0 c-3
-5 -15 -10 -25 -10 -10 0 -22 5 -25 10 -4 6 7 10 25 10 18 0 29 -4 25 -10z
m185 0 c0 -5 -7 -10 -15 -10 -8 0 -15 5 -15 10 0 6 7 10 15 10 8 0 15 -4 15
-10z m7 -175 c-1 -30 -6 -55 -12 -55 -23 1 -40 28 -42 68 -2 40 -1 42 27 42
29 0 29 0 27 -55z m33 -3 c0 -7 -4 -10 -10 -7 -5 3 -10 16 -10 28 0 18 2 19
10 7 5 -8 10 -21 10 -28z m170 18 c0 -5 -4 -10 -10 -10 -5 0 -10 5 -10 10 0 6
5 10 10 10 6 0 10 -4 10 -10z m-330 -32 c0 -5 -4 -8 -10 -8 -5 0 -10 10 -10
23 0 18 2 19 10 7 5 -8 10 -18 10 -22z m210 12 c0 -5 -2 -10 -4 -10 -3 0 -8 5
-11 10 -3 6 -1 10 4 10 6 0 11 -4 11 -10z m3 -35 c1 -6 -13 -11 -30 -13 -37
-4 -45 14 -10 21 29 5 38 4 40 -8z m-1745 -240 c8 -8 -311 -5 -330 3 -10 4 60
6 154 4 94 -1 174 -4 176 -7z m218 3 c3 -4 -33 -8 -80 -8 -52 0 -86 4 -86 10
0 13 158 11 166 -2z m-616 -73 c0 -25 -2 -26 -51 -24 -52 3 -65 10 -55 34 4
11 21 15 56 15 47 0 50 -2 50 -25z m240 11 c0 -22 -19 -30 -85 -34 -78 -4
-105 3 -105 28 0 19 7 20 95 20 76 0 95 -3 95 -14z m377 -9 c-6 -18 -147 -25
-164 -9 -23 23 -8 27 82 24 60 -3 85 -7 82 -15z m1103 -16 c0 -34 -9 -44 -27
-30 -9 8 -13 8 -13 1 0 -11 -140 -19 -427 -24 l-153 -3 0 -42 0 -43 69 0 c119
0 191 11 192 29 0 11 3 8 9 -6 11 -27 30 -30 31 -5 1 13 2 14 5 2 9 -31 42
-39 173 -41 l131 -2 0 -79 c0 -43 -3 -78 -7 -78 -5 0 -6 25 -5 55 3 35 0 55
-7 55 -6 0 -11 -19 -11 -44 l0 -44 -232 -7 c-232 -7 -347 -6 -380 2 -15 4 -18
16 -18 84 0 72 2 79 20 79 17 0 20 7 20 39 0 30 -4 40 -20 44 -15 4 -20 14
-20 41 0 20 6 38 14 43 8 4 159 7 335 5 l321 -3 0 -28z m393 -11 c-1 -25 -2
-95 -2 -155 1 -123 -6 -161 -27 -169 -21 -8 -164 5 -164 15 0 5 37 10 83 11
l82 2 -77 3 -78 4 2 64 c1 36 5 70 9 77 9 14 11 14 76 16 36 2 44 6 57 34 21
41 21 45 -11 54 -36 10 -73 12 -73 3 0 -3 -11 -6 -24 -6 -19 0 -26 6 -31 29
-10 43 8 57 78 61 106 6 102 8 100 -43z m129 38 c9 -23 -4 -88 -17 -88 -9 0
-10 -13 -3 -57 5 -32 7 -85 3 -118 -3 -33 -7 -69 -8 -80 -1 -15 -9 -20 -32
-20 -30 0 -30 0 -33 65 -2 36 0 94 3 130 6 55 9 61 17 40 7 -20 11 -22 18 -10
17 26 11 48 -12 52 -25 3 -34 32 -24 74 5 20 13 24 45 24 22 0 41 -5 43 -12z
m-1842 -13 c0 -11 -12 -15 -42 -16 -70 -2 -85 2 -73 20 3 6 31 11 61 11 41 0
54 -4 54 -15z m458 3 c-3 -9 -33 -13 -103 -13 -70 0 -100 4 -102 13 -4 9 21
12 102 12 81 0 106 -3 103 -12z m162 -33 c0 -38 -3 -45 -20 -45 -16 0 -20 7
-20 30 0 17 -3 29 -7 29 -29 -5 -62 3 -67 16 -4 12 5 15 54 15 l60 0 0 -45z
m868 10 l3 -30 -66 3 c-65 4 -65 4 -65 33 l0 30 63 -3 c61 -3 62 -4 65 -33z
m-1030 -167 c-2 -37 -9 -73 -15 -79 -20 -20 -170 -9 -185 13 -4 7 -7 42 -6 78
3 74 -3 69 117 74 44 2 66 7 70 17 9 29 22 -39 19 -103z m-858 2 l0 -78 -55
-4 -55 -3 0 81 c0 44 2 83 4 85 2 2 27 2 55 1 l51 -4 0 -78z m226 24 c9 -48
-3 -107 -21 -100 -8 3 -16 0 -19 -7 -4 -8 -8 -8 -11 -2 -3 7 -28 9 -66 5 -33
-3 -62 -4 -64 -1 -8 7 -5 135 3 148 11 17 112 21 144 5 19 -9 29 -24 34 -48z
m759 52 c16 -11 20 -30 23 -110 4 -91 3 -96 -16 -96 -14 0 -22 8 -24 22 -5 34
-50 32 -59 -2 -4 -14 -7 22 -8 82 -1 103 0 107 22 111 39 8 43 7 62 -7z m-622
-5 l37 -1 0 -74 0 -74 -57 -5 c-32 -2 -59 -3 -61 -2 -7 7 -14 115 -9 137 5 18
13 24 29 22 13 -1 40 -3 61 -3z m236 -5 c12 -8 16 -132 3 -140 -4 -2 -41 -6
-82 -7 l-75 -2 -3 58 c-5 98 -4 100 76 99 38 -1 74 -4 81 -8z m1254 -68 c10
-33 -5 -48 -49 -48 -57 0 -58 19 -1 22 l42 1 -42 4 c-29 3 -43 9 -43 19 0 18
86 20 93 2z m24 -30 c-3 -7 -5 -2 -5 12 0 14 2 19 5 13 2 -7 2 -19 0 -25z m0
-80 c-2 -13 -4 -3 -4 22 0 25 2 35 4 23 2 -13 2 -33 0 -45z m-7 -38 c0 -13
-16 -15 -65 -12 -57 5 -58 20 -2 24 47 3 67 0 67 -12z m-190 1 c0 -5 -10 -11
-22 -15 -33 -8 -543 -7 -534 1 4 4 114 10 244 13 130 4 254 7 275 8 20 1 37
-2 37 -7z m-832 -161 c1 -30 -1 -82 -5 -115 l-8 -60 -59 0 -59 0 -3 85 c-1 47
0 100 3 118 l6 34 61 -4 61 -4 3 -54z m-288 39 c0 -8 4 -9 13 0 21 17 27 3 27
-63 0 -50 -4 -63 -20 -74 -14 -8 -20 -23 -20 -47 0 -34 -1 -35 -39 -35 -35 0
-39 3 -45 31 -8 40 -8 147 0 177 5 18 13 22 45 22 22 0 39 -5 39 -11z m426
-19 c11 0 14 -17 14 -77 0 -85 -11 -116 -32 -95 -9 9 -9 12 4 12 11 0 15 6 11
21 -4 16 -8 17 -14 7 -5 -7 -8 24 -8 77 1 50 3 82 6 73 2 -10 11 -18 19 -18z
m416 -67 c-3 -78 -7 -93 -20 -94 -13 0 -13 -2 3 -9 50 -22 55 -16 55 70 l0 80
44 0 c49 0 101 -16 128 -39 22 -19 26 -111 6 -111 -23 0 16 -20 40 -20 18 0
22 5 22 34 0 62 13 156 21 156 5 0 9 -42 9 -94 0 -88 -1 -94 -22 -101 -37 -11
-260 -16 -460 -9 l-188 7 0 95 0 94 40 -4 c22 -2 41 1 43 7 2 5 7 -26 12 -70
5 -55 4 -80 -4 -83 -6 -2 -11 -10 -11 -18 0 -10 12 -14 40 -14 l40 0 0 95 0
95 94 0 c78 0 95 3 100 16 11 28 12 13 8 -83z m1100 -4 c4 -141 6 -139 -91
-139 -89 0 -111 5 -111 27 0 10 6 12 20 8 11 -3 52 -3 92 1 l73 8 -42 8 -43 9
0 49 c0 29 -5 50 -12 52 -9 3 -9 12 1 36 11 26 19 31 54 35 23 2 45 4 49 5 4
1 8 -43 10 -99z m-2197 81 c3 -5 15 -6 28 -1 14 6 30 5 41 -1 16 -9 17 -19 11
-87 -4 -42 -8 -85 -9 -95 -1 -17 -9 -20 -53 -22 l-53 -2 0 103 c0 56 3 105 7
108 9 10 21 9 28 -3z m1781 -5 c12 -11 13 -33 8 -110 l-7 -95 -83 0 -84 0 0
100 0 100 40 0 c29 0 40 -4 40 -15 0 -22 21 -18 27 4 3 11 12 22 22 24 9 3 17
5 19 6 2 0 10 -6 18 -14z m145 4 c18 -9 20 -19 18 -110 l-2 -99 -46 0 -46 0 3
102 c2 65 8 105 15 110 17 11 35 10 58 -3z m356 -126 c4 -39 3 -43 -16 -43
-20 0 -21 5 -20 93 l0 92 16 -50 c8 -27 17 -69 20 -92z m-2459 111 c18 -5 15
-31 -5 -38 -37 -14 -100 24 -77 47 6 5 51 1 82 -9z m2222 -47 c0 -9 -5 -19
-10 -22 -6 -4 -10 -14 -9 -23 4 -23 -10 -62 -22 -62 -10 0 -13 153 -3 163 9 8
44 -37 44 -56z m-1673 -9 c-2 -13 -4 -3 -4 22 0 25 2 35 4 23 2 -13 2 -33 0
-45z m493 22 c0 -22 -4 -40 -10 -40 -5 0 -10 18 -10 40 0 22 5 40 10 40 6 0
10 -18 10 -40z m680 0 c0 -22 5 -40 10 -40 6 0 10 -27 10 -60 l0 -60 -55 0
c-30 0 -55 3 -56 8 0 4 -2 16 -5 27 -2 11 -1 53 2 93 l6 72 44 0 44 0 0 -40z
m-1723 -97 l1 -73 -31 5 c-18 2 -38 4 -44 4 -17 1 -17 83 -1 99 10 10 10 15
-1 22 -11 6 -7 9 15 13 58 9 59 7 61 -70z m820 35 c-3 -8 -6 -5 -6 6 -1 11 2
17 5 13 3 -3 4 -12 1 -19z m-347 -67 c0 -6 -4 -13 -10 -16 -5 -3 -10 1 -10 9
0 9 5 16 10 16 6 0 10 -4 10 -9z m2040 -16 c0 -11 -12 -15 -45 -15 -33 0 -45
4 -45 15 0 11 12 15 45 15 33 0 45 -4 45 -15z m476 -22 c-10 -10 -19 5 -10 18
6 11 8 11 12 0 2 -7 1 -15 -2 -18z m491 -455 c-3 -8 -6 -5 -6 6 -1 11 2 17 5
13 3 -3 4 -12 1 -19z"/>
<path d="M4738 2743 c12 -2 32 -2 45 0 12 2 2 4 -23 4 -25 0 -35 -2 -22 -4z"/>
<path d="M4898 2743 c12 -2 32 -2 45 0 12 2 2 4 -23 4 -25 0 -35 -2 -22 -4z"/>
<path d="M5448 2633 c7 -3 16 -2 19 1 4 3 -2 6 -13 5 -11 0 -14 -3 -6 -6z"/>
<path d="M3600 2358 c-3 -26 -1 -43 3 -39 5 5 7 26 5 47 l-3 39 -5 -47z"/>
<path d="M3363 2360 c0 -25 2 -35 4 -22 2 12 2 32 0 45 -2 12 -4 2 -4 -23z"/>
<path d="M3011 6963 c-1 -47 3 -75 12 -80 6 -4 18 -20 26 -35 8 -16 38 -53 68
-84 29 -31 53 -61 53 -66 0 -5 -19 -8 -42 -6 -41 3 -43 2 -41 -23 l1 -27 -24
25 c-28 28 -31 43 -8 43 9 0 14 7 12 17 -4 22 -28 29 -28 9 0 -9 -7 -16 -15
-16 -23 0 -21 -132 2 -151 9 -8 18 -13 20 -11 2 1 22 -19 44 -45 88 -104 98
-113 125 -113 25 0 26 2 20 33 -3 17 -14 37 -23 44 -18 14 -21 45 -10 113 3
25 3 34 -1 20 -7 -22 -9 -23 -15 -7 -11 30 -8 37 18 37 14 0 29 -8 35 -20 6
-11 17 -20 25 -20 9 0 15 -10 15 -25 0 -22 4 -25 34 -25 88 0 89 36 4 128 -34
37 -67 73 -73 80 -5 7 -18 22 -27 33 -10 10 -18 22 -18 25 0 10 -58 64 -69 64
-6 0 -11 6 -11 13 0 6 -19 33 -43 58 -23 25 -47 54 -54 65 -10 16 -12 7 -12
-53z m129 -335 c0 -7 -5 -20 -10 -28 -8 -12 -10 -9 -10 13 0 15 5 27 10 27 6
0 10 -6 10 -12z"/>
<path d="M5780 6971 c-22 -7 -23 -9 -7 -16 35 -15 92 -11 92 5 0 17 -46 23
-85 11z"/>
<path d="M8583 6924 c-16 -12 -16 -15 -3 -23 17 -11 89 -4 105 11 27 25 -70
36 -102 12z"/>
<path d="M3032 6805 c-9 -11 -10 -20 -3 -33 9 -15 10 -15 11 6 0 12 5 22 10
22 6 0 10 5 10 10 0 14 -13 12 -28 -5z"/>
<path d="M3060 6490 c0 -5 5 -10 11 -10 5 0 7 5 4 10 -3 6 -8 10 -11 10 -2 0
-4 -4 -4 -10z"/>
<path d="M9058 4963 c12 -2 32 -2 45 0 12 2 2 4 -23 4 -25 0 -35 -2 -22 -4z"/>
<path d="M9273 4963 c42 -2 112 -2 155 0 42 1 7 3 -78 3 -85 0 -120 -2 -77 -3z"/>
<path d="M8192 4623 l3 -48 164 0 164 0 2 40 c1 22 -3 43 -9 47 -6 4 -82 8
-169 8 l-158 0 3 -47z"/>
<path d="M9368 4605 l4 -45 64 0 64 0 0 45 0 45 -68 0 -67 0 3 -45z"/>
<path d="M8258 4393 c12 -2 32 -2 45 0 12 2 2 4 -23 4 -25 0 -35 -2 -22 -4z"/>
<path d="M3022 4308 c-9 -9 -12 -147 -12 -560 l0 -548 373 -1 c204 0 518 -1
697 -2 179 -1 305 1 280 4 l-45 6 39 1 c30 2 47 10 73 37 19 19 43 35 54 35
18 0 19 2 6 14 -9 9 -47 17 -101 22 -93 7 -119 21 -114 58 3 20 7 21 138 18
74 -1 154 -5 178 -8 33 -4 43 -2 49 11 11 29 -17 35 -169 35 -81 0 -149 3
-151 8 -3 4 61 6 143 4 125 -3 148 -1 153 12 11 28 -29 37 -166 36 -72 -1
-138 -1 -145 -1 -11 1 -12 60 -7 324 4 210 3 327 -4 337 -10 15 -107 28 -212
29 l-55 1 4 52 c2 40 -1 55 -13 64 -26 19 -73 -13 -85 -58 -10 -34 -14 -37
-66 -48 -30 -7 -74 -9 -97 -6 -23 4 -163 6 -310 6 -191 -1 -273 2 -283 11 -10
8 -18 8 -27 1 -7 -6 -23 -8 -36 -5 -22 5 -23 10 -19 64 l4 59 -31 0 c-17 0
-36 -5 -43 -12z m1237 -182 c8 -9 10 -92 6 -292 -4 -154 -8 -294 -11 -311 l-5
-33 -125 0 -126 0 6 28 c3 15 8 158 12 317 3 160 8 293 11 298 2 4 53 7 112 7
80 0 112 -4 120 -14z m-1011 -28 c-5 -15 -60 -16 -65 -2 -2 6 13 11 32 12 24
1 35 -3 33 -10z m207 -3 c0 -5 -21 -11 -47 -13 -39 -3 -48 0 -48 13 0 13 9 16
48 13 26 -2 47 -7 47 -13z m225 0 c0 -12 -14 -14 -70 -13 -57 1 -68 3 -59 15
17 19 129 18 129 -2z m160 1 c0 -9 -15 -15 -46 -18 -47 -3 -67 7 -43 23 23 15
89 11 89 -5z m123 -107 c-5 -18 -23 -27 -23 -11 1 25 14 52 20 42 4 -7 5 -21
3 -31z m3 -306 c-4 -135 -7 -159 -22 -170 -20 -15 -104 -18 -104 -4 0 5 -10
11 -22 13 l-23 3 23 20 c12 11 22 27 22 37 0 12 8 18 21 18 17 0 20 5 16 21
-4 15 0 23 14 26 23 6 63 68 56 87 -5 14 11 106 19 106 3 0 2 -71 0 -157z
m-606 -43 c0 -5 -5 -10 -11 -10 -5 0 -7 5 -4 10 3 6 8 10 11 10 2 0 4 -4 4
-10z m400 -105 c0 -9 -9 -15 -22 -15 -22 1 -23 1 -4 15 25 19 26 19 26 0z
m-17 -32 c-13 -2 -33 -2 -45 0 -13 2 -3 4 22 4 25 0 35 -2 23 -4z"/>
<path d="M7980 4306 c-14 -7 -49 -19 -78 -26 -30 -7 -56 -19 -59 -26 -4 -10
-25 -14 -75 -14 -67 0 -168 -24 -168 -40 0 -5 -3 -15 -6 -24 -4 -10 -1 -16 10
-16 8 0 31 -9 51 -20 25 -14 54 -20 100 -20 61 0 154 17 165 31 3 3 14 8 25
12 11 3 51 17 89 31 38 14 80 26 94 26 22 0 81 52 82 72 1 26 -184 38 -230 14z"/>
<path d="M4820 3985 c-22 -13 -23 -14 -5 -15 30 0 65 11 65 21 0 13 -32 10
-60 -6z"/>
<path d="M4890 3990 c0 -5 7 -10 15 -10 8 0 15 5 15 10 0 6 -7 10 -15 10 -8 0
-15 -4 -15 -10z"/>
<path d="M4945 3990 c-3 -5 1 -10 9 -10 8 0 18 5 21 10 3 6 -1 10 -9 10 -8 0
-18 -4 -21 -10z"/>
<path d="M5000 3990 c0 -5 7 -10 15 -10 8 0 15 5 15 10 0 6 -7 10 -15 10 -8 0
-15 -4 -15 -10z"/>
<path d="M5055 3990 c-20 -8 -20 -9 1 -9 12 -1 50 -3 85 -6 61 -4 62 -4 14 4
-27 5 -57 11 -65 14 -8 3 -24 2 -35 -3z"/>
<path d="M5245 3980 c-4 -7 13 -8 52 -4 76 9 80 14 10 14 -31 0 -59 -5 -62
-10z"/>
<path d="M8263 3763 c-8 -19 -9 -159 -6 -718 1 -214 -2 -412 -6 -440 l-8 -50
-2 71 c-2 129 -46 162 -216 163 -169 1 -174 -7 -187 -269 -11 -239 -12 -244
-68 -250 -38 -4 -45 -9 -51 -33 -16 -58 -27 -56 369 -73 140 -6 152 -8 152
-25 0 -15 8 -19 40 -19 22 0 40 -4 40 -9 0 -5 36 -12 80 -16 44 -4 80 -11 80
-16 0 -5 18 -9 40 -9 22 0 40 -4 40 -10 0 -5 18 -10 40 -10 29 0 40 4 40 15 0
11 11 15 40 15 27 0 40 4 40 13 0 11 29 15 117 20 66 4 119 11 121 17 2 5 21
10 43 10 21 0 40 3 40 8 7 42 9 83 9 252 0 107 -2 350 -6 540 -3 219 -2 340 4
331 7 -9 12 -10 16 -2 4 6 14 11 22 11 12 0 14 -27 14 -155 0 -95 -4 -164 -12
-180 -9 -20 -8 -31 3 -52 10 -22 14 -103 17 -363 2 -184 4 -343 4 -352 -1 -14
8 -18 41 -18 23 0 85 -3 137 -6 52 -2 121 -2 153 2 l57 6 0 104 0 104 -27 -6
c-16 -4 -29 -11 -31 -16 -2 -4 -21 -8 -43 -8 -39 0 -39 0 -39 -40 l0 -40 -78
0 c-67 0 -79 3 -90 21 -9 14 -10 24 -3 33 13 15 13 646 0 646 -5 0 -9 168 -9
404 l0 404 -22 6 c-13 3 -218 6 -456 6 -399 0 -433 -1 -439 -17z m687 -732 c0
-17 -18 -21 -24 -6 -3 9 0 15 9 15 8 0 15 -4 15 -9z m-640 -235 c0 -3 -4 -8
-10 -11 -5 -3 -10 -1 -10 4 0 6 5 11 10 11 6 0 10 -2 10 -4z m867 -278 c-2
-24 -4 -5 -4 42 0 47 2 66 4 43 2 -24 2 -62 0 -85z m-1288 -123 l2 -125 -27 0
c-22 0 -25 3 -21 23 3 12 9 68 13 125 5 72 10 102 19 102 10 0 13 -31 14 -125z
m316 -22 c-5 -99 -10 -119 -21 -89 -4 10 -10 13 -13 8 -3 -5 -63 -11 -133 -14
l-127 -5 3 36 c2 20 4 51 5 69 1 27 5 32 24 31 18 -1 19 -2 3 -6 -16 -4 -13
-10 20 -44 31 -32 45 -39 76 -39 31 0 38 4 38 20 0 17 7 20 40 20 36 0 40 3
40 25 0 18 -7 26 -25 31 -14 3 -25 9 -25 13 0 6 74 38 92 40 4 1 5 -42 3 -96z
m982 -35 c-2 -13 -4 -3 -4 22 0 25 2 35 4 23 2 -13 2 -33 0 -45z"/>
<path d="M8038 2303 c23 -2 61 -2 85 0 23 2 4 4 -43 4 -47 0 -66 -2 -42 -4z"/>
<path d="M7956 3218 c-3 -7 -4 -42 -3 -78 l2 -65 68 -3 68 -3 -3 78 -3 78 -63
3 c-44 2 -63 -1 -66 -10z m124 -58 c0 -5 -25 -10 -55 -10 -30 0 -55 5 -55 10
0 6 25 10 55 10 30 0 55 -4 55 -10z"/>
<path d="M7899 3180 c-4 -42 -1 -64 9 -68 8 -2 12 10 12 37 0 23 -4 41 -10 41
-5 0 -10 -4 -11 -10z"/>
<path d="M3010 3161 c0 -21 0 -21 455 -21 258 0 455 4 455 9 0 5 -111 12 -247
15 -137 3 -341 9 -455 12 -206 6 -208 6 -208 -15z"/>
<path d="M7613 3000 c0 -25 2 -35 4 -22 2 12 2 32 0 45 -2 12 -4 2 -4 -23z"/>
<path d="M9354 2450 c-6 -6 -8 -29 -5 -53 5 -35 10 -43 30 -45 16 -3 31 4 45
21 12 13 28 26 36 30 9 3 10 6 3 6 -18 1 -16 21 2 21 31 0 14 18 -22 24 -54 8
-78 7 -89 -4z"/>
<path d="M7085 2220 c-8 -13 98 -20 332 -20 220 0 263 3 263 19 0 9 -589 10
-595 1z"/>
<path d="M9070 2215 c0 -8 5 -15 10 -15 6 0 10 7 10 15 0 8 -4 15 -10 15 -5 0
-10 -7 -10 -15z"/>
<path d="M5545 2150 c4 -6 11 -8 16 -5 14 9 11 15 -7 15 -8 0 -12 -5 -9 -10z"/>
<path d="M8930 969 c-8 -15 -10 -121 -4 -375 l7 -354 283 0 284 0 0 90 c0 63
-4 91 -13 97 -33 20 -47 58 -47 130 0 78 13 119 40 128 11 4 17 17 18 38 1 28
-1 30 -12 15 -20 -27 -25 -22 -19 20 3 24 0 50 -9 66 -14 26 -16 27 -31 11
-23 -22 -21 -35 4 -35 19 0 20 -4 15 -35 -4 -21 -2 -44 5 -57 11 -21 11 -22
-4 -9 -10 7 -17 27 -17 43 0 23 -4 29 -16 24 -11 -4 -18 1 -21 14 -3 11 -9 20
-14 20 -5 0 -9 12 -9 26 0 14 -3 23 -7 21 -5 -3 -44 -2 -88 3 -64 6 -71 8 -35
10 l45 3 -45 7 -45 7 43 1 42 2 0 40 0 39 113 4 c109 3 107 3 -43 6 -107 3
-141 6 -110 11 28 4 -20 8 -127 8 -165 2 -173 1 -183 -19z m22 -254 c3 -138 2
-200 -2 -145 -8 99 -13 396 -6 389 2 -2 5 -112 8 -244z m374 113 c27 -9 37
-21 49 -57 19 -57 20 -131 1 -131 -7 0 -16 -8 -19 -19 -6 -25 -58 -49 -95 -43
-38 5 -85 -5 -77 -17 8 -14 9 -114 1 -139 -8 -25 -31 -29 -39 -8 -5 11 -11
376 -8 419 1 12 152 8 187 -5z"/>
<path d="M9190 710 l0 -90 39 0 c63 0 89 14 100 55 12 45 7 76 -16 92 -10 7
-23 17 -30 23 -7 5 -30 10 -53 10 l-40 0 0 -90z"/>
<path d="M9328 873 c6 -2 18 -2 25 0 6 3 1 5 -13 5 -14 0 -19 -2 -12 -5z"/>
<path d="M9370 870 c0 -5 5 -10 10 -10 6 0 10 5 10 10 0 6 -4 10 -10 10 -5 0
-10 -4 -10 -10z"/>
<path d="M9460 874 c0 -9 31 -37 36 -32 9 9 -8 38 -22 38 -8 0 -14 -3 -14 -6z"/>
<path d="M9487 603 c-11 -10 -8 -73 3 -73 6 0 10 18 10 40 0 41 -2 45 -13 33z"/>
</g>
</svg>
