<?xml version="1.0" standalone="no"?>
<!DOCTYPE svg PUBLIC "-//W3C//DTD SVG 20010904//EN"
 "http://www.w3.org/TR/2001/REC-SVG-20010904/DTD/svg10.dtd">
<svg version="1.0" xmlns="http://www.w3.org/2000/svg"
 width="1280.000000pt" height="720.000000pt" viewBox="0 0 1280.000000 720.000000"
 preserveAspectRatio="xMidYMid meet">
<metadata>
Created by potrace 1.16, written by Peter Selinger 2001-2019
</metadata>
<g transform="translate(0.000000,720.000000) scale(0.100000,-0.100000)"
fill="#000000" stroke="none">
<path d="M6207 7121 c-21 -23 -40 -55 -43 -71 -4 -16 -12 -31 -19 -34 -17 -6
-65 -94 -65 -117 0 -11 -6 -19 -14 -19 -15 0 -66 -106 -66 -138 0 -11 -4 -22
-9 -24 -18 -7 -63 -224 -68 -333 -3 -60 -9 -114 -13 -120 -4 -5 -11 -26 -15
-45 -7 -37 -52 -128 -71 -145 -6 -5 -17 -25 -24 -42 -7 -18 -16 -33 -20 -33
-4 0 -15 -18 -25 -40 -10 -22 -22 -40 -27 -40 -5 0 -13 -10 -18 -22 -6 -13
-14 -30 -19 -38 -5 -8 -12 -22 -16 -30 -8 -20 -26 -49 -52 -87 -13 -17 -23
-38 -23 -47 0 -9 -4 -16 -8 -16 -5 0 -15 -18 -22 -40 -7 -22 -17 -40 -22 -40
-4 0 -8 -33 -8 -72 -1 -40 -7 -93 -14 -118 -14 -51 -47 -123 -58 -128 -5 -2
-8 -10 -8 -18 0 -8 -4 -14 -10 -14 -5 0 -10 -11 -10 -25 0 -14 -4 -25 -8 -25
-4 0 -14 -17 -21 -37 -8 -20 -22 -46 -32 -57 -11 -11 -19 -25 -19 -30 0 -6
-13 -17 -30 -24 -31 -14 -43 -14 -850 7 -206 6 -404 12 -440 15 -36 3 -282 7
-547 9 l-483 4 0 -184 0 -183 203 0 c111 0 231 5 267 10 105 15 593 17 598 2
2 -7 21 -12 43 -12 32 0 39 3 39 20 0 18 7 20 74 20 41 0 80 2 88 5 7 3 19 1
27 -4 12 -8 12 -12 2 -25 -12 -14 -5 -16 68 -16 63 0 83 3 87 15 5 12 10 12
27 3 12 -6 24 -15 27 -19 3 -5 59 -6 123 -2 105 5 117 8 117 25 0 16 9 18 80
18 47 0 80 -4 80 -10 0 -5 -18 -10 -40 -10 -22 0 -40 -4 -40 -10 0 -5 9 -10
20 -10 30 0 24 -13 -26 -56 -25 -21 -70 -60 -100 -86 -51 -45 -58 -48 -110
-48 -30 0 -67 6 -82 14 -15 7 -44 16 -64 20 -21 4 -38 11 -38 16 0 6 -15 10
-34 10 -46 0 -96 19 -96 37 0 12 -9 14 -37 11 -21 -3 -46 -8 -55 -12 -13 -6
-18 -4 -18 8 0 12 -10 16 -42 16 -43 0 -43 0 -18 -15 14 -8 33 -18 43 -21 9
-3 17 -10 17 -14 0 -5 18 -11 40 -15 22 -4 40 -11 40 -16 0 -5 7 -9 15 -9 8 0
15 -5 15 -10 0 -6 29 -24 65 -41 36 -17 65 -34 65 -38 0 -5 27 -14 60 -21 70
-15 161 -8 195 14 14 9 46 16 74 16 28 0 76 7 108 16 32 8 81 22 108 29 106
29 140 40 145 46 3 4 29 17 58 29 28 12 52 26 52 31 0 5 11 9 25 9 14 0 42 8
63 19 20 10 56 22 79 26 28 4 50 15 63 32 19 25 20 25 142 20 90 -4 123 -9
126 -19 11 -42 13 -43 27 -18 14 24 14 23 15 -24 0 -49 -4 -65 -41 -177 -11
-31 -19 -66 -19 -78 0 -11 -4 -21 -8 -21 -5 0 -14 -15 -19 -32 -6 -18 -29 -73
-51 -123 -40 -92 -82 -239 -82 -288 0 -23 -5 -27 -27 -28 -35 -2 -423 3 -518
5 -38 2 -78 -1 -87 -6 -10 -5 -18 -3 -21 5 -3 9 -9 9 -24 0 -15 -8 -24 -8 -31
-1 -8 8 -19 7 -39 -1 l-29 -12 -1 -110 c-1 -61 -7 -124 -13 -140 -9 -20 -9
-37 -2 -61 6 -18 9 -103 7 -190 -2 -129 0 -158 11 -158 8 0 14 9 14 21 0 12 8
23 20 26 11 3 20 9 20 14 0 5 8 9 19 9 11 0 21 9 24 21 4 16 9 19 23 11 9 -5
25 -7 35 -5 16 4 19 0 19 -26 0 -17 5 -31 10 -31 18 0 11 -22 -9 -27 -10 -2
-24 -16 -30 -29 -6 -13 -17 -24 -26 -24 -8 0 -16 -4 -16 -10 -1 -5 -2 -14 -3
-19 -2 -19 -16 -24 -31 -11 -11 9 -18 10 -28 1 -16 -13 -27 -5 -27 21 0 10 -7
18 -15 18 -9 0 -15 -9 -15 -22 0 -13 -3 -34 -7 -47 -6 -24 -5 -24 45 -18 31 4
52 2 52 -4 0 -5 11 -2 25 7 13 8 29 13 34 10 6 -4 125 -7 265 -7 154 0 258 -4
261 -10 4 -5 3 -18 0 -30 -6 -19 -14 -20 -113 -18 -246 5 -588 22 -596 30 -10
9 -10 120 0 599 4 162 4 292 0 289 -3 -3 -10 -167 -16 -365 -13 -472 -18 -546
-32 -555 -7 -4 -396 -5 -865 -2 l-853 6 0 -21 c0 -21 5 -22 138 -25 l137 -3
-137 -2 c-129 -2 -138 -3 -138 -22 0 -16 8 -19 58 -22 53 -3 57 -5 57 -28 0
-23 -4 -25 -57 -28 -50 -3 -58 -6 -58 -22 0 -17 7 -20 55 -20 l55 0 0 -95 0
-95 -32 0 c-71 0 -78 -7 -78 -71 0 -48 3 -57 15 -53 8 4 15 1 15 -5 0 -6 -7
-11 -15 -11 -11 0 -15 -11 -15 -40 0 -35 3 -40 24 -40 22 0 24 -5 31 -77 4
-49 3 -79 -3 -81 -5 -1 -8 -12 -5 -22 3 -11 0 -20 -6 -20 -6 0 -11 5 -11 11 0
8 -5 8 -15 -1 -11 -9 -15 -32 -15 -81 0 -61 2 -69 19 -69 18 0 68 -48 89 -86
8 -15 13 -16 25 -6 8 7 18 23 21 36 6 23 36 45 36 26 0 -6 18 -10 40 -10 22 0
40 -4 40 -10 0 -26 32 -5 46 30 16 40 34 53 34 25 0 -11 11 -15 38 -15 30 0
42 -6 62 -31 49 -61 55 -65 59 -43 2 10 7 24 11 29 4 6 11 25 15 43 7 36 21
41 41 14 13 -16 15 -16 28 1 20 25 34 21 41 -14 4 -17 12 -41 19 -54 12 -23
13 -23 28 -6 9 11 22 35 29 55 12 33 16 36 54 36 22 0 49 3 60 6 17 4 22 -2
34 -40 7 -24 19 -53 27 -63 12 -17 13 -16 14 10 0 18 11 40 31 60 28 28 40 32
98 35 l66 4 14 -46 c7 -25 17 -46 22 -46 5 0 9 4 9 9 0 12 59 71 70 71 5 0 11
-6 13 -12 4 -10 6 -10 6 0 1 6 7 12 15 12 9 0 17 -17 21 -47 l8 -48 14 55 14
55 239 0 c132 0 240 -3 240 -6 0 -4 29 -4 64 -2 88 8 112 0 125 -39 l12 -33
19 25 c11 14 20 33 20 44 0 14 5 17 23 12 12 -3 30 -6 40 -6 9 0 17 -7 17 -15
0 -11 11 -15 40 -15 27 0 40 4 40 14 0 18 152 34 158 17 2 -6 11 -11 19 -11
16 0 17 15 -6 -245 -13 -152 -13 -744 0 -843 13 -100 -1 -192 -31 -192 -10 0
-20 -7 -23 -14 -3 -8 -30 -26 -60 -40 -66 -31 -130 -33 -207 -6 -30 11 -69 19
-87 20 -35 0 -83 -18 -83 -32 0 -24 148 -165 180 -171 14 -3 71 -16 128 -29
153 -37 172 -70 54 -95 -31 -6 -72 -12 -89 -12 -18 -1 -33 -5 -33 -11 0 -5
-15 -10 -34 -10 -29 0 -105 -30 -156 -61 -8 -5 -23 -12 -32 -15 -10 -4 -18
-10 -18 -14 0 -17 62 -23 225 -25 94 -1 178 -5 187 -9 29 -13 33 -47 9 -67
-11 -9 -21 -22 -21 -28 0 -5 -19 -12 -42 -14 l-43 -4 43 -1 42 -2 0 -40 0 -40
45 0 45 0 0 -40 c0 -22 5 -40 10 -40 6 0 10 -18 10 -40 l0 -40 145 0 145 0 0
40 c0 30 -4 40 -16 40 -14 0 -15 10 -9 76 7 74 6 75 -23 103 -26 26 -30 36
-37 122 -10 117 -10 108 10 259 9 69 15 159 14 201 -2 46 1 82 8 90 6 8 19 52
28 99 17 84 23 124 65 375 11 72 25 149 30 173 6 23 10 100 10 170 1 100 6
151 26 237 14 61 28 123 31 138 4 18 15 33 32 40 17 7 167 12 454 15 370 3
429 1 442 -12 19 -19 19 -69 -1 -293 -14 -163 -14 -211 1 -378 36 -384 46
-698 25 -799 -12 -58 3 -273 20 -290 6 -6 10 -63 10 -128 0 -111 -1 -118 -20
-118 -17 0 -20 -7 -20 -40 0 -22 -4 -40 -10 -40 -5 0 -10 -18 -10 -40 l0 -40
170 0 170 0 0 80 c0 73 -2 80 -20 80 -17 0 -20 7 -20 40 l0 40 40 0 c33 0 40
3 40 20 0 17 7 20 40 20 l40 0 0 63 0 62 78 -3 c66 -3 82 0 103 17 l24 20 -25
23 c-28 26 -79 42 -198 63 -159 27 -127 46 68 38 121 -5 140 -3 180 15 25 12
51 30 58 42 11 19 10 24 -17 49 -34 32 -68 41 -169 45 -52 2 -77 9 -109 29
-48 31 -123 105 -123 123 0 7 -5 14 -11 16 -15 5 -15 98 0 193 6 44 16 109 20
145 5 36 16 117 24 180 40 297 50 552 28 711 -6 48 -5 62 6 66 7 3 13 10 13
17 0 8 65 10 242 8 234 -3 288 0 288 16 0 4 -120 8 -268 9 -147 2 -269 3 -272
3 -5 0 -9 88 -12 315 -4 186 17 255 77 255 22 0 75 41 75 57 0 14 -40 69 -87
122 -13 14 -25 45 -28 71 -4 25 -10 66 -15 92 -14 72 -29 249 -40 488 -11 228
-18 280 -75 565 -31 156 -85 522 -85 580 0 19 6 20 90 17 86 -3 91 -5 107 -30
9 -15 25 -37 36 -49 l19 -22 -38 -7 c-22 -4 -48 -8 -59 -9 -11 -1 -33 -2 -48
-3 -26 -2 -28 -5 -25 -39 l3 -38 138 -7 c138 -7 199 -19 225 -45 7 -7 20 -13
28 -13 8 0 14 -4 14 -8 0 -4 16 -14 36 -21 19 -7 38 -20 42 -29 3 -9 17 -26
31 -39 20 -17 23 -25 13 -31 -23 -15 12 -33 82 -42 35 -4 69 -10 73 -13 17
-11 68 -19 173 -29 58 -5 107 -13 108 -19 6 -16 151 -11 168 6 9 8 29 15 45
15 16 0 29 4 29 8 0 14 94 52 128 52 18 0 32 5 32 10 0 6 -7 10 -15 10 -8 0
-15 7 -15 15 0 8 6 15 14 15 8 0 23 11 34 25 11 14 29 25 41 25 12 0 21 5 21
11 0 13 55 69 68 69 6 0 12 18 14 39 2 22 0 37 -4 35 -5 -3 -20 4 -34 15 -24
19 -40 21 -181 21 l-154 0 3 -47 3 -48 39 2 c42 3 62 -13 44 -34 -6 -7 -14
-13 -18 -13 -5 0 -19 -9 -32 -21 -13 -12 -39 -27 -58 -34 -123 -47 -170 -62
-170 -56 0 4 -18 14 -40 21 -22 7 -40 19 -40 27 0 7 -11 13 -25 13 -14 0 -25
4 -25 10 0 5 -18 19 -40 30 -22 11 -40 25 -40 30 0 6 -11 10 -25 10 -14 0 -25
3 -25 8 0 4 -14 16 -30 27 -16 11 -30 26 -30 33 0 6 -10 12 -23 12 -14 0 -43
19 -71 45 -27 25 -53 45 -57 45 -5 0 -9 9 -9 19 0 11 -11 28 -25 39 -14 11
-25 25 -25 31 0 6 -7 11 -15 11 -9 0 -15 9 -15 25 0 15 -6 25 -14 25 -7 0 -16
9 -19 21 -3 11 -15 23 -26 26 -12 3 -21 12 -21 19 0 8 -4 14 -9 14 -8 0 -35
64 -72 170 -10 30 -23 64 -28 75 -23 54 -30 102 -36 240 -6 114 -12 160 -26
192 -11 23 -19 46 -19 51 0 33 -87 152 -111 152 -5 0 -9 18 -9 39 0 22 -4 41
-10 43 -5 2 -19 45 -30 97 -11 52 -27 102 -35 111 -8 9 -15 26 -15 38 0 12 -4
22 -9 22 -4 0 -16 21 -25 48 -9 26 -23 60 -31 75 -8 16 -15 42 -15 58 0 16 -4
29 -9 29 -5 0 -11 17 -13 38 -9 69 -40 197 -49 200 -5 2 -9 14 -9 27 0 27 -58
168 -71 173 -5 2 -9 14 -9 26 0 13 -9 35 -20 49 -11 14 -20 30 -20 36 0 6 -4
11 -10 11 -5 0 -10 4 -10 9 0 15 -69 112 -93 130 -51 39 -97 52 -209 58 l-113
6 -38 -42z m424 -263 c48 -55 84 -247 59 -313 -5 -14 -12 -46 -14 -70 -9 -94
-36 -82 -36 16 0 39 -4 69 -10 69 -16 0 -12 78 6 105 13 20 14 33 5 74 -6 28
-20 67 -31 88 -11 21 -20 41 -20 45 0 15 23 8 41 -14z m-792 -1855 l1 -63 -40
0 c-36 0 -40 2 -40 25 0 15 -7 39 -15 55 -14 27 -13 32 10 79 14 28 30 53 35
56 4 3 12 20 16 38 7 28 9 23 20 -48 7 -44 13 -108 13 -142z m1151 18 c0 -69
12 -113 32 -119 10 -2 18 -8 18 -13 0 -13 -27 -11 -50 4 -17 10 -22 9 -30 -3
-11 -17 -14 107 -4 159 5 25 9 29 20 20 8 -6 14 -28 14 -48z m-1282 -50 c10
-6 7 -10 -11 -13 -18 -4 -24 -1 -20 9 6 15 13 16 31 4z m-468 -19 c0 -10 -22
-32 -32 -32 -4 0 -8 9 -8 20 0 13 7 20 20 20 11 0 20 -4 20 -8z m-100 -82 c0
-5 -4 -10 -10 -10 -5 0 -10 5 -10 10 0 6 5 10 10 10 6 0 10 -4 10 -10z m-485
-60 c15 -6 25 -16 22 -23 -6 -18 -158 -17 -165 1 -3 8 1 18 9 23 19 12 102 11
134 -1z m65 -60 c0 -5 -4 -10 -9 -10 -6 0 -13 5 -16 10 -3 6 1 10 9 10 9 0 16
-4 16 -10z m2332 -132 c-9 -9 -12 -7 -12 12 0 19 3 21 12 12 9 -9 9 -15 0 -24z
m-1923 -826 c0 -11 -3 -12 -6 -4 -2 6 -12 12 -21 12 -14 0 -15 2 -2 9 18 12
30 5 29 -17z m31 8 c0 -5 -2 -10 -4 -10 -3 0 -8 5 -11 10 -3 6 -1 10 4 10 6 0
11 -4 11 -10z m-26 -62 c6 -25 4 -28 -19 -26 -14 1 -25 8 -25 15 0 7 7 10 15
7 11 -4 15 0 15 17 0 28 5 23 14 -13z m101 -8 c3 -6 -1 -13 -10 -16 -19 -8
-30 0 -20 15 8 14 22 14 30 1z m-275 -10 c0 -5 -6 -10 -14 -10 -8 0 -18 5 -21
10 -3 6 3 10 14 10 12 0 21 -4 21 -10z m90 0 c0 -12 -8 -12 -35 0 -18 8 -17 9
8 9 15 1 27 -3 27 -9z m390 0 c0 -5 -10 -10 -22 -10 -19 0 -20 2 -8 10 19 13
30 13 30 0z m120 1 c0 -16 -19 -23 -43 -15 l-22 8 25 7 c36 10 40 10 40 0z
m-201 -48 c0 -11 -3 -13 -6 -5 -2 6 -17 12 -33 12 -16 0 -31 -6 -33 -12 -3 -8
-6 -6 -6 5 -1 13 7 17 39 17 32 0 40 -4 39 -17z m98 -45 c-2 -13 -4 -5 -4 17
-1 22 1 32 4 23 2 -10 2 -28 0 -40z m-219 0 c18 -18 14 -35 -8 -33 -26 2 -34
11 -27 30 8 18 19 19 35 3z m185 -36 c-14 -2 -31 2 -37 9 -8 9 -7 11 7 6 13
-5 17 -1 17 14 0 21 1 20 19 -2 l19 -24 -25 -3z m109 6 c-18 -18 -30 -5 -20
22 9 23 10 24 20 7 7 -13 7 -22 0 -29z m-482 6 c0 -2 -9 -4 -21 -4 -11 0 -18
4 -14 10 5 8 35 3 35 -6z m80 6 c0 -5 -10 -10 -22 -10 -19 0 -20 2 -8 10 19
13 30 13 30 0z m211 -2 c18 11 20 11 17 0 -3 -7 -21 -14 -41 -16 -28 -2 -37 1
-37 12 0 14 3 14 20 4 16 -10 24 -10 41 0z m81 -88 c-2 -16 -8 -30 -13 -30 -5
0 -9 14 -9 30 0 18 5 30 13 30 9 0 12 -10 9 -30z m-189 -2 c14 -22 1 -48 -23
-48 -13 0 -20 7 -20 19 0 48 22 63 43 29z m214 -10 c-3 -7 -5 -2 -5 12 0 14 2
19 5 13 2 -7 2 -19 0 -25z m-507 -22 c0 -11 -19 -15 -25 -6 -3 5 1 10 9 10 9
0 16 -2 16 -4z m115 -6 c-3 -5 -12 -10 -20 -10 -8 0 -17 5 -20 10 -4 6 5 10
20 10 15 0 24 -4 20 -10z m90 0 c-3 -5 -15 -10 -25 -10 -10 0 -22 5 -25 10 -4
6 7 10 25 10 18 0 29 -4 25 -10z m185 0 c0 -5 -7 -10 -15 -10 -8 0 -15 5 -15
10 0 6 7 10 15 10 8 0 15 -4 15 -10z m5 -166 c-5 -34 -3 -49 7 -55 9 -6 8 -9
-7 -9 -33 1 -50 22 -53 68 -2 41 -2 42 29 42 l31 0 -7 -46z m22 -6 c-3 -8 -6
-5 -6 6 -1 11 2 17 5 13 3 -3 4 -12 1 -19z m-147 -20 c0 -5 -4 -8 -10 -8 -5 0
-10 10 -10 23 0 18 2 19 10 7 5 -8 10 -18 10 -22z m210 -28 c0 -5 -13 -10 -30
-10 -16 0 -30 5 -30 10 0 6 14 10 30 10 17 0 30 -4 30 -10z m-1742 -235 c8 -8
-311 -5 -330 3 -10 4 60 6 154 4 94 -1 174 -4 176 -7z m218 3 c3 -4 -33 -8
-80 -8 -52 0 -86 4 -86 10 0 13 158 11 166 -2z m-616 -73 c0 -23 -3 -25 -49
-25 -51 0 -67 10 -57 35 4 11 21 15 56 15 47 0 50 -2 50 -25z m240 11 c0 -22
-19 -30 -85 -34 -78 -4 -105 3 -105 28 0 19 7 20 95 20 76 0 95 -3 95 -14z
m377 -9 c-6 -18 -147 -25 -164 -9 -23 23 -8 27 82 24 60 -3 85 -7 82 -15z
m1103 -16 c0 -34 -9 -44 -27 -30 -8 7 -13 7 -13 2 0 -11 -234 -25 -447 -27
l-133 -1 0 -42 0 -43 69 0 c119 0 191 11 192 29 0 11 3 8 9 -6 11 -27 30 -30
31 -5 1 13 2 14 5 2 9 -31 42 -39 173 -41 l131 -2 0 -79 c0 -43 -3 -78 -7 -78
-5 0 -6 25 -5 55 3 35 0 55 -7 55 -6 0 -11 -19 -11 -44 l0 -44 -232 -7 c-232
-7 -347 -6 -380 2 -15 4 -18 16 -18 84 0 72 2 79 20 79 17 0 20 7 20 39 0 30
-4 40 -20 44 -15 4 -20 14 -20 41 0 20 6 38 14 43 8 4 159 7 335 5 l321 -3 0
-28z m396 12 c4 -14 2 -40 -5 -58 -7 -20 -9 -63 -5 -122 8 -103 0 -158 -22
-167 -21 -8 -164 5 -164 15 0 5 39 10 88 11 l87 2 -83 3 -82 4 1 62 c3 86 9
95 60 91 47 -4 79 9 80 34 1 11 4 8 9 -8 7 -21 8 -19 9 18 1 23 -2 42 -6 42
-5 1 -27 5 -50 9 -24 5 -43 5 -43 1 0 -4 -11 -7 -24 -7 -18 0 -26 6 -31 24
-12 49 1 62 68 66 34 2 72 4 84 5 17 2 24 -5 29 -25z m86 7 c15 -23 -16 -92
-36 -84 -17 6 -23 83 -9 98 11 10 35 3 45 -14z m-1802 -5 c0 -11 -12 -15 -42
-16 -70 -2 -85 2 -73 20 3 6 31 11 61 11 41 0 54 -4 54 -15z m458 3 c-3 -9
-33 -13 -103 -13 -70 0 -100 4 -102 13 -4 9 21 12 102 12 81 0 106 -3 103 -12z
m162 -33 c0 -38 -3 -45 -20 -45 -16 0 -20 7 -20 30 0 17 -3 29 -7 29 -29 -5
-62 3 -67 16 -4 12 5 15 54 15 l60 0 0 -45z m868 7 c3 -29 1 -32 -20 -28 -13
3 -42 5 -65 5 -41 1 -43 2 -43 31 l0 31 63 -3 62 -3 3 -33z m-1030 -164 c-2
-37 -9 -73 -15 -79 -20 -20 -171 -9 -185 13 -10 16 -10 129 0 143 4 6 45 11
92 12 60 0 85 4 89 14 9 29 22 -40 19 -103z m-858 2 l0 -78 -55 -4 -55 -3 0
81 c0 44 2 83 4 85 2 2 27 2 55 1 l51 -4 0 -78z m226 24 c9 -48 -3 -107 -21
-100 -8 3 -16 0 -19 -7 -4 -8 -8 -8 -11 -2 -3 7 -28 9 -66 5 -33 -3 -62 -4
-64 -1 -8 7 -5 135 3 148 11 17 112 21 144 5 19 -9 29 -24 34 -48z m759 52
c16 -11 20 -30 23 -110 4 -91 3 -96 -16 -96 -14 0 -22 8 -24 22 -5 34 -50 32
-59 -2 -4 -14 -7 22 -8 82 -1 103 0 107 22 111 39 8 43 7 62 -7z m-622 -5 l37
-1 0 -74 0 -74 -57 -5 c-32 -2 -59 -3 -61 -2 -7 7 -14 115 -9 137 5 18 13 24
29 22 13 -1 40 -3 61 -3z m236 -5 c12 -8 16 -132 3 -140 -4 -2 -41 -6 -82 -7
l-75 -2 -3 58 c-5 98 -4 100 76 99 38 -1 74 -4 81 -8z m1611 -113 c0 -92 -7
-113 -36 -113 -24 0 -24 2 -24 91 0 50 5 99 11 111 l11 20 19 -21 c15 -16 19
-35 19 -88z m914 81 c9 -3 16 -14 16 -24 0 -28 18 -34 105 -35 l80 0 0 -230 0
-230 -35 0 c-19 0 -41 -4 -49 -9 -18 -12 -133 -20 -166 -12 -28 7 -25 28 3 24
12 -2 18 5 20 24 3 22 -2 30 -23 38 -26 10 -26 10 -23 112 4 131 22 137 26 8
4 -132 18 -134 17 -2 0 66 4 107 10 106 101 -13 145 -13 143 -2 -2 7 7 14 20
16 16 2 22 10 22 28 0 22 -4 24 -45 24 -32 0 -45 -4 -45 -14 0 -15 -80 -25
-122 -16 -22 6 -23 11 -26 95 -3 91 2 105 40 105 9 0 23 -3 32 -6z m-114 -93
c0 -95 0 -95 -43 -105 l-28 -7 3 88 c3 82 5 88 28 100 14 7 28 13 33 13 4 0 7
-40 7 -89z m-1157 57 c10 -33 -5 -48 -49 -48 -57 0 -58 19 -1 22 l42 1 -42 4
c-29 3 -43 9 -43 19 0 18 86 20 93 2z m24 -30 c-3 -7 -5 -2 -5 12 0 14 2 19 5
13 2 -7 2 -19 0 -25z m1025 10 c2 -13 1 -51 0 -86 l-4 -63 -111 3 -112 3 -3
64 c-2 35 1 68 7 74 6 6 55 14 108 17 54 4 101 8 105 8 4 1 8 -8 10 -20z m488
-37 c6 -24 9 -119 8 -233 -3 -174 -5 -193 -20 -196 -17 -3 -18 13 -18 232 0
234 7 281 30 197z m-1513 -53 c-2 -13 -4 -3 -4 22 0 25 2 35 4 23 2 -13 2 -33
0 -45z m-7 -38 c0 -13 -16 -15 -65 -12 -57 5 -58 20 -2 24 47 3 67 0 67 -12z
m-190 1 c0 -5 -10 -11 -22 -15 -33 -8 -543 -7 -534 1 4 4 114 10 244 13 130 4
254 7 275 8 20 1 37 -2 37 -7z m1328 -205 l-3 -141 -30 0 -30 0 -3 142 c-3
141 -2 142 20 145 48 8 49 4 46 -146z m-110 -21 l-3 -116 -70 -4 c-38 -3 -89
-2 -112 1 l-43 6 0 107 c0 58 4 111 8 116 11 16 123 19 133 3 5 -7 9 -55 9
-105 l0 -93 28 0 27 0 -3 91 c-2 51 -1 103 3 118 14 55 26 -9 23 -124z m-2050
65 c1 -30 -1 -82 -5 -115 l-8 -60 -59 0 -59 0 -3 85 c-1 47 0 100 3 118 l6 34
61 -4 61 -4 3 -54z m1989 28 c-3 -7 -5 -2 -5 12 0 14 2 19 5 13 2 -7 2 -19 0
-25z m-2277 11 c0 -8 4 -9 13 0 21 17 27 3 27 -63 0 -50 -4 -63 -20 -74 -14
-8 -20 -23 -20 -47 0 -34 -1 -35 -39 -35 -35 0 -39 3 -45 31 -8 40 -8 147 0
177 5 18 13 22 45 22 22 0 39 -5 39 -11z m426 -19 c11 0 14 -17 14 -77 0 -85
-11 -116 -32 -95 -9 9 -9 12 4 12 11 0 15 6 11 21 -4 16 -8 17 -14 7 -5 -7 -8
24 -8 77 1 50 3 82 6 73 2 -10 11 -18 19 -18z m411 -67 c-6 -52 -15 -93 -21
-94 -16 -1 26 -17 47 -18 15 -1 17 9 17 79 l0 80 44 0 c49 0 101 -16 128 -39
22 -19 26 -111 6 -111 -23 0 16 -20 40 -20 18 0 22 5 22 34 0 62 13 156 21
156 5 0 9 -42 9 -94 0 -88 -1 -94 -22 -101 -37 -11 -260 -16 -460 -9 l-188 7
0 95 0 94 40 -4 c22 -2 41 1 43 7 2 5 7 -26 12 -70 5 -55 4 -80 -4 -83 -6 -2
-11 -10 -11 -18 0 -10 12 -14 40 -14 l40 0 0 95 0 95 94 0 c78 0 95 3 100 16
13 33 14 7 3 -83z m-1092 77 c3 -5 15 -6 28 -1 14 6 30 5 41 -1 16 -9 17 -19
11 -87 -4 -42 -8 -85 -9 -95 -1 -17 -9 -20 -53 -22 l-53 -2 0 103 c0 56 3 105
7 108 9 10 21 9 28 -3z m1781 -5 c12 -11 13 -33 8 -110 l-7 -95 -83 0 -84 0 0
100 0 100 40 0 c34 0 40 -3 40 -21 0 -18 2 -19 15 -9 8 7 15 18 15 25 0 8 8
16 18 18 9 3 18 5 20 6 2 0 10 -6 18 -14z m-1958 -11 c18 -5 15 -31 -5 -38
-37 -14 -100 24 -77 47 6 5 51 1 82 -9z m2062 -28 c0 -17 -7 -53 -14 -81 l-14
-50 -1 87 c-1 74 1 86 14 82 9 -4 15 -19 15 -38z m-1513 -28 c-2 -13 -4 -3 -4
22 0 25 2 35 4 23 2 -13 2 -33 0 -45z m493 22 c0 -22 -4 -40 -10 -40 -5 0 -10
18 -10 40 0 22 5 40 10 40 6 0 10 -18 10 -40z m680 0 c0 -22 5 -40 10 -40 6 0
10 -26 10 -58 l0 -59 -55 -2 c-30 -1 -55 2 -56 6 0 5 -2 17 -5 28 -2 11 -1 53
2 93 l6 72 44 0 44 0 0 -40z m787 -82 c-2 -24 -4 -5 -4 42 0 47 2 66 4 43 2
-24 2 -62 0 -85z m-2510 -15 l1 -73 -31 5 c-18 2 -38 4 -44 4 -17 1 -17 83 -1
99 10 10 10 15 -1 22 -11 6 -7 9 15 13 58 9 59 7 61 -70z m820 35 c-3 -8 -6
-5 -6 6 -1 11 2 17 5 13 3 -3 4 -12 1 -19z m1890 -40 c-2 -13 -4 -3 -4 22 0
25 2 35 4 23 2 -13 2 -33 0 -45z m602 -52 c-5 -6 -9 15 -8 55 l1 64 9 -55 c4
-32 4 -59 -2 -64z m-2839 25 c0 -6 -4 -13 -10 -16 -5 -3 -10 1 -10 9 0 9 5 16
10 16 6 0 10 -4 10 -9z m2040 -21 c0 -5 -12 -10 -26 -10 -14 0 -23 4 -19 10 3
6 15 10 26 10 10 0 19 -4 19 -10z"/>
<path d="M4898 2743 c12 -2 32 -2 45 0 12 2 2 4 -23 4 -25 0 -35 -2 -22 -4z"/>
<path d="M3600 2358 c-3 -26 -1 -43 3 -39 5 5 7 26 5 47 l-3 39 -5 -47z"/>
<path d="M3363 2360 c0 -25 2 -35 4 -22 2 12 2 32 0 45 -2 12 -4 2 -4 -23z"/>
<path d="M3011 6963 c-1 -47 3 -75 12 -80 6 -4 18 -20 26 -35 8 -16 38 -53 68
-84 29 -31 53 -61 53 -66 0 -5 -19 -8 -42 -6 -41 3 -43 2 -41 -23 l1 -27 -24
25 c-28 28 -31 43 -8 43 9 0 14 7 12 17 -4 22 -28 29 -28 9 0 -9 -7 -16 -15
-16 -23 0 -21 -132 2 -151 9 -8 18 -13 20 -11 2 1 22 -19 44 -45 88 -104 98
-113 125 -113 25 0 26 2 20 33 -3 17 -14 37 -23 44 -18 14 -21 45 -10 113 3
25 3 34 -1 20 -7 -22 -9 -23 -15 -7 -11 30 -8 37 18 37 14 0 29 -8 35 -20 6
-11 17 -20 25 -20 9 0 15 -10 15 -25 0 -22 4 -25 34 -25 88 0 89 36 4 128 -34
37 -67 73 -73 80 -5 7 -18 22 -27 33 -10 10 -18 22 -18 25 0 10 -58 64 -69 64
-6 0 -11 6 -11 13 0 6 -19 33 -43 58 -23 25 -47 54 -54 65 -10 16 -12 7 -12
-53z m129 -335 c0 -7 -5 -20 -10 -28 -8 -12 -10 -9 -10 13 0 15 5 27 10 27 6
0 10 -6 10 -12z"/>
<path d="M5780 6971 c-22 -7 -23 -9 -7 -16 35 -15 92 -11 92 5 0 17 -46 23
-85 11z"/>
<path d="M8583 6924 c-16 -12 -16 -15 -3 -23 17 -11 89 -4 105 11 27 25 -70
36 -102 12z"/>
<path d="M3032 6805 c-9 -11 -10 -20 -3 -33 9 -15 10 -15 11 6 0 12 5 22 10
22 6 0 10 5 10 10 0 14 -13 12 -28 -5z"/>
<path d="M3060 6490 c0 -5 5 -10 11 -10 5 0 7 5 4 10 -3 6 -8 10 -11 10 -2 0
-4 -4 -4 -10z"/>
<path d="M9333 4963 c31 -2 83 -2 115 0 31 2 5 3 -58 3 -63 0 -89 -1 -57 -3z"/>
<path d="M7490 4865 c0 -8 7 -15 15 -15 8 0 15 7 15 15 0 8 -7 15 -15 15 -8 0
-15 -7 -15 -15z"/>
<path d="M7534 4864 c3 -9 6 -26 6 -39 0 -21 5 -24 63 -29 34 -3 251 -8 482
-11 741 -9 1096 -15 1258 -21 l157 -6 0 50 0 50 -77 7 c-43 3 -343 8 -667 11
-479 4 -591 3 -597 -8 -7 -10 -9 -10 -9 0 0 22 -30 13 -31 -10 l0 -23 -16 23
c-15 22 -16 22 -295 22 -251 0 -280 -2 -274 -16z m1729 -11 c-13 -2 -33 -2
-45 0 -13 2 -3 4 22 4 25 0 35 -2 23 -4z"/>
<path d="M5600 4710 c0 -6 33 -10 80 -10 47 0 80 4 80 10 0 6 -33 10 -80 10
-47 0 -80 -4 -80 -10z"/>
<path d="M9368 4605 l4 -45 64 0 64 0 0 45 0 45 -68 0 -67 0 3 -45z"/>
<path d="M3022 4308 c-9 -9 -12 -147 -12 -560 l0 -548 373 -1 c204 0 518 -1
697 -2 179 -1 305 1 280 4 l-45 6 39 1 c30 2 47 10 73 37 19 19 43 35 54 35
18 0 19 2 6 14 -9 9 -47 17 -101 22 -93 7 -119 21 -114 58 3 20 7 21 138 18
74 -1 154 -5 178 -8 33 -4 43 -2 49 11 11 29 -17 35 -169 35 -81 0 -149 3
-151 8 -3 4 61 6 143 4 125 -3 148 -1 153 12 11 28 -29 37 -166 36 -72 -1
-138 -1 -145 -1 -11 1 -12 60 -7 324 4 210 3 327 -4 337 -10 15 -107 28 -211
29 l-55 1 0 57 0 58 -34 -2 c-33 -1 -76 -37 -65 -54 20 -32 -80 -66 -159 -55
-23 4 -163 6 -310 6 -191 -1 -273 2 -283 11 -10 8 -18 8 -27 1 -7 -6 -23 -8
-36 -5 -22 5 -23 10 -19 64 l4 59 -31 0 c-17 0 -36 -5 -43 -12z m1237 -182 c8
-9 10 -92 6 -292 -4 -154 -8 -294 -11 -311 l-5 -33 -125 0 -126 0 6 28 c3 15
8 158 12 317 3 160 8 293 11 298 2 4 53 7 112 7 80 0 112 -4 120 -14z m-1011
-28 c-5 -15 -60 -16 -65 -2 -2 6 13 11 32 12 24 1 35 -3 33 -10z m207 -3 c0
-5 -21 -11 -47 -13 -39 -3 -48 0 -48 13 0 13 9 16 48 13 26 -2 47 -7 47 -13z
m225 0 c0 -12 -14 -14 -70 -13 -57 1 -68 3 -59 15 17 19 129 18 129 -2z m160
1 c0 -9 -15 -15 -46 -18 -47 -3 -67 7 -43 23 23 15 89 11 89 -5z m123 -107
c-5 -18 -23 -27 -23 -11 1 25 14 52 20 42 4 -7 5 -21 3 -31z m3 -306 c-4 -135
-7 -159 -22 -170 -20 -15 -104 -18 -104 -4 0 5 -10 11 -22 13 l-23 3 23 20
c12 11 22 27 22 37 0 12 8 18 21 18 17 0 20 5 16 21 -4 15 0 23 14 26 23 6 63
68 56 87 -5 14 11 106 19 106 3 0 2 -71 0 -157z m-606 -43 c0 -5 -5 -10 -11
-10 -5 0 -7 5 -4 10 3 6 8 10 11 10 2 0 4 -4 4 -10z m400 -105 c0 -9 -9 -15
-22 -15 -22 1 -23 1 -4 15 25 19 26 19 26 0z m-17 -32 c-13 -2 -33 -2 -45 0
-13 2 -3 4 22 4 25 0 35 -2 23 -4z"/>
<path d="M4820 3985 c-22 -13 -23 -14 -5 -15 30 0 65 11 65 21 0 13 -32 10
-60 -6z"/>
<path d="M4890 3990 c0 -5 7 -10 15 -10 8 0 15 5 15 10 0 6 -7 10 -15 10 -8 0
-15 -4 -15 -10z"/>
<path d="M4945 3990 c-3 -5 1 -10 9 -10 8 0 18 5 21 10 3 6 -1 10 -9 10 -8 0
-18 -4 -21 -10z"/>
<path d="M5000 3990 c0 -5 7 -10 15 -10 8 0 15 5 15 10 0 6 -7 10 -15 10 -8 0
-15 -4 -15 -10z"/>
<path d="M5055 3990 c-20 -8 -20 -9 1 -9 12 -1 50 -3 85 -6 61 -4 62 -4 14 4
-27 5 -57 11 -65 14 -8 3 -24 2 -35 -3z"/>
<path d="M5245 3980 c-3 -5 3 -10 14 -10 12 0 21 5 21 10 0 6 -6 10 -14 10 -8
0 -18 -4 -21 -10z"/>
<path d="M8263 3763 c-8 -19 -9 -159 -6 -718 1 -214 -2 -412 -6 -440 l-8 -50
-2 71 c-2 129 -46 162 -216 163 -169 1 -174 -7 -187 -269 -11 -239 -12 -244
-68 -250 -38 -4 -45 -9 -51 -33 -16 -58 -27 -56 369 -73 140 -6 152 -8 152
-25 0 -15 8 -19 40 -19 22 0 40 -4 40 -9 0 -5 36 -12 80 -16 44 -4 80 -11 80
-16 0 -5 18 -9 40 -9 22 0 40 -4 40 -10 0 -5 18 -10 40 -10 29 0 40 4 40 15 0
11 11 15 40 15 27 0 40 4 40 13 0 11 29 15 117 20 66 4 119 11 121 17 2 5 21
10 43 10 21 0 40 3 40 8 12 70 12 -5 5 612 -3 294 -2 519 3 511 6 -9 11 -10
15 -2 4 6 14 11 22 11 12 0 14 -27 14 -155 0 -95 -4 -164 -12 -180 -9 -20 -8
-31 3 -52 10 -22 14 -102 16 -363 2 -210 7 -336 13 -338 6 -2 10 -8 10 -13 0
-6 -4 -7 -10 -4 -5 3 -10 1 -10 -4 0 -6 19 -11 43 -11 23 0 85 -3 137 -6 52
-2 121 -2 153 2 l57 6 0 104 c0 57 -3 104 -7 104 -5 -1 -19 -7 -33 -15 -14 -8
-42 -14 -62 -15 -38 0 -38 -1 -38 -40 l0 -40 -78 0 c-68 0 -79 3 -90 21 -10
15 -11 24 -3 32 15 15 15 647 1 647 -7 0 -10 141 -10 404 l0 404 -22 6 c-13 3
-218 6 -456 6 -399 0 -433 -1 -439 -17z m687 -732 c0 -17 -18 -21 -24 -6 -3 9
0 15 9 15 8 0 15 -4 15 -9z m-640 -235 c0 -3 -4 -8 -10 -11 -5 -3 -10 -1 -10
4 0 6 5 11 10 11 6 0 10 -2 10 -4z m867 -218 c-2 -13 -4 -3 -4 22 0 25 2 35 4
23 2 -13 2 -33 0 -45z m-1288 -183 l2 -125 -27 0 c-22 0 -25 3 -21 23 3 12 9
68 13 125 5 72 10 102 19 102 10 0 13 -31 14 -125z m316 -22 c-5 -99 -10 -119
-21 -89 -4 10 -10 13 -13 8 -3 -5 -63 -11 -133 -14 l-127 -5 3 36 c2 20 4 51
5 69 1 27 5 32 24 31 18 -1 19 -2 3 -6 -16 -4 -13 -10 20 -44 31 -32 45 -39
76 -39 31 0 38 4 38 20 0 17 7 20 40 20 36 0 40 3 40 25 0 18 -7 26 -25 31
-14 3 -25 9 -25 13 0 6 74 38 92 40 4 1 5 -42 3 -96z"/>
<path d="M8038 2303 c23 -2 61 -2 85 0 23 2 4 4 -43 4 -47 0 -66 -2 -42 -4z"/>
<path d="M7956 3218 c-3 -7 -4 -42 -3 -78 l2 -65 68 -3 68 -3 -3 78 -3 78 -63
3 c-44 2 -63 -1 -66 -10z m124 -58 c0 -5 -25 -10 -55 -10 -30 0 -55 5 -55 10
0 6 25 10 55 10 30 0 55 -4 55 -10z"/>
<path d="M7899 3180 c-4 -42 -1 -64 9 -68 8 -2 12 10 12 37 0 23 -4 41 -10 41
-5 0 -10 -4 -11 -10z"/>
<path d="M3010 3161 c0 -21 2 -21 455 -21 687 0 578 19 -207 36 -245 5 -248 5
-248 -15z"/>
<path d="M7613 3000 c0 -25 2 -35 4 -22 2 12 2 32 0 45 -2 12 -4 2 -4 -23z"/>
<path d="M9354 2450 c-6 -6 -8 -29 -5 -53 5 -37 9 -42 34 -45 18 -2 29 2 33
12 3 9 13 16 21 16 8 0 11 5 8 10 -3 6 2 10 12 11 10 0 13 3 6 6 -18 7 -16 23
2 23 31 0 14 18 -22 24 -54 8 -78 7 -89 -4z"/>
<path d="M9070 2215 c0 -8 5 -15 10 -15 6 0 10 7 10 15 0 8 -4 15 -10 15 -5 0
-10 -7 -10 -15z"/>
<path d="M8930 969 c-8 -15 -10 -121 -4 -375 l7 -354 283 0 284 0 0 90 c0 63
-4 91 -13 97 -34 21 -47 58 -47 136 0 74 2 80 30 109 18 17 30 40 30 55 0 25
-1 25 -19 9 -19 -17 -19 -16 -14 22 3 24 0 49 -9 66 -14 26 -16 27 -31 11 -23
-22 -21 -35 4 -35 19 0 20 -4 15 -35 -4 -19 -2 -45 4 -57 11 -22 10 -22 -4 -4
-9 11 -16 31 -16 44 0 18 -4 23 -16 18 -11 -4 -18 1 -21 14 -3 11 -9 20 -14
20 -5 0 -9 12 -9 26 0 14 -3 23 -7 21 -5 -3 -44 -2 -88 3 -64 6 -71 8 -35 10
l45 3 -45 7 -45 7 43 1 42 2 0 40 0 39 113 4 c109 3 107 3 -43 6 -107 3 -141
6 -110 11 28 4 -20 8 -127 8 -165 2 -173 1 -183 -19z m22 -254 c3 -138 2 -200
-2 -145 -8 99 -13 396 -6 389 2 -2 5 -112 8 -244z m374 113 c27 -9 37 -21 49
-57 19 -57 20 -131 1 -131 -7 0 -16 -8 -19 -19 -6 -25 -58 -49 -95 -43 -38 5
-85 -5 -77 -17 8 -14 9 -114 1 -139 -8 -25 -31 -29 -39 -8 -5 11 -11 376 -8
419 1 12 152 8 187 -5z"/>
<path d="M9190 710 l0 -90 39 0 c63 0 89 14 100 55 12 45 7 76 -16 92 -10 7
-23 17 -30 23 -7 5 -30 10 -53 10 l-40 0 0 -90z"/>
<path d="M9328 873 c6 -2 18 -2 25 0 6 3 1 5 -13 5 -14 0 -19 -2 -12 -5z"/>
<path d="M9370 870 c0 -5 5 -10 10 -10 6 0 10 5 10 10 0 6 -4 10 -10 10 -5 0
-10 -4 -10 -10z"/>
<path d="M9460 874 c0 -9 31 -37 36 -32 9 9 -8 38 -22 38 -8 0 -14 -3 -14 -6z"/>
<path d="M9487 603 c-11 -10 -8 -71 3 -78 6 -4 10 12 10 39 0 47 -2 51 -13 39z"/>
</g>
</svg>
