<?xml version="1.0" standalone="no"?>
<!DOCTYPE svg PUBLIC "-//W3C//DTD SVG 20010904//EN"
 "http://www.w3.org/TR/2001/REC-SVG-20010904/DTD/svg10.dtd">
<svg version="1.0" xmlns="http://www.w3.org/2000/svg"
 width="1280.000000pt" height="720.000000pt" viewBox="0 0 1280.000000 720.000000"
 preserveAspectRatio="xMidYMid meet">
<metadata>
Created by potrace 1.16, written by Peter Selinger 2001-2019
</metadata>
<g transform="translate(0.000000,720.000000) scale(0.100000,-0.100000)"
fill="#000000" stroke="none">
<path d="M6183 7171 c-13 -16 -23 -32 -23 -36 0 -3 -7 -13 -15 -21 -8 -9 -15
-27 -15 -42 0 -33 -46 -62 -53 -33 -2 9 -7 -4 -11 -29 -6 -29 -18 -55 -37 -73
-16 -15 -29 -34 -29 -41 0 -8 -3 -16 -7 -18 -11 -4 -71 -128 -77 -158 -2 -14
-14 -59 -26 -100 -15 -49 -24 -114 -27 -190 -3 -63 -11 -134 -19 -158 -18 -53
-60 -139 -74 -147 -5 -3 -10 -15 -10 -26 0 -11 -18 -39 -40 -61 -22 -23 -40
-50 -40 -61 0 -10 -7 -25 -15 -34 -16 -15 -12 -76 6 -98 5 -6 -8 -27 -31 -50
-21 -22 -39 -48 -40 -57 0 -10 -4 -18 -9 -18 -5 0 -19 -26 -32 -57 -12 -32
-26 -60 -29 -63 -3 -3 -7 -27 -8 -54 -1 -29 -10 -61 -22 -80 -19 -29 -28 -48
-68 -136 -35 -79 -94 -169 -147 -225 -31 -33 -61 -71 -68 -85 -14 -29 -84 -59
-139 -59 -21 -1 -38 -5 -38 -10 0 -5 -36 -12 -80 -16 -76 -7 -80 -8 -80 -31 0
-24 -1 -24 -103 -24 -57 0 -155 -7 -218 -15 -184 -25 -181 -25 -233 28 -25 25
-46 50 -46 56 0 6 -4 11 -10 11 -5 0 -10 6 -10 13 0 13 -93 113 -136 147 -27
21 -83 46 -121 54 -18 4 -35 12 -38 17 -4 5 -25 9 -48 9 l-42 0 30 -25 c17
-13 45 -30 63 -37 57 -22 34 -29 -75 -24 -88 5 -103 3 -80 -6 36 -16 34 -28
-4 -28 l-31 0 44 -36 c23 -20 45 -40 46 -45 2 -5 18 -9 35 -9 18 -1 50 -12 72
-25 22 -14 47 -27 55 -31 37 -14 45 -23 48 -51 2 -17 13 -40 25 -51 36 -33
115 -70 165 -78 26 -3 52 -12 58 -20 23 -29 304 -81 304 -55 0 15 77 14 86 0
7 -12 175 -8 429 10 111 8 125 11 186 45 37 20 76 36 87 36 13 0 22 9 26 26 4
14 18 42 31 62 14 21 27 52 31 70 4 17 10 32 14 32 5 0 18 15 29 34 12 19 33
37 46 40 17 4 25 13 25 27 0 21 41 86 79 126 12 12 21 26 21 30 0 5 11 25 25
46 21 30 29 35 44 28 15 -9 19 -27 23 -114 3 -57 11 -113 17 -124 6 -11 13
-63 17 -114 8 -114 -16 -224 -71 -327 -19 -37 -35 -79 -35 -94 0 -29 -13 -62
-67 -172 -54 -108 -70 -162 -88 -291 -10 -66 -21 -124 -25 -130 -14 -18 -23
-195 -11 -195 6 0 11 -7 11 -15 0 -8 -4 -15 -10 -15 -6 0 -10 -46 -10 -117 -1
-208 -35 -562 -66 -678 -29 -106 -29 -102 3 -110 15 -4 96 -9 178 -11 135 -3
152 -5 166 -23 13 -16 18 -57 23 -208 4 -103 3 -201 -2 -218 -5 -16 -7 -37 -5
-45 4 -13 3 -13 -6 0 -8 12 -16 1 -41 -52 -16 -37 -30 -75 -30 -83 0 -9 -6
-18 -14 -21 -8 -3 -17 -16 -20 -30 -4 -15 -14 -24 -26 -24 -13 0 -20 -7 -20
-20 0 -12 -10 -31 -22 -43 -26 -26 -88 -138 -88 -160 0 -9 -3 -17 -7 -19 -11
-4 -43 -67 -43 -83 0 -7 -18 -69 -40 -138 -22 -68 -40 -136 -40 -151 0 -14 -4
-26 -10 -26 -5 0 -10 -9 -10 -21 0 -12 -7 -47 -15 -78 -8 -31 -25 -116 -39
-188 -16 -88 -34 -153 -56 -199 -18 -38 -36 -71 -40 -74 -14 -11 -40 -98 -40
-134 0 -44 37 -85 105 -118 62 -30 105 -55 124 -72 10 -9 21 -16 25 -16 4 0
33 -12 64 -26 70 -33 193 -45 362 -35 l114 6 13 44 c15 53 5 77 -37 86 -16 4
-32 11 -35 16 -4 5 -23 9 -43 9 -27 0 -46 9 -72 31 -19 18 -59 49 -87 71 -29
21 -53 43 -53 48 0 6 -6 10 -13 10 -15 0 -33 50 -53 145 -13 63 -13 77 1 135
9 36 27 92 40 125 27 68 105 227 115 235 4 3 10 22 14 42 4 21 11 38 16 38 6
0 10 7 10 16 0 9 8 28 19 42 10 15 24 44 32 65 7 20 17 37 21 37 4 0 8 9 8 19
0 11 4 22 9 25 5 3 18 26 30 51 12 25 26 45 31 45 6 0 10 9 10 20 0 20 95 160
108 160 4 0 18 18 32 40 13 22 32 40 41 40 11 0 20 11 24 29 3 16 15 39 25 51
15 17 19 45 24 148 4 70 11 165 17 212 6 53 6 111 0 156 -5 39 -6 83 -4 98 6
28 22 32 80 20 27 -5 30 -10 42 -75 7 -38 17 -122 22 -187 5 -64 13 -139 19
-167 5 -27 9 -79 9 -115 1 -69 21 -170 33 -170 5 0 8 -8 8 -18 0 -10 4 -22 9
-27 20 -23 57 -170 71 -290 4 -38 16 -101 25 -140 9 -38 22 -113 30 -165 7
-52 28 -151 46 -220 31 -116 33 -136 33 -280 -1 -175 -18 -300 -40 -300 -8 0
-14 -9 -14 -20 0 -11 -3 -20 -8 -20 -4 0 -16 -16 -26 -35 -11 -19 -25 -35 -33
-35 -9 0 -13 -16 -13 -60 0 -57 1 -60 28 -65 15 -3 40 -10 57 -15 21 -7 45 -6
85 4 91 23 160 36 195 36 21 0 43 9 59 22 24 22 25 24 11 63 -8 22 -19 41 -25
43 -5 2 -10 15 -10 28 0 13 -5 33 -12 44 -10 15 -9 24 2 46 11 19 15 56 14
122 -1 87 -4 97 -25 113 -18 13 -20 20 -12 31 16 18 34 246 40 488 5 215 -11
406 -40 473 -8 18 -20 46 -27 62 -8 17 -15 48 -18 70 -2 22 -7 41 -12 43 -5 2
-14 26 -22 54 -8 33 -19 53 -30 56 -22 5 -22 11 -3 36 19 25 19 36 0 36 -12 0
-14 20 -10 132 6 162 32 373 51 411 18 34 34 34 65 1 20 -21 31 -25 64 -21 45
5 154 37 213 63 1 0 -9 68 -22 150 -62 381 -120 887 -113 976 10 115 -21 411
-44 428 -4 3 -15 43 -24 90 -9 47 -21 107 -27 134 -24 111 -12 641 17 724 9
26 35 11 46 -28 7 -22 17 -40 23 -40 6 0 17 -14 24 -30 8 -17 19 -36 25 -43
18 -19 37 -50 43 -69 4 -10 11 -18 18 -18 13 -1 71 -84 81 -117 6 -23 38 -51
155 -143 36 -28 73 -57 83 -65 9 -8 21 -15 26 -15 5 0 11 -4 13 -8 5 -13 126
-44 188 -49 50 -4 75 -10 121 -33 8 -4 86 -11 172 -15 150 -7 158 -9 176 -31
30 -38 102 -32 154 14 18 16 18 17 0 23 -12 5 -7 8 19 8 20 1 41 7 45 14 9 14
41 35 66 43 9 4 17 13 17 20 0 10 14 14 48 14 41 0 53 5 80 33 18 18 32 41 32
50 0 9 4 17 10 17 5 0 19 19 31 42 12 23 28 48 35 56 8 7 14 20 14 27 0 7 6
20 14 27 12 12 11 18 -3 36 -15 21 -18 21 -65 7 -27 -8 -57 -21 -65 -29 -9 -7
-27 -17 -41 -21 -36 -11 -96 -55 -164 -121 -11 -11 -35 -26 -53 -33 -17 -7
-34 -19 -37 -27 -3 -8 -10 -14 -16 -14 -6 0 -24 -10 -40 -21 -22 -17 -36 -20
-63 -15 -20 4 -37 11 -39 16 -2 6 -35 13 -73 16 -72 6 -165 32 -165 46 0 4
-18 8 -40 8 -32 0 -40 4 -40 18 0 17 -47 42 -81 42 -8 0 -20 9 -26 19 -7 11
-33 29 -58 40 -25 11 -45 25 -45 30 0 6 -7 11 -15 11 -8 0 -15 4 -15 10 0 5
-13 16 -29 24 -36 19 -131 114 -131 131 0 7 -18 29 -40 49 -22 20 -40 43 -40
51 0 8 -13 37 -30 63 -16 27 -30 54 -30 61 0 6 -4 11 -10 11 -5 0 -10 18 -10
40 0 22 -4 40 -10 40 -11 0 -31 67 -24 84 3 7 -2 19 -11 26 -8 7 -15 21 -15
30 0 10 -3 20 -7 22 -5 2 -19 26 -32 53 -14 28 -34 60 -45 72 -13 16 -19 36
-18 68 0 25 -4 45 -9 45 -5 0 -9 8 -9 19 0 10 -8 29 -18 42 -10 13 -26 41 -37
62 -11 20 -22 37 -26 37 -4 0 -12 15 -19 33 -29 72 -55 127 -62 127 -5 0 -8 6
-8 13 0 6 -15 44 -33 82 -34 71 -48 122 -68 255 -11 69 -22 107 -62 216 -9 22
-33 67 -55 100 -21 32 -47 75 -58 94 -10 19 -21 37 -24 40 -3 3 -17 21 -30 40
-32 47 -38 52 -90 86 -43 27 -51 29 -175 31 l-130 3 -22 -29z m430 -308 c8
-10 25 -48 37 -85 17 -53 21 -84 17 -145 -5 -98 -28 -181 -44 -162 -17 22 -28
206 -12 225 10 12 9 29 -6 87 -10 40 -22 78 -28 85 -15 19 17 15 36 -5z m-891
-1015 c-16 -16 -25 29 -10 54 13 23 13 22 16 -11 2 -18 -1 -38 -6 -43z m2445
-1063 c24 -25 7 -30 -18 -6 -13 12 -17 21 -10 21 7 0 19 -7 28 -15z"/>
<path d="M4312 4989 c7 -14 28 -37 47 -50 l36 -25 125 17 125 17 -127 -1 c-94
-2 -129 1 -133 11 -2 6 -14 12 -26 12 -11 0 -29 10 -40 23 l-19 22 12 -26z"/>
<path d="M4520 4890 c-39 -6 -33 -7 38 -8 49 -1 82 2 82 8 0 11 -50 11 -120 0z"/>
</g>
</svg>
