<?xml version="1.0" standalone="no"?>
<!DOCTYPE svg PUBLIC "-//W3C//DTD SVG 20010904//EN"
 "http://www.w3.org/TR/2001/REC-SVG-20010904/DTD/svg10.dtd">
<svg version="1.0" xmlns="http://www.w3.org/2000/svg"
 width="1280.000000pt" height="720.000000pt" viewBox="0 0 1280.000000 720.000000"
 preserveAspectRatio="xMidYMid meet">
<metadata>
Created by potrace 1.16, written by Peter Selinger 2001-2019
</metadata>
<g transform="translate(0.000000,720.000000) scale(0.100000,-0.100000)"
fill="#000000" stroke="none">
<path d="M6230 6963 c-29 -32 -50 -68 -50 -86 0 -11 -9 -31 -21 -45 -72 -93
-111 -167 -130 -250 -11 -48 -29 -123 -39 -167 -10 -44 -24 -134 -30 -200 -10
-116 -30 -198 -57 -240 -7 -11 -13 -27 -13 -37 0 -10 -6 -18 -12 -18 -13 0
-38 -44 -38 -67 0 -7 -4 -13 -8 -13 -5 0 -17 -18 -28 -40 -10 -22 -25 -40 -31
-40 -7 0 -13 -6 -13 -14 0 -7 -9 -16 -19 -19 -10 -2 -27 -21 -36 -40 -9 -20
-23 -41 -31 -48 -8 -6 -14 -16 -14 -21 0 -5 -7 -16 -15 -25 -9 -8 -19 -28 -22
-44 -3 -16 -9 -29 -14 -29 -5 0 -9 -18 -9 -40 0 -22 -4 -40 -9 -40 -5 0 -10
-71 -13 -157 -3 -110 -8 -158 -16 -161 -7 -2 -12 -19 -12 -38 0 -22 -6 -37
-15 -40 -9 -4 -15 -19 -15 -41 0 -21 -17 -70 -44 -123 -24 -49 -52 -123 -62
-164 -11 -48 -23 -76 -31 -76 -18 0 -73 -50 -73 -67 0 -7 -7 -13 -15 -13 -8 0
-15 -7 -15 -16 0 -8 -6 -22 -12 -29 -30 -33 -36 -43 -47 -78 -7 -20 -18 -37
-25 -37 -6 0 -16 -15 -21 -32 -6 -18 -19 -37 -31 -42 -12 -5 -31 -26 -44 -45
-13 -20 -35 -53 -48 -74 -14 -21 -40 -45 -59 -53 -18 -9 -33 -20 -33 -24 0
-13 -61 -24 -112 -21 -38 2 -48 0 -48 -13 0 -9 -4 -16 -10 -16 -5 0 -10 -18
-10 -39 0 -22 -5 -41 -11 -43 -9 -3 -9 -12 -3 -32 l10 -29 12 41 13 41 75 -1
c46 -1 78 3 82 9 4 6 23 14 42 18 29 5 38 13 51 45 15 33 27 43 95 75 178 83
173 81 209 113 7 6 18 12 23 12 24 0 242 186 242 208 0 4 14 22 30 40 17 18
30 42 30 52 0 11 18 38 41 62 36 38 66 89 83 141 3 9 12 17 21 17 12 0 15 -13
15 -62 0 -66 -39 -305 -65 -398 -8 -30 -15 -68 -15 -85 0 -28 -60 -227 -81
-267 -5 -10 -9 -33 -9 -52 0 -19 -7 -61 -16 -93 -15 -56 -23 -99 -45 -243 -5
-36 -11 -72 -13 -80 -1 -8 -6 -33 -11 -55 -4 -22 -11 -47 -16 -56 -9 -17 -28
-160 -34 -257 -2 -29 -7 -56 -10 -61 -3 -6 -10 -55 -15 -110 -5 -55 -14 -108
-19 -118 -5 -10 -14 -70 -21 -133 -6 -63 -14 -129 -17 -146 -5 -31 -5 -31 49
-37 29 -4 81 -7 115 -7 60 0 63 -1 70 -27 14 -48 5 -187 -16 -273 -12 -45 -21
-95 -21 -109 0 -15 -11 -42 -25 -61 -14 -19 -25 -46 -25 -60 0 -23 -32 -116
-60 -175 -6 -11 -15 -45 -21 -75 -6 -30 -15 -75 -20 -100 -27 -129 -39 -280
-39 -490 0 -213 -1 -229 -24 -292 -14 -37 -28 -88 -32 -113 -9 -63 -45 -105
-90 -105 -19 0 -34 -4 -34 -10 0 -5 -11 -12 -24 -16 -54 -13 -32 -106 34 -143
35 -20 51 -21 172 -19 l133 3 3 38 c2 21 8 37 16 37 7 0 20 32 31 78 9 42 21
79 25 82 4 3 13 56 19 119 6 63 15 119 21 125 5 5 10 24 10 41 0 18 3 34 6 37
3 4 23 57 45 120 22 62 47 131 54 153 8 22 15 54 15 71 0 18 7 45 15 60 8 16
15 39 15 51 0 12 4 24 8 27 10 6 28 84 42 186 13 98 33 172 59 216 12 19 21
42 21 50 0 8 7 17 15 20 8 3 19 22 26 42 7 20 18 43 26 50 7 7 13 31 13 53 0
24 5 39 13 39 13 0 50 70 55 104 2 12 5 63 9 113 3 51 9 93 14 93 5 0 9 9 9
20 0 47 188 77 293 47 29 -9 68 -19 87 -24 l35 -9 6 -109 c6 -115 32 -275 54
-335 30 -82 38 -150 37 -300 0 -85 4 -186 9 -225 5 -38 12 -110 14 -160 3 -49
14 -157 24 -240 15 -113 20 -217 20 -420 1 -270 5 -335 22 -335 5 0 9 -6 9
-14 0 -11 29 -15 148 -18 161 -4 182 -2 182 17 0 8 10 15 21 17 12 2 31 15 42
29 19 26 19 29 2 78 -13 39 -21 51 -37 51 -37 0 -104 52 -121 95 -14 35 -27
147 -29 255 -2 42 24 193 52 310 11 47 24 147 30 224 5 76 14 144 20 150 18
23 -20 472 -42 487 -4 3 -11 57 -15 120 -3 63 -11 117 -16 121 -7 4 -6 37 2
100 7 51 14 104 15 118 2 38 41 60 108 60 33 0 72 7 93 17 49 24 47 58 -8 131
-44 59 -61 106 -107 306 -19 77 -22 128 -24 380 -4 289 -4 292 -35 411 -17 66
-31 134 -31 150 0 17 -5 46 -10 65 -14 48 -50 284 -50 329 0 20 -5 42 -10 47
-6 6 -13 42 -15 80 -3 38 -2 62 1 54 24 -54 30 -73 44 -140 10 -48 20 -74 28
-72 6 1 12 -7 12 -18 0 -11 7 -20 15 -20 9 0 34 -18 56 -40 22 -22 46 -40 52
-40 15 0 67 -54 67 -69 0 -6 9 -11 20 -11 11 0 23 -7 27 -16 9 -24 52 -64 68
-64 8 0 15 -7 15 -15 0 -9 11 -20 25 -25 14 -5 28 -17 31 -25 4 -8 16 -15 28
-15 12 0 27 -9 33 -19 7 -11 25 -22 40 -26 15 -3 46 -17 68 -31 83 -51 104
-56 179 -49 39 4 73 10 76 14 11 14 51 31 72 31 13 1 34 7 48 15 14 8 42 14
64 15 60 0 118 20 154 54 38 36 41 56 7 56 -14 0 -25 5 -25 10 0 14 -135 13
-179 -2 -46 -14 -101 -36 -124 -49 -9 -5 -39 -12 -65 -15 -26 -3 -64 -12 -86
-20 -34 -13 -43 -13 -81 1 -35 14 -45 24 -55 56 -7 21 -21 47 -32 58 -10 11
-18 25 -18 30 0 5 -8 16 -18 23 -11 7 -30 33 -43 58 -34 63 -70 110 -86 110
-8 0 -13 12 -13 29 0 16 -6 36 -13 43 -7 7 -22 35 -32 61 -10 26 -22 50 -26
53 -5 3 -9 18 -9 34 0 16 -9 44 -19 62 -11 17 -18 36 -15 40 4 5 -2 18 -12 29
-14 15 -18 37 -18 91 0 42 -3 63 -7 52 -6 -14 -8 -9 -8 19 -1 22 -7 40 -15 43
-10 4 -15 42 -21 152 -6 123 -4 158 10 212 14 51 16 88 11 169 -3 58 -9 107
-14 110 -12 10 -32 50 -32 66 0 8 -4 15 -10 15 -5 0 -10 7 -10 15 0 8 -6 15
-12 15 -7 0 -25 12 -40 25 -22 19 -28 33 -28 65 0 27 -4 40 -13 40 -9 0 -19
22 -27 58 -10 47 -35 109 -90 222 -9 19 -25 91 -46 205 -35 195 -44 227 -112
412 -11 28 -31 66 -45 85 -14 18 -36 52 -48 74 -13 23 -43 63 -66 88 -37 41
-48 47 -113 61 -98 21 -230 20 -250 -2z m422 -270 c18 -31 34 -82 52 -163 12
-54 9 -89 -14 -180 -6 -25 -14 -60 -17 -77 -8 -48 -33 -43 -33 6 0 22 5 41 12
43 9 3 9 12 0 38 -7 18 -12 53 -12 76 0 24 -5 44 -10 44 -12 0 6 41 23 51 14
10 1 68 -28 125 -18 36 -21 50 -12 56 18 12 21 10 39 -19z"/>
<path d="M4825 3984 l-30 -15 34 6 c18 3 37 5 42 5 5 0 9 5 9 10 0 14 -19 11
-55 -6z"/>
<path d="M4960 3989 c0 -5 5 -7 10 -4 6 3 10 8 10 11 0 2 -4 4 -10 4 -5 0 -10
-5 -10 -11z"/>
<path d="M4868 3933 c7 -3 16 -2 19 1 4 3 -2 6 -13 5 -11 0 -14 -3 -6 -6z"/>
<path d="M4928 3933 c7 -3 16 -2 19 1 4 3 -2 6 -13 5 -11 0 -14 -3 -6 -6z"/>
</g>
</svg>
