<?xml version="1.0" standalone="no"?>
<!DOCTYPE svg PUBLIC "-//W3C//DTD SVG 20010904//EN"
 "http://www.w3.org/TR/2001/REC-SVG-20010904/DTD/svg10.dtd">
<svg version="1.0" xmlns="http://www.w3.org/2000/svg"
 width="1280.000000pt" height="720.000000pt" viewBox="0 0 1280.000000 720.000000"
 preserveAspectRatio="xMidYMid meet">
<metadata>
Created by potrace 1.16, written by Peter Selinger 2001-2019
</metadata>
<g transform="translate(0.000000,720.000000) scale(0.100000,-0.100000)"
fill="#000000" stroke="none">
<path d="M6190 7048 c-25 -10 -66 -81 -72 -123 -2 -11 -10 -20 -18 -20 -8 0
-30 -29 -48 -65 -18 -36 -37 -72 -41 -80 -18 -30 -41 -88 -41 -104 0 -9 -4
-16 -8 -16 -4 0 -17 -26 -27 -57 -11 -32 -25 -69 -32 -83 -7 -14 -16 -42 -19
-62 -4 -21 -9 -38 -13 -38 -9 0 -29 -93 -37 -172 -4 -38 -10 -68 -14 -68 -4 0
-11 -21 -14 -47 -4 -27 -16 -66 -26 -88 -85 -179 -100 -215 -100 -238 0 -15
-4 -27 -10 -27 -5 0 -10 -19 -10 -43 0 -30 -8 -54 -27 -82 -61 -88 -83 -179
-84 -345 0 -160 -13 -207 -117 -420 -86 -175 -107 -210 -132 -210 -11 0 -20
-4 -20 -10 0 -5 -11 -10 -25 -10 -14 0 -25 -4 -25 -8 0 -10 -87 -72 -100 -72
-6 0 -10 -6 -10 -12 -1 -16 -85 -68 -109 -68 -9 0 -26 -8 -37 -19 -11 -10 -37
-24 -57 -30 -20 -7 -37 -17 -37 -22 0 -5 -13 -9 -29 -9 -19 0 -35 -8 -45 -21
-13 -19 -18 -20 -50 -9 -20 6 -36 16 -36 21 0 5 -6 9 -12 9 -7 0 -24 17 -38
37 -22 33 -54 66 -139 141 -47 43 -103 62 -175 60 l-66 -2 0 -38 c0 -27 4 -38
15 -38 8 0 15 -7 15 -16 0 -8 18 -37 40 -63 22 -26 40 -52 40 -58 0 -15 111
-128 142 -144 51 -28 545 -5 593 28 11 7 33 13 49 13 33 0 163 47 183 66 7 7
26 15 43 19 16 4 30 10 30 15 0 4 8 10 18 14 43 14 142 106 142 131 0 16 26
48 87 109 39 38 63 93 63 141 0 24 5 35 15 35 9 0 17 14 21 40 8 46 30 72 40
45 11 -27 -3 -216 -19 -260 -7 -22 -20 -75 -27 -117 -7 -43 -17 -78 -21 -78
-5 0 -9 -8 -9 -17 -1 -10 -8 -36 -16 -58 -9 -22 -26 -78 -38 -125 -13 -47 -33
-107 -45 -134 -43 -97 -55 -183 -70 -476 -15 -283 -40 -600 -50 -618 -5 -9 -9
-62 -10 -117 0 -55 -5 -143 -12 -195 -6 -52 -11 -103 -10 -112 0 -10 -4 -20
-10 -23 -18 -12 -8 -40 19 -52 26 -11 250 -9 350 4 l42 5 0 -126 c0 -77 4
-126 10 -126 6 0 10 -7 10 -15 0 -8 -4 -15 -8 -15 -4 0 -13 -28 -19 -62 -10
-59 -31 -127 -44 -138 -3 -3 -11 -19 -18 -37 -7 -18 -24 -39 -36 -47 -13 -9
-32 -29 -41 -46 -10 -16 -23 -30 -29 -30 -9 0 -45 -67 -45 -84 0 -4 -13 -26
-29 -49 -16 -24 -34 -61 -40 -85 -6 -23 -16 -61 -22 -84 -6 -24 -22 -72 -36
-108 -30 -74 -35 -95 -67 -270 -25 -132 -42 -204 -57 -232 -5 -10 -9 -25 -9
-33 0 -8 -4 -15 -10 -15 -5 0 -10 -7 -10 -15 0 -8 -16 -38 -35 -65 -36 -51
-52 -111 -41 -153 6 -26 49 -75 81 -93 11 -6 20 -19 20 -28 0 -22 100 -115
142 -132 40 -17 269 -19 398 -3 50 6 92 13 94 15 2 2 4 20 5 41 1 33 -3 38
-29 47 -16 6 -32 14 -35 17 -3 4 -30 10 -60 14 -66 9 -99 23 -80 35 17 10 -9
45 -62 82 -27 20 -38 35 -38 53 0 14 -4 25 -8 25 -4 0 -16 25 -26 55 -14 41
-17 69 -13 115 8 75 87 284 118 310 3 3 32 58 64 123 32 64 62 117 66 117 4 0
10 11 13 25 4 14 11 25 16 25 6 0 10 7 10 15 0 8 14 34 30 57 17 22 30 47 30
53 0 7 14 27 30 45 17 18 30 36 30 41 0 4 12 21 26 36 15 15 38 45 52 66 13
20 28 37 32 37 4 0 13 18 20 40 7 22 19 40 25 40 12 0 75 119 75 142 0 7 10
19 22 27 18 11 22 11 32 -5 6 -11 14 -30 18 -44 8 -32 33 -113 52 -170 8 -25
19 -83 25 -130 6 -47 18 -132 27 -190 8 -58 20 -148 25 -200 5 -52 16 -126 24
-165 39 -189 44 -247 39 -459 -4 -162 -8 -217 -21 -243 -8 -18 -19 -33 -25
-33 -5 0 -8 -28 -6 -63 3 -58 5 -62 28 -66 14 -1 28 -7 31 -13 7 -11 187 -14
197 -3 13 12 74 35 96 35 38 0 66 28 66 65 0 28 -6 37 -30 50 -16 9 -30 21
-30 29 0 7 -8 20 -17 29 -15 13 -19 37 -21 148 -3 102 -7 135 -18 143 -12 9
-13 20 -4 66 6 30 15 109 20 175 5 66 16 149 24 185 23 102 11 559 -15 576 -5
3 -9 16 -9 30 0 14 -6 32 -14 39 -13 13 -30 104 -41 215 -4 39 -2 49 4 35 9
-19 10 -19 10 2 1 12 -4 23 -10 25 -14 5 -14 21 -4 191 4 75 12 137 16 137 5
0 9 6 9 14 0 8 7 16 15 20 8 3 15 1 15 -4 0 -24 158 -3 237 31 l45 19 -7 83
c-3 45 -15 179 -25 297 -21 227 -35 437 -45 660 -7 140 -28 253 -71 377 -25
73 -39 150 -54 298 -4 44 -15 116 -23 160 -17 89 -22 205 -19 398 l2 127 35 0
c32 0 35 -3 40 -37 25 -153 79 -332 106 -348 5 -4 9 -22 9 -41 0 -27 5 -36 23
-43 14 -6 37 -38 62 -87 22 -43 54 -93 72 -111 18 -18 33 -35 33 -38 0 -22
105 -95 136 -95 9 0 27 -9 41 -20 37 -29 93 -25 93 7 0 33 -24 93 -37 93 -9 0
-13 13 -13 40 0 26 -5 40 -13 40 -7 0 -18 23 -25 53 -6 28 -19 57 -27 63 -8 6
-15 23 -15 36 0 14 -6 31 -14 37 -22 19 -62 111 -76 176 -7 33 -21 78 -31 100
-10 22 -24 64 -32 93 -7 29 -20 60 -28 70 -17 20 -39 100 -39 142 0 17 -4 30
-8 30 -4 0 -8 70 -9 156 -2 126 -5 158 -17 168 -22 16 -66 103 -66 131 0 13
-6 26 -12 28 -10 4 -10 6 0 6 19 1 14 49 -8 68 -11 10 -20 21 -20 26 0 5 -9
20 -20 34 -11 14 -20 36 -20 49 0 12 -4 26 -10 29 -5 3 -10 21 -10 38 0 40
-32 131 -55 153 -9 9 -19 29 -22 45 -3 16 -9 29 -14 29 -4 0 -14 18 -20 40 -7
22 -16 40 -21 40 -4 0 -8 9 -8 20 0 11 -4 20 -8 20 -13 0 -38 66 -52 135 -50
245 -263 606 -372 630 -54 12 -231 14 -258 3z m435 -355 c30 -75 46 -205 26
-217 -6 -4 -11 -23 -11 -42 0 -23 -5 -34 -14 -34 -8 0 -16 -6 -19 -12 -2 -7
-4 1 -4 17 0 17 -7 60 -14 97 -12 61 -11 69 4 86 17 19 23 52 9 52 -7 0 -14
24 -39 119 -5 21 -4 22 14 12 12 -6 33 -41 48 -78z m-22 -362 c3 -13 1 -18 -9
-14 -7 2 -10 11 -7 19 7 19 10 18 16 -5z m-207 -4058 c-10 -10 -19 5 -10 18 6
11 8 11 12 0 2 -7 1 -15 -2 -18z m491 -455 c-3 -8 -6 -5 -6 6 -1 11 2 17 5 13
3 -3 4 -12 1 -19z"/>
<path d="M7980 4306 c-14 -7 -49 -19 -78 -26 -30 -7 -56 -19 -59 -26 -4 -10
-25 -14 -75 -14 -67 0 -168 -24 -168 -40 0 -5 -3 -15 -6 -24 -4 -10 -1 -16 10
-16 8 0 31 -9 51 -20 25 -14 54 -20 100 -20 61 0 154 17 165 31 3 3 14 8 25
12 11 3 51 17 89 31 38 14 80 26 94 26 15 0 35 12 53 32 l28 33 -62 17 c-74
21 -133 22 -167 4z"/>
</g>
</svg>
