<?xml version="1.0" standalone="no"?>
<!DOCTYPE svg PUBLIC "-//W3C//DTD SVG 20010904//EN"
 "http://www.w3.org/TR/2001/REC-SVG-20010904/DTD/svg10.dtd">
<svg version="1.0" xmlns="http://www.w3.org/2000/svg"
 width="1280.000000pt" height="720.000000pt" viewBox="0 0 1280.000000 720.000000"
 preserveAspectRatio="xMidYMid meet">
<metadata>
Created by potrace 1.16, written by Peter Selinger 2001-2019
</metadata>
<g transform="translate(0.000000,720.000000) scale(0.100000,-0.100000)"
fill="#000000" stroke="none">
<path d="M6245 7169 c-73 -21 -105 -45 -105 -78 0 -31 -21 -70 -42 -76 -10 -4
-18 -13 -18 -20 0 -14 -55 -122 -71 -139 -5 -6 -9 -19 -9 -31 0 -12 -4 -25 -9
-30 -11 -12 -67 -206 -75 -260 -4 -22 -10 -85 -15 -140 -5 -55 -14 -114 -19
-132 -10 -30 -41 -92 -52 -103 -3 -3 -13 -20 -23 -39 -13 -25 -15 -36 -6 -41
8 -6 8 -9 0 -14 -6 -4 -11 -2 -11 3 0 6 -7 11 -15 11 -8 0 -15 -9 -15 -19 0
-11 -4 -22 -9 -25 -5 -3 -12 -26 -15 -51 -4 -25 -14 -51 -22 -59 -8 -8 -14
-30 -14 -50 0 -19 -4 -38 -10 -41 -5 -3 -10 -14 -10 -24 0 -9 -9 -27 -20 -39
-11 -12 -20 -28 -20 -35 0 -8 -7 -33 -15 -56 -8 -23 -21 -92 -29 -154 -9 -62
-20 -127 -25 -146 -6 -19 -16 -82 -22 -140 -11 -104 -34 -201 -49 -201 -4 0
-10 -32 -13 -72 -3 -39 -11 -76 -17 -82 -5 -5 -10 -56 -10 -115 0 -59 -5 -137
-11 -176 -10 -69 -8 -103 23 -335 6 -47 17 -105 26 -130 10 -31 16 -95 18
-210 5 -255 9 -311 25 -321 11 -7 10 -9 -3 -9 -15 0 -18 -9 -18 -52 0 -29 -3
-77 -7 -106 -5 -48 -4 -54 14 -58 32 -9 45 -74 39 -189 -4 -55 -11 -102 -16
-105 -5 -3 -11 -44 -14 -90 -3 -47 -8 -121 -11 -165 -5 -70 -3 -83 15 -105 15
-19 22 -22 28 -12 7 11 21 9 73 -8 35 -11 81 -23 102 -27 20 -3 40 -10 43 -14
3 -5 23 -9 44 -9 21 0 50 -4 65 -10 l25 -10 -2 -189 c-2 -136 -7 -194 -15
-203 -8 -7 -13 -40 -13 -85 0 -40 -4 -73 -9 -73 -5 0 -12 -18 -16 -40 -4 -22
-10 -40 -15 -40 -4 0 -10 -18 -14 -39 -3 -22 -10 -41 -14 -43 -16 -6 -43 -148
-54 -287 -9 -112 -9 -199 2 -395 9 -181 10 -262 2 -287 -6 -19 -15 -52 -20
-74 -5 -22 -18 -71 -27 -110 -28 -109 -30 -154 -10 -169 15 -11 16 -18 7 -45
-16 -45 -6 -64 74 -148 38 -40 45 -43 92 -43 34 0 63 7 84 20 27 16 51 20 134
20 111 0 114 2 114 61 0 31 -46 99 -67 99 -6 0 -20 18 -30 40 -10 22 -24 40
-30 40 -7 0 -13 9 -13 20 0 11 -7 37 -16 58 -28 67 -37 317 -15 427 7 33 24
98 37 145 13 46 24 99 24 116 0 18 4 34 9 36 6 2 15 35 21 73 6 39 17 97 25
130 8 33 22 94 31 135 9 41 23 85 30 97 7 11 19 43 25 70 7 26 15 50 18 53 12
10 50 96 56 127 7 36 31 61 44 47 27 -28 30 -106 25 -653 -5 -451 -9 -574 -20
-603 -11 -31 -28 -331 -25 -456 1 -32 19 -62 36 -62 8 0 15 -4 15 -10 0 -5 18
-10 40 -10 22 0 40 -4 40 -10 0 -11 179 -14 218 -4 12 4 22 13 22 20 0 8 5 14
11 14 16 0 39 64 32 91 -6 25 -41 69 -54 69 -11 0 -69 60 -69 71 0 5 -6 9 -14
9 -19 0 -29 77 -17 131 15 63 13 111 -4 136 -12 18 -13 22 -1 26 15 6 17 14
60 167 14 52 37 136 51 185 14 50 30 137 36 195 5 58 14 114 19 125 23 52 43
395 22 395 -4 0 -13 18 -19 40 -7 26 -7 40 0 40 6 0 8 21 4 55 -4 38 -1 64 9
83 18 35 18 52 -2 52 -13 0 -15 8 -9 53 4 28 11 60 16 69 5 9 9 29 9 45 1 15
11 68 24 117 26 102 17 96 156 116 113 16 292 59 308 75 11 9 9 41 -7 171 -28
224 -36 364 -22 364 6 0 11 5 11 12 0 6 11 25 24 42 12 17 26 45 28 61 3 17
14 56 23 88 18 57 18 58 -3 78 -32 29 -36 57 -28 213 11 210 7 765 -5 810 -6
21 -8 45 -5 53 3 8 -1 30 -9 49 -10 25 -11 34 -2 34 8 0 8 3 2 8 -6 4 -12 55
-14 117 -1 60 -7 112 -12 116 -6 3 -14 150 -19 355 -8 341 -13 389 -46 462
-22 46 -121 142 -149 142 -16 0 -18 6 -15 64 3 67 -22 245 -36 257 -8 6 -14
18 -14 26 0 7 -7 16 -15 19 -8 4 -15 14 -15 24 0 9 -9 29 -20 43 -11 14 -20
30 -20 36 0 6 -4 11 -10 11 -5 0 -10 10 -10 23 0 13 -4 27 -9 33 -13 12 -38
85 -57 159 -8 33 -19 68 -25 77 -5 10 -9 22 -9 28 0 24 -137 290 -150 290 -5
0 -10 4 -10 10 0 18 -55 100 -67 100 -7 0 -13 6 -13 13 0 6 -15 22 -33 35 -29
19 -46 22 -123 21 -57 0 -114 -8 -159 -20z m395 -228 c24 -24 47 -78 70 -165
19 -69 21 -93 15 -190 -6 -105 -24 -164 -44 -152 -4 3 -3 38 2 78 11 82 -2
189 -33 270 -10 25 -15 58 -13 71 3 16 -4 41 -21 69 -14 24 -26 39 -26 34 0
-5 -7 -3 -15 4 -8 7 -15 19 -15 27 0 11 8 9 33 -8 17 -12 39 -30 47 -38z m6
-509 c-12 -13 -19 -13 -28 -4 -9 9 -7 16 8 30 16 16 20 17 28 5 5 -10 3 -21
-8 -31z m-773 -1314 c4 -46 2 -146 -4 -223 -6 -77 -12 -162 -13 -190 -4 -74
-16 -146 -31 -182 -8 -18 -16 -56 -19 -85 -9 -77 -54 -195 -77 -201 -18 -5
-19 3 -19 168 0 158 3 183 30 296 17 68 37 147 45 174 8 28 17 77 21 110 4 33
11 63 17 66 5 4 12 39 15 78 7 102 27 95 35 -11z m1306 -1175 c8 -36 9 -67 4
-81 -7 -19 -11 -7 -19 57 -11 94 -2 107 15 24z m61 -455 c0 -28 -3 -49 -6 -45
-10 10 -23 79 -17 93 10 28 23 1 23 -48z"/>
</g>
</svg>
