<?xml version="1.0" standalone="no"?>
<!DOCTYPE svg PUBLIC "-//W3C//DTD SVG 20010904//EN"
 "http://www.w3.org/TR/2001/REC-SVG-20010904/DTD/svg10.dtd">
<svg version="1.0" xmlns="http://www.w3.org/2000/svg"
 width="1280.000000pt" height="720.000000pt" viewBox="0 0 1280.000000 720.000000"
 preserveAspectRatio="xMidYMid meet">
<metadata>
Created by potrace 1.16, written by Peter Selinger 2001-2019
</metadata>
<g transform="translate(0.000000,720.000000) scale(0.100000,-0.100000)"
fill="#000000" stroke="none">
<path d="M6177 7182 c-10 -10 -17 -28 -17 -40 0 -12 -4 -22 -8 -22 -4 0 -13
-14 -19 -31 -9 -24 -16 -30 -29 -25 -20 8 -34 -9 -34 -41 0 -12 -16 -38 -35
-59 -19 -20 -35 -40 -35 -43 0 -4 -12 -24 -27 -46 -32 -47 -92 -208 -103 -280
-5 -27 -9 -88 -9 -134 -1 -80 -15 -155 -33 -176 -4 -5 -8 -17 -8 -27 0 -10 -3
-18 -8 -18 -4 0 -15 -18 -25 -40 -9 -22 -21 -40 -26 -40 -5 0 -14 -15 -21 -32
-7 -18 -24 -47 -37 -65 -12 -17 -23 -39 -23 -47 0 -9 -6 -16 -12 -16 -14 -1
-62 -89 -53 -98 3 -3 16 1 30 8 47 25 38 0 -24 -61 -33 -34 -61 -67 -61 -74 0
-7 -9 -15 -20 -18 -15 -4 -20 -14 -20 -41 0 -25 -4 -36 -15 -36 -10 0 -15 -10
-15 -31 0 -17 -11 -45 -25 -63 -14 -18 -25 -38 -25 -45 0 -7 -13 -26 -30 -44
-16 -18 -30 -36 -30 -42 0 -5 -14 -19 -30 -30 -17 -11 -42 -37 -56 -57 -15
-21 -34 -40 -44 -43 -10 -3 -55 -41 -101 -85 -46 -44 -89 -80 -96 -80 -7 0
-13 -4 -13 -8 0 -10 -67 -32 -95 -32 -10 0 -26 -6 -34 -13 -27 -23 -133 -48
-206 -50 -38 -1 -183 0 -322 2 -165 2 -258 -1 -270 -8 -16 -9 -15 -10 9 -11
21 0 25 -4 21 -20 -3 -11 0 -20 6 -20 6 0 11 -9 11 -20 0 -14 7 -20 21 -20 34
0 59 -19 59 -45 0 -22 -4 -25 -40 -25 -22 0 -40 4 -40 9 0 5 -8 11 -19 14 -17
4 -42 38 -57 80 -3 9 -13 17 -20 17 -8 0 -14 3 -14 8 0 16 -109 121 -161 154
-14 9 -32 23 -40 30 -24 22 -96 58 -117 58 -37 0 -33 -17 18 -69 28 -28 50
-56 50 -61 0 -6 9 -10 20 -10 14 0 20 -7 20 -21 l0 -22 -415 5 -415 6 0 -185
0 -184 228 5 c639 15 1075 17 1083 5 6 -10 87 -12 360 -10 204 1 355 -2 358
-7 4 -5 89 -7 206 -3 l200 6 -235 8 c-129 5 -257 12 -285 16 l-50 8 45 3 c119
6 646 -2 733 -12 83 -10 100 -9 108 3 7 11 9 11 9 -3 0 -14 -9 -18 -42 -19
l-43 -1 37 -16 c27 -12 38 -23 38 -39 0 -12 -4 -24 -9 -27 -4 -3 -16 -38 -26
-78 -9 -40 -21 -77 -25 -83 -4 -5 -13 -26 -18 -45 -6 -19 -20 -60 -32 -90 -27
-67 -67 -213 -80 -295 -6 -33 -12 -69 -14 -80 -3 -11 -5 -24 -5 -30 -1 -10
-133 -10 -438 -2 -73 2 -138 0 -145 -4 -7 -5 -16 -3 -20 4 -6 9 -12 9 -26 0
-14 -8 -23 -8 -30 -1 -8 8 -19 7 -39 -1 l-29 -12 -1 -110 c-1 -61 -7 -124 -13
-140 -9 -20 -9 -37 -2 -61 6 -18 9 -103 7 -190 -2 -129 0 -158 11 -158 8 0 14
9 14 21 0 12 8 23 20 26 11 3 20 9 20 14 0 5 8 9 19 9 11 0 21 9 24 21 4 16 9
19 23 11 9 -5 25 -7 35 -5 16 4 19 0 19 -26 0 -17 5 -31 10 -31 18 0 11 -22
-9 -27 -10 -2 -24 -16 -30 -29 -6 -13 -17 -24 -26 -24 -8 0 -16 -4 -16 -10 -1
-5 -2 -14 -3 -19 -2 -19 -16 -24 -31 -11 -11 9 -18 10 -28 1 -16 -13 -27 -5
-27 21 0 10 -7 18 -15 18 -9 0 -15 -9 -15 -22 0 -13 -3 -34 -7 -47 -6 -24 -5
-24 45 -18 34 4 52 2 52 -5 0 -7 6 -6 15 2 11 10 52 12 148 11 73 -2 170 -4
217 -5 78 -1 85 -3 85 -21 0 -18 -9 -21 -100 -26 -55 -3 -188 -1 -295 5 l-194
11 -8 35 c-4 19 -5 49 -3 65 7 49 17 800 11 794 -3 -3 -10 -167 -16 -365 -13
-472 -18 -546 -32 -555 -7 -4 -396 -5 -865 -2 l-853 6 0 -21 c0 -21 5 -22 138
-25 l137 -3 -137 -2 c-129 -2 -138 -3 -138 -22 0 -16 8 -19 58 -22 53 -3 57
-5 57 -28 0 -23 -4 -25 -57 -28 -50 -3 -58 -6 -58 -22 0 -17 7 -20 55 -20 l55
0 0 -95 0 -95 -32 0 c-71 0 -78 -7 -78 -71 0 -48 3 -57 15 -53 8 4 15 1 15 -5
0 -6 -7 -11 -15 -11 -11 0 -15 -11 -15 -40 0 -35 3 -40 24 -40 22 0 24 -5 31
-77 4 -49 3 -79 -3 -81 -5 -1 -8 -12 -5 -22 3 -11 0 -20 -6 -20 -6 0 -11 5
-11 11 0 8 -5 8 -15 -1 -11 -9 -15 -32 -15 -81 0 -61 2 -69 19 -69 18 0 68
-48 89 -86 8 -15 13 -16 25 -6 8 7 18 23 21 36 6 23 36 45 36 26 0 -6 18 -10
40 -10 22 0 40 -4 40 -10 0 -26 32 -5 46 30 16 40 34 53 34 25 0 -11 11 -15
38 -15 30 0 42 -6 62 -31 49 -61 55 -65 59 -43 2 10 7 24 11 29 4 6 11 25 15
42 7 37 21 42 41 16 13 -17 15 -17 28 0 20 25 34 21 41 -14 4 -17 12 -41 19
-54 12 -23 13 -23 28 -6 9 11 22 35 29 55 12 33 16 36 54 36 22 0 49 3 60 6
17 4 22 -2 34 -40 7 -24 19 -53 27 -63 12 -17 13 -16 14 10 0 18 11 40 31 60
28 28 40 32 98 35 l66 4 14 -46 c7 -25 17 -46 22 -46 5 0 9 4 9 9 0 12 59 71
70 71 5 0 11 -6 13 -12 4 -10 6 -10 6 0 1 6 7 12 15 12 9 0 17 -17 21 -47 l8
-48 14 55 14 55 239 0 c132 0 240 -3 240 -6 0 -4 29 -4 64 -2 88 8 112 0 125
-39 l12 -33 19 25 c11 14 20 33 20 44 0 14 5 17 23 12 12 -3 30 -6 40 -6 9 0
17 -7 17 -15 0 -11 11 -15 40 -15 30 0 40 4 40 16 0 12 9 14 43 12 l42 -3 -3
-230 c-2 -126 1 -255 5 -285 5 -30 6 -186 2 -346 -6 -269 -8 -294 -28 -332
-14 -28 -28 -42 -41 -42 -11 0 -20 -4 -20 -8 0 -14 -98 -33 -201 -39 -90 -5
-100 -4 -151 21 -93 45 -171 47 -187 4 -9 -26 5 -44 74 -97 77 -58 154 -96
255 -125 100 -30 155 -48 187 -62 17 -8 35 -14 40 -14 5 0 20 -11 32 -24 l22
-24 -63 -12 c-35 -7 -119 -16 -188 -21 -157 -10 -300 -30 -300 -41 0 -4 -11
-8 -24 -8 -25 0 -54 -26 -41 -38 4 -4 109 -6 233 -4 168 2 236 0 262 -10 31
-11 130 -104 130 -122 0 -3 -18 -6 -40 -6 -33 0 -40 -3 -40 -20 0 -17 -7 -20
-40 -20 -38 0 -40 -2 -40 -30 0 -28 2 -30 40 -30 29 0 40 -4 40 -15 0 -11 11
-15 40 -15 l40 0 0 -85 0 -85 160 0 160 0 0 40 0 40 40 0 c22 0 40 5 40 10 0
6 -17 10 -39 10 -23 0 -48 8 -62 19 -24 19 -25 22 -23 150 1 72 -2 131 -7 131
-5 0 -9 18 -9 40 0 22 3 40 8 40 9 0 11 29 16 272 3 103 7 191 10 196 4 8 14
61 36 207 18 116 42 261 55 325 7 36 13 79 14 95 1 17 5 74 11 129 13 131 13
373 0 378 -14 4 7 68 27 85 10 8 156 11 525 12 l511 1 -7 -87 c-4 -48 -12 -95
-17 -104 -16 -31 -23 -243 -10 -351 12 -114 34 -339 52 -551 8 -91 9 -175 3
-250 -10 -139 -12 -357 -1 -357 4 0 7 -18 7 -41 0 -29 4 -40 13 -36 9 3 11
-19 9 -100 -3 -87 -6 -107 -23 -124 -12 -12 -19 -33 -19 -59 0 -22 -4 -40 -10
-40 -5 0 -10 -18 -10 -40 l0 -40 175 0 175 0 0 80 c0 79 0 80 -25 80 -22 0
-25 4 -25 40 l0 40 40 0 c33 0 40 3 40 20 0 17 7 20 40 20 l40 0 0 59 c0 59 0
59 -37 74 -21 8 -41 11 -44 6 -3 -5 -14 -3 -25 5 -16 12 -16 15 -4 19 8 3 35
12 60 21 25 9 65 16 88 16 23 0 42 5 42 10 0 6 21 10 48 10 26 0 54 5 62 10
25 16 -7 30 -71 30 -31 0 -74 7 -95 16 -26 11 -57 15 -96 12 -43 -3 -58 -1
-58 9 0 25 109 62 185 63 89 1 268 44 300 72 5 4 17 8 27 8 10 0 18 5 18 10 0
6 6 10 13 10 21 0 67 54 67 78 0 30 -29 42 -99 42 -47 0 -61 -3 -61 -15 0 -21
-61 -29 -122 -16 -236 52 -258 62 -298 141 -23 46 -26 176 -9 395 5 72 12 165
14 208 2 42 9 103 14 135 6 31 13 149 15 260 4 134 9 209 17 218 9 11 58 14
254 14 134 0 250 3 259 6 35 14 12 21 -61 20 -179 -2 -457 5 -447 12 15 10 47
182 36 196 -15 18 -36 183 -38 294 -2 108 9 152 37 152 30 0 44 28 31 63 -6
18 -13 48 -16 67 -4 19 -20 109 -36 200 -57 308 -68 395 -79 620 -14 278 -32
490 -43 490 -4 0 -8 21 -8 48 0 26 -5 63 -10 82 -6 19 -17 76 -26 125 -8 50
-20 115 -27 145 -8 30 -12 60 -10 65 3 10 251 10 663 1 156 -4 210 -9 270 -26
113 -31 237 -46 500 -60 177 -10 240 -7 240 10 0 6 7 10 15 10 8 0 15 6 15 14
0 36 24 39 308 38 152 -1 332 -5 400 -8 l122 -7 0 52 0 51 -70 0 c-40 0 -70 4
-70 10 0 6 -92 10 -255 10 -169 0 -255 3 -255 10 0 6 7 13 15 16 8 4 15 18 15
34 0 16 7 30 15 34 8 3 15 14 15 24 0 10 10 38 21 63 29 59 36 109 15 109 -34
0 -156 -94 -156 -121 0 -5 -7 -9 -15 -9 -8 0 -15 -7 -15 -15 0 -8 -9 -20 -20
-27 -11 -7 -20 -18 -20 -25 0 -7 -6 -13 -12 -13 -7 0 -34 -20 -60 -43 -25 -23
-58 -52 -72 -63 -28 -24 -96 -41 -96 -24 0 5 -17 10 -37 10 -22 0 -49 9 -63
20 -18 14 -41 20 -82 20 -50 0 -58 3 -58 19 0 15 -9 19 -55 23 -34 3 -62 12
-75 23 -16 14 -23 16 -29 7 -5 -9 -15 -9 -42 1 -18 6 -36 15 -39 19 -3 3 -31
16 -62 28 -32 12 -60 26 -63 31 -4 5 -19 9 -35 9 -16 0 -31 4 -35 10 -3 5 -33
19 -65 31 -33 12 -60 26 -60 30 0 5 -9 9 -20 9 -11 0 -23 7 -26 15 -4 8 -12
15 -19 15 -8 0 -15 10 -17 22 -2 13 -11 24 -21 26 -27 5 -57 38 -57 62 0 11
-7 20 -15 20 -18 0 -65 47 -65 65 0 8 -9 15 -19 15 -11 0 -22 8 -25 18 -3 9
-17 29 -31 44 -14 15 -28 42 -32 60 -3 18 -9 35 -12 38 -20 16 -41 64 -41 95
0 19 -4 35 -8 35 -5 0 -19 25 -31 55 -13 30 -27 55 -32 55 -5 0 -9 7 -9 15 0
8 -12 27 -27 42 -46 46 -69 103 -42 103 5 0 7 5 3 11 -4 8 -9 8 -17 0 -16 -16
-47 -14 -47 3 0 8 6 16 13 19 10 3 10 9 0 26 -7 11 -13 27 -13 35 0 7 -7 19
-15 26 -11 9 -15 32 -15 82 0 59 -5 79 -32 131 -18 34 -36 64 -40 65 -5 2 -8
9 -8 16 0 17 -24 66 -32 66 -3 0 -12 17 -19 38 -6 20 -15 39 -19 42 -7 5 -25
65 -39 130 -14 62 -55 185 -63 188 -4 2 -8 10 -8 18 0 21 -42 114 -52 114 -4
0 -8 4 -8 9 0 19 -122 207 -152 234 l-31 27 -172 0 c-154 0 -174 -2 -188 -18z
m489 -362 c33 -98 37 -176 12 -235 -9 -22 -20 -53 -25 -70 -7 -27 -8 -26 -11
20 -1 28 -9 64 -17 82 -20 41 -19 99 0 107 8 3 15 16 15 28 0 26 -32 134 -43
144 -4 4 -7 13 -7 20 0 9 5 10 24 1 18 -9 31 -32 52 -97z m377 -1452 c7 -7 23
-30 37 -50 14 -21 28 -38 33 -38 4 0 7 -5 7 -11 0 -6 13 -24 29 -40 16 -16 34
-29 40 -29 6 0 11 -9 11 -19 0 -11 27 -46 60 -79 54 -54 60 -65 60 -101 0 -40
1 -41 35 -41 34 0 35 -1 35 -40 l0 -40 -135 0 c-128 0 -135 1 -135 20 0 18 -7
20 -84 20 -120 0 -118 -7 -80 314 7 65 19 125 25 132 14 17 47 18 62 2z
m-1249 -20 c17 -28 32 -304 20 -394 -8 -71 -23 -48 -19 31 1 28 1 37 -2 20 -2
-16 -8 -39 -13 -50 -5 -11 -11 -29 -13 -40 -3 -11 -5 -5 -6 14 l-1 34 -120 -6
-120 -7 0 45 0 45 -40 0 c-29 0 -40 4 -40 15 0 18 49 64 68 65 6 0 12 9 12 20
0 11 7 20 15 20 8 0 20 9 27 20 7 11 18 20 25 20 7 0 13 6 13 14 0 8 9 17 19
21 11 3 23 15 26 26 4 10 13 19 21 19 8 0 14 7 14 15 0 8 5 15 10 15 6 0 15
11 22 24 6 14 20 27 32 29 11 2 24 5 28 6 4 0 14 -9 22 -21z m-1154 -318 c0
-5 -18 -10 -40 -10 -22 0 -40 5 -40 10 0 6 18 10 40 10 22 0 40 -4 40 -10z
m800 -55 c0 -8 -7 -15 -16 -15 -14 0 -14 3 -4 15 7 8 14 15 16 15 2 0 4 -7 4
-15z m3840 -115 c0 -5 -18 -10 -40 -10 -22 0 -40 5 -40 10 0 6 18 10 40 10 22
0 40 -4 40 -10z m-2230 -46 c0 -14 -3 -14 -15 -4 -8 7 -15 14 -15 16 0 2 7 4
15 4 8 0 15 -7 15 -16z m-1921 -1022 c0 -11 -3 -12 -6 -4 -2 6 -12 12 -21 12
-14 0 -15 2 -2 9 18 12 30 5 29 -17z m31 8 c0 -5 -2 -10 -4 -10 -3 0 -8 5 -11
10 -3 6 -1 10 4 10 6 0 11 -4 11 -10z m-26 -62 c6 -25 4 -28 -19 -26 -14 1
-25 8 -25 15 0 7 7 10 15 7 11 -4 15 0 15 17 0 28 5 23 14 -13z m101 -8 c3 -6
-1 -13 -10 -16 -19 -8 -30 0 -20 15 8 14 22 14 30 1z m-275 -10 c0 -5 -9 -10
-20 -10 -11 0 -20 5 -20 10 0 6 9 10 20 10 11 0 20 -4 20 -10z m90 0 c0 -12
-8 -12 -35 0 -18 8 -17 9 8 9 15 1 27 -3 27 -9z m390 0 c0 -5 -10 -10 -22 -10
-19 0 -20 2 -8 10 19 13 30 13 30 0z m-81 -47 c0 -11 -3 -13 -6 -5 -2 6 -17
12 -33 12 -16 0 -31 -6 -33 -12 -3 -8 -6 -6 -6 5 -1 13 7 17 39 17 32 0 40 -4
39 -17z m97 -69 c-6 -17 -62 -19 -72 -2 -5 8 -2 9 9 5 13 -5 17 -1 17 14 0 21
1 20 20 -2 l19 -24 2 45 c2 39 3 40 6 12 3 -19 2 -40 -1 -48z m-218 24 c18
-18 14 -35 -8 -33 -26 2 -34 11 -27 30 8 18 19 19 35 3z m-188 -24 c0 -2 -9
-4 -21 -4 -11 0 -18 4 -14 10 5 8 35 3 35 -6z m80 6 c0 -5 -10 -10 -22 -10
-19 0 -20 2 -8 10 19 13 30 13 30 0z m211 -2 c18 11 20 11 17 0 -3 -7 -21 -14
-41 -16 -28 -2 -37 1 -37 12 0 14 3 14 20 4 16 -10 24 -10 41 0z m81 -88 c-2
-16 -8 -30 -13 -30 -5 0 -9 14 -9 30 0 18 5 30 13 30 9 0 12 -10 9 -30z m-189
-2 c14 -22 1 -48 -23 -48 -13 0 -20 7 -20 19 0 48 22 63 43 29z m214 -20 c-3
-8 -6 -5 -6 6 -1 11 2 17 5 13 3 -3 4 -12 1 -19z m-507 -12 c0 -11 -19 -15
-25 -6 -3 5 1 10 9 10 9 0 16 -2 16 -4z m115 -6 c-3 -5 -12 -10 -20 -10 -8 0
-17 5 -20 10 -4 6 5 10 20 10 15 0 24 -4 20 -10z m90 0 c-3 -5 -15 -10 -25
-10 -10 0 -22 5 -25 10 -4 6 7 10 25 10 18 0 29 -4 25 -10z m185 0 c0 -5 -7
-10 -15 -10 -8 0 -15 5 -15 10 0 6 7 10 15 10 8 0 15 -4 15 -10z m10 -139 c0
-11 -4 -31 -9 -44 -11 -29 3 -39 38 -30 13 3 21 1 21 -6 0 -8 -16 -11 -47 -9
-45 3 -48 5 -55 38 -10 48 -2 70 28 70 17 0 24 -6 24 -19z m-130 -53 c0 -5 -4
-8 -10 -8 -5 0 -10 10 -10 23 0 18 2 19 10 7 5 -8 10 -18 10 -22z m153 7 c-7
-21 -13 -19 -13 6 0 11 4 18 10 14 5 -3 7 -12 3 -20z m-1685 -270 c8 -8 -311
-5 -330 3 -10 4 60 6 154 4 94 -1 174 -4 176 -7z m218 3 c3 -4 -33 -8 -80 -8
-52 0 -86 4 -86 10 0 13 158 11 166 -2z m-616 -73 c0 -23 -3 -25 -49 -25 -51
0 -67 10 -57 35 4 11 21 15 56 15 47 0 50 -2 50 -25z m240 11 c0 -22 -19 -30
-85 -34 -78 -4 -105 3 -105 28 0 19 7 20 95 20 76 0 95 -3 95 -14z m377 -9
c-6 -18 -147 -25 -164 -9 -23 23 -8 27 82 24 60 -3 85 -7 82 -15z m1103 -16
c0 -34 -9 -44 -27 -30 -9 8 -13 8 -13 1 0 -11 -140 -19 -427 -24 l-153 -3 0
-42 0 -43 69 0 c119 0 191 11 192 29 0 11 3 8 9 -6 11 -27 30 -30 31 -5 1 13
2 14 5 2 9 -31 42 -39 173 -41 l131 -2 0 -79 c0 -43 -3 -78 -7 -78 -5 0 -6 25
-5 55 3 35 0 55 -7 55 -6 0 -11 -19 -11 -44 l0 -44 -232 -7 c-232 -7 -347 -6
-380 2 -15 4 -18 16 -18 84 0 72 2 79 20 79 17 0 20 7 20 39 0 30 -4 40 -20
44 -15 4 -20 14 -20 41 0 20 6 38 14 43 8 4 159 7 335 5 l321 -3 0 -28z
m-1320 14 c0 -11 -12 -15 -42 -16 -70 -2 -85 2 -73 20 3 6 31 11 61 11 41 0
54 -4 54 -15z m458 3 c-3 -9 -33 -13 -103 -13 -70 0 -100 4 -102 13 -4 9 21
12 102 12 81 0 106 -3 103 -12z m162 -33 c0 -38 -3 -45 -20 -45 -16 0 -20 7
-20 30 0 17 -3 29 -7 29 -29 -5 -62 3 -67 16 -4 12 5 15 54 15 l60 0 0 -45z
m868 7 c3 -29 1 -32 -20 -28 -13 3 -42 5 -65 5 -41 1 -43 2 -43 31 l0 31 63
-3 62 -3 3 -33z m152 14 c0 -16 7 -27 20 -31 11 -3 20 -13 20 -20 0 -10 -10
-12 -37 -8 -21 3 -41 10 -44 16 -4 6 -8 6 -10 -1 -2 -5 -14 -12 -26 -16 -18
-6 -24 -2 -29 18 -10 43 11 66 61 66 41 0 45 -2 45 -24z m970 -171 c0 -84 -3
-156 -7 -158 -5 -2 -20 -7 -35 -11 l-28 -6 0 145 c0 81 4 154 9 163 5 10 21
18 35 20 l26 2 0 -155z m110 126 c9 -10 25 -23 37 -30 27 -14 115 -15 129 -1
8 8 15 6 25 -6 11 -14 14 -71 14 -298 l0 -281 -35 0 c-19 0 -41 -4 -49 -9 -18
-12 -133 -20 -166 -12 -14 4 -23 11 -19 17 3 6 12 8 20 5 7 -3 16 -1 20 5 10
16 -5 59 -21 59 -21 0 -26 32 -23 130 4 109 22 108 26 -2 4 -117 17 -117 17 0
0 59 4 97 10 96 101 -13 145 -13 143 -2 -2 7 7 14 20 16 16 2 22 10 22 28 0
22 -4 24 -45 24 -32 0 -45 -4 -45 -14 0 -15 -80 -25 -122 -16 -22 6 -23 10
-29 155 -3 83 -3 154 -1 158 6 13 55 -2 72 -22z m-346 3 c5 -14 17 -16 65 -11
l58 5 6 -67 c3 -36 3 -103 0 -149 l-6 -82 -108 0 -108 0 -7 46 c-4 26 -4 87 0
136 6 81 10 92 34 114 32 27 57 31 66 8z m-1916 -136 c-2 -37 -9 -73 -15 -79
-20 -20 -171 -9 -185 13 -10 16 -10 129 0 143 4 6 45 11 92 12 60 0 85 4 89
14 9 29 22 -40 19 -103z m-858 2 l0 -78 -55 -4 -55 -3 0 81 c0 44 2 83 4 85 2
2 27 2 55 1 l51 -4 0 -78z m226 24 c9 -48 -3 -107 -21 -100 -8 3 -16 0 -19 -7
-4 -8 -8 -8 -11 -2 -3 7 -28 9 -66 5 -33 -3 -62 -4 -64 -1 -8 7 -5 135 3 148
11 17 112 21 144 5 19 -9 29 -24 34 -48z m759 52 c16 -11 20 -30 23 -110 4
-91 3 -96 -16 -96 -14 0 -22 8 -24 22 -5 34 -50 32 -59 -2 -4 -14 -7 22 -8 82
-1 103 0 107 22 111 39 8 43 7 62 -7z m-622 -5 l37 -1 0 -74 0 -74 -57 -5
c-32 -2 -59 -3 -61 -2 -7 7 -14 115 -9 137 5 18 13 24 29 22 13 -1 40 -3 61
-3z m236 -5 c12 -8 16 -132 3 -140 -4 -2 -41 -6 -82 -7 l-75 -2 -3 58 c-5 98
-4 100 76 99 38 -1 74 -4 81 -8z m1479 -231 c-2 -2 -38 0 -80 2 -83 6 -106 22
-35 25 l42 1 -37 4 -38 4 2 64 c1 36 5 70 9 76 12 19 70 21 83 3 10 -14 15
-11 31 21 l20 36 3 -117 c1 -64 1 -118 0 -119z m562 116 c0 -117 -2 -121 -56
-121 -29 0 -49 40 -35 68 5 9 17 40 27 67 19 56 42 95 55 95 5 0 9 -49 9 -109z
m-787 47 c10 -33 -5 -48 -49 -48 -57 0 -58 19 -1 22 l42 1 -42 4 c-29 3 -43 9
-43 19 0 18 86 20 93 2z m24 -30 c-3 -7 -5 -2 -5 12 0 14 2 19 5 13 2 -7 2
-19 0 -25z m1507 -20 c7 -5 11 -76 11 -220 0 -195 -1 -213 -17 -216 -17 -3
-18 13 -17 235 0 131 3 231 6 223 3 -8 11 -18 17 -22z m-1507 -60 c-2 -13 -4
-3 -4 22 0 25 2 35 4 23 2 -13 2 -33 0 -45z m-7 -38 c0 -13 -16 -15 -65 -12
-57 5 -58 20 -2 24 47 3 67 0 67 -12z m-190 1 c0 -5 -10 -11 -22 -15 -33 -8
-543 -7 -534 1 4 4 114 10 244 13 130 4 254 7 275 8 20 1 37 -2 37 -7z m1328
-205 l-3 -141 -30 0 -30 0 -3 142 c-3 141 -2 142 20 145 48 8 49 4 46 -146z
m-110 -21 l-3 -116 -70 -4 c-38 -3 -89 -2 -112 1 l-43 6 0 107 c0 58 4 111 8
116 11 16 123 19 133 3 5 -7 9 -55 9 -105 l0 -93 28 0 27 0 -3 91 c-2 51 -1
103 3 118 14 55 26 -9 23 -124z m-2050 65 c1 -30 -1 -82 -5 -115 l-8 -60 -59
0 -59 0 -3 85 c-1 47 0 100 3 118 l6 34 61 -4 61 -4 3 -54z m1989 28 c-3 -7
-5 -2 -5 12 0 14 2 19 5 13 2 -7 2 -19 0 -25z m-2277 11 c0 -8 4 -9 13 0 21
17 27 3 27 -63 0 -50 -4 -63 -20 -74 -14 -8 -20 -23 -20 -47 0 -34 -1 -35 -39
-35 -35 0 -39 3 -45 31 -8 40 -8 147 0 177 5 18 13 22 45 22 22 0 39 -5 39
-11z m426 -19 c11 0 14 -17 14 -77 0 -85 -11 -116 -32 -95 -9 9 -9 12 4 12 11
0 15 6 11 21 -4 16 -8 17 -14 7 -5 -7 -8 24 -8 77 1 50 3 82 6 73 2 -10 11
-18 19 -18z m411 -67 c-6 -52 -15 -93 -21 -94 -16 -1 26 -17 47 -18 15 -1 17
9 17 79 l0 80 44 0 c49 0 101 -16 128 -39 22 -19 26 -111 6 -111 -23 0 16 -20
40 -20 18 0 22 5 22 34 0 62 13 156 21 156 5 0 9 -42 9 -94 0 -88 -1 -94 -22
-101 -37 -11 -260 -16 -460 -9 l-188 7 0 95 0 94 40 -4 c22 -2 41 1 43 7 2 5
7 -26 12 -70 5 -55 4 -80 -4 -83 -6 -2 -11 -10 -11 -18 0 -10 12 -14 40 -14
l40 0 0 95 0 95 94 0 c78 0 95 3 100 16 13 33 14 7 3 -83z m1188 -8 c4 -41 4
-79 0 -85 -4 -6 7 -13 24 -16 46 -9 38 -24 -13 -24 -41 0 -44 2 -50 31 -3 17
-3 70 1 117 5 70 8 82 18 68 7 -9 16 -50 20 -91z m870 68 c3 -21 12 -71 19
-110 7 -40 11 -75 8 -78 -3 -3 -16 -5 -29 -5 -23 0 -23 1 -23 115 0 113 13
154 25 78z m-3150 17 c3 -5 15 -6 28 -1 14 6 30 5 41 -1 16 -9 17 -19 11 -87
-4 -42 -8 -85 -9 -95 -1 -17 -9 -20 -53 -22 l-53 -2 0 103 c0 56 3 105 7 108
9 10 21 9 28 -3z m2334 -82 l-2 -93 -9 69 c-9 62 -5 116 7 116 3 0 4 -42 4
-92z m-2511 66 c18 -5 15 -31 -5 -38 -37 -14 -100 24 -77 47 6 5 51 1 82 -9z
m549 -56 c-2 -13 -4 -3 -4 22 0 25 2 35 4 23 2 -13 2 -33 0 -45z m493 22 c0
-22 -4 -40 -10 -40 -5 0 -10 18 -10 40 0 22 5 40 10 40 6 0 10 -18 10 -40z
m680 0 c0 -22 5 -40 10 -40 6 0 10 -27 10 -60 l0 -60 -55 0 c-30 0 -55 3 -56
8 0 4 -2 16 -5 27 -2 11 -1 53 2 93 l6 72 44 0 44 0 0 -40z m161 13 c5 -14 9
-58 7 -97 l-3 -71 -47 -3 -48 -3 0 100 0 101 40 0 c35 0 42 -4 51 -27z m492
-146 c-7 -24 -14 -31 -29 -29 -28 6 -31 12 -11 27 12 8 14 14 6 17 -9 3 -9 9
-1 25 7 11 15 47 19 79 l8 59 9 -73 c5 -45 5 -85 -1 -105z m-2376 36 l1 -73
-31 5 c-18 2 -38 4 -44 4 -17 1 -17 83 -1 99 10 10 10 15 -1 22 -11 6 -7 9 15
13 58 9 59 7 61 -70z m820 35 c-3 -8 -6 -5 -6 6 -1 11 2 17 5 13 3 -3 4 -12 1
-19z m1890 -40 c-2 -13 -4 -3 -4 22 0 25 2 35 4 23 2 -13 2 -33 0 -45z m-2237
-27 c0 -6 -4 -13 -10 -16 -5 -3 -10 1 -10 9 0 9 5 16 10 16 6 0 10 -4 10 -9z"/>
<path d="M4898 2743 c12 -2 32 -2 45 0 12 2 2 4 -23 4 -25 0 -35 -2 -22 -4z"/>
<path d="M3600 2358 c-3 -26 -1 -43 3 -39 5 5 7 26 5 47 l-3 39 -5 -47z"/>
<path d="M3363 2360 c0 -25 2 -35 4 -22 2 12 2 32 0 45 -2 12 -4 2 -4 -23z"/>
<path d="M3011 6963 c-1 -47 3 -75 12 -80 6 -4 18 -20 26 -35 8 -16 38 -53 68
-84 29 -31 53 -61 53 -66 0 -5 -19 -8 -42 -6 -41 3 -43 2 -41 -23 l1 -27 -24
25 c-28 28 -31 43 -8 43 9 0 14 7 12 17 -4 22 -28 29 -28 9 0 -9 -7 -16 -15
-16 -23 0 -21 -132 2 -151 9 -8 18 -13 20 -11 2 1 22 -19 44 -45 88 -104 98
-113 125 -113 25 0 26 2 20 33 -3 17 -14 37 -23 44 -18 14 -21 45 -10 113 3
25 3 34 -1 20 -7 -22 -9 -23 -15 -7 -11 30 -8 37 18 37 14 0 29 -8 35 -20 6
-11 17 -20 25 -20 9 0 15 -10 15 -25 0 -22 4 -25 34 -25 88 0 89 36 4 128 -34
37 -67 73 -73 80 -5 7 -18 22 -27 33 -10 10 -18 22 -18 25 0 10 -58 64 -69 64
-6 0 -11 6 -11 13 0 6 -19 33 -43 58 -23 25 -47 54 -54 65 -10 16 -12 7 -12
-53z m129 -335 c0 -7 -5 -20 -10 -28 -8 -12 -10 -9 -10 13 0 15 5 27 10 27 6
0 10 -6 10 -12z"/>
<path d="M5780 6971 c-22 -7 -23 -9 -7 -16 35 -15 92 -11 92 5 0 17 -46 23
-85 11z"/>
<path d="M8583 6924 c-16 -12 -16 -15 -3 -23 17 -11 89 -4 105 11 27 25 -70
36 -102 12z"/>
<path d="M3032 6805 c-9 -11 -10 -20 -3 -33 9 -15 10 -15 11 6 0 12 5 22 10
22 6 0 10 5 10 10 0 14 -13 12 -28 -5z"/>
<path d="M3060 6490 c0 -5 5 -10 11 -10 5 0 7 5 4 10 -3 6 -8 10 -11 10 -2 0
-4 -4 -4 -10z"/>
<path d="M9318 4963 c23 -2 61 -2 85 0 23 2 4 4 -43 4 -47 0 -66 -2 -42 -4z"/>
<path d="M5538 4723 c12 -2 32 -2 45 0 12 2 2 4 -23 4 -25 0 -35 -2 -22 -4z"/>
<path d="M7060 4673 c-33 -7 -40 -20 -28 -54 l10 -29 111 -2 c102 -1 159 1
163 5 7 7 11 68 6 71 -12 7 -236 15 -262 9z"/>
<path d="M8197 4674 c-13 -13 -8 -92 7 -97 8 -3 83 -5 167 -4 l154 2 -2 39
c-1 21 -7 44 -13 50 -12 13 -301 22 -313 10z"/>
<path d="M9368 4605 l4 -45 64 0 64 0 0 45 0 45 -68 0 -67 0 3 -45z"/>
<path d="M3022 4308 c-9 -9 -12 -147 -12 -560 l0 -548 373 -1 c204 0 518 -1
697 -2 179 -1 305 1 280 4 l-45 6 39 1 c30 2 47 10 73 37 19 19 43 35 54 35
18 0 19 2 6 14 -9 9 -47 17 -101 22 -93 7 -119 21 -114 58 3 20 7 21 138 18
74 -1 154 -5 178 -8 33 -4 43 -2 49 11 11 29 -17 35 -169 35 -81 0 -149 3
-151 8 -3 4 61 6 143 4 125 -3 148 -1 153 12 11 28 -29 37 -166 36 -72 -1
-138 -1 -145 -1 -11 1 -12 60 -7 324 4 210 3 327 -4 337 -10 15 -107 28 -211
29 l-55 1 0 57 0 58 -34 -2 c-33 -1 -76 -37 -65 -54 20 -32 -80 -66 -159 -55
-23 4 -163 6 -310 6 -191 -1 -273 2 -283 11 -10 8 -18 8 -27 1 -7 -6 -23 -8
-36 -5 -22 5 -23 10 -19 64 l4 59 -31 0 c-17 0 -36 -5 -43 -12z m1237 -182 c8
-9 10 -92 6 -292 -4 -154 -8 -294 -11 -311 l-5 -33 -125 0 -126 0 6 28 c3 15
8 158 12 317 3 160 8 293 11 298 2 4 53 7 112 7 80 0 112 -4 120 -14z m-1011
-28 c-5 -15 -60 -16 -65 -2 -2 6 13 11 32 12 24 1 35 -3 33 -10z m207 -3 c0
-5 -21 -11 -47 -13 -39 -3 -48 0 -48 13 0 13 9 16 48 13 26 -2 47 -7 47 -13z
m225 0 c0 -12 -14 -14 -70 -13 -57 1 -68 3 -59 15 17 19 129 18 129 -2z m160
1 c0 -9 -15 -15 -46 -18 -47 -3 -67 7 -43 23 23 15 89 11 89 -5z m123 -107
c-5 -18 -23 -27 -23 -11 1 25 14 52 20 42 4 -7 5 -21 3 -31z m3 -306 c-4 -135
-7 -159 -22 -170 -20 -15 -104 -18 -104 -4 0 5 -10 11 -22 13 l-23 3 23 20
c12 11 22 27 22 37 0 12 8 18 21 18 17 0 20 5 16 21 -4 15 0 23 14 26 23 6 63
68 56 87 -5 14 11 106 19 106 3 0 2 -71 0 -157z m-606 -43 c0 -5 -5 -10 -11
-10 -5 0 -7 5 -4 10 3 6 8 10 11 10 2 0 4 -4 4 -10z m400 -105 c0 -9 -9 -15
-22 -15 -22 1 -23 1 -4 15 25 19 26 19 26 0z m-17 -32 c-13 -2 -33 -2 -45 0
-13 2 -3 4 22 4 25 0 35 -2 23 -4z"/>
<path d="M4820 3985 c-22 -13 -23 -14 -5 -15 30 0 65 11 65 21 0 13 -32 10
-60 -6z"/>
<path d="M4890 3990 c0 -5 7 -10 15 -10 8 0 15 5 15 10 0 6 -7 10 -15 10 -8 0
-15 -4 -15 -10z"/>
<path d="M4945 3990 c-3 -5 1 -10 9 -10 8 0 18 5 21 10 3 6 -1 10 -9 10 -8 0
-18 -4 -21 -10z"/>
<path d="M5000 3990 c0 -5 7 -10 15 -10 8 0 15 5 15 10 0 6 -7 10 -15 10 -8 0
-15 -4 -15 -10z"/>
<path d="M5055 3990 c-20 -8 -20 -9 1 -9 12 -1 50 -3 85 -6 61 -4 62 -4 14 4
-27 5 -57 11 -65 14 -8 3 -24 2 -35 -3z"/>
<path d="M5245 3980 c-3 -5 3 -10 14 -10 12 0 21 5 21 10 0 6 -6 10 -14 10 -8
0 -18 -4 -21 -10z"/>
<path d="M8263 3763 c-8 -19 -9 -159 -6 -718 1 -214 -2 -412 -6 -440 l-8 -50
-2 71 c-2 129 -46 162 -216 163 -169 1 -174 -7 -187 -269 -11 -239 -12 -244
-68 -250 -38 -4 -45 -9 -51 -33 -16 -58 -27 -56 369 -73 140 -6 152 -8 152
-25 0 -15 8 -19 40 -19 22 0 40 -4 40 -9 0 -5 36 -12 80 -16 44 -4 80 -11 80
-16 0 -5 18 -9 40 -9 22 0 40 -4 40 -10 0 -5 18 -10 40 -10 29 0 40 4 40 15 0
11 11 15 40 15 27 0 40 4 40 13 0 11 29 15 117 20 66 4 119 11 121 17 2 5 21
10 43 10 21 0 40 3 40 8 4 22 10 58 10 67 1 6 -1 249 -5 540 -3 305 -2 524 3
516 6 -9 11 -10 15 -2 4 6 14 11 22 11 13 0 14 -24 10 -167 -3 -93 -5 -179 -6
-193 -1 -14 3 -52 9 -85 8 -47 13 -318 12 -657 0 -14 9 -18 42 -18 23 0 85 -3
137 -6 52 -2 121 -2 153 2 l57 6 0 104 c0 57 -3 104 -7 104 -5 -1 -19 -7 -33
-15 -14 -8 -42 -14 -62 -15 -37 0 -38 -1 -38 -39 l0 -39 -64 -4 c-35 -1 -70
-2 -78 0 -21 4 -41 41 -29 56 13 15 13 646 0 646 -5 0 -9 168 -9 404 l0 404
-22 6 c-13 3 -218 6 -456 6 -399 0 -433 -1 -439 -17z m687 -732 c0 -17 -18
-21 -24 -6 -3 9 0 15 9 15 8 0 15 -4 15 -9z m-640 -235 c0 -3 -4 -8 -10 -11
-5 -3 -10 -1 -10 4 0 6 5 11 10 11 6 0 10 -2 10 -4z m867 -278 c-2 -24 -4 -5
-4 42 0 47 2 66 4 43 2 -24 2 -62 0 -85z m-1288 -123 l2 -125 -27 0 c-22 0
-25 3 -21 23 3 12 9 68 13 125 5 72 10 102 19 102 10 0 13 -31 14 -125z m316
-22 c-5 -99 -10 -119 -21 -89 -4 10 -10 13 -13 8 -3 -5 -63 -11 -133 -14
l-127 -5 3 36 c2 20 4 51 5 69 1 27 5 32 24 31 18 -1 19 -2 3 -6 -16 -4 -13
-10 20 -44 31 -32 45 -39 76 -39 31 0 38 4 38 20 0 17 7 20 40 20 36 0 40 3
40 25 0 18 -7 26 -25 31 -14 3 -25 9 -25 13 0 6 74 38 92 40 4 1 5 -42 3 -96z
m982 -35 c-2 -13 -4 -3 -4 22 0 25 2 35 4 23 2 -13 2 -33 0 -45z"/>
<path d="M8038 2303 c23 -2 61 -2 85 0 23 2 4 4 -43 4 -47 0 -66 -2 -42 -4z"/>
<path d="M7956 3218 c-3 -7 -4 -42 -3 -78 l2 -65 68 -3 68 -3 -3 78 -3 78 -63
3 c-44 2 -63 -1 -66 -10z m124 -58 c0 -5 -25 -10 -55 -10 -30 0 -55 5 -55 10
0 6 25 10 55 10 30 0 55 -4 55 -10z"/>
<path d="M7899 3180 c-4 -42 -1 -64 9 -68 8 -2 12 10 12 37 0 23 -4 41 -10 41
-5 0 -10 -4 -11 -10z"/>
<path d="M3010 3161 c0 -21 0 -21 455 -21 258 0 455 4 455 9 0 5 -111 12 -247
15 -137 3 -341 9 -455 12 -206 6 -208 6 -208 -15z"/>
<path d="M9354 2450 c-6 -6 -8 -29 -5 -53 5 -37 9 -42 34 -45 18 -2 29 2 33
12 3 9 13 16 21 16 8 0 11 5 8 10 -3 6 2 10 12 11 10 0 13 3 6 6 -18 7 -16 23
2 23 31 0 14 18 -22 24 -54 8 -78 7 -89 -4z"/>
<path d="M9070 2215 c0 -8 5 -15 10 -15 6 0 10 7 10 15 0 8 -4 15 -10 15 -5 0
-10 -7 -10 -15z"/>
<path d="M8930 969 c-8 -15 -10 -121 -4 -375 l7 -354 283 0 284 0 0 90 c0 63
-4 91 -13 97 -34 21 -47 58 -47 136 0 74 2 80 30 109 18 17 30 40 30 55 0 25
-1 25 -19 9 -19 -17 -19 -16 -14 22 3 24 0 49 -9 66 -14 26 -16 27 -31 11 -23
-22 -21 -35 4 -35 19 0 20 -4 15 -35 -4 -19 -2 -45 4 -57 11 -22 10 -22 -4 -4
-9 11 -16 31 -16 44 0 18 -4 23 -16 18 -11 -4 -18 1 -21 14 -3 11 -9 20 -14
20 -5 0 -9 12 -9 26 0 14 -3 23 -7 21 -5 -3 -44 -2 -88 3 -64 6 -71 8 -35 10
l45 3 -45 7 -45 7 43 1 42 2 0 40 0 39 113 4 c109 3 107 3 -43 6 -107 3 -141
6 -110 11 28 4 -20 8 -127 8 -165 2 -173 1 -183 -19z m22 -254 c3 -138 2 -200
-2 -145 -8 99 -13 396 -6 389 2 -2 5 -112 8 -244z m374 113 c27 -9 37 -21 49
-57 19 -57 20 -131 1 -131 -7 0 -16 -8 -19 -19 -6 -25 -58 -49 -95 -43 -38 5
-85 -5 -77 -17 8 -14 9 -114 1 -139 -8 -25 -31 -29 -39 -8 -5 11 -11 376 -8
419 1 12 152 8 187 -5z"/>
<path d="M9190 710 l0 -90 39 0 c63 0 89 14 100 55 12 45 7 76 -16 92 -10 7
-23 17 -30 23 -7 5 -30 10 -53 10 l-40 0 0 -90z"/>
<path d="M9328 873 c6 -2 18 -2 25 0 6 3 1 5 -13 5 -14 0 -19 -2 -12 -5z"/>
<path d="M9370 870 c0 -5 5 -10 10 -10 6 0 10 5 10 10 0 6 -4 10 -10 10 -5 0
-10 -4 -10 -10z"/>
<path d="M9460 874 c0 -9 31 -37 36 -32 9 9 -8 38 -22 38 -8 0 -14 -3 -14 -6z"/>
<path d="M9487 603 c-11 -10 -8 -71 3 -78 6 -4 10 12 10 39 0 47 -2 51 -13 39z"/>
</g>
</svg>
