<?xml version="1.0" standalone="no"?>
<!DOCTYPE svg PUBLIC "-//W3C//DTD SVG 20010904//EN"
 "http://www.w3.org/TR/2001/REC-SVG-20010904/DTD/svg10.dtd">
<svg version="1.0" xmlns="http://www.w3.org/2000/svg"
 width="1280.000000pt" height="720.000000pt" viewBox="0 0 1280.000000 720.000000"
 preserveAspectRatio="xMidYMid meet">
<metadata>
Created by potrace 1.16, written by Peter Selinger 2001-2019
</metadata>
<g transform="translate(0.000000,720.000000) scale(0.100000,-0.100000)"
fill="#000000" stroke="none">
<path d="M6143 7158 c-10 -24 -16 -47 -15 -52 5 -14 -20 -37 -35 -32 -7 3 -13
-1 -13 -10 0 -20 -37 -92 -61 -117 -10 -12 -19 -31 -19 -43 0 -12 -3 -24 -7
-26 -7 -3 -45 -77 -63 -123 -31 -79 -54 -185 -60 -275 -10 -148 -68 -290 -152
-372 -21 -20 -38 -46 -38 -57 0 -12 -5 -21 -10 -21 -6 0 -14 -8 -17 -17 -4
-10 -17 -32 -30 -49 -28 -38 -29 -44 -3 -44 13 0 20 -7 20 -20 0 -11 -9 -25
-20 -32 -11 -7 -20 -21 -20 -30 0 -10 -4 -18 -10 -18 -5 0 -18 -17 -28 -37
-10 -21 -23 -47 -29 -58 -6 -11 -25 -53 -44 -92 -18 -40 -36 -73 -41 -73 -4 0
-8 -9 -8 -20 0 -11 -7 -20 -15 -20 -8 0 -21 -13 -30 -29 -8 -17 -23 -36 -33
-43 -10 -7 -35 -34 -56 -60 -22 -25 -54 -55 -72 -64 -19 -10 -34 -22 -34 -26
0 -5 -18 -24 -40 -44 -22 -20 -40 -44 -40 -53 0 -10 -18 -27 -40 -40 -22 -12
-40 -26 -40 -32 0 -5 -18 -9 -40 -9 -22 0 -40 -4 -40 -10 0 -5 -15 -10 -34
-10 -19 0 -46 -4 -60 -10 -101 -38 -670 -73 -706 -43 -8 7 -30 24 -47 39 -18
14 -32 28 -31 32 2 9 -89 102 -100 102 -4 0 -22 14 -40 30 -26 24 -42 30 -77
30 -27 0 -58 8 -77 20 -18 11 -50 20 -70 20 -34 0 -38 -3 -38 -25 0 -20 7 -26
40 -36 54 -16 56 -44 3 -34 -21 3 -42 11 -47 16 -14 13 -50 11 -64 -3 -15 -15
-16 -38 -2 -38 9 0 22 -10 64 -45 25 -21 57 -35 81 -35 23 0 25 -2 14 -22
l-11 -21 -374 6 -374 5 0 -184 0 -184 188 0 c103 0 248 4 322 9 74 5 285 13
468 16 288 6 332 5 332 -7 0 -11 17 -17 61 -22 90 -9 96 -8 118 15 16 18 22
19 40 7 12 -7 21 -18 21 -25 0 -8 15 -13 40 -13 22 0 40 5 40 10 0 6 89 11
243 12 133 1 205 4 160 5 -57 3 -83 8 -83 16 0 16 572 10 710 -7 l95 -11 -3
-85 c-4 -92 -14 -133 -49 -195 -23 -42 -46 -87 -81 -167 -27 -59 -58 -192 -67
-280 l-7 -68 -62 -1 c-62 -1 -314 2 -441 6 -38 1 -78 -2 -87 -7 -10 -5 -18 -3
-21 5 -3 9 -9 9 -24 0 -15 -8 -24 -8 -31 -1 -8 8 -19 7 -39 -1 l-29 -12 -1
-110 c-1 -61 -7 -124 -13 -140 -9 -20 -9 -37 -2 -61 6 -18 9 -103 7 -190 -2
-129 0 -158 11 -158 8 0 14 9 14 21 0 12 8 23 20 26 11 3 20 9 20 14 0 5 9 9
20 9 14 0 20 7 20 21 0 16 4 19 18 14 9 -4 27 -7 40 -6 18 1 22 -4 22 -29 0
-17 5 -30 10 -30 18 0 11 -22 -9 -27 -10 -2 -24 -16 -30 -29 -6 -13 -17 -24
-26 -24 -8 0 -16 -4 -16 -10 -1 -5 -2 -14 -3 -19 -2 -19 -16 -24 -31 -11 -11
9 -18 10 -28 1 -16 -13 -27 -5 -27 21 0 10 -7 18 -15 18 -9 0 -15 -9 -15 -22
0 -13 -3 -34 -7 -47 -6 -24 -5 -24 45 -18 31 4 52 2 52 -4 0 -5 11 -2 25 7 13
8 28 13 33 10 6 -3 112 -6 236 -7 226 -1 227 -1 224 -23 -3 -21 -4 -21 -317
-19 -208 1 -317 5 -324 12 -12 12 -12 102 -1 601 4 162 4 292 0 289 -3 -3 -10
-167 -16 -365 -13 -472 -18 -546 -32 -555 -7 -4 -396 -5 -865 -2 l-853 6 0
-21 c0 -21 5 -22 138 -25 l137 -3 -137 -2 c-129 -2 -138 -3 -138 -22 0 -16 8
-19 58 -22 54 -3 57 -4 60 -30 3 -28 3 -28 -57 -28 -54 0 -61 -2 -61 -20 0
-18 7 -20 55 -20 l55 0 0 -95 0 -95 -32 0 c-71 0 -78 -7 -78 -71 0 -48 3 -57
15 -53 8 4 15 1 15 -5 0 -6 -7 -11 -15 -11 -11 0 -15 -11 -15 -40 0 -35 3 -40
24 -40 22 0 24 -5 31 -77 4 -49 3 -79 -3 -81 -5 -1 -8 -12 -5 -22 3 -11 0 -20
-6 -20 -6 0 -11 5 -11 11 0 8 -5 8 -15 -1 -11 -9 -15 -32 -15 -81 0 -61 2 -69
19 -69 18 0 68 -48 89 -86 8 -15 13 -16 25 -6 8 7 18 23 21 36 6 23 36 45 36
26 0 -6 18 -10 40 -10 22 0 40 -4 40 -10 0 -26 32 -5 46 30 16 40 34 53 34 25
0 -11 11 -15 38 -15 30 0 42 -6 62 -31 49 -61 55 -65 59 -43 2 10 7 24 11 29
4 6 11 25 15 42 7 37 21 42 41 16 13 -17 15 -17 28 0 20 25 34 21 41 -14 4
-17 12 -41 19 -54 12 -23 13 -23 28 -6 9 11 22 35 29 55 12 33 16 36 54 36 22
0 49 3 60 6 17 4 22 -2 34 -40 7 -24 19 -53 27 -63 12 -17 13 -16 14 10 0 18
11 40 31 60 28 28 40 32 98 35 l66 4 14 -46 c7 -25 17 -46 22 -46 5 0 9 4 9 9
0 12 59 71 70 71 5 0 11 -6 13 -12 4 -10 6 -10 6 0 1 6 7 12 15 12 8 0 17 -17
21 -42 l8 -43 14 50 15 50 239 0 c131 0 239 -3 239 -6 0 -4 29 -4 64 -2 88 8
112 0 125 -39 l12 -33 19 25 c11 14 20 33 20 43 0 20 1 20 59 6 26 -6 52 -20
63 -34 26 -33 38 -31 38 4 0 28 1 29 76 36 72 7 76 6 100 -20 l24 -26 24 26
c24 26 27 27 103 19 43 -5 66 -10 51 -12 -23 -3 -27 -9 -31 -45 -6 -49 -29
-117 -39 -117 -4 0 -11 -18 -14 -40 -4 -22 -10 -40 -13 -40 -4 0 -15 -26 -25
-57 -10 -32 -22 -69 -27 -83 -8 -24 -24 -109 -54 -280 -7 -41 -16 -138 -20
-215 -7 -151 -28 -329 -45 -385 -5 -19 -10 -50 -10 -67 0 -21 -5 -33 -14 -33
-18 0 -33 -144 -17 -164 6 -7 11 -24 10 -37 -5 -121 -3 -138 14 -156 9 -11 17
-29 17 -41 0 -11 11 -29 25 -40 28 -22 33 -42 10 -42 -11 0 -15 -11 -15 -38 0
-48 24 -72 72 -72 20 0 38 -4 40 -9 2 -6 43 -11 92 -12 86 -2 91 -1 111 25 13
16 31 26 48 26 25 0 27 3 27 40 0 22 -4 40 -10 40 -5 0 -10 18 -10 40 0 37 -3
41 -30 47 -34 6 -41 23 -10 23 11 0 20 7 20 15 0 14 22 16 164 14 179 -2 197
3 210 53 3 16 11 28 16 28 6 0 10 17 10 38 0 32 -5 41 -25 50 -14 7 -32 12
-39 12 -8 0 -16 9 -19 20 -4 15 -14 20 -40 20 -20 0 -37 3 -39 8 -5 11 -58 39
-120 62 -31 11 -62 27 -68 35 -7 8 -21 15 -31 15 -11 0 -19 6 -19 13 0 7 -13
44 -30 82 -32 76 -36 115 -20 197 17 82 43 182 50 193 4 6 17 44 30 85 12 41
28 94 36 118 8 23 14 58 14 77 0 19 4 35 8 35 9 0 37 76 47 128 4 17 11 32 16
32 5 0 9 12 9 26 0 26 88 214 100 214 4 0 13 18 20 40 7 22 19 40 27 40 7 0
13 10 13 21 0 12 13 35 30 50 l30 29 210 0 c127 -1 210 -5 210 -10 0 -6 6 -10
14 -10 7 0 16 -15 20 -32 3 -18 22 -75 40 -128 23 -62 38 -130 46 -195 6 -55
17 -134 25 -175 8 -41 26 -140 40 -220 13 -80 34 -192 46 -250 30 -154 23
-313 -21 -427 -33 -87 -64 -123 -106 -123 -44 0 -53 -23 -49 -115 3 -54 9 -91
18 -99 7 -8 48 -17 90 -21 42 -4 77 -11 77 -15 0 -4 36 -11 80 -15 44 -4 80
-11 80 -16 0 -5 18 -9 40 -9 l40 0 0 40 c0 22 -4 40 -10 40 -5 0 -10 7 -10 15
0 8 4 15 9 15 5 0 23 11 39 25 27 23 28 27 21 72 -4 26 -8 116 -8 198 -1 128
-4 156 -20 189 -14 27 -17 44 -11 64 9 28 26 194 39 382 9 122 4 355 -9 420
-5 25 -12 66 -15 92 -3 26 -10 50 -16 53 -5 4 -9 21 -9 40 0 19 -6 35 -14 38
-8 3 -18 22 -22 41 -3 20 -10 36 -15 36 -5 0 -9 10 -9 23 0 13 -7 32 -15 43
-8 10 -15 34 -15 52 0 18 -9 51 -21 74 -12 23 -17 43 -11 47 5 3 12 76 15 161
3 99 9 156 16 158 6 2 11 22 11 43 0 22 7 62 16 90 14 42 20 49 43 49 57 0
222 41 244 60 5 4 -3 86 -18 181 -14 96 -30 208 -36 249 -5 41 -23 179 -39
305 -19 144 -30 275 -30 350 0 172 -25 408 -49 477 -12 32 -21 68 -21 81 0 12
-6 47 -14 77 -20 76 -32 205 -19 197 6 -4 264 -7 574 -8 544 -2 1283 -11 1747
-23 l222 -5 0 38 0 39 -72 10 -73 9 73 2 c44 0 72 5 72 12 0 7 -139 10 -472 7
-259 -2 -463 -2 -452 0 42 7 64 25 64 54 0 26 3 28 40 28 l40 0 0 40 c0 36 3
40 25 40 17 0 25 6 25 18 1 20 34 62 50 62 12 0 33 16 58 44 9 10 25 26 35 35
9 8 17 20 17 27 0 6 9 19 19 28 11 10 18 23 15 30 -3 7 2 29 11 49 20 48 19
67 -4 67 -24 0 -114 -45 -131 -65 -7 -8 -16 -15 -21 -15 -17 0 -57 -46 -68
-80 -7 -20 -29 -48 -52 -65 -22 -16 -46 -36 -54 -42 -7 -7 -16 -13 -19 -13 -2
0 -18 -12 -34 -27 -100 -93 -142 -107 -262 -83 -93 18 -355 92 -358 101 -2 5
-15 9 -30 9 -14 0 -33 6 -41 13 -21 18 -96 47 -121 47 -11 0 -20 5 -20 10 0 6
-6 10 -13 10 -22 0 -115 50 -121 65 -3 8 -13 15 -23 15 -20 1 -83 54 -83 70 0
5 -6 10 -13 10 -6 0 -18 13 -25 29 -15 34 -39 62 -67 77 -11 6 -24 20 -30 32
-5 12 -13 22 -17 22 -5 0 -8 6 -8 13 0 7 -9 18 -20 25 -11 7 -20 19 -20 27 0
8 -3 15 -7 15 -9 0 -33 49 -33 67 0 7 -4 13 -9 13 -5 0 -16 18 -25 40 -9 22
-20 40 -26 40 -5 0 -13 12 -16 28 -4 15 -19 43 -34 62 -38 50 -43 77 -17 96
21 15 20 15 -23 12 -43 -3 -45 -2 -46 24 -1 38 -24 87 -45 98 -9 6 -21 24 -24
42 -8 37 -52 135 -70 158 -7 8 -21 38 -31 65 -10 28 -21 52 -24 55 -10 8 -39
111 -45 160 -10 79 -29 160 -37 160 -4 0 -8 11 -8 25 0 13 -5 37 -11 52 -31
78 -53 123 -61 123 -4 0 -8 7 -8 15 0 16 -44 90 -67 113 -7 7 -13 19 -13 26 0
7 -9 21 -20 31 -11 10 -20 24 -20 31 0 8 -9 19 -20 26 -11 7 -20 18 -20 25 0
10 -46 13 -200 13 l-200 0 -17 -42z m477 -243 c65 -69 81 -355 19 -355 -14 0
-19 12 -24 68 -3 37 -8 79 -11 94 -4 20 -1 28 15 33 24 7 27 20 9 32 -7 4 -14
17 -15 28 -2 23 -17 81 -28 108 -10 25 8 21 35 -8z m27 -397 c-3 -8 -6 -5 -6
6 -1 11 2 17 5 13 3 -3 4 -12 1 -19z m-909 -550 c-2 -15 -9 -22 -21 -22 -9 1
-17 -4 -17 -12 0 -8 -9 -14 -20 -14 -26 0 -26 17 0 25 11 3 25 15 30 26 14 26
32 24 28 -3z m1355 -574 c32 -30 57 -58 57 -62 0 -12 57 -72 69 -72 6 0 11 -4
11 -9 0 -5 47 -55 105 -112 57 -57 105 -109 105 -116 0 -17 48 -63 65 -63 9 0
15 -9 15 -22 0 -12 7 -30 17 -40 16 -17 9 -18 -200 -18 -210 0 -217 1 -217 20
0 18 -7 20 -80 20 -76 0 -80 -1 -81 -22 -1 -13 -5 2 -10 32 -15 102 20 468 47
483 8 4 14 15 14 22 0 28 27 15 83 -41z m-1313 -14 c0 -10 4 -20 9 -22 5 -1
12 -46 16 -98 7 -107 13 -140 26 -140 5 0 9 -36 9 -80 l0 -80 -30 0 c-22 0
-33 -6 -40 -22 l-9 -23 0 22 c-1 23 -2 23 -121 16 l-120 -6 0 46 0 47 -40 0
c-33 0 -40 3 -40 19 0 11 9 22 19 26 11 3 22 12 25 20 3 8 12 15 21 15 8 0 15
9 15 20 0 12 7 20 16 20 9 0 18 9 21 20 3 11 14 20 24 20 11 0 19 7 19 15 0 8
8 19 18 24 10 5 24 22 32 37 19 37 113 134 122 128 5 -3 8 -14 8 -24z m26
-498 c-13 -12 -17 8 -10 40 l9 33 3 -33 c2 -19 1 -36 -2 -40z m3474 -22 c0 -6
-33 -9 -82 -8 -71 1 -77 2 -38 8 70 11 120 11 120 0z m-2210 -35 c0 -1 -7 -8
-15 -15 -13 -10 -15 -9 -15 8 0 15 5 20 15 16 8 -4 15 -7 15 -9z m-2393 -19
c3 -3 3 -12 -1 -21 -5 -14 -19 -16 -83 -13 -80 3 -106 19 -61 38 23 10 134 7
145 -4z m43 -56 c0 -5 -4 -10 -9 -10 -6 0 -13 5 -16 10 -3 6 1 10 9 10 9 0 16
-4 16 -10z m-240 -20 c0 -5 -18 -10 -40 -10 -22 0 -40 5 -40 10 0 6 18 10 40
10 22 0 40 -4 40 -10z m649 -938 c0 -11 -3 -12 -6 -4 -2 6 -12 12 -21 12 -14
0 -15 2 -2 9 18 12 30 5 29 -17z m31 8 c0 -5 -2 -10 -4 -10 -3 0 -8 5 -11 10
-3 6 -1 10 4 10 6 0 11 -4 11 -10z m-26 -62 c6 -25 4 -28 -19 -26 -14 1 -25 8
-25 15 0 7 7 10 15 7 11 -4 15 0 15 17 0 28 5 23 14 -13z m101 -8 c3 -6 -1
-13 -10 -16 -19 -8 -30 0 -20 15 8 14 22 14 30 1z m-275 -10 c0 -5 -9 -10 -19
-10 -11 0 -23 5 -26 10 -4 6 5 10 19 10 14 0 26 -4 26 -10z m90 0 c0 -5 -4
-10 -9 -10 -6 0 -13 5 -16 10 -3 6 1 10 9 10 9 0 16 -4 16 -10z m390 0 c0 -5
-10 -10 -22 -10 -19 0 -20 2 -8 10 19 13 30 13 30 0z m-81 -47 c0 -11 -3 -13
-6 -5 -2 6 -17 12 -33 12 -16 0 -31 -6 -33 -12 -3 -8 -6 -6 -6 5 -1 13 7 17
39 17 32 0 40 -4 39 -17z m101 -38 c0 -45 0 -45 -34 -45 -19 0 -38 5 -42 12
-5 8 -2 9 9 5 13 -5 17 -1 17 16 1 20 2 20 11 4 14 -24 29 -12 29 24 0 16 2
29 5 29 3 0 5 -20 5 -45z m-222 -7 c17 -17 15 -25 -8 -31 -23 -6 -34 7 -26 28
7 18 18 19 34 3z m-188 -24 c0 -2 -9 -4 -21 -4 -11 0 -18 4 -14 10 5 8 35 3
35 -6z m80 6 c0 -5 -10 -10 -22 -10 -19 0 -20 2 -8 10 19 13 30 13 30 0z m211
-2 c18 11 20 11 17 0 -3 -7 -21 -14 -41 -16 -28 -2 -37 1 -37 12 0 14 3 14 20
4 16 -10 24 -10 41 0z m83 -73 c-4 -8 -1 -15 5 -15 6 0 11 5 11 12 0 6 2 9 5
7 9 -10 -8 -49 -21 -49 -8 0 -14 3 -14 8 0 4 -3 17 -6 30 -5 16 -2 22 10 22
10 0 13 -6 10 -15z m-337 -17 c-3 -8 -6 -5 -6 6 -1 11 2 17 5 13 3 -3 4 -12 1
-19z m146 0 c14 -22 1 -48 -23 -48 -13 0 -20 7 -20 19 0 48 22 63 43 29z
m-293 -32 c0 -11 -19 -15 -25 -6 -3 5 1 10 9 10 9 0 16 -2 16 -4z m115 -6 c-3
-5 -12 -10 -20 -10 -8 0 -17 5 -20 10 -4 6 5 10 20 10 15 0 24 -4 20 -10z m90
0 c-3 -5 -15 -10 -25 -10 -10 0 -22 5 -25 10 -4 6 7 10 25 10 18 0 29 -4 25
-10z m185 0 c0 -5 -7 -10 -15 -10 -8 0 -15 5 -15 10 0 6 7 10 15 10 8 0 15 -4
15 -10z m7 -175 c-1 -30 -6 -55 -12 -55 -23 1 -40 28 -42 68 -2 40 -1 42 27
42 29 0 29 0 27 -55z m33 -3 c0 -7 -4 -10 -10 -7 -5 3 -10 16 -10 28 0 18 2
19 10 7 5 -8 10 -21 10 -28z m-160 -14 c0 -5 -4 -8 -10 -8 -5 0 -10 10 -10 23
0 18 2 19 10 7 5 -8 10 -18 10 -22z m210 12 c0 -5 -2 -10 -4 -10 -3 0 -8 5
-11 10 -3 6 -1 10 4 10 6 0 11 -4 11 -10z m5 -40 c-3 -5 -19 -10 -36 -10 -16
0 -29 5 -29 10 0 6 16 10 36 10 21 0 33 -4 29 -10z m-1747 -235 c8 -8 -311 -5
-330 3 -10 4 60 6 154 4 94 -1 174 -4 176 -7z m218 3 c3 -4 -33 -8 -80 -8 -52
0 -86 4 -86 10 0 13 158 11 166 -2z m-616 -73 c0 -25 -2 -26 -51 -24 -52 3
-65 10 -55 34 4 11 21 15 56 15 47 0 50 -2 50 -25z m240 11 c0 -22 -19 -30
-85 -34 -78 -4 -105 3 -105 28 0 19 7 20 95 20 76 0 95 -3 95 -14z m377 -9
c-6 -18 -147 -25 -164 -9 -23 23 -8 27 82 24 60 -3 85 -7 82 -15z m1103 -16
c0 -34 -9 -44 -27 -30 -9 8 -13 8 -13 1 0 -11 -140 -19 -427 -24 l-153 -3 0
-42 0 -43 69 0 c119 0 191 11 192 29 0 11 3 8 9 -6 11 -27 30 -30 31 -5 1 13
2 14 5 2 9 -31 42 -39 173 -41 l131 -2 0 -79 c0 -43 -3 -78 -7 -78 -5 0 -6 25
-5 55 3 35 0 55 -7 55 -6 0 -11 -19 -11 -44 l0 -44 -232 -7 c-232 -7 -347 -6
-380 2 -15 4 -18 16 -18 84 0 72 2 79 20 79 17 0 20 7 20 39 0 30 -4 40 -20
44 -15 4 -20 14 -20 41 0 20 6 38 14 43 8 4 159 7 335 5 l321 -3 0 -28z
m-1320 14 c0 -11 -12 -15 -42 -16 -70 -2 -85 2 -73 20 3 6 31 11 61 11 41 0
54 -4 54 -15z m458 3 c-3 -9 -33 -13 -103 -13 -70 0 -100 4 -102 13 -4 9 21
12 102 12 81 0 106 -3 103 -12z m162 -33 c0 -38 -3 -45 -20 -45 -16 0 -20 7
-20 30 0 17 -3 29 -7 29 -29 -5 -62 3 -67 16 -4 12 5 15 54 15 l60 0 0 -45z
m868 10 l3 -30 -66 3 c-65 4 -65 4 -65 33 l0 30 63 -3 c61 -3 62 -4 65 -33z
m222 21 c0 -7 -3 -28 -6 -46 -6 -28 -10 -31 -33 -25 -42 10 -81 12 -81 5 0 -4
-11 -7 -24 -7 -19 0 -26 6 -31 29 -11 47 7 58 96 58 60 0 79 -3 79 -14z
m-1252 -188 c-2 -37 -9 -73 -15 -79 -20 -20 -170 -9 -185 13 -4 7 -7 42 -6 78
3 74 -3 69 117 74 44 2 66 7 70 17 9 29 22 -39 19 -103z m-858 2 l0 -78 -55
-4 -55 -3 0 81 c0 44 2 83 4 85 2 2 27 2 55 1 l51 -4 0 -78z m226 24 c9 -48
-3 -107 -21 -100 -8 3 -16 0 -19 -7 -4 -8 -8 -8 -11 -2 -3 7 -28 9 -66 5 -33
-3 -62 -4 -64 -1 -8 7 -5 135 3 148 11 17 112 21 144 5 19 -9 29 -24 34 -48z
m759 52 c16 -11 20 -30 23 -110 4 -91 3 -96 -16 -96 -14 0 -22 8 -24 22 -5 34
-50 32 -59 -2 -4 -14 -7 22 -8 82 -1 103 0 107 22 111 39 8 43 7 62 -7z m-622
-5 l37 -1 0 -74 0 -74 -57 -5 c-32 -2 -59 -3 -61 -2 -7 7 -14 115 -9 137 5 18
13 24 29 22 13 -1 40 -3 61 -3z m236 -5 c12 -8 16 -132 3 -140 -4 -2 -41 -6
-82 -7 l-75 -2 -3 58 c-5 98 -4 100 76 99 38 -1 74 -4 81 -8z m1511 -89 c0
-105 -6 -133 -28 -142 -21 -8 -162 6 -162 16 0 5 37 10 83 11 l82 2 -77 3 -78
4 2 64 c1 36 5 70 9 77 9 14 11 14 75 16 34 2 43 6 49 25 l7 22 8 -25 8 -25 1
28 c1 16 5 26 11 22 6 -3 10 -47 10 -98z m144 61 c9 -36 7 -154 -4 -183 -9
-23 -14 -26 -52 -23 l-43 3 -3 80 c-2 44 0 95 3 113 6 30 8 32 49 32 37 0 45
-4 50 -22z m109 6 l37 -7 0 -103 0 -104 -49 0 c-46 0 -49 1 -55 31 -8 40 -8
153 0 173 7 18 12 19 67 10z m541 -118 c-4 -56 -8 -102 -9 -104 -1 -1 -15 2
-30 8 l-27 10 4 90 c3 74 8 92 24 104 37 27 45 3 38 -108z m101 19 c0 -92 -2
-100 -19 -100 -11 0 -21 -6 -24 -13 -2 -6 -8 -12 -13 -12 -11 0 -12 213 -2
224 4 4 19 6 33 4 25 -3 25 -3 25 -103z m139 89 c3 -9 6 -51 6 -94 0 -68 -3
-81 -20 -93 -22 -15 -69 -11 -75 7 -2 6 -5 53 -7 104 l-3 92 46 0 c34 0 49 -5
53 -16z m-1291 -36 c10 -33 -5 -48 -49 -48 -57 0 -58 19 -1 22 l42 1 -42 4
c-29 3 -43 9 -43 19 0 18 86 20 93 2z m24 -30 c-3 -7 -5 -2 -5 12 0 14 2 19 5
13 2 -7 2 -19 0 -25z m0 -80 c-2 -13 -4 -3 -4 22 0 25 2 35 4 23 2 -13 2 -33
0 -45z m3 -39 c0 -5 -27 -9 -60 -9 -68 0 -82 17 -17 22 50 4 77 -1 77 -13z
m-200 2 c0 -5 -10 -11 -22 -15 -33 -8 -543 -7 -534 1 4 4 114 10 244 13 130 4
254 7 275 8 20 1 37 -2 37 -7z m1328 -208 l-3 -138 -32 -3 -33 -3 0 145 c0 90
4 146 10 147 6 1 14 2 19 3 5 0 13 5 17 9 18 18 24 -30 22 -160z m143 145 c17
-19 39 -155 39 -240 0 -52 -8 -58 -73 -58 -46 0 -76 13 -58 24 6 4 15 5 20 1
5 -3 13 0 16 5 10 17 -4 60 -19 60 -21 0 -26 23 -26 121 0 72 3 89 15 89 12 0
15 -16 15 -84 0 -47 3 -87 8 -89 4 -3 5 33 3 79 -1 46 -1 90 2 97 7 20 39 17
58 -5z m-251 -154 l0 -124 -49 0 c-57 0 -61 6 -50 75 l8 50 -2 -47 -2 -48 35
0 36 0 -10 82 c-7 61 -6 83 2 86 7 2 12 17 12 33 0 18 4 28 10 24 6 -4 10 -58
10 -131z m-2052 56 c1 -30 -1 -82 -5 -115 l-8 -60 -59 0 -59 0 -3 85 c-1 47 0
100 3 118 l6 34 61 -4 61 -4 3 -54z m-288 39 c0 -8 4 -9 13 0 21 17 27 3 27
-63 0 -50 -4 -63 -20 -74 -14 -8 -20 -23 -20 -47 0 -34 -1 -35 -39 -35 -35 0
-39 3 -45 31 -8 40 -8 147 0 177 5 18 13 22 45 22 22 0 39 -5 39 -11z m426
-19 c11 0 14 -17 14 -77 0 -85 -11 -116 -32 -95 -9 9 -9 12 4 12 11 0 15 6 11
21 -4 16 -8 17 -14 7 -5 -7 -8 24 -8 77 1 50 3 82 6 73 2 -10 11 -18 19 -18z
m416 -67 c-3 -78 -7 -93 -20 -94 -13 0 -13 -2 3 -9 50 -22 55 -16 55 70 l0 80
44 0 c49 0 101 -16 128 -39 22 -19 26 -111 6 -111 -23 0 16 -20 40 -20 18 0
22 5 22 34 0 62 13 156 21 156 5 0 9 -42 9 -94 0 -89 -1 -94 -22 -100 -56 -15
-172 -18 -401 -11 l-247 7 0 95 0 95 40 -4 c22 -2 41 1 43 7 2 5 7 -26 12 -70
5 -55 4 -80 -4 -83 -6 -2 -11 -10 -11 -18 0 -10 12 -14 40 -14 l40 0 0 95 0
95 94 0 c78 0 95 3 100 16 11 28 12 13 8 -83z m-1097 77 c3 -5 15 -6 28 -1 14
6 30 5 41 -1 16 -9 17 -19 11 -87 -4 -42 -8 -85 -9 -95 -1 -17 -9 -20 -53 -22
l-53 -2 0 103 c0 56 3 105 7 108 9 10 21 9 28 -3z m1781 -5 c12 -11 13 -33 8
-110 l-7 -95 -83 0 -84 0 0 100 0 100 40 0 c29 0 40 -4 40 -15 0 -22 21 -18
27 4 3 11 12 22 22 24 9 3 17 5 19 6 2 0 10 -6 18 -14z m145 4 c18 -9 20 -19
18 -110 l-2 -99 -46 0 -46 0 3 102 c2 65 8 105 15 110 17 11 35 10 58 -3z
m-2103 -15 c18 -5 15 -31 -5 -38 -37 -14 -100 24 -77 47 6 5 51 1 82 -9z m549
-56 c-2 -13 -4 -3 -4 22 0 25 2 35 4 23 2 -13 2 -33 0 -45z m493 22 c0 -22 -4
-40 -10 -40 -5 0 -10 18 -10 40 0 22 5 40 10 40 6 0 10 -18 10 -40z m680 0 c0
-22 5 -40 10 -40 6 0 10 -27 10 -60 l0 -60 -55 0 c-30 0 -55 3 -56 8 0 4 -2
16 -5 27 -2 11 -1 53 2 93 l6 72 44 0 44 0 0 -40z m500 0 c0 -23 -5 -40 -11
-40 -6 0 -9 -7 -5 -15 6 -17 -13 -65 -26 -65 -4 0 -8 36 -8 80 0 79 0 80 25
80 23 0 25 -4 25 -40z m-2223 -97 l1 -73 -31 5 c-18 2 -38 4 -44 4 -17 1 -17
83 -1 99 10 10 10 15 -1 22 -11 6 -7 9 15 13 58 9 59 7 61 -70z m820 35 c-3
-8 -6 -5 -6 6 -1 11 2 17 5 13 3 -3 4 -12 1 -19z m-347 -67 c0 -6 -4 -13 -10
-16 -5 -3 -10 1 -10 9 0 9 5 16 10 16 6 0 10 -4 10 -9z m1775 -22 c5 -5 -8 -9
-33 -9 -32 0 -42 4 -42 16 0 12 7 14 33 9 17 -4 36 -11 42 -16z m-10 -1839
c-28 -12 -45 -12 -45 0 0 6 15 10 33 9 27 0 29 -2 12 -9z"/>
<path d="M4738 2743 c12 -2 32 -2 45 0 12 2 2 4 -23 4 -25 0 -35 -2 -22 -4z"/>
<path d="M4898 2743 c12 -2 32 -2 45 0 12 2 2 4 -23 4 -25 0 -35 -2 -22 -4z"/>
<path d="M5458 2633 c12 -2 32 -2 45 0 12 2 2 4 -23 4 -25 0 -35 -2 -22 -4z"/>
<path d="M3600 2358 c-3 -26 -1 -43 3 -39 5 5 7 26 5 47 l-3 39 -5 -47z"/>
<path d="M3363 2360 c0 -25 2 -35 4 -22 2 12 2 32 0 45 -2 12 -4 2 -4 -23z"/>
<path d="M3011 6963 c-1 -47 3 -75 12 -80 6 -4 18 -20 26 -35 8 -16 38 -53 68
-84 29 -31 53 -61 53 -66 0 -5 -19 -8 -42 -6 -41 3 -43 2 -41 -23 l1 -27 -24
25 c-28 28 -31 43 -8 43 9 0 14 7 12 17 -4 22 -28 29 -28 9 0 -9 -7 -16 -15
-16 -23 0 -21 -132 2 -151 9 -8 18 -13 20 -11 2 1 22 -19 44 -45 88 -104 98
-113 125 -113 25 0 26 2 20 33 -3 17 -14 37 -23 44 -18 14 -21 45 -10 113 3
25 3 34 -1 20 -7 -22 -9 -23 -15 -7 -11 30 -8 37 18 37 14 0 29 -8 35 -20 6
-11 17 -20 25 -20 9 0 15 -10 15 -25 0 -22 4 -25 34 -25 88 0 89 36 4 128 -34
37 -67 73 -73 80 -5 7 -18 22 -27 33 -10 10 -18 22 -18 25 0 10 -58 64 -69 64
-6 0 -11 6 -11 13 0 6 -19 33 -43 58 -23 25 -47 54 -54 65 -10 16 -12 7 -12
-53z m129 -335 c0 -7 -5 -20 -10 -28 -8 -12 -10 -9 -10 13 0 15 5 27 10 27 6
0 10 -6 10 -12z"/>
<path d="M5760 6966 c0 -19 64 -30 92 -15 22 12 22 12 3 20 -35 13 -95 10 -95
-5z"/>
<path d="M8583 6924 c-16 -12 -16 -15 -3 -23 17 -11 89 -4 105 11 27 25 -70
36 -102 12z"/>
<path d="M3032 6805 c-9 -11 -10 -20 -3 -33 9 -15 10 -15 11 6 0 12 5 22 10
22 6 0 10 5 10 10 0 14 -13 12 -28 -5z"/>
<path d="M3060 6490 c0 -5 5 -10 11 -10 5 0 7 5 4 10 -3 6 -8 10 -11 10 -2 0
-4 -4 -4 -10z"/>
<path d="M7201 5934 c0 -11 3 -14 6 -6 3 7 2 16 -1 19 -3 4 -6 -2 -5 -13z"/>
<path d="M9333 4963 c31 -2 83 -2 115 0 31 2 5 3 -58 3 -63 0 -89 -1 -57 -3z"/>
<path d="M5258 4713 c34 -2 90 -2 125 0 34 2 6 3 -63 3 -69 0 -97 -1 -62 -3z"/>
<path d="M5680 4710 c0 -5 18 -10 40 -10 22 0 40 5 40 10 0 6 -18 10 -40 10
-22 0 -40 -4 -40 -10z"/>
<path d="M7063 4673 c-27 -5 -30 -20 -5 -26 13 -4 11 -5 -5 -6 -23 -1 -29 -16
-15 -37 7 -12 264 -25 281 -15 5 3 11 22 12 41 l4 35 -75 6 c-87 7 -166 8
-197 2z"/>
<path d="M8192 4626 l1 -45 51 -6 c28 -3 102 -5 165 -3 l114 3 2 40 c1 22 -3
43 -9 47 -6 4 -82 8 -169 8 l-157 0 2 -44z"/>
<path d="M9368 4605 l4 -45 64 0 64 0 0 45 0 45 -68 0 -67 0 3 -45z"/>
<path d="M3022 4308 c-9 -9 -12 -147 -12 -560 l0 -548 373 -1 c204 0 518 -1
697 -2 179 -1 305 1 280 4 l-45 6 39 1 c30 2 47 10 73 37 19 19 43 35 54 35
18 0 19 2 6 14 -9 9 -47 17 -101 22 -93 7 -119 21 -114 58 3 20 7 21 138 18
74 -1 154 -5 178 -8 33 -4 43 -2 49 11 11 29 -17 35 -169 35 -81 0 -149 3
-151 8 -3 4 61 6 143 4 125 -3 148 -1 153 12 11 28 -29 37 -166 36 -72 -1
-138 -1 -145 -1 -11 1 -12 60 -7 324 4 210 3 327 -4 337 -10 15 -107 28 -212
29 l-55 1 4 52 c2 40 -1 55 -13 64 -26 19 -73 -13 -85 -58 -10 -34 -14 -37
-66 -48 -30 -7 -74 -9 -97 -6 -23 4 -163 6 -310 6 -191 -1 -273 2 -283 11 -10
8 -18 8 -27 1 -7 -6 -23 -8 -36 -5 -22 5 -23 10 -19 64 l4 59 -31 0 c-17 0
-36 -5 -43 -12z m1237 -182 c8 -9 10 -92 6 -292 -4 -154 -8 -294 -11 -311 l-5
-33 -125 0 -126 0 6 28 c3 15 8 158 12 317 3 160 8 293 11 298 2 4 53 7 112 7
80 0 112 -4 120 -14z m-1011 -28 c-5 -15 -60 -16 -65 -2 -2 6 13 11 32 12 24
1 35 -3 33 -10z m207 -3 c0 -5 -21 -11 -47 -13 -39 -3 -48 0 -48 13 0 13 9 16
48 13 26 -2 47 -7 47 -13z m225 0 c0 -12 -14 -14 -70 -13 -57 1 -68 3 -59 15
17 19 129 18 129 -2z m160 1 c0 -9 -15 -15 -46 -18 -47 -3 -67 7 -43 23 23 15
89 11 89 -5z m123 -107 c-5 -18 -23 -27 -23 -11 1 25 14 52 20 42 4 -7 5 -21
3 -31z m3 -306 c-4 -135 -7 -159 -22 -170 -20 -15 -104 -18 -104 -4 0 5 -10
11 -22 13 l-23 3 23 20 c12 11 22 27 22 37 0 12 8 18 21 18 17 0 20 5 16 21
-4 15 0 23 14 26 23 6 63 68 56 87 -5 14 11 106 19 106 3 0 2 -71 0 -157z
m-606 -43 c0 -5 -5 -10 -11 -10 -5 0 -7 5 -4 10 3 6 8 10 11 10 2 0 4 -4 4
-10z m400 -105 c0 -9 -9 -15 -22 -15 -22 1 -23 1 -4 15 25 19 26 19 26 0z
m-17 -32 c-13 -2 -33 -2 -45 0 -13 2 -3 4 22 4 25 0 35 -2 23 -4z"/>
<path d="M4820 3985 c-22 -13 -23 -14 -5 -15 30 0 65 11 65 21 0 13 -32 10
-60 -6z"/>
<path d="M4890 3990 c0 -5 7 -10 15 -10 8 0 15 5 15 10 0 6 -7 10 -15 10 -8 0
-15 -4 -15 -10z"/>
<path d="M4945 3990 c-3 -5 1 -10 9 -10 8 0 18 5 21 10 3 6 -1 10 -9 10 -8 0
-18 -4 -21 -10z"/>
<path d="M5000 3990 c0 -5 7 -10 15 -10 8 0 15 5 15 10 0 6 -7 10 -15 10 -8 0
-15 -4 -15 -10z"/>
<path d="M5055 3990 c-20 -8 -20 -9 1 -9 12 -1 50 -3 85 -6 61 -4 62 -4 14 4
-27 5 -57 11 -65 14 -8 3 -24 2 -35 -3z"/>
<path d="M5245 3980 c-3 -5 3 -10 14 -10 12 0 21 5 21 10 0 6 -6 10 -14 10 -8
0 -18 -4 -21 -10z"/>
<path d="M5295 3980 c4 -6 11 -8 16 -5 14 9 11 15 -7 15 -8 0 -12 -5 -9 -10z"/>
<path d="M8263 3763 c-8 -19 -9 -159 -6 -718 1 -214 -2 -412 -6 -440 l-8 -50
-2 71 c-2 129 -46 162 -216 163 -169 1 -174 -7 -187 -269 -11 -239 -12 -244
-68 -250 -38 -4 -45 -9 -51 -33 -16 -58 -27 -56 369 -73 140 -6 152 -8 152
-25 0 -15 8 -19 40 -19 22 0 40 -4 40 -9 0 -5 36 -12 80 -16 44 -4 80 -11 80
-16 0 -5 18 -9 40 -9 22 0 40 -4 40 -10 0 -5 18 -10 40 -10 29 0 40 4 40 15 0
11 11 15 40 15 27 0 40 4 40 13 0 11 29 15 117 20 66 4 119 11 121 17 2 5 21
10 43 10 21 0 40 3 40 8 7 42 9 83 9 252 0 107 -2 350 -6 540 -3 219 -2 340 4
331 7 -9 12 -10 16 -2 4 6 14 11 22 11 12 0 14 -27 14 -155 0 -95 -4 -164 -12
-180 -9 -20 -8 -31 3 -52 10 -22 14 -103 17 -363 2 -184 4 -343 4 -352 -1 -14
8 -18 41 -18 23 0 85 -3 137 -6 52 -2 121 -2 153 2 l57 6 0 104 0 104 -27 -6
c-16 -4 -29 -11 -31 -16 -2 -4 -21 -8 -43 -8 -39 0 -39 0 -39 -40 l0 -40 -78
0 c-67 0 -79 3 -90 21 -9 14 -10 24 -3 33 13 15 13 646 0 646 -5 0 -9 168 -9
404 l0 404 -22 6 c-13 3 -218 6 -456 6 -399 0 -433 -1 -439 -17z m687 -732 c0
-17 -18 -21 -24 -6 -3 9 0 15 9 15 8 0 15 -4 15 -9z m-640 -235 c0 -3 -4 -8
-10 -11 -5 -3 -10 -1 -10 4 0 6 5 11 10 11 6 0 10 -2 10 -4z m867 -278 c-2
-24 -4 -5 -4 42 0 47 2 66 4 43 2 -24 2 -62 0 -85z m-1288 -123 l2 -125 -27 0
c-22 0 -25 3 -21 23 3 12 9 68 13 125 5 72 10 102 19 102 10 0 13 -31 14 -125z
m316 -22 c-5 -99 -10 -119 -21 -89 -4 10 -10 13 -13 8 -3 -5 -63 -11 -133 -14
l-127 -5 3 36 c2 20 4 51 5 69 1 27 5 32 24 31 18 -1 19 -2 3 -6 -16 -4 -13
-10 20 -44 31 -32 45 -39 76 -39 31 0 38 4 38 20 0 17 7 20 40 20 36 0 40 3
40 25 0 18 -7 26 -25 31 -14 3 -25 9 -25 13 0 6 74 38 92 40 4 1 5 -42 3 -96z
m982 -35 c-2 -13 -4 -3 -4 22 0 25 2 35 4 23 2 -13 2 -33 0 -45z"/>
<path d="M8038 2303 c23 -2 61 -2 85 0 23 2 4 4 -43 4 -47 0 -66 -2 -42 -4z"/>
<path d="M7956 3218 c-3 -7 -4 -42 -3 -78 l2 -65 68 -3 68 -3 -3 78 -3 78 -63
3 c-44 2 -63 -1 -66 -10z m124 -58 c0 -5 -25 -10 -55 -10 -30 0 -55 5 -55 10
0 6 25 10 55 10 30 0 55 -4 55 -10z"/>
<path d="M7899 3180 c-4 -42 -1 -64 9 -68 8 -2 12 10 12 37 0 23 -4 41 -10 41
-5 0 -10 -4 -11 -10z"/>
<path d="M3010 3161 c0 -21 0 -21 455 -21 258 0 455 4 455 9 0 5 -111 12 -247
15 -137 3 -341 9 -455 12 -206 6 -208 6 -208 -15z"/>
<path d="M7613 3000 c0 -25 2 -35 4 -22 2 12 2 32 0 45 -2 12 -4 2 -4 -23z"/>
<path d="M9354 2450 c-6 -6 -8 -29 -5 -53 5 -35 10 -43 30 -45 16 -3 31 4 45
21 12 13 28 26 36 30 9 3 10 6 3 6 -18 1 -16 21 2 21 31 0 14 18 -22 24 -54 8
-78 7 -89 -4z"/>
<path d="M6912 2273 c-28 -4 -32 -7 -27 -26 4 -12 9 -29 11 -38 6 -20 33 -26
97 -21 l47 4 0 39 c0 38 -1 39 -34 39 -19 0 -40 2 -48 3 -7 2 -28 2 -46 0z"/>
<path d="M7085 2220 c-8 -13 98 -20 332 -20 220 0 263 3 263 19 0 9 -589 10
-595 1z"/>
<path d="M9070 2215 c0 -8 5 -15 10 -15 6 0 10 7 10 15 0 8 -4 15 -10 15 -5 0
-10 -7 -10 -15z"/>
<path d="M8930 969 c-8 -15 -10 -121 -4 -375 l7 -354 283 0 284 0 0 90 c0 63
-4 91 -13 97 -33 20 -47 58 -47 130 0 78 13 119 40 128 11 4 17 17 18 38 1 28
-1 30 -12 15 -20 -27 -25 -22 -19 20 3 24 0 50 -9 66 -14 26 -16 27 -31 11
-23 -22 -21 -35 4 -35 19 0 20 -4 15 -35 -4 -19 -2 -45 4 -57 11 -22 10 -22
-4 -4 -9 11 -16 31 -16 44 0 18 -4 23 -16 18 -11 -4 -18 1 -21 14 -3 11 -9 20
-14 20 -5 0 -9 12 -9 26 0 14 -3 23 -7 21 -5 -3 -44 -2 -88 3 -64 6 -71 8 -35
10 l45 3 -45 7 -45 7 43 1 42 2 0 40 0 39 113 4 c109 3 107 3 -43 6 -107 3
-141 6 -110 11 28 4 -20 8 -127 8 -165 2 -173 1 -183 -19z m22 -254 c3 -138 2
-200 -2 -145 -8 99 -13 396 -6 389 2 -2 5 -112 8 -244z m374 113 c27 -9 37
-21 49 -57 19 -57 20 -131 1 -131 -7 0 -16 -8 -19 -19 -6 -25 -58 -49 -95 -43
-38 5 -85 -5 -77 -17 8 -14 9 -114 1 -139 -8 -25 -31 -29 -39 -8 -5 11 -11
376 -8 419 1 12 152 8 187 -5z"/>
<path d="M9190 710 l0 -90 39 0 c63 0 89 14 100 55 12 45 7 76 -16 92 -10 7
-23 17 -30 23 -7 5 -30 10 -53 10 l-40 0 0 -90z"/>
<path d="M9328 873 c6 -2 18 -2 25 0 6 3 1 5 -13 5 -14 0 -19 -2 -12 -5z"/>
<path d="M9370 870 c0 -5 5 -10 10 -10 6 0 10 5 10 10 0 6 -4 10 -10 10 -5 0
-10 -4 -10 -10z"/>
<path d="M9460 874 c0 -9 31 -37 36 -32 9 9 -8 38 -22 38 -8 0 -14 -3 -14 -6z"/>
<path d="M9487 603 c-11 -10 -8 -71 3 -78 6 -4 10 12 10 39 0 47 -2 51 -13 39z"/>
<path d="M5778 403 c12 -2 32 -2 45 0 12 2 2 4 -23 4 -25 0 -35 -2 -22 -4z"/>
<path d="M6800 280 l0 -40 -40 0 -40 0 0 -80 0 -80 -30 0 c-28 0 -30 -2 -30
-40 l0 -40 160 0 160 0 0 40 c0 22 -4 40 -10 40 -5 0 -10 7 -10 15 0 18 -47
65 -65 65 -12 0 -15 17 -15 80 l0 80 -40 0 -40 0 0 -40z"/>
<path d="M5440 120 c0 -5 -17 -10 -39 -10 -42 0 -51 -13 -51 -77 l0 -33 165 0
165 0 0 55 0 55 -40 0 c-22 0 -40 5 -40 10 0 6 -33 10 -80 10 -47 0 -80 -4
-80 -10z"/>
<path d="M5778 83 c12 -2 32 -2 45 0 12 2 2 4 -23 4 -25 0 -35 -2 -22 -4z"/>
</g>
</svg>
