<?xml version="1.0" standalone="no"?>
<!DOCTYPE svg PUBLIC "-//W3C//DTD SVG 20010904//EN"
 "http://www.w3.org/TR/2001/REC-SVG-20010904/DTD/svg10.dtd">
<svg version="1.0" xmlns="http://www.w3.org/2000/svg"
 width="1280.000000pt" height="720.000000pt" viewBox="0 0 1280.000000 720.000000"
 preserveAspectRatio="xMidYMid meet">
<metadata>
Created by potrace 1.16, written by Peter Selinger 2001-2019
</metadata>
<g transform="translate(0.000000,720.000000) scale(0.100000,-0.100000)"
fill="#000000" stroke="none">
<path d="M6236 7166 c-76 -18 -105 -63 -97 -153 1 -17 -4 -23 -19 -23 -11 0
-20 -7 -20 -15 0 -8 -4 -15 -10 -15 -5 0 -10 -8 -10 -17 0 -10 -14 -45 -30
-77 -25 -49 -30 -71 -30 -132 0 -72 -17 -163 -32 -175 -5 -3 -11 -54 -14 -115
-11 -207 -75 -437 -146 -518 -23 -26 -53 -53 -68 -61 -15 -8 -31 -26 -34 -39
-4 -16 -16 -28 -31 -32 -14 -3 -25 -12 -25 -20 0 -8 -8 -14 -18 -14 -9 0 -22
-8 -27 -19 -46 -86 -85 -175 -85 -191 0 -10 -4 -22 -10 -25 -5 -3 -10 -24 -10
-46 0 -21 -4 -39 -8 -39 -9 0 -72 -129 -72 -148 0 -6 -4 -12 -9 -12 -5 0 -20
-17 -32 -37 -13 -21 -27 -39 -31 -41 -4 -2 -8 -10 -8 -19 0 -17 -59 -103 -72
-103 -4 0 -8 -8 -8 -19 0 -10 -20 -36 -45 -57 -59 -51 -261 -252 -302 -300
-18 -21 -33 -44 -33 -51 0 -7 -9 -13 -20 -13 -11 0 -20 -6 -20 -13 0 -7 -25
-38 -55 -70 -30 -31 -55 -62 -55 -67 0 -6 -4 -10 -9 -10 -11 0 -151 -142 -151
-152 0 -5 -7 -8 -15 -8 -8 0 -15 -5 -15 -11 0 -6 -13 -24 -29 -40 -26 -25 -37
-29 -88 -29 -33 0 -64 5 -70 11 -6 6 -39 13 -73 16 -84 8 -129 -13 -122 -58 2
-16 0 -29 -6 -29 -13 0 -10 -23 5 -41 6 -8 18 -32 27 -54 16 -38 67 -95 86
-95 5 0 15 6 22 13 7 8 49 18 93 24 83 12 155 32 155 45 0 5 7 8 15 8 8 0 15
4 15 9 0 5 10 13 22 17 12 3 33 17 47 30 14 13 33 24 41 24 8 1 33 19 55 40
22 22 47 40 56 40 9 0 22 7 29 15 7 8 19 15 26 15 8 0 14 7 14 15 0 8 7 15 15
15 8 0 15 5 15 10 0 6 11 10 25 10 15 0 25 6 25 14 0 7 8 17 18 20 32 13 62
31 62 38 0 5 6 8 13 8 7 0 18 9 25 20 7 11 17 20 23 20 6 0 23 10 38 23 15 12
40 31 56 42 15 11 35 28 44 38 8 9 19 17 24 17 5 0 26 18 47 40 21 22 43 40
49 40 17 0 80 73 81 93 0 10 8 17 20 17 11 0 20 7 20 15 0 9 14 30 30 49 38
41 105 144 145 219 16 31 39 68 51 82 12 14 27 39 34 55 7 17 16 30 20 30 4 0
11 12 14 26 4 15 14 33 22 41 13 14 17 13 29 -3 8 -11 19 -50 25 -89 6 -38 16
-88 22 -110 6 -22 10 -58 10 -80 -1 -22 -3 -80 -4 -130 -2 -60 -10 -113 -26
-159 -12 -37 -22 -89 -22 -115 0 -49 -28 -161 -54 -213 -9 -17 -16 -36 -16
-41 0 -6 -12 -35 -26 -66 -46 -99 -52 -115 -69 -186 -9 -38 -21 -75 -26 -81
-11 -14 -17 -37 -28 -111 -6 -41 -18 -65 -62 -120 -69 -86 -89 -117 -89 -142
0 -11 -4 -23 -10 -26 -5 -3 -10 -20 -10 -37 0 -16 -18 -68 -40 -115 -22 -47
-40 -96 -40 -109 0 -12 -13 -56 -30 -97 -16 -42 -30 -83 -30 -91 0 -20 -21
-58 -38 -69 -13 -9 -42 -71 -42 -93 0 -46 153 -152 252 -174 50 -11 57 -16 62
-43 9 -46 7 -324 -3 -412 -6 -44 -12 -111 -15 -150 -2 -38 -12 -92 -21 -120
-20 -55 -24 -250 -12 -565 3 -91 9 -253 13 -360 7 -208 -1 -280 -33 -280 -9 0
-21 -7 -27 -15 -6 -8 -42 -26 -81 -41 -55 -21 -87 -26 -149 -26 -43 0 -82 5
-85 10 -17 28 -151 -34 -151 -70 0 -49 38 -77 159 -118 101 -34 468 -61 595
-44 l46 7 0 181 c0 100 4 186 9 191 4 6 14 60 20 120 7 61 17 127 22 148 18
71 29 174 53 537 13 201 27 372 31 382 3 9 15 18 26 21 18 5 19 14 18 99 0 51
4 106 10 121 6 16 11 44 11 62 0 19 9 52 20 73 16 31 20 52 16 100 -4 60 -4
61 24 67 16 3 54 1 86 -4 32 -6 108 -11 170 -11 86 0 114 -3 124 -15 14 -17 9
-80 -13 -145 -26 -79 -47 -177 -47 -218 0 -23 -5 -53 -11 -69 -7 -15 -13 -55
-13 -88 -2 -76 -59 -295 -76 -295 -4 0 -10 -21 -13 -47 -7 -64 -27 -190 -37
-233 -9 -37 -28 -181 -36 -265 -3 -27 -9 -59 -13 -70 -5 -11 -16 -82 -24 -158
-10 -85 -22 -148 -31 -163 -9 -13 -16 -39 -16 -58 0 -19 -6 -39 -14 -43 -52
-31 -50 -145 4 -183 31 -22 133 -59 163 -60 10 0 22 -11 27 -24 11 -29 65 -71
102 -80 14 -3 40 -18 57 -32 29 -24 37 -26 153 -27 68 0 133 2 145 7 31 10 37
40 18 84 -13 30 -26 41 -59 53 -30 11 -49 12 -64 6 -26 -12 -112 11 -112 30 0
7 -4 13 -10 13 -5 0 -10 7 -10 17 0 20 -58 113 -71 113 -5 0 -9 11 -9 25 0 14
-4 25 -10 25 -5 0 -10 6 -10 14 0 8 -5 16 -11 18 -15 5 -14 151 0 156 6 2 11
8 11 13 0 5 9 28 20 52 21 45 39 95 71 195 12 34 24 62 29 62 4 0 10 13 13 30
4 16 16 49 27 72 11 23 20 53 20 67 0 23 23 91 77 236 9 22 21 63 28 90 7 28
20 75 28 105 9 30 20 104 26 164 8 88 14 112 31 131 18 19 22 35 22 91 0 41 8
91 19 124 10 30 19 61 19 70 0 8 9 32 20 53 11 20 20 46 20 57 0 12 10 34 22
50 21 29 25 30 99 30 42 0 91 3 108 6 27 6 31 11 31 38 0 17 3 48 6 69 6 34 9
37 40 37 41 0 41 -8 14 200 -28 221 -25 303 13 335 26 21 77 118 77 145 0 16
5 32 10 35 6 3 10 49 10 101 0 53 5 105 11 117 9 16 9 22 0 25 -15 5 -14 23 2
19 8 -1 11 12 10 48 -2 28 4 107 13 177 9 77 16 220 17 370 1 204 -1 253 -16
304 -9 34 -17 74 -17 88 0 14 -4 26 -9 26 -4 0 -5 19 0 43 14 71 11 127 -6
127 -12 0 -15 15 -15 79 0 51 -4 81 -11 83 -8 3 -13 60 -16 183 -3 178 -16
304 -34 337 -5 10 -9 40 -9 68 0 27 -3 50 -7 50 -5 0 -9 15 -10 33 -3 68 -28
131 -68 174 -22 23 -39 46 -37 52 4 13 -21 61 -79 149 -37 57 -52 92 -69 165
-12 50 -30 106 -39 122 -10 17 -31 83 -47 148 -15 64 -31 117 -36 117 -4 0 -8
9 -8 20 0 30 -53 140 -67 140 -7 0 -13 6 -13 13 0 13 -47 70 -117 143 -24 25
-43 47 -43 49 0 13 -59 63 -92 78 -42 20 -155 21 -232 3z m353 -283 c53 -53
86 -152 71 -217 -12 -55 -25 -65 -51 -37 -19 21 -21 30 -15 95 5 61 3 81 -14
120 -27 64 -25 72 9 39z m402 -1860 c0 -5 4 -55 9 -113 4 -58 13 -130 18 -160
39 -205 52 -292 52 -338 0 -29 11 -87 24 -130 14 -42 32 -102 42 -132 9 -30
21 -91 26 -135 5 -44 11 -98 14 -120 5 -40 -8 -76 -22 -62 -8 8 -20 71 -33
182 -11 85 -40 195 -65 247 -9 17 -16 44 -16 60 0 16 -7 39 -16 53 -11 17 -14
36 -9 67 6 41 -17 216 -31 239 -8 13 -32 320 -26 337 4 13 32 17 33 5z"/>
<path d="M7310 4815 c0 -8 5 -15 10 -15 6 0 10 7 10 15 0 8 -4 15 -10 15 -5 0
-10 -7 -10 -15z"/>
</g>
</svg>
