<?xml version="1.0" standalone="no"?>
<!DOCTYPE svg PUBLIC "-//W3C//DTD SVG 20010904//EN"
 "http://www.w3.org/TR/2001/REC-SVG-20010904/DTD/svg10.dtd">
<svg version="1.0" xmlns="http://www.w3.org/2000/svg"
 width="1280.000000pt" height="720.000000pt" viewBox="0 0 1280.000000 720.000000"
 preserveAspectRatio="xMidYMid meet">
<metadata>
Created by potrace 1.16, written by Peter Selinger 2001-2019
</metadata>
<g transform="translate(0.000000,720.000000) scale(0.100000,-0.100000)"
fill="#000000" stroke="none">
<path d="M6207 7121 c-21 -23 -40 -55 -43 -71 -4 -16 -12 -31 -19 -34 -17 -6
-65 -94 -65 -117 0 -11 -6 -19 -14 -19 -15 0 -66 -106 -66 -138 0 -11 -4 -22
-9 -24 -18 -7 -63 -224 -68 -333 -3 -60 -9 -114 -13 -120 -4 -5 -11 -26 -15
-45 -7 -37 -52 -128 -71 -145 -6 -5 -17 -25 -24 -42 -7 -18 -16 -33 -20 -33
-4 0 -15 -18 -25 -40 -10 -22 -22 -40 -27 -40 -5 0 -13 -10 -18 -22 -6 -13
-14 -30 -19 -38 -5 -8 -12 -22 -16 -30 -8 -20 -26 -49 -52 -87 -13 -17 -23
-38 -23 -47 0 -9 -4 -16 -8 -16 -5 0 -15 -18 -22 -40 -7 -22 -17 -40 -22 -40
-4 0 -8 -33 -8 -72 -1 -40 -7 -93 -14 -118 -14 -51 -47 -123 -58 -128 -5 -2
-8 -10 -8 -18 0 -8 -4 -14 -10 -14 -5 0 -10 -11 -10 -25 0 -14 -4 -25 -8 -25
-4 0 -14 -16 -21 -36 -7 -20 -21 -45 -30 -55 -9 -11 -18 -31 -21 -46 -3 -18
-13 -29 -31 -34 -31 -8 -89 -57 -89 -74 0 -7 -25 -36 -55 -64 -30 -29 -55 -56
-55 -61 0 -6 -15 -17 -32 -25 -57 -27 -118 -66 -118 -76 0 -5 -6 -9 -14 -9 -8
0 -16 -3 -18 -8 -1 -4 -32 -27 -68 -51 -36 -24 -86 -63 -112 -87 -44 -41 -51
-44 -103 -44 -31 0 -68 6 -83 14 -15 7 -44 16 -64 20 -21 4 -38 11 -38 16 0 6
-15 10 -34 10 -46 0 -96 19 -96 37 0 12 -9 14 -37 11 -21 -3 -46 -8 -55 -12
-13 -6 -18 -4 -18 8 0 12 -10 16 -42 16 -43 0 -43 0 -18 -15 14 -8 33 -18 43
-21 9 -3 17 -10 17 -14 0 -5 18 -11 40 -15 22 -4 40 -11 40 -16 0 -5 7 -9 15
-9 8 0 15 -5 15 -10 0 -6 29 -24 65 -41 36 -17 65 -34 65 -38 0 -5 27 -14 60
-21 70 -15 161 -8 195 14 14 9 46 16 74 16 28 0 76 7 108 16 32 8 81 22 108
29 106 29 140 40 145 46 3 4 29 17 58 29 28 12 52 26 52 31 0 5 11 9 25 9 42
0 107 39 158 94 49 52 142 179 167 228 7 15 37 56 67 90 29 35 63 84 74 110
44 98 67 58 76 -132 4 -86 0 -168 -11 -265 -16 -138 -20 -155 -57 -266 -11
-31 -19 -66 -19 -78 0 -11 -4 -21 -8 -21 -5 0 -14 -15 -19 -32 -6 -18 -29 -73
-51 -123 -40 -91 -82 -239 -82 -287 0 -14 -4 -28 -10 -30 -14 -4 -43 -155 -37
-188 3 -15 2 -31 -3 -36 -5 -5 -11 -79 -13 -164 -3 -148 -26 -361 -48 -443 -6
-21 -9 -69 -8 -105 1 -37 -2 -95 -6 -129 -6 -45 -5 -63 4 -63 17 0 14 -127 -5
-200 -11 -42 -14 -80 -9 -119 5 -43 1 -80 -19 -160 -14 -57 -26 -112 -26 -123
0 -10 -4 -26 -9 -36 -5 -9 -17 -69 -27 -132 -16 -94 -19 -173 -19 -435 0 -176
2 -404 5 -506 l5 -187 -38 -36 c-21 -20 -43 -36 -48 -36 -5 0 -9 -6 -9 -14 0
-29 -220 -28 -239 1 -3 6 -28 12 -54 15 -36 4 -53 1 -69 -11 -18 -15 -19 -20
-8 -42 23 -44 127 -136 162 -142 181 -35 276 -67 261 -90 -12 -19 25 -27 135
-27 134 0 125 -10 137 160 14 184 12 220 -7 234 -25 18 -22 25 9 23 30 -2 26
-14 57 163 41 238 77 439 86 478 6 23 10 109 10 190 1 126 4 160 26 237 14 50
28 102 31 118 3 15 14 32 24 38 14 7 19 21 19 49 0 21 5 42 11 45 6 4 8 14 5
22 -4 9 -2 21 3 27 11 14 31 105 32 149 1 30 1 30 8 7 11 -37 31 84 31 186 0
122 0 121 78 121 96 -1 199 19 256 48 50 25 76 31 76 17 0 -4 14 -13 30 -20
18 -8 30 -21 30 -32 0 -33 28 -39 130 -28 109 11 115 7 125 -71 3 -25 13 -93
22 -151 26 -171 31 -212 32 -276 1 -36 7 -68 16 -80 19 -25 19 -82 -1 -301 -9
-98 -13 -207 -10 -243 4 -36 11 -112 16 -170 6 -58 15 -188 21 -290 6 -102 13
-219 15 -260 3 -41 -1 -120 -8 -175 -16 -123 -13 -155 12 -155 10 0 21 -4 25
-10 3 -5 121 -9 292 -8 254 1 291 3 327 19 23 10 47 27 54 39 11 19 10 24 -17
49 -34 32 -68 41 -169 45 -52 2 -77 9 -109 29 -48 31 -123 105 -123 123 0 7
-5 14 -11 16 -15 5 -15 98 0 193 6 44 16 109 20 145 5 36 16 117 24 180 9 63
21 169 28 235 15 148 14 406 -3 416 -8 5 -9 33 -3 101 5 51 8 131 7 178 -7
288 -6 348 7 398 13 51 32 72 66 72 22 0 75 41 75 57 0 14 -40 69 -87 122 -13
14 -25 45 -28 71 -4 25 -10 66 -15 92 -14 72 -29 249 -40 488 -11 228 -18 280
-75 565 -43 216 -89 557 -80 603 3 18 1 78 -5 134 -8 71 -8 104 -1 111 6 6 11
21 11 34 0 39 28 27 36 -14 4 -21 12 -49 19 -63 25 -48 53 -115 66 -158 8 -28
20 -47 34 -52 20 -8 34 -26 89 -114 10 -17 26 -36 37 -44 10 -7 25 -19 33 -28
9 -8 37 -22 63 -31 27 -9 54 -23 61 -30 7 -7 20 -13 28 -13 8 0 14 -4 14 -8 0
-4 16 -14 36 -21 19 -7 38 -19 41 -27 28 -73 190 -144 327 -144 32 0 76 -5 97
-11 62 -19 272 3 339 35 30 14 66 26 81 26 15 0 31 5 34 10 3 6 -1 10 -9 10
-9 0 -16 7 -16 15 0 8 6 15 14 15 8 0 23 11 34 25 11 14 29 25 41 25 12 0 21
5 21 11 0 13 55 69 68 69 6 0 12 18 14 39 2 22 0 37 -4 35 -5 -3 -20 4 -34 15
-32 25 -89 27 -141 6 -20 -9 -54 -15 -74 -13 -27 1 -49 -6 -78 -26 -47 -33
-44 -51 7 -41 24 4 37 2 43 -6 8 -13 -6 -39 -21 -39 -5 0 -19 -9 -32 -21 -13
-12 -39 -27 -58 -34 -123 -47 -170 -62 -170 -56 0 4 -18 14 -40 21 -22 7 -40
19 -40 27 0 7 -11 13 -25 13 -14 0 -25 4 -25 10 0 5 -18 19 -40 30 -22 11 -40
25 -40 30 0 6 -11 10 -25 10 -14 0 -25 3 -25 8 0 4 -14 16 -30 27 -16 11 -30
26 -30 33 0 6 -10 12 -23 12 -14 0 -43 19 -71 45 -27 25 -53 45 -57 45 -5 0
-9 9 -9 19 0 11 -11 28 -25 39 -14 11 -25 25 -25 31 0 6 -7 11 -15 11 -9 0
-15 9 -15 25 0 15 -6 25 -14 25 -7 0 -16 9 -19 21 -3 11 -15 23 -26 26 -12 3
-21 12 -21 19 0 8 -4 14 -9 14 -8 0 -35 64 -72 170 -10 30 -23 64 -28 75 -23
54 -30 102 -36 240 -6 114 -12 160 -26 192 -11 23 -19 46 -19 51 0 33 -87 152
-111 152 -5 0 -9 18 -9 39 0 22 -4 41 -10 43 -5 2 -19 45 -30 97 -11 52 -27
102 -35 111 -8 9 -15 26 -15 38 0 12 -4 22 -9 22 -4 0 -16 21 -25 48 -9 26
-23 60 -31 75 -8 16 -15 42 -15 58 0 16 -4 29 -9 29 -5 0 -11 17 -13 38 -9 69
-40 197 -49 200 -5 2 -9 14 -9 27 0 27 -58 168 -71 173 -5 2 -9 14 -9 26 0 13
-9 35 -20 49 -11 14 -20 30 -20 36 0 6 -4 11 -10 11 -5 0 -10 4 -10 9 0 15
-69 112 -93 130 -51 39 -97 52 -209 58 l-113 6 -38 -42z m424 -263 c48 -55 84
-247 59 -313 -5 -14 -12 -46 -14 -70 -9 -94 -36 -82 -36 16 0 39 -4 69 -10 69
-16 0 -12 78 6 105 13 20 14 33 5 74 -6 28 -20 67 -31 88 -11 21 -20 41 -20
45 0 15 23 8 41 -14z"/>
</g>
</svg>
