<?xml version="1.0" standalone="no"?>
<!DOCTYPE svg PUBLIC "-//W3C//DTD SVG 20010904//EN"
 "http://www.w3.org/TR/2001/REC-SVG-20010904/DTD/svg10.dtd">
<svg version="1.0" xmlns="http://www.w3.org/2000/svg"
 width="1280.000000pt" height="720.000000pt" viewBox="0 0 1280.000000 720.000000"
 preserveAspectRatio="xMidYMid meet">
<metadata>
Created by potrace 1.16, written by Peter Selinger 2001-2019
</metadata>
<g transform="translate(0.000000,720.000000) scale(0.100000,-0.100000)"
fill="#000000" stroke="none">
<path d="M6271 6922 c-13 -2 -26 -12 -28 -23 -3 -10 -11 -19 -18 -19 -16 0
-45 -44 -45 -68 0 -10 -9 -27 -20 -37 -12 -10 -30 -39 -41 -64 -11 -25 -28
-55 -38 -66 -20 -22 -51 -103 -51 -135 0 -11 -6 -37 -14 -57 -31 -85 -59 -195
-86 -348 -5 -27 -19 -72 -31 -100 -40 -94 -70 -155 -80 -161 -5 -3 -17 -23
-26 -45 -8 -21 -19 -39 -23 -39 -4 0 -10 -8 -14 -17 -5 -18 -26 -53 -36 -63
-18 -18 -60 -112 -60 -134 0 -14 -4 -26 -9 -26 -5 0 -12 -17 -16 -37 -4 -21
-12 -41 -18 -45 -7 -4 -12 -78 -13 -216 -2 -154 -7 -219 -18 -248 -8 -21 -26
-93 -41 -159 -14 -66 -33 -140 -42 -165 -8 -25 -18 -56 -21 -70 -6 -26 -73
-142 -101 -173 -9 -11 -27 -38 -41 -62 -77 -132 -94 -157 -116 -167 -15 -7
-24 -20 -24 -34 0 -12 -6 -24 -14 -27 -8 -3 -17 -20 -21 -38 -4 -19 -15 -33
-26 -36 -10 -3 -19 -14 -19 -24 0 -13 -7 -19 -24 -19 -14 0 -28 -5 -31 -10
-14 -22 -91 -50 -139 -50 -59 -1 -99 -27 -110 -72 -6 -28 -26 -39 -26 -15 -1
34 -30 -33 -30 -69 0 -55 25 -78 34 -32 6 29 8 31 17 15 6 -9 8 -26 4 -36 -10
-34 20 -44 140 -47 111 -4 155 5 155 29 0 4 -4 5 -10 2 -5 -3 -10 1 -10 9 0
10 6 13 15 10 11 -4 15 1 16 17 l1 24 8 -25 c7 -23 8 -23 9 -3 1 12 15 34 32
50 86 77 99 93 99 112 0 14 -8 23 -25 27 -23 6 -36 24 -17 24 4 0 13 4 21 9
12 8 12 12 2 24 -16 20 9 44 82 80 29 14 66 38 83 54 33 29 60 49 83 60 12 5
108 101 161 161 11 12 20 29 20 37 0 8 4 15 9 15 5 0 20 17 32 38 13 20 27 39
31 40 4 2 8 13 8 24 0 27 40 138 50 138 4 0 11 10 16 23 13 37 17 -60 5 -123
-6 -30 -18 -102 -26 -160 -24 -156 -52 -282 -76 -342 -12 -29 -25 -71 -29 -93
-37 -206 -41 -232 -61 -410 -7 -60 -16 -115 -21 -122 -5 -6 -11 -42 -13 -80
-2 -38 -12 -89 -21 -113 -9 -25 -20 -65 -24 -90 -5 -25 -13 -64 -19 -88 -6
-23 -15 -97 -21 -165 -8 -104 -33 -267 -55 -358 -6 -25 -4 -26 41 -33 26 -3
93 -6 149 -6 79 0 105 -3 115 -15 16 -19 12 -241 -6 -360 -9 -61 -57 -185 -71
-185 -7 0 -13 -6 -13 -12 0 -17 -62 -142 -72 -146 -4 -2 -8 -11 -8 -20 0 -9
-9 -46 -19 -82 -18 -60 -51 -205 -66 -290 -3 -19 -10 -114 -15 -210 -8 -167
-22 -261 -42 -287 -5 -7 -22 -67 -38 -134 -18 -79 -34 -125 -44 -131 -9 -5
-16 -18 -16 -28 0 -11 -6 -20 -14 -20 -18 0 -26 -31 -26 -100 0 -83 6 -93 62
-119 69 -32 188 -27 263 10 49 25 50 27 59 83 7 40 6 67 -2 90 -16 44 -15 120
3 189 8 32 15 77 15 100 0 46 40 220 52 225 5 2 8 10 8 18 0 8 4 22 9 32 5 9
18 37 29 62 11 25 31 70 45 100 14 31 29 68 32 83 4 15 11 27 15 27 4 0 10 19
13 43 2 23 19 80 37 127 17 47 36 101 40 120 15 64 42 135 61 156 11 11 19 27
19 34 0 8 18 40 40 71 22 32 40 64 40 73 0 9 6 16 13 16 7 0 21 24 31 53 11
28 23 56 27 62 5 5 9 19 9 31 0 12 17 41 38 64 37 41 37 43 42 143 l5 102 102
3 c89 2 103 1 111 -15 5 -10 12 -74 15 -143 5 -114 27 -227 56 -295 24 -56 35
-127 47 -310 17 -266 36 -434 74 -665 9 -56 7 -161 -5 -179 -3 -6 -1 -72 5
-148 8 -98 8 -139 1 -141 -6 -2 -11 -11 -11 -20 0 -10 -7 -26 -15 -36 -18 -23
-18 -38 -4 -89 l10 -37 84 0 c50 0 85 -4 85 -10 0 -5 22 -10 49 -10 36 0 57 6
78 23 15 12 37 27 48 33 31 17 33 104 3 104 -7 0 -32 21 -56 48 -39 42 -43 50
-37 82 4 19 8 73 9 120 1 79 0 85 -23 96 -19 10 -20 13 -8 20 28 16 95 345
108 529 22 320 22 330 8 356 -7 13 -17 53 -20 89 -4 36 -24 137 -44 225 -36
159 -36 161 -25 267 6 59 9 111 6 116 -3 5 59 12 142 14 81 3 155 9 165 13 22
9 22 35 -2 104 -24 68 -74 278 -91 381 -7 41 -24 118 -38 170 -37 140 -41 167
-42 255 -1 129 -16 241 -55 406 -75 317 -81 347 -75 394 l5 40 32 -50 c18 -28
48 -67 68 -88 19 -21 35 -44 35 -51 0 -8 7 -16 15 -20 8 -3 15 -12 15 -21 0
-8 7 -15 15 -15 8 0 15 -5 15 -10 0 -19 140 -150 160 -150 13 0 20 -7 20 -20
0 -11 8 -28 18 -38 9 -10 22 -27 28 -37 9 -17 27 -20 135 -23 113 -4 128 -2
162 17 22 12 55 21 82 21 24 0 47 5 50 10 3 6 25 10 48 10 58 0 105 15 128 41
44 51 11 71 -126 77 -91 4 -108 2 -175 -23 -49 -18 -103 -29 -155 -32 -76 -4
-82 -3 -106 20 -13 14 -40 62 -58 106 -18 45 -36 81 -40 81 -3 0 -11 12 -18
28 -42 96 -53 126 -53 143 0 10 -4 19 -10 19 -5 0 -15 18 -21 40 -7 22 -15 40
-19 40 -8 0 -14 29 -27 115 -3 22 -11 43 -17 47 -7 4 -11 40 -12 90 0 46 -5
94 -11 108 -22 55 -23 90 -3 110 11 11 20 32 20 47 0 25 -1 26 -14 8 -12 -16
-14 -7 -20 81 -10 168 -10 175 28 289 10 28 18 86 18 130 2 72 -1 84 -25 120
-15 22 -27 48 -27 57 0 10 -4 18 -10 18 -5 0 -10 6 -10 13 0 6 -14 21 -30 32
-16 11 -30 25 -30 31 0 6 -6 24 -14 40 -8 16 -17 57 -20 92 -7 59 -36 134 -57
148 -5 3 -9 15 -9 28 0 12 -3 26 -7 30 -17 17 -93 286 -93 330 0 12 -4 26 -8
32 -5 5 -14 33 -21 63 -8 29 -20 65 -27 80 -8 14 -14 33 -14 41 0 9 -4 20 -9
25 -5 6 -16 34 -26 63 -9 28 -20 52 -23 52 -8 0 -32 49 -32 66 0 6 -7 14 -15
18 -8 3 -15 10 -15 16 0 13 -69 108 -96 132 -33 29 -232 62 -303 50z m387
-304 c50 -107 76 -263 48 -290 -8 -8 -16 -30 -18 -48 -5 -58 -25 -46 -37 23
-15 85 -14 153 2 169 14 14 13 23 -8 73 -16 37 -35 95 -35 106 0 25 30 3 48
-33z m12 -412 c0 -7 -7 -19 -15 -26 -13 -11 -15 -8 -15 14 0 16 5 26 15 26 8
0 15 -6 15 -14z m-1543 -2418 c-3 -8 -6 -5 -6 6 -1 11 2 17 5 13 3 -3 4 -12 1
-19z m-167 -68 c0 -5 -9 -10 -20 -10 -11 0 -20 5 -20 10 0 6 9 10 20 10 11 0
20 -4 20 -10z m90 0 c0 -5 -4 -10 -10 -10 -5 0 -10 5 -10 10 0 6 5 10 10 10 6
0 10 -4 10 -10z"/>
<path d="M7186 4982 c-3 -5 -1 -22 4 -38 8 -29 8 -29 9 9 1 36 -3 45 -13 29z"/>
</g>
</svg>
