<?xml version="1.0" standalone="no"?>
<!DOCTYPE svg PUBLIC "-//W3C//DTD SVG 20010904//EN"
 "http://www.w3.org/TR/2001/REC-SVG-20010904/DTD/svg10.dtd">
<svg version="1.0" xmlns="http://www.w3.org/2000/svg"
 width="1280.000000pt" height="720.000000pt" viewBox="0 0 1280.000000 720.000000"
 preserveAspectRatio="xMidYMid meet">
<metadata>
Created by potrace 1.16, written by Peter Selinger 2001-2019
</metadata>
<g transform="translate(0.000000,720.000000) scale(0.100000,-0.100000)"
fill="#000000" stroke="none">
<path d="M6225 7140 c-10 -11 -24 -20 -30 -20 -7 0 -18 -21 -26 -47 -8 -28
-24 -57 -41 -71 -15 -13 -28 -32 -28 -42 0 -10 -11 -28 -25 -41 -13 -13 -25
-29 -25 -36 0 -15 -33 -77 -42 -81 -5 -2 -8 -9 -8 -16 0 -7 -5 -17 -12 -24
-14 -14 -55 -143 -69 -217 -5 -27 -13 -93 -18 -145 -8 -98 -10 -106 -42 -177
-10 -24 -19 -47 -19 -53 0 -5 -4 -10 -9 -10 -5 0 -14 -15 -20 -32 -19 -54 -35
-88 -43 -88 -3 0 -9 -26 -13 -57 -9 -88 -22 -128 -60 -177 -18 -24 -41 -59
-50 -76 -23 -45 -47 -187 -39 -235 4 -22 7 -184 6 -360 l-1 -320 -30 -93 c-17
-51 -31 -101 -31 -111 0 -22 -31 -124 -40 -131 -8 -6 -61 -406 -69 -521 -3
-47 -11 -92 -18 -100 -6 -8 -23 -36 -37 -63 -24 -45 -26 -58 -26 -177 0 -108
2 -129 15 -129 9 0 15 -9 15 -25 0 -14 16 -41 40 -67 22 -24 40 -46 40 -50 0
-5 18 -8 40 -8 l40 0 0 -74 c0 -56 -7 -97 -29 -163 -21 -64 -29 -104 -27 -148
2 -77 32 -144 63 -145 12 0 37 -13 55 -28 18 -16 56 -41 83 -57 44 -25 63 -28
162 -33 70 -3 116 -9 123 -16 21 -26 40 -160 40 -286 l0 -128 -38 -49 c-48
-60 -62 -86 -62 -112 0 -12 -6 -21 -12 -21 -14 -1 -68 -80 -68 -99 0 -6 -4
-11 -10 -11 -5 0 -12 -11 -16 -25 -3 -14 -10 -25 -14 -25 -4 0 -24 -36 -46
-80 -21 -44 -42 -80 -46 -80 -4 0 -8 -9 -8 -20 0 -11 -4 -28 -9 -38 -16 -31
-82 -256 -91 -307 -4 -27 -15 -78 -24 -111 -9 -34 -16 -81 -16 -103 0 -54 -54
-288 -70 -301 -3 -3 -12 -21 -20 -40 -8 -19 -16 -37 -19 -40 -12 -11 -31 -50
-31 -65 0 -8 -4 -15 -8 -15 -15 0 -34 -70 -27 -100 4 -16 18 -38 31 -49 14
-11 23 -23 22 -28 -4 -13 71 -83 100 -94 13 -5 37 -9 53 -9 16 0 29 -4 29 -8
0 -15 71 -30 191 -41 147 -14 269 -14 269 -1 0 6 11 10 24 10 25 0 36 16 36
55 0 36 -54 71 -130 85 -36 7 -75 14 -86 16 -14 2 -27 18 -37 42 -8 21 -22 44
-31 51 -9 8 -16 23 -16 34 0 11 -7 29 -17 39 -12 13 -17 44 -21 116 -4 92 2
133 28 197 4 11 13 40 20 65 14 53 51 134 62 138 4 2 8 9 8 15 0 13 41 99 52
107 3 3 9 22 13 42 4 20 13 39 20 42 7 2 15 21 19 40 4 20 11 36 16 36 6 0 10
9 10 19 0 11 5 23 10 26 6 4 27 39 46 78 38 79 53 105 70 123 6 7 17 26 24 43
7 17 19 31 26 31 8 0 14 10 14 23 0 13 8 32 18 43 26 30 56 74 83 124 13 25
32 54 42 64 9 11 17 30 17 43 0 18 6 23 25 23 17 0 25 -6 25 -17 1 -10 12 -49
26 -88 60 -167 77 -225 85 -300 15 -142 49 -327 104 -560 30 -128 37 -189 31
-295 -9 -158 -26 -260 -42 -260 -8 0 -14 -6 -14 -13 0 -8 -9 -22 -20 -32 -11
-10 -20 -24 -20 -31 0 -8 -9 -19 -20 -26 -11 -7 -20 -18 -20 -25 0 -7 -6 -13
-14 -13 -21 0 -26 -24 -15 -64 10 -35 11 -36 59 -36 31 0 50 -4 50 -12 0 -18
256 -3 276 17 9 8 22 15 29 15 8 0 26 15 40 34 25 33 26 36 11 65 -9 16 -24
34 -33 39 -15 9 -15 19 -5 105 18 147 16 214 -8 234 -12 10 -16 21 -11 27 5 6
14 81 20 166 7 85 16 187 21 225 7 45 6 131 -1 245 -13 217 -21 267 -52 355
-14 39 -31 90 -38 115 -7 25 -17 48 -22 51 -39 27 -55 329 -28 529 15 111 32
146 41 82 3 -25 10 -37 20 -36 27 2 55 9 60 14 3 3 23 15 45 26 27 15 52 41
76 80 l36 59 63 8 c36 4 66 10 69 12 5 5 39 231 71 474 15 108 18 162 11 180
-10 29 -27 100 -35 146 -11 69 -28 141 -36 150 -4 6 -11 33 -15 60 -4 28 -18
102 -32 165 -46 217 -48 229 -34 243 9 9 13 7 17 -11 4 -12 14 -22 23 -22 18
0 141 -109 141 -126 0 -6 12 -17 28 -25 29 -15 52 -34 52 -43 0 -3 19 -23 43
-45 54 -52 85 -57 232 -40 66 7 172 13 236 14 112 0 118 1 138 25 11 14 20 31
21 37 0 14 -62 43 -91 43 -11 0 -19 4 -19 9 0 5 -26 15 -57 22 -59 12 -146 2
-194 -22 -11 -5 -29 -14 -40 -20 -16 -8 -24 -8 -29 1 -6 9 -26 11 -72 6 -93
-10 -114 -3 -122 43 -3 21 -15 50 -26 64 -11 14 -20 36 -20 50 0 14 -6 38 -14
54 -8 15 -22 47 -32 71 -9 23 -21 42 -26 42 -4 0 -8 9 -8 20 0 11 -4 20 -9 20
-19 0 -52 76 -60 139 -8 60 -35 131 -53 139 -5 2 -8 21 -8 43 0 30 4 39 17 39
15 0 15 1 1 13 -9 6 -21 28 -27 47 -14 45 -31 197 -31 277 0 38 -4 63 -12 65
-9 3 -7 41 6 153 12 97 16 175 12 224 -7 88 -27 181 -38 181 -5 0 -8 6 -8 14
0 7 -7 19 -15 26 -11 9 -15 32 -15 81 0 61 -11 102 -31 119 -3 3 -9 23 -13 45
-14 77 -27 115 -40 115 -7 0 -21 18 -31 40 -10 22 -24 40 -32 40 -7 0 -13 9
-13 19 0 11 -4 22 -10 26 -15 9 -67 125 -83 185 -8 30 -23 90 -32 133 -10 43
-22 80 -27 83 -4 3 -8 16 -8 29 0 13 -4 27 -10 30 -5 3 -21 30 -35 58 -41 84
-79 152 -87 155 -5 2 -8 8 -8 13 0 8 -20 35 -47 64 -7 8 -13 18 -13 24 0 6 -9
16 -20 23 -11 7 -20 18 -20 25 0 7 -9 13 -19 13 -11 0 -21 5 -23 11 -5 16 -81
28 -184 29 -79 0 -93 -3 -109 -20z m403 -292 c7 -7 12 -20 12 -29 0 -10 3 -19
8 -21 4 -1 15 -28 25 -59 19 -62 22 -150 7 -177 -6 -9 -17 -44 -24 -77 l-14
-60 -1 68 c-1 52 -4 67 -16 67 -11 0 -15 11 -15 39 0 22 -3 46 -6 55 -3 8 3
22 15 33 25 21 26 30 7 69 -19 38 -31 104 -19 104 5 0 14 -5 21 -12z m-948
-2804 c0 -9 -6 -39 -14 -67 -14 -51 -25 -153 -26 -230 0 -34 -3 -38 -22 -35
-28 4 -41 62 -35 163 5 82 49 185 79 185 10 0 18 -7 18 -16z m1212 -1260 c-6
-35 -12 -29 -12 14 0 23 3 32 9 24 4 -7 6 -24 3 -38z"/>
<path d="M6842 2235 c-1 -19 3 -35 8 -35 6 0 10 16 10 35 0 19 -4 35 -8 35 -5
0 -9 -16 -10 -35z"/>
<path d="M5920 570 c0 -5 5 -10 11 -10 5 0 7 5 4 10 -3 6 -8 10 -11 10 -2 0
-4 -4 -4 -10z"/>
</g>
</svg>
