<?xml version="1.0" standalone="no"?>
<!DOCTYPE svg PUBLIC "-//W3C//DTD SVG 20010904//EN"
 "http://www.w3.org/TR/2001/REC-SVG-20010904/DTD/svg10.dtd">
<svg version="1.0" xmlns="http://www.w3.org/2000/svg"
 width="1280.000000pt" height="720.000000pt" viewBox="0 0 1280.000000 720.000000"
 preserveAspectRatio="xMidYMid meet">
<metadata>
Created by potrace 1.16, written by Peter Selinger 2001-2019
</metadata>
<g transform="translate(0.000000,720.000000) scale(0.100000,-0.100000)"
fill="#000000" stroke="none">
<path d="M6240 7057 c0 -7 -10 -17 -22 -22 -15 -7 -28 -27 -38 -59 -9 -26 -23
-54 -33 -61 -9 -6 -24 -28 -32 -48 -8 -20 -28 -49 -43 -65 -21 -22 -35 -53
-50 -115 -12 -48 -22 -97 -22 -110 0 -13 -6 -37 -14 -53 -8 -16 -20 -76 -26
-134 -23 -210 -39 -310 -50 -310 -5 0 -14 -17 -21 -37 -6 -20 -20 -46 -30 -57
-11 -11 -19 -25 -19 -31 0 -7 -11 -25 -25 -41 -14 -16 -28 -39 -31 -51 -4 -13
-12 -23 -19 -23 -7 0 -25 -15 -39 -32 -15 -18 -31 -38 -36 -45 -6 -7 -10 -18
-10 -25 0 -7 -14 -28 -30 -46 -55 -63 -89 -195 -90 -344 0 -38 -4 -68 -9 -68
-5 0 -14 -21 -20 -47 -7 -27 -28 -79 -47 -117 -19 -38 -34 -77 -34 -88 0 -25
-20 -63 -59 -112 -17 -21 -31 -47 -31 -57 0 -11 -7 -19 -16 -19 -8 0 -39 -19
-69 -42 -38 -30 -52 -48 -49 -60 4 -12 0 -18 -10 -18 -9 0 -16 -7 -16 -15 0
-26 -23 -65 -39 -65 -9 0 -24 -17 -34 -40 -9 -22 -21 -40 -27 -40 -12 0 -60
-48 -60 -61 0 -5 -11 -14 -25 -19 -14 -5 -25 -16 -25 -24 0 -7 -16 -26 -35
-40 -19 -15 -35 -33 -35 -40 0 -7 -12 -23 -26 -35 -24 -21 -39 -24 -128 -27
-157 -4 -206 -13 -206 -34 0 -20 34 -26 187 -36 66 -4 86 -2 107 11 14 10 26
22 26 29 0 19 35 35 92 41 66 8 217 50 228 64 10 12 50 31 65 31 8 0 15 6 15
13 0 6 20 21 43 31 46 21 107 64 120 83 4 7 15 13 22 13 27 0 93 77 150 177
72 124 122 201 153 235 14 15 30 37 36 49 20 40 33 32 39 -23 4 -29 4 -62 2
-73 -3 -11 -10 -87 -14 -170 -5 -82 -14 -168 -20 -190 -6 -22 -20 -85 -32
-140 -12 -55 -35 -131 -51 -169 -15 -38 -28 -75 -28 -82 0 -8 -4 -14 -10 -14
-5 0 -10 -7 -10 -15 0 -9 -8 -41 -19 -73 -10 -31 -28 -101 -41 -154 -13 -54
-26 -95 -30 -93 -9 6 -17 -38 -26 -150 -3 -44 -16 -135 -29 -202 -13 -67 -21
-131 -18 -142 3 -12 -1 -29 -8 -38 -11 -13 -13 -72 -11 -301 3 -318 3 -322 68
-322 45 0 48 -16 41 -198 -6 -153 -13 -190 -53 -279 -14 -29 -27 -67 -31 -85
-3 -18 -11 -40 -18 -48 -62 -78 -92 -366 -86 -826 3 -258 1 -300 -15 -363 -10
-39 -24 -71 -30 -71 -15 0 -25 -25 -18 -44 5 -12 -16 -14 -128 -13 l-133 2 1
-49 c0 -29 6 -52 12 -54 7 -2 12 -9 12 -15 0 -26 65 -55 134 -61 67 -5 126
-23 126 -38 0 -5 17 -8 39 -8 21 0 55 -7 74 -15 44 -18 96 -20 102 -3 3 7 7
49 9 93 2 48 13 104 26 140 34 92 37 133 11 151 -24 17 -28 44 -7 44 24 0 39
29 52 103 14 82 29 145 72 307 17 63 34 148 38 188 3 39 11 72 15 72 5 0 9 54
9 120 0 73 4 120 10 120 6 0 10 20 10 45 0 42 10 65 58 140 15 25 17 29 31 90
7 28 21 57 32 66 26 20 37 76 38 209 1 76 6 107 15 112 8 4 17 28 20 53 4 24
11 47 16 50 5 3 7 11 4 18 -7 18 51 40 96 35 25 -2 40 1 40 8 0 7 41 13 117
18 108 6 118 5 135 -14 15 -16 32 -20 82 -20 95 0 126 -9 138 -39 6 -14 14
-87 19 -161 5 -74 14 -166 20 -205 6 -38 13 -91 16 -117 3 -27 8 -48 13 -48
16 0 18 -123 5 -280 -11 -117 -12 -187 -6 -240 5 -41 15 -147 21 -235 6 -88
18 -214 25 -280 7 -66 12 -154 9 -195 -15 -262 -16 -306 -3 -335 6 -16 11 -38
10 -47 -3 -23 86 -68 134 -68 23 0 35 -5 35 -14 0 -18 152 -34 158 -17 2 6 21
11 43 11 21 0 39 5 39 10 0 6 10 10 23 10 34 1 57 24 57 57 0 17 7 36 15 43
26 21 16 72 -15 75 -3 1 -19 8 -35 17 -17 9 -52 19 -78 23 -26 4 -47 11 -47
16 0 5 -8 9 -17 9 -23 0 -56 80 -72 170 -16 89 -15 121 3 220 9 47 23 123 30
170 8 47 19 108 26 136 6 29 12 81 13 118 1 36 5 66 8 66 15 0 32 381 19 416
-30 77 -56 539 -39 681 8 61 21 77 71 87 24 4 53 23 87 56 28 27 51 53 51 58
0 5 -34 35 -75 66 -43 32 -77 66 -80 79 -17 77 -26 219 -30 486 -3 167 -7 307
-9 310 -3 3 -12 51 -21 106 -9 55 -20 111 -26 125 -5 14 -15 59 -23 100 -24
127 -47 243 -56 280 -15 59 -52 408 -45 419 3 6 15 11 25 11 22 0 70 -68 70
-99 0 -32 36 -106 61 -127 13 -11 29 -27 34 -36 59 -92 87 -128 102 -128 24
-1 57 -29 71 -62 8 -20 19 -28 37 -28 14 0 25 -6 25 -12 0 -14 96 -68 119 -68
7 0 25 -6 39 -14 75 -40 133 -66 147 -66 8 0 15 -4 15 -10 0 -5 6 -10 13 -10
26 0 147 -42 147 -51 0 -5 22 -9 50 -9 36 0 71 10 127 36 43 20 93 38 111 41
17 3 32 9 32 13 0 4 24 15 53 25 28 9 62 23 74 31 12 8 27 14 33 14 6 0 24 10
40 22 21 15 28 27 24 40 -3 10 -1 18 5 18 6 0 11 16 11 35 0 33 -2 35 -33 35
-18 0 -37 -4 -42 -9 -6 -5 -26 -11 -45 -13 -27 -2 -36 -8 -38 -25 -3 -19 -10
-23 -43 -23 -21 0 -39 -4 -39 -10 0 -5 -18 -15 -40 -21 -22 -7 -40 -16 -40
-21 0 -4 -8 -8 -17 -8 -10 0 -29 -6 -43 -13 -14 -7 -59 -22 -100 -32 -41 -11
-78 -23 -81 -28 -7 -9 -79 30 -79 44 0 5 -6 9 -14 9 -7 0 -16 9 -19 21 -3 11
-15 23 -26 26 -12 3 -21 11 -21 18 0 7 -6 15 -14 18 -8 3 -19 22 -26 41 -9 28
-17 36 -35 36 -23 0 -85 52 -85 71 0 5 -7 9 -15 9 -8 0 -15 4 -15 8 0 4 -17
26 -37 47 -21 22 -45 56 -54 75 -9 19 -26 44 -37 56 -18 19 -62 95 -62 108 0
2 7 12 16 20 9 10 11 16 4 16 -23 0 -80 72 -80 101 0 43 -21 129 -31 129 -5 0
-9 36 -9 79 0 51 -4 81 -11 83 -9 3 -9 33 1 119 17 153 11 221 -26 295 -16 32
-32 61 -36 62 -5 2 -8 11 -8 19 0 19 -46 63 -66 63 -10 0 -14 12 -14 40 0 22
-4 40 -10 40 -5 0 -14 17 -19 38 -28 108 -33 122 -41 122 -6 0 -10 7 -10 15 0
8 -4 23 -10 33 -34 62 -100 275 -100 323 0 36 -33 184 -42 187 -4 2 -8 13 -8
25 0 23 -57 178 -69 187 -8 6 -46 72 -72 126 -34 69 -97 129 -162 153 -69 25
-257 31 -257 8z m405 -287 c54 -100 78 -224 55 -280 -7 -17 -15 -56 -19 -88
-4 -40 -10 -57 -20 -57 -12 0 -15 22 -18 105 -2 61 -9 107 -15 111 -7 5 -4 17
10 36 18 26 20 35 11 69 -5 21 -19 55 -29 75 -11 20 -20 42 -20 49 0 20 31 6
45 -20z m15 -454 c0 -3 -4 -8 -10 -11 -5 -3 -10 -1 -10 4 0 6 5 11 10 11 6 0
10 -2 10 -4z"/>
</g>
</svg>
