<?xml version="1.0" standalone="no"?>
<!DOCTYPE svg PUBLIC "-//W3C//DTD SVG 20010904//EN"
 "http://www.w3.org/TR/2001/REC-SVG-20010904/DTD/svg10.dtd">
<svg version="1.0" xmlns="http://www.w3.org/2000/svg"
 width="1280.000000pt" height="720.000000pt" viewBox="0 0 1280.000000 720.000000"
 preserveAspectRatio="xMidYMid meet">
<metadata>
Created by potrace 1.16, written by Peter Selinger 2001-2019
</metadata>
<g transform="translate(0.000000,720.000000) scale(0.100000,-0.100000)"
fill="#000000" stroke="none">
<path d="M6245 7073 c-33 -5 -65 -33 -65 -57 0 -8 -4 -18 -10 -21 -5 -3 -10
-17 -10 -31 0 -13 -8 -33 -17 -43 -38 -41 -63 -84 -63 -106 0 -8 -4 -15 -9
-15 -18 0 -52 -131 -68 -270 -3 -25 -9 -47 -13 -50 -8 -6 -37 -160 -46 -252
-4 -38 -11 -68 -15 -68 -5 0 -9 -10 -9 -22 0 -28 -60 -178 -71 -178 -5 0 -9
-9 -9 -20 0 -11 -3 -20 -8 -20 -4 0 -13 -14 -20 -30 -8 -17 -19 -36 -26 -43
-19 -19 -66 -106 -66 -122 0 -8 6 -15 14 -15 26 0 27 -18 4 -42 -50 -52 -68
-80 -77 -116 -6 -20 -15 -55 -21 -77 -6 -22 -13 -111 -17 -197 -3 -87 -10
-158 -14 -158 -5 0 -9 -18 -9 -40 0 -22 -4 -40 -9 -40 -5 0 -12 -15 -15 -32
-6 -30 -8 -31 -18 -14 -8 15 -12 16 -19 5 -13 -21 -11 -39 6 -39 8 0 15 -7 15
-15 0 -8 -4 -15 -10 -15 -15 0 -30 36 -30 74 l0 35 -327 5 c-181 2 -508 9
-728 15 -397 10 -1287 30 -1397 31 l-58 0 0 -185 0 -185 203 0 c111 0 231 4
267 9 36 5 239 13 453 17 339 6 387 5 387 -8 0 -11 17 -17 61 -22 90 -9 96 -8
118 15 18 20 21 20 42 5 20 -13 57 -16 224 -17 110 0 319 -4 465 -8 181 -5
267 -4 272 3 4 6 11 7 15 2 4 -5 2 -11 -4 -13 -7 -3 -13 -18 -13 -35 0 -31
-25 -94 -47 -116 -7 -7 -13 -23 -13 -34 0 -21 -16 -86 -30 -123 -18 -50 -30
-93 -30 -113 0 -12 -4 -30 -9 -40 -8 -16 -27 -112 -38 -197 -3 -23 -13 -45
-25 -53 -15 -11 -16 -17 -8 -27 26 -31 0 -37 -137 -33 -74 2 -136 1 -139 -4
-3 -4 -14 -4 -24 2 -13 7 -21 7 -25 0 -4 -7 -11 -7 -18 -2 -14 10 -91 9 -125
-3 -18 -6 -21 -12 -15 -29 11 -30 5 -196 -8 -228 -8 -19 -8 -37 -1 -60 6 -18
9 -103 7 -190 -2 -129 0 -158 11 -158 8 0 14 9 14 20 0 11 8 24 18 27 9 4 20
10 23 15 3 5 22 9 42 10 20 1 38 7 41 15 10 25 36 14 36 -15 0 -15 6 -34 12
-40 10 -10 8 -14 -8 -18 -12 -3 -27 -17 -33 -30 -6 -13 -17 -24 -26 -24 -8 0
-16 -4 -16 -10 -1 -5 -2 -14 -3 -19 -2 -19 -16 -24 -31 -11 -11 9 -18 10 -28
1 -16 -13 -27 -5 -27 21 0 17 -29 27 -31 11 0 -5 -2 -25 -4 -47 l-4 -39 49 6
c33 4 50 2 50 -5 0 -7 5 -6 15 2 14 12 285 21 285 10 0 -7 249 -3 268 5 24 9
61 -21 55 -45 -5 -19 -13 -20 -204 -20 -110 0 -199 4 -199 8 0 5 -75 9 -166 9
-104 0 -170 5 -176 11 -8 8 -10 103 -9 292 1 154 -1 280 -6 280 -4 0 -9 -80
-9 -178 -2 -258 -12 -414 -26 -423 -7 -4 -396 -5 -865 -2 l-853 6 0 -21 c0
-21 5 -22 138 -25 l137 -3 -137 -2 c-129 -2 -138 -3 -138 -22 0 -16 8 -19 58
-22 54 -3 57 -4 60 -30 3 -28 3 -28 -57 -28 -54 0 -61 -2 -61 -20 0 -18 7 -20
55 -20 l55 0 0 -95 0 -95 -32 0 c-71 0 -78 -7 -78 -71 0 -48 3 -57 15 -53 8 4
15 1 15 -5 0 -6 -7 -11 -15 -11 -11 0 -15 -11 -15 -40 0 -35 3 -40 24 -40 22
0 24 -5 31 -77 4 -49 3 -79 -3 -81 -5 -1 -8 -12 -5 -22 3 -11 0 -20 -6 -20 -6
0 -11 5 -11 11 0 8 -5 8 -15 -1 -11 -9 -15 -32 -15 -81 0 -61 2 -69 19 -69 18
0 66 -46 90 -87 10 -17 12 -17 28 3 10 12 23 28 28 36 13 19 105 13 105 -7 0
-29 38 -2 50 36 13 39 30 53 30 24 0 -11 11 -15 35 -15 37 0 59 -15 88 -62 10
-16 21 -28 26 -28 5 0 17 27 27 60 19 63 28 71 50 43 13 -17 15 -17 28 0 19
25 33 21 40 -11 9 -35 29 -82 36 -82 3 0 16 25 29 55 l24 55 61 0 62 0 18 -50
c21 -58 36 -73 36 -35 0 30 43 78 79 90 13 4 47 4 77 0 l54 -6 0 -40 c0 -28 4
-39 15 -39 8 0 15 5 15 11 0 13 55 69 68 69 6 0 13 -6 15 -12 4 -10 6 -10 6 0
1 6 7 12 15 12 9 0 16 -17 21 -47 l8 -48 13 48 c7 27 14 50 16 52 2 2 118 4
258 4 140 0 278 0 305 1 74 1 92 -6 105 -42 l11 -33 20 24 c10 13 19 30 19 38
0 13 10 15 50 11 39 -4 54 -11 71 -32 27 -34 39 -33 39 3 0 28 0 29 77 36 54
5 78 4 81 -4 2 -6 10 -11 18 -11 8 0 14 -7 14 -15 0 -8 5 -15 10 -15 6 0 10 7
10 15 0 8 7 15 15 15 8 0 15 4 15 8 0 4 72 8 160 9 98 2 160 -2 160 -8 0 -5
16 -7 40 -3 l40 7 0 -47 c0 -25 -4 -46 -9 -46 -5 0 -17 -42 -27 -93 -25 -126
-25 -415 1 -629 10 -87 22 -158 27 -158 4 0 8 -13 8 -29 0 -16 9 -75 20 -131
18 -91 19 -115 9 -248 l-10 -146 -47 -47 c-74 -73 -93 -127 -66 -185 17 -36
69 -94 84 -94 13 0 23 -153 15 -240 l-7 -80 161 0 161 0 0 39 c0 22 -5 41 -10
43 -16 5 -26 238 -11 238 8 0 11 9 7 27 -3 16 -2 55 3 88 7 49 5 64 -8 85 -13
20 -17 59 -19 205 -5 327 -2 412 13 506 26 151 33 221 49 450 14 193 30 304
46 319 3 3 14 40 25 82 l19 77 42 10 c48 12 184 14 200 3 13 -9 44 -91 44
-118 0 -11 5 -25 12 -32 16 -16 37 -186 38 -307 1 -55 5 -120 11 -145 5 -25
14 -94 19 -155 5 -60 16 -143 25 -185 27 -137 38 -224 41 -350 14 -492 15
-514 31 -525 14 -11 14 -12 -1 -18 -10 -4 -16 -18 -16 -35 0 -16 -6 -35 -14
-41 -8 -7 -16 -44 -21 -96 -5 -63 -10 -85 -21 -85 -10 0 -14 -12 -14 -40 l0
-40 155 0 155 0 0 80 c0 73 -2 80 -20 80 -17 0 -20 7 -20 40 0 33 3 40 20 40
11 0 20 5 20 10 0 15 77 12 83 -2 3 -7 6 6 6 30 1 23 5 42 11 42 5 0 17 17 25
37 9 21 21 40 27 44 8 5 8 16 -2 39 -9 22 -10 34 -3 38 10 7 18 56 14 94 0 11
-15 21 -38 28 -21 6 -56 21 -78 34 l-40 23 -3 108 c-2 80 -7 114 -18 126 -11
12 -12 23 -5 41 5 13 12 51 16 84 22 205 29 255 41 304 16 64 18 472 3 560 -5
30 -12 70 -16 88 -3 18 -9 35 -14 38 -5 3 -9 20 -9 39 0 18 -4 35 -9 37 -5 2
-11 28 -12 58 l-4 55 53 -3 52 -4 0 47 0 48 -50 -5 c-34 -4 -55 -11 -65 -24
-18 -25 -32 -10 -17 19 6 12 13 85 16 161 4 95 10 142 19 148 6 4 28 8 47 8
45 0 116 22 135 40 26 26 45 415 39 775 -5 273 -8 325 -30 435 -13 69 -28 141
-33 160 -5 19 -17 64 -25 100 -9 36 -21 79 -25 95 -5 17 -15 64 -21 105 -7 41
-18 111 -26 155 -7 44 -16 137 -20 207 -6 113 -5 128 10 134 9 3 16 12 16 19
0 13 35 27 44 17 3 -3 1 -11 -4 -17 -16 -19 79 -25 371 -25 l258 0 5 -42 c16
-132 22 -240 21 -378 -1 -133 -3 -159 -19 -182 -13 -20 -27 -28 -48 -28 -16 0
-36 -7 -44 -15 -9 -8 -26 -15 -38 -15 -22 0 -63 -14 -131 -45 -16 -7 -56 -23
-89 -35 -53 -20 -57 -24 -42 -38 14 -14 21 -14 77 2 62 17 85 13 74 -15 -9
-21 -86 -75 -120 -83 -31 -8 -55 -23 -55 -35 0 -8 161 11 176 21 7 4 50 11 98
14 53 4 90 12 97 20 6 8 18 14 25 14 8 0 14 3 14 8 0 7 30 25 63 38 9 3 17 11
17 17 0 5 15 25 34 43 27 26 34 42 39 87 7 53 44 166 58 177 3 3 12 61 18 130
7 69 16 163 20 209 5 50 5 95 0 109 -5 13 -9 43 -9 68 0 31 -4 44 -14 44 -8 0
-17 15 -20 35 -7 37 -84 198 -98 203 -4 2 -8 10 -8 18 0 8 -4 14 -8 14 -5 0
-15 11 -22 25 -7 14 -19 25 -27 25 -7 0 -13 7 -13 15 0 9 -7 18 -15 21 -8 4
-15 15 -15 25 0 10 -6 19 -13 19 -7 0 -18 9 -25 20 -7 11 -19 20 -27 20 -8 0
-15 9 -15 20 0 13 -7 20 -19 20 -10 0 -21 7 -25 15 -3 8 -12 15 -19 15 -7 0
-20 11 -27 25 -7 14 -19 25 -26 25 -14 0 -44 43 -44 65 0 8 -6 15 -13 15 -8 0
-22 18 -33 40 -10 22 -22 40 -26 40 -5 0 -8 9 -8 20 0 11 -3 20 -8 20 -4 0
-16 15 -26 34 -10 19 -25 37 -32 40 -28 11 -13 26 26 26 22 0 40 3 40 8 0 8
-48 32 -66 32 -6 0 -14 7 -18 15 -7 18 -46 20 -46 2 0 -7 5 -18 12 -25 9 -9 8
-12 -5 -12 -9 0 -17 3 -17 8 0 4 -21 19 -47 32 -27 14 -49 28 -51 33 -2 4 -11
7 -20 7 -15 1 -15 2 2 15 10 8 24 16 30 18 11 4 -30 47 -46 47 -4 0 -8 6 -8
13 0 8 -9 22 -20 32 -11 10 -20 30 -20 44 0 13 -11 36 -24 50 -43 47 -136 224
-136 260 0 15 -7 50 -15 77 -8 27 -22 83 -31 124 -9 41 -19 80 -23 85 -4 6
-16 33 -26 60 -10 28 -21 52 -24 55 -3 3 -24 40 -45 83 -22 42 -43 77 -48 77
-4 0 -8 5 -8 11 0 5 -14 24 -30 42 -17 18 -33 40 -36 50 -3 9 -8 17 -12 17 -4
0 -20 13 -37 28 -16 16 -45 34 -64 40 -32 11 -171 14 -236 5z m379 -279 c9 -8
16 -22 16 -29 0 -8 10 -33 21 -55 29 -56 37 -165 15 -208 -9 -17 -16 -47 -16
-66 0 -19 -4 -38 -10 -41 -6 -4 -10 15 -10 50 0 44 -4 61 -19 73 -16 14 -19
26 -14 70 4 35 10 52 19 52 19 0 18 6 -11 80 -14 35 -25 70 -25 77 0 18 15 16
34 -3z m547 -1481 c16 -10 29 -21 29 -25 0 -4 4 -8 10 -8 17 0 150 -124 150
-140 0 -5 9 -12 20 -15 11 -3 20 -13 20 -22 0 -8 9 -17 20 -20 11 -3 20 -14
20 -24 0 -11 6 -19 14 -19 8 0 16 -10 18 -22 2 -15 11 -24 26 -26 18 -3 22
-10 22 -43 l0 -39 -80 0 c-64 0 -80 -3 -80 -15 0 -12 -20 -15 -120 -15 -100 0
-120 3 -120 15 0 11 -11 15 -40 15 -29 0 -40 -4 -40 -15 0 -9 -9 -15 -21 -15
-20 0 -21 3 -15 73 3 39 8 117 12 172 6 81 10 102 25 113 11 7 19 20 19 28 0
8 5 14 11 14 6 0 20 11 31 25 23 30 31 30 69 8z m399 -385 c7 -18 15 -36 18
-40 2 -5 -8 -8 -22 -8 -14 0 -26 4 -26 9 0 5 -3 23 -6 40 -9 43 17 42 36 -1z
m-2894 -120 c2 -3 2 -13 -2 -22 -5 -14 -19 -16 -81 -14 -54 1 -77 6 -81 16 -2
8 1 18 9 24 14 9 145 6 155 -4z m44 -58 c0 -5 -4 -10 -10 -10 -5 0 -10 5 -10
10 0 6 5 10 10 10 6 0 10 -4 10 -10z m143 3 c-13 -2 -33 -2 -45 0 -13 2 -3 4
22 4 25 0 35 -2 23 -4z m656 -9 c11 -10 -14 -15 -115 -21 -149 -8 -444 5 -444
21 0 8 71 10 278 8 152 -2 279 -6 281 -8z m337 -61 c-3 -10 -8 -30 -12 -45 -3
-16 -10 -28 -15 -28 -12 0 -11 27 1 35 6 3 10 17 10 31 0 13 5 24 11 24 6 0 8
-8 5 -17z m-151 -444 c-13 -30 -25 -47 -25 -38 0 23 42 116 47 103 2 -6 -8
-35 -22 -65z m-38 -91 c-19 -28 -48 -128 -54 -185 -5 -46 -6 -46 -40 -37 -26
7 -30 26 -8 44 8 7 15 21 15 31 0 11 5 19 10 19 6 0 10 6 10 13 0 15 49 116
65 133 17 19 18 8 2 -18z m-66 -315 c-9 -17 -10 -17 -16 0 -4 9 -4 29 0 45 l7
27 10 -27 c6 -18 6 -34 -1 -45z m-441 -33 c0 -6 -13 -9 -30 -8 -16 1 -30 6
-30 10 0 4 14 8 30 8 17 0 30 -5 30 -10z m120 -60 l0 -31 -127 2 c-149 2 -199
12 -108 23 33 3 92 13 130 20 104 21 105 21 105 -14z m-320 -20 c0 -13 -11
-13 -30 0 -12 8 -11 10 8 10 12 0 22 -4 22 -10z m600 -5 c0 -16 -17 -19 -47
-8 -16 6 -15 8 7 14 38 11 40 10 40 -6z m-473 -31 c-3 -3 -12 -4 -19 -1 -8 3
-5 6 6 6 11 1 17 -2 13 -5z m66 -1 c-7 -2 -19 -2 -25 0 -7 3 -2 5 12 5 14 0
19 -2 13 -5z m303 -79 c-6 -15 -76 -20 -76 -5 0 14 43 21 57 9 10 -8 13 -1 15
33 1 39 2 40 5 11 3 -19 2 -40 -1 -48z m83 9 c11 -21 9 -23 -13 -23 -24 0 -25
2 -14 25 6 14 12 24 13 23 1 -2 8 -13 14 -25z m-108 -63 c21 -12 24 -27 9 -50
-9 -13 -12 -12 -25 4 -15 19 -21 56 -9 56 3 0 14 -5 25 -10z m-193 -57 c2 -8
-6 -13 -22 -13 -19 0 -24 4 -19 15 6 18 34 16 41 -2z m-303 -13 c-3 -5 -12 -7
-20 -3 -21 7 -19 13 6 13 11 0 18 -4 14 -10z m395 0 c0 -5 -6 -10 -14 -10 -8
0 -18 5 -21 10 -3 6 3 10 14 10 12 0 21 -4 21 -10z m-19 -132 c0 -10 2 -10 6
0 2 6 9 12 15 12 7 0 8 -15 4 -41 -4 -26 -2 -46 5 -55 9 -11 8 -14 -5 -14 -39
0 -51 16 -48 64 2 25 8 46 13 46 5 0 9 -6 10 -12z m224 -38 c-5 -8 -11 -8 -17
-2 -6 6 -7 16 -3 22 5 8 11 8 17 2 6 -6 7 -16 3 -22z m-165 -11 c0 -11 -4 -17
-10 -14 -5 3 -10 15 -10 26 0 11 5 17 10 14 6 -3 10 -15 10 -26z m-160 -12 c0
-5 -4 -5 -10 -2 -5 3 -10 14 -10 23 0 15 2 15 10 2 5 -8 10 -19 10 -23z m215
13 c-3 -5 -10 -10 -16 -10 -5 0 -9 5 -9 10 0 6 7 10 16 10 8 0 12 -4 9 -10z
m-5 -40 c0 -5 -14 -10 -31 -10 -17 0 -28 4 -24 10 3 6 17 10 31 10 13 0 24 -4
24 -10z m-1742 -235 c8 -8 -311 -5 -330 3 -10 4 60 6 154 4 94 -1 174 -4 176
-7z m218 4 c3 -5 -33 -9 -80 -9 -47 0 -86 4 -86 9 0 11 159 11 166 0z m-616
-75 c0 -24 -2 -25 -47 -23 -50 3 -65 13 -56 36 3 8 22 13 54 13 46 0 49 -2 49
-26z m240 11 c0 -21 -28 -31 -94 -34 -73 -2 -96 5 -96 30 0 17 8 19 95 19 77
0 95 -3 95 -15z m1872 -35 c-1 -25 -2 -107 -2 -182 0 -81 -4 -139 -10 -143 -6
-3 -10 3 -10 14 0 19 -6 21 -80 21 l-81 0 2 63 c3 83 9 94 54 91 51 -4 85 11
86 38 1 19 3 18 9 -7 7 -28 8 -27 9 13 1 34 -2 42 -17 42 -10 0 -22 3 -26 8
-10 9 -56 10 -56 1 0 -3 -11 -6 -24 -6 -18 0 -26 6 -31 24 -12 50 0 62 73 66
113 6 107 8 104 -43z m110 0 c-2 -24 -7 -47 -12 -50 -4 -3 -8 -44 -8 -92 -1
-80 1 -89 23 -105 13 -10 25 -31 27 -48 3 -30 3 -30 -47 -30 l-50 0 -3 83 c-2
45 1 106 7 135 6 31 6 53 0 55 -10 4 -12 62 -3 87 5 11 16 15 38 13 30 -3 31
-4 28 -48z m-1822 25 c0 -11 -12 -15 -42 -16 -70 -2 -85 2 -73 20 3 6 31 11
61 11 41 0 54 -4 54 -15z m215 0 c0 -12 -141 -23 -161 -12 -8 5 -12 13 -8 18
8 13 169 7 169 -6z m243 3 c-3 -9 -33 -14 -93 -16 -93 -3 -120 1 -110 18 10
16 208 13 203 -2z m162 -33 c0 -38 -3 -45 -20 -45 -15 0 -20 7 -20 28 0 23 -5
28 -27 30 -15 1 -34 9 -42 17 -14 13 -8 15 47 15 l62 0 0 -45z m700 14 c0 -26
-3 -29 -20 -24 -11 3 -20 2 -20 -3 0 -11 -246 -24 -470 -26 l-155 -1 -3 28
c-7 59 -22 57 338 57 l330 0 0 -31z m168 -7 c3 -29 1 -32 -20 -28 -13 3 -42 5
-65 5 -41 1 -43 2 -43 31 l0 31 63 -3 62 -3 3 -33z m-1030 -163 c-2 -38 -9
-74 -15 -80 -16 -16 -156 -11 -183 6 -11 7 -12 121 -2 146 6 12 25 15 90 16
45 0 86 3 89 7 15 15 25 -30 21 -95z m-858 1 l0 -78 -55 -4 -55 -3 0 72 c0 97
1 99 60 95 l50 -4 0 -78z m208 64 c19 11 30 -89 14 -124 -4 -9 -22 -16 -42
-17 -19 -1 -57 -3 -85 -4 l-50 -3 -3 59 c-5 99 -2 104 71 107 43 2 66 -1 74
-11 6 -7 16 -10 21 -7z m777 12 c16 -11 20 -30 23 -110 4 -91 3 -96 -16 -96
-13 0 -22 8 -24 22 -2 13 -12 22 -25 24 -22 4 -28 -5 -24 -33 1 -7 -3 -13 -9
-13 -10 0 -15 201 -5 211 10 11 63 8 80 -5z m-394 -6 c16 -9 19 -22 19 -75 0
-35 -5 -67 -10 -70 -6 -4 -43 -7 -83 -7 l-72 -1 -3 65 c-4 83 9 98 79 98 28 0
59 -5 70 -10z m-191 -74 l0 -74 -57 -5 c-32 -2 -60 -3 -61 -2 -7 7 -14 124 -9
139 5 12 21 16 67 16 l60 0 0 -74z m710 54 c0 -19 7 -20 125 -20 112 0 125 2
126 18 1 16 2 16 6 0 5 -19 33 -25 33 -8 0 6 10 2 22 -10 19 -18 36 -20 142
-22 67 0 127 -1 134 -1 9 1 12 -22 12 -83 0 -54 -4 -84 -11 -84 -7 0 -10 21
-7 60 1 33 0 60 -4 60 -5 0 -8 -22 -8 -49 l0 -50 -35 6 c-23 4 -35 2 -35 -6 0
-6 17 -11 38 -12 30 0 33 -2 17 -9 -11 -5 -139 -8 -285 -8 -165 0 -246 4 -215
8 28 5 137 9 243 9 111 1 192 5 192 10 0 10 -496 5 -512 -5 -4 -3 -8 0 -8 5 0
6 -7 11 -15 11 -12 0 -15 15 -15 78 0 42 5 84 10 92 6 10 10 11 10 3 0 -7 5
-13 10 -13 6 0 10 9 10 20 0 11 5 20 10 20 6 0 10 -9 10 -20z m740 -51 c0 -6
7 -9 15 -5 11 4 15 -1 14 -17 0 -12 -3 -16 -6 -9 -12 30 -23 7 -23 -48 0 -47
3 -60 15 -60 8 0 15 -4 15 -10 0 -6 -27 -10 -60 -10 -33 0 -60 4 -60 10 0 6
18 10 40 10 l40 0 0 45 0 45 -42 2 -43 1 43 4 c53 5 55 23 2 23 -29 0 -40 4
-40 15 0 11 12 15 45 15 26 0 45 -5 45 -11z m583 -136 c30 -4 47 -10 47 -19 0
-11 -20 -14 -90 -14 l-90 0 0 26 c0 26 2 26 43 20 23 -4 63 -10 90 -13z m-353
-19 c0 -14 -8 -16 -46 -10 -26 3 -62 6 -80 6 -19 0 -34 5 -34 10 0 6 33 10 80
10 67 0 80 -3 80 -16z m1129 -62 c5 -10 11 -73 12 -139 3 -145 -2 -153 -84
-153 -31 0 -62 3 -71 6 -21 8 -10 24 15 24 19 0 20 5 13 140 l-7 140 56 0 c44
0 58 -4 66 -18z m-127 -93 c2 -56 0 -103 -4 -106 -21 -12 -28 16 -28 108 0 79
3 99 14 99 12 0 15 -21 18 -101z m-2239 -48 c-1 -56 -4 -109 -7 -117 -4 -10
-22 -14 -61 -14 -30 0 -55 1 -56 3 -5 25 -9 180 -4 205 l6 34 62 -4 62 -4 -2
-103z m144 69 c13 0 15 -13 11 -83 -5 -90 -13 -116 -32 -97 -8 8 -7 13 4 20
12 7 12 12 2 22 -8 8 -12 40 -11 93 1 44 3 72 6 63 2 -10 11 -18 20 -18z
m1517 8 c8 -30 8 -137 0 -175 -6 -30 -7 -30 -88 -37 -87 -7 -116 -2 -116 19 0
9 11 12 38 8 20 -3 53 0 72 5 25 7 29 10 13 11 -21 1 -23 6 -23 55 0 33 -5 56
-12 58 -9 3 -9 12 1 36 11 26 19 31 54 35 23 2 45 4 48 5 4 1 9 -8 13 -20z
m-2135 -4 c23 -5 23 -6 16 -82 -4 -42 -8 -86 -9 -97 -1 -17 -8 -20 -51 -20
l-50 0 -3 85 c-2 47 0 95 3 107 5 23 12 24 94 7z m229 -48 c3 -50 0 -61 -17
-73 -13 -9 -21 -25 -21 -44 0 -27 -3 -29 -39 -29 -46 0 -51 10 -51 112 0 96 2
99 69 96 l56 -3 3 -59z m799 -28 c-6 -50 -15 -88 -21 -89 -16 -1 26 -17 47
-18 15 -1 17 9 17 78 l0 79 48 4 c26 3 54 1 62 -3 13 -7 13 -8 0 -9 -8 -1 5
-9 30 -18 45 -17 45 -18 48 -70 2 -37 -1 -52 -10 -52 -23 0 15 -20 40 -20 18
0 22 5 22 34 0 62 13 156 21 156 5 0 9 -42 9 -94 0 -88 -1 -94 -22 -101 -39
-12 -310 -18 -483 -10 l-165 7 0 93 0 93 44 3 44 4 11 -47 c11 -49 5 -108 -10
-108 -5 0 -9 -7 -9 -15 0 -11 11 -15 41 -15 l41 0 -6 43 c-7 49 -7 127 0 139
3 4 47 8 99 8 56 0 97 4 100 11 12 18 12 6 2 -83z m689 77 c12 -11 13 -33 8
-110 l-7 -95 -83 0 -84 0 0 100 0 100 40 0 c34 0 40 -3 40 -21 0 -18 2 -19 15
-9 8 7 15 18 15 25 0 8 8 16 18 18 9 3 18 5 20 6 2 0 10 -6 18 -14z m160 -7
c10 -33 5 -151 -7 -159 -8 -5 -8 -9 0 -13 23 -15 9 -26 -32 -26 -46 0 -60 6
-50 23 3 5 5 52 4 103 l-2 94 40 0 c32 0 41 -4 47 -22z m100 -37 c4 -7 2 -22
-5 -33 -6 -10 -9 -23 -6 -28 7 -11 -15 -60 -27 -60 -9 0 -11 140 -2 165 7 16
14 8 40 -44z m224 -136 c11 -13 3 -25 -14 -25 -8 0 -9 35 -6 112 l5 113 3 -94
c1 -52 7 -100 12 -106z m-2436 153 c-4 -13 -7 -60 -6 -105 l1 -83 -32 4 c-18
3 -38 5 -44 5 -9 1 -13 17 -13 46 0 43 12 60 23 33 3 -7 6 -1 6 15 1 19 -4 27
-16 28 -14 0 -13 2 5 9 27 12 29 30 2 37 -11 3 -20 12 -20 19 0 10 14 14 51
14 48 0 50 -1 43 -22z m1727 -58 c5 0 9 -27 9 -60 l0 -60 -55 0 c-30 0 -55 3
-56 8 0 4 -3 16 -5 27 -2 11 -2 48 2 83 l6 62 39 0 c24 0 40 5 41 13 1 6 3 -7
5 -30 2 -24 8 -43 14 -43z m-691 14 c0 -8 -4 -14 -10 -14 -5 0 -10 9 -10 21 0
11 5 17 10 14 6 -3 10 -13 10 -21z m-570 -103 c0 -6 -4 -13 -10 -16 -5 -3 -10
1 -10 9 0 9 5 16 10 16 6 0 10 -4 10 -9z"/>
<path d="M5415 3530 c-3 -5 1 -10 9 -10 9 0 16 5 16 10 0 6 -4 10 -9 10 -6 0
-13 -4 -16 -10z"/>
<path d="M5453 2633 c9 -2 23 -2 30 0 6 3 -1 5 -18 5 -16 0 -22 -2 -12 -5z"/>
<path d="M4738 2743 c12 -2 32 -2 45 0 12 2 2 4 -23 4 -25 0 -35 -2 -22 -4z"/>
<path d="M3603 2360 c0 -25 2 -35 4 -22 2 12 2 32 0 45 -2 12 -4 2 -4 -23z"/>
<path d="M3358 2365 c-2 -25 0 -45 4 -45 5 0 8 20 8 45 0 25 -2 45 -4 45 -2 0
-6 -20 -8 -45z"/>
<path d="M3017 7033 c-4 -3 -7 -37 -7 -75 0 -52 4 -70 15 -74 8 -4 15 -12 15
-19 0 -8 11 -27 25 -43 14 -17 25 -35 25 -41 0 -6 6 -11 14 -11 16 0 29 -27
19 -42 -3 -7 -1 -8 6 -4 12 8 41 -10 41 -25 0 -5 -19 -8 -42 -7 -41 3 -43 2
-41 -23 l1 -27 -24 25 c-13 13 -24 28 -24 32 0 5 -7 22 -15 37 -14 28 -15 25
-15 -62 0 -73 3 -94 17 -105 9 -8 17 -12 19 -9 2 3 13 -9 26 -25 13 -17 42
-50 65 -75 24 -25 43 -48 43 -52 0 -5 14 -8 31 -8 30 0 31 1 25 33 -3 17 -14
37 -23 44 -18 14 -21 45 -10 113 3 25 3 34 -1 20 -7 -22 -9 -23 -15 -7 -11 30
-8 37 18 37 14 0 29 -8 35 -20 6 -11 17 -20 25 -20 8 0 15 -8 15 -18 0 -11 13
-23 35 -31 30 -10 37 -10 50 3 16 15 20 54 7 71 -4 6 -30 31 -59 57 -28 26
-48 50 -42 53 5 4 9 16 9 28 -1 20 -2 21 -14 5 -10 -13 -15 -15 -24 -6 -7 7
-12 18 -12 25 0 7 -7 13 -15 13 -8 0 -15 5 -15 11 0 14 -55 69 -69 69 -6 0
-11 6 -11 13 0 6 -23 37 -50 66 -53 58 -57 66 -37 74 6 3 7 6 1 6 -6 1 -14 -2
-17 -6z m123 -405 c0 -7 -5 -20 -10 -28 -8 -12 -10 -9 -10 13 0 15 5 27 10 27
6 0 10 -6 10 -12z"/>
<path d="M5760 6972 c0 -16 72 -32 92 -21 10 5 16 14 13 20 -8 11 -105 12
-105 1z"/>
<path d="M8583 6924 c-16 -12 -16 -15 -3 -23 17 -11 89 -4 105 11 27 25 -70
36 -102 12z"/>
<path d="M3040 6810 c0 -5 5 -10 10 -10 6 0 10 5 10 10 0 6 -4 10 -10 10 -5 0
-10 -4 -10 -10z"/>
<path d="M3042 6733 c5 -25 28 -28 28 -4 0 12 -6 21 -16 21 -9 0 -14 -7 -12
-17z"/>
<path d="M3400 6630 c0 -5 5 -10 10 -10 6 0 10 5 10 10 0 6 -4 10 -10 10 -5 0
-10 -4 -10 -10z"/>
<path d="M9298 4963 c12 -2 32 -2 45 0 12 2 2 4 -23 4 -25 0 -35 -2 -22 -4z"/>
<path d="M9453 4963 c9 -2 25 -2 35 0 9 3 1 5 -18 5 -19 0 -27 -2 -17 -5z"/>
<path d="M7960 4848 c-24 -40 -25 -45 -2 -52 26 -8 310 -15 817 -21 253 -3
520 -8 593 -11 l132 -6 0 50 0 50 -97 12 c-71 9 -260 11 -690 9 l-593 -4 -1
-25 -1 -25 -11 28 c-10 25 -15 27 -69 27 -55 0 -59 -2 -78 -32z m1303 5 c-13
-2 -33 -2 -45 0 -13 2 -3 4 22 4 25 0 35 -2 23 -4z"/>
<path d="M7031 4666 c-8 -9 -8 -21 0 -45 12 -35 -2 -32 184 -32 l110 0 3 39 2
39 -97 6 c-146 10 -189 9 -202 -7z"/>
<path d="M8193 4623 l2 -48 164 0 164 0 2 40 c1 22 -3 43 -9 47 -6 4 -82 8
-168 8 l-157 0 2 -47z"/>
<path d="M9368 4605 l4 -45 64 0 64 0 0 45 0 45 -68 0 -67 0 3 -45z"/>
<path d="M3022 4308 c-9 -9 -12 -147 -12 -560 l0 -548 458 -2 c848 -3 937 -3
892 3 l-45 6 41 1 c32 2 47 9 74 37 19 19 41 35 49 36 9 1 -3 5 -27 11 -36 8
-41 12 -31 24 10 12 3 14 -47 12 -50 -1 -53 -2 -16 -5 53 -5 56 -23 3 -23 -48
0 -79 25 -83 65 l-3 30 135 -3 c74 -1 154 -5 178 -8 33 -4 43 -2 48 11 4 9 3
19 -1 23 -3 4 -59 10 -123 13 l-117 5 106 2 c84 2 108 5 113 17 10 27 -31 35
-179 35 l-146 0 6 323 c4 196 3 327 -3 336 -10 14 -119 30 -212 31 l-55 0 0
57 0 58 -34 -2 c-33 -1 -76 -37 -65 -54 20 -32 -80 -66 -159 -55 -23 4 -160 6
-304 6 -171 -1 -270 3 -283 10 -13 7 -26 7 -37 2 -9 -5 -25 -7 -36 -4 -17 4
-19 12 -15 63 l4 59 -31 0 c-17 0 -36 -5 -43 -12z m1236 -180 c9 -9 11 -83 6
-303 -3 -159 -7 -300 -10 -312 -4 -22 -8 -23 -130 -23 l-126 0 6 28 c3 15 8
158 12 317 3 160 8 293 11 298 7 12 218 8 231 -5z m-1008 -28 c0 -5 -11 -10
-25 -10 -14 0 -28 0 -32 -1 -4 0 -9 4 -11 10 -2 7 11 11 32 11 20 0 36 -4 36
-10z m205 -5 c0 -5 -21 -11 -47 -13 -39 -3 -48 0 -48 13 0 13 9 16 48 13 26
-2 47 -7 47 -13z m225 0 c0 -12 -14 -14 -70 -13 -57 1 -68 3 -59 15 17 19 129
18 129 -2z m160 0 c0 -15 -4 -16 -61 -19 -34 -1 -49 12 -28 25 24 15 89 11 89
-6z m105 -5 c3 -6 -4 -10 -17 -10 -18 0 -20 2 -8 10 19 12 18 12 25 0z m18
-101 c-5 -18 -23 -27 -23 -11 1 25 14 52 20 42 4 -7 5 -21 3 -31z m1 -306 c-3
-87 -10 -162 -16 -168 -5 -6 -67 -10 -141 -11 -105 0 -120 1 -74 8 62 8 107
38 107 71 0 11 8 17 21 17 17 0 20 5 16 21 -4 13 0 22 11 26 33 12 62 55 62
93 0 40 10 100 16 100 2 0 1 -71 -2 -157z m-604 -43 c0 -5 -5 -10 -11 -10 -5
0 -7 5 -4 10 3 6 8 10 11 10 2 0 4 -4 4 -10z"/>
<path d="M4768 3886 c-4 -66 -5 -122 -3 -125 13 -12 15 15 13 125 l-3 119 -7
-119z"/>
<path d="M4890 3990 c0 -5 7 -10 15 -10 8 0 15 5 15 10 0 6 -7 10 -15 10 -8 0
-15 -4 -15 -10z"/>
<path d="M4945 3990 c3 -5 10 -10 16 -10 5 0 9 5 9 10 0 6 -7 10 -16 10 -8 0
-12 -4 -9 -10z"/>
<path d="M5000 3990 c0 -5 5 -10 10 -10 6 0 10 5 10 10 0 6 -4 10 -10 10 -5 0
-10 -4 -10 -10z"/>
<path d="M5065 3991 c-7 -12 12 -24 25 -16 11 7 4 25 -10 25 -5 0 -11 -4 -15
-9z"/>
<path d="M5158 3983 c23 -2 61 -2 85 0 23 2 4 4 -43 4 -47 0 -66 -2 -42 -4z"/>
<path d="M8263 3768 c-4 -7 -7 -258 -5 -558 1 -300 -2 -570 -7 -600 l-9 -55
-1 74 c-1 63 -5 79 -26 107 -32 42 -75 54 -195 54 -164 0 -170 -10 -182 -270
-10 -238 -12 -244 -68 -250 -38 -4 -45 -9 -51 -33 -4 -16 -6 -34 -3 -41 6 -15
90 -23 352 -33 158 -6 172 -8 172 -25 0 -14 8 -18 40 -18 22 0 40 -4 40 -9 0
-4 54 -14 120 -21 88 -9 120 -17 120 -26 0 -10 13 -14 40 -14 29 0 40 4 40 15
0 11 11 15 40 15 27 0 40 4 40 13 0 11 29 15 117 20 66 4 119 11 121 17 2 5
21 10 43 10 21 0 40 3 40 8 4 24 10 58 10 67 1 6 -2 246 -5 535 -4 344 -3 520
3 510 9 -12 11 -12 17 3 3 9 13 17 21 17 13 0 15 -29 14 -202 0 -112 2 -356 5
-543 4 -187 6 -348 6 -357 -1 -14 8 -18 41 -18 23 -1 85 -3 137 -6 52 -2 121
-2 153 2 l57 6 0 104 c0 57 -3 104 -7 104 -5 -1 -19 -7 -33 -15 -14 -8 -42
-14 -62 -15 -38 0 -38 -1 -38 -40 l0 -40 -73 0 c-61 0 -77 3 -92 20 -14 16
-16 23 -7 32 16 16 17 648 2 648 -5 0 -10 18 -10 40 0 22 5 40 10 40 6 0 10
18 10 40 0 22 -4 40 -10 40 -16 0 -13 640 3 641 6 1 -6 5 -28 10 -22 4 -232 8
-467 8 -331 1 -429 -2 -435 -11z m681 -743 c-4 -8 -8 -15 -10 -15 -2 0 -4 7
-4 15 0 8 4 15 10 15 5 0 7 -7 4 -15z m233 -507 c-2 -24 -4 -5 -4 42 0 47 2
66 4 43 2 -24 2 -62 0 -85z m-1288 -123 l2 -125 -27 0 c-22 0 -25 3 -21 23 3
12 9 68 13 125 5 72 11 102 19 102 10 0 13 -32 14 -125z m316 -21 l-5 -96
-144 -2 -145 -1 3 35 c2 19 4 46 5 60 1 24 2 23 39 -13 37 -37 39 -37 120 -37
l82 0 0 44 c0 41 -3 45 -32 56 l-33 11 50 18 c28 10 53 19 57 20 4 0 5 -42 3
-95z m-269 51 c1 -14 -2 -25 -7 -25 -5 0 -9 14 -9 32 0 36 12 31 16 -7z"/>
<path d="M8165 2310 c-3 -5 -1 -10 4 -10 6 0 11 5 11 10 0 6 -2 10 -4 10 -3 0
-8 -4 -11 -10z"/>
<path d="M8018 2303 c12 -2 32 -2 45 0 12 2 2 4 -23 4 -25 0 -35 -2 -22 -4z"/>
<path d="M7956 3218 c-3 -7 -4 -42 -3 -78 l2 -65 68 -3 68 -3 -3 78 -3 78 -63
3 c-44 2 -63 -1 -66 -10z m124 -58 c0 -5 -25 -10 -55 -10 -30 0 -55 5 -55 10
0 6 25 10 55 10 30 0 55 -4 55 -10z"/>
<path d="M7899 3180 c-4 -42 -1 -64 9 -68 8 -2 12 10 12 37 0 23 -4 41 -10 41
-5 0 -10 -4 -11 -10z"/>
<path d="M3010 3160 c0 -20 7 -20 455 -20 261 0 455 4 455 9 0 10 -192 18
-617 26 -288 5 -293 4 -293 -15z"/>
<path d="M7613 3000 c0 -25 2 -35 4 -22 2 12 2 32 0 45 -2 12 -4 2 -4 -23z"/>
<path d="M9355 2450 c-3 -6 -3 -30 1 -55 5 -39 9 -45 30 -45 14 0 27 7 30 15
4 8 13 15 21 15 8 0 11 5 8 10 -3 6 4 10 17 10 19 0 20 2 8 10 -13 9 -12 12 5
22 19 12 18 13 -10 19 -47 10 -103 10 -110 -1z"/>
<path d="M7140 2221 c-128 -12 -6 -21 271 -21 256 0 341 10 208 24 -72 7 -384
5 -479 -3z"/>
<path d="M9070 2215 c0 -8 5 -15 10 -15 6 0 10 7 10 15 0 8 -4 15 -10 15 -5 0
-10 -7 -10 -15z"/>
<path d="M5545 2150 c4 -6 11 -8 16 -5 14 9 11 15 -7 15 -8 0 -12 -5 -9 -10z"/>
<path d="M6312 2135 c0 -16 2 -22 5 -12 2 9 2 23 0 30 -3 6 -5 -1 -5 -18z"/>
<path d="M8937 983 c-4 -3 -7 -172 -7 -375 l0 -368 285 0 285 0 0 90 c0 63 -4
91 -13 97 -34 21 -47 58 -47 135 0 72 2 80 30 112 21 24 27 36 18 39 -10 4
-10 6 0 6 6 1 12 8 12 18 0 15 -2 14 -20 -2 -19 -17 -19 -17 -13 19 3 20 0 49
-8 67 l-13 32 -19 -24 c-19 -24 -19 -24 2 -27 22 -4 25 -19 11 -62 l-8 -25 -1
29 c-1 21 -5 27 -17 22 -11 -4 -18 1 -21 14 -3 11 -9 20 -14 20 -5 0 -9 8 -9
19 0 24 -37 31 -159 32 -87 1 -126 12 -58 16 17 1 53 5 80 9 47 6 47 6 47 45
l0 38 113 4 c110 3 109 3 -43 7 -143 3 -149 4 -70 10 62 5 28 7 -126 8 -116 1
-214 -1 -217 -5z m384 -154 c33 -10 40 -18 54 -57 19 -58 20 -132 1 -132 -7 0
-16 -9 -19 -20 -6 -25 -51 -43 -100 -41 -67 3 -74 -3 -68 -57 3 -26 5 -62 3
-80 -4 -36 -28 -54 -43 -31 -10 16 -12 412 -2 422 11 11 133 8 174 -4z m-364
-311 c-2 -24 -4 -5 -4 42 0 47 2 66 4 43 2 -24 2 -62 0 -85z"/>
<path d="M9190 713 l0 -88 61 3 c59 4 61 5 75 38 21 51 4 114 -32 114 -8 0
-14 5 -14 10 0 6 -20 10 -45 10 l-45 0 0 -87z"/>
<path d="M9453 983 c9 -2 25 -2 35 0 9 3 1 5 -18 5 -19 0 -27 -2 -17 -5z"/>
<path d="M9328 873 c6 -2 18 -2 25 0 6 3 1 5 -13 5 -14 0 -19 -2 -12 -5z"/>
<path d="M9460 874 c0 -9 31 -37 36 -32 9 9 -8 38 -22 38 -8 0 -14 -3 -14 -6z"/>
<path d="M9218 863 c12 -2 32 -2 45 0 12 2 2 4 -23 4 -25 0 -35 -2 -22 -4z"/>
<path d="M9480 570 c0 -22 5 -40 10 -40 6 0 10 18 10 40 0 22 -4 40 -10 40 -5
0 -10 -18 -10 -40z"/>
<path d="M5820 200 c0 -22 5 -40 10 -40 6 0 10 18 10 40 0 22 -4 40 -10 40 -5
0 -10 -18 -10 -40z"/>
</g>
</svg>
