<?xml version="1.0" standalone="no"?>
<!DOCTYPE svg PUBLIC "-//W3C//DTD SVG 20010904//EN"
 "http://www.w3.org/TR/2001/REC-SVG-20010904/DTD/svg10.dtd">
<svg version="1.0" xmlns="http://www.w3.org/2000/svg"
 width="1280.000000pt" height="720.000000pt" viewBox="0 0 1280.000000 720.000000"
 preserveAspectRatio="xMidYMid meet">
<metadata>
Created by potrace 1.16, written by Peter Selinger 2001-2019
</metadata>
<g transform="translate(0.000000,720.000000) scale(0.100000,-0.100000)"
fill="#000000" stroke="none">
<path d="M6173 7188 c-4 -7 -18 -35 -29 -63 -12 -27 -32 -56 -45 -62 -13 -7
-23 -18 -21 -24 4 -15 -48 -107 -64 -113 -8 -3 -14 -15 -14 -26 0 -13 -7 -20
-18 -20 -17 0 -29 -21 -73 -125 -38 -90 -51 -144 -60 -245 -6 -63 -17 -128
-24 -145 -7 -16 -19 -51 -25 -77 -7 -27 -16 -48 -21 -48 -4 0 -13 -18 -19 -40
-6 -22 -17 -40 -24 -40 -7 0 -19 -18 -26 -40 -7 -22 -17 -40 -22 -40 -4 0 -8
-9 -8 -20 0 -12 -10 -31 -22 -43 -26 -25 -46 -54 -54 -79 -4 -10 -13 -18 -20
-18 -8 0 -14 -4 -14 -9 0 -19 21 -22 45 -7 13 9 32 16 42 16 14 0 8 -10 -22
-40 -22 -21 -46 -39 -54 -40 -15 0 -61 -46 -61 -60 0 -5 -13 -24 -30 -42 -16
-18 -30 -38 -30 -45 0 -7 -4 -13 -10 -13 -5 0 -10 -7 -10 -15 0 -17 -11 -34
-52 -75 -16 -16 -28 -33 -28 -39 0 -6 -6 -11 -13 -11 -23 0 -67 -25 -67 -38 0
-7 -11 -18 -25 -24 -14 -6 -25 -17 -25 -25 0 -7 -8 -13 -18 -13 -25 0 -125
-49 -135 -66 -4 -8 -13 -14 -19 -14 -12 0 -82 -45 -106 -67 -7 -7 -33 -13 -56
-13 -27 0 -48 -6 -56 -15 -7 -8 -19 -15 -28 -15 -32 0 -92 -24 -92 -37 0 -8
-12 -13 -35 -13 -51 0 -125 -22 -125 -37 0 -7 -10 -13 -22 -13 -31 0 -138 -33
-138 -42 0 -4 -9 -8 -20 -8 -10 0 -45 -8 -77 -17 -32 -9 -94 -18 -137 -21 -69
-3 -82 -7 -98 -27 -10 -13 -27 -26 -37 -30 -41 -13 -190 64 -191 98 0 9 -6 17
-12 17 -7 0 -27 13 -43 29 -17 15 -48 34 -68 42 -20 7 -37 18 -37 24 0 5 -29
23 -63 39 -34 15 -69 32 -77 37 -41 24 -61 29 -80 16 -21 -12 -27 -27 -11 -27
5 0 27 -18 50 -40 27 -26 50 -40 67 -40 17 0 38 -11 55 -29 15 -16 35 -33 44
-39 15 -8 9 -13 -30 -32 -48 -23 -49 -23 -336 -17 l-289 7 0 -185 0 -185 203
0 c111 0 232 5 268 10 101 14 828 18 837 4 4 -7 41 -15 83 -19 68 -6 79 -5 96
12 15 15 24 17 41 10 12 -6 22 -16 22 -24 0 -9 13 -13 40 -13 24 0 40 5 40 12
0 8 102 10 403 6 237 -3 326 -2 217 2 -102 4 -211 8 -242 9 -47 1 -58 4 -58
17 0 15 9 16 61 10 34 -3 178 -6 320 -6 156 0 259 -4 259 -9 0 -6 -17 -12 -37
-14 -21 -2 -3 -2 40 1 75 4 77 4 77 -19 0 -17 3 -20 9 -10 7 10 10 11 16 1 6
-10 12 -8 23 6 46 61 -36 -246 -109 -404 -24 -52 -68 -234 -84 -342 -2 -14 -4
-27 -4 -30 -1 -6 -151 -4 -423 3 -70 2 -133 0 -140 -4 -7 -5 -16 -3 -20 4 -6
9 -12 9 -26 0 -14 -8 -23 -8 -30 -1 -8 8 -19 7 -39 -1 l-29 -12 -1 -110 c-1
-61 -7 -124 -13 -140 -9 -20 -9 -37 -2 -61 6 -18 9 -103 7 -190 -2 -129 0
-158 11 -158 8 0 14 9 14 21 0 12 8 23 20 26 11 3 20 9 20 14 0 5 8 9 19 9 11
0 21 9 24 21 4 16 9 19 23 11 9 -5 25 -7 35 -5 16 4 19 0 19 -26 0 -17 5 -31
10 -31 18 0 11 -22 -9 -27 -10 -2 -24 -16 -30 -29 -6 -13 -17 -24 -26 -24 -8
0 -16 -4 -16 -10 -1 -5 -2 -14 -3 -19 -2 -19 -16 -24 -31 -11 -11 9 -18 10
-28 1 -16 -13 -27 -5 -27 21 0 10 -7 18 -15 18 -9 0 -15 -9 -15 -22 0 -13 -3
-34 -7 -47 -6 -24 -5 -24 45 -18 31 4 52 2 52 -4 0 -5 11 -2 25 7 13 8 28 13
33 10 5 -3 87 -6 183 -7 96 -1 177 -3 181 -5 3 -2 4 -14 0 -26 l-5 -21 -265 6
c-156 4 -270 11 -276 17 -11 11 -11 111 0 600 4 162 4 292 0 289 -3 -3 -10
-167 -16 -365 -13 -472 -18 -546 -32 -555 -7 -4 -396 -5 -865 -2 l-853 6 0
-21 c0 -21 5 -22 138 -25 l137 -3 -137 -2 c-129 -2 -138 -3 -138 -22 0 -16 8
-19 58 -22 54 -3 57 -4 60 -30 3 -28 3 -28 -57 -28 -54 0 -61 -2 -61 -20 0
-18 7 -20 55 -20 l55 0 0 -95 0 -95 -32 0 c-71 0 -78 -7 -78 -71 0 -48 3 -57
15 -53 8 4 15 1 15 -5 0 -6 -7 -11 -15 -11 -11 0 -15 -11 -15 -40 0 -35 3 -40
24 -40 22 0 24 -5 31 -77 4 -49 3 -79 -3 -81 -5 -1 -8 -12 -5 -22 3 -11 0 -20
-6 -20 -6 0 -11 5 -11 11 0 8 -5 8 -15 -1 -11 -9 -15 -32 -15 -81 0 -61 2 -69
19 -69 18 0 68 -48 89 -86 8 -15 13 -16 25 -6 8 7 18 23 21 36 6 23 36 45 36
26 0 -6 18 -10 40 -10 22 0 40 -4 40 -10 0 -26 32 -5 46 30 16 40 34 53 34 25
0 -11 11 -15 38 -15 30 0 42 -6 62 -31 49 -61 55 -65 59 -43 2 10 7 24 11 29
4 6 11 25 15 42 7 37 21 42 41 16 13 -17 15 -17 28 0 20 25 34 21 41 -14 4
-17 12 -41 19 -54 12 -23 13 -23 28 -6 9 11 22 35 29 55 12 33 16 36 54 36 22
0 49 3 60 6 17 4 22 -2 34 -40 7 -24 19 -53 27 -63 12 -17 13 -16 14 10 0 18
11 40 31 60 28 28 40 32 98 35 l66 4 14 -46 c7 -25 17 -46 22 -46 5 0 9 4 9 9
0 12 59 71 70 71 5 0 11 -6 13 -12 4 -10 6 -10 6 0 1 6 7 12 15 12 9 0 17 -17
21 -47 l8 -48 14 55 14 55 239 0 c132 0 240 -3 240 -6 0 -4 29 -4 64 -2 88 8
112 0 125 -39 l12 -33 19 25 c11 14 20 33 20 44 0 14 5 17 23 12 12 -3 30 -6
40 -6 9 0 17 -7 17 -15 0 -11 11 -15 40 -15 28 0 40 4 40 14 0 9 16 15 48 18
69 7 76 -2 66 -87 -4 -38 -8 -218 -10 -400 -1 -181 -6 -417 -12 -523 -9 -188
-10 -194 -35 -220 -45 -46 -109 -62 -253 -62 -98 1 -134 4 -148 15 -12 9 -42
15 -74 15 -66 0 -112 -24 -112 -58 0 -22 20 -52 35 -52 4 0 14 -9 23 -19 45
-51 237 -126 417 -163 28 -5 67 -19 87 -31 34 -18 36 -22 20 -32 -9 -7 -48
-15 -87 -19 -189 -18 -365 -41 -365 -48 0 -4 -14 -8 -32 -8 -36 0 -118 -28
-118 -40 0 -20 66 -25 220 -18 203 10 330 3 330 -19 0 -8 18 -32 40 -53 22
-21 40 -41 40 -44 0 -3 -18 -6 -40 -6 -33 0 -40 -3 -40 -20 0 -17 -7 -20 -40
-20 l-40 0 0 -51 0 -51 80 7 80 7 0 -86 0 -86 160 0 160 0 0 40 0 40 40 0 c22
0 40 5 40 10 0 6 -17 10 -39 10 -26 0 -46 7 -63 23 -24 23 -25 29 -30 183 -3
88 -1 187 4 219 5 33 11 121 14 195 3 74 5 142 6 150 1 8 -1 27 -5 42 -5 18
-2 31 7 41 8 8 19 50 25 93 5 44 15 106 21 139 5 33 18 104 27 158 9 53 20 97
25 97 4 0 8 36 8 79 0 44 4 81 10 83 12 4 30 280 27 430 -2 103 0 119 16 130
15 11 115 14 510 13 l492 0 -1 -50 c0 -27 -8 -102 -18 -165 -23 -146 -19 -241
28 -620 36 -298 43 -436 27 -605 -9 -100 7 -338 23 -332 8 3 10 -27 8 -100 -3
-87 -6 -107 -23 -124 -12 -12 -19 -33 -19 -59 0 -22 -4 -40 -10 -40 -5 0 -10
-18 -10 -40 l0 -40 175 0 175 0 0 80 c0 79 0 80 -25 80 -22 0 -25 4 -25 40 l0
40 40 0 c33 0 40 3 40 20 0 17 7 20 40 20 l40 0 0 59 c0 59 0 59 -37 74 -21 8
-41 11 -44 6 -3 -5 -14 -3 -25 5 -16 12 -16 15 -4 19 8 3 35 12 60 21 25 9 65
16 88 16 23 0 42 5 42 10 0 6 21 10 48 10 49 0 82 13 68 27 -4 4 -55 10 -112
13 -74 4 -107 9 -113 19 -7 10 -21 12 -55 8 -35 -5 -46 -3 -46 7 0 7 6 18 13
24 20 17 121 41 237 56 110 15 192 38 198 56 2 5 11 10 20 10 10 1 31 9 48 18
119 65 126 141 12 142 -55 0 -78 -7 -78 -26 0 -31 -117 -29 -215 3 -11 4 -25
6 -32 5 -6 -2 -14 2 -18 8 -3 5 -18 10 -33 11 -33 1 -82 28 -96 54 -6 11 -13
22 -16 25 -30 30 -33 63 -26 307 9 317 11 340 25 508 7 78 10 194 7 261 -8
176 -29 164 282 164 138 0 257 3 266 6 35 14 12 21 -61 20 -183 -2 -477 5
-467 12 16 11 40 218 26 234 -15 18 -35 207 -30 281 5 81 25 121 61 125 23 3
27 8 27 35 0 18 -14 84 -30 147 -70 264 -98 479 -99 745 -1 237 -22 429 -67
615 -7 30 -20 93 -29 140 -20 106 -32 166 -41 208 -6 31 -6 32 30 32 23 0 39
5 42 15 4 8 13 15 22 15 12 0 13 -3 4 -12 -7 -7 -12 -16 -12 -20 0 -4 197 -8
438 -8 441 0 1499 -14 1840 -25 l182 -6 0 40 0 39 -72 10 -73 9 73 2 c40 0 72
5 72 11 0 6 -111 11 -297 12 l-298 3 28 26 c23 22 27 35 27 78 0 34 4 51 13
51 6 0 19 15 27 33 8 17 24 36 35 41 26 11 85 127 85 167 0 21 -4 29 -12 26
-38 -16 -68 -33 -68 -38 0 -3 -18 -25 -40 -49 -22 -24 -40 -53 -40 -66 0 -14
-8 -25 -20 -29 -11 -3 -20 -10 -20 -15 0 -5 -21 -24 -47 -41 -27 -18 -55 -40
-63 -48 -21 -22 -56 -41 -75 -41 -8 0 -15 -5 -15 -11 0 -14 -28 -9 -145 26
-49 15 -124 32 -166 39 -43 6 -83 19 -92 28 -9 9 -30 19 -46 23 -16 3 -35 13
-42 21 -6 8 -29 14 -50 14 -21 0 -40 4 -44 9 -3 5 -34 19 -70 31 -36 12 -65
26 -65 31 0 5 -11 9 -25 9 -14 0 -25 4 -25 9 0 12 -121 51 -160 51 -16 0 -30
5 -30 10 0 6 -9 10 -20 10 -11 0 -20 4 -20 8 0 5 -18 17 -40 27 -22 10 -40 24
-40 32 0 7 -9 13 -20 13 -11 0 -20 4 -20 9 0 10 -58 71 -67 71 -15 0 -92 57
-93 68 0 6 -4 12 -9 12 -17 0 -71 61 -71 80 0 9 -7 23 -15 30 -8 7 -15 17 -15
22 0 5 -11 24 -25 42 -14 18 -25 40 -25 49 0 10 -4 17 -8 17 -5 0 -23 20 -40
44 -18 25 -42 48 -53 51 -11 4 -24 16 -28 28 -5 12 -32 34 -60 49 -42 22 -48
28 -32 33 19 6 38 35 22 35 -10 0 -18 39 -30 152 -6 48 -15 83 -25 94 -9 9
-23 29 -31 45 -9 16 -20 29 -25 29 -6 0 -10 9 -10 21 0 21 -57 132 -71 137 -5
2 -9 19 -9 38 0 20 -6 37 -14 40 -8 3 -16 27 -20 55 -9 67 -99 309 -115 309
-3 0 -15 18 -25 41 -11 22 -30 51 -43 65 -13 14 -23 30 -23 35 0 23 -81 119
-100 119 -5 0 -10 5 -10 10 0 16 -347 13 -357 -2z m456 -283 c11 -14 23 -40
26 -58 4 -18 12 -38 18 -45 19 -23 21 -156 3 -208 -9 -26 -16 -63 -16 -81 0
-18 -4 -33 -10 -33 -5 0 -10 25 -10 55 0 34 -6 65 -16 80 -21 32 -16 111 8
109 14 -1 16 4 11 30 -3 17 -10 33 -15 34 -4 2 -6 7 -4 11 3 4 -4 33 -15 66
-22 68 -22 65 -10 65 5 0 19 -11 30 -25z m361 -701 c0 -8 -5 -12 -10 -9 -6 4
-8 11 -5 16 9 14 15 11 15 -7z m121 -794 c19 -16 39 -34 46 -40 7 -5 19 -10
28 -10 8 0 15 -7 15 -15 0 -15 45 -65 60 -65 5 0 24 -13 42 -30 18 -16 38 -30
45 -30 7 0 13 -4 13 -10 0 -5 7 -10 15 -10 9 0 18 -6 21 -14 3 -7 23 -21 45
-31 21 -10 39 -22 39 -27 0 -4 9 -8 20 -8 11 0 20 -4 20 -9 0 -6 18 -20 40
-32 32 -18 40 -28 40 -51 0 -33 31 -68 60 -68 17 0 20 -7 20 -40 l0 -40 -80 0
c-64 0 -80 3 -80 15 0 8 -8 15 -19 15 -10 0 -46 3 -80 6 -58 7 -61 6 -61 -15
0 -20 -4 -21 -120 -21 -116 0 -120 1 -120 21 0 21 -3 22 -61 15 -34 -3 -70 -6
-80 -6 -13 0 -19 -7 -19 -22 0 -14 -3 -19 -10 -12 -12 12 13 473 27 483 5 3
17 23 26 44 23 47 58 50 108 7z m-1368 6 c9 -7 17 -22 17 -34 0 -11 6 -22 13
-24 20 -7 37 -398 17 -398 -5 0 -11 19 -12 43 l-1 42 -4 -41 -4 -41 -112 -5
c-62 -3 -136 -3 -164 -1 l-53 6 0 38 0 39 -69 0 c-38 0 -81 2 -97 4 -16 2 -21
1 -11 -1 12 -3 17 -15 17 -44 0 -39 0 -39 -40 -39 l-40 0 0 40 c0 31 -4 40
-17 40 -17 1 -17 1 0 14 9 7 17 20 17 28 0 15 39 38 65 38 8 0 15 4 15 8 0 5
18 15 39 22 23 7 41 21 44 31 3 12 14 19 30 19 14 0 32 7 41 15 8 8 18 15 23
15 5 0 23 16 42 35 18 19 38 35 44 35 14 1 57 35 57 45 0 13 96 80 120 84 3 0
13 -6 23 -13z m-623 -446 c0 -5 -7 -10 -16 -10 -8 0 -12 5 -9 10 3 6 10 10 16
10 5 0 9 -4 9 -10z m4160 -110 c0 -5 -18 -10 -40 -10 -22 0 -40 5 -40 10 0 6
18 10 40 10 22 0 40 -4 40 -10z m-4631 -46 c22 -5 31 -12 29 -23 -3 -13 -18
-16 -82 -16 -81 0 -102 9 -71 32 20 14 73 17 124 7z m71 -64 c0 -5 -7 -10 -15
-10 -8 0 -15 5 -15 10 0 6 7 10 15 10 8 0 15 -4 15 -10z m409 -958 c0 -11 -3
-12 -6 -4 -2 6 -12 12 -21 12 -14 0 -15 2 -2 9 18 12 30 5 29 -17z m31 8 c0
-5 -2 -10 -4 -10 -3 0 -8 5 -11 10 -3 6 -1 10 4 10 6 0 11 -4 11 -10z m-26
-62 c6 -25 4 -28 -19 -26 -14 1 -25 8 -25 15 0 7 7 10 15 7 11 -4 15 0 15 17
0 28 5 23 14 -13z m104 -16 c2 -7 -6 -12 -17 -12 -21 0 -27 11 -14 24 9 9 26
2 31 -12z m-278 -2 c0 -5 -9 -10 -19 -10 -11 0 -23 5 -26 10 -4 6 5 10 19 10
14 0 26 -4 26 -10z m90 0 c0 -12 -8 -12 -35 0 -18 8 -17 9 8 9 15 1 27 -3 27
-9z m390 0 c0 -5 -10 -10 -22 -10 -19 0 -20 2 -8 10 19 13 30 13 30 0z m-81
-47 c0 -11 -3 -13 -6 -5 -2 6 -17 12 -33 12 -16 0 -31 -6 -33 -12 -3 -8 -6 -6
-6 5 -1 13 7 17 39 17 32 0 40 -4 39 -17z m97 -69 c-6 -17 -62 -19 -72 -2 -5
8 -2 9 9 5 13 -5 17 -1 17 14 0 21 1 20 20 -2 l19 -24 2 45 c2 39 3 40 6 12 3
-19 2 -40 -1 -48z m-218 24 c18 -18 14 -35 -8 -33 -26 2 -34 11 -27 30 8 18
19 19 35 3z m-188 -24 c0 -2 -9 -4 -21 -4 -11 0 -18 4 -14 10 5 8 35 3 35 -6z
m80 6 c0 -5 -10 -10 -22 -10 -19 0 -20 2 -8 10 19 13 30 13 30 0z m211 -2 c18
11 20 11 17 0 -3 -7 -19 -13 -38 -13 -19 0 -35 6 -38 13 -3 11 -1 11 17 0 17
-11 25 -11 42 0z m83 -73 c-4 -8 -1 -15 6 -15 10 0 10 -3 0 -15 -19 -23 -30
-18 -30 15 0 20 5 30 15 30 9 0 12 -6 9 -15z m-191 -17 c14 -22 1 -48 -23 -48
-13 0 -20 7 -20 19 0 48 22 63 43 29z m-293 -32 c0 -11 -19 -15 -25 -6 -3 5 1
10 9 10 9 0 16 -2 16 -4z m115 -6 c-3 -5 -12 -10 -20 -10 -8 0 -17 5 -20 10
-4 6 5 10 20 10 15 0 24 -4 20 -10z m90 0 c-3 -5 -15 -10 -25 -10 -10 0 -22 5
-25 10 -4 6 7 10 25 10 18 0 29 -4 25 -10z m185 0 c0 -5 -7 -10 -15 -10 -8 0
-15 5 -15 10 0 6 7 10 15 10 8 0 15 -4 15 -10z m7 -175 c-1 -30 -6 -55 -12
-55 -24 0 -37 21 -41 64 -3 45 -3 46 26 46 29 0 29 0 27 -55z m20 3 c-3 -8 -6
-5 -6 6 -1 11 2 17 5 13 3 -3 4 -12 1 -19z m-147 -20 c0 -5 -4 -8 -10 -8 -5 0
-10 10 -10 23 0 18 2 19 10 7 5 -8 10 -18 10 -22z m-1532 -263 c8 -8 -311 -5
-330 3 -10 4 60 6 154 4 94 -1 174 -4 176 -7z m218 3 c3 -4 -33 -8 -80 -8 -52
0 -86 4 -86 10 0 13 158 11 166 -2z m-616 -73 c0 -25 -2 -26 -51 -24 -52 3
-65 10 -55 34 4 11 21 15 56 15 47 0 50 -2 50 -25z m240 11 c0 -22 -19 -30
-85 -34 -78 -4 -105 3 -105 28 0 19 7 20 95 20 76 0 95 -3 95 -14z m377 -9
c-6 -18 -147 -25 -164 -9 -23 23 -8 27 82 24 60 -3 85 -7 82 -15z m1103 -16
c0 -34 -9 -44 -27 -30 -9 8 -13 8 -13 1 0 -11 -140 -19 -427 -24 l-153 -3 0
-42 0 -43 69 0 c119 0 191 11 192 29 0 11 3 8 9 -6 11 -27 30 -30 31 -5 1 13
2 14 5 2 9 -31 42 -39 173 -41 l131 -2 0 -79 c0 -43 -3 -78 -7 -78 -5 0 -6 25
-5 55 3 35 0 55 -7 55 -6 0 -11 -19 -11 -44 l0 -44 -232 -7 c-232 -7 -347 -6
-380 2 -15 4 -18 16 -18 84 0 72 2 79 20 79 17 0 20 7 20 39 0 30 -4 40 -20
44 -15 4 -20 14 -20 41 0 20 6 38 14 43 8 4 159 7 335 5 l321 -3 0 -28z
m-1320 14 c0 -11 -12 -15 -42 -16 -70 -2 -85 2 -73 20 3 6 31 11 61 11 41 0
54 -4 54 -15z m458 3 c-3 -9 -33 -13 -103 -13 -70 0 -100 4 -102 13 -4 9 21
12 102 12 81 0 106 -3 103 -12z m162 -33 c0 -38 -3 -45 -20 -45 -16 0 -20 7
-20 30 0 17 -3 29 -7 29 -29 -5 -62 3 -67 16 -4 12 5 15 54 15 l60 0 0 -45z
m868 10 l3 -30 -66 3 c-65 4 -65 4 -65 33 l0 30 63 -3 c61 -3 62 -4 65 -33z
m117 5 c0 -14 9 -33 20 -42 20 -17 20 -17 -2 -18 -13 0 -23 6 -23 13 0 8 -3 8
-8 2 -4 -6 -17 -12 -29 -12 -16 -1 -23 6 -28 28 -8 38 10 61 44 57 20 -2 26
-9 26 -28z m1000 -181 c0 -128 -2 -144 -17 -144 -9 0 -20 -4 -24 -8 -4 -4 -11
-7 -16 -7 -9 0 -11 303 -2 312 3 3 17 3 32 -1 l27 -7 0 -145z m-105 -10 l0
-149 -109 0 -108 0 -7 31 c-8 40 -8 110 0 188 l7 61 41 0 c23 0 46 4 52 9 9 9
101 19 117 13 4 -2 7 -70 7 -153z m230 141 c3 -5 38 -12 78 -16 123 -12 117 5
117 -316 l0 -273 -35 0 c-19 0 -41 -4 -48 -8 -19 -13 -115 -20 -156 -13 -37 7
-41 26 -5 26 10 0 19 6 19 14 0 25 -12 46 -26 46 -20 0 -25 33 -22 130 3 73 5
85 20 82 9 -1 19 2 23 7 3 6 11 8 18 6 7 -2 40 -6 75 -10 48 -5 62 -3 60 7 -2
7 7 14 20 16 16 2 22 10 22 28 0 22 -4 24 -45 24 -32 0 -45 -4 -45 -14 0 -15
-80 -25 -122 -16 -22 6 -23 10 -28 145 -3 88 -1 143 5 147 11 9 67 -1 75 -12z
m-2272 -122 c-2 -37 -9 -73 -15 -79 -20 -20 -171 -9 -185 13 -10 16 -10 129 0
143 4 6 45 11 92 12 60 0 85 4 89 14 9 29 22 -40 19 -103z m-858 2 l0 -78 -55
-4 -55 -3 0 81 c0 44 2 83 4 85 2 2 27 2 55 1 l51 -4 0 -78z m226 24 c9 -48
-3 -107 -21 -100 -8 3 -16 0 -19 -7 -4 -8 -8 -8 -11 -2 -3 7 -28 9 -66 5 -33
-3 -62 -4 -64 -1 -8 7 -5 135 3 148 11 17 112 21 144 5 19 -9 29 -24 34 -48z
m759 52 c16 -11 20 -30 23 -110 4 -91 3 -96 -16 -96 -14 0 -22 8 -24 22 -5 34
-50 32 -59 -2 -4 -14 -7 22 -8 82 -1 103 0 107 22 111 39 8 43 7 62 -7z m-622
-5 l37 -1 0 -74 0 -74 -57 -5 c-32 -2 -59 -3 -61 -2 -7 7 -14 115 -9 137 5 18
13 24 29 22 13 -1 40 -3 61 -3z m236 -5 c12 -8 16 -132 3 -140 -4 -2 -41 -6
-82 -7 l-75 -2 -3 58 c-5 98 -4 100 76 99 38 -1 74 -4 81 -8z m1496 -111 c5
-79 4 -103 -7 -111 -16 -13 -168 -6 -168 7 0 5 19 10 43 11 l42 1 -38 4 -37 4
1 62 c3 86 9 95 60 91 47 -4 79 9 79 33 0 11 3 13 9 8 5 -6 12 -55 16 -110z
m545 -15 l0 -110 -40 0 -40 0 0 40 c0 22 4 48 10 58 5 9 17 35 26 57 17 40 33
65 40 65 2 0 4 -49 4 -110z m-787 58 c10 -33 -5 -48 -49 -48 -57 0 -58 19 -1
22 l42 1 -42 4 c-29 3 -43 9 -43 19 0 18 86 20 93 2z m24 -30 c-3 -7 -5 -2 -5
12 0 14 2 19 5 13 2 -7 2 -19 0 -25z m0 -80 c-2 -13 -4 -3 -4 22 0 25 2 35 4
23 2 -13 2 -33 0 -45z m1523 -173 c0 -172 -4 -205 -26 -205 -12 0 -14 39 -13
223 l1 222 19 -40 c16 -34 18 -64 19 -200z m-1530 135 c0 -13 -16 -15 -65 -12
-57 5 -58 20 -2 24 47 3 67 0 67 -12z m-190 1 c0 -5 -10 -11 -22 -15 -33 -8
-543 -7 -534 1 4 4 114 10 244 13 130 4 254 7 275 8 20 1 37 -2 37 -7z m1325
-202 l0 -144 -30 0 -30 0 -3 139 c-3 145 0 154 41 151 22 -2 22 -4 22 -146z
m-107 -24 l-3 -116 -70 -4 c-38 -3 -89 -2 -112 1 l-43 6 0 107 c0 58 4 111 8
116 11 16 123 19 133 3 5 -7 9 -55 9 -105 l0 -93 28 0 27 0 -3 91 c-2 51 -1
103 3 118 14 55 26 -9 23 -124z m-2050 65 c1 -30 -1 -82 -5 -115 l-8 -60 -59
0 -59 0 -3 85 c-1 47 0 100 3 118 l6 34 61 -4 61 -4 3 -54z m1989 28 c-3 -7
-5 -2 -5 12 0 14 2 19 5 13 2 -7 2 -19 0 -25z m-2277 11 c0 -8 4 -9 13 0 21
17 27 3 27 -63 0 -50 -4 -63 -20 -74 -14 -8 -20 -23 -20 -47 0 -34 -1 -35 -39
-35 -35 0 -39 3 -45 31 -8 40 -8 147 0 177 5 18 13 22 45 22 22 0 39 -5 39
-11z m426 -19 c11 0 14 -17 14 -77 0 -85 -11 -116 -32 -95 -9 9 -9 12 4 12 11
0 15 6 11 21 -4 16 -8 17 -14 7 -5 -7 -8 24 -8 77 1 50 3 82 6 73 2 -10 11
-18 19 -18z m411 -67 c-6 -52 -15 -93 -21 -94 -16 -1 26 -17 47 -18 15 -1 17
9 17 79 l0 80 44 0 c49 0 101 -16 128 -39 22 -19 26 -111 6 -111 -23 0 16 -20
40 -20 18 0 22 5 22 34 0 62 13 156 21 156 5 0 9 -42 9 -94 0 -88 -1 -94 -22
-101 -37 -11 -260 -16 -460 -9 l-188 7 0 95 0 94 40 -4 c22 -2 41 1 43 7 2 5
7 -26 12 -70 5 -55 4 -80 -4 -83 -6 -2 -11 -10 -11 -18 0 -10 12 -14 40 -14
l40 0 0 95 0 95 94 0 c78 0 95 3 100 16 13 33 14 7 3 -83z m1185 -16 c3 -87 3
-88 31 -94 42 -9 32 -23 -17 -23 -41 0 -44 2 -50 31 -3 17 -3 69 1 116 5 70 8
82 19 71 9 -9 15 -45 16 -101z m873 3 c4 -41 12 -80 17 -87 13 -16 1 -33 -23
-33 -18 0 -19 8 -18 118 0 126 12 128 24 2z m-3150 90 c3 -5 15 -6 28 -1 14 6
30 5 41 -1 16 -9 17 -19 11 -87 -4 -42 -8 -85 -9 -95 -1 -17 -9 -20 -53 -22
l-53 -2 0 103 c0 56 3 105 7 108 9 10 21 9 28 -3z m2334 -82 l-2 -93 -10 77
c-9 71 -6 108 8 108 3 0 4 -42 4 -92z m-2511 66 c18 -5 15 -31 -5 -38 -37 -14
-100 24 -77 47 6 5 51 1 82 -9z m549 -56 c-2 -13 -4 -3 -4 22 0 25 2 35 4 23
2 -13 2 -33 0 -45z m493 22 c0 -22 -4 -40 -10 -40 -5 0 -10 18 -10 40 0 22 5
40 10 40 6 0 10 -18 10 -40z m680 0 c0 -22 5 -40 10 -40 6 0 10 -27 10 -60 l0
-60 -55 0 c-30 0 -55 3 -56 8 0 4 -2 16 -5 27 -2 11 -1 53 2 93 l6 72 44 0 44
0 0 -40z m194 18 c3 -13 6 -58 6 -100 l0 -78 -65 0 -65 0 0 100 0 100 59 0
c52 0 59 -2 65 -22z m-1917 -115 l1 -73 -31 5 c-18 2 -38 4 -44 4 -17 1 -17
83 -1 99 10 10 10 15 -1 22 -11 6 -7 9 15 13 58 9 59 7 61 -70z m820 35 c-3
-8 -6 -5 -6 6 -1 11 2 17 5 13 3 -3 4 -12 1 -19z m1561 -33 c-7 -86 -28 -95
-28 -12 0 55 3 67 16 67 14 0 16 -9 12 -55z m-1908 -34 c0 -6 -4 -13 -10 -16
-5 -3 -10 1 -10 9 0 9 5 16 10 16 6 0 10 -4 10 -9z"/>
<path d="M7520 4976 c0 -10 9 -16 21 -16 24 0 21 23 -4 28 -10 2 -17 -3 -17
-12z"/>
<path d="M4738 2743 c12 -2 32 -2 45 0 12 2 2 4 -23 4 -25 0 -35 -2 -22 -4z"/>
<path d="M4898 2743 c12 -2 32 -2 45 0 12 2 2 4 -23 4 -25 0 -35 -2 -22 -4z"/>
<path d="M6368 2434 c-2 -25 0 -48 4 -50 5 -3 8 18 8 45 0 64 -7 66 -12 5z"/>
<path d="M3600 2358 c-3 -26 -1 -43 3 -39 5 5 7 26 5 47 l-3 39 -5 -47z"/>
<path d="M3363 2360 c0 -25 2 -35 4 -22 2 12 2 32 0 45 -2 12 -4 2 -4 -23z"/>
<path d="M3011 6963 c-1 -47 3 -75 12 -80 6 -4 18 -20 26 -35 8 -16 38 -53 68
-84 29 -31 53 -61 53 -66 0 -5 -19 -8 -42 -6 -41 3 -43 2 -41 -23 l1 -27 -24
25 c-28 28 -31 43 -8 43 9 0 14 7 12 17 -4 22 -28 29 -28 9 0 -9 -7 -16 -15
-16 -23 0 -21 -132 2 -151 9 -8 18 -13 20 -11 2 1 22 -19 44 -45 88 -104 98
-113 125 -113 25 0 26 2 20 33 -3 17 -14 37 -23 44 -18 14 -21 45 -10 113 3
25 3 34 -1 20 -7 -22 -9 -23 -15 -7 -11 30 -8 37 18 37 14 0 29 -8 35 -20 6
-11 17 -20 25 -20 9 0 15 -10 15 -25 0 -22 4 -25 34 -25 88 0 89 36 4 128 -34
37 -67 73 -73 80 -5 7 -18 22 -27 33 -10 10 -18 22 -18 25 0 10 -58 64 -69 64
-6 0 -11 6 -11 13 0 6 -19 33 -43 58 -23 25 -47 54 -54 65 -10 16 -12 7 -12
-53z m129 -335 c0 -7 -5 -20 -10 -28 -8 -12 -10 -9 -10 13 0 15 5 27 10 27 6
0 10 -6 10 -12z"/>
<path d="M5780 6971 c-22 -7 -23 -9 -7 -16 35 -15 92 -11 92 5 0 17 -46 23
-85 11z"/>
<path d="M8583 6924 c-16 -12 -16 -15 -3 -23 17 -11 89 -4 105 11 27 25 -70
36 -102 12z"/>
<path d="M3032 6805 c-9 -11 -10 -20 -3 -33 9 -15 10 -15 11 6 0 12 5 22 10
22 6 0 10 5 10 10 0 14 -13 12 -28 -5z"/>
<path d="M3060 6490 c0 -5 5 -10 11 -10 5 0 7 5 4 10 -3 6 -8 10 -11 10 -2 0
-4 -4 -4 -10z"/>
<path d="M7120 5954 c0 -9 7 -14 17 -12 25 5 28 28 4 28 -12 0 -21 -6 -21 -16z"/>
<path d="M9258 4963 c34 -2 90 -2 125 0 34 2 6 3 -63 3 -69 0 -97 -1 -62 -3z"/>
<path d="M7063 4673 c-27 -5 -30 -20 -5 -26 16 -4 16 -5 0 -6 -12 -1 -18 -9
-18 -26 0 -25 0 -25 98 -25 53 0 113 -3 132 -5 19 -3 41 -2 48 3 12 8 21 67
11 76 -7 6 -242 15 -266 9z"/>
<path d="M8192 4623 l3 -48 164 0 164 0 2 40 c1 22 -3 43 -9 47 -6 4 -82 8
-169 8 l-158 0 3 -47z"/>
<path d="M9368 4605 l4 -45 64 0 64 0 0 45 0 45 -68 0 -67 0 3 -45z"/>
<path d="M3022 4308 c-9 -9 -12 -147 -12 -560 l0 -548 373 -1 c204 0 518 -1
697 -2 179 -1 305 1 280 4 l-45 6 39 1 c30 2 47 10 73 37 19 19 43 35 54 35
18 0 19 2 6 14 -9 9 -47 17 -101 22 -93 7 -119 21 -114 58 3 20 7 21 138 18
74 -1 154 -5 178 -8 33 -4 43 -2 49 11 11 29 -17 35 -169 35 -81 0 -149 3
-151 8 -3 4 61 6 143 4 125 -3 148 -1 153 12 11 28 -29 37 -166 36 -72 -1
-138 -1 -145 -1 -11 1 -12 60 -7 324 4 210 3 327 -4 337 -10 15 -107 28 -211
29 l-55 1 0 57 0 58 -34 -2 c-33 -1 -76 -37 -65 -54 20 -32 -80 -66 -159 -55
-23 4 -163 6 -310 6 -191 -1 -273 2 -283 11 -10 8 -18 8 -27 1 -7 -6 -23 -8
-36 -5 -22 5 -23 10 -19 64 l4 59 -31 0 c-17 0 -36 -5 -43 -12z m1237 -182 c8
-9 10 -92 6 -292 -4 -154 -8 -294 -11 -311 l-5 -33 -125 0 -126 0 6 28 c3 15
8 158 12 317 3 160 8 293 11 298 2 4 53 7 112 7 80 0 112 -4 120 -14z m-1011
-28 c-5 -15 -60 -16 -65 -2 -2 6 13 11 32 12 24 1 35 -3 33 -10z m207 -3 c0
-5 -21 -11 -47 -13 -39 -3 -48 0 -48 13 0 13 9 16 48 13 26 -2 47 -7 47 -13z
m225 0 c0 -12 -14 -14 -70 -13 -57 1 -68 3 -59 15 17 19 129 18 129 -2z m160
1 c0 -9 -15 -15 -46 -18 -47 -3 -67 7 -43 23 23 15 89 11 89 -5z m123 -107
c-5 -18 -23 -27 -23 -11 1 25 14 52 20 42 4 -7 5 -21 3 -31z m3 -306 c-4 -135
-7 -159 -22 -170 -20 -15 -104 -18 -104 -4 0 5 -10 11 -22 13 l-23 3 23 20
c12 11 22 27 22 37 0 12 8 18 21 18 17 0 20 5 16 21 -4 15 0 23 14 26 23 6 63
68 56 87 -5 14 11 106 19 106 3 0 2 -71 0 -157z m-606 -43 c0 -5 -5 -10 -11
-10 -5 0 -7 5 -4 10 3 6 8 10 11 10 2 0 4 -4 4 -10z m400 -105 c0 -9 -9 -15
-22 -15 -22 1 -23 1 -4 15 25 19 26 19 26 0z m-17 -32 c-13 -2 -33 -2 -45 0
-13 2 -3 4 22 4 25 0 35 -2 23 -4z"/>
<path d="M4820 3985 c-22 -13 -23 -14 -5 -15 30 0 65 11 65 21 0 13 -32 10
-60 -6z"/>
<path d="M4890 3990 c0 -5 7 -10 15 -10 8 0 15 5 15 10 0 6 -7 10 -15 10 -8 0
-15 -4 -15 -10z"/>
<path d="M4945 3990 c-3 -5 1 -10 9 -10 8 0 18 5 21 10 3 6 -1 10 -9 10 -8 0
-18 -4 -21 -10z"/>
<path d="M5000 3990 c0 -5 7 -10 15 -10 8 0 15 5 15 10 0 6 -7 10 -15 10 -8 0
-15 -4 -15 -10z"/>
<path d="M5055 3990 c-20 -8 -20 -9 1 -9 12 -1 50 -3 85 -6 61 -4 62 -4 14 4
-27 5 -57 11 -65 14 -8 3 -24 2 -35 -3z"/>
<path d="M5245 3980 c-3 -5 3 -10 14 -10 12 0 21 5 21 10 0 6 -6 10 -14 10 -8
0 -18 -4 -21 -10z"/>
<path d="M8263 3763 c-8 -19 -9 -159 -6 -718 1 -214 -2 -412 -6 -440 l-8 -50
-2 71 c-2 129 -46 162 -216 163 -169 1 -174 -7 -187 -269 -11 -239 -12 -244
-68 -250 -38 -4 -45 -9 -51 -33 -16 -58 -27 -56 369 -73 140 -6 152 -8 152
-25 0 -15 8 -19 40 -19 22 0 40 -4 40 -9 0 -5 36 -12 80 -16 44 -4 80 -11 80
-16 0 -5 18 -9 40 -9 22 0 40 -4 40 -10 0 -5 18 -10 40 -10 29 0 40 4 40 15 0
11 11 15 40 15 27 0 40 4 40 13 0 11 29 15 117 20 66 4 119 11 121 17 2 5 21
10 43 10 21 0 40 3 40 8 7 39 9 85 9 262 0 113 -2 356 -6 540 -3 213 -2 330 4
321 7 -9 12 -10 16 -2 4 6 14 11 22 11 13 0 14 -24 10 -167 -3 -93 -5 -179 -6
-193 -1 -14 3 -52 9 -85 8 -47 13 -318 12 -657 0 -14 9 -18 42 -18 23 0 85 -3
137 -6 52 -2 121 -2 153 2 l57 6 0 104 c0 57 -3 104 -7 104 -5 -1 -19 -7 -33
-15 -14 -8 -42 -14 -62 -15 -37 0 -38 -1 -38 -39 l0 -39 -64 -4 c-35 -1 -70
-2 -78 0 -21 4 -41 41 -29 56 13 15 13 646 0 646 -5 0 -9 168 -9 404 l0 404
-22 6 c-13 3 -218 6 -456 6 -399 0 -433 -1 -439 -17z m687 -732 c0 -17 -18
-21 -24 -6 -3 9 0 15 9 15 8 0 15 -4 15 -9z m-640 -235 c0 -3 -4 -8 -10 -11
-5 -3 -10 -1 -10 4 0 6 5 11 10 11 6 0 10 -2 10 -4z m867 -278 c-2 -24 -4 -5
-4 42 0 47 2 66 4 43 2 -24 2 -62 0 -85z m-1288 -123 l2 -125 -27 0 c-22 0
-25 3 -21 23 3 12 9 68 13 125 5 72 10 102 19 102 10 0 13 -31 14 -125z m316
-22 c-5 -99 -10 -119 -21 -89 -4 10 -10 13 -13 8 -3 -5 -63 -11 -133 -14
l-127 -5 3 36 c2 20 4 51 5 69 1 27 5 32 24 31 18 -1 19 -2 3 -6 -16 -4 -13
-10 20 -44 31 -32 45 -39 76 -39 31 0 38 4 38 20 0 17 7 20 40 20 36 0 40 3
40 25 0 18 -7 26 -25 31 -14 3 -25 9 -25 13 0 6 74 38 92 40 4 1 5 -42 3 -96z
m982 -35 c-2 -13 -4 -3 -4 22 0 25 2 35 4 23 2 -13 2 -33 0 -45z"/>
<path d="M8038 2303 c23 -2 61 -2 85 0 23 2 4 4 -43 4 -47 0 -66 -2 -42 -4z"/>
<path d="M7956 3218 c-3 -7 -4 -42 -3 -78 l2 -65 68 -3 68 -3 -3 78 -3 78 -63
3 c-44 2 -63 -1 -66 -10z m124 -58 c0 -5 -25 -10 -55 -10 -30 0 -55 5 -55 10
0 6 25 10 55 10 30 0 55 -4 55 -10z"/>
<path d="M7899 3180 c-4 -42 -1 -64 9 -68 8 -2 12 10 12 37 0 23 -4 41 -10 41
-5 0 -10 -4 -11 -10z"/>
<path d="M3010 3161 c0 -21 0 -21 455 -21 258 0 455 4 455 9 0 5 -111 12 -247
15 -137 3 -341 9 -455 12 -206 6 -208 6 -208 -15z"/>
<path d="M7613 3000 c0 -25 2 -35 4 -22 2 12 2 32 0 45 -2 12 -4 2 -4 -23z"/>
<path d="M9354 2450 c-6 -6 -8 -29 -5 -53 5 -37 9 -42 34 -45 18 -2 29 2 33
12 3 9 13 16 21 16 8 0 11 5 8 10 -3 6 2 10 12 11 10 0 13 3 6 6 -18 7 -16 23
2 23 31 0 14 18 -22 24 -54 8 -78 7 -89 -4z"/>
<path d="M9070 2215 c0 -8 5 -15 10 -15 6 0 10 7 10 15 0 8 -4 15 -10 15 -5 0
-10 -7 -10 -15z"/>
<path d="M8930 969 c-8 -15 -10 -121 -4 -375 l7 -354 283 0 284 0 0 90 c0 63
-4 91 -13 97 -34 21 -47 58 -47 136 0 74 2 80 30 109 18 17 30 40 30 55 0 25
-1 25 -19 9 -19 -17 -19 -16 -14 22 3 24 0 49 -9 66 -14 26 -16 27 -31 11 -23
-22 -21 -35 4 -35 19 0 20 -4 15 -35 -4 -19 -2 -45 4 -57 11 -22 10 -22 -4 -4
-9 11 -16 31 -16 44 0 18 -4 23 -16 18 -11 -4 -18 1 -21 14 -3 11 -9 20 -14
20 -5 0 -9 12 -9 26 0 14 -3 23 -7 21 -5 -3 -44 -2 -88 3 -64 6 -71 8 -35 10
l45 3 -45 7 -45 7 43 1 42 2 0 40 0 39 113 4 c109 3 107 3 -43 6 -107 3 -141
6 -110 11 28 4 -20 8 -127 8 -165 2 -173 1 -183 -19z m22 -254 c3 -138 2 -200
-2 -145 -8 99 -13 396 -6 389 2 -2 5 -112 8 -244z m374 113 c27 -9 37 -21 49
-57 19 -57 20 -131 1 -131 -7 0 -16 -8 -19 -19 -6 -25 -58 -49 -95 -43 -38 5
-85 -5 -77 -17 8 -14 9 -114 1 -139 -8 -25 -31 -29 -39 -8 -5 11 -11 376 -8
419 1 12 152 8 187 -5z"/>
<path d="M9190 710 l0 -90 39 0 c63 0 89 14 100 55 12 45 7 76 -16 92 -10 7
-23 17 -30 23 -7 5 -30 10 -53 10 l-40 0 0 -90z"/>
<path d="M9328 873 c6 -2 18 -2 25 0 6 3 1 5 -13 5 -14 0 -19 -2 -12 -5z"/>
<path d="M9370 870 c0 -5 5 -10 10 -10 6 0 10 5 10 10 0 6 -4 10 -10 10 -5 0
-10 -4 -10 -10z"/>
<path d="M9460 874 c0 -9 31 -37 36 -32 9 9 -8 38 -22 38 -8 0 -14 -3 -14 -6z"/>
<path d="M9487 603 c-11 -10 -8 -71 3 -78 6 -4 10 12 10 39 0 47 -2 51 -13 39z"/>
<path d="M7218 553 c12 -2 32 -2 45 0 12 2 2 4 -23 4 -25 0 -35 -2 -22 -4z"/>
</g>
</svg>
