<?xml version="1.0" standalone="no"?>
<!DOCTYPE svg PUBLIC "-//W3C//DTD SVG 20010904//EN"
 "http://www.w3.org/TR/2001/REC-SVG-20010904/DTD/svg10.dtd">
<svg version="1.0" xmlns="http://www.w3.org/2000/svg"
 width="1280.000000pt" height="720.000000pt" viewBox="0 0 1280.000000 720.000000"
 preserveAspectRatio="xMidYMid meet">
<metadata>
Created by potrace 1.16, written by Peter Selinger 2001-2019
</metadata>
<g transform="translate(0.000000,720.000000) scale(0.100000,-0.100000)"
fill="#000000" stroke="none">
<path d="M6247 7106 c-63 -17 -81 -35 -96 -98 -13 -56 -41 -121 -54 -126 -4
-2 -10 -21 -13 -43 -4 -21 -10 -39 -15 -39 -4 0 -11 -17 -15 -37 -4 -21 -17
-60 -30 -87 -13 -28 -24 -56 -24 -64 0 -8 -6 -28 -14 -45 -30 -66 -57 -166
-63 -230 -3 -37 -10 -70 -14 -73 -5 -3 -9 -12 -9 -19 0 -8 -13 -43 -30 -77
-16 -34 -30 -67 -30 -75 0 -7 -4 -13 -9 -13 -5 0 -17 -24 -26 -52 -10 -29 -24
-64 -32 -76 -8 -13 -12 -26 -9 -29 3 -3 -4 -17 -14 -31 -11 -13 -20 -31 -20
-38 0 -8 -4 -14 -10 -14 -5 0 -7 -7 -4 -15 8 -19 24 -20 24 -1 0 7 11 16 25
18 30 6 31 0 8 -47 -9 -20 -24 -35 -34 -35 -9 0 -19 -7 -23 -15 -3 -8 -12 -15
-21 -15 -9 0 -15 -9 -15 -25 0 -14 -6 -25 -13 -25 -8 0 -20 -18 -27 -40 -7
-22 -19 -40 -27 -40 -7 0 -13 -11 -13 -25 0 -13 -4 -34 -9 -47 -5 -13 -17 -52
-26 -88 -10 -36 -24 -79 -31 -97 -8 -17 -14 -38 -14 -47 0 -9 -4 -16 -8 -16
-9 0 -66 -119 -77 -160 -13 -51 -28 -80 -40 -80 -16 0 -25 -22 -25 -60 0 -15
-16 -61 -35 -101 -19 -41 -36 -94 -38 -119 -13 -160 44 -447 122 -615 34 -73
82 -204 79 -217 -2 -15 21 -88 33 -104 16 -20 49 -187 49 -246 0 -32 5 -58 10
-58 6 0 10 -5 10 -11 0 -5 -4 -8 -9 -5 -4 3 -11 -47 -14 -112 -5 -110 -13
-175 -39 -317 -6 -33 -13 -85 -15 -115 -3 -30 -9 -59 -13 -65 -4 -5 -11 -37
-14 -70 -4 -33 -9 -78 -12 -101 l-5 -41 68 -26 c37 -15 83 -30 101 -33 17 -4
32 -10 32 -14 0 -4 19 -10 42 -14 22 -4 53 -13 67 -22 14 -8 46 -20 70 -27 44
-12 49 -17 71 -72 l12 -30 12 30 c10 25 13 27 19 11 4 -10 9 -43 12 -74 3 -32
8 -76 10 -99 4 -39 2 -43 -17 -43 -19 0 -20 -4 -16 -65 4 -48 2 -67 -8 -76 -8
-6 -14 -20 -14 -30 0 -11 -4 -19 -10 -19 -5 0 -10 -13 -10 -29 0 -16 -6 -36
-13 -43 -7 -7 -19 -29 -27 -48 -8 -19 -19 -38 -26 -42 -6 -4 -15 -24 -18 -43
-4 -19 -10 -35 -15 -35 -4 0 -16 -26 -26 -57 -10 -32 -21 -67 -26 -78 -4 -11
-13 -51 -19 -90 -7 -38 -19 -97 -26 -130 -8 -33 -22 -170 -30 -305 -16 -265
-40 -386 -98 -495 -23 -42 -26 -60 -24 -120 3 -70 3 -70 33 -73 17 -2 37 -9
45 -17 8 -7 33 -21 55 -30 22 -10 48 -25 58 -34 27 -23 155 -30 321 -20 92 6
143 13 148 22 4 6 8 31 8 54 0 37 -4 44 -30 58 -16 9 -30 20 -30 25 0 6 -9 10
-21 10 -21 0 -79 50 -79 69 0 6 -8 11 -19 11 -10 0 -21 9 -24 20 -3 11 -12 20
-21 20 -9 0 -16 6 -16 13 0 8 -8 29 -17 48 -14 27 -18 59 -18 149 0 118 9 163
60 310 13 36 30 86 39 112 9 27 23 69 32 95 9 27 19 63 22 81 2 17 8 32 13 32
5 0 9 10 9 23 0 12 14 51 30 85 17 35 30 68 30 74 0 17 103 218 112 218 4 0 8
7 8 15 0 27 64 144 79 145 12 0 13 -25 8 -153 -4 -83 -11 -168 -17 -187 -12
-43 -30 -412 -30 -615 0 -108 -5 -168 -16 -210 -12 -44 -17 -114 -20 -265 -4
-265 -11 -252 156 -258 155 -6 249 4 257 26 3 10 13 25 20 34 21 24 8 54 -34
83 -67 45 -121 104 -135 148 -23 71 -14 207 22 307 16 47 30 95 30 108 0 12 4
22 8 22 5 0 19 35 32 77 14 43 27 80 30 83 10 8 41 150 35 159 -2 5 2 28 10
51 8 23 15 55 15 71 0 16 7 32 18 38 16 9 17 35 17 318 0 169 3 313 8 320 4 6
2 13 -3 15 -12 4 44 326 60 342 7 7 10 4 10 -7 0 -13 9 -17 43 -17 76 0 342
54 353 71 2 5 -2 59 -10 121 -8 62 -20 169 -26 238 -6 69 -13 132 -16 140 -2
9 7 27 21 42 14 15 25 31 25 36 0 4 9 26 20 49 46 95 63 173 37 173 -7 0 -19
17 -27 37 -17 47 -21 310 -4 317 16 6 27 575 13 669 -5 40 -19 101 -29 137
-21 71 -38 362 -23 383 5 7 6 145 3 307 -5 237 -9 302 -22 330 -31 70 -38 91
-38 115 0 17 -6 25 -17 25 -16 0 -73 38 -106 72 -14 14 -15 22 -7 38 6 11 8
25 5 30 -3 5 -8 51 -11 102 -7 113 -18 160 -50 207 -13 20 -24 41 -24 48 0 6
-6 18 -12 25 -17 17 -48 85 -48 103 0 8 -4 15 -9 15 -5 0 -12 18 -16 40 -4 22
-11 40 -16 40 -5 0 -9 11 -9 25 0 13 -4 34 -9 47 -4 13 -19 56 -31 96 -13 39
-27 72 -32 72 -4 0 -8 7 -8 15 0 14 -14 44 -33 69 -106 146 -201 250 -269 292
-32 21 -50 24 -120 23 -46 0 -104 -6 -131 -13z m422 -359 c17 -33 22 -60 22
-112 0 -40 -4 -71 -10 -73 -6 -2 -11 -21 -11 -43 0 -28 -4 -39 -15 -39 -11 0
-15 11 -15 35 0 20 -7 47 -16 61 -13 19 -15 36 -9 72 11 73 9 101 -7 120 -9 9
-18 35 -22 57 l-6 40 33 -37 c18 -21 44 -57 56 -81z m-821 -1691 c0 -73 -3
-162 -8 -197 -13 -98 -50 -319 -61 -369 -6 -25 -15 -68 -19 -96 -5 -29 -22
-80 -38 -115 -16 -35 -35 -82 -42 -104 -16 -52 -28 -64 -34 -34 -11 50 -35
207 -42 272 -4 37 -10 67 -13 67 -4 0 -15 34 -26 75 l-18 75 30 33 c37 38 179
327 188 383 11 63 48 144 67 144 15 0 16 -15 16 -134z m1212 -673 c0 -22 51
-308 66 -368 9 -38 27 -101 40 -138 25 -71 30 -107 16 -107 -5 0 -13 -10 -19
-22 -8 -20 -10 -16 -16 26 -4 26 -18 84 -32 129 -26 86 -90 437 -86 475 1 13
31 17 31 5z"/>
</g>
</svg>
