<?xml version="1.0" standalone="no"?>
<!DOCTYPE svg PUBLIC "-//W3C//DTD SVG 20010904//EN"
 "http://www.w3.org/TR/2001/REC-SVG-20010904/DTD/svg10.dtd">
<svg version="1.0" xmlns="http://www.w3.org/2000/svg"
 width="1280.000000pt" height="720.000000pt" viewBox="0 0 1280.000000 720.000000"
 preserveAspectRatio="xMidYMid meet">
<metadata>
Created by potrace 1.16, written by Peter Selinger 2001-2019
</metadata>
<g transform="translate(0.000000,720.000000) scale(0.100000,-0.100000)"
fill="#000000" stroke="none">
<path d="M6245 7073 c-33 -5 -65 -33 -65 -57 0 -8 -4 -18 -10 -21 -5 -3 -10
-17 -10 -31 0 -13 -8 -33 -17 -43 -38 -41 -63 -84 -63 -106 0 -8 -4 -15 -9
-15 -18 0 -52 -131 -68 -270 -3 -25 -9 -47 -13 -50 -8 -6 -37 -160 -46 -252
-4 -38 -11 -68 -15 -68 -5 0 -9 -10 -9 -22 0 -28 -60 -178 -71 -178 -5 0 -9
-9 -9 -20 0 -11 -3 -20 -8 -20 -4 0 -13 -14 -20 -30 -8 -17 -19 -36 -26 -43
-19 -19 -66 -106 -66 -122 0 -8 6 -15 14 -15 26 0 27 -18 4 -42 -50 -52 -68
-80 -77 -116 -6 -20 -15 -55 -20 -77 -6 -22 -16 -136 -21 -253 -6 -117 -15
-224 -20 -237 -5 -14 -14 -64 -20 -111 -10 -83 -15 -95 -103 -284 -7 -14 -18
-31 -24 -38 -7 -7 -13 -23 -13 -34 0 -21 -16 -86 -30 -123 -18 -50 -30 -93
-30 -113 0 -12 -4 -30 -9 -40 -8 -16 -27 -111 -38 -196 -3 -22 -12 -46 -20
-54 -7 -8 -11 -22 -8 -32 4 -12 -1 -22 -12 -29 -11 -5 -24 -31 -31 -58 -14
-53 -25 -70 -62 -97 l-25 -18 53 6 52 7 0 -31 0 -30 -134 0 -134 0 -31 -36
c-28 -32 -31 -40 -27 -87 2 -29 14 -79 26 -112 12 -33 24 -67 26 -75 8 -25 63
-50 108 -50 41 0 45 3 80 55 22 34 45 57 61 61 14 3 25 9 25 13 0 4 12 14 28
23 51 31 83 68 77 89 -4 13 -2 19 9 19 9 0 16 9 16 20 0 12 7 20 18 20 13 0
29 36 71 168 30 92 62 178 71 192 28 42 148 293 156 325 4 17 18 51 31 76 16
32 23 64 23 103 0 37 8 73 24 108 50 110 76 205 76 272 0 51 3 66 14 66 43 0
28 -149 -26 -280 -23 -55 -44 -124 -49 -163 -10 -77 -50 -212 -81 -272 -109
-211 -109 -211 -113 -308 -5 -121 -29 -261 -67 -387 -16 -56 -20 -103 -23
-325 -3 -227 -6 -270 -24 -334 -28 -101 -27 -167 3 -205 21 -25 32 -29 82 -31
109 -5 166 -20 191 -51 13 -16 26 -44 29 -62 3 -18 10 -35 15 -38 5 -3 9 -43
9 -90 0 -47 5 -94 10 -104 7 -13 7 -21 0 -25 -6 -3 -10 -50 -10 -106 0 -54 -4
-99 -8 -99 -5 0 -17 -51 -27 -112 -37 -214 -21 -517 42 -826 42 -209 49 -262
34 -262 -7 0 -11 -39 -11 -120 0 -100 -2 -120 -15 -120 -8 0 -15 -7 -15 -15 0
-16 -45 -65 -60 -65 -15 0 -40 -68 -40 -106 0 -24 8 -41 33 -63 l32 -31 153 0
c145 0 154 1 159 20 3 11 9 20 14 20 14 0 10 94 -5 132 -17 41 -20 109 -11
234 6 64 4 102 -5 130 -7 21 -12 52 -12 69 3 58 21 212 40 345 22 148 48 379
57 505 6 89 25 185 37 185 5 0 8 10 8 23 0 42 32 131 51 145 17 12 19 28 19
187 0 99 5 196 12 225 l12 52 40 -6 c71 -9 126 -18 127 -20 0 0 8 -108 18
-239 11 -140 23 -243 30 -250 6 -6 11 -25 11 -42 0 -17 5 -36 11 -42 15 -15
38 -202 39 -318 0 -55 7 -125 15 -155 8 -30 15 -83 15 -117 0 -34 4 -84 9
-110 46 -237 62 -359 59 -450 -1 -48 3 -148 10 -222 6 -74 9 -167 5 -207 l-6
-74 172 0 c107 0 171 4 171 10 0 6 9 10 19 10 17 0 19 5 14 35 -4 25 -1 41 10
53 15 16 22 48 19 84 -1 11 -16 21 -39 28 -21 6 -56 21 -78 34 l-40 23 -3 108
c-2 80 -7 114 -18 126 -11 12 -12 23 -5 41 5 13 12 51 16 84 22 205 29 255 41
304 16 64 18 472 3 560 -5 30 -12 70 -16 88 -3 18 -9 35 -14 38 -5 3 -9 21 -9
40 0 19 -4 34 -9 34 -5 0 -11 19 -14 43 -10 72 -19 112 -30 119 -7 4 -7 15 1
35 6 15 13 89 16 162 4 91 10 138 19 143 6 4 28 8 47 8 45 0 116 22 135 40 26
26 45 415 39 775 -5 273 -8 325 -30 435 -13 69 -28 141 -33 160 -5 19 -17 64
-26 100 -9 36 -20 81 -25 100 -34 126 -59 281 -65 400 -3 74 -8 169 -11 211
-5 76 10 204 26 224 5 6 11 51 15 100 9 124 11 132 41 139 14 4 36 19 49 34
l24 27 35 -19 c20 -11 36 -23 36 -28 0 -4 4 -8 10 -8 17 0 150 -124 150 -140
0 -5 9 -12 20 -15 11 -3 20 -13 20 -22 0 -8 9 -17 20 -20 11 -3 20 -12 20 -19
0 -8 9 -14 21 -14 12 0 54 -33 105 -83 74 -74 84 -88 84 -120 0 -19 7 -43 16
-51 22 -22 35 -164 38 -391 1 -174 0 -192 -18 -217 -14 -20 -29 -28 -49 -28
-15 0 -35 -7 -43 -15 -9 -8 -26 -15 -38 -15 -22 0 -63 -14 -131 -45 -16 -7
-56 -23 -89 -35 -53 -20 -57 -24 -42 -38 14 -14 21 -14 77 2 62 17 85 13 74
-15 -9 -21 -86 -75 -120 -83 -31 -8 -55 -23 -55 -35 0 -8 161 11 176 21 7 4
50 11 98 14 53 4 90 12 97 20 6 8 18 14 25 14 8 0 14 5 14 10 0 6 6 10 13 10
37 0 122 108 137 175 14 61 51 168 61 175 3 3 12 61 18 130 7 69 16 163 20
209 5 50 5 95 0 109 -5 13 -9 43 -9 68 0 31 -4 44 -14 44 -8 0 -17 15 -20 35
-7 37 -84 198 -98 203 -4 2 -8 10 -8 18 0 8 -4 14 -8 14 -5 0 -15 11 -22 25
-7 14 -19 25 -27 25 -7 0 -13 7 -13 15 0 9 -7 18 -15 21 -8 4 -15 15 -15 25 0
10 -6 19 -13 19 -7 0 -18 9 -25 20 -7 11 -19 20 -27 20 -8 0 -15 9 -15 20 0
13 -7 20 -19 20 -10 0 -21 7 -25 15 -3 8 -12 15 -19 15 -7 0 -20 11 -27 25 -7
14 -19 25 -26 25 -14 0 -44 43 -44 65 0 8 -6 15 -13 15 -8 0 -22 18 -33 40
-10 22 -22 40 -26 40 -5 0 -8 7 -8 15 0 17 -6 25 -59 83 -40 43 -149 122 -168
122 -7 0 -13 5 -13 10 0 6 -8 10 -17 10 -17 1 -16 2 1 15 10 8 24 16 30 18 11
4 -30 47 -46 47 -4 0 -8 6 -8 13 0 8 -9 22 -20 32 -11 10 -20 30 -20 44 0 13
-11 36 -24 50 -43 47 -136 224 -136 260 0 15 -7 50 -15 77 -8 27 -22 83 -31
124 -9 41 -19 80 -23 85 -4 6 -16 33 -26 60 -10 28 -21 52 -24 55 -3 3 -24 40
-45 83 -22 42 -43 77 -48 77 -4 0 -8 5 -8 11 0 5 -14 24 -30 42 -17 18 -33 40
-36 50 -3 9 -8 17 -12 17 -4 0 -20 13 -37 28 -16 16 -45 34 -64 40 -32 11
-171 14 -236 5z m379 -279 c9 -8 16 -22 16 -29 0 -8 10 -33 21 -55 29 -56 37
-165 15 -208 -9 -17 -16 -47 -16 -66 0 -19 -4 -38 -10 -41 -6 -4 -10 15 -10
50 0 44 -4 61 -19 73 -16 14 -19 26 -14 70 4 35 10 52 19 52 19 0 18 6 -11 80
-14 35 -25 70 -25 77 0 18 15 16 34 -3z m-1537 -3110 c-3 -3 -12 -4 -19 -1 -8
3 -5 6 6 6 11 1 17 -2 13 -5z m66 -1 c-7 -2 -19 -2 -25 0 -7 3 -2 5 12 5 14 0
19 -2 13 -5z m85 -190 c2 -8 -6 -13 -22 -13 -19 0 -24 4 -19 15 6 18 34 16 41
-2z"/>
</g>
</svg>
