<?xml version="1.0" standalone="no"?>
<!DOCTYPE svg PUBLIC "-//W3C//DTD SVG 20010904//EN"
 "http://www.w3.org/TR/2001/REC-SVG-20010904/DTD/svg10.dtd">
<svg version="1.0" xmlns="http://www.w3.org/2000/svg"
 width="1280.000000pt" height="720.000000pt" viewBox="0 0 1280.000000 720.000000"
 preserveAspectRatio="xMidYMid meet">
<metadata>
Created by potrace 1.16, written by Peter Selinger 2001-2019
</metadata>
<g transform="translate(0.000000,720.000000) scale(0.100000,-0.100000)"
fill="#000000" stroke="none">
<path d="M6240 7057 c0 -7 -10 -17 -22 -22 -15 -7 -28 -27 -38 -59 -9 -26 -23
-54 -33 -61 -9 -6 -24 -28 -32 -48 -8 -20 -28 -49 -43 -65 -21 -22 -35 -53
-50 -115 -12 -48 -22 -97 -22 -110 0 -13 -6 -37 -14 -53 -8 -16 -20 -76 -26
-134 -23 -210 -39 -310 -50 -310 -5 0 -14 -17 -21 -37 -6 -20 -20 -46 -30 -57
-11 -11 -19 -25 -19 -31 0 -7 -11 -25 -25 -41 -14 -16 -28 -39 -31 -51 -4 -13
-14 -23 -23 -23 -9 0 -27 -17 -41 -38 -14 -20 -27 -39 -30 -42 -3 -3 -14 -21
-24 -40 -11 -19 -23 -37 -26 -40 -14 -10 -43 -75 -57 -125 -7 -27 -16 -101
-20 -162 -3 -62 -9 -113 -13 -113 -4 0 -13 -21 -20 -47 -6 -27 -28 -81 -48
-121 l-36 -73 -300 5 c-433 8 -1030 24 -1106 30 -36 3 -282 7 -547 9 l-483 4
0 -184 0 -183 203 0 c111 0 231 4 267 9 36 5 239 13 453 17 339 6 387 5 387
-8 0 -11 17 -17 61 -22 90 -9 96 -8 118 15 18 20 21 20 42 5 20 -14 59 -16
254 -17 126 0 255 -4 285 -8 61 -9 103 -2 60 10 -20 6 -17 7 18 8 23 1 42 5
42 11 0 5 7 7 15 4 8 -4 15 -10 15 -15 0 -5 -7 -9 -15 -9 -8 0 -15 -7 -15 -15
0 -26 -23 -65 -39 -65 -9 0 -24 -17 -34 -40 -9 -22 -21 -40 -27 -40 -12 0 -60
-48 -60 -61 0 -5 -11 -14 -25 -19 -14 -5 -25 -16 -25 -24 0 -7 -16 -26 -35
-40 -19 -15 -35 -33 -35 -40 0 -7 -12 -23 -26 -35 -24 -21 -39 -24 -128 -27
-157 -4 -206 -13 -206 -34 0 -20 34 -26 187 -36 66 -4 86 -2 107 11 14 10 26
22 26 29 0 19 35 35 92 41 66 8 217 50 228 64 10 12 50 31 65 31 8 0 15 6 15
13 0 6 20 21 43 31 46 21 107 64 120 83 4 7 15 13 24 13 9 0 34 18 55 40 22
22 44 40 49 40 5 0 9 4 9 10 0 24 53 44 116 42 37 -1 64 2 64 8 0 5 -19 11
-42 12 l-43 1 40 4 c22 3 43 10 47 16 5 8 9 6 12 -6 18 -55 17 -54 31 -27 14
24 14 23 15 -27 0 -28 -5 -75 -11 -105 -32 -160 -55 -250 -81 -312 -15 -38
-28 -75 -28 -82 0 -8 -4 -14 -10 -14 -5 0 -10 -8 -10 -17 0 -10 -12 -49 -26
-88 -14 -38 -27 -80 -29 -92 -7 -46 16 -45 -537 -29 -59 2 -113 -1 -120 -5 -7
-5 -16 -3 -20 4 -6 9 -12 9 -26 0 -14 -8 -23 -8 -30 -1 -8 8 -19 7 -39 -1
l-29 -12 -1 -110 c-1 -61 -7 -124 -13 -140 -9 -20 -9 -37 -2 -61 6 -18 9 -103
7 -190 -2 -129 0 -158 11 -158 8 0 14 9 14 21 0 12 8 23 20 26 11 3 20 9 20
14 0 5 8 9 19 9 11 0 21 9 24 21 4 16 9 19 23 11 9 -5 25 -7 35 -5 16 4 19 0
19 -26 0 -17 5 -31 10 -31 18 0 11 -22 -9 -27 -10 -2 -24 -16 -30 -29 -6 -13
-17 -24 -26 -24 -8 0 -16 -4 -16 -10 -1 -5 -2 -14 -3 -19 -2 -19 -16 -24 -31
-11 -11 9 -18 10 -28 1 -16 -13 -27 -5 -27 21 0 10 -7 18 -15 18 -9 0 -15 -9
-15 -22 0 -13 -3 -34 -7 -47 -6 -24 -5 -24 45 -18 31 4 52 2 52 -4 0 -5 11 -2
25 7 13 8 29 13 34 10 6 -4 130 -7 276 -7 244 0 265 -1 265 -17 -1 -39 -13
-44 -126 -41 -250 5 -590 22 -598 30 -10 9 -10 120 0 599 4 162 4 292 0 289
-3 -3 -10 -167 -16 -365 -14 -475 -18 -546 -33 -556 -6 -4 -396 -5 -864 -1
l-853 6 0 -21 c0 -21 3 -22 137 -22 75 0 134 -3 131 -6 -4 -3 -65 -5 -137 -5
-124 1 -131 0 -131 -18 0 -17 8 -20 58 -23 54 -3 57 -4 60 -30 3 -28 3 -28
-57 -28 -54 0 -61 -2 -61 -20 0 -18 7 -20 55 -20 l55 0 0 -95 0 -95 -32 0
c-71 0 -78 -7 -78 -71 0 -48 3 -57 15 -53 8 4 15 1 15 -5 0 -6 -7 -11 -15 -11
-11 0 -15 -11 -15 -40 0 -35 3 -40 24 -40 22 0 24 -5 31 -77 4 -49 3 -79 -3
-81 -5 -1 -8 -12 -5 -22 3 -11 0 -20 -6 -20 -6 0 -11 5 -11 11 0 8 -5 8 -15
-1 -11 -9 -15 -32 -15 -81 0 -61 2 -69 19 -69 18 0 68 -48 89 -86 8 -15 13
-16 25 -6 8 7 18 23 21 36 6 23 36 45 36 26 0 -6 18 -10 40 -10 22 0 40 -4 40
-10 0 -26 32 -5 46 30 16 40 34 53 34 25 0 -11 11 -15 38 -15 30 0 42 -6 62
-31 49 -61 55 -65 59 -43 2 10 7 24 11 29 4 6 11 25 15 42 7 37 21 42 41 15
13 -16 15 -16 28 1 20 25 34 21 41 -14 4 -17 12 -41 19 -54 12 -23 13 -23 28
-6 9 11 22 35 29 55 12 33 16 36 54 36 22 0 49 3 60 6 17 4 22 -2 34 -40 7
-24 19 -53 27 -63 12 -17 13 -16 14 10 0 18 11 40 31 60 28 28 40 32 98 35
l66 4 14 -46 c7 -25 17 -46 22 -46 5 0 9 4 9 9 0 12 59 71 70 71 5 0 11 -6 13
-12 4 -10 6 -10 6 0 1 6 7 12 15 12 9 0 17 -17 21 -47 l8 -48 14 55 14 55 239
0 c132 0 240 -3 240 -6 0 -4 29 -4 64 -2 88 8 112 0 125 -39 l12 -33 19 25
c11 14 20 33 20 44 0 14 5 17 23 12 12 -3 30 -6 40 -6 9 0 17 -7 17 -15 0 -11
11 -15 40 -15 27 0 40 4 40 14 0 18 152 34 158 17 2 -6 10 -11 18 -11 8 0 14
-7 14 -15 0 -8 5 -15 10 -15 6 0 10 7 10 15 0 9 14 16 38 20 20 3 45 8 55 10
19 4 21 0 8 -23 -5 -9 -12 -42 -16 -72 -4 -30 -10 -62 -15 -70 -15 -31 -39
-159 -52 -275 -8 -73 -13 -258 -13 -475 0 -394 -4 -425 -58 -472 -24 -21 -28
-28 -14 -28 9 0 17 -5 17 -11 0 -9 -17 -9 -62 -3 -90 12 -195 11 -208 -2 -13
-13 -4 -78 14 -97 6 -7 16 -22 22 -32 18 -33 74 -55 140 -55 74 0 99 -18 60
-44 -14 -9 -30 -16 -36 -16 -5 0 -10 -4 -10 -10 0 -5 -18 -10 -40 -10 -22 0
-40 -4 -40 -9 0 -5 -18 -11 -40 -15 -22 -3 -40 -12 -40 -19 0 -7 -18 -23 -40
-37 -22 -14 -40 -28 -40 -31 0 -13 128 -41 183 -39 l57 1 0 -70 0 -71 40 0
c29 0 40 -4 40 -15 0 -9 9 -15 25 -15 23 0 25 -4 25 -40 0 -29 4 -40 15 -40
11 0 15 -11 15 -40 l0 -40 118 0 119 0 -1 128 c-1 108 -4 132 -21 159 -11 18
-28 33 -37 33 -36 0 -19 294 23 417 21 61 26 158 8 168 -7 5 -4 14 7 26 10 11
22 43 26 72 18 106 20 117 29 123 5 3 9 18 9 33 0 15 9 54 20 86 11 32 20 71
20 87 0 15 5 28 10 28 6 0 10 12 10 28 0 15 7 63 15 107 24 131 45 295 45 354
0 52 31 140 53 149 4 2 7 10 7 18 0 8 5 14 10 14 6 0 10 11 10 25 0 14 4 25 9
25 5 0 11 17 14 38 4 21 15 42 26 49 26 16 673 18 719 2 26 -9 31 -17 37 -57
8 -54 10 -222 4 -402 -2 -69 -1 -161 3 -205 4 -44 11 -145 17 -225 6 -80 16
-177 22 -217 8 -47 9 -126 4 -235 -11 -234 -7 -364 10 -399 11 -20 15 -62 15
-149 0 -113 -1 -120 -20 -120 -17 0 -20 -7 -20 -40 0 -22 -4 -40 -10 -40 -5 0
-10 -18 -10 -40 l0 -40 155 0 155 0 -7 120 -6 120 41 0 c35 0 42 3 42 20 0 17
7 20 40 20 40 0 46 7 41 47 -2 17 69 82 84 77 21 -8 31 37 11 51 -19 15 -21
25 -3 25 20 0 40 45 33 74 -7 30 -45 50 -142 73 -71 17 -74 19 -95 63 -12 25
-27 52 -34 60 -16 19 -35 102 -36 155 0 22 7 78 15 125 9 47 23 123 30 170 8
47 19 108 26 136 6 29 12 81 13 118 1 36 5 66 8 66 15 0 32 381 19 416 -30 77
-56 539 -39 681 8 61 21 77 71 87 24 4 53 23 87 56 28 27 51 53 51 58 0 5 -34
35 -75 66 -43 32 -77 66 -80 79 -17 76 -26 218 -30 477 -3 162 -10 318 -15
345 -6 28 -17 84 -25 125 -17 89 -39 189 -61 285 -9 39 -19 104 -24 146 -4 42
-10 81 -13 86 -10 16 -49 343 -43 359 10 27 45 15 70 -24 19 -31 23 -49 21
-97 -3 -65 6 -85 39 -85 22 -1 56 -22 56 -35 0 -4 11 -20 25 -37 14 -16 25
-40 25 -52 0 -32 33 -71 72 -87 18 -7 40 -21 49 -31 9 -10 28 -18 43 -18 14 0
26 -6 26 -12 0 -14 96 -68 119 -68 7 0 25 -6 39 -14 75 -40 133 -66 147 -66 8
0 15 -4 15 -10 0 -5 6 -10 13 -10 26 0 147 -42 147 -51 0 -5 22 -9 50 -9 36 0
71 10 127 36 43 20 93 38 111 41 17 3 32 9 32 13 0 4 24 15 53 25 28 9 62 23
74 31 12 8 27 14 33 14 6 0 24 10 40 22 21 15 28 27 24 40 -3 10 -1 18 5 18 6
0 11 16 11 35 0 34 -1 35 -40 35 -22 0 -40 -4 -40 -10 0 -5 -18 -10 -40 -10
-36 0 -40 -2 -40 -25 0 -22 -4 -25 -40 -25 -22 0 -40 -4 -40 -10 0 -5 -18 -15
-40 -21 -22 -7 -40 -16 -40 -21 0 -4 -8 -8 -17 -8 -10 0 -29 -6 -43 -13 -14
-7 -59 -22 -100 -32 -41 -11 -78 -23 -81 -28 -7 -9 -79 30 -79 44 0 5 -6 9
-14 9 -7 0 -16 9 -19 21 -3 11 -15 23 -26 26 -12 3 -21 11 -21 18 0 7 -6 15
-14 18 -8 3 -19 22 -26 41 -9 28 -17 36 -35 36 -23 0 -85 52 -85 71 0 5 -7 9
-15 9 -8 0 -15 4 -15 8 0 4 -17 26 -37 47 -21 22 -45 56 -54 75 -9 19 -26 44
-37 56 -31 32 -63 101 -55 119 5 13 14 16 42 11 20 -3 196 -6 391 -7 377 -2
1168 -14 1538 -23 l222 -5 0 48 0 49 -77 7 c-43 3 -343 8 -667 11 -479 4 -591
3 -597 -8 -7 -10 -9 -10 -9 0 0 22 -30 13 -31 -10 l0 -23 -16 23 c-15 22 -19
22 -219 22 -165 0 -204 3 -204 14 0 9 -20 15 -61 20 -93 9 -99 8 -99 -14 0
-19 -7 -20 -94 -20 -86 0 -95 -2 -101 -20 -3 -11 -11 -20 -16 -20 -5 0 -9 9
-9 20 0 11 -4 20 -10 20 -5 0 -10 6 -10 14 0 8 -7 16 -15 20 -8 3 -15 14 -15
25 0 11 -4 22 -9 25 -5 3 -12 22 -15 41 -4 19 -11 35 -16 35 -6 0 -10 36 -10
79 0 51 -4 81 -11 83 -9 3 -9 33 1 119 17 153 11 221 -26 295 -16 32 -32 61
-36 62 -5 2 -8 11 -8 19 0 19 -46 63 -66 63 -10 0 -14 12 -14 40 0 22 -4 40
-10 40 -5 0 -14 17 -19 38 -28 108 -33 122 -41 122 -6 0 -10 8 -10 18 0 10 -4
22 -9 27 -18 21 -101 286 -101 326 0 36 -33 184 -42 187 -4 2 -8 13 -8 25 0
23 -57 178 -69 187 -8 6 -46 72 -72 126 -34 69 -97 129 -162 153 -69 25 -257
31 -257 8z m405 -287 c54 -100 78 -224 55 -280 -7 -17 -15 -56 -19 -88 -4 -40
-10 -57 -20 -57 -12 0 -15 22 -18 105 -2 61 -9 107 -15 111 -7 5 -4 17 10 36
18 26 20 35 11 69 -5 21 -19 55 -29 75 -11 20 -20 42 -20 49 0 20 31 6 45 -20z
m15 -454 c0 -3 -4 -8 -10 -11 -5 -3 -10 -1 -10 4 0 6 5 11 10 11 6 0 10 -2 10
-4z m-824 -1354 c-12 -11 -17 7 -9 34 l8 29 3 -28 c2 -16 1 -31 -2 -35z m3427
-109 c-13 -2 -33 -2 -45 0 -13 2 -3 4 22 4 25 0 35 -2 23 -4z m-4608 -43 c50
-19 23 -35 -59 -36 -59 -1 -79 3 -83 14 -3 8 0 18 8 23 19 12 102 11 134 -1z
m65 -60 c0 -5 -4 -10 -9 -10 -6 0 -13 5 -16 10 -3 6 1 10 9 10 9 0 16 -4 16
-10z m355 1 l50 -7 -79 -8 c-51 -5 -81 -4 -85 2 -3 6 -24 12 -46 15 -22 2 -6
4 35 4 41 1 98 -2 125 -6z m535 -860 c0 -27 -14 -70 -21 -65 -10 6 -12 58 -2
67 9 10 23 9 23 -2z m-481 -99 c0 -11 -3 -12 -6 -4 -2 6 -12 12 -21 12 -14 0
-15 2 -2 9 18 12 30 5 29 -17z m31 8 c0 -5 -2 -10 -4 -10 -3 0 -8 5 -11 10 -3
6 -1 10 4 10 6 0 11 -4 11 -10z m-26 -62 c6 -25 4 -28 -19 -26 -14 1 -25 8
-25 15 0 7 7 10 15 7 11 -4 15 0 15 17 0 28 5 23 14 -13z m101 -8 c3 -6 -1
-13 -10 -16 -19 -8 -30 0 -20 15 8 14 22 14 30 1z m316 -23 c-7 -7 -17 -7 -33
1 l-23 11 22 0 c12 1 25 6 29 13 6 9 9 9 12 -1 2 -7 -1 -18 -7 -24z m-591 13
c0 -5 -6 -10 -14 -10 -8 0 -18 5 -21 10 -3 6 3 10 14 10 12 0 21 -4 21 -10z
m90 0 c0 -12 -8 -12 -35 0 -18 8 -17 9 8 9 15 1 27 -3 27 -9z m390 0 c0 -5
-10 -10 -22 -10 -19 0 -20 2 -8 10 19 13 30 13 30 0z m-81 -47 c0 -11 -3 -13
-6 -5 -2 6 -17 12 -33 12 -16 0 -31 -6 -33 -12 -3 -8 -6 -6 -6 5 -1 13 7 17
39 17 32 0 40 -4 39 -17z m98 -45 c-2 -13 -4 -5 -4 17 -1 22 1 32 4 23 2 -10
2 -28 0 -40z m82 -25 c1 -7 -8 -13 -18 -13 -18 0 -19 3 -9 32 10 28 12 30 19
12 4 -10 8 -25 8 -31z m-301 25 c18 -18 14 -35 -8 -33 -26 2 -34 11 -27 30 8
18 19 19 35 3z m185 -36 c-14 -2 -31 2 -37 9 -8 9 -7 11 7 6 13 -5 17 -1 17
14 0 21 1 20 19 -2 l19 -24 -25 -3z m-373 12 c0 -2 -9 -4 -21 -4 -11 0 -18 4
-14 10 5 8 35 3 35 -6z m80 6 c0 -5 -10 -10 -22 -10 -19 0 -20 2 -8 10 19 13
30 13 30 0z m211 -2 c18 11 20 11 17 0 -3 -7 -21 -14 -41 -16 -28 -2 -37 1
-37 12 0 14 3 14 20 4 16 -10 24 -10 41 0z m81 -88 c-2 -16 -8 -30 -13 -30 -5
0 -9 14 -9 30 0 18 5 30 13 30 9 0 12 -10 9 -30z m-189 -2 c14 -22 1 -48 -23
-48 -13 0 -20 7 -20 19 0 48 22 63 43 29z m214 0 c-3 -8 -6 -5 -6 6 -1 11 2
17 5 13 3 -3 4 -12 1 -19z m-507 -32 c0 -11 -19 -15 -25 -6 -3 5 1 10 9 10 9
0 16 -2 16 -4z m115 -6 c-3 -5 -12 -10 -20 -10 -8 0 -17 5 -20 10 -4 6 5 10
20 10 15 0 24 -4 20 -10z m90 0 c-3 -5 -15 -10 -25 -10 -10 0 -22 5 -25 10 -4
6 7 10 25 10 18 0 29 -4 25 -10z m185 0 c0 -5 -7 -10 -15 -10 -8 0 -15 5 -15
10 0 6 7 10 15 10 8 0 15 -4 15 -10z m5 -166 c-5 -34 -3 -49 7 -55 9 -6 8 -9
-7 -9 -33 1 -50 22 -53 68 -2 41 -2 42 29 42 l31 0 -7 -46z m22 -6 c-3 -8 -6
-5 -6 6 -1 11 2 17 5 13 3 -3 4 -12 1 -19z m-147 -20 c0 -5 -4 -8 -10 -8 -5 0
-10 10 -10 23 0 18 2 19 10 7 5 -8 10 -18 10 -22z m210 -28 c0 -5 -13 -10 -30
-10 -16 0 -30 5 -30 10 0 6 14 10 30 10 17 0 30 -4 30 -10z m-1742 -235 c8 -8
-311 -5 -330 3 -10 4 60 6 154 4 94 -1 174 -4 176 -7z m218 3 c3 -4 -33 -8
-80 -8 -52 0 -86 4 -86 10 0 13 158 11 166 -2z m-616 -73 c0 -23 -3 -25 -49
-25 -52 0 -65 8 -55 34 4 12 20 16 55 16 46 0 49 -2 49 -25z m240 11 c0 -24
-21 -31 -105 -33 -79 -2 -99 6 -88 34 8 20 193 19 193 -1z m377 -9 c-6 -18
-147 -25 -164 -9 -23 23 -8 27 82 24 60 -3 85 -7 82 -15z m1103 -16 c0 -34 -9
-44 -27 -30 -8 7 -13 7 -13 2 0 -11 -234 -25 -447 -27 l-133 -1 0 -42 0 -43
69 0 c119 0 191 11 192 29 0 11 3 8 9 -6 11 -27 30 -30 31 -5 1 13 2 14 5 2 9
-31 42 -39 173 -41 l131 -2 0 -79 c0 -43 -3 -78 -7 -78 -5 0 -6 25 -5 55 3 35
0 55 -7 55 -6 0 -11 -19 -11 -44 l0 -44 -232 -7 c-232 -7 -347 -6 -380 2 -15
4 -18 16 -18 84 0 72 2 79 20 79 17 0 20 7 20 39 0 30 -4 40 -20 44 -15 4 -20
14 -20 41 0 20 6 38 14 43 8 4 159 7 335 5 l321 -3 0 -28z m396 12 c4 -14 2
-40 -5 -58 -7 -20 -9 -63 -5 -122 8 -103 0 -158 -22 -167 -21 -8 -164 5 -164
15 0 5 39 10 88 11 l87 2 -83 3 -82 4 1 62 c3 86 9 95 60 91 47 -4 79 9 80 34
1 11 4 8 9 -8 7 -21 8 -19 9 18 1 23 -2 42 -6 42 -5 1 -27 5 -50 9 -24 5 -43
5 -43 1 0 -4 -11 -7 -24 -7 -18 0 -26 6 -31 24 -12 48 1 62 63 66 31 2 69 4
84 5 22 2 29 -3 34 -25z m94 -7 c0 -44 -9 -66 -26 -66 -8 0 -14 -9 -14 -20 0
-13 5 -18 15 -14 13 5 15 -7 15 -75 0 -46 4 -82 10 -82 6 -1 16 -2 23 -3 7 0
13 -19 15 -44 l3 -43 -48 3 -48 3 -1 180 c0 99 1 183 3 188 2 4 15 7 29 7 21
0 24 -5 24 -34z m-1810 9 c0 -11 -12 -15 -42 -16 -70 -2 -85 2 -73 20 3 6 31
11 61 11 41 0 54 -4 54 -15z m458 3 c-3 -9 -33 -13 -103 -13 -70 0 -100 4
-102 13 -4 9 21 12 102 12 81 0 106 -3 103 -12z m162 -33 c0 -38 -3 -45 -20
-45 -16 0 -20 7 -20 30 0 17 -3 29 -7 29 -29 -5 -62 3 -67 16 -4 12 5 15 54
15 l60 0 0 -45z m868 7 c3 -29 1 -32 -20 -28 -13 3 -42 5 -65 5 -41 1 -43 2
-43 31 l0 31 63 -3 62 -3 3 -33z m-1030 -164 c-2 -37 -9 -73 -15 -79 -20 -20
-171 -9 -185 13 -10 16 -10 129 0 143 4 6 45 11 92 12 60 0 85 4 89 14 9 29
22 -40 19 -103z m-896 82 l38 0 0 -79 0 -79 -55 -4 -55 -3 0 77 c0 86 7 115
23 99 6 -6 28 -11 49 -11z m264 -56 c9 -48 -3 -107 -21 -100 -8 3 -16 0 -19
-7 -4 -8 -8 -8 -11 -2 -3 7 -28 9 -66 5 -33 -3 -62 -4 -64 -1 -8 7 -5 135 3
148 11 17 112 21 144 5 19 -9 29 -24 34 -48z m759 52 c16 -11 20 -30 23 -110
4 -91 3 -96 -16 -96 -14 0 -22 8 -24 22 -5 34 -50 32 -59 -2 -4 -14 -7 22 -8
82 -1 103 0 107 22 111 39 8 43 7 62 -7z m-622 -5 l37 -1 0 -74 0 -74 -57 -5
c-32 -2 -59 -3 -61 -2 -7 7 -14 115 -9 137 5 18 13 24 29 22 13 -1 40 -3 61
-3z m235 -5 c13 -8 17 -132 4 -140 -4 -2 -41 -6 -82 -7 l-75 -2 -3 65 c-2 46
1 70 11 79 14 15 124 18 145 5z m1252 -67 c0 -6 7 -9 15 -5 11 4 15 -1 14 -17
0 -12 -3 -16 -6 -9 -7 17 -23 15 -23 -3 0 -11 -12 -15 -45 -15 -57 0 -59 19
-2 22 l42 1 -42 4 c-29 3 -43 9 -43 19 0 10 12 14 45 14 26 0 45 -5 45 -11z
m27 -111 c-2 -13 -4 -3 -4 22 0 25 2 35 4 23 2 -13 2 -33 0 -45z m1285 7 c6
-14 17 -25 25 -25 7 0 13 -7 13 -15 0 -11 -12 -15 -47 -16 -97 -2 -108 4 -98
50 6 29 9 31 51 31 38 0 46 -4 56 -25z m-157 -25 c0 -17 -6 -25 -17 -25 -9 0
-20 -4 -24 -8 -23 -22 -32 9 -13 44 15 30 54 22 54 -11z m-105 -21 c0 -16 -8
-19 -48 -19 -46 0 -94 21 -80 35 12 12 103 22 116 12 6 -5 12 -18 12 -28z
m-1030 1 c0 -13 -16 -15 -65 -12 -57 5 -58 20 -2 24 47 3 67 0 67 -12z m1520
-137 c10 -149 6 -203 -16 -203 -11 0 -14 34 -14 182 0 218 15 229 30 21z
m-1710 138 c0 -5 -10 -11 -22 -15 -33 -8 -543 -7 -534 1 4 4 114 10 244 13
130 4 254 7 275 8 20 1 37 -2 37 -7z m627 -13 c-3 -8 -6 -5 -6 6 -1 11 2 17 5
13 3 -3 4 -12 1 -19z m1019 -155 l-1 -168 -35 0 c-19 0 -41 -4 -49 -9 -18 -12
-133 -20 -166 -12 -28 7 -25 28 3 24 12 -2 18 5 20 24 3 22 -2 30 -23 38 -26
10 -26 10 -23 112 4 129 22 133 26 6 4 -130 18 -130 17 0 l0 107 35 -3 c19 -1
53 -5 75 -7 22 -3 34 -2 28 1 -22 10 -14 24 11 24 14 0 31 7 39 15 8 8 17 11
21 8 3 -4 6 -1 6 6 0 7 4 10 9 7 5 -3 8 -81 7 -173z m-321 -34 l0 -144 -30 0
-30 0 -3 139 c-3 145 0 154 41 151 22 -2 22 -4 22 -146z m-107 -26 l-3 -117
-84 2 c-47 1 -85 3 -87 5 -5 5 -6 36 -5 123 l1 91 41 12 c23 7 44 9 47 6 4 -4
9 -50 12 -103 5 -91 6 -97 28 -100 22 -3 22 -1 22 96 0 55 3 108 6 117 15 39
25 -18 22 -132z m-2050 67 c1 -30 -1 -82 -5 -115 l-8 -60 -59 0 -59 0 -3 85
c-1 47 0 100 3 118 l6 34 61 -4 61 -4 3 -54z m-288 39 c0 -8 4 -9 13 0 21 17
27 3 27 -63 0 -50 -4 -63 -20 -74 -14 -8 -20 -23 -20 -47 0 -34 -1 -35 -39
-35 -35 0 -39 3 -45 31 -8 40 -8 147 0 177 5 18 13 22 45 22 22 0 39 -5 39
-11z m426 -19 c11 0 14 -17 14 -77 0 -85 -11 -116 -32 -95 -9 9 -9 12 4 12 11
0 15 6 11 21 -4 16 -8 17 -14 7 -5 -7 -8 24 -8 77 1 50 3 82 6 73 2 -10 11
-18 19 -18z m411 -67 c-6 -52 -15 -93 -21 -94 -16 -1 26 -17 47 -18 15 -1 17
9 17 79 l0 80 44 0 c49 0 101 -16 128 -39 22 -19 26 -111 6 -111 -23 0 16 -20
40 -20 18 0 22 5 22 34 0 62 13 156 21 156 5 0 9 -42 9 -94 0 -88 -1 -94 -22
-101 -37 -11 -260 -16 -460 -9 l-188 7 0 95 0 94 40 -4 c22 -2 41 1 43 7 2 5
7 -26 12 -70 5 -55 4 -80 -4 -83 -6 -2 -11 -10 -11 -18 0 -10 12 -14 40 -14
l40 0 0 95 0 95 94 0 c78 0 95 3 100 16 13 33 14 7 3 -83z m1440 75 c-3 -8 -6
-5 -6 6 -1 11 2 17 5 13 3 -3 4 -12 1 -19z m-2532 2 c3 -5 15 -6 28 -1 14 6
30 5 41 -1 16 -9 17 -19 11 -87 -4 -42 -8 -85 -9 -95 -1 -17 -9 -20 -53 -22
l-53 -2 0 103 c0 56 3 105 7 108 9 10 21 9 28 -3z m1781 -5 c12 -11 13 -33 8
-110 l-7 -95 -83 0 -84 0 0 100 0 100 40 0 c34 0 40 -3 40 -21 0 -18 2 -19 15
-9 8 7 15 18 15 25 0 8 8 16 18 18 9 3 18 5 20 6 2 0 10 -6 18 -14z m162 -54
c2 -35 -1 -76 -7 -92 -6 -18 -6 -31 0 -34 23 -15 5 -25 -42 -25 -34 0 -48 4
-43 11 3 6 6 56 5 111 l-2 99 43 -3 43 -3 3 -64z m-2120 43 c18 -5 15 -31 -5
-38 -37 -14 -100 24 -77 47 6 5 51 1 82 -9z m549 -56 c-2 -13 -4 -3 -4 22 0
25 2 35 4 23 2 -13 2 -33 0 -45z m493 22 c0 -22 -4 -40 -10 -40 -5 0 -10 18
-10 40 0 22 5 40 10 40 6 0 10 -18 10 -40z m680 0 c0 -22 5 -40 10 -40 6 0 10
-27 10 -60 l0 -60 -55 0 c-30 0 -55 3 -56 8 0 4 -2 16 -5 27 -2 11 -1 53 2 93
l6 72 44 0 44 0 0 -40z m457 -22 c-2 -13 -4 -3 -4 22 0 25 2 35 4 23 2 -13 2
-33 0 -45z m-2180 -75 l1 -73 -31 5 c-18 2 -38 4 -44 4 -17 1 -17 83 -1 99 10
10 10 15 -1 22 -11 6 -7 9 15 13 58 9 59 7 61 -70z m820 35 c-3 -8 -6 -5 -6 6
-1 11 2 17 5 13 3 -3 4 -12 1 -19z m1890 -40 c-2 -13 -4 -3 -4 22 0 25 2 35 4
23 2 -13 2 -33 0 -45z m-2237 -27 c0 -6 -4 -13 -10 -16 -5 -3 -10 1 -10 9 0 9
5 16 10 16 6 0 10 -4 10 -9z"/>
<path d="M4898 2743 c12 -2 32 -2 45 0 12 2 2 4 -23 4 -25 0 -35 -2 -22 -4z"/>
<path d="M5458 2633 c12 -2 32 -2 45 0 12 2 2 4 -23 4 -25 0 -35 -2 -22 -4z"/>
<path d="M3600 2358 c-3 -26 -1 -43 3 -39 5 5 7 26 5 47 l-3 39 -5 -47z"/>
<path d="M3363 2360 c0 -25 2 -35 4 -22 2 12 2 32 0 45 -2 12 -4 2 -4 -23z"/>
<path d="M3011 6963 c-1 -47 3 -75 12 -80 6 -4 18 -20 26 -35 8 -16 38 -53 68
-84 29 -31 53 -61 53 -66 0 -5 -19 -8 -42 -6 -41 3 -43 2 -41 -23 l1 -27 -24
25 c-28 28 -31 43 -8 43 9 0 14 7 12 17 -4 22 -28 29 -28 9 0 -9 -7 -16 -15
-16 -23 0 -21 -132 2 -151 9 -8 18 -13 20 -11 2 1 22 -19 44 -45 88 -104 98
-113 125 -113 25 0 26 2 20 33 -3 17 -14 37 -23 44 -18 14 -21 45 -10 113 3
25 3 34 -1 20 -7 -22 -9 -23 -15 -7 -11 30 -8 37 18 37 14 0 29 -8 35 -20 6
-11 17 -20 25 -20 9 0 15 -10 15 -25 0 -22 4 -25 34 -25 88 0 89 36 4 128 -34
37 -67 73 -73 80 -5 7 -18 22 -27 33 -10 10 -18 22 -18 25 0 10 -58 64 -69 64
-6 0 -11 6 -11 13 0 6 -19 33 -43 58 -23 25 -47 54 -54 65 -10 16 -12 7 -12
-53z m129 -335 c0 -7 -5 -20 -10 -28 -8 -12 -10 -9 -10 13 0 15 5 27 10 27 6
0 10 -6 10 -12z"/>
<path d="M5772 6971 c-9 -5 1 -12 33 -21 47 -13 75 -4 61 19 -8 13 -75 14 -94
2z"/>
<path d="M8583 6924 c-16 -12 -16 -15 -3 -23 17 -11 89 -4 105 11 27 25 -70
36 -102 12z"/>
<path d="M3032 6805 c-9 -11 -10 -20 -3 -33 9 -15 10 -15 11 6 0 12 5 22 10
22 6 0 10 5 10 10 0 14 -13 12 -28 -5z"/>
<path d="M3060 6490 c0 -5 5 -10 11 -10 5 0 7 5 4 10 -3 6 -8 10 -11 10 -2 0
-4 -4 -4 -10z"/>
<path d="M9333 4963 c31 -2 83 -2 115 0 31 2 5 3 -58 3 -63 0 -89 -1 -57 -3z"/>
<path d="M8192 4623 l3 -48 164 0 164 0 2 40 c1 22 -3 43 -9 47 -6 4 -82 8
-169 8 l-158 0 3 -47z"/>
<path d="M9368 4605 l4 -45 64 0 64 0 0 45 0 45 -68 0 -67 0 3 -45z"/>
<path d="M3028 4309 c-17 -9 -18 -47 -18 -559 l0 -550 573 -1 c314 -1 628 -2
697 -3 69 -1 105 1 80 5 l-45 6 39 1 c30 2 47 10 73 37 19 19 43 35 54 35 18
0 19 2 6 14 -9 9 -47 17 -101 22 -93 7 -119 21 -114 58 3 20 7 21 138 18 74
-1 154 -5 178 -8 33 -4 43 -2 48 11 4 9 3 19 -1 23 -3 4 -59 10 -123 13 l-117
5 106 2 c84 2 108 5 113 17 10 27 -31 35 -179 35 l-146 0 6 323 c4 210 3 327
-4 337 -10 15 -107 28 -211 29 l-55 1 0 57 0 58 -34 -2 c-33 -1 -76 -37 -65
-54 20 -32 -79 -66 -159 -55 -23 3 -176 6 -339 7 -164 0 -307 3 -319 6 -19 5
-21 11 -17 64 4 58 4 59 -21 59 -14 0 -34 -5 -43 -11z m1231 -183 c8 -9 10
-92 6 -292 -4 -154 -8 -294 -11 -311 l-5 -33 -125 0 -126 0 6 28 c3 15 8 158
12 317 3 160 8 293 11 298 2 4 53 7 112 7 80 0 112 -4 120 -14z m-1009 -26 c0
-5 -11 -10 -25 -10 -14 0 -28 0 -32 -1 -4 0 -9 4 -11 10 -2 7 11 11 32 11 20
0 36 -4 36 -10z m205 -5 c0 -5 -21 -11 -47 -13 -39 -3 -48 0 -48 13 0 13 9 16
48 13 26 -2 47 -7 47 -13z m225 0 c0 -12 -14 -14 -70 -13 -57 1 -68 3 -59 15
17 19 129 18 129 -2z m160 0 c0 -15 -4 -16 -61 -19 -34 -1 -49 12 -28 25 24
15 89 11 89 -6z m123 -106 c-5 -18 -23 -27 -23 -11 1 25 14 52 20 42 4 -7 5
-21 3 -31z m3 -305 c-3 -96 -9 -161 -16 -168 -7 -7 -59 -11 -143 -11 -76 0
-113 2 -87 6 25 3 34 7 21 7 -20 2 -21 4 -11 17 7 8 16 15 21 15 5 0 9 -7 9
-15 0 -8 7 -15 15 -15 18 0 65 47 65 65 0 9 9 15 21 15 17 0 20 5 16 21 -4 15
0 23 14 26 23 6 63 68 56 87 -5 14 11 106 19 106 3 0 3 -70 0 -156z m-606 -44
c0 -5 -5 -10 -11 -10 -5 0 -7 5 -4 10 3 6 8 10 11 10 2 0 4 -4 4 -10z"/>
<path d="M4820 3985 c-22 -13 -23 -14 -5 -15 30 0 65 11 65 21 0 13 -32 10
-60 -6z"/>
<path d="M4890 3990 c0 -5 7 -10 15 -10 8 0 15 5 15 10 0 6 -7 10 -15 10 -8 0
-15 -4 -15 -10z"/>
<path d="M4945 3990 c-3 -5 1 -10 9 -10 8 0 18 5 21 10 3 6 -1 10 -9 10 -8 0
-18 -4 -21 -10z"/>
<path d="M5000 3990 c0 -5 7 -10 15 -10 8 0 15 5 15 10 0 6 -7 10 -15 10 -8 0
-15 -4 -15 -10z"/>
<path d="M5055 3990 c-20 -8 -20 -9 1 -9 12 -1 50 -3 85 -6 61 -4 62 -4 14 4
-27 5 -57 11 -65 14 -8 3 -24 2 -35 -3z"/>
<path d="M5245 3980 c-3 -5 3 -10 14 -10 12 0 21 5 21 10 0 6 -6 10 -14 10 -8
0 -18 -4 -21 -10z"/>
<path d="M8263 3763 c-8 -19 -9 -159 -6 -718 1 -214 -2 -412 -6 -440 l-8 -50
-2 71 c-2 129 -46 162 -216 163 -169 1 -174 -7 -187 -269 -11 -239 -12 -244
-68 -250 -38 -4 -45 -9 -51 -33 -16 -58 -27 -56 369 -73 140 -6 152 -8 152
-25 0 -15 8 -19 40 -19 22 0 40 -4 40 -9 0 -5 36 -12 80 -16 44 -4 80 -11 80
-16 0 -5 18 -9 40 -9 22 0 40 -4 40 -10 0 -5 18 -10 40 -10 29 0 40 4 40 15 0
11 11 15 40 15 27 0 40 4 40 13 0 11 29 15 117 20 66 4 119 11 121 17 2 5 21
10 43 10 21 0 40 3 40 8 13 75 13 19 5 612 -3 303 -2 519 3 511 6 -9 11 -10
15 -2 4 6 14 11 22 11 12 0 14 -27 14 -155 0 -95 -4 -164 -12 -180 -9 -20 -8
-31 3 -52 10 -22 14 -102 16 -363 2 -210 7 -336 13 -338 6 -2 10 -8 10 -13 0
-6 -4 -7 -10 -4 -5 3 -10 1 -10 -4 0 -6 19 -11 43 -11 23 0 85 -3 137 -6 52
-2 121 -2 153 2 l57 6 0 104 c0 57 -3 104 -7 104 -5 -1 -19 -7 -33 -15 -14 -8
-42 -14 -62 -15 -38 0 -38 -1 -38 -40 l0 -40 -78 0 c-68 0 -79 3 -90 21 -10
15 -11 24 -3 32 15 15 15 647 1 647 -7 0 -10 141 -10 404 l0 404 -22 6 c-13 3
-218 6 -456 6 -399 0 -433 -1 -439 -17z m687 -732 c0 -17 -18 -21 -24 -6 -3 9
0 15 9 15 8 0 15 -4 15 -9z m-640 -235 c0 -3 -4 -8 -10 -11 -5 -3 -10 -1 -10
4 0 6 5 11 10 11 6 0 10 -2 10 -4z m867 -218 c-2 -13 -4 -3 -4 22 0 25 2 35 4
23 2 -13 2 -33 0 -45z m-1288 -183 l2 -125 -27 0 c-22 0 -25 3 -21 23 3 12 9
68 13 125 5 72 10 102 19 102 10 0 13 -31 14 -125z m316 -22 c-5 -99 -10 -119
-21 -89 -4 10 -10 13 -13 8 -3 -5 -63 -11 -133 -14 l-127 -5 3 36 c2 20 4 51
5 69 1 27 5 32 24 31 18 -1 19 -2 3 -6 -16 -4 -13 -10 20 -44 31 -32 45 -39
76 -39 31 0 38 4 38 20 0 17 7 20 40 20 37 0 40 2 40 29 0 21 -6 31 -22 36
l-23 8 23 4 c12 2 22 8 22 13 0 7 16 15 42 19 4 0 5 -42 3 -96z"/>
<path d="M8038 2303 c23 -2 61 -2 85 0 23 2 4 4 -43 4 -47 0 -66 -2 -42 -4z"/>
<path d="M7956 3218 c-3 -7 -4 -42 -3 -78 l2 -65 68 -3 68 -3 -3 78 -3 78 -63
3 c-44 2 -63 -1 -66 -10z m124 -58 c0 -5 -25 -10 -55 -10 -30 0 -55 5 -55 10
0 6 25 10 55 10 30 0 55 -4 55 -10z"/>
<path d="M7899 3180 c-4 -42 -1 -64 9 -68 8 -2 12 10 12 37 0 23 -4 41 -10 41
-5 0 -10 -4 -11 -10z"/>
<path d="M3010 3161 c0 -21 0 -21 455 -21 258 0 455 4 455 9 0 5 -111 12 -247
15 -137 3 -341 9 -455 12 -206 6 -208 6 -208 -15z"/>
<path d="M7613 3000 c0 -25 2 -35 4 -22 2 12 2 32 0 45 -2 12 -4 2 -4 -23z"/>
<path d="M9354 2450 c-6 -6 -8 -29 -5 -53 5 -37 9 -42 34 -45 18 -2 29 2 33
12 3 9 13 16 21 16 8 0 11 5 8 10 -3 6 2 10 12 11 10 0 13 3 6 6 -18 7 -16 23
2 23 31 0 14 18 -22 24 -54 8 -78 7 -89 -4z"/>
<path d="M7160 2221 l-45 -6 40 -8 c48 -8 487 -10 509 -1 9 3 16 9 16 13 0 8
-463 11 -520 2z"/>
<path d="M9070 2215 c0 -8 5 -15 10 -15 6 0 10 7 10 15 0 8 -4 15 -10 15 -5 0
-10 -7 -10 -15z"/>
<path d="M8930 969 c-8 -15 -10 -121 -4 -375 l7 -354 283 0 284 0 0 90 c0 63
-4 91 -13 97 -34 21 -47 58 -47 136 0 74 2 80 30 109 18 17 30 40 30 55 0 25
-1 26 -20 8 -19 -17 -19 -17 -13 19 3 20 0 49 -8 67 l-13 32 -19 -24 c-19 -24
-19 -24 3 -27 19 -3 21 -8 16 -38 -4 -18 -2 -44 4 -56 11 -22 10 -22 -4 -4 -9
11 -16 31 -16 44 0 18 -4 23 -16 18 -11 -4 -18 1 -21 14 -3 11 -9 20 -14 20
-12 0 -11 47 1 55 12 8 13 25 1 25 -5 0 -11 -10 -14 -21 -5 -19 -11 -21 -41
-15 -19 4 -73 7 -120 7 -83 0 -121 12 -53 16 17 1 53 5 80 9 47 6 47 6 47 45
l0 38 113 4 c109 3 107 3 -43 6 -107 3 -141 6 -110 11 28 4 -20 8 -127 8 -165
2 -173 1 -183 -19z m22 -254 c3 -138 2 -200 -2 -145 -8 99 -13 396 -6 389 2
-2 5 -112 8 -244z m374 113 c27 -9 37 -21 49 -57 19 -57 20 -131 1 -131 -7 0
-16 -8 -19 -19 -6 -25 -58 -49 -95 -43 -38 5 -85 -5 -77 -17 8 -14 9 -114 1
-139 -8 -26 -31 -29 -40 -6 -3 9 -6 108 -6 220 l0 204 77 0 c42 0 91 -5 109
-12z"/>
<path d="M9190 710 l0 -90 39 0 c63 0 89 14 100 55 12 45 7 76 -16 92 -10 7
-23 17 -30 23 -7 5 -30 10 -53 10 l-40 0 0 -90z"/>
<path d="M9328 873 c6 -2 18 -2 25 0 6 3 1 5 -13 5 -14 0 -19 -2 -12 -5z"/>
<path d="M9460 874 c0 -9 31 -37 36 -32 9 9 -8 38 -22 38 -8 0 -14 -3 -14 -6z"/>
<path d="M9218 863 c12 -2 32 -2 45 0 12 2 2 4 -23 4 -25 0 -35 -2 -22 -4z"/>
<path d="M9487 603 c-11 -10 -8 -71 3 -78 6 -4 10 12 10 39 0 47 -2 51 -13 39z"/>
</g>
</svg>
