<?xml version="1.0" standalone="no"?>
<!DOCTYPE svg PUBLIC "-//W3C//DTD SVG 20010904//EN"
 "http://www.w3.org/TR/2001/REC-SVG-20010904/DTD/svg10.dtd">
<svg version="1.0" xmlns="http://www.w3.org/2000/svg"
 width="1280.000000pt" height="720.000000pt" viewBox="0 0 1280.000000 720.000000"
 preserveAspectRatio="xMidYMid meet">
<metadata>
Created by potrace 1.16, written by Peter Selinger 2001-2019
</metadata>
<g transform="translate(0.000000,720.000000) scale(0.100000,-0.100000)"
fill="#000000" stroke="none">
<path d="M6235 7183 c-22 -3 -44 -9 -49 -14 -6 -5 -18 -9 -28 -9 -12 0 -18 -8
-18 -23 0 -33 -23 -62 -44 -54 -11 5 -16 1 -16 -12 0 -10 -11 -49 -25 -85 -14
-37 -25 -75 -25 -86 0 -11 -5 -20 -11 -20 -15 0 -48 -42 -49 -62 0 -9 -4 -19
-9 -23 -5 -3 -17 -27 -26 -53 -16 -44 -25 -70 -59 -159 -8 -21 -20 -71 -27
-110 -7 -40 -15 -73 -19 -73 -4 0 -11 -16 -14 -35 -7 -35 -29 -84 -43 -94 -4
-3 -23 -36 -42 -73 -18 -38 -37 -68 -42 -68 -5 0 -9 -11 -9 -25 0 -14 -6 -25
-12 -25 -15 -1 -77 -97 -95 -148 -15 -41 -51 -100 -75 -124 -10 -10 -18 -23
-18 -28 0 -6 -9 -20 -20 -32 -11 -12 -20 -32 -20 -45 0 -16 -6 -23 -20 -23
-11 0 -20 -4 -20 -10 0 -13 -85 -70 -104 -70 -9 0 -16 -4 -16 -10 0 -5 -33
-25 -72 -45 -40 -20 -77 -42 -83 -49 -5 -7 -27 -18 -47 -25 -21 -7 -38 -16
-38 -19 0 -4 -18 -15 -40 -25 -22 -9 -40 -21 -40 -27 0 -5 -8 -10 -17 -10 -10
0 -30 -6 -45 -14 -15 -8 -61 -17 -102 -21 -42 -4 -76 -11 -76 -15 0 -5 -19
-11 -42 -15 -63 -10 -118 -27 -118 -37 0 -4 -28 -8 -62 -8 -38 -1 -70 -6 -81
-15 -11 -7 -54 -22 -98 -31 -43 -10 -79 -22 -79 -26 0 -4 -18 -8 -40 -8 -22 0
-40 -4 -40 -8 0 -7 -177 -32 -233 -32 -15 0 -35 8 -45 18 -10 9 -38 28 -62 41
-46 25 -131 80 -140 91 -23 27 -101 36 -194 24 -40 -6 -46 -10 -46 -30 0 -17
-6 -24 -20 -24 -12 0 -20 -7 -20 -16 0 -9 9 -18 20 -21 11 -3 20 -9 20 -14 0
-5 17 -9 39 -9 48 0 75 -14 128 -68 23 -23 48 -42 55 -42 17 0 92 -69 107 -97
6 -11 30 -30 54 -42 42 -20 53 -21 410 -16 280 3 381 8 432 20 36 8 95 15 131
15 57 0 64 2 64 20 0 13 9 21 28 25 15 3 49 13 76 21 26 7 55 14 62 14 8 0 14
6 14 13 0 15 45 37 76 37 12 0 27 7 34 15 13 16 115 65 135 65 6 0 20 9 30 20
10 11 24 20 32 20 7 0 13 3 13 8 0 8 49 32 67 32 7 0 13 6 13 14 0 8 11 17 25
20 14 4 33 14 43 24 10 9 35 26 56 37 21 11 48 29 59 41 12 11 39 31 60 43 33
20 41 22 52 10 43 -44 69 -208 67 -418 -1 -109 -6 -144 -23 -190 -14 -38 -21
-82 -22 -138 -1 -46 -4 -83 -8 -83 -4 0 -9 -19 -13 -42 -7 -42 -27 -112 -45
-153 -5 -11 -16 -40 -26 -65 -10 -25 -25 -61 -35 -80 -31 -61 -59 -162 -74
-260 -8 -52 -26 -147 -40 -210 -14 -63 -37 -164 -50 -225 -14 -60 -32 -146
-40 -190 -9 -44 -23 -105 -31 -135 -9 -30 -20 -77 -26 -105 -11 -56 -14 -313
-4 -323 3 -3 37 -8 75 -10 l69 -4 6 -62 c7 -62 3 -150 -11 -235 -5 -32 -3 -45
7 -52 8 -5 9 -9 3 -9 -7 0 -14 -30 -19 -72 -3 -40 -13 -90 -20 -113 -19 -59
-28 -115 -26 -158 2 -20 -4 -59 -12 -85 -8 -26 -23 -76 -33 -112 -10 -36 -24
-74 -31 -85 -9 -13 -13 -57 -13 -137 0 -72 -4 -118 -10 -118 -6 0 -10 -116
-10 -327 0 -276 -2 -336 -16 -378 -32 -99 -29 -95 -79 -95 -25 0 -45 -4 -45
-8 0 -5 -18 -14 -40 -21 -29 -9 -40 -17 -40 -31 0 -14 -7 -20 -21 -20 -22 0
-58 -36 -59 -58 0 -13 12 -30 42 -60 38 -38 49 -42 123 -42 43 0 75 -4 75 -10
0 -16 238 -13 255 3 8 9 15 52 19 123 4 60 9 148 12 196 5 78 4 87 -13 91 -15
4 -15 5 3 6 30 1 40 18 49 75 3 27 10 58 15 70 4 11 20 75 35 141 15 66 33
140 41 165 7 25 16 74 20 110 4 36 11 75 15 87 5 13 16 80 24 150 20 163 34
233 46 233 5 0 9 14 9 31 0 36 31 129 43 129 4 0 18 10 31 23 27 24 46 107 26
107 -7 0 -6 5 3 15 14 13 37 114 37 161 0 10 7 37 15 59 20 55 18 72 -5 78
-16 4 -20 11 -16 29 3 13 8 50 11 83 4 33 13 74 21 91 15 31 17 32 102 39 108
10 153 7 205 -11 28 -10 66 -13 125 -9 120 7 139 -5 146 -87 2 -35 10 -115 15
-179 6 -64 11 -144 11 -178 0 -35 4 -61 10 -61 7 0 7 -6 1 -18 -12 -22 -3
-108 15 -149 10 -22 17 -105 23 -286 5 -141 11 -259 14 -264 3 -5 13 -53 21
-108 24 -147 53 -317 73 -430 12 -66 18 -156 19 -265 1 -91 5 -184 9 -207 l8
-43 118 0 c108 0 120 2 138 21 17 19 34 22 135 27 64 2 116 8 116 12 0 4 18
10 40 14 22 3 40 10 40 15 0 5 18 27 40 49 95 92 10 150 -173 118 -43 -8 -54
-6 -113 24 -36 18 -68 40 -71 49 -3 9 -13 24 -21 33 -9 11 -12 27 -8 44 4 14
3 31 -2 37 -6 7 -5 83 0 187 12 216 10 792 -2 840 -11 44 -16 147 -7 157 11
10 8 108 -4 120 -6 6 -13 80 -16 176 -5 137 -3 173 11 215 9 28 16 64 16 80 0
27 4 31 58 46 32 9 67 16 78 16 48 1 48 19 -1 240 -20 89 -55 330 -60 410 -3
36 -9 157 -15 270 -13 249 -55 604 -80 681 -11 31 -26 103 -35 160 -8 57 -22
129 -30 159 -8 30 -18 103 -21 163 -6 88 -4 110 8 125 15 16 48 235 48 315 0
20 5 39 10 42 6 3 10 14 10 23 0 9 14 28 30 42 17 14 39 33 50 43 22 19 18 21
84 -39 15 -13 31 -24 37 -24 6 0 24 -13 42 -30 18 -16 36 -30 40 -30 4 0 20
-11 35 -25 15 -14 31 -25 35 -25 5 0 23 -11 41 -25 18 -14 38 -25 44 -25 18 0
120 -51 133 -66 6 -8 20 -14 30 -14 11 0 19 -4 19 -8 0 -5 35 -26 78 -48 42
-21 79 -41 82 -44 15 -18 99 -39 203 -50 98 -11 117 -16 117 -30 0 -14 13 -18
61 -24 34 -3 86 -3 116 1 39 4 57 2 63 -6 5 -10 59 -13 204 -14 108 -1 196 -5
196 -9 0 -5 18 -8 40 -8 36 0 40 3 40 25 0 23 4 25 40 25 29 0 40 4 40 15 0 9
9 15 24 15 16 0 26 7 30 23 3 12 13 31 23 42 37 40 63 84 63 104 0 12 5 21 10
21 6 0 10 5 10 11 0 12 25 39 37 39 4 0 18 18 31 40 12 22 27 40 32 40 6 0 10
6 10 14 0 7 7 19 15 26 19 16 19 44 0 60 -12 10 -27 -2 -90 -66 -41 -43 -77
-85 -80 -94 -5 -14 -26 -31 -142 -111 l-52 -37 -138 3 c-76 1 -143 3 -150 4
-6 0 -25 12 -41 26 -19 15 -75 38 -150 60 -115 32 -162 52 -162 66 0 4 -18 9
-40 13 -22 3 -40 10 -40 15 0 4 -26 13 -57 20 -125 26 -263 64 -263 73 0 4 -9
8 -19 8 -10 0 -21 7 -25 15 -3 8 -10 15 -17 15 -6 0 -20 11 -31 25 -11 14 -30
25 -44 25 -13 0 -24 3 -24 8 0 4 -18 16 -40 26 -22 11 -40 25 -40 33 0 9 -13
13 -40 13 -29 0 -40 4 -40 15 0 8 -5 15 -10 15 -15 0 -64 51 -80 85 -8 17 -21
38 -30 47 -31 35 -40 47 -40 57 0 13 -129 141 -143 141 -7 0 -23 9 -37 20 -14
11 -32 20 -40 20 -9 0 -6 6 9 14 21 12 22 14 8 22 -11 7 -20 34 -28 89 -6 44
-15 82 -20 83 -5 2 -9 10 -9 18 0 8 -4 14 -9 14 -5 0 -21 24 -36 53 -14 28
-39 75 -55 102 -17 28 -32 55 -34 60 -13 35 -36 121 -47 184 -8 40 -19 76 -26
78 -7 3 -13 16 -13 29 0 31 -31 109 -62 156 -10 14 -18 33 -18 42 0 9 -4 16
-8 16 -5 0 -17 18 -28 40 -10 22 -23 40 -29 40 -5 0 -22 17 -37 38 -29 40
-103 82 -181 100 -45 12 -118 13 -202 5z m409 -298 c27 -57 46 -133 46 -184 0
-45 -17 -117 -32 -137 -5 -6 -6 -18 -2 -27 3 -8 1 -18 -5 -22 -7 -4 -11 11
-11 44 0 29 -5 51 -12 53 -6 2 -13 32 -16 67 -4 52 -2 65 12 73 18 10 22 38 5
38 -5 0 -8 4 -4 9 3 5 -2 29 -10 53 -29 79 -30 80 -9 76 10 -2 27 -21 38 -43z"/>
<path d="M8258 4963 c12 -2 32 -2 45 0 12 2 2 4 -23 4 -25 0 -35 -2 -22 -4z"/>
</g>
</svg>
