<?xml version="1.0" standalone="no"?>
<!DOCTYPE svg PUBLIC "-//W3C//DTD SVG 20010904//EN"
 "http://www.w3.org/TR/2001/REC-SVG-20010904/DTD/svg10.dtd">
<svg version="1.0" xmlns="http://www.w3.org/2000/svg"
 width="1280.000000pt" height="720.000000pt" viewBox="0 0 1280.000000 720.000000"
 preserveAspectRatio="xMidYMid meet">
<metadata>
Created by potrace 1.16, written by Peter Selinger 2001-2019
</metadata>
<g transform="translate(0.000000,720.000000) scale(0.100000,-0.100000)"
fill="#000000" stroke="none">
<path d="M6313 7051 c-84 -6 -95 -9 -122 -35 -24 -23 -31 -38 -31 -68 0 -23
-7 -45 -17 -56 -31 -32 -63 -81 -63 -96 0 -8 -5 -18 -11 -22 -20 -12 -38 -71
-54 -180 -9 -60 -20 -113 -25 -119 -9 -12 -35 -116 -51 -205 -19 -115 -26
-144 -43 -189 -9 -24 -16 -52 -16 -62 0 -11 -4 -19 -10 -19 -5 0 -10 -7 -10
-15 0 -8 -8 -29 -19 -47 -10 -19 -24 -64 -30 -102 -16 -92 -37 -141 -88 -208
-25 -33 -43 -67 -43 -82 0 -14 -4 -26 -9 -26 -13 0 -21 -59 -31 -225 -4 -82
-15 -177 -24 -210 -9 -33 -19 -89 -23 -125 -3 -36 -13 -85 -23 -110 -33 -87
-50 -148 -50 -179 0 -17 -3 -31 -8 -31 -4 0 -13 -13 -20 -29 -7 -16 -22 -39
-32 -51 -11 -13 -20 -36 -20 -52 0 -15 -4 -28 -10 -28 -5 0 -10 -9 -10 -19 0
-11 -4 -22 -9 -26 -5 -3 -15 -30 -21 -60 -6 -30 -16 -55 -21 -55 -5 0 -9 -9
-9 -19 0 -11 -11 -51 -25 -89 -14 -38 -25 -81 -25 -96 0 -15 -7 -29 -15 -32
-10 -4 -15 -20 -15 -45 0 -21 -4 -39 -10 -39 -5 0 -10 -14 -10 -30 0 -17 -6
-46 -14 -64 -13 -31 -20 -35 -86 -50 -40 -9 -93 -16 -117 -16 -28 0 -71 -11
-113 -30 -38 -16 -78 -30 -89 -30 -18 0 -21 -6 -21 -42 0 -23 -6 -57 -12 -76
-19 -50 5 -64 102 -61 79 3 100 -3 100 -27 0 -17 1 -17 93 -4 132 20 177 32
177 49 0 13 2 14 9 2 13 -21 61 12 61 42 0 18 2 19 10 7 5 -8 10 -10 10 -5 0
6 19 30 42 55 58 64 83 107 97 170 14 60 26 91 53 131 22 33 136 257 169 334
41 94 82 232 126 423 13 57 20 72 35 72 10 0 18 -6 18 -12 0 -21 -89 -358
-100 -378 -5 -10 -10 -27 -10 -38 0 -17 -60 -159 -95 -223 -30 -55 -65 -168
-65 -211 0 -24 -5 -49 -11 -55 -16 -16 -39 -157 -39 -243 0 -41 -11 -130 -25
-198 -20 -98 -25 -153 -25 -267 0 -127 -3 -155 -26 -232 -18 -61 -28 -121 -31
-195 l-6 -107 47 -28 c27 -16 46 -35 46 -45 0 -15 9 -18 48 -18 26 -1 76 -8
112 -16 36 -9 88 -19 115 -22 l50 -7 7 -75 c4 -41 7 -127 8 -190 1 -104 -1
-116 -19 -130 -11 -8 -24 -30 -27 -47 -4 -18 -10 -33 -15 -33 -5 0 -9 -7 -9
-15 0 -14 -18 -53 -30 -65 -9 -9 -50 -115 -50 -130 0 -8 -6 -32 -14 -55 -34
-99 -40 -177 -40 -570 -1 -214 -4 -395 -9 -402 -4 -6 -9 -45 -11 -87 -2 -42
-9 -82 -14 -89 -13 -15 -13 -187 0 -187 4 0 8 -12 8 -26 0 -60 55 -72 337 -73
171 -1 173 0 173 76 0 28 -7 43 -27 60 -14 13 -32 23 -39 23 -14 0 -74 72 -74
89 0 6 -11 11 -24 11 -22 0 -24 5 -29 72 -4 40 -12 98 -18 128 -14 66 -14 80
-4 193 4 48 12 87 16 87 5 0 9 14 9 30 0 17 4 38 10 48 20 35 70 206 70 238 0
19 9 60 20 93 12 32 20 63 18 67 -4 12 23 107 33 119 5 5 9 17 9 28 0 19 28
95 61 162 10 22 19 48 19 58 0 10 16 43 36 74 29 46 37 69 43 133 5 43 11 83
15 89 4 6 1 11 -6 11 -10 0 -10 2 -1 8 12 7 17 99 16 260 -1 74 16 83 46 24
21 -42 28 -84 36 -217 8 -142 25 -221 66 -310 35 -75 79 -322 104 -580 3 -34
38 -226 65 -360 13 -67 18 -139 19 -285 1 -209 -3 -250 -24 -250 -17 0 -24
-39 -17 -115 4 -60 6 -64 41 -83 42 -23 137 -34 219 -26 51 6 61 10 80 38 11
17 28 49 35 71 14 39 13 44 -12 93 -14 29 -37 59 -51 65 -32 16 -37 43 -13 76
13 18 18 41 16 76 -3 71 -14 125 -24 125 -10 0 -3 122 12 230 38 265 40 296
30 355 -5 33 -9 128 -9 211 0 88 -4 160 -11 171 -5 11 -20 50 -32 87 -12 36
-26 66 -30 66 -5 0 -9 18 -9 40 0 23 -5 40 -11 40 -9 0 -10 24 -5 86 5 66 3
89 -7 98 -10 8 -12 39 -8 131 l6 120 90 7 c101 9 115 18 115 77 0 20 7 49 15
65 8 15 15 39 15 52 0 13 11 70 24 127 27 116 35 163 72 402 28 184 28 284 -1
396 -20 76 -14 89 40 89 23 0 84 13 135 29 51 17 105 33 120 36 15 3 37 15 48
25 12 11 29 20 38 20 9 0 32 18 51 40 19 22 41 40 49 40 8 0 14 7 14 16 0 9 9
27 19 40 11 14 23 49 26 79 4 30 13 60 21 66 8 6 14 24 14 40 0 15 4 30 8 33
5 3 17 32 27 66 10 34 24 60 32 60 10 0 13 28 15 123 3 180 -3 352 -13 355 -5
2 -9 21 -9 42 0 24 -5 40 -15 44 -8 3 -15 16 -15 30 0 14 -7 31 -15 40 -8 8
-15 22 -15 30 0 15 -21 45 -62 88 -10 10 -18 23 -18 29 0 5 -13 24 -30 42 -16
18 -30 38 -30 45 0 6 -4 12 -10 12 -5 0 -10 5 -10 11 0 13 -55 69 -68 69 -6 0
-19 18 -29 40 -10 22 -23 40 -30 40 -6 0 -17 14 -25 30 -7 17 -16 30 -19 30
-4 0 -12 12 -19 28 -19 46 -34 72 -42 72 -5 0 -8 7 -8 15 0 19 -18 50 -48 83
-12 14 -21 31 -18 38 2 6 -18 27 -45 45 -27 19 -49 39 -49 45 0 6 -13 14 -30
17 -62 13 -100 57 -49 57 10 0 19 5 19 10 0 6 -4 10 -10 10 -5 0 -10 7 -10 16
0 9 -9 23 -20 32 -18 16 -44 76 -57 132 -4 14 -18 37 -32 52 -43 46 -51 57
-51 73 0 8 -3 15 -7 15 -9 0 -33 49 -33 67 0 7 -3 13 -8 13 -13 0 -30 50 -63
185 -18 72 -36 132 -41 133 -4 2 -8 13 -8 25 0 30 -53 137 -67 137 -8 0 -13
13 -13 29 0 17 -5 33 -10 36 -6 4 -20 25 -32 48 -11 23 -31 51 -42 62 -12 11
-35 38 -51 60 -43 58 -75 82 -117 89 -20 3 -42 7 -50 9 -7 2 -54 1 -105 -2z
m324 -318 c17 -34 37 -88 44 -120 12 -59 6 -133 -11 -133 -6 0 -10 -18 -10
-40 0 -22 -4 -40 -10 -40 -5 0 -10 18 -10 40 0 22 -4 40 -9 40 -13 0 -31 57
-31 95 0 18 7 38 16 46 17 14 16 16 -15 99 -39 102 -16 110 36 13z m511 -1478
c6 -14 15 -25 20 -25 15 0 136 -125 191 -198 30 -40 60 -72 65 -72 6 -1 23
-19 38 -40 15 -22 35 -40 43 -40 8 0 15 -7 15 -15 0 -8 5 -15 10 -15 6 0 15
-12 20 -26 6 -14 19 -28 29 -31 37 -9 41 -47 39 -353 -2 -364 0 -360 -133
-395 -38 -10 -79 -28 -91 -40 -12 -12 -39 -24 -61 -27 -60 -8 -133 -45 -133
-68 0 -16 5 -18 38 -13 20 3 41 10 46 14 14 12 43 11 52 -2 10 -17 -33 -54
-110 -94 -64 -34 -69 -35 -92 -20 -21 13 -24 23 -24 73 0 32 -7 70 -16 87 -18
35 -42 117 -56 195 -6 30 -17 63 -26 73 -12 14 -16 49 -19 170 -1 84 -8 194
-15 245 -9 72 -9 100 0 126 7 18 12 44 12 57 0 14 4 29 10 35 5 5 13 73 16
149 4 77 10 145 14 150 3 6 12 30 20 55 7 25 20 51 29 58 25 20 57 14 69 -13z
m-1998 -1455 c0 -5 -6 -10 -14 -10 -8 0 -18 5 -21 10 -3 6 3 10 14 10 12 0 21
-4 21 -10z m48 -44 c-3 -19 -11 -22 -98 -27 -85 -6 -97 -5 -115 12 -19 19 -19
19 0 20 11 1 28 1 38 0 9 -1 17 2 17 8 0 6 33 10 81 9 76 0 80 -1 77 -22z
m-271 -72 c-3 -3 -12 -4 -19 -1 -8 3 -5 6 6 6 11 1 17 -2 13 -5z m360 -26 c-3
-8 -6 -5 -6 6 -1 11 2 17 5 13 3 -3 4 -12 1 -19z"/>
</g>
</svg>
