<?xml version="1.0" standalone="no"?>
<!DOCTYPE svg PUBLIC "-//W3C//DTD SVG 20010904//EN"
 "http://www.w3.org/TR/2001/REC-SVG-20010904/DTD/svg10.dtd">
<svg version="1.0" xmlns="http://www.w3.org/2000/svg"
 width="1280.000000pt" height="720.000000pt" viewBox="0 0 1280.000000 720.000000"
 preserveAspectRatio="xMidYMid meet">
<metadata>
Created by potrace 1.16, written by Peter Selinger 2001-2019
</metadata>
<g transform="translate(0.000000,720.000000) scale(0.100000,-0.100000)"
fill="#000000" stroke="none">
<path d="M6211 7151 c-16 -17 -34 -31 -39 -31 -6 0 -12 -15 -14 -32 -2 -22
-10 -36 -27 -44 -21 -11 -41 -44 -108 -178 -59 -119 -113 -322 -128 -481 -8
-93 -52 -186 -125 -267 -33 -37 -38 -46 -45 -89 -4 -24 -13 -63 -21 -86 -7
-23 -11 -56 -8 -72 5 -21 0 -38 -16 -61 -32 -44 -60 -133 -65 -204 -10 -128
-26 -408 -34 -600 -6 -130 -13 -201 -21 -206 -7 -4 -9 -20 -5 -42 5 -26 2 -39
-10 -52 -26 -26 -44 -233 -45 -511 l0 -240 -30 -79 c-17 -44 -38 -92 -47 -107
-16 -27 -16 -29 2 -44 20 -14 20 -14 -2 -15 -13 0 -23 -6 -23 -14 0 -7 -12
-39 -26 -71 -25 -55 -26 -61 -19 -173 4 -64 13 -135 20 -159 7 -23 11 -44 8
-47 -3 -2 -2 -14 2 -25 4 -15 15 -21 33 -21 34 0 59 42 68 113 5 34 11 47 23
47 15 1 62 81 61 107 0 6 5 13 12 15 13 5 13 10 24 151 4 53 11 97 15 97 4 0
11 25 15 56 6 51 24 77 41 60 4 -3 -3 -70 -15 -149 -12 -78 -34 -232 -48 -341
-17 -136 -32 -219 -48 -260 -13 -34 -27 -88 -30 -121 -4 -33 -14 -79 -22 -104
-14 -42 -14 -46 5 -72 12 -16 21 -36 21 -46 0 -14 28 -27 133 -61 72 -23 144
-42 160 -42 45 0 63 -29 76 -121 17 -117 10 -263 -23 -469 -24 -151 -27 -194
-23 -315 7 -178 22 -314 47 -435 11 -52 27 -132 35 -177 7 -44 18 -98 24 -120
7 -30 9 -245 3 -326 -1 -10 -34 -49 -73 -87 -63 -61 -72 -73 -75 -112 -8 -83
42 -104 225 -92 105 6 116 9 144 34 27 24 31 35 34 91 2 35 8 127 13 204 8
119 7 147 -7 189 -14 44 -14 70 -4 230 6 100 16 217 22 261 5 44 13 199 18
345 7 216 11 272 25 305 10 22 22 65 27 95 5 30 13 78 18 105 6 28 10 114 10
193 1 114 4 142 15 142 11 0 15 -38 19 -197 3 -109 9 -223 14 -253 8 -61 8
-75 -1 -725 -6 -360 -10 -468 -21 -497 -10 -25 -16 -97 -19 -226 -3 -104 -8
-200 -11 -214 -5 -20 0 -32 25 -57 17 -17 43 -32 58 -33 15 -1 41 -2 59 -3 17
-1 65 -5 107 -9 61 -5 82 -4 108 10 73 38 90 105 39 152 -138 127 -135 122
-126 249 4 60 2 99 -5 112 -8 16 -7 26 5 44 8 13 27 66 40 118 77 285 105 402
105 431 0 18 7 65 16 103 25 113 38 306 24 373 -19 96 -34 286 -22 290 6 2 9
9 6 16 -6 17 32 239 57 333 l11 41 77 7 c42 4 92 14 111 22 19 8 73 22 119 33
46 10 87 22 91 27 5 4 5 134 0 288 l-8 280 25 43 c28 48 73 175 73 204 0 10
-6 21 -14 24 -27 10 -40 117 -27 222 7 56 13 242 14 442 1 281 -2 363 -15 440
-30 172 -47 392 -52 711 -5 250 -15 327 -52 397 -31 59 -55 84 -117 124 -33
21 -45 34 -38 41 11 11 3 96 -10 112 -5 5 -9 32 -9 61 0 54 -16 114 -31 114
-5 0 -9 4 -9 8 0 4 -24 51 -53 104 -37 68 -61 125 -76 190 -33 132 -78 263
-107 305 -13 20 -24 40 -24 46 0 10 -60 136 -73 152 -4 6 -20 28 -36 50 -40
57 -103 77 -253 83 l-118 4 -29 -31z m401 -183 c34 -19 45 -37 72 -113 39
-105 46 -176 32 -286 -10 -78 -27 -139 -39 -139 -2 0 1 38 5 85 4 47 3 96 -1
108 -5 13 -12 57 -16 100 -4 42 -11 77 -15 77 -5 0 -6 18 -3 39 5 35 1 44 -31
77 -20 20 -36 43 -36 51 0 16 4 16 32 1z m-708 -1887 c4 -5 0 -96 -9 -203 -14
-186 -25 -247 -66 -370 -10 -32 -19 -71 -19 -87 0 -16 -3 -36 -6 -45 -7 -18
-30 -21 -39 -6 -5 9 19 116 65 280 14 48 26 141 35 255 7 99 13 181 14 183 2
6 20 1 25 -7z"/>
</g>
</svg>
