<?xml version="1.0" standalone="no"?>
<!DOCTYPE svg PUBLIC "-//W3C//DTD SVG 20010904//EN"
 "http://www.w3.org/TR/2001/REC-SVG-20010904/DTD/svg10.dtd">
<svg version="1.0" xmlns="http://www.w3.org/2000/svg"
 width="1280.000000pt" height="720.000000pt" viewBox="0 0 1280.000000 720.000000"
 preserveAspectRatio="xMidYMid meet">
<metadata>
Created by potrace 1.16, written by Peter Selinger 2001-2019
</metadata>
<g transform="translate(0.000000,720.000000) scale(0.100000,-0.100000)"
fill="#000000" stroke="none">
<path d="M6285 7119 c-22 -5 -47 -10 -55 -12 -36 -5 -70 -45 -84 -98 -8 -30
-26 -76 -40 -102 -14 -26 -26 -61 -26 -77 0 -15 -4 -30 -9 -32 -5 -1 -35 -73
-66 -158 -76 -207 -76 -207 -82 -273 -2 -31 -11 -70 -19 -85 -7 -15 -14 -37
-14 -49 0 -12 -4 -25 -10 -28 -5 -3 -10 -15 -10 -26 0 -10 -4 -19 -9 -19 -5 0
-12 -13 -16 -30 -4 -16 -10 -30 -15 -30 -5 0 -18 -26 -30 -57 -23 -65 -28 -76
-64 -152 -30 -64 -32 -78 -10 -103 16 -16 15 -19 -7 -37 -13 -11 -27 -20 -31
-21 -5 0 -8 -11 -8 -25 0 -14 -6 -25 -13 -25 -8 0 -22 -18 -32 -40 -10 -22
-21 -40 -26 -40 -4 0 -10 -18 -14 -40 -4 -22 -11 -40 -16 -40 -5 0 -9 -14 -9
-32 0 -32 -12 -78 -37 -135 -7 -17 -13 -40 -13 -52 0 -12 -4 -21 -10 -21 -10
0 -70 -123 -70 -146 0 -8 -4 -14 -10 -14 -5 0 -10 -12 -10 -27 0 -56 6 -55
-296 -49 -153 3 -433 8 -621 12 -189 3 -343 8 -343 12 0 4 -141 8 -313 9 -171
1 -430 5 -574 9 l-263 6 0 -186 0 -186 203 0 c111 0 231 4 267 9 36 5 239 13
453 17 342 6 387 5 387 -9 0 -11 18 -16 74 -22 73 -6 116 3 116 25 0 6 11 5
25 -2 14 -6 25 -17 25 -25 0 -9 13 -13 40 -13 22 0 40 5 40 10 0 6 73 10 200
10 124 0 200 -4 200 -10 0 -6 46 -7 124 -3 l125 6 5 -24 c3 -13 7 -62 10 -109
7 -112 63 -322 115 -435 28 -60 81 -200 81 -214 0 -7 -8 -10 -17 -7 -28 8
-447 11 -459 3 -6 -3 -14 -4 -18 0 -10 11 -154 9 -169 -2 -10 -7 -14 -41 -16
-124 -1 -62 -6 -123 -12 -134 -8 -14 -8 -31 -1 -56 6 -20 9 -107 7 -193 -2
-129 0 -158 11 -158 8 0 14 9 14 20 0 13 10 24 25 30 14 5 36 21 49 35 21 23
26 24 39 11 10 -10 17 -12 25 -4 14 14 35 0 28 -19 -3 -8 -1 -23 4 -33 8 -15
6 -20 -9 -25 -10 -3 -21 -15 -24 -26 -3 -11 -15 -23 -26 -26 -12 -3 -22 -9
-22 -14 -1 -5 -2 -13 -3 -18 -2 -18 -16 -24 -29 -13 -7 6 -23 9 -35 5 -18 -4
-22 -1 -22 16 0 12 -6 21 -15 21 -9 0 -15 -9 -15 -22 0 -13 -3 -34 -7 -47 -6
-23 -5 -24 45 -19 29 3 52 1 52 -4 0 -5 11 -1 25 8 13 8 28 13 33 10 7 -4 148
-6 277 -5 11 1 86 -1 168 -2 133 -3 147 -5 147 -21 0 -36 -27 -38 -392 -28
-194 6 -368 13 -387 16 -28 6 -33 4 -28 -9 4 -10 -1 -17 -15 -20 -11 -3 -402
-3 -869 0 l-849 6 0 -21 c0 -21 5 -22 138 -25 l137 -3 -137 -2 c-131 -2 -138
-3 -138 -22 0 -18 7 -20 61 -20 60 0 60 0 57 -27 -3 -27 -6 -28 -60 -31 -50
-3 -58 -6 -58 -22 0 -18 7 -20 58 -20 43 0 53 -3 42 -11 -11 -8 -12 -12 -2
-16 8 -3 12 -30 12 -84 l0 -79 -32 0 c-71 0 -78 -7 -78 -71 0 -48 3 -57 15
-53 8 4 15 1 15 -5 0 -6 -7 -11 -15 -11 -11 0 -15 -11 -15 -40 0 -35 3 -40 24
-40 22 0 24 -5 31 -77 5 -54 4 -78 -4 -81 -6 -2 -9 -8 -5 -13 9 -16 -7 -33
-17 -18 -16 25 -29 -12 -29 -83 0 -59 2 -68 18 -68 18 0 55 -34 85 -79 17 -25
14 -27 59 30 18 22 105 14 110 -9 3 -13 10 -10 32 16 25 28 36 32 78 32 45 0
48 -2 48 -25 0 -16 6 -25 16 -25 9 0 24 -10 35 -23 16 -19 20 -20 29 -7 5 8 7
22 4 31 -3 10 8 29 26 48 36 35 50 39 50 14 1 -17 1 -17 14 0 20 25 34 21 41
-14 4 -17 13 -41 20 -55 l12 -24 15 22 c8 13 20 38 27 56 13 31 15 32 76 32
l62 0 18 -55 c20 -59 35 -71 35 -29 0 31 46 80 84 90 14 3 45 3 69 0 37 -6 44
-12 62 -49 14 -30 20 -37 23 -24 11 56 103 90 130 47 17 -27 32 -25 32 5 l0
25 238 1 c305 1 390 -1 409 -8 8 -3 19 -16 24 -29 12 -32 24 -30 39 7 13 30
15 31 62 27 36 -4 55 -12 75 -34 l28 -29 3 31 3 32 77 7 c53 5 77 4 80 -4 2
-6 10 -11 18 -11 8 0 14 -7 14 -15 0 -8 5 -15 10 -15 6 0 10 7 10 15 0 8 7 15
15 15 8 0 15 4 15 9 0 6 96 8 238 5 130 -2 249 -4 265 -4 30 0 36 -20 12 -40
-8 -7 -15 -21 -15 -31 0 -11 -4 -19 -10 -19 -5 0 -10 -13 -10 -29 0 -16 -6
-36 -13 -43 -7 -7 -19 -29 -27 -48 -8 -19 -19 -38 -26 -42 -6 -4 -15 -24 -18
-43 -4 -19 -10 -35 -15 -35 -4 0 -16 -26 -26 -57 -10 -32 -21 -67 -26 -78 -4
-11 -13 -51 -19 -90 -7 -38 -19 -97 -26 -130 -8 -33 -22 -170 -30 -305 -16
-265 -40 -386 -98 -494 -22 -41 -26 -62 -26 -127 0 -64 3 -79 15 -79 10 0 15
-10 15 -29 0 -17 5 -33 11 -37 8 -5 8 -9 -1 -14 -8 -5 2 -20 29 -47 23 -22 41
-49 41 -61 0 -19 6 -22 40 -22 37 0 40 -2 40 -29 0 -27 2 -28 61 -35 34 -3 72
-6 85 -6 34 0 64 37 64 80 0 35 1 36 53 48 29 6 72 12 95 12 24 0 42 5 42 11
0 7 -18 10 -47 9 -27 -2 -55 -2 -63 -1 -35 3 17 21 63 21 26 0 47 5 47 10 0 6
15 10 34 10 38 0 46 12 46 71 0 33 -4 41 -30 54 -16 9 -30 20 -30 25 0 6 -9
10 -21 10 -21 0 -79 50 -79 69 0 6 -8 11 -19 11 -10 0 -21 9 -24 20 -3 11 -12
20 -21 20 -9 0 -16 6 -16 13 0 8 -8 29 -17 48 -14 27 -18 59 -18 149 0 118 9
163 60 310 13 36 30 86 39 113 9 26 23 68 32 95 9 26 19 62 22 80 2 17 8 32
13 32 5 0 9 10 9 23 0 12 14 51 30 85 17 35 30 68 30 74 0 17 103 218 112 218
4 0 8 7 8 15 0 27 64 144 79 145 12 0 13 -25 8 -153 -4 -83 -11 -168 -17 -187
-12 -43 -30 -412 -30 -615 0 -108 -5 -168 -16 -210 -12 -44 -18 -115 -20 -264
-3 -179 -1 -206 14 -227 9 -13 27 -24 40 -24 13 0 22 -6 22 -15 0 -11 11 -15
40 -15 36 0 40 -2 40 -25 0 -22 4 -25 40 -25 l40 0 0 -40 0 -40 -80 0 -80 0 0
40 c0 22 -4 40 -10 40 -5 0 -10 -18 -10 -40 0 -22 -4 -40 -10 -40 -5 0 -10
-18 -10 -40 0 -27 -4 -40 -14 -40 -9 0 -15 -20 -20 -61 -11 -110 -28 -99 154
-99 l160 0 0 40 c0 29 -4 40 -15 40 -12 0 -15 16 -15 80 0 64 -3 80 -15 80
-11 0 -15 11 -15 40 0 38 2 40 30 40 43 0 37 18 -7 23 -23 3 -18 3 11 2 66 -3
95 10 133 61 28 37 31 47 23 74 -9 31 -52 80 -70 80 -4 0 -29 20 -54 44 -55
54 -71 107 -60 204 5 46 3 66 -6 72 -9 6 -9 14 3 36 20 40 57 159 57 184 0 11
4 20 8 20 5 0 19 35 32 78 14 42 27 79 30 82 10 8 41 150 35 159 -2 5 2 28 10
51 8 23 15 55 15 71 0 16 7 32 18 38 16 9 17 33 16 294 l-2 285 119 7 119 7 0
40 0 40 -119 -4 -120 -3 5 25 c39 216 56 296 64 304 7 7 10 4 10 -7 0 -13 9
-17 43 -17 76 0 342 54 353 71 2 5 -2 59 -10 121 -8 62 -20 169 -26 238 -6 69
-13 132 -16 140 -2 9 7 27 21 42 14 15 25 31 25 36 0 4 9 26 20 49 46 95 63
173 37 173 -7 0 -19 17 -27 38 -19 49 -21 302 -3 317 10 8 13 99 15 380 2 311
0 376 -13 410 -20 53 -26 205 -7 206 45 2 764 -2 863 -6 66 -2 338 -7 605 -10
267 -3 542 -8 613 -11 l127 -7 0 52 c0 50 -1 51 -30 51 -16 0 -30 5 -30 11 0
9 -175 11 -660 8 -578 -4 -660 -6 -660 -19 -1 -12 -4 -11 -14 3 -12 16 -26 18
-98 15 -45 -1 -210 -2 -365 0 l-283 2 0 40 c0 29 -4 40 -15 40 -11 0 -15 -11
-15 -40 0 -29 -4 -40 -15 -40 -10 0 -17 -14 -21 -40 -12 -75 -24 -40 -25 73 0
61 -4 243 -8 402 -9 285 -9 291 -35 341 -14 29 -26 64 -26 78 0 17 -5 26 -15
26 -8 0 -39 20 -69 44 -40 32 -51 47 -45 58 9 17 -6 204 -22 277 -5 24 -18 55
-29 69 -11 13 -20 31 -20 39 0 8 -11 28 -25 45 -14 16 -25 38 -25 48 0 10 -4
21 -9 24 -4 3 -16 31 -25 63 -10 32 -21 67 -26 78 -4 11 -20 60 -35 108 -15
49 -34 95 -41 102 -8 7 -14 17 -14 22 0 15 -25 63 -32 63 -5 0 -8 7 -8 16 0
21 -88 144 -103 144 -3 0 -29 24 -58 53 -93 92 -115 104 -199 110 -41 3 -93 1
-115 -4z m384 -372 c17 -33 22 -60 22 -112 0 -40 -4 -71 -10 -73 -6 -2 -11
-21 -11 -43 0 -28 -4 -39 -15 -39 -11 0 -15 11 -15 35 0 20 -7 47 -16 61 -13
19 -15 36 -9 72 11 73 9 101 -7 120 -9 9 -18 35 -22 57 l-6 40 33 -37 c18 -21
44 -57 56 -81z m-889 -921 c0 -8 -4 -18 -10 -21 -5 -3 -10 3 -10 14 0 12 5 21
10 21 6 0 10 -6 10 -14z m60 -761 l0 -125 -39 0 c-22 0 -41 5 -44 13 -7 18 17
147 32 177 14 25 41 60 48 60 1 0 3 -56 3 -125z m-1164 -257 c2 -3 2 -13 -2
-22 -6 -15 -18 -17 -82 -14 -75 3 -102 18 -71 40 14 9 145 6 155 -4z m44 -58
c0 -5 -4 -10 -10 -10 -5 0 -10 5 -10 10 0 6 5 10 10 10 6 0 10 -4 10 -10z
m143 3 c-13 -2 -33 -2 -45 0 -13 2 -3 4 22 4 25 0 35 -2 23 -4z m424 -16 c9
-9 -18 -11 -115 -9 -70 2 -129 8 -132 12 -3 5 -23 11 -45 13 -22 3 32 3 120 0
101 -3 164 -9 172 -16z m503 -1 c0 -8 5 -16 12 -18 10 -4 10 -25 -1 -99 -7
-52 -17 -111 -22 -133 -6 -21 -14 -62 -19 -91 -5 -29 -22 -81 -38 -116 -16
-35 -35 -82 -42 -104 -16 -52 -28 -64 -34 -34 -11 50 -35 207 -42 272 -4 37
-10 67 -13 67 -4 0 -15 34 -26 76 l-19 75 30 28 c34 32 97 57 102 41 5 -13 82
-13 82 0 0 6 -17 10 -37 11 -51 1 -82 13 -63 24 9 5 15 4 18 -3 6 -19 92 -16
92 3 0 8 5 15 10 15 6 0 10 -6 10 -14z m1257 -408 c-3 -8 -6 -5 -6 6 -1 11 2
17 5 13 3 -3 4 -12 1 -19z m71 -298 c45 -191 57 -269 44 -287 -4 -7 -15 31
-25 90 -10 56 -22 122 -27 147 -8 38 -28 146 -45 240 -14 76 17 -35 53 -190z
m-1958 -228 c0 -4 -12 -9 -27 -10 -15 -1 -30 -8 -35 -15 -5 -8 -8 -4 -8 11 0
19 5 22 35 22 19 0 35 -4 35 -8z m-26 -64 c5 -23 3 -28 -13 -28 -11 0 -23 5
-26 10 -3 6 1 10 9 10 10 0 16 9 16 22 0 27 5 21 14 -14z m418 -30 c-15 -15
-26 -4 -18 18 5 13 9 15 18 6 9 -9 9 -15 0 -24z m-592 12 c0 -5 -6 -10 -14
-10 -8 0 -18 5 -21 10 -3 6 3 10 14 10 12 0 21 -4 21 -10z m100 0 c0 -11 -14
-11 -50 0 -22 7 -21 8 13 9 20 1 37 -3 37 -9z m175 0 c-3 -5 -13 -10 -21 -10
-8 0 -14 5 -14 10 0 6 9 10 21 10 11 0 17 -4 14 -10z m98 -7 c-7 -2 -19 -2
-25 0 -7 3 -2 5 12 5 14 0 19 -2 13 -5z m110 0 c-7 -2 -21 -2 -30 0 -10 3 -4
5 12 5 17 0 24 -2 18 -5z m-128 -30 c-11 -3 -23 -10 -27 -17 -5 -7 -8 -5 -8 7
0 12 7 17 28 16 21 -1 22 -2 7 -6z m141 -80 c-7 -18 -68 -14 -72 5 -1 7 0 8 3
2 8 -16 23 -12 23 8 1 16 1 16 14 0 20 -27 26 -22 28 25 1 38 2 39 5 9 3 -19
2 -41 -1 -49z m-218 25 c17 -17 15 -25 -8 -31 -23 -6 -34 7 -26 28 7 18 18 19
34 3z m294 -13 c4 -21 1 -25 -19 -25 -22 0 -23 1 -9 16 9 8 16 20 16 25 0 18
8 8 12 -16z m-402 0 c0 -9 -9 -15 -22 -15 -21 0 -21 0 -2 15 24 18 24 18 24 0z
m-80 -11 c0 -2 -9 -4 -21 -4 -11 0 -18 4 -14 10 5 8 35 3 35 -6z m310 -6 c0
-5 -18 -8 -40 -8 -22 0 -40 3 -40 8 0 4 18 7 40 7 22 0 40 -3 40 -7z m-268
-58 c-2 -16 -6 -30 -8 -30 -2 0 -4 14 -4 30 0 17 4 30 8 30 5 0 7 -13 4 -30z
m343 10 c3 -5 -3 -10 -14 -10 -12 0 -21 5 -21 10 0 6 6 10 14 10 8 0 18 -4 21
-10z m-200 -50 c0 -18 -6 -26 -22 -28 -18 -3 -23 1 -23 21 0 28 9 39 30 35 9
-2 15 -14 15 -28z m209 15 c-7 -16 -24 -21 -24 -6 0 8 7 13 27 20 1 1 0 -6 -3
-14z m-504 -29 c0 -11 -19 -15 -25 -6 -3 5 1 10 9 10 9 0 16 -2 16 -4z m115
-6 c-3 -5 -15 -10 -26 -10 -10 0 -19 5 -19 10 0 6 12 10 26 10 14 0 23 -4 19
-10z m90 0 c-3 -5 -15 -10 -25 -10 -10 0 -22 5 -25 10 -4 6 7 10 25 10 18 0
29 -4 25 -10z m185 0 c0 -5 -7 -10 -15 -10 -8 0 -15 5 -15 10 0 6 7 10 15 10
8 0 15 -4 15 -10z m23 -149 c20 -34 22 -50 5 -33 -19 19 -28 14 -28 -13 0 -24
2 -25 40 -19 26 4 40 3 40 -4 0 -16 -50 -19 -89 -6 -33 11 -35 14 -36 58 0 43
1 46 25 46 18 0 31 -9 43 -29z m182 -21 c-5 -8 -11 -8 -17 -2 -6 6 -7 16 -3
22 5 8 11 8 17 2 6 -6 7 -16 3 -22z m-320 -28 c-8 -8 -25 10 -25 26 0 13 2 13
14 -4 8 -10 13 -21 11 -22z m-1540 -257 c6 -2 -64 -3 -155 -2 -127 0 -145 2
-80 6 81 6 214 3 235 -4z m221 4 c3 -5 -34 -9 -81 -9 -47 0 -84 4 -81 9 7 11
155 11 162 0z m-616 -68 c0 -15 -9 -20 -47 -23 -54 -5 -67 1 -57 25 5 13 19
17 55 17 41 0 49 -3 49 -19z m240 -1 c0 -11 -3 -20 -7 -21 -58 -6 -143 -9
-160 -4 -14 3 -23 13 -23 25 0 19 7 20 95 20 88 0 95 -1 95 -20z m1872 -25
c-1 -22 -4 -105 -5 -185 l-2 -145 -25 1 c-14 0 -55 1 -92 2 -74 2 -94 21 -25
24 l42 1 -37 4 -38 4 0 64 c0 78 7 100 26 84 8 -6 14 -7 14 -2 0 4 18 8 41 8
30 0 44 6 51 20 11 19 11 19 19 0 5 -14 8 -7 8 24 1 24 -2 41 -6 38 -3 -4 -16
-1 -27 6 -22 14 -83 16 -103 4 -15 -9 -30 60 -17 73 8 8 119 18 164 15 11 0
14 -11 12 -40z m128 6 c0 -28 -6 -44 -19 -53 -17 -12 -19 -25 -17 -112 2 -93
4 -100 25 -108 17 -6 22 -14 19 -35 -3 -25 -8 -28 -42 -31 -24 -2 -42 2 -47
10 -8 13 -10 345 -2 361 2 4 22 7 44 7 39 0 39 0 39 -39z m-1840 14 c0 -11
-12 -15 -42 -16 -70 -2 -85 2 -73 20 3 6 31 11 61 11 41 0 54 -4 54 -15z m215
0 c0 -5 -34 -12 -75 -16 -72 -5 -106 3 -94 23 8 12 169 6 169 -7z m243 3 c-3
-9 -33 -14 -93 -16 -93 -3 -120 1 -110 18 10 16 208 13 203 -2z m162 -33 c0
-38 -3 -45 -20 -45 -13 0 -20 7 -20 18 0 23 -19 42 -41 42 -9 0 -22 7 -29 15
-11 13 -5 15 49 15 l61 0 0 -45z m700 21 c0 -14 -6 -28 -12 -33 -17 -10 -243
-23 -473 -26 l-180 -2 -3 28 c-7 59 -22 57 338 57 l330 0 0 -24z m154 18 c9
-3 16 -18 16 -33 0 -25 -2 -26 -65 -29 l-65 -3 0 35 0 36 49 0 c27 0 56 -3 65
-6z m-864 -246 c0 -71 -2 -78 -19 -78 -12 0 -21 8 -23 22 -4 26 -43 35 -52 12
-3 -9 -4 -20 0 -25 3 -5 0 -9 -6 -9 -7 0 -10 34 -8 107 3 105 3 106 28 110 14
2 27 9 29 15 2 6 14 -8 27 -33 18 -35 23 -61 24 -121z m-170 137 c12 0 15 -15
15 -77 0 -47 -5 -82 -12 -89 -18 -18 -173 -16 -184 2 -11 17 -12 140 -1 154 4
6 36 12 72 14 36 1 67 4 69 6 2 3 9 1 15 -3 6 -3 18 -7 26 -7z m-885 -7 l45 4
0 -80 0 -80 -45 -4 c-25 -2 -50 1 -55 6 -12 12 -14 149 -3 160 4 4 9 4 10 -1
2 -4 23 -7 48 -5z m233 -11 c10 -8 16 -7 21 2 13 21 18 -16 11 -94 -3 -39 -8
-65 -13 -58 -4 7 -14 10 -22 6 -10 -3 -15 1 -16 13 -1 16 -2 16 -6 2 -3 -12
-18 -17 -59 -20 -31 -1 -58 -1 -60 1 -6 7 -5 128 2 146 5 13 19 16 68 14 33
-1 67 -7 74 -12z m164 2 l48 2 0 -74 0 -75 -57 -5 c-32 -2 -59 -3 -61 -2 -2 2
-6 28 -9 58 -7 65 2 111 19 101 7 -4 34 -6 60 -5z m250 -3 c14 -21 9 -136 -6
-142 -7 -3 -45 -6 -85 -7 l-71 -2 0 76 c0 42 2 78 5 81 11 10 150 6 157 -6z
m576 -32 c37 3 93 6 124 6 45 0 57 3 61 18 4 13 5 11 6 -5 1 -22 31 -34 31
-13 0 6 10 2 22 -10 19 -18 36 -20 142 -22 67 0 127 -1 134 -1 9 1 12 -22 12
-83 0 -53 -4 -84 -11 -84 -6 0 -9 22 -8 60 1 33 -1 63 -4 67 -4 3 -7 -19 -7
-50 l0 -56 -35 6 c-23 4 -35 2 -35 -6 0 -6 17 -11 38 -12 30 0 33 -2 17 -9
-29 -12 -465 -12 -465 0 0 6 73 10 200 10 116 0 200 4 200 9 0 10 -496 5 -512
-5 -4 -3 -8 0 -8 5 0 6 -7 11 -15 11 -13 0 -15 14 -13 83 3 69 6 82 19 79 10
-1 20 7 24 20 l8 23 4 -24 c5 -23 7 -24 71 -17z m672 -35 c0 -6 7 -9 15 -5 11
4 15 -1 14 -17 0 -12 -3 -16 -6 -9 -11 29 -23 8 -23 -42 0 -39 4 -55 15 -60
34 -13 12 -26 -45 -26 -33 0 -60 4 -60 10 0 6 18 10 40 10 l40 0 0 45 0 45
-42 2 -43 1 43 4 c53 5 55 23 2 23 -29 0 -40 4 -40 15 0 11 12 15 45 15 26 0
45 -5 45 -11z m514 -145 c52 -9 44 -24 -14 -24 -44 0 -50 2 -50 21 0 14 5 19
14 16 8 -3 31 -9 50 -13z m-1196 -21 c-10 -2 -26 -2 -35 0 -10 3 -2 5 17 5 19
0 27 -2 18 -5z m-325 -197 c-2 -60 -5 -112 -8 -114 -3 -3 -29 -7 -59 -10 l-54
-4 -7 80 c-4 45 -4 99 0 122 l7 41 61 -3 62 -3 -2 -109z m144 74 c13 0 15 -13
11 -83 -5 -90 -13 -116 -32 -97 -8 8 -7 13 3 19 11 7 11 12 -2 32 -11 18 -13
42 -9 94 3 39 7 62 10 53 2 -10 10 -18 19 -18z m1517 8 c9 -34 7 -181 -2 -196
-5 -8 -44 -15 -105 -19 -94 -6 -97 -5 -97 15 0 18 5 20 33 16 17 -3 59 -1 92
4 56 9 57 10 18 11 l-43 1 0 54 c0 40 -4 55 -16 60 -14 5 -13 9 2 35 14 24 26
31 58 34 23 2 44 4 47 5 4 1 9 -8 13 -20z m-2199 2 c4 -6 11 -8 16 -4 5 3 23
2 40 -1 l31 -7 -7 -77 c-4 -42 -8 -85 -9 -96 -1 -17 -8 -20 -51 -20 l-50 0 -3
85 c-2 47 0 95 3 108 6 23 20 29 30 12z m289 -6 c3 -9 6 -37 6 -62 0 -36 -5
-50 -20 -60 -13 -8 -20 -23 -20 -42 0 -28 -2 -30 -39 -30 -32 0 -40 4 -45 23
-8 29 -8 151 0 171 9 23 109 23 118 0z m96 6 c0 -5 -4 -10 -10 -10 -5 0 -10 5
-10 10 0 6 5 10 10 10 6 0 10 -4 10 -10z m1393 -4 c16 -12 17 -25 11 -110 l-7
-96 -83 0 -84 0 0 95 0 95 40 0 c25 0 40 -5 40 -12 0 -7 12 0 27 15 31 31 32
31 56 13z m164 2 c11 -19 4 -161 -8 -169 -8 -5 -8 -8 0 -13 23 -15 9 -26 -33
-26 l-44 0 -1 110 -2 110 40 0 c22 0 43 -6 48 -12z m322 -16 c-15 -6 -10 -32
6 -32 8 0 15 -7 15 -15 0 -8 -3 -15 -8 -15 -12 0 -1 -83 14 -97 7 -7 20 -13
28 -13 30 0 16 -19 -18 -26 -57 -10 -60 -6 -62 97 -3 111 1 134 21 116 7 -6 9
-13 4 -15z m135 -47 c17 -167 17 -157 -7 -153 -21 3 -22 9 -25 93 -3 101 4
148 18 125 5 -8 11 -37 14 -65z m-358 -10 c-9 -14 -16 -31 -14 -38 3 -18 -12
-57 -23 -57 -5 0 -10 26 -10 58 -2 107 3 119 37 87 26 -24 26 -26 10 -50z
m-2211 34 c-9 -40 -10 -143 -1 -157 9 -15 -6 -22 -40 -17 -16 2 -35 4 -41 4
-20 1 -17 91 2 91 21 0 19 30 -2 31 -14 0 -13 2 5 9 27 12 29 30 2 37 -11 3
-20 12 -20 19 0 10 14 14 51 14 l51 0 -7 -31z m1009 -96 c-4 -18 -10 -33 -15
-33 -5 0 -9 -7 -9 -15 0 -11 11 -15 41 -15 l41 0 -6 43 c-7 49 -7 127 0 139 3
4 48 8 100 8 l94 0 0 -80 c0 -57 -4 -80 -12 -81 -18 -1 23 -17 45 -18 15 -1
17 9 17 78 l0 79 48 4 c46 4 112 -16 112 -34 0 -4 7 -8 15 -8 11 0 15 -12 15
-50 0 -38 -4 -50 -15 -50 -8 0 -15 -4 -15 -9 0 -11 25 -21 56 -21 23 0 24 3
24 64 0 35 3 78 6 95 13 62 24 29 24 -68 0 -88 -2 -100 -17 -101 -198 -9 -358
-11 -490 -5 l-163 7 0 93 0 94 43 3 42 3 12 -45 c7 -25 10 -60 7 -77z m723
-11 l5 -63 -59 3 c-67 3 -67 4 -57 116 l6 62 39 0 c24 0 39 5 40 13 2 25 21
-70 26 -131z m773 98 c0 -22 -4 -40 -8 -40 -5 0 -9 18 -10 40 -1 22 3 40 8 40
6 0 10 -18 10 -40z m-1470 -26 c0 -8 -4 -14 -10 -14 -5 0 -10 9 -10 21 0 11 5
17 10 14 6 -3 10 -13 10 -21z m-570 -103 c0 -6 -4 -13 -10 -16 -5 -3 -10 1
-10 9 0 9 5 16 10 16 6 0 10 -4 10 -9z"/>
<path d="M5450 2869 c0 -5 5 -7 10 -4 6 3 10 8 10 11 0 2 -4 4 -10 4 -5 0 -10
-5 -10 -11z"/>
<path d="M4758 2743 c23 -2 61 -2 85 0 23 2 4 4 -43 4 -47 0 -66 -2 -42 -4z"/>
<path d="M3600 2358 c-3 -26 -1 -43 3 -39 5 5 7 26 5 47 l-3 39 -5 -47z"/>
<path d="M3633 2360 c0 -25 2 -35 4 -22 2 12 2 32 0 45 -2 12 -4 2 -4 -23z"/>
<path d="M3335 2310 c4 -6 11 -8 16 -5 14 9 11 15 -7 15 -8 0 -12 -5 -9 -10z"/>
<path d="M3017 7033 c-4 -3 -7 -37 -7 -75 0 -52 4 -70 15 -74 8 -4 15 -12 15
-19 0 -8 11 -27 25 -43 14 -17 25 -35 25 -41 0 -6 6 -11 13 -11 6 0 27 -19 46
-42 l35 -41 -43 7 c-43 7 -71 25 -71 45 0 19 -30 12 -30 -6 -1 -14 -4 -12 -15
7 -13 23 -14 19 -15 -61 0 -81 2 -87 28 -111 28 -26 132 -142 143 -160 10 -16
53 -5 57 14 2 10 -9 33 -25 53 -21 26 -28 46 -28 78 0 23 -4 52 -8 65 -8 20
-5 22 22 22 20 0 34 -7 41 -20 6 -11 17 -20 25 -20 8 0 15 -8 15 -18 0 -22 72
-52 78 -33 2 6 11 11 19 11 12 0 14 7 9 31 -3 17 -6 35 -6 40 0 5 -6 9 -14 9
-20 0 -108 88 -96 95 6 3 10 16 10 28 -1 20 -2 21 -14 5 -10 -13 -15 -15 -24
-6 -7 7 -12 18 -12 25 0 7 -7 13 -15 13 -8 0 -15 5 -15 11 0 14 -55 69 -69 69
-6 0 -11 9 -11 20 0 11 -3 20 -7 20 -5 0 -28 23 -52 51 -35 40 -41 53 -30 60
8 5 9 9 3 9 -6 0 -14 -3 -17 -7z m71 -366 c7 -15 20 -27 28 -27 7 0 14 -5 14
-11 0 -6 -6 -8 -12 -5 -7 3 -21 9 -30 12 -10 4 -18 13 -18 20 0 8 -7 17 -15
20 -21 8 -19 26 2 22 10 -2 24 -16 31 -31z"/>
<path d="M5781 6971 c-23 -6 -22 -7 14 -18 26 -8 44 -9 57 -2 41 22 -11 37
-71 20z"/>
<path d="M8590 6928 c-25 -9 -26 -24 -2 -31 33 -8 97 7 97 23 0 17 -59 21 -95
8z"/>
<path d="M3040 6810 c0 -5 5 -10 10 -10 6 0 10 5 10 10 0 6 -4 10 -10 10 -5 0
-10 -4 -10 -10z"/>
<path d="M3202 6610 c0 -14 2 -19 5 -12 2 6 2 18 0 25 -3 6 -5 1 -5 -13z"/>
<path d="M9333 4963 c31 -2 83 -2 115 0 31 2 5 3 -58 3 -63 0 -89 -1 -57 -3z"/>
<path d="M8193 4623 l2 -48 164 0 164 0 2 40 c1 22 -3 43 -9 47 -6 4 -82 8
-168 8 l-157 0 2 -47z"/>
<path d="M9408 4643 c-37 -4 -38 -5 -38 -44 l0 -39 65 0 65 0 0 45 c0 50 5 48
-92 38z"/>
<path d="M9360 4360 c0 -5 18 -10 40 -10 22 0 40 5 40 10 0 6 -18 10 -40 10
-22 0 -40 -4 -40 -10z"/>
<path d="M3022 4308 c-9 -9 -12 -147 -12 -560 l0 -548 458 -2 c251 -1 565 -2
697 -2 132 -1 220 2 195 5 l-45 6 43 1 c23 1 42 7 42 12 0 6 18 17 39 26 55
22 59 40 10 48 -39 6 -51 19 -26 30 12 5 -60 -2 -99 -10 -27 -5 -41 12 -46 51
l-3 30 125 -2 c69 -2 151 -5 183 -8 52 -6 57 -4 57 14 0 26 -18 30 -145 34
l-100 3 106 2 c84 2 108 5 113 17 10 27 -31 35 -180 35 l-147 0 7 243 c9 335
9 381 2 404 -8 25 -36 31 -172 40 l-100 6 4 51 c5 65 -8 79 -55 60 -24 -10
-35 -23 -43 -53 -9 -34 -15 -40 -54 -51 -26 -7 -66 -10 -98 -6 -29 3 -174 8
-323 10 -148 2 -279 4 -290 5 -11 1 -33 -1 -49 -5 l-29 -7 5 67 4 66 -31 0
c-17 0 -36 -5 -43 -12z m1238 -183 c11 -14 10 -189 -5 -525 -3 -52 -5 -98 -5
-102 0 -5 -56 -8 -125 -8 l-125 0 5 43 c2 23 7 165 10 316 3 151 8 278 11 283
3 4 54 8 113 8 83 0 111 -3 121 -15z m-1005 -25 c4 -6 -7 -10 -24 -10 -17 0
-34 0 -38 -1 -4 0 -9 4 -11 10 -5 14 65 15 73 1z m200 -5 c0 -5 -21 -11 -47
-13 -39 -3 -48 0 -48 13 0 13 9 16 48 13 26 -2 47 -7 47 -13z m225 0 c0 -12
-15 -15 -72 -15 -101 0 -71 25 35 29 27 1 37 -3 37 -14z m160 0 c0 -15 -4 -16
-61 -19 -34 -1 -49 12 -28 25 24 15 89 11 89 -6z m130 -95 c0 -19 -17 -36 -26
-27 -3 2 -2 16 2 31 7 28 24 26 24 -4z m-6 -317 c-4 -92 -11 -164 -18 -172 -9
-11 -35 -13 -131 -8 -126 6 -159 12 -149 29 4 7 9 7 13 0 3 -5 42 -12 86 -15
44 -4 72 -4 63 -1 -22 7 -23 23 -3 30 8 4 15 12 15 20 0 7 11 21 25 30 14 9
24 22 23 28 -2 7 9 23 23 37 21 19 29 40 38 96 6 40 11 74 11 77 0 3 2 6 5 6
3 0 2 -71 -1 -157z"/>
<path d="M4770 3978 c-1 -42 -21 -651 -25 -755 -3 -77 -1 -103 8 -103 9 0 13
37 14 138 2 75 6 273 9 440 4 166 4 302 0 302 -3 0 -6 -10 -6 -22z"/>
<path d="M4873 3989 c-13 -4 -23 -10 -23 -11 0 -2 43 -4 95 -5 63 -1 93 2 89
8 -3 6 -17 8 -31 5 -13 -4 -29 -4 -35 0 -17 11 -71 13 -95 3z"/>
<path d="M5441 3984 c0 -11 3 -14 6 -6 3 7 2 16 -1 19 -3 4 -6 -2 -5 -13z"/>
<path d="M5068 3983 c6 -2 18 -2 25 0 6 3 1 5 -13 5 -14 0 -19 -2 -12 -5z"/>
<path d="M5160 3980 c-44 -7 -44 -7 18 -8 40 -1 61 2 57 8 -3 6 -12 9 -18 8
-7 0 -32 -4 -57 -8z"/>
<path d="M5300 3980 c0 -5 5 -10 10 -10 6 0 10 5 10 10 0 6 -4 10 -10 10 -5 0
-10 -4 -10 -10z"/>
<path d="M8263 3768 c-4 -7 -6 -282 -4 -610 2 -423 -1 -598 -8 -598 -7 0 -11
27 -11 71 0 123 -49 159 -215 159 -172 0 -175 -5 -187 -263 -11 -246 -12 -251
-68 -257 -38 -4 -45 -9 -51 -33 -16 -59 -33 -55 368 -73 127 -6 143 -9 148
-25 5 -14 16 -19 46 -19 27 0 39 -4 39 -14 0 -10 22 -16 80 -21 58 -5 80 -11
80 -21 0 -11 18 -14 80 -14 64 0 80 3 80 15 0 11 11 15 40 15 30 0 40 4 40 16
0 14 10 15 80 9 51 -5 80 -4 80 3 0 5 36 13 80 17 l79 7 7 34 c5 29 10 34 35
34 22 0 29 -5 29 -20 0 -17 7 -20 43 -20 23 -1 85 -3 137 -6 52 -2 121 -2 153
2 l57 6 0 105 c0 96 -1 105 -17 97 -10 -4 -36 -9 -58 -11 l-40 -3 38 18 c21 9
35 21 31 25 -4 4 1 7 11 7 15 0 16 3 7 12 -9 9 -7 14 6 24 14 10 8 13 -41 19
-87 11 -86 11 -80 -99 l6 -96 -76 0 c-42 0 -79 5 -82 10 -4 6 -6 200 -5 430 0
285 -3 420 -10 420 -16 0 -14 640 3 641 6 1 -6 5 -28 10 -22 4 -232 8 -467 8
-331 1 -429 -2 -435 -11z m838 -690 c-1 -112 2 -350 5 -529 l6 -326 -31 0 -31
0 0 111 c-1 61 -3 298 -6 526 -3 272 -1 410 5 400 9 -12 11 -12 17 3 3 9 13
17 21 17 13 0 15 -28 14 -202z m-157 -53 c-4 -8 -8 -15 -10 -15 -2 0 -4 7 -4
15 0 8 4 15 10 15 5 0 7 -7 4 -15z m233 -527 c-2 -13 -4 -3 -4 22 0 25 2 35 4
23 2 -13 2 -33 0 -45z m-1289 -104 l3 -126 -23 4 c-26 3 -25 0 -13 161 4 57
11 87 19 87 8 0 12 -37 14 -126z m317 -20 l-5 -96 -145 -2 -145 -1 1 30 c1 17
4 43 8 58 l6 28 34 -35 c35 -36 36 -36 118 -36 l83 0 0 40 c0 31 -4 40 -17 41
-17 1 -17 2 0 6 24 6 21 19 -5 27 -21 7 -19 9 17 21 22 7 43 13 47 14 4 1 5
-42 3 -95z m-270 77 c3 -5 1 -12 -5 -16 -5 -3 -10 1 -10 9 0 18 6 21 15 7z m0
-41 c3 -5 1 -10 -4 -10 -6 0 -11 5 -11 10 0 6 2 10 4 10 3 0 8 -4 11 -10z"/>
<path d="M8165 2310 c-3 -5 -1 -10 4 -10 6 0 11 5 11 10 0 6 -2 10 -4 10 -3 0
-8 -4 -11 -10z"/>
<path d="M8018 2303 c12 -2 32 -2 45 0 12 2 2 4 -23 4 -25 0 -35 -2 -22 -4z"/>
<path d="M7956 3218 c-3 -7 -4 -42 -3 -78 l2 -65 67 -5 c65 -5 67 -4 70 20 2
14 1 50 -2 80 l-5 55 -63 3 c-44 2 -63 -1 -66 -10z m124 -58 c0 -5 -25 -10
-55 -10 -30 0 -55 5 -55 10 0 6 25 10 55 10 30 0 55 -4 55 -10z"/>
<path d="M7899 3180 c-4 -42 -1 -64 9 -68 8 -2 12 10 12 37 0 23 -4 41 -10 41
-5 0 -10 -4 -11 -10z"/>
<path d="M3010 3161 l0 -21 455 0 c261 0 455 4 455 9 0 10 -178 18 -617 27
-293 6 -293 6 -293 -15z"/>
<path d="M7185 2221 l-100 -6 85 -7 c47 -5 181 -8 298 -8 182 0 212 2 212 15
0 13 -28 15 -197 13 -109 -1 -243 -4 -298 -7z"/>
<path d="M4285 2070 c3 -5 8 -10 11 -10 2 0 4 5 4 10 0 6 -5 10 -11 10 -5 0
-7 -4 -4 -10z"/>
<path d="M8937 983 c-11 -10 -8 -743 2 -743 5 0 12 8 14 18 4 16 5 16 6 0 1
-17 21 -18 271 -18 l270 0 0 88 c0 79 -3 89 -25 110 -29 28 -39 72 -33 152 3
49 10 66 32 89 27 28 27 29 8 35 -17 6 -20 13 -15 41 3 19 0 49 -8 66 l-13 32
-19 -24 -19 -24 27 -3 c19 -3 25 -8 21 -19 -3 -8 -6 -16 -6 -17 0 -7 -51 7
-56 15 -3 5 -13 9 -22 9 -15 -1 -15 -2 -1 -13 22 -17 27 -137 6 -137 -8 0 -17
-9 -20 -20 -6 -25 -51 -43 -100 -41 -67 3 -74 -3 -68 -57 9 -66 0 -116 -21
-120 -26 -5 -29 23 -26 238 l3 195 65 3 c67 3 139 -12 152 -32 5 -6 8 -2 8 10
0 27 -32 34 -159 35 -87 1 -126 12 -58 16 17 1 53 5 80 9 47 6 47 6 47 45 l0
38 113 4 c110 3 109 3 -43 7 -143 3 -149 4 -70 10 62 5 28 7 -126 8 -116 1
-214 -1 -217 -5z m503 -243 c0 -5 -4 -10 -10 -10 -5 0 -10 5 -10 10 0 6 5 10
10 10 6 0 10 -4 10 -10z m-483 -222 c-2 -24 -4 -5 -4 42 0 47 2 66 4 43 2 -24
2 -62 0 -85z"/>
<path d="M9453 983 c9 -2 25 -2 35 0 9 3 1 5 -18 5 -19 0 -27 -2 -17 -5z"/>
<path d="M9328 873 c6 -2 18 -2 25 0 6 3 1 5 -13 5 -14 0 -19 -2 -12 -5z"/>
<path d="M9460 874 c0 -9 31 -37 36 -32 9 9 -8 38 -22 38 -8 0 -14 -3 -14 -6z"/>
<path d="M9218 863 c12 -2 32 -2 45 0 12 2 2 4 -23 4 -25 0 -35 -2 -22 -4z"/>
<path d="M9190 713 l0 -88 61 3 c59 4 61 5 75 38 21 51 4 114 -32 114 -8 0
-14 5 -14 10 0 6 -20 10 -45 10 l-45 0 0 -87z"/>
<path d="M9486 741 c-4 -7 -5 -15 -2 -18 9 -9 19 4 14 18 -4 11 -6 11 -12 0z"/>
<path d="M9480 566 c0 -25 5 -48 10 -51 6 -4 10 13 10 44 0 28 -4 51 -10 51
-5 0 -10 -20 -10 -44z"/>
<path d="M5731 119 c-18 -21 -42 -39 -52 -39 -15 0 -19 -7 -19 -40 l0 -40 165
0 165 0 0 39 c0 32 -7 47 -39 80 -39 41 -40 41 -113 40 -72 -1 -73 -1 -107
-40z"/>
<path d="M6000 40 l0 -40 40 0 40 0 0 40 0 40 -40 0 -40 0 0 -40z"/>
</g>
</svg>
