<?xml version="1.0" standalone="no"?>
<!DOCTYPE svg PUBLIC "-//W3C//DTD SVG 20010904//EN"
 "http://www.w3.org/TR/2001/REC-SVG-20010904/DTD/svg10.dtd">
<svg version="1.0" xmlns="http://www.w3.org/2000/svg"
 width="1280.000000pt" height="720.000000pt" viewBox="0 0 1280.000000 720.000000"
 preserveAspectRatio="xMidYMid meet">
<metadata>
Created by potrace 1.16, written by Peter Selinger 2001-2019
</metadata>
<g transform="translate(0.000000,720.000000) scale(0.100000,-0.100000)"
fill="#000000" stroke="none">
<path d="M6274 7087 c-65 -17 -87 -40 -103 -110 -8 -31 -17 -57 -21 -57 -6 0
-39 -69 -60 -125 -13 -33 -29 -96 -40 -157 -6 -32 -18 -65 -26 -73 -9 -8 -18
-31 -21 -50 -3 -19 -9 -35 -13 -35 -4 0 -10 -18 -14 -40 -3 -22 -10 -40 -15
-40 -5 0 -12 -36 -16 -80 -4 -44 -11 -80 -16 -80 -5 0 -9 -6 -9 -13 0 -15 -58
-139 -69 -147 -6 -5 -10 -14 -51 -107 -13 -29 -26 -53 -29 -53 -10 0 -33 -109
-25 -121 4 -8 9 -7 14 1 4 7 13 9 19 6 14 -9 15 -46 1 -46 -17 0 -100 -77
-100 -92 0 -5 -8 -17 -17 -27 -33 -37 -43 -50 -43 -61 0 -5 -4 -10 -10 -10 -5
0 -10 -11 -10 -25 0 -14 -4 -25 -9 -25 -5 0 -12 -18 -16 -40 -4 -22 -11 -40
-16 -40 -5 0 -9 -13 -9 -28 0 -16 -7 -37 -15 -48 -8 -10 -15 -33 -15 -50 0
-23 -6 -33 -19 -37 -13 -3 -22 -17 -26 -41 -4 -21 -13 -36 -21 -36 -8 0 -14
-7 -14 -16 0 -8 -13 -42 -30 -76 -16 -33 -30 -65 -30 -71 0 -6 -30 -81 -66
-166 -63 -147 -67 -161 -68 -236 -1 -47 6 -111 17 -155 33 -134 35 -144 55
-215 10 -38 29 -90 40 -114 12 -25 22 -51 22 -58 0 -7 4 -13 8 -13 10 0 37
-79 33 -97 -1 -7 2 -13 7 -13 5 0 15 -34 22 -76 18 -116 38 -174 58 -174 12 0
13 -3 5 -8 -15 -9 -12 -27 10 -69 14 -27 16 -57 13 -210 -3 -98 -8 -202 -12
-230 -4 -34 -3 -58 4 -66 8 -9 8 -20 -2 -38 -17 -33 -29 -119 -16 -119 12 0 2
-58 -15 -85 -12 -20 -27 -219 -18 -242 3 -7 11 -13 20 -13 8 0 22 -7 30 -16
10 -10 26 -14 42 -11 16 4 45 -4 76 -19 28 -13 58 -24 67 -24 9 0 36 -8 60
-18 24 -11 67 -25 96 -32 32 -7 56 -19 59 -29 3 -9 13 -24 21 -34 19 -22 31
-177 13 -177 -8 0 -11 -22 -10 -68 2 -71 -6 -112 -22 -112 -5 0 -9 -10 -9 -23
0 -26 -21 -77 -32 -77 -5 0 -8 -7 -8 -15 0 -14 -18 -53 -30 -65 -12 -12 -30
-51 -30 -65 0 -8 -4 -15 -8 -15 -5 0 -15 -18 -22 -40 -7 -22 -17 -40 -22 -40
-4 0 -8 -16 -8 -35 0 -19 -4 -43 -10 -53 -24 -42 -60 -333 -68 -552 -7 -162
-14 -235 -25 -261 -8 -20 -18 -55 -22 -78 -6 -38 -15 -59 -52 -124 -7 -12 -13
-57 -13 -99 0 -63 3 -78 15 -78 8 0 15 -7 15 -15 0 -9 12 -20 28 -25 15 -6 35
-15 45 -21 10 -5 60 -15 110 -20 51 -5 125 -14 164 -20 76 -11 213 -3 213 12
0 5 11 9 25 9 20 0 26 7 35 40 14 50 7 73 -25 90 -14 7 -25 17 -25 22 0 4 -11
8 -24 8 -13 0 -26 7 -30 15 -3 8 -12 15 -21 15 -9 0 -15 9 -15 25 0 20 -5 25
-25 25 -16 0 -25 6 -25 15 0 9 -7 18 -15 21 -8 4 -15 15 -15 25 0 10 -4 19 -8
19 -17 0 -33 83 -34 163 0 45 8 116 17 157 10 41 20 89 22 105 3 17 11 45 19
62 34 75 64 165 64 191 0 16 4 32 8 37 5 6 19 44 31 85 41 134 151 389 173
398 4 2 8 10 8 18 0 13 18 52 30 64 3 3 11 23 18 45 21 63 44 115 52 115 13 0
18 -25 26 -122 5 -71 3 -108 -10 -156 -9 -35 -16 -76 -16 -90 0 -15 -7 -49
-15 -76 -8 -27 -22 -148 -30 -270 -8 -122 -19 -250 -25 -286 -5 -36 -10 -105
-10 -155 0 -56 -6 -107 -16 -135 -18 -51 -36 -389 -22 -427 4 -13 14 -23 23
-23 8 0 15 -4 15 -10 0 -5 18 -10 40 -10 22 0 40 -4 40 -9 0 -13 224 -14 289
-1 30 6 63 18 73 27 18 16 24 57 12 88 -6 16 -73 55 -94 55 -16 0 -92 80 -110
114 -11 21 -14 55 -12 118 1 52 -1 88 -7 88 -5 0 -3 12 5 27 7 16 14 32 14 36
0 5 6 23 14 40 41 95 128 348 142 415 18 88 53 194 66 203 5 3 13 133 18 289
6 170 14 288 20 296 6 7 10 34 9 61 -1 44 18 171 38 253 l9 35 79 7 c138 11
294 44 301 63 3 7 1 39 -5 71 -6 33 -20 144 -30 248 l-19 189 26 41 c15 23 30
43 35 44 4 2 7 11 7 21 0 9 9 42 20 74 11 31 20 77 20 102 0 38 -3 45 -20 45
-18 0 -20 7 -20 68 0 37 5 98 10 137 7 48 7 71 0 73 -12 4 -13 39 -1 44 5 2
11 100 15 218 3 118 8 251 12 295 4 58 -1 136 -20 280 -21 169 -26 261 -32
583 -4 210 -11 382 -16 382 -4 0 -8 19 -8 43 0 44 -28 109 -69 165 -14 17 -29
32 -33 32 -5 0 -25 17 -44 38 -30 33 -32 37 -14 40 15 3 17 8 11 25 -4 12 -9
65 -10 117 -2 93 -3 97 -54 198 -95 187 -107 213 -116 250 -5 20 -14 51 -19
67 -6 17 -21 62 -33 100 -12 39 -35 95 -51 126 -15 31 -28 60 -28 63 0 4 -6
14 -12 21 -7 8 -35 45 -63 84 -27 39 -55 71 -62 71 -6 0 -35 23 -64 50 -28 28
-65 58 -82 66 -40 21 -160 27 -223 11z m367 -339 c25 -42 33 -67 37 -120 3
-47 1 -68 -7 -68 -6 0 -11 -8 -11 -17 -1 -10 -7 -29 -15 -43 -14 -25 -14 -24
-15 18 0 23 -4 42 -10 42 -13 0 -13 61 0 95 8 21 6 37 -10 72 -38 87 -19 100
31 21z m-788 -1630 c8 -5 7 -21 -1 -60 -6 -29 -13 -128 -16 -219 -2 -94 -9
-175 -15 -187 -6 -11 -17 -49 -25 -84 -31 -141 -66 -261 -90 -306 -22 -43 -54
-135 -70 -204 -4 -16 -10 -28 -14 -28 -10 0 -36 129 -64 308 -11 78 -25 142
-30 142 -4 0 -8 18 -8 40 0 22 -4 40 -10 40 -5 0 -10 16 -10 35 0 28 8 42 40
71 22 20 40 41 40 46 0 16 82 182 112 225 16 24 35 60 42 80 14 39 70 147 90
172 9 11 12 6 14 -25 2 -21 8 -42 15 -46z m1201 -770 c4 -24 13 -90 21 -148 8
-58 23 -131 35 -162 11 -32 20 -75 20 -97 0 -22 7 -61 16 -86 21 -63 16 -149
-10 -153 -17 -4 -18 0 -12 37 4 28 1 53 -10 79 -8 20 -18 69 -21 107 -3 39
-12 83 -21 99 -8 16 -19 61 -24 100 -8 64 -21 145 -35 234 -4 27 -2 32 15 32
15 0 21 -9 26 -42z"/>
<path d="M7282 4810 c0 -14 2 -19 5 -12 2 6 2 18 0 25 -3 6 -5 1 -5 -13z"/>
</g>
</svg>
