<?xml version="1.0" standalone="no"?>
<!DOCTYPE svg PUBLIC "-//W3C//DTD SVG 20010904//EN"
 "http://www.w3.org/TR/2001/REC-SVG-20010904/DTD/svg10.dtd">
<svg version="1.0" xmlns="http://www.w3.org/2000/svg"
 width="1280.000000pt" height="720.000000pt" viewBox="0 0 1280.000000 720.000000"
 preserveAspectRatio="xMidYMid meet">
<metadata>
Created by potrace 1.16, written by Peter Selinger 2001-2019
</metadata>
<g transform="translate(0.000000,720.000000) scale(0.100000,-0.100000)"
fill="#000000" stroke="none">
<path d="M6209 7167 c-40 -21 -44 -27 -47 -65 -2 -25 -8 -42 -16 -42 -18 0
-66 -53 -66 -72 0 -9 -13 -32 -30 -50 -16 -18 -30 -38 -30 -45 0 -7 -3 -13 -7
-13 -9 0 -33 -49 -33 -67 0 -7 -4 -13 -8 -13 -24 0 -69 -193 -81 -350 -10
-127 -23 -193 -42 -215 -5 -5 -9 -16 -9 -24 0 -14 -26 -57 -91 -153 -11 -15
-19 -32 -19 -38 0 -6 -11 -21 -25 -34 -14 -13 -25 -33 -25 -45 0 -11 -6 -21
-14 -21 -9 0 -17 -15 -21 -40 -4 -22 -15 -50 -26 -64 -10 -13 -19 -31 -19 -40
0 -9 -4 -16 -9 -16 -19 0 -71 -100 -71 -138 -1 -33 -16 -86 -48 -165 -7 -16
-12 -33 -12 -38 0 -5 -4 -9 -10 -9 -5 0 -10 -11 -10 -25 0 -16 -6 -25 -15 -25
-8 0 -15 -6 -15 -14 0 -8 -7 -16 -15 -20 -8 -3 -15 -11 -15 -19 0 -7 -16 -28
-35 -47 -19 -19 -35 -40 -35 -47 0 -7 -7 -13 -15 -13 -8 0 -15 -9 -15 -19 0
-10 -7 -21 -15 -25 -8 -3 -15 -10 -15 -16 0 -10 -31 -49 -65 -82 -10 -10 -37
-23 -60 -28 -22 -6 -47 -15 -55 -20 -52 -35 -148 -71 -225 -86 -50 -9 -133
-30 -185 -47 -135 -44 -221 -43 -309 1 -75 37 -72 36 -65 17 4 -8 10 -15 15
-15 6 0 29 -18 51 -40 25 -23 52 -40 65 -40 13 0 35 -8 50 -17 24 -16 26 -16
38 0 7 9 22 17 34 17 11 0 21 5 21 10 0 6 18 10 40 10 59 0 52 -26 -15 -55
-30 -14 -55 -29 -55 -35 0 -16 -61 -12 -115 9 -33 13 -55 29 -66 47 -8 16 -27
35 -42 42 -15 7 -27 17 -27 22 0 5 -9 12 -20 15 -11 3 -20 13 -20 21 0 8 -8
14 -19 14 -10 0 -31 12 -47 27 -29 28 -29 28 -6 31 13 2 28 -1 35 -6 14 -10
47 -23 47 -18 0 9 -133 76 -150 76 -15 0 -20 -7 -20 -24 0 -14 -4 -28 -10 -31
-21 -13 -9 -53 25 -84 19 -17 35 -33 35 -35 0 -3 11 -29 25 -58 17 -37 34 -57
55 -66 17 -8 30 -20 30 -27 0 -7 8 -15 18 -19 21 -7 55 -28 63 -39 9 -13 172
-12 288 1 57 7 141 12 187 12 49 0 84 4 84 10 0 6 15 10 34 10 18 0 46 4 62 9
83 25 183 51 215 56 34 5 55 17 189 104 30 20 63 39 72 43 12 5 18 18 18 38 0
27 3 30 30 30 24 0 35 8 54 39 14 22 30 42 36 46 5 3 10 16 10 27 0 12 12 33
28 47 45 43 88 104 103 146 16 46 50 85 72 85 24 0 32 -87 31 -325 -1 -178 -4
-222 -22 -290 -12 -44 -26 -81 -32 -83 -5 -2 -10 -10 -10 -17 0 -17 -28 -106
-56 -180 -62 -163 -114 -322 -114 -349 0 -12 -7 -55 -16 -96 -9 -41 -20 -102
-24 -134 -5 -33 -14 -62 -19 -66 -6 -3 -18 -42 -26 -85 -8 -44 -24 -118 -35
-165 -22 -97 -53 -381 -43 -405 3 -9 1 -26 -5 -38 -6 -12 -13 -56 -15 -97 -3
-41 -10 -129 -17 -195 -7 -66 -13 -225 -13 -354 -2 -177 -5 -235 -14 -238 -10
-4 -13 -36 -13 -119 0 -111 -1 -115 -24 -124 -23 -8 -24 -14 -31 -127 -4 -65
-3 -154 2 -198 6 -44 9 -218 9 -386 -1 -345 3 -326 -80 -367 -32 -17 -70 -24
-149 -28 -98 -7 -109 -5 -171 20 -78 31 -134 34 -164 8 -19 -17 -19 -21 -7
-43 8 -13 17 -32 21 -41 3 -9 19 -22 35 -28 16 -7 33 -18 37 -25 9 -16 78 -55
96 -55 7 0 26 -7 42 -14 16 -8 71 -24 122 -36 97 -21 189 -61 198 -85 3 -8 14
-17 25 -20 10 -4 25 -12 32 -19 7 -8 53 -16 108 -20 l95 -7 13 38 c17 53 27
343 12 371 -9 17 -8 23 5 30 18 10 43 110 44 172 0 19 10 82 21 140 11 58 24
134 29 170 13 93 51 643 45 657 -5 16 15 74 32 91 7 7 13 23 13 35 0 41 23
144 56 250 36 116 41 153 22 160 -10 3 -9 13 5 41 9 20 17 43 17 51 0 8 4 15
8 15 5 0 14 18 21 41 7 23 15 39 18 36 3 -3 16 5 30 17 30 28 110 46 205 46
37 0 76 4 86 9 45 24 162 40 162 21 0 -22 82 -50 177 -61 54 -7 103 -17 110
-23 17 -16 36 -170 28 -228 -5 -37 -3 -55 10 -74 12 -19 20 -67 28 -183 9
-138 8 -176 -9 -316 -24 -201 -23 -349 4 -640 41 -443 42 -457 31 -540 -17
-142 -20 -209 -12 -255 8 -43 10 -45 47 -48 21 -2 67 6 104 17 36 12 77 21 91
21 14 0 39 7 55 15 35 19 138 35 222 35 76 0 232 40 276 71 76 54 84 71 48
102 -25 21 -114 23 -150 2 -14 -8 -41 -14 -60 -14 -19 0 -46 6 -60 14 -14 8
-34 14 -45 15 -18 0 -185 75 -185 82 0 2 -9 27 -19 56 -19 51 -19 61 -6 265
20 300 33 446 52 572 12 83 14 147 9 259 -5 128 -4 152 10 167 10 11 12 19 5
24 -8 4 -7 13 1 28 19 35 15 183 -6 262 -15 56 -17 90 -12 171 6 112 18 154
41 154 8 0 21 10 29 23 13 19 13 27 1 62 -8 22 -14 58 -15 81 0 22 -6 60 -14
85 -22 72 -33 128 -51 249 -9 63 -20 135 -25 160 -5 25 -12 142 -15 260 -7
217 -39 509 -70 640 -9 36 -22 108 -30 160 -7 52 -18 111 -24 130 -6 19 -11
55 -11 80 -1 25 -7 63 -16 85 -24 67 -28 145 -11 231 9 43 19 109 23 147 5 65
14 77 40 59 6 -4 14 -25 17 -47 4 -22 11 -41 17 -43 5 -2 10 -10 10 -19 0 -8
14 -34 30 -58 17 -24 30 -48 30 -54 0 -6 3 -11 8 -11 4 0 21 -23 37 -50 17
-27 36 -50 43 -50 6 0 12 -7 12 -15 0 -8 4 -15 8 -15 7 0 80 -71 164 -161 35
-37 105 -79 133 -79 8 0 15 -4 15 -10 0 -5 17 -10 38 -10 21 0 47 -7 58 -15
10 -8 29 -15 41 -15 12 0 24 -4 27 -8 3 -5 31 -14 63 -21 32 -7 69 -17 83 -21
76 -25 285 -61 405 -69 135 -10 183 -5 198 20 7 11 23 19 39 19 21 0 30 8 45
40 10 22 21 40 24 40 4 0 37 29 75 65 38 36 79 70 92 75 20 9 22 16 22 95 l0
85 -45 -22 c-29 -14 -45 -29 -45 -40 0 -13 -8 -18 -26 -18 -19 0 -50 -23 -115
-87 -50 -49 -101 -94 -115 -101 -13 -7 -24 -21 -24 -32 0 -14 -7 -20 -22 -20
-13 0 -41 -3 -62 -7 -28 -4 -37 -3 -32 5 5 8 -4 12 -28 12 -36 0 -126 20 -136
30 -7 7 -69 36 -110 51 -19 7 -42 18 -50 25 -8 7 -75 43 -149 80 -83 42 -141
78 -154 96 -16 22 -29 28 -61 29 -23 1 -31 4 -18 6 27 5 29 19 2 26 -12 3 -20
14 -20 26 0 14 -6 21 -18 21 -18 0 -62 49 -62 70 0 5 -6 10 -12 10 -16 1 -61
71 -79 123 -7 20 -16 37 -21 37 -4 0 -13 18 -19 40 -7 22 -16 40 -21 40 -4 0
-8 18 -8 39 0 22 -4 41 -8 43 -11 4 -52 173 -52 211 0 15 -4 27 -10 27 -5 0
-10 18 -10 40 0 26 -5 40 -13 40 -13 0 -67 76 -67 95 0 5 -10 15 -22 20 -19 8
-23 18 -23 52 0 24 -7 50 -16 61 -22 26 -39 79 -39 123 0 37 -26 118 -40 129
-4 3 -11 16 -15 30 -4 14 -16 36 -26 49 -11 13 -19 28 -19 34 0 5 -9 28 -19
51 -21 45 -29 72 -63 216 -12 52 -26 97 -30 98 -5 2 -8 13 -8 25 0 27 -126
278 -149 297 -9 8 -31 43 -37 60 -7 21 -109 68 -173 80 -95 18 -183 13 -232
-13z m418 -265 c13 -8 36 -68 60 -152 16 -60 12 -121 -12 -191 -8 -23 -15 -56
-15 -75 0 -18 -4 -36 -10 -39 -6 -4 -10 23 -10 74 0 44 -4 83 -10 86 -5 3 -10
31 -10 61 0 41 3 54 15 54 21 0 9 71 -22 129 -12 24 -23 48 -23 52 0 11 21 11
37 1z m-852 -4601 c3 -5 1 -12 -5 -16 -5 -3 -10 1 -10 9 0 18 6 21 15 7z"/>
</g>
</svg>
