<?xml version="1.0" standalone="no"?>
<!DOCTYPE svg PUBLIC "-//W3C//DTD SVG 20010904//EN"
 "http://www.w3.org/TR/2001/REC-SVG-20010904/DTD/svg10.dtd">
<svg version="1.0" xmlns="http://www.w3.org/2000/svg"
 width="1280.000000pt" height="720.000000pt" viewBox="0 0 1280.000000 720.000000"
 preserveAspectRatio="xMidYMid meet">
<metadata>
Created by potrace 1.16, written by Peter Selinger 2001-2019
</metadata>
<g transform="translate(0.000000,720.000000) scale(0.100000,-0.100000)"
fill="#000000" stroke="none">
<path d="M6220 7173 c-39 -8 -60 -32 -60 -70 0 -23 -7 -40 -21 -52 -81 -65
-204 -393 -215 -571 -8 -129 -20 -167 -111 -345 -43 -83 -100 -155 -123 -155
-6 0 -10 -6 -10 -14 0 -8 -7 -16 -15 -20 -8 -3 -15 -12 -15 -20 0 -19 20 -32
29 -19 3 6 19 13 34 17 25 6 27 5 18 -11 -6 -10 -30 -39 -54 -66 -75 -80 -77
-97 -77 -579 l0 -417 -30 -118 c-17 -65 -34 -127 -39 -138 -6 -11 -12 -45 -15
-75 -3 -30 -10 -93 -15 -140 -6 -47 -15 -150 -21 -230 -6 -79 -15 -149 -19
-155 -5 -5 -11 -30 -14 -56 -3 -25 -20 -76 -37 -115 -22 -47 -36 -100 -45
-169 -19 -146 -6 -202 49 -207 22 -2 32 -9 36 -26 3 -15 21 -32 50 -46 l45
-23 3 -83 c2 -61 -4 -116 -23 -203 l-25 -119 27 -33 c16 -19 35 -34 44 -34 22
-1 49 -33 49 -58 0 -37 115 -69 260 -73 69 -1 110 -24 110 -61 0 -9 7 -34 16
-55 14 -32 16 -67 12 -199 -5 -175 -17 -221 -62 -250 -14 -9 -36 -37 -48 -61
-12 -24 -25 -44 -29 -44 -4 0 -11 -15 -14 -33 -4 -17 -18 -46 -31 -64 -13 -17
-24 -39 -24 -47 0 -9 -4 -16 -10 -16 -5 0 -10 -8 -10 -17 0 -10 -6 -29 -13
-43 -7 -14 -21 -61 -30 -105 -10 -44 -31 -138 -48 -210 -18 -80 -35 -196 -44
-302 -18 -214 -24 -253 -41 -260 -8 -3 -14 -15 -14 -26 0 -26 -60 -157 -72
-157 -4 0 -8 -7 -8 -16 0 -9 -9 -23 -20 -32 -18 -15 -19 -22 -9 -57 6 -22 16
-44 22 -50 33 -28 66 -77 60 -91 -3 -8 3 -27 14 -42 10 -15 25 -42 32 -60 9
-21 28 -40 52 -53 34 -17 60 -19 239 -19 219 0 225 1 236 57 4 21 -1 35 -21
55 -14 16 -30 28 -35 28 -6 0 -10 6 -10 14 0 16 -21 26 -56 26 -15 0 -24 6
-24 15 0 9 -6 18 -14 21 -8 3 -22 23 -30 45 -9 21 -20 39 -25 39 -5 0 -12 10
-16 23 -52 159 -36 322 56 558 16 41 29 80 29 86 0 6 4 13 8 15 11 4 52 115
52 139 0 10 5 19 10 19 6 0 10 18 10 40 0 22 4 40 10 40 5 0 15 18 21 40 7 22
16 40 21 40 4 0 8 5 8 12 0 17 81 182 92 186 4 2 8 12 8 23 0 10 3 19 8 19 7
0 25 30 38 63 3 9 12 17 19 17 7 0 15 14 19 32 3 17 13 39 20 47 20 22 66 151
82 231 8 37 14 125 14 202 0 113 3 138 14 138 19 0 29 -33 21 -68 -8 -36 21
-372 39 -443 7 -30 20 -71 29 -90 36 -82 54 -174 102 -534 14 -109 40 -273 65
-414 13 -73 12 -138 -4 -246 -23 -147 -38 -215 -47 -215 -13 0 -68 -63 -69
-77 0 -7 -4 -13 -10 -13 -5 0 -21 -10 -35 -22 -26 -22 -30 -42 -19 -97 l7 -32
201 4 c110 2 210 6 221 8 31 8 47 52 39 104 -4 28 -11 45 -20 45 -16 0 -20 76
-4 82 11 4 15 199 5 241 -4 15 -13 27 -21 27 -8 0 -14 5 -14 10 0 6 4 10 10
10 10 0 13 16 30 160 6 52 18 142 26 200 20 145 12 481 -12 518 -10 16 -13 27
-6 31 7 4 4 26 -9 65 -10 33 -19 67 -19 76 0 10 -7 20 -15 24 -9 3 -15 18 -15
35 0 16 -4 32 -9 35 -5 4 -12 24 -16 46 -4 22 -12 40 -18 40 -8 0 -7 4 1 12 7
7 12 23 12 37 0 13 -3 22 -6 18 -4 -3 -13 0 -20 8 -16 16 -19 85 -4 85 6 0 10
51 10 134 0 135 18 247 44 270 6 6 33 22 59 35 35 18 54 36 69 65 35 71 44 77
113 75 34 -1 67 1 74 5 6 4 11 28 11 54 0 50 7 116 40 362 24 184 25 246 5
320 -8 30 -15 68 -15 84 0 16 -8 57 -19 90 -10 34 -26 111 -35 171 -19 119
-44 234 -56 250 -4 6 -10 34 -13 62 -3 29 -20 83 -38 120 -17 38 -35 96 -39
130 -4 34 -17 79 -29 100 -11 21 -27 67 -35 103 -8 36 -27 108 -41 160 -23 83
-26 107 -21 190 10 165 16 200 36 200 13 0 21 -16 34 -67 19 -80 49 -156 94
-238 18 -33 38 -82 43 -110 14 -66 121 -280 166 -330 19 -21 46 -62 60 -90 14
-27 42 -69 62 -92 20 -23 52 -62 71 -87 19 -25 39 -45 45 -45 22 -2 115 -66
116 -81 0 -8 19 -30 42 -48 45 -37 64 -38 187 -13 50 11 190 38 233 46 9 2 17
0 17 -4 0 -12 77 -28 99 -20 27 10 28 39 1 39 -11 0 -20 7 -20 16 0 8 -5 12
-11 9 -16 -11 -69 16 -69 35 0 11 -17 22 -54 35 -47 16 -61 17 -117 6 -35 -7
-82 -15 -104 -18 -22 -3 -43 -10 -46 -16 -8 -11 -103 -13 -137 -3 -18 6 -22
15 -22 52 0 24 -4 44 -9 44 -5 0 -12 13 -16 30 -4 16 -17 45 -31 65 -13 20
-24 42 -24 50 0 8 -6 15 -14 15 -9 0 -17 15 -21 40 -4 22 -11 40 -16 40 -5 0
-9 6 -9 14 0 19 -52 140 -62 144 -4 2 -8 21 -8 43 0 28 -4 39 -15 39 -8 0 -15
8 -15 19 0 10 -7 24 -14 31 -8 6 -20 28 -26 48 -7 20 -18 51 -26 69 -8 17 -14
40 -14 52 0 12 -6 21 -13 21 -7 0 -20 29 -31 70 -9 38 -22 72 -27 75 -5 4 -9
26 -9 51 0 31 -4 44 -14 44 -17 0 -22 37 -35 247 -5 83 -14 160 -20 171 -6 12
-11 32 -11 45 0 27 -44 116 -66 133 -8 6 -14 19 -14 28 0 9 -5 16 -12 16 -6 0
-4 8 6 19 18 20 16 33 -19 101 -13 25 -26 62 -30 83 -4 20 -11 37 -16 37 -5 0
-9 9 -9 19 0 18 -17 43 -62 92 -10 10 -18 25 -18 33 0 8 -3 16 -7 18 -15 6
-63 106 -82 169 -10 35 -26 101 -36 147 -10 45 -22 82 -27 82 -4 0 -8 10 -8
23 0 22 -45 127 -58 137 -4 3 -25 38 -46 79 -22 41 -45 82 -52 90 -7 9 -28 36
-46 61 -24 32 -43 46 -68 52 -46 9 -278 18 -310 11z m402 -260 c10 -9 18 -26
18 -39 0 -13 5 -26 10 -29 6 -3 10 -15 10 -25 0 -10 5 -20 11 -22 14 -5 25
-158 12 -158 -6 0 -14 -21 -18 -46 -11 -76 -24 -97 -24 -43 -1 29 -7 51 -16
59 -20 17 -19 139 1 147 15 6 19 43 5 43 -4 0 -14 21 -21 48 -7 26 -14 55 -17
65 -6 21 5 22 29 0z m-979 -3017 c7 -47 -2 -78 -22 -74 -16 3 -28 66 -17 94
10 27 33 14 39 -20z"/>
</g>
</svg>
