<?xml version="1.0" standalone="no"?>
<!DOCTYPE svg PUBLIC "-//W3C//DTD SVG 20010904//EN"
 "http://www.w3.org/TR/2001/REC-SVG-20010904/DTD/svg10.dtd">
<svg version="1.0" xmlns="http://www.w3.org/2000/svg"
 width="1280.000000pt" height="720.000000pt" viewBox="0 0 1280.000000 720.000000"
 preserveAspectRatio="xMidYMid meet">
<metadata>
Created by potrace 1.16, written by Peter Selinger 2001-2019
</metadata>
<g transform="translate(0.000000,720.000000) scale(0.100000,-0.100000)"
fill="#000000" stroke="none">
<path d="M6320 7090 c-47 -3 -97 -11 -112 -18 -34 -14 -65 -62 -73 -113 -4
-20 -17 -47 -31 -60 -13 -12 -24 -31 -24 -42 0 -10 -8 -31 -19 -45 -22 -32
-61 -119 -61 -138 0 -7 -6 -19 -13 -26 -37 -36 -91 -246 -112 -433 -4 -33 -13
-70 -21 -82 -8 -12 -14 -35 -14 -51 0 -16 -7 -35 -15 -42 -8 -7 -15 -19 -15
-26 0 -8 -4 -14 -9 -14 -14 0 -31 -90 -41 -210 -5 -59 -13 -106 -19 -108 -6
-2 -11 -21 -11 -43 0 -21 -4 -39 -8 -39 -26 0 -71 -202 -72 -323 0 -69 -38
-237 -53 -237 -6 0 -26 -14 -44 -32 l-33 -32 0 31 0 31 -317 6 c-175 3 -481 9
-680 12 -200 3 -363 9 -363 13 0 3 -141 7 -313 8 -171 1 -430 5 -574 9 l-263
6 0 -186 0 -186 193 0 c105 0 248 5 317 10 69 5 277 12 463 16 299 6 337 5
337 -8 0 -12 17 -17 74 -23 73 -6 116 3 116 26 0 5 13 3 30 -6 24 -12 75 -15
283 -15 139 0 256 -3 260 -6 8 -8 303 -6 341 2 l29 7 -6 -55 c-5 -51 -38 -121
-71 -153 -6 -5 -24 -39 -41 -75 -16 -36 -34 -72 -40 -80 -16 -21 -52 -101 -61
-130 -3 -14 -12 -32 -19 -40 -6 -8 -21 -36 -31 -62 -10 -27 -24 -48 -30 -48
-6 0 -17 -18 -24 -40 -8 -26 -19 -40 -30 -40 -10 0 -24 -16 -35 -40 -14 -31
-24 -40 -44 -41 -24 -2 -24 -2 -3 -6 33 -6 29 -39 -7 -46 -28 -6 -131 6 -186
21 -21 6 -41 4 -65 -6 -19 -8 -45 -18 -58 -23 l-23 -9 22 -31 c18 -26 20 -35
11 -50 -14 -22 -16 -89 -3 -89 5 0 14 -20 20 -45 9 -36 8 -52 -3 -80 -14 -33
-14 -35 5 -35 10 0 29 10 40 21 l22 22 13 -24 c9 -17 11 -61 9 -151 -3 -106
-1 -128 11 -128 8 0 14 9 14 20 0 13 10 24 25 30 14 5 36 21 49 35 21 23 26
24 39 11 10 -10 17 -12 25 -4 14 14 35 0 28 -19 -3 -8 -1 -23 5 -34 9 -17 7
-21 -9 -26 -11 -2 -25 -16 -31 -29 -6 -13 -17 -24 -26 -24 -8 0 -16 -4 -16
-10 -1 -5 -2 -14 -3 -19 -2 -18 -16 -24 -29 -13 -7 6 -23 9 -35 5 -18 -4 -22
-1 -22 16 0 12 -6 21 -15 21 -9 0 -15 -9 -15 -22 0 -13 -3 -34 -7 -47 -6 -24
-5 -24 45 -18 31 4 52 2 52 -4 0 -5 11 -2 25 7 13 8 28 13 33 10 5 -3 64 -5
133 -5 68 0 135 0 149 0 14 0 82 0 153 0 l127 0 0 -24 c0 -21 -6 -25 -32 -28
-64 -7 -703 12 -713 22 -10 10 -9 214 1 287 5 34 3 42 -10 42 -13 0 -16 -11
-17 -52 -3 -199 -10 -303 -21 -309 -7 -5 -396 -5 -865 -2 l-853 6 0 -21 c0
-21 3 -22 137 -22 75 0 134 -3 131 -6 -4 -3 -65 -5 -137 -5 -125 1 -131 0
-131 -19 0 -18 7 -20 60 -20 l60 0 0 -30 0 -30 -60 0 c-53 0 -60 -2 -60 -20 0
-18 7 -20 58 -20 43 0 53 -3 42 -11 -11 -8 -12 -12 -2 -16 8 -3 12 -30 12 -84
l0 -79 -32 0 c-71 0 -78 -7 -78 -71 0 -48 3 -57 15 -53 8 4 15 1 15 -5 0 -6
-7 -11 -15 -11 -11 0 -15 -11 -15 -40 0 -36 3 -40 25 -40 25 0 25 -1 25 -80 0
-50 -4 -80 -11 -80 -6 0 -8 -9 -4 -22 5 -18 4 -20 -4 -8 -18 25 -31 -7 -31
-81 0 -66 0 -67 30 -73 22 -4 38 -18 58 -51 15 -25 30 -45 34 -45 4 0 15 12
25 28 9 15 25 35 35 45 17 17 19 17 42 -8 13 -14 28 -25 35 -25 6 0 11 -5 11
-10 0 -24 39 16 51 52 12 38 29 51 29 23 0 -11 11 -15 40 -15 36 0 40 -2 40
-25 0 -17 5 -25 18 -25 9 0 23 -9 30 -20 20 -32 30 -24 48 40 17 61 34 75 53
43 10 -17 12 -17 25 0 20 25 34 21 41 -14 4 -17 13 -41 20 -55 l12 -24 15 22
c8 13 20 38 27 56 13 31 15 32 76 32 l62 0 18 -55 c21 -61 35 -71 35 -25 0 19
7 33 19 40 11 5 23 19 26 30 7 22 51 26 128 14 35 -6 37 -8 37 -45 0 -28 4
-39 15 -39 8 0 15 7 15 15 0 8 11 26 25 40 32 31 84 34 103 5 17 -27 32 -25
32 5 l0 25 203 1 c262 2 418 -1 439 -7 9 -3 21 -19 28 -37 l11 -32 20 24 c10
13 19 30 19 38 0 13 10 15 50 11 39 -4 54 -11 71 -32 27 -34 39 -33 39 3 0 28
1 29 76 36 72 7 76 6 100 -20 l24 -26 23 23 c21 22 28 23 190 24 92 0 167 -3
167 -8 0 -4 9 -8 20 -8 11 0 20 5 20 10 0 12 50 13 68 1 9 -5 11 -17 6 -37 -9
-35 -71 -161 -85 -169 -5 -4 -9 -15 -9 -26 0 -10 -4 -19 -10 -19 -5 0 -10 -9
-10 -19 0 -11 -4 -22 -8 -25 -9 -5 -65 -177 -81 -249 -6 -26 -11 -64 -11 -85
0 -20 -5 -55 -11 -77 -6 -22 -17 -148 -24 -280 -10 -173 -20 -262 -34 -319
-12 -44 -21 -94 -21 -113 0 -18 -3 -33 -7 -33 -22 0 -43 -65 -43 -133 0 -99
13 -138 52 -161 19 -11 28 -21 21 -23 -17 -6 -19 -243 -2 -243 8 0 9 -24 4
-80 l-7 -80 196 0 196 0 0 40 0 40 -40 0 -40 0 0 80 0 80 30 0 c28 0 30 2 30
39 0 47 8 51 104 51 58 0 76 4 89 18 10 10 17 24 17 30 0 6 6 15 14 19 12 7
36 71 36 95 0 12 -87 68 -105 68 -10 0 -39 18 -65 40 -26 22 -50 40 -54 40
-37 0 -96 117 -96 189 0 27 -5 51 -10 53 -10 3 -7 26 20 171 13 71 33 141 42
147 3 3 18 38 31 78 13 40 27 76 31 79 3 4 6 21 6 39 0 18 4 35 9 38 5 3 15
30 21 58 7 29 18 69 25 88 7 19 23 68 36 108 12 39 26 72 31 72 4 0 8 7 8 16
0 9 9 27 20 41 11 14 20 34 20 43 0 10 7 23 15 30 8 7 15 18 15 24 0 6 16 42
35 81 20 38 40 87 46 107 5 21 13 38 18 38 4 0 20 -33 34 -73 37 -104 51 -141
58 -147 6 -6 34 -111 48 -180 5 -25 18 -79 29 -120 10 -41 27 -120 37 -175 18
-102 27 -140 71 -300 23 -80 25 -103 20 -211 -5 -122 -24 -200 -53 -217 -8 -5
-18 -20 -23 -33 -5 -13 -16 -24 -25 -24 -8 0 -15 -4 -15 -10 0 -5 -9 -10 -20
-10 -11 0 -20 -7 -20 -15 0 -22 -51 -64 -77 -65 -13 0 -23 -6 -23 -15 0 -7 -6
-18 -14 -22 -17 -11 -36 -47 -36 -71 0 -40 30 -52 133 -52 58 0 97 -4 97 -10
0 -5 18 -10 40 -10 33 0 40 -3 40 -20 0 -17 7 -20 40 -20 22 0 40 -4 40 -10 0
-5 -25 -10 -55 -10 l-55 0 0 -40 c0 -23 -5 -40 -11 -40 -8 0 -9 -24 -4 -80 5
-56 4 -80 -4 -80 -6 0 -11 -17 -11 -40 l0 -40 165 0 165 0 0 40 c0 29 -4 40
-15 40 -8 0 -15 9 -15 20 0 11 -9 29 -20 40 -13 13 -20 33 -20 60 0 33 3 40
20 40 17 0 20 7 20 40 0 22 5 40 10 40 6 0 10 18 10 40 0 22 -4 40 -10 40 -12
0 29 71 51 87 9 7 19 27 23 45 17 99 18 108 7 108 -6 0 -11 6 -11 14 0 7 -7
27 -15 42 -8 16 -15 50 -15 76 0 43 -15 96 -31 108 -4 3 -3 28 2 55 14 85 28
486 19 540 -5 28 -9 82 -10 120 0 39 -7 95 -15 125 -8 30 -15 70 -15 88 0 17
-4 32 -9 32 -5 0 -12 15 -15 33 -3 17 -17 54 -31 81 -14 27 -25 57 -25 67 0 9
-6 19 -14 22 -7 3 -16 26 -19 51 -4 25 -10 58 -13 72 -6 24 -5 26 16 19 13 -4
78 -4 146 0 l124 7 0 39 0 39 -107 0 c-60 0 -125 3 -145 6 l-38 7 0 86 c0 47
6 109 12 138 l13 53 81 0 c133 0 169 8 209 47 27 26 35 42 35 69 0 19 9 52 19
72 14 28 22 77 30 201 7 90 14 168 18 174 3 5 9 109 12 231 l6 221 60 33 c33
18 72 38 88 45 15 6 27 18 28 27 0 8 19 31 43 50 41 34 57 55 72 93 3 9 15 17
25 17 13 0 19 7 19 23 0 12 6 31 14 42 7 11 16 38 19 60 15 97 20 115 33 115
10 0 14 14 14 50 0 28 6 61 14 73 8 12 17 41 21 64 4 24 14 47 22 52 12 6 16
38 21 165 3 113 2 156 -7 156 -6 0 -11 17 -11 40 0 22 -4 40 -10 40 -5 0 -10
18 -10 40 0 22 -4 40 -10 40 -5 0 -10 18 -10 40 0 22 -4 40 -10 40 -5 0 -10
18 -10 40 0 27 -4 40 -14 40 -8 0 -17 15 -21 36 -3 20 -15 46 -26 57 -10 11
-19 31 -19 43 0 12 -4 24 -8 26 -13 5 -72 120 -72 140 0 11 -7 18 -18 18 -14
0 -21 14 -31 60 -8 33 -18 63 -22 66 -5 3 -9 16 -9 29 0 28 -54 150 -75 171
-23 23 -66 116 -61 130 3 7 24 23 48 36 l43 23 -32 3 c-36 4 -41 13 -18 32 23
19 18 29 -17 38 -17 4 -36 17 -42 27 -6 11 -23 32 -38 48 -16 15 -28 33 -28
41 0 8 -7 16 -15 20 -8 3 -23 21 -32 41 -10 21 -24 35 -35 35 -11 0 -18 7 -18
19 0 10 -10 29 -22 43 -20 22 -44 63 -62 108 -3 8 -15 29 -26 45 -40 62 -55
106 -97 273 -9 39 -21 72 -25 72 -4 0 -8 10 -8 23 0 29 -48 127 -66 134 -8 3
-14 13 -14 23 0 10 -15 33 -32 52 -57 59 -128 141 -128 147 0 9 -57 51 -69 51
-5 0 -11 4 -13 9 -5 13 -67 18 -158 11z m328 -362 c26 -55 32 -79 32 -135 0
-42 -5 -76 -13 -87 -13 -18 -15 -18 -40 4 -23 20 -27 32 -27 76 0 29 5 56 10
59 16 10 12 49 -10 100 -11 26 -20 56 -20 68 0 21 0 21 18 1 10 -10 32 -49 50
-86z m502 -1581 c19 -28 39 -55 44 -59 5 -3 10 -34 10 -67 0 -37 5 -61 12 -61
6 0 18 -18 27 -40 15 -38 15 -40 -4 -40 -11 0 -21 9 -24 23 -6 21 -10 22 -90
19 -79 -3 -85 -5 -86 -25 -1 -24 -3 -18 -14 28 -7 27 -8 28 -15 10 -7 -17 -9
-16 -9 9 -1 45 39 203 55 217 8 6 14 18 14 25 0 8 10 14 23 14 15 0 32 -16 57
-53z m-2474 -339 c2 -3 2 -13 -2 -22 -6 -15 -18 -17 -82 -14 -75 3 -102 18
-71 40 14 9 145 6 155 -4z m2513 -15 c64 -1 128 -3 142 -3 43 0 107 -91 115
-162 10 -83 -4 -228 -22 -228 -19 0 -18 -19 1 -26 12 -5 15 -32 15 -158 0 -83
-4 -168 -9 -189 -9 -38 -44 -76 -71 -77 -22 0 -103 -33 -118 -47 -7 -7 -20
-13 -28 -13 -8 0 -14 -4 -14 -10 0 -5 -6 -10 -14 -10 -7 0 -19 -7 -26 -15 -17
-20 -48 -19 -54 3 -3 9 -10 62 -16 117 -7 55 -19 136 -27 180 -17 84 -17 126
-4 186 10 43 2 139 -10 139 -5 0 -9 25 -9 55 l0 55 143 -3 142 -2 3 43 3 42
-108 2 c-59 1 -129 1 -155 -1 -52 -3 -57 4 -60 75 -1 44 8 68 23 59 5 -4 9 -1
9 6 0 8 5 8 16 -2 11 -9 53 -14 133 -16z m-2469 -43 c0 -5 -4 -10 -10 -10 -5
0 -10 5 -10 10 0 6 5 10 10 10 6 0 10 -4 10 -10z m143 3 c-13 -2 -33 -2 -45 0
-13 2 -3 4 22 4 25 0 35 -2 23 -4z m461 -4 c97 -1 111 -3 71 -9 -78 -13 -251
-10 -350 5 l-90 14 124 -4 c68 -3 179 -6 245 -6z m502 -157 c-14 -33 -34 -91
-45 -129 -10 -39 -26 -84 -35 -101 -9 -17 -16 -36 -16 -41 0 -6 -22 -57 -49
-113 -27 -57 -56 -130 -65 -162 -8 -33 -21 -63 -28 -67 -10 -7 -10 -9 0 -9 6
0 12 -8 12 -19 0 -13 -9 -20 -32 -23 -30 -4 -54 -4 -175 1 -26 1 -33 5 -33 21
0 15 7 20 25 20 26 0 34 15 13 22 -8 3 -3 14 15 32 15 15 27 33 27 41 0 8 7
15 15 15 8 0 15 3 15 8 0 4 29 39 65 77 35 39 64 75 65 82 0 6 3 13 8 15 12 5
77 90 114 148 18 30 47 93 63 140 16 47 31 87 35 90 4 3 10 14 15 25 7 17 9
17 12 3 2 -9 -7 -43 -21 -76z m1229 39 c3 -5 1 -12 -5 -16 -5 -3 -10 1 -10 9
0 18 6 21 15 7z m-1820 -911 c-3 -5 -13 -10 -21 -10 -8 0 -14 5 -14 10 0 6 9
10 21 10 11 0 17 -4 14 -10z m325 -5 c0 -8 -7 -15 -15 -15 -16 0 -20 12 -8 23
11 12 23 8 23 -8z m-207 -2 c-7 -2 -19 -2 -25 0 -7 3 -2 5 12 5 14 0 19 -2 13
-5z m84 1 c-3 -3 -12 -4 -19 -1 -8 3 -5 6 6 6 11 1 17 -2 13 -5z m-104 -31
c-7 -2 -19 -2 -25 0 -7 3 -2 5 12 5 14 0 19 -2 13 -5z m-46 -25 c-3 -8 -6 -5
-6 6 -1 11 2 17 5 13 3 -3 4 -12 1 -19z m70 0 c-3 -8 -6 -5 -6 6 -1 11 2 17 5
13 3 -3 4 -12 1 -19z m-227 -38 c0 -13 -7 -20 -20 -20 -19 0 -19 1 -2 19 22
25 22 25 22 1z m120 -6 c0 -8 -10 -14 -25 -14 -18 0 -25 5 -25 19 0 14 6 17
25 13 14 -2 25 -11 25 -18z m293 -11 c7 -10 3 -13 -17 -13 -24 0 -25 2 -14 26
8 17 14 21 16 13 3 -8 9 -20 15 -26z m-223 -3 c19 0 30 6 33 18 4 13 5 11 6
-5 1 -20 -4 -23 -39 -23 -35 0 -40 3 -39 23 1 16 2 18 6 5 3 -12 14 -18 33
-18z m-270 4 c0 -2 -12 -4 -26 -4 -14 0 -23 4 -20 9 6 8 46 4 46 -5z m407 1
c-5 -15 -77 -19 -77 -5 0 7 7 10 15 6 8 -3 15 -2 15 2 0 4 11 7 25 7 14 0 24
-4 22 -10z m-365 -65 c-2 -16 -6 -30 -8 -30 -2 0 -4 14 -4 30 0 17 4 30 8 30
5 0 7 -13 4 -30z m339 10 c10 -6 19 -16 19 -23 0 -8 -3 -8 -9 2 -12 19 -30 5
-24 -19 3 -11 0 -20 -6 -20 -6 0 -11 16 -11 35 0 38 2 40 31 25z m-193 -53 c3
-23 0 -27 -22 -27 -31 0 -36 8 -25 38 12 32 43 25 47 -11z m-88 -7 c0 -15 -27
-23 -47 -15 -16 7 -15 9 7 15 36 11 40 11 40 0z m-210 -4 c0 -11 -19 -15 -25
-6 -3 5 1 10 9 10 9 0 16 -2 16 -4z m115 -6 c-3 -5 -15 -10 -26 -10 -10 0 -19
5 -19 10 0 6 12 10 26 10 14 0 23 -4 19 -10z m275 0 c0 -5 -6 -10 -14 -10 -8
0 -18 5 -21 10 -3 6 3 10 14 10 12 0 21 -4 21 -10z m21 -142 c10 -13 18 -32
19 -42 0 -20 0 -20 -14 0 -16 21 -22 19 -28 -11 -3 -18 2 -20 45 -17 28 2 47
-1 47 -7 0 -14 -99 -14 -120 -1 -10 6 -15 25 -15 55 -1 41 2 45 23 45 13 0 32
-10 43 -22z m179 -20 c0 -16 -3 -19 -11 -11 -6 6 -8 16 -5 22 11 17 16 13 16
-11z m-320 -31 c0 -5 -4 -5 -10 -2 -5 3 -10 14 -10 23 0 15 2 15 10 2 5 -8 10
-19 10 -23z m210 13 c0 -11 -4 -20 -10 -20 -5 0 -10 9 -10 20 0 11 5 20 10 20
6 0 10 -9 10 -20z m-1745 -275 c6 -2 -64 -3 -155 -2 -127 0 -145 2 -80 6 81 6
214 3 235 -4z m221 4 c3 -5 -33 -9 -80 -9 -47 0 -86 4 -86 9 0 11 159 11 166
0z m-616 -68 c0 -16 -9 -20 -50 -23 -28 -1 -52 1 -54 7 -8 25 8 35 55 35 42 0
49 -3 49 -19z m240 4 c0 -28 -34 -33 -182 -25 -5 0 -8 9 -8 20 0 19 7 20 95
20 77 0 95 -3 95 -15z m1872 -35 c-1 -25 -4 -108 -5 -185 l-2 -140 -35 1
c-109 1 -150 5 -150 14 0 6 37 11 88 12 l87 2 -83 3 -82 4 1 62 c3 82 10 94
51 91 53 -4 78 6 85 35 l7 26 7 -30 c6 -27 7 -26 8 13 1 38 -1 42 -23 42 -14
0 -28 5 -31 10 -7 11 -63 9 -82 -3 -15 -9 -30 60 -17 73 8 8 118 18 164 15 11
0 14 -11 12 -45z m92 42 c7 -12 -13 -83 -29 -98 -11 -11 -14 -11 -19 2 -10 26
-7 79 6 92 14 14 35 16 42 4z m-1804 -17 c0 -11 -12 -15 -42 -16 -70 -2 -85 2
-73 20 3 6 31 11 61 11 41 0 54 -4 54 -15z m215 0 c0 -12 -141 -23 -161 -12
-8 5 -12 13 -8 18 8 13 169 7 169 -6z m243 3 c-3 -9 -33 -13 -103 -13 -70 0
-100 4 -102 13 -4 9 21 12 102 12 81 0 106 -3 103 -12z m162 -33 c0 -53 -21
-61 -42 -17 -7 15 -23 28 -35 30 -12 2 -27 10 -33 18 -11 12 -3 14 49 14 l61
0 0 -45z m698 18 l-3 -28 -105 -7 c-58 -4 -148 -12 -200 -18 -52 -6 -152 -10
-221 -10 -106 0 -128 3 -133 16 -8 21 -8 59 1 67 3 4 154 7 335 7 l329 0 -3
-27z m156 21 c9 -3 16 -18 16 -33 0 -25 -2 -26 -65 -29 l-65 -3 0 35 0 36 49
0 c27 0 56 -3 65 -6z m-1034 -109 c19 0 26 -107 10 -149 -10 -26 -12 -27 -82
-25 -114 3 -118 6 -118 86 0 38 4 73 8 78 4 6 36 12 72 14 36 1 67 4 69 6 2 3
9 1 15 -3 6 -3 18 -7 26 -7z m-840 -85 l0 -78 -55 -4 -55 -3 0 72 c0 97 1 99
60 95 l50 -4 0 -78z m208 64 c18 11 29 -72 16 -121 -4 -13 -11 -20 -16 -17 -6
4 -15 0 -20 -7 -6 -9 -11 -10 -14 -4 -3 7 -27 9 -65 5 -33 -3 -62 -4 -64 -1
-8 7 -5 135 3 148 11 18 124 21 139 4 6 -7 16 -10 21 -7z m777 12 c16 -11 20
-30 23 -110 4 -91 3 -96 -16 -96 -13 0 -22 8 -24 22 -2 13 -12 22 -25 24 -22
4 -28 -5 -24 -33 1 -7 -3 -13 -9 -13 -10 0 -15 201 -5 211 10 11 63 8 80 -5z
m-383 -10 c12 -17 9 -134 -2 -141 -6 -4 -43 -7 -83 -7 l-72 -1 -3 72 c-3 66
-1 72 20 81 30 12 131 9 140 -4z m-202 -70 l0 -74 -56 -4 c-45 -2 -58 0 -65
14 -10 18 -13 121 -4 130 3 3 32 6 65 7 l60 2 0 -75z m836 37 c118 1 124 2
125 21 2 19 2 19 6 -1 4 -23 33 -33 33 -13 0 6 10 1 22 -10 21 -19 33 -21 155
-18 l133 3 0 -27 c0 -20 -4 -26 -15 -22 -12 5 -15 -4 -15 -49 l0 -56 -35 6
c-23 4 -35 2 -35 -6 0 -6 17 -11 38 -12 30 0 33 -2 17 -9 -29 -12 -465 -12
-465 0 0 6 37 11 88 12 66 1 53 3 -58 7 -92 4 -148 2 -152 -4 -17 -22 -28 23
-26 100 3 68 6 80 19 77 10 -1 20 7 24 20 7 23 8 23 12 2 4 -20 10 -21 129
-21z m615 -35 c0 -7 0 -41 -1 -75 -1 -51 2 -63 14 -63 9 0 16 -4 16 -10 0 -6
-27 -10 -60 -10 -33 0 -60 4 -60 10 0 6 18 10 40 10 l40 0 0 45 0 45 -42 2
-43 1 43 4 c53 5 55 23 2 23 -29 0 -40 4 -40 15 0 19 90 22 91 3z m26 -30 c-3
-7 -5 -2 -5 12 0 14 2 19 5 13 2 -7 2 -19 0 -25z m-167 -73 c0 -30 -4 -55 -10
-55 -5 0 -10 25 -10 55 0 30 5 55 10 55 6 0 10 -25 10 -55z m529 -5 c13 -6 17
-17 14 -35 -5 -22 -10 -25 -49 -25 -28 0 -44 4 -44 13 0 6 -3 22 -6 35 -6 20
-3 22 30 22 21 0 45 -4 55 -10z m154 -35 c26 -3 45 -10 42 -16 -7 -10 -128
-13 -138 -3 -13 13 6 34 27 29 11 -2 42 -7 69 -10z m-1225 -22 c-10 -2 -26 -2
-35 0 -10 3 -2 5 17 5 19 0 27 -2 18 -5z m-325 -198 c-2 -74 -7 -111 -15 -117
-7 -4 -34 -8 -59 -8 l-47 0 -7 79 c-4 44 -4 98 0 121 l7 42 62 -4 61 -4 -2
-109z m143 75 c11 0 14 -15 13 -67 -1 -76 -9 -114 -24 -114 -6 1 -11 45 -12
108 -1 60 1 100 3 91 3 -10 12 -18 20 -18z m1524 -79 c0 -124 4 -119 -111
-123 -90 -3 -99 -1 -99 15 0 15 6 17 48 12 26 -4 65 -2 87 3 l40 10 -37 1 -38
1 0 89 0 90 43 3 c58 4 67 -10 67 -101z m-2205 89 c4 -6 11 -8 16 -4 5 3 23 2
40 -1 l31 -7 -7 -77 c-5 -42 -9 -85 -10 -96 -1 -17 -9 -20 -51 -20 l-49 0 -3
85 c-2 47 0 95 3 108 6 23 20 29 30 12z m289 -6 c3 -9 6 -37 6 -62 0 -36 -5
-50 -20 -60 -13 -8 -20 -23 -20 -42 0 -28 -2 -30 -39 -30 -32 0 -40 4 -45 23
-8 29 -8 151 0 171 9 23 109 23 118 0z m96 6 c0 -5 -5 -10 -11 -10 -5 0 -7 5
-4 10 3 6 8 10 11 10 2 0 4 -4 4 -10z m1404 -115 l-7 -95 -83 0 -84 0 0 95 0
95 40 0 c25 0 40 -5 40 -12 1 -7 9 -3 19 8 21 27 52 34 69 17 9 -9 11 -36 6
-108z m248 83 c29 -4 32 -20 10 -43 -10 -11 -16 -28 -14 -37 4 -20 -15 -58
-28 -58 -12 0 -14 140 -3 167 7 16 8 16 11 -4 2 -13 12 -23 24 -25z m242 -56
c9 -85 11 -93 33 -98 12 -4 23 -10 23 -14 0 -8 -69 -19 -85 -13 -10 3 -12 56
-7 171 1 38 6 52 15 50 7 -3 15 -39 21 -96z m-338 76 c11 -18 5 -151 -8 -159
-7 -5 -7 -9 1 -13 23 -15 9 -26 -32 -26 -46 0 -60 6 -50 23 3 5 5 49 4 98 l-2
89 40 0 c22 0 43 -5 47 -12z m-2112 -20 c-4 -13 -7 -52 -6 -88 2 -62 -13 -111
-25 -82 -6 16 -23 15 -23 -2 0 -9 -7 -12 -20 -9 -16 4 -20 14 -20 45 0 35 2
39 15 28 13 -11 15 -7 15 24 0 22 4 35 10 31 13 -8 13 1 0 26 -6 10 -17 19
-25 19 -8 0 -15 7 -15 15 0 11 12 15 51 15 48 0 50 -1 43 -22z m1009 -105 c-3
-18 -9 -33 -14 -33 -5 0 -9 -7 -9 -15 0 -11 11 -15 41 -15 l41 0 -6 43 c-7 49
-7 127 0 139 3 4 50 8 105 8 l101 0 -7 -86 c-6 -68 -5 -88 6 -95 34 -21 39
-11 39 86 l0 95 35 0 c36 0 100 -27 135 -58 23 -19 29 -112 8 -112 -23 0 16
-20 40 -20 20 0 22 4 22 64 0 75 9 126 22 126 5 0 7 -43 6 -97 -3 -87 -5 -97
-23 -100 -47 -10 -327 -15 -480 -8 l-165 7 0 93 0 94 43 3 42 3 12 -45 c7 -25
10 -60 6 -77z m718 53 c5 -6 9 -36 9 -68 l0 -59 -57 3 c-65 3 -67 6 -57 116
l6 62 39 0 c24 0 40 5 41 13 0 6 3 -4 5 -23 3 -19 9 -39 14 -44z m779 -16 c0
-40 -4 -70 -10 -70 -11 0 -13 81 -4 118 10 37 14 25 14 -48z m-1470 24 c0 -8
-4 -14 -10 -14 -5 0 -10 9 -10 21 0 11 5 17 10 14 6 -3 10 -13 10 -21z m-570
-103 c0 -6 -4 -13 -10 -16 -5 -3 -10 1 -10 9 0 9 5 16 10 16 6 0 10 -4 10 -9z
m2263 -1938 c-13 -2 -33 -2 -45 0 -13 2 -3 4 22 4 25 0 35 -2 23 -4z"/>
<path d="M4738 2743 c12 -2 32 -2 45 0 12 2 2 4 -23 4 -25 0 -35 -2 -22 -4z"/>
<path d="M4695 2630 c-4 -6 28 -10 89 -10 57 0 96 4 96 10 0 6 -36 10 -89 10
-50 0 -93 -4 -96 -10z"/>
<path d="M3600 2358 c-3 -26 -1 -43 3 -39 5 5 7 26 5 47 l-3 39 -5 -47z"/>
<path d="M3633 2360 c0 -25 2 -35 4 -22 2 12 2 32 0 45 -2 12 -4 2 -4 -23z"/>
<path d="M3335 2310 c4 -6 11 -8 16 -5 14 9 11 15 -7 15 -8 0 -12 -5 -9 -10z"/>
<path d="M3017 7033 c-4 -3 -7 -37 -7 -75 0 -52 4 -70 15 -74 8 -4 15 -12 15
-19 0 -8 11 -27 25 -43 14 -17 25 -35 25 -41 0 -6 6 -11 14 -11 8 0 16 -7 20
-15 6 -17 -2 -45 -14 -45 -20 0 -40 13 -40 26 0 8 -7 14 -15 14 -19 0 -19 -26
0 -34 8 -3 23 -21 32 -41 9 -19 23 -35 30 -35 7 0 13 -5 13 -11 0 -6 -6 -8
-12 -5 -7 3 -21 9 -30 12 -10 4 -18 13 -18 20 0 8 -7 17 -15 20 -8 4 -15 14
-15 23 -1 9 -7 27 -15 41 -13 23 -14 19 -15 -61 0 -81 2 -87 28 -111 24 -22
55 -57 131 -146 23 -27 64 -27 69 0 2 10 -9 33 -25 53 -21 26 -28 46 -28 78 0
23 -4 52 -8 65 -8 20 -5 22 22 22 20 0 34 -7 41 -20 6 -11 17 -20 25 -20 8 0
15 -8 15 -18 0 -22 72 -52 78 -33 2 6 11 11 19 11 12 0 14 7 9 31 -3 17 -6 35
-6 40 0 5 -6 9 -14 9 -20 0 -108 88 -96 95 6 3 10 15 10 27 0 17 -3 18 -15 8
-16 -14 -35 -6 -35 16 0 8 -7 14 -15 14 -8 0 -15 5 -15 11 0 14 -55 69 -69 69
-6 0 -11 5 -11 11 0 6 -11 24 -25 41 -14 16 -25 36 -25 44 0 8 -6 14 -14 14
-7 0 -19 7 -27 16 -10 13 -10 17 2 25 8 5 9 9 3 9 -6 0 -14 -3 -17 -7z m141
-315 c17 -17 15 -28 -6 -28 -24 0 -32 8 -25 26 6 17 15 18 31 2z"/>
<path d="M5760 6972 c0 -16 72 -32 92 -21 10 5 16 14 13 20 -8 11 -105 12
-105 1z"/>
<path d="M8593 6929 c-51 -19 -13 -41 53 -30 51 8 54 35 4 37 -19 1 -45 -2
-57 -7z"/>
<path d="M3040 6810 c0 -5 5 -10 10 -10 6 0 10 5 10 10 0 6 -4 10 -10 10 -5 0
-10 -4 -10 -10z"/>
<path d="M3202 6610 c0 -14 2 -19 5 -12 2 6 2 18 0 25 -3 6 -5 1 -5 -13z"/>
<path d="M7340 5825 c-10 -12 -10 -15 4 -15 9 0 16 7 16 15 0 8 -2 15 -4 15
-2 0 -9 -7 -16 -15z"/>
<path d="M7332 5684 c-13 -6 -20 -14 -15 -17 8 -5 50 20 42 26 -2 2 -15 -2
-27 -9z"/>
<path d="M9333 4963 c31 -2 83 -2 115 0 31 2 5 3 -58 3 -63 0 -89 -1 -57 -3z"/>
<path d="M7698 4866 c-11 -8 -18 -26 -18 -45 l0 -31 198 0 c108 -1 231 -3 272
-5 41 -2 307 -6 590 -10 283 -3 570 -8 638 -11 l122 -7 0 46 c0 44 -1 46 -32
50 l-33 4 33 1 c17 1 32 7 32 13 0 9 -183 11 -690 8 l-690 -4 -1 -25 -1 -25
-11 28 -11 27 -190 0 c-143 -1 -195 -4 -208 -14z"/>
<path d="M8193 4623 l2 -48 164 0 164 0 2 40 c1 22 -3 43 -9 47 -6 4 -82 8
-168 8 l-157 0 2 -47z"/>
<path d="M9408 4643 c-37 -4 -38 -5 -38 -44 l0 -39 65 0 65 0 0 45 c0 50 5 48
-92 38z"/>
<path d="M9360 4360 c0 -5 18 -10 40 -10 22 0 40 5 40 10 0 6 -18 10 -40 10
-22 0 -40 -4 -40 -10z"/>
<path d="M3022 4308 c-9 -9 -12 -147 -12 -560 l0 -548 378 -2 c878 -3 1015 -3
972 3 l-45 6 43 1 c23 1 42 6 42 11 0 5 13 14 30 21 16 7 39 21 51 31 l22 19
-24 0 c-13 0 -34 3 -47 6 -18 5 -20 9 -11 20 10 12 2 14 -47 12 -50 -1 -53 -2
-16 -5 53 -5 56 -23 3 -23 -48 0 -79 25 -83 65 l-3 30 65 0 c36 0 117 -3 180
-5 110 -5 115 -4 115 15 0 19 -8 20 -120 25 -118 5 -119 5 -53 13 37 4 84 5
106 1 30 -5 40 -3 45 10 11 28 -28 36 -179 36 l-147 0 7 243 c9 335 9 381 2
404 -8 25 -34 31 -167 40 -109 7 -103 2 -100 78 2 49 -10 58 -52 40 -29 -12
-38 -23 -47 -54 -9 -34 -15 -40 -54 -51 -25 -7 -67 -10 -98 -6 -29 3 -171 5
-315 5 -196 0 -267 3 -282 13 -17 10 -25 10 -41 0 -44 -27 -53 -17 -48 53 l4
65 -31 0 c-17 0 -36 -5 -43 -12z m1238 -183 c11 -14 10 -189 -5 -525 -3 -52
-5 -98 -5 -102 0 -5 -56 -8 -125 -8 l-125 0 5 43 c2 23 7 165 10 316 3 151 8
278 11 283 3 4 54 8 113 8 83 0 111 -3 121 -15z m-1005 -24 c-9 -8 -47 -15
-68 -12 -5 1 -5 6 -2 11 3 6 23 10 43 10 22 0 32 -4 27 -9z m200 -6 c0 -5 -21
-11 -47 -13 -39 -3 -48 0 -48 13 0 13 9 16 48 13 26 -2 47 -7 47 -13z m225 0
c0 -11 -15 -14 -72 -14 -65 1 -71 2 -53 15 26 20 125 19 125 -1z m160 0 c0 -9
-10 -16 -22 -16 -13 -1 -33 -3 -46 -4 -27 -3 -40 14 -21 26 24 15 89 11 89 -6z
m110 -5 c0 -5 -5 -10 -11 -10 -5 0 -7 5 -4 10 3 6 8 10 11 10 2 0 4 -4 4 -10z
m10 -91 c0 -17 -4 -28 -10 -24 -5 3 -10 17 -10 31 0 13 5 24 10 24 6 0 10 -14
10 -31z m3 -316 c-3 -87 -10 -164 -15 -170 -12 -15 -108 -18 -108 -3 0 6 -7
10 -17 10 -15 0 -15 1 0 18 10 10 17 22 17 27 0 4 10 16 23 27 12 11 22 25 22
32 0 7 12 24 27 37 20 19 28 40 37 96 6 40 11 74 11 77 0 3 2 6 5 6 2 0 1 -71
-2 -157z m-283 -153 c0 -5 -5 -10 -11 -10 -5 0 -7 5 -4 10 3 6 8 10 11 10 2 0
4 -4 4 -10z m63 -27 c-13 -2 -33 -2 -45 0 -13 2 -3 4 22 4 25 0 35 -2 23 -4z"/>
<path d="M4773 3960 c0 -25 2 -35 4 -22 2 12 2 32 0 45 -2 12 -4 2 -4 -23z"/>
<path d="M8263 3768 c-4 -7 -7 -258 -6 -558 2 -300 -1 -570 -6 -600 l-9 -55
-1 73 c-2 127 -49 162 -216 162 -172 0 -175 -5 -187 -263 -11 -246 -12 -251
-68 -257 -38 -4 -45 -9 -51 -33 -16 -59 -33 -55 368 -73 127 -6 143 -9 148
-25 5 -14 16 -19 46 -19 27 0 39 -4 39 -14 0 -10 22 -16 80 -21 58 -5 80 -11
80 -21 0 -16 72 -19 179 -8 56 6 61 9 61 31 l0 25 80 -7 c51 -5 80 -4 80 3 0
5 36 13 80 17 l79 7 7 34 c5 29 10 34 35 34 22 0 29 -5 29 -20 0 -13 7 -20 20
-20 11 0 20 -7 20 -15 0 -8 5 -15 10 -15 6 0 10 7 10 15 0 12 17 14 108 9 59
-3 133 -2 165 1 l57 7 0 105 c0 96 -1 105 -17 97 -10 -4 -36 -9 -58 -11 l-40
-3 38 18 c21 9 35 21 31 25 -4 4 1 7 11 7 15 0 16 3 7 12 -9 9 -7 14 6 24 14
10 8 13 -41 19 -87 11 -86 11 -80 -99 l6 -96 -76 0 c-42 0 -79 4 -82 10 -3 5
-6 199 -6 430 -1 246 -5 420 -10 420 -5 0 -9 134 -9 320 0 249 3 320 13 321 6
1 -6 5 -28 10 -22 4 -232 8 -467 8 -331 1 -429 -2 -435 -11z m838 -690 c-1
-112 2 -350 5 -529 l6 -326 -31 0 -31 0 0 111 c-1 61 -3 298 -6 526 -3 272 -1
410 5 400 9 -12 11 -12 17 3 3 9 13 17 21 17 13 0 15 -28 14 -202z m-157 -53
c-4 -8 -8 -15 -10 -15 -2 0 -4 7 -4 15 0 8 4 15 10 15 5 0 7 -7 4 -15z m233
-527 c-2 -13 -4 -3 -4 22 0 25 2 35 4 23 2 -13 2 -33 0 -45z m-1288 -104 c2
-125 2 -125 -21 -122 -25 3 -25 -7 -12 156 5 63 11 92 20 92 9 0 12 -32 13
-126z m316 -20 l-5 -96 -145 -2 -145 -1 1 30 c1 17 4 43 8 58 l6 28 34 -35
c29 -30 42 -36 78 -36 l43 0 0 39 c0 37 1 39 40 45 44 7 52 20 18 30 -21 7
-19 9 17 21 22 7 43 13 47 14 4 1 5 -42 3 -95z m-270 77 c3 -5 1 -12 -5 -16
-5 -3 -10 1 -10 9 0 18 6 21 15 7z m0 -41 c3 -5 1 -10 -4 -10 -6 0 -11 5 -11
10 0 6 2 10 4 10 3 0 8 -4 11 -10z"/>
<path d="M8165 2310 c-3 -5 -1 -10 4 -10 6 0 11 5 11 10 0 6 -2 10 -4 10 -3 0
-8 -4 -11 -10z"/>
<path d="M8018 2303 c12 -2 32 -2 45 0 12 2 2 4 -23 4 -25 0 -35 -2 -22 -4z"/>
<path d="M7956 3218 c-3 -7 -4 -42 -3 -78 l2 -65 67 -5 c65 -5 67 -4 70 20 2
14 1 50 -2 80 l-5 55 -63 3 c-44 2 -63 -1 -66 -10z m124 -58 c0 -5 -25 -10
-55 -10 -30 0 -55 5 -55 10 0 6 25 10 55 10 30 0 55 -4 55 -10z"/>
<path d="M7899 3180 c-4 -42 -1 -64 9 -68 8 -2 12 10 12 37 0 23 -4 41 -10 41
-5 0 -10 -4 -11 -10z"/>
<path d="M3010 3161 l0 -21 455 0 c261 0 455 4 455 9 0 10 -178 18 -617 27
-293 6 -293 6 -293 -15z"/>
<path d="M7180 2221 l-105 -6 94 -7 c129 -11 511 -10 511 1 0 20 -237 25 -500
12z"/>
<path d="M4285 2070 c3 -5 8 -10 11 -10 2 0 4 5 4 10 0 6 -5 10 -11 10 -5 0
-7 -4 -4 -10z"/>
<path d="M8937 983 c-4 -3 -7 -172 -7 -375 l0 -368 285 0 285 0 0 88 c0 80 -2
89 -25 111 -32 30 -38 55 -33 141 3 60 8 73 32 99 27 28 27 29 8 35 -17 6 -20
13 -15 41 3 19 0 49 -8 66 l-13 32 -19 -24 c-19 -24 -19 -24 2 -27 31 -5 29
-41 -2 -38 -13 2 -28 6 -34 9 -7 4 -9 -17 -5 -63 4 -58 2 -70 -10 -70 -9 0
-18 -9 -21 -20 -6 -25 -51 -43 -100 -41 -67 3 -74 -3 -68 -57 9 -66 0 -116
-21 -120 -26 -5 -29 23 -26 238 l3 195 65 3 c67 3 139 -12 152 -32 5 -6 8 -2
8 10 0 27 -32 34 -159 35 -87 1 -126 12 -58 16 17 1 53 5 80 9 47 6 47 6 47
45 l0 38 113 4 c110 3 109 3 -43 7 -143 3 -149 4 -70 10 62 5 28 7 -126 8
-116 1 -214 -1 -217 -5z m503 -253 c0 -5 -5 -10 -11 -10 -5 0 -7 5 -4 10 3 6
8 10 11 10 2 0 4 -4 4 -10z m-483 -212 c-2 -24 -4 -5 -4 42 0 47 2 66 4 43 2
-24 2 -62 0 -85z"/>
<path d="M9453 983 c9 -2 25 -2 35 0 9 3 1 5 -18 5 -19 0 -27 -2 -17 -5z"/>
<path d="M9328 873 c6 -2 18 -2 25 0 6 3 1 5 -13 5 -14 0 -19 -2 -12 -5z"/>
<path d="M9460 874 c0 -9 31 -37 36 -32 9 9 -8 38 -22 38 -8 0 -14 -3 -14 -6z"/>
<path d="M9218 863 c12 -2 32 -2 45 0 12 2 2 4 -23 4 -25 0 -35 -2 -22 -4z"/>
<path d="M9190 713 l0 -88 61 3 c59 4 61 5 75 38 21 51 4 114 -32 114 -8 0
-14 5 -14 10 0 6 -20 10 -45 10 l-45 0 0 -87z"/>
<path d="M9486 741 c-4 -7 -5 -15 -2 -18 9 -9 19 4 14 18 -4 11 -6 11 -12 0z"/>
<path d="M9480 568 c0 -24 4 -49 9 -57 7 -10 10 4 10 42 0 31 -5 57 -10 57 -5
0 -9 -19 -9 -42z"/>
</g>
</svg>
