<?xml version="1.0" standalone="no"?>
<!DOCTYPE svg PUBLIC "-//W3C//DTD SVG 20010904//EN"
 "http://www.w3.org/TR/2001/REC-SVG-20010904/DTD/svg10.dtd">
<svg version="1.0" xmlns="http://www.w3.org/2000/svg"
 width="1280.000000pt" height="720.000000pt" viewBox="0 0 1280.000000 720.000000"
 preserveAspectRatio="xMidYMid meet">
<metadata>
Created by potrace 1.16, written by Peter Selinger 2001-2019
</metadata>
<g transform="translate(0.000000,720.000000) scale(0.100000,-0.100000)"
fill="#000000" stroke="none">
<path d="M6250 7180 c-90 -11 -130 -44 -130 -107 0 -17 -5 -35 -11 -38 -6 -4
-29 -45 -51 -91 -22 -46 -44 -86 -49 -90 -5 -3 -9 -23 -9 -45 0 -22 -11 -80
-25 -129 -14 -49 -25 -113 -25 -142 0 -30 -5 -59 -11 -65 -7 -7 -11 -47 -10
-106 3 -123 -26 -343 -50 -382 -10 -16 -27 -40 -39 -53 -51 -54 -116 -150
-127 -187 -7 -22 -24 -80 -39 -130 -15 -49 -44 -120 -66 -156 -21 -36 -38 -72
-38 -81 0 -9 -4 -18 -8 -20 -15 -5 -62 -134 -62 -168 0 -23 -5 -33 -20 -37
-13 -3 -20 -14 -20 -28 0 -12 -13 -40 -29 -61 -17 -22 -38 -50 -49 -64 -10
-14 -41 -56 -67 -95 -27 -38 -61 -83 -77 -98 -29 -28 -90 -114 -118 -168 -8
-15 -30 -44 -47 -64 -18 -20 -33 -39 -33 -41 0 -2 -12 -16 -27 -31 -33 -33
-53 -67 -53 -88 0 -8 -6 -15 -14 -15 -7 0 -16 -9 -19 -21 -3 -11 -15 -23 -26
-26 -12 -3 -21 -12 -21 -19 0 -8 -18 -32 -40 -54 -22 -22 -40 -45 -40 -50 0
-21 -44 -70 -62 -70 -10 0 -18 -7 -18 -15 0 -19 -24 -20 -39 -1 -7 8 -31 16
-54 19 -142 19 -153 19 -209 2 -67 -19 -79 -31 -44 -45 23 -8 26 -15 26 -62 1
-29 7 -64 15 -78 8 -14 14 -35 15 -47 1 -55 95 -56 276 -2 17 5 45 9 62 9 18
0 32 4 32 10 0 22 78 100 127 127 18 9 33 21 33 25 0 12 50 58 63 58 7 0 27
18 46 40 19 22 38 40 42 40 5 0 19 10 31 23 34 32 97 81 119 91 11 5 19 17 19
28 0 11 7 18 20 18 11 0 20 7 20 15 0 9 8 19 17 22 20 8 41 24 100 81 25 23
49 42 54 42 5 0 9 4 9 10 0 11 19 36 68 86 17 19 32 41 32 49 0 9 10 15 25 15
21 0 29 11 58 73 18 39 43 108 56 152 13 44 27 89 32 100 5 11 13 39 18 63 12
58 36 92 65 92 21 0 24 -5 30 -67 4 -38 9 -87 12 -111 4 -26 1 -56 -8 -80 -8
-20 -13 -55 -11 -77 3 -25 -3 -64 -16 -102 -11 -34 -23 -76 -26 -95 -9 -61
-23 -113 -45 -168 -12 -30 -25 -69 -30 -86 -4 -17 -14 -44 -23 -60 -17 -31
-69 -181 -88 -254 -6 -25 -11 -100 -10 -167 1 -96 -1 -123 -11 -123 -8 0 -19
-19 -26 -42 -7 -24 -26 -68 -41 -98 -100 -195 -119 -239 -125 -290 -11 -92
-27 -151 -67 -249 -21 -52 -42 -110 -45 -128 -3 -18 -10 -33 -14 -33 -15 0
-17 -35 -4 -66 9 -21 23 -34 41 -39 15 -3 35 -12 43 -20 8 -7 38 -16 65 -20
28 -3 65 -15 83 -26 18 -10 40 -19 49 -19 27 0 87 -24 100 -40 15 -19 17 -181
3 -305 -6 -49 -13 -117 -15 -150 -15 -185 -30 -256 -70 -330 -54 -98 -73 -432
-46 -783 12 -150 12 -193 2 -235 -7 -29 -16 -95 -21 -147 -9 -105 -14 -123
-41 -177 -11 -21 -19 -56 -19 -80 0 -24 -9 -66 -19 -94 -20 -51 -20 -51 1 -79
19 -26 28 -29 102 -35 44 -4 110 -5 146 -3 63 3 66 4 82 38 10 19 14 37 10 40
-13 9 -35 74 -39 117 -4 33 -2 43 9 43 8 0 23 18 33 41 18 38 18 43 2 87 -19
52 -23 112 -7 112 15 0 13 123 -2 138 -9 9 -10 15 -2 20 6 4 14 30 18 57 4 28
21 105 37 173 16 68 29 134 29 147 0 13 4 26 9 29 9 6 12 22 31 156 5 36 18
128 29 205 12 77 24 162 27 188 4 26 11 50 15 53 5 3 9 13 9 23 0 18 28 82 40
91 4 3 15 29 25 57 11 29 25 53 32 53 9 0 13 18 13 65 0 51 3 65 15 65 8 0 17
10 19 23 8 40 19 180 20 257 l1 75 47 3 c91 6 88 14 88 -254 0 -193 3 -238 15
-250 8 -8 17 -31 21 -52 4 -20 10 -39 14 -42 13 -10 42 -106 62 -210 12 -58
24 -107 28 -110 7 -6 30 -153 41 -270 4 -47 15 -116 23 -155 33 -145 47 -232
48 -305 3 -124 -31 -323 -60 -352 -6 -6 -12 -18 -12 -25 0 -7 -7 -13 -15 -13
-8 0 -15 -9 -15 -21 0 -11 -5 -29 -10 -40 -8 -14 -7 -19 2 -19 7 0 5 -5 -5
-11 -10 -6 -25 -8 -33 -5 -21 8 -68 -67 -60 -98 9 -36 52 -46 193 -46 223 0
319 57 233 138 -36 35 -39 70 -10 136 10 25 15 46 10 46 -5 0 -5 14 1 32 5 18
9 54 9 80 0 27 5 48 10 48 17 0 11 31 -9 48 -17 16 -18 25 -10 102 5 47 17
130 26 185 33 199 27 719 -8 761 -13 16 -50 149 -56 199 -18 175 -8 439 18
472 8 9 23 11 44 7 25 -4 37 -1 51 14 16 17 37 21 124 27 58 4 120 11 138 17
32 9 32 10 32 71 0 52 4 64 24 82 l24 20 -14 170 c-7 94 -13 216 -13 272 -1
112 -3 107 73 186 39 41 86 131 91 176 1 14 10 30 19 36 9 7 16 23 16 37 0 13
4 28 9 33 21 21 42 765 22 765 -5 0 -12 26 -15 58 -2 31 -8 82 -11 112 -5 42
-3 57 9 65 10 8 12 16 5 26 -7 11 -9 11 -9 -3 0 -10 -4 -18 -10 -18 -5 0 -10
18 -10 40 0 22 -4 40 -10 40 -5 0 -10 18 -10 40 0 22 -4 40 -10 40 -6 0 -10
33 -10 79 0 47 -4 81 -11 83 -6 2 -14 90 -20 233 -5 127 -14 240 -19 253 -6
13 -10 34 -10 47 0 14 -4 25 -9 25 -5 0 -13 25 -16 55 -4 30 -11 58 -16 61 -5
3 -9 10 -9 15 0 6 5 7 10 4 21 -13 8 33 -20 71 -16 21 -30 45 -30 52 0 18 -31
63 -40 57 -4 -2 -5 7 -2 20 2 15 0 25 -7 25 -6 0 -11 7 -11 15 0 9 -7 18 -15
21 -8 3 -17 14 -20 24 -3 10 -16 20 -28 22 -15 2 -32 21 -54 63 -18 33 -33 67
-33 75 0 8 -18 53 -40 100 -22 47 -40 95 -40 106 0 12 -6 44 -14 70 -8 27 -19
78 -26 114 -6 36 -16 67 -21 68 -5 2 -9 13 -9 25 0 30 -53 137 -67 137 -7 0
-13 9 -13 20 0 12 -11 31 -25 44 -14 13 -25 27 -25 31 0 7 -27 38 -82 95 -16
16 -28 32 -28 37 0 15 -63 58 -104 70 -44 14 -118 15 -206 3z m388 -350 c25
-50 36 -175 16 -188 -6 -4 -13 -12 -15 -19 -3 -8 -11 -6 -26 7 -17 14 -23 29
-24 66 -1 27 3 60 8 74 8 18 4 38 -14 84 -12 33 -23 65 -23 70 0 19 54 -47 78
-94z m460 -805 c-11 -12 -38 8 -38 28 l0 21 22 -21 c12 -13 19 -25 16 -28z
m-68 -1003 c0 -42 32 -189 58 -267 13 -37 45 -207 72 -375 27 -171 45 -255 69
-324 33 -93 25 -216 -14 -216 -9 0 -26 -11 -39 -25 -13 -14 -26 -25 -29 -25
-12 0 -26 73 -42 215 -9 83 -25 193 -36 245 -36 171 -41 214 -36 282 4 49 1
83 -14 130 -11 37 -19 93 -19 136 0 40 -6 81 -12 92 -11 17 -10 22 1 29 10 7
12 21 7 54 -8 54 1 97 20 97 10 0 14 -14 14 -48z"/>
<path d="M4870 3988 c-16 -7 -20 -12 -12 -15 8 -3 21 2 30 11 19 18 17 19 -18
4z"/>
</g>
</svg>
