<?xml version="1.0" standalone="no"?>
<!DOCTYPE svg PUBLIC "-//W3C//DTD SVG 20010904//EN"
 "http://www.w3.org/TR/2001/REC-SVG-20010904/DTD/svg10.dtd">
<svg version="1.0" xmlns="http://www.w3.org/2000/svg"
 width="1280.000000pt" height="720.000000pt" viewBox="0 0 1280.000000 720.000000"
 preserveAspectRatio="xMidYMid meet">
<metadata>
Created by potrace 1.16, written by Peter Selinger 2001-2019
</metadata>
<g transform="translate(0.000000,720.000000) scale(0.100000,-0.100000)"
fill="#000000" stroke="none">
<path d="M6338 7090 c-32 -4 -71 -13 -87 -20 -35 -14 -63 -67 -63 -117 0 -20
-6 -37 -14 -40 -8 -3 -14 -11 -14 -19 0 -8 -4 -14 -10 -14 -5 0 -23 -27 -40
-61 -27 -54 -30 -71 -30 -153 0 -62 -6 -112 -20 -156 -11 -36 -20 -75 -20 -87
0 -13 -4 -23 -8 -23 -4 0 -13 -42 -20 -92 -7 -51 -17 -97 -22 -102 -6 -6 -10
-18 -10 -28 0 -10 -4 -18 -9 -18 -5 0 -12 -18 -16 -40 -4 -25 -12 -40 -21 -40
-8 0 -14 -10 -14 -24 0 -13 -6 -28 -12 -34 -7 -6 -22 -31 -33 -56 -14 -32 -26
-46 -40 -46 -23 0 -57 -51 -61 -90 -7 -63 -17 -87 -43 -103 -46 -27 -147 -132
-161 -168 -8 -19 -22 -43 -32 -53 -10 -11 -18 -30 -18 -42 0 -12 -5 -24 -10
-26 -6 -2 -16 -20 -23 -40 -8 -21 -25 -51 -40 -68 -15 -16 -27 -34 -27 -40 0
-5 -6 -10 -14 -10 -8 0 -18 -9 -21 -20 -3 -11 -11 -20 -16 -20 -5 0 -9 -9 -9
-20 0 -11 -6 -20 -13 -20 -11 0 -26 -19 -100 -127 -12 -18 -28 -32 -34 -33 -7
0 -13 -7 -13 -15 0 -8 -9 -15 -20 -15 -13 0 -21 -9 -25 -27 -4 -16 -10 -35
-16 -43 -63 -102 -81 -188 -56 -267 9 -26 21 -82 28 -123 11 -75 43 -197 59
-235 5 -11 15 -40 21 -65 7 -25 15 -49 19 -55 4 -5 17 -39 30 -75 13 -36 27
-69 32 -74 4 -6 8 -22 8 -37 0 -15 5 -31 10 -34 6 -3 10 -19 10 -35 0 -31 22
-87 52 -131 21 -32 78 -190 84 -233 3 -17 9 -62 16 -101 6 -38 14 -131 19
-205 4 -74 8 -139 9 -145 4 -17 -9 -178 -20 -251 -18 -127 -16 -141 36 -191
39 -39 49 -44 75 -39 17 3 28 2 25 -3 -3 -5 33 -12 80 -16 74 -6 87 -10 100
-31 9 -14 13 -31 9 -41 -3 -10 -6 -69 -6 -132 1 -71 -3 -119 -10 -127 -7 -8
-11 -53 -11 -111 0 -54 -3 -102 -8 -108 -4 -5 -13 -30 -20 -55 -7 -25 -21 -63
-31 -84 -10 -22 -19 -50 -19 -64 0 -13 -5 -32 -10 -42 -34 -64 -67 -383 -51
-503 6 -45 13 -152 17 -237 6 -137 4 -162 -13 -215 -11 -33 -21 -87 -22 -120
-1 -33 -6 -64 -12 -70 -5 -5 -9 -15 -9 -21 0 -7 -13 -28 -30 -46 -35 -38 -38
-77 -15 -176 21 -87 47 -134 92 -163 33 -22 47 -25 101 -21 62 4 63 4 83 45
12 23 29 49 40 57 17 14 19 37 23 280 4 227 8 285 30 405 14 77 35 169 46 205
12 36 30 110 41 165 11 55 27 134 35 175 9 41 19 105 23 142 4 37 12 73 19 80
7 7 12 28 12 48 0 21 14 62 34 100 19 36 37 81 41 100 4 19 16 41 26 48 11 7
19 22 19 32 0 10 8 26 17 35 14 14 17 42 20 164 2 80 6 170 9 198 l5 53 57 -6
c31 -3 71 -6 87 -7 l30 -2 3 -115 c1 -65 -2 -136 -9 -165 -7 -27 -13 -103 -14
-167 -1 -65 -7 -123 -12 -130 -6 -7 -21 -46 -33 -85 -13 -40 -26 -73 -30 -73
-4 0 -10 -15 -12 -32 -3 -18 -14 -60 -26 -93 -41 -121 -52 -161 -52 -190 0
-16 -9 -61 -19 -100 -10 -38 -24 -104 -32 -145 -7 -41 -16 -77 -20 -80 -3 -3
-9 -23 -12 -45 -14 -103 -47 -253 -61 -280 -9 -17 -16 -40 -16 -52 0 -13 -6
-23 -13 -23 -24 0 -50 -103 -44 -172 3 -34 10 -64 16 -66 6 -2 11 -9 11 -16 0
-7 14 -33 31 -59 48 -73 82 -84 289 -92 310 -13 372 -9 397 24 32 42 -10 110
-69 112 -121 4 -157 18 -182 71 -11 21 -26 38 -35 38 -20 1 -87 78 -102 117
-13 35 -19 123 -7 123 4 0 8 6 8 13 0 7 8 31 19 53 10 21 26 57 36 79 10 22
42 91 72 154 29 62 63 141 74 175 18 54 44 117 70 168 5 10 9 23 9 30 1 7 9
31 20 53 11 22 19 48 20 58 0 9 3 17 8 17 7 0 37 122 64 258 7 34 16 62 20 62
4 0 8 19 8 43 1 23 7 53 14 66 9 17 12 49 8 112 -5 86 -4 87 19 91 21 3 25 10
30 55 4 28 16 83 28 122 l22 71 48 0 c27 0 79 7 117 14 38 8 85 18 106 21 20
3 38 11 41 18 2 6 1 41 -4 77 -4 36 -15 144 -24 240 -9 96 -18 183 -21 194 -5
16 10 60 26 76 3 3 11 21 18 40 8 19 22 57 33 85 23 59 25 115 5 115 -20 0
-28 107 -14 218 6 54 15 99 18 102 4 3 10 70 14 150 3 80 10 183 15 230 23
214 24 240 11 317 -8 43 -14 105 -14 138 -1 33 -4 62 -8 66 -7 4 -23 419 -31
784 -2 106 -6 147 -19 170 -9 17 -24 47 -35 68 -32 67 -38 77 -47 77 -5 0 -25
17 -45 38 -34 35 -35 37 -13 40 25 4 26 10 12 46 -5 14 -14 62 -19 106 -7 52
-18 92 -31 110 -11 15 -20 33 -20 39 0 5 -6 14 -13 18 -8 4 -22 31 -32 58 -10
28 -22 54 -27 60 -4 5 -8 17 -8 27 0 10 -4 18 -8 18 -9 0 -37 76 -47 128 -4
17 -11 32 -16 32 -5 0 -9 15 -9 33 0 32 -39 143 -79 224 -12 23 -21 47 -21 53
0 5 -5 10 -10 10 -6 0 -15 11 -20 25 -5 14 -14 25 -20 25 -5 0 -10 6 -10 14 0
8 -4 16 -8 18 -4 2 -21 20 -36 41 -16 20 -32 37 -36 37 -4 0 -35 27 -69 59
-50 48 -71 62 -112 70 -27 6 -53 10 -57 10 -4 -1 -33 -5 -64 -9z m317 -396
c17 -41 20 -134 5 -134 -6 0 -14 -10 -18 -21 -8 -20 -9 -20 -25 -4 -20 19 -23
86 -5 118 6 12 11 34 10 50 -3 38 15 34 33 -9z m-835 -1434 c0 -5 7 -10 15
-10 26 0 35 -37 35 -142 -1 -217 -17 -389 -50 -522 -28 -114 -109 -336 -159
-434 -10 -20 -24 -63 -31 -94 -7 -32 -17 -58 -22 -58 -4 0 -8 -18 -8 -40 0
-45 -7 -48 -72 -28 -22 6 -43 19 -46 27 -3 9 -14 28 -24 43 -10 14 -18 39 -18
55 0 15 -11 84 -25 153 -13 69 -25 148 -25 175 0 76 -23 255 -32 255 -4 0 -8
17 -8 38 0 37 1 38 33 34 31 -3 33 -2 44 40 6 24 23 59 37 78 14 19 37 58 52
85 15 28 29 52 33 55 15 13 129 139 156 174 17 21 42 50 56 63 18 16 25 31 22
44 -4 14 0 19 16 19 11 0 21 -4 21 -10z m1191 -501 c4 -19 12 -107 19 -197 6
-90 18 -181 26 -204 8 -22 14 -72 14 -111 0 -39 9 -105 19 -146 27 -107 51
-299 41 -325 -5 -11 -9 -15 -9 -8 -1 7 -8 20 -16 28 -8 9 -15 25 -15 37 -1 58
-22 215 -35 261 -8 29 -17 90 -18 137 -2 50 -10 98 -20 119 -10 22 -18 78 -22
155 -4 66 -10 155 -16 199 -5 43 -6 83 -3 88 11 17 29 1 35 -33z"/>
</g>
</svg>
