<?xml version="1.0" standalone="no"?>
<!DOCTYPE svg PUBLIC "-//W3C//DTD SVG 20010904//EN"
 "http://www.w3.org/TR/2001/REC-SVG-20010904/DTD/svg10.dtd">
<svg version="1.0" xmlns="http://www.w3.org/2000/svg"
 width="1280.000000pt" height="720.000000pt" viewBox="0 0 1280.000000 720.000000"
 preserveAspectRatio="xMidYMid meet">
<metadata>
Created by potrace 1.16, written by Peter Selinger 2001-2019
</metadata>
<g transform="translate(0.000000,720.000000) scale(0.100000,-0.100000)"
fill="#000000" stroke="none">
<path d="M6153 7173 c-6 -16 -14 -41 -20 -58 -6 -22 -15 -30 -31 -29 -14 0
-22 -5 -22 -15 0 -20 -31 -102 -45 -118 -5 -7 -16 -19 -22 -27 -7 -8 -13 -26
-13 -39 0 -14 -7 -30 -15 -37 -8 -7 -15 -19 -15 -27 0 -7 -6 -24 -14 -36 -27
-41 -95 -241 -108 -314 -6 -40 -15 -73 -19 -73 -5 0 -11 -17 -15 -37 -3 -21
-16 -51 -28 -68 -12 -16 -32 -52 -46 -80 -13 -27 -32 -59 -42 -69 -10 -11 -18
-30 -18 -43 0 -13 -6 -23 -12 -24 -20 -1 -80 -89 -95 -138 -13 -43 -47 -107
-68 -126 -23 -21 -65 -95 -65 -115 0 -13 -7 -20 -20 -20 -11 0 -20 -4 -20 -10
0 -13 -85 -70 -104 -70 -9 0 -16 -4 -16 -10 0 -5 -33 -25 -72 -45 -40 -20 -78
-42 -83 -49 -6 -7 -25 -17 -43 -20 -17 -4 -35 -13 -39 -20 -5 -7 -25 -20 -45
-30 -21 -9 -38 -21 -38 -26 0 -6 -8 -10 -17 -10 -10 0 -30 -6 -45 -14 -15 -8
-61 -17 -102 -21 -42 -4 -76 -11 -76 -15 0 -5 -19 -11 -42 -15 -63 -10 -118
-27 -118 -37 0 -4 -28 -8 -62 -8 -38 -1 -70 -6 -81 -15 -11 -7 -54 -22 -98
-31 -43 -10 -79 -22 -79 -26 0 -4 -18 -8 -40 -8 -22 0 -40 -4 -40 -8 0 -7
-177 -32 -233 -32 -15 0 -36 9 -47 20 -11 11 -25 20 -30 20 -5 0 -10 5 -10 10
0 6 -6 10 -14 10 -7 0 -19 7 -26 15 -7 9 -32 25 -56 35 -23 11 -48 25 -56 32
-28 28 -72 38 -158 38 l-90 0 0 -30 c0 -23 -4 -30 -20 -30 -25 0 -27 -28 -2
-37 9 -4 24 -15 33 -25 9 -10 28 -18 43 -18 14 0 26 -4 26 -8 0 -4 21 -16 48
-26 26 -9 57 -30 70 -46 l23 -29 -27 -7 c-16 -4 -162 -4 -326 -1 l-298 7 0
-185 0 -185 193 0 c105 0 248 5 317 10 69 5 277 12 463 16 298 6 337 5 337 -8
0 -11 17 -17 66 -22 67 -7 134 0 134 14 0 11 38 20 42 9 4 -11 150 -17 553
-22 238 -3 274 -3 140 3 -99 4 -206 8 -237 9 -39 1 -58 5 -58 14 0 10 60 12
283 10 250 -3 552 -21 505 -31 -22 -4 -23 -16 -3 -32 16 -13 21 -50 6 -50 -5
0 -11 -19 -15 -42 -7 -42 -27 -112 -45 -153 -5 -11 -16 -40 -26 -65 -10 -25
-25 -61 -35 -80 -27 -54 -58 -158 -70 -235 -6 -38 -16 -75 -21 -82 -6 -7 -8
-16 -5 -22 3 -5 4 -15 1 -23 -5 -13 -85 -14 -422 -5 -73 2 -138 0 -145 -4 -7
-5 -16 -3 -20 4 -6 9 -12 9 -26 0 -14 -8 -23 -8 -30 -1 -8 8 -19 7 -39 -1
l-29 -12 -1 -110 c-1 -61 -7 -124 -13 -140 -9 -20 -9 -37 -2 -61 6 -18 9 -103
7 -190 -2 -129 0 -158 11 -158 8 0 14 9 14 21 0 12 8 23 20 26 11 3 20 9 20
14 0 5 9 9 20 9 14 0 20 7 20 21 0 16 4 19 18 14 9 -4 27 -7 40 -6 18 1 22 -4
22 -29 0 -17 5 -30 10 -30 18 0 11 -22 -9 -27 -10 -2 -24 -16 -30 -29 -6 -13
-17 -24 -26 -24 -8 0 -16 -4 -16 -10 -1 -5 -2 -14 -3 -19 -2 -19 -16 -24 -31
-11 -11 9 -18 10 -28 1 -16 -13 -27 -5 -27 21 0 10 -7 18 -15 18 -9 0 -15 -9
-15 -22 0 -13 -3 -34 -7 -47 -6 -24 -5 -24 45 -18 31 4 52 2 52 -4 0 -5 11 -2
25 7 13 8 28 13 34 10 5 -3 97 -6 205 -7 l196 -1 0 -26 0 -25 -287 6 c-175 4
-290 10 -297 17 -11 11 -11 107 0 600 4 162 4 292 0 289 -3 -3 -10 -167 -16
-365 -13 -472 -18 -546 -32 -555 -7 -4 -396 -5 -865 -2 l-853 6 0 -21 c0 -21
5 -22 138 -25 l137 -3 -137 -2 c-129 -2 -138 -3 -138 -22 0 -16 8 -19 58 -22
54 -3 57 -4 60 -30 3 -28 3 -28 -57 -28 -54 0 -61 -2 -61 -20 0 -18 7 -20 55
-20 l55 0 0 -95 0 -95 -32 0 c-71 0 -78 -7 -78 -71 0 -48 3 -57 15 -53 8 4 15
1 15 -5 0 -6 -7 -11 -15 -11 -11 0 -15 -11 -15 -40 0 -35 3 -40 24 -40 22 0
24 -5 31 -77 4 -49 3 -79 -3 -81 -5 -1 -8 -12 -5 -22 3 -11 0 -20 -6 -20 -6 0
-11 5 -11 11 0 8 -5 8 -15 -1 -11 -9 -15 -32 -15 -81 0 -61 2 -69 19 -69 18 0
68 -48 89 -86 8 -15 13 -16 25 -6 8 7 18 23 21 36 6 23 36 45 36 26 0 -6 18
-10 40 -10 22 0 40 -4 40 -10 0 -26 32 -5 46 30 16 40 34 53 34 25 0 -11 11
-15 38 -15 30 0 42 -6 62 -31 49 -61 55 -65 59 -43 2 10 7 24 11 29 4 6 11 25
15 42 7 37 21 42 41 16 13 -17 15 -17 28 0 20 25 34 21 41 -14 4 -17 12 -41
19 -54 12 -23 13 -23 28 -6 9 11 22 35 29 55 12 33 16 36 54 36 22 0 49 3 60
6 17 4 22 -2 34 -40 7 -24 19 -53 27 -63 12 -17 13 -16 14 10 0 18 11 40 31
60 28 28 40 32 98 35 l66 4 14 -46 c7 -25 17 -46 22 -46 5 0 9 4 9 9 0 12 59
71 70 71 5 0 11 -6 13 -12 4 -10 6 -10 6 0 1 6 7 12 15 12 8 0 17 -17 21 -42
l8 -43 14 50 15 50 239 0 c131 0 239 -3 239 -6 0 -4 29 -4 64 -2 88 8 112 0
125 -39 l12 -33 19 25 c11 14 20 33 20 43 0 20 1 20 59 6 26 -6 52 -20 63 -34
26 -33 38 -31 38 4 0 28 1 29 76 36 73 7 76 6 101 -21 22 -24 26 -26 35 -11
16 29 28 19 28 -23 0 -33 -3 -40 -19 -40 -11 0 -22 -8 -25 -17 -14 -46 -36
-268 -36 -360 0 -62 -4 -103 -10 -103 -6 0 -10 -116 -10 -327 0 -276 -2 -336
-16 -378 -32 -99 -29 -95 -79 -95 -25 0 -45 -4 -45 -8 0 -5 -17 -14 -39 -20
-24 -8 -41 -20 -44 -32 -3 -11 -13 -20 -22 -20 -19 0 -54 -38 -55 -58 0 -13
12 -30 42 -60 33 -34 44 -39 96 -45 29 -3 57 -9 63 -12 16 -10 -8 -33 -42 -40
-16 -4 -31 -11 -34 -16 -4 -5 -15 -9 -26 -9 -11 0 -19 -7 -19 -17 0 -10 -16
-27 -37 -38 -50 -27 -51 -39 -3 -55 22 -7 40 -19 40 -27 0 -8 12 -13 33 -13
64 0 77 -9 77 -50 l0 -39 -52 3 c-29 2 -36 1 -15 -1 28 -3 37 -9 37 -23 0 -15
12 -19 80 -25 44 -4 80 -11 80 -16 0 -5 18 -9 40 -9 36 0 40 -2 40 -25 0 -22
-4 -25 -40 -25 -33 0 -40 -3 -40 -20 0 -11 -7 -20 -15 -20 -11 0 -15 -11 -15
-40 l0 -40 135 0 135 0 0 40 0 40 40 0 c22 0 40 5 40 10 0 6 -18 10 -40 10
-29 0 -40 4 -40 15 0 11 -11 15 -40 15 -29 0 -40 4 -40 15 0 9 9 15 21 15 22
0 22 2 17 156 -4 109 -9 159 -18 164 -7 4 -9 13 -5 20 7 11 15 118 31 377 5
73 3 82 -13 86 -15 4 -15 5 3 6 30 1 40 18 49 75 3 27 10 58 15 70 4 11 20 75
35 141 15 66 33 140 41 165 7 25 16 74 20 110 4 36 11 75 15 87 5 13 16 80 24
150 20 163 34 233 46 233 5 0 9 14 9 31 0 17 8 53 17 79 14 39 23 50 50 58 20
6 167 10 376 9 l342 -2 12 -26 c9 -18 16 -114 22 -282 5 -141 11 -259 14 -264
3 -5 13 -53 21 -108 21 -127 50 -301 73 -430 13 -75 18 -166 19 -358 1 -142 5
-266 9 -275 4 -9 13 -62 20 -116 l14 -100 -34 -31 c-30 -29 -34 -39 -40 -108
l-7 -77 146 0 146 0 0 80 c0 79 0 80 -25 80 -22 0 -25 4 -25 40 l0 40 40 0 40
0 0 50 0 50 40 0 c38 0 40 2 40 30 0 29 1 30 48 30 49 0 106 13 132 30 13 9
13 11 0 20 -8 6 -33 15 -55 21 -22 6 -42 15 -45 19 -6 9 -79 38 -125 49 -20 4
-31 14 -33 27 -3 18 4 22 44 28 26 3 80 6 120 6 41 0 74 4 74 9 0 5 18 11 40
15 22 3 40 10 40 15 0 5 18 27 40 49 95 92 10 150 -173 118 -43 -8 -54 -6
-113 24 -36 18 -68 40 -71 49 -3 9 -13 24 -21 33 -9 11 -12 27 -8 44 4 14 3
31 -2 37 -6 7 -5 83 0 187 12 216 10 792 -2 840 -5 19 -10 62 -11 94 -3 53 0
60 19 67 18 7 22 16 22 51 0 35 -4 45 -22 53 -19 8 -24 21 -29 70 -13 114 -9
298 6 340 8 22 15 54 15 71 0 30 3 32 58 48 32 9 67 16 78 16 48 1 48 19 -1
240 -20 89 -55 330 -60 410 -3 36 -9 157 -15 270 -13 248 -55 604 -80 681 -18
52 -44 196 -57 318 -5 48 -4 54 11 48 9 -4 272 -7 584 -8 546 -2 1284 -11
1750 -23 l222 -5 0 38 0 39 -72 10 -73 9 73 2 c40 0 72 5 72 11 0 6 -123 10
-350 10 -227 0 -350 -4 -350 -10 0 -6 -33 -10 -80 -10 -47 0 -80 4 -80 10 0 6
-87 10 -240 10 -185 0 -240 -3 -240 -12 0 -10 -2 -10 -9 0 -4 8 -17 13 -27 12
-11 -1 -151 -2 -311 -1 -240 1 -293 3 -293 15 0 9 -20 15 -61 20 -93 9 -99 8
-99 -14 0 -19 -7 -20 -120 -20 -113 0 -120 1 -120 20 0 18 -7 20 -79 20 -75 0
-80 1 -84 23 -2 12 -5 3 -6 -20 0 -24 -6 -43 -12 -43 -21 0 8 466 32 512 5 10
9 23 9 30 0 7 14 24 30 38 17 14 39 33 50 43 22 19 18 21 84 -39 15 -13 31
-24 37 -24 6 0 24 -13 42 -30 18 -16 36 -30 40 -30 4 0 20 -11 35 -25 15 -14
31 -25 35 -25 5 0 23 -11 41 -25 18 -14 38 -25 44 -25 18 0 120 -51 133 -66 6
-8 20 -14 30 -14 11 0 19 -4 19 -8 0 -5 35 -26 78 -48 42 -21 79 -41 82 -44
15 -18 99 -39 203 -50 98 -11 117 -16 117 -30 0 -14 13 -18 61 -24 34 -3 86
-3 116 1 39 4 57 2 63 -6 5 -10 59 -13 204 -14 108 -1 196 -5 196 -9 0 -5 18
-8 40 -8 36 0 40 3 40 25 0 23 4 25 40 25 29 0 40 4 40 15 0 9 9 15 24 15 16
0 26 7 30 23 3 12 13 31 23 42 37 40 63 84 63 104 0 12 5 21 10 21 6 0 10 5
10 11 0 12 25 39 37 39 4 0 18 18 31 40 12 22 27 40 32 40 6 0 10 5 10 11 0 6
11 24 25 41 27 32 34 88 11 88 -7 0 -19 -7 -26 -15 -7 -8 -19 -15 -26 -15 -8
0 -14 -7 -14 -15 0 -8 -5 -15 -11 -15 -21 0 -69 -59 -110 -135 -10 -19 -32
-37 -149 -119 -54 -38 -56 -38 -125 -32 -38 3 -94 15 -123 26 -29 11 -66 20
-83 20 -17 0 -38 4 -48 10 -10 5 -54 19 -97 30 -43 12 -83 25 -88 31 -6 5 -25
9 -43 9 -33 0 -83 18 -83 30 0 4 -18 10 -40 14 -22 3 -40 10 -40 15 0 5 -18
12 -40 16 -22 4 -40 11 -40 16 0 5 -16 9 -35 9 -46 0 -205 40 -205 51 0 5 -9
9 -19 9 -10 0 -21 7 -25 15 -3 8 -10 15 -17 15 -6 0 -20 11 -31 25 -11 14 -30
25 -44 25 -13 0 -24 3 -24 8 0 4 -18 16 -40 26 -22 11 -40 25 -40 33 0 9 -13
13 -40 13 -29 0 -40 4 -40 15 0 8 -5 15 -10 15 -15 0 -64 51 -80 85 -8 17 -21
38 -30 47 -31 35 -40 47 -40 57 0 6 -18 28 -40 50 -22 22 -40 44 -40 50 0 6
-7 11 -15 11 -9 0 -18 7 -21 15 -4 8 -14 15 -23 15 -9 0 -27 9 -41 20 -14 11
-32 20 -40 20 -9 0 -6 6 9 14 21 12 22 14 8 22 -11 7 -20 34 -28 89 -6 44 -15
82 -20 83 -5 2 -9 10 -9 18 0 8 -4 14 -9 14 -5 0 -21 24 -36 53 -14 28 -39 75
-55 102 -17 28 -32 55 -34 60 -13 35 -36 121 -47 184 -8 40 -19 76 -26 78 -7
3 -13 16 -13 29 0 31 -31 109 -62 156 -10 14 -18 33 -18 42 0 9 -4 16 -8 16
-5 0 -17 18 -28 40 -10 22 -25 40 -31 40 -7 0 -13 7 -13 15 0 15 -34 72 -72
118 l-22 27 -192 0 -192 0 -9 -27z m491 -288 c27 -57 46 -133 46 -184 0 -45
-17 -117 -32 -137 -5 -6 -6 -18 -2 -27 3 -8 1 -18 -5 -22 -7 -4 -11 11 -11 44
0 29 -5 51 -12 53 -6 2 -13 32 -16 67 -4 52 -2 65 12 73 18 10 22 38 5 38 -5
0 -8 4 -4 9 3 5 -2 29 -10 53 -29 79 -30 80 -9 76 10 -2 27 -21 38 -43z m-906
-1418 c22 -26 45 -106 55 -192 14 -121 13 -295 -2 -323 -7 -13 -16 -42 -21
-65 -9 -38 -9 -36 -4 17 l5 59 -113 -5 c-62 -3 -137 -3 -165 -1 l-53 6 0 38 0
39 -215 0 c-137 0 -215 4 -215 10 0 6 7 10 15 10 8 0 15 8 15 18 0 19 42 42
76 42 12 0 27 7 34 15 13 16 115 65 135 65 6 0 20 9 30 20 10 11 24 20 32 20
7 0 13 3 13 8 0 8 49 32 67 32 7 0 13 6 13 14 0 8 11 17 25 20 14 4 33 14 43
24 10 9 35 26 55 37 21 11 48 29 60 40 22 21 88 64 98 65 4 0 11 -6 17 -13z
m3542 -607 c0 -5 -18 -10 -40 -10 -22 0 -40 5 -40 10 0 6 18 10 40 10 22 0 40
-4 40 -10z m-2237 -44 c4 -10 0 -12 -14 -9 -27 7 -34 23 -11 23 11 0 22 -6 25
-14z m-2351 -14 c19 -19 -24 -35 -85 -33 -46 1 -65 6 -75 19 -11 15 -10 18 10
24 28 9 139 1 150 -10z m-212 -72 c0 -5 -18 -10 -40 -10 -22 0 -40 5 -40 10 0
6 18 10 40 10 22 0 40 -4 40 -10z m649 -938 c0 -11 -3 -12 -6 -4 -2 6 -12 12
-21 12 -14 0 -15 2 -2 9 18 12 30 5 29 -17z m31 8 c0 -5 -2 -10 -4 -10 -3 0
-8 5 -11 10 -3 6 -1 10 4 10 6 0 11 -4 11 -10z m-26 -62 c6 -25 4 -28 -19 -26
-14 1 -25 8 -25 15 0 7 7 10 15 7 11 -4 15 0 15 17 0 28 5 23 14 -13z m101 -8
c3 -6 -1 -13 -10 -16 -19 -8 -30 0 -20 15 8 14 22 14 30 1z m-275 -10 c0 -5
-9 -10 -19 -10 -11 0 -23 5 -26 10 -4 6 5 10 19 10 14 0 26 -4 26 -10z m90 0
c0 -12 -8 -12 -35 0 -18 8 -17 9 8 9 15 1 27 -3 27 -9z m390 0 c0 -5 -10 -10
-22 -10 -19 0 -20 2 -8 10 19 13 30 13 30 0z m-81 -47 c0 -11 -3 -13 -6 -5 -2
6 -17 12 -33 12 -16 0 -31 -6 -33 -12 -3 -8 -6 -6 -6 5 -1 13 7 17 39 17 32 0
40 -4 39 -17z m97 -69 c-6 -17 -62 -19 -72 -2 -5 8 -2 9 9 5 13 -5 17 -1 17
14 0 21 1 20 20 -2 l19 -24 2 45 c2 39 3 40 6 12 3 -19 2 -40 -1 -48z m-218
24 c18 -18 14 -35 -8 -33 -26 2 -34 11 -27 30 8 18 19 19 35 3z m-188 -24 c0
-2 -9 -4 -21 -4 -11 0 -18 4 -14 10 5 8 35 3 35 -6z m80 6 c0 -5 -10 -10 -22
-10 -19 0 -20 2 -8 10 19 13 30 13 30 0z m211 -2 c18 11 20 11 17 0 -3 -7 -21
-14 -41 -16 -28 -2 -37 1 -37 12 0 14 3 14 20 4 16 -10 24 -10 41 0z m83 -69
c-3 -6 0 -15 7 -20 12 -8 12 -11 -1 -19 -24 -16 -30 -12 -30 20 0 21 5 30 16
30 8 0 12 -5 8 -11z m-337 -21 c-3 -8 -6 -5 -6 6 -1 11 2 17 5 13 3 -3 4 -12
1 -19z m146 0 c14 -22 1 -48 -23 -48 -13 0 -20 7 -20 19 0 48 22 63 43 29z
m-298 -38 c-3 -5 -10 -10 -16 -10 -5 0 -9 5 -9 10 0 6 7 10 16 10 8 0 12 -4 9
-10z m120 0 c-3 -5 -12 -10 -20 -10 -8 0 -17 5 -20 10 -4 6 5 10 20 10 15 0
24 -4 20 -10z m90 0 c-3 -5 -15 -10 -25 -10 -10 0 -22 5 -25 10 -4 6 7 10 25
10 18 0 29 -4 25 -10z m185 0 c0 -5 -7 -10 -15 -10 -8 0 -15 5 -15 10 0 6 7
10 15 10 8 0 15 -4 15 -10z m7 -175 c-1 -30 -6 -55 -12 -55 -23 1 -40 28 -42
68 -2 40 -1 42 27 42 29 0 29 0 27 -55z m20 3 c-3 -7 -5 -2 -5 12 0 14 2 19 5
13 2 -7 2 -19 0 -25z m-147 -20 c0 -5 -4 -8 -10 -8 -5 0 -10 10 -10 23 0 18 2
19 10 7 5 -8 10 -18 10 -22z m170 -28 c0 -5 -4 -10 -10 -10 -5 0 -10 5 -10 10
0 6 5 10 10 10 6 0 10 -4 10 -10z m-1702 -235 c8 -8 -311 -5 -330 3 -10 4 60
6 154 4 94 -1 174 -4 176 -7z m218 3 c3 -4 -33 -8 -80 -8 -52 0 -86 4 -86 10
0 13 158 11 166 -2z m-616 -73 c0 -25 -2 -26 -51 -24 -52 3 -65 10 -55 34 4
11 21 15 56 15 47 0 50 -2 50 -25z m240 11 c0 -22 -19 -30 -85 -34 -78 -4
-105 3 -105 28 0 19 7 20 95 20 76 0 95 -3 95 -14z m377 -9 c-6 -18 -147 -25
-164 -9 -23 23 -8 27 82 24 60 -3 85 -7 82 -15z m1103 -16 c0 -34 -9 -44 -27
-30 -9 8 -13 8 -13 1 0 -11 -140 -19 -427 -24 l-153 -3 0 -42 0 -43 69 0 c119
0 191 11 192 29 0 11 3 8 9 -6 11 -27 30 -30 31 -5 1 13 2 14 5 2 9 -31 42
-39 173 -41 l131 -2 0 -79 c0 -43 -3 -78 -7 -78 -5 0 -6 25 -5 55 3 35 0 55
-7 55 -6 0 -11 -19 -11 -44 l0 -44 -232 -7 c-232 -7 -347 -6 -380 2 -15 4 -18
16 -18 84 0 72 2 79 20 79 17 0 20 7 20 39 0 30 -4 40 -20 44 -15 4 -20 14
-20 41 0 20 6 38 14 43 8 4 159 7 335 5 l321 -3 0 -28z m-1320 14 c0 -11 -12
-15 -42 -16 -70 -2 -85 2 -73 20 3 6 31 11 61 11 41 0 54 -4 54 -15z m458 3
c-3 -9 -33 -13 -103 -13 -70 0 -100 4 -102 13 -4 9 21 12 102 12 81 0 106 -3
103 -12z m162 -33 c0 -38 -3 -45 -20 -45 -16 0 -20 7 -20 30 0 17 -3 29 -7 29
-29 -5 -62 3 -67 16 -4 12 5 15 54 15 l60 0 0 -45z m868 10 l3 -30 -66 3 c-65
4 -65 4 -65 33 l0 30 63 -3 c61 -3 62 -4 65 -33z m158 19 c-3 -9 -6 -21 -6
-27 0 -7 -7 -21 -16 -32 -13 -17 -16 -18 -24 -5 -5 8 -10 10 -10 4 0 -6 -11
-11 -24 -11 -19 0 -26 6 -31 29 -10 42 9 58 67 58 42 0 49 -3 44 -16z m-1188
-186 c-2 -37 -9 -73 -15 -79 -20 -20 -171 -9 -185 13 -10 16 -10 129 0 143 4
6 45 11 92 12 60 0 85 4 89 14 9 29 22 -40 19 -103z m-858 2 l0 -78 -55 -4
-55 -3 0 81 c0 44 2 83 4 85 2 2 27 2 55 1 l51 -4 0 -78z m226 24 c9 -48 -3
-107 -21 -100 -8 3 -16 0 -19 -7 -4 -8 -8 -8 -11 -2 -3 7 -28 9 -66 5 -33 -3
-62 -4 -64 -1 -8 7 -5 135 3 148 11 17 112 21 144 5 19 -9 29 -24 34 -48z
m759 52 c16 -11 20 -30 23 -110 4 -91 3 -96 -16 -96 -14 0 -22 8 -24 22 -5 34
-50 32 -59 -2 -4 -14 -7 22 -8 82 -1 103 0 107 22 111 39 8 43 7 62 -7z m1918
-33 c4 -21 4 -77 0 -125 l-6 -88 -113 0 c-62 0 -115 3 -117 8 -8 14 15 167 30
199 13 28 20 32 51 32 21 0 60 4 87 8 28 5 53 8 56 6 4 -1 9 -19 12 -40z
m-2540 28 l37 -1 0 -74 0 -74 -57 -5 c-32 -2 -59 -3 -61 -2 -7 7 -14 115 -9
137 5 18 13 24 29 22 13 -1 40 -3 61 -3z m236 -5 c12 -8 16 -132 3 -140 -4 -2
-41 -6 -82 -7 l-75 -2 -3 58 c-5 98 -4 100 76 99 38 -1 74 -4 81 -8z m2387 -6
l25 0 -3 -107 c-3 -93 -5 -108 -20 -108 -9 0 -20 -4 -24 -8 -19 -19 -24 2 -24
111 0 105 7 155 18 123 2 -6 15 -11 28 -11z m-905 -12 c1 -22 1 -22 8 2 11 39
18 12 20 -76 2 -93 -5 -130 -25 -138 -21 -8 -164 5 -164 15 0 5 37 10 83 11
l82 2 -78 3 -77 4 1 62 c3 86 9 95 61 91 58 -5 77 2 71 26 -3 11 0 20 6 20 6
0 11 -10 12 -22z m105 -3 c-4 -11 1 -15 19 -15 18 0 25 -5 25 -19 0 -10 3 -46
6 -80 l7 -61 -44 -2 -44 -1 43 -4 c29 -3 42 -9 42 -19 0 -12 -10 -14 -42 -12
l-43 3 -3 80 c-4 100 4 145 25 145 9 0 13 -6 9 -15z m1055 -9 c11 -5 18 -26
22 -64 4 -31 8 -66 9 -77 3 -16 -4 -21 -34 -23 -24 -2 -38 -8 -38 -17 0 -14
-81 -24 -122 -15 -22 6 -23 11 -26 105 -1 54 1 101 7 104 12 8 161 -3 182 -13z
m-1375 -36 c8 0 14 -9 14 -20 0 -13 -5 -18 -15 -14 -8 4 -15 1 -15 -5 0 -6
-19 -11 -45 -11 -57 0 -59 19 -2 22 l42 1 -42 4 c-28 3 -43 9 -43 18 0 15 82
26 88 13 2 -5 10 -8 18 -8z m11 -112 c-2 -13 -4 -3 -4 22 0 25 2 35 4 23 2
-13 2 -33 0 -45z m-7 -38 c0 -13 -16 -15 -65 -12 -57 5 -58 20 -2 24 47 3 67
0 67 -12z m-190 1 c0 -5 -10 -11 -22 -15 -33 -8 -543 -7 -534 1 4 4 114 10
244 13 130 4 254 7 275 8 20 1 37 -2 37 -7z m1608 -96 c6 -35 12 -96 12 -135
0 -38 4 -70 10 -70 5 0 7 -7 4 -15 -4 -8 -18 -15 -33 -15 -15 0 -32 -5 -38
-11 -14 -14 -131 -24 -168 -15 -14 4 -23 11 -19 17 3 6 12 8 20 5 7 -3 16 -1
20 5 10 16 -5 59 -21 59 -21 0 -26 32 -23 130 4 111 22 111 26 0 4 -118 17
-120 17 -2 0 59 4 97 10 96 110 -14 144 -14 139 1 -4 10 0 15 13 15 15 0 21
-12 31 -65z m-283 -106 l0 -144 -30 0 -30 0 -3 139 c-3 145 0 154 41 151 22
-2 22 -4 22 -146z m-107 -24 l-3 -116 -70 -4 c-38 -3 -89 -2 -112 1 l-43 6 0
107 c0 58 4 111 8 117 11 16 123 18 133 2 5 -7 9 -55 9 -105 l0 -93 28 0 27 0
-3 91 c-2 51 -1 103 3 118 14 55 26 -9 23 -124z m-2050 65 c1 -30 -1 -82 -5
-115 l-8 -60 -59 0 -59 0 -3 85 c-1 47 0 100 3 118 l6 34 61 -4 61 -4 3 -54z
m1989 28 c-3 -7 -5 -2 -5 12 0 14 2 19 5 13 2 -7 2 -19 0 -25z m-2277 11 c0
-8 4 -9 13 0 21 17 27 3 27 -63 0 -50 -4 -63 -20 -74 -14 -8 -20 -23 -20 -47
0 -34 -1 -35 -39 -35 -35 0 -39 3 -45 31 -8 40 -8 147 0 177 5 18 13 22 45 22
22 0 39 -5 39 -11z m426 -19 c11 0 14 -17 14 -77 0 -85 -11 -116 -32 -95 -9 9
-9 12 4 12 11 0 15 6 11 21 -4 16 -8 17 -14 7 -5 -7 -8 24 -8 77 1 50 3 82 6
73 2 -10 11 -18 19 -18z m411 -67 c-6 -52 -15 -93 -21 -94 -16 -1 26 -17 47
-18 15 -1 17 9 17 79 l0 80 44 0 c49 0 101 -16 128 -39 22 -19 26 -111 6 -111
-23 0 16 -20 40 -20 18 0 22 5 22 34 0 62 13 156 21 156 5 0 9 -42 9 -94 0
-88 -1 -94 -22 -101 -37 -11 -260 -16 -460 -9 l-188 7 0 95 0 94 40 -4 c22 -2
41 1 43 7 2 5 7 -26 12 -70 5 -55 4 -80 -4 -83 -6 -2 -11 -10 -11 -18 0 -10
12 -14 40 -14 l40 0 0 95 0 95 94 0 c78 0 95 3 100 16 13 33 14 7 3 -83z
m-1092 77 c3 -5 15 -6 28 -1 14 6 30 5 41 -1 16 -9 17 -19 11 -87 -4 -42 -8
-85 -9 -95 -1 -17 -9 -20 -53 -22 l-53 -2 0 103 c0 56 3 105 7 108 9 10 21 9
28 -3z m1781 -5 c12 -11 13 -33 8 -110 l-7 -95 -83 0 -84 0 0 100 0 100 40 0
c34 0 40 -3 40 -21 0 -18 2 -19 15 -9 8 7 15 18 15 25 0 8 8 16 18 18 9 3 18
5 20 6 2 0 10 -6 18 -14z m144 5 c8 -5 10 -10 4 -10 -7 0 -14 -30 -18 -71 -8
-80 -29 -128 -56 -129 -11 0 2 205 13 212 16 10 39 10 57 -2z m-2102 -16 c18
-5 15 -31 -5 -38 -37 -14 -100 24 -77 47 6 5 51 1 82 -9z m549 -56 c-2 -13 -4
-3 -4 22 0 25 2 35 4 23 2 -13 2 -33 0 -45z m493 22 c0 -22 -4 -40 -10 -40 -5
0 -10 18 -10 40 0 22 5 40 10 40 6 0 10 -18 10 -40z m680 0 c0 -22 5 -40 10
-40 6 0 10 -27 10 -60 l0 -60 -55 0 c-30 0 -55 3 -56 8 0 4 -2 16 -5 27 -2 11
-1 53 2 93 l6 72 44 0 44 0 0 -40z m-1723 -97 l1 -73 -31 5 c-18 2 -38 4 -44
4 -17 1 -17 83 -1 99 10 10 10 15 -1 22 -11 6 -7 9 15 13 58 9 59 7 61 -70z
m820 35 c-3 -8 -6 -5 -6 6 -1 11 2 17 5 13 3 -3 4 -12 1 -19z m-347 -67 c0 -6
-4 -13 -10 -16 -5 -3 -10 1 -10 9 0 9 5 16 10 16 6 0 10 -4 10 -9z"/>
<path d="M4738 2743 c12 -2 32 -2 45 0 12 2 2 4 -23 4 -25 0 -35 -2 -22 -4z"/>
<path d="M4898 2743 c12 -2 32 -2 45 0 12 2 2 4 -23 4 -25 0 -35 -2 -22 -4z"/>
<path d="M3600 2358 c-3 -26 -1 -43 3 -39 5 5 7 26 5 47 l-3 39 -5 -47z"/>
<path d="M3363 2360 c0 -25 2 -35 4 -22 2 12 2 32 0 45 -2 12 -4 2 -4 -23z"/>
<path d="M3011 6963 c-1 -47 3 -75 12 -80 6 -4 18 -20 26 -35 8 -16 38 -53 68
-84 29 -31 53 -61 53 -66 0 -5 -19 -8 -42 -6 -41 3 -43 2 -41 -23 l1 -27 -24
25 c-28 28 -31 43 -8 43 9 0 14 7 12 17 -4 22 -28 29 -28 9 0 -9 -7 -16 -15
-16 -23 0 -21 -132 2 -151 9 -8 18 -13 20 -11 2 1 22 -19 44 -45 88 -104 98
-113 125 -113 25 0 26 2 20 33 -3 17 -14 37 -23 44 -18 14 -21 45 -10 113 3
25 3 34 -1 20 -7 -22 -9 -23 -15 -7 -11 30 -8 37 18 37 14 0 29 -8 35 -20 6
-11 17 -20 25 -20 9 0 15 -10 15 -25 0 -22 4 -25 34 -25 88 0 89 36 4 128 -34
37 -67 73 -73 80 -5 7 -18 22 -27 33 -10 10 -18 22 -18 25 0 10 -58 64 -69 64
-6 0 -11 6 -11 13 0 6 -19 33 -43 58 -23 25 -47 54 -54 65 -10 16 -12 7 -12
-53z m129 -335 c0 -7 -5 -20 -10 -28 -8 -12 -10 -9 -10 13 0 15 5 27 10 27 6
0 10 -6 10 -12z"/>
<path d="M5780 6971 c-22 -7 -23 -9 -7 -16 35 -15 92 -11 92 5 0 17 -46 23
-85 11z"/>
<path d="M8583 6924 c-16 -12 -16 -15 -3 -23 17 -11 89 -4 105 11 27 25 -70
36 -102 12z"/>
<path d="M3032 6805 c-9 -11 -10 -20 -3 -33 9 -15 10 -15 11 6 0 12 5 22 10
22 6 0 10 5 10 10 0 14 -13 12 -28 -5z"/>
<path d="M3060 6490 c0 -5 5 -10 11 -10 5 0 7 5 4 10 -3 6 -8 10 -11 10 -2 0
-4 -4 -4 -10z"/>
<path d="M8258 4963 c12 -2 32 -2 45 0 12 2 2 4 -23 4 -25 0 -35 -2 -22 -4z"/>
<path d="M9318 4963 c23 -2 61 -2 85 0 23 2 4 4 -43 4 -47 0 -66 -2 -42 -4z"/>
<path d="M5680 4705 c0 -8 4 -15 9 -15 5 0 14 7 21 15 10 13 9 15 -9 15 -12 0
-21 -6 -21 -15z"/>
<path d="M7065 4673 c-33 -9 -48 -25 -33 -35 10 -6 10 -10 -2 -17 -28 -19 2
-26 123 -31 160 -7 164 -6 172 37 3 19 5 36 3 38 -6 6 -244 13 -263 8z"/>
<path d="M8192 4623 l3 -48 165 0 165 0 1 40 c0 22 -4 43 -10 47 -6 4 -82 8
-169 8 l-158 0 3 -47z"/>
<path d="M9368 4605 l4 -45 64 0 64 0 0 45 0 45 -68 0 -67 0 3 -45z"/>
<path d="M3022 4308 c-9 -9 -12 -147 -12 -560 l0 -548 373 -1 c204 0 518 -1
697 -2 179 -1 305 1 280 4 l-45 6 39 1 c30 2 47 10 73 37 19 19 43 35 54 35
18 0 19 2 6 14 -9 9 -47 17 -101 22 -93 7 -119 21 -114 58 3 20 7 21 138 18
74 -1 154 -5 178 -8 33 -4 43 -2 49 11 11 29 -17 35 -169 35 -81 0 -149 3
-151 8 -3 4 61 6 143 4 125 -3 148 -1 153 12 11 28 -29 37 -166 36 -72 -1
-138 -1 -145 -1 -11 1 -12 60 -7 324 4 210 3 327 -4 337 -10 15 -107 28 -211
29 l-55 1 0 57 0 58 -34 -2 c-33 -1 -76 -37 -65 -54 20 -32 -80 -66 -159 -55
-23 4 -163 6 -310 6 -191 -1 -273 2 -283 11 -10 8 -18 8 -27 1 -7 -6 -23 -8
-36 -5 -22 5 -23 10 -19 64 l4 59 -31 0 c-17 0 -36 -5 -43 -12z m1237 -182 c8
-9 10 -92 6 -292 -4 -154 -8 -294 -11 -311 l-5 -33 -125 0 -126 0 6 28 c3 15
8 158 12 317 3 160 8 293 11 298 2 4 53 7 112 7 80 0 112 -4 120 -14z m-1011
-28 c-5 -15 -60 -16 -65 -2 -2 6 13 11 32 12 24 1 35 -3 33 -10z m207 -3 c0
-5 -21 -11 -47 -13 -39 -3 -48 0 -48 13 0 13 9 16 48 13 26 -2 47 -7 47 -13z
m225 0 c0 -12 -14 -14 -70 -13 -57 1 -68 3 -59 15 17 19 129 18 129 -2z m160
1 c0 -9 -15 -15 -46 -18 -47 -3 -67 7 -43 23 23 15 89 11 89 -5z m123 -107
c-5 -18 -23 -27 -23 -11 1 25 14 52 20 42 4 -7 5 -21 3 -31z m3 -306 c-4 -135
-7 -159 -22 -170 -20 -15 -104 -18 -104 -4 0 5 -10 11 -22 13 l-23 3 23 20
c12 11 22 27 22 37 0 12 8 18 21 18 17 0 20 5 16 21 -4 15 0 23 14 26 23 6 63
68 56 87 -5 14 11 106 19 106 3 0 2 -71 0 -157z m-606 -43 c0 -5 -5 -10 -11
-10 -5 0 -7 5 -4 10 3 6 8 10 11 10 2 0 4 -4 4 -10z m400 -105 c0 -9 -9 -15
-22 -15 -22 1 -23 1 -4 15 25 19 26 19 26 0z m-17 -32 c-13 -2 -33 -2 -45 0
-13 2 -3 4 22 4 25 0 35 -2 23 -4z"/>
<path d="M4820 3985 c-22 -13 -23 -14 -5 -15 30 0 65 11 65 21 0 13 -32 10
-60 -6z"/>
<path d="M4890 3990 c0 -5 7 -10 15 -10 8 0 15 5 15 10 0 6 -7 10 -15 10 -8 0
-15 -4 -15 -10z"/>
<path d="M4945 3990 c-3 -5 1 -10 9 -10 8 0 18 5 21 10 3 6 -1 10 -9 10 -8 0
-18 -4 -21 -10z"/>
<path d="M5000 3990 c0 -5 7 -10 15 -10 8 0 15 5 15 10 0 6 -7 10 -15 10 -8 0
-15 -4 -15 -10z"/>
<path d="M5055 3990 c-20 -8 -20 -9 1 -9 12 -1 50 -3 85 -6 61 -4 62 -4 14 4
-27 5 -57 11 -65 14 -8 3 -24 2 -35 -3z"/>
<path d="M5245 3980 c-3 -5 3 -10 14 -10 12 0 21 5 21 10 0 6 -6 10 -14 10 -8
0 -18 -4 -21 -10z"/>
<path d="M8263 3768 c-4 -7 -7 -258 -5 -558 1 -300 -2 -570 -7 -600 l-9 -55
-1 71 c-2 129 -46 162 -216 163 -169 1 -174 -7 -187 -269 -11 -239 -12 -244
-68 -250 -38 -4 -45 -9 -51 -33 -16 -58 -27 -56 369 -73 140 -6 152 -8 152
-25 0 -15 8 -19 40 -19 22 0 40 -4 40 -9 0 -5 36 -12 80 -16 44 -4 80 -11 80
-16 0 -5 18 -9 40 -9 22 0 40 -4 40 -10 0 -5 18 -10 40 -10 29 0 40 4 40 15 0
11 11 15 40 15 27 0 40 4 40 13 0 11 29 15 117 20 66 4 119 11 121 17 2 5 21
10 43 10 21 0 40 3 40 8 7 42 9 83 9 252 0 107 -2 350 -6 540 -3 219 -2 340 4
331 7 -9 12 -10 16 -2 4 6 14 11 22 11 12 0 14 -27 14 -155 0 -95 -4 -164 -12
-180 -9 -20 -8 -31 3 -52 10 -22 14 -103 17 -363 2 -184 4 -343 4 -352 -1 -14
8 -18 41 -18 23 0 85 -3 137 -6 52 -2 121 -2 153 2 l57 6 0 104 0 104 -27 -6
c-16 -4 -29 -11 -31 -16 -2 -4 -21 -8 -43 -8 -39 0 -39 0 -39 -40 l0 -40 -78
0 c-67 0 -79 3 -90 21 -9 14 -10 24 -3 33 13 15 13 646 0 646 -5 0 -9 168 -9
404 l0 404 -22 6 c-13 3 -217 6 -455 6 -335 0 -434 -3 -440 -12z m687 -737 c0
-17 -18 -21 -24 -6 -3 9 0 15 9 15 8 0 15 -4 15 -9z m227 -513 c-2 -24 -4 -5
-4 42 0 47 2 66 4 43 2 -24 2 -62 0 -85z m-1288 -123 l2 -125 -27 0 c-22 0
-25 3 -21 23 3 12 9 68 13 125 5 72 10 102 19 102 10 0 13 -31 14 -125z m316
-22 c-5 -99 -10 -119 -21 -89 -4 10 -10 13 -13 8 -3 -5 -63 -11 -133 -14
l-127 -5 3 36 c2 20 4 51 5 69 1 27 5 32 24 31 18 -1 19 -2 3 -6 -16 -4 -13
-10 20 -44 31 -32 45 -39 76 -39 31 0 38 4 38 20 0 17 7 20 40 20 36 0 40 3
40 25 0 18 -7 26 -25 31 -14 3 -25 9 -25 13 0 6 74 38 92 40 4 1 5 -42 3 -96z
m982 -35 c-2 -13 -4 -3 -4 22 0 25 2 35 4 23 2 -13 2 -33 0 -45z"/>
<path d="M8038 2303 c23 -2 61 -2 85 0 23 2 4 4 -43 4 -47 0 -66 -2 -42 -4z"/>
<path d="M7956 3218 c-3 -7 -4 -42 -3 -78 l2 -65 68 -3 68 -3 -3 78 -3 78 -63
3 c-44 2 -63 -1 -66 -10z m124 -58 c0 -5 -25 -10 -55 -10 -30 0 -55 5 -55 10
0 6 25 10 55 10 30 0 55 -4 55 -10z"/>
<path d="M7899 3180 c-4 -42 -1 -64 9 -68 8 -2 12 10 12 37 0 23 -4 41 -10 41
-5 0 -10 -4 -11 -10z"/>
<path d="M3010 3161 c0 -21 0 -21 455 -21 258 0 455 4 455 9 0 5 -111 12 -247
15 -137 3 -341 9 -455 12 -206 6 -208 6 -208 -15z"/>
<path d="M7613 3000 c0 -25 2 -35 4 -22 2 12 2 32 0 45 -2 12 -4 2 -4 -23z"/>
<path d="M9354 2450 c-6 -6 -8 -29 -5 -53 5 -35 10 -43 30 -45 16 -3 31 4 45
21 12 13 28 26 36 30 9 3 10 6 3 6 -18 1 -16 21 2 21 31 0 14 18 -22 24 -54 8
-78 7 -89 -4z"/>
<path d="M7085 2220 c-8 -13 98 -20 332 -20 220 0 263 3 263 19 0 9 -589 10
-595 1z"/>
<path d="M9070 2215 c0 -8 5 -15 10 -15 6 0 10 7 10 15 0 8 -4 15 -10 15 -5 0
-10 -7 -10 -15z"/>
<path d="M8930 969 c-8 -15 -10 -121 -4 -375 l7 -354 283 0 284 0 0 90 c0 63
-4 91 -13 97 -34 21 -47 58 -47 136 0 74 2 80 30 109 18 17 30 40 30 55 0 25
-1 25 -19 9 -19 -17 -19 -16 -14 22 3 24 0 49 -9 66 -14 26 -16 27 -31 11 -23
-22 -21 -35 4 -35 19 0 20 -4 15 -35 -4 -19 -2 -45 4 -57 11 -22 10 -22 -4 -4
-9 11 -16 31 -16 44 0 18 -4 23 -16 18 -11 -4 -18 1 -21 14 -3 11 -9 20 -14
20 -5 0 -9 12 -9 26 0 14 -3 23 -7 21 -5 -3 -44 -2 -88 3 -64 6 -71 8 -35 10
l45 3 -45 7 -45 7 43 1 42 2 0 40 0 39 113 4 c109 3 107 3 -43 6 -107 3 -141
6 -110 11 28 4 -20 8 -127 8 -165 2 -173 1 -183 -19z m22 -254 c3 -138 2 -200
-2 -145 -8 99 -13 396 -6 389 2 -2 5 -112 8 -244z m374 113 c27 -9 37 -21 49
-57 19 -57 20 -131 1 -131 -7 0 -16 -8 -19 -19 -6 -25 -58 -49 -95 -43 -38 5
-85 -5 -77 -17 8 -14 9 -114 1 -139 -8 -25 -31 -29 -39 -8 -5 11 -11 376 -8
419 1 12 152 8 187 -5z"/>
<path d="M9190 710 l0 -90 39 0 c63 0 89 14 100 55 12 45 7 76 -16 92 -10 7
-23 17 -30 23 -7 5 -30 10 -53 10 l-40 0 0 -90z"/>
<path d="M9328 873 c6 -2 18 -2 25 0 6 3 1 5 -13 5 -14 0 -19 -2 -12 -5z"/>
<path d="M9370 870 c0 -5 5 -10 10 -10 6 0 10 5 10 10 0 6 -4 10 -10 10 -5 0
-10 -4 -10 -10z"/>
<path d="M9460 874 c0 -9 31 -37 36 -32 9 9 -8 38 -22 38 -8 0 -14 -3 -14 -6z"/>
<path d="M9487 603 c-11 -10 -8 -71 3 -78 6 -4 10 12 10 39 0 47 -2 51 -13 39z"/>
</g>
</svg>
