<?xml version="1.0" standalone="no"?>
<!DOCTYPE svg PUBLIC "-//W3C//DTD SVG 20010904//EN"
 "http://www.w3.org/TR/2001/REC-SVG-20010904/DTD/svg10.dtd">
<svg version="1.0" xmlns="http://www.w3.org/2000/svg"
 width="1280.000000pt" height="720.000000pt" viewBox="0 0 1280.000000 720.000000"
 preserveAspectRatio="xMidYMid meet">
<metadata>
Created by potrace 1.16, written by Peter Selinger 2001-2019
</metadata>
<g transform="translate(0.000000,720.000000) scale(0.100000,-0.100000)"
fill="#000000" stroke="none">
<path d="M6294 7156 c-89 -15 -134 -55 -134 -120 0 -34 -20 -76 -37 -76 -7 0
-13 -7 -13 -16 0 -20 -29 -83 -48 -106 -9 -11 -17 -58 -22 -140 -5 -68 -16
-143 -24 -167 -9 -24 -16 -57 -16 -75 0 -61 -47 -271 -64 -289 -7 -7 -22 -27
-35 -45 -16 -24 -29 -32 -42 -29 -16 4 -18 1 -12 -20 4 -19 3 -24 -6 -19 -16
10 -68 -12 -97 -41 -17 -17 -24 -35 -24 -63 0 -22 5 -40 10 -40 6 0 10 7 10
15 0 8 4 15 9 15 13 0 22 -30 15 -52 -4 -15 -12 -18 -31 -13 -19 4 -26 1 -29
-12 -3 -10 -22 -30 -42 -43 -44 -29 -142 -130 -142 -146 0 -6 -9 -19 -20 -29
-11 -10 -20 -23 -20 -29 0 -6 -9 -22 -20 -36 -11 -14 -20 -33 -20 -42 0 -10
-6 -18 -13 -18 -8 0 -22 -18 -33 -40 -10 -22 -24 -40 -29 -40 -12 0 -85 -72
-85 -83 0 -4 -8 -16 -17 -26 -10 -11 -27 -31 -38 -46 -11 -14 -27 -34 -35 -45
-8 -10 -22 -28 -30 -40 -8 -12 -21 -28 -27 -36 -7 -7 -13 -24 -13 -38 0 -16
-6 -26 -15 -26 -8 0 -19 -9 -25 -20 -6 -11 -17 -20 -25 -20 -8 0 -15 -7 -15
-16 0 -12 -6 -15 -22 -10 -51 15 -281 25 -560 26 -164 0 -298 3 -298 8 0 4
-141 8 -313 9 -171 1 -430 5 -574 9 l-263 6 0 -186 0 -186 193 0 c105 0 248 5
317 10 69 5 277 12 463 16 299 6 337 5 337 -8 0 -12 17 -17 74 -23 73 -6 116
3 116 26 0 5 13 3 30 -6 21 -11 60 -15 143 -15 96 0 116 -3 129 -17 24 -27 26
-56 6 -77 -10 -11 -18 -32 -18 -46 0 -15 -7 -41 -16 -59 -9 -18 -22 -58 -29
-89 -13 -58 -30 -112 -46 -144 -5 -10 -9 -25 -9 -33 0 -8 -4 -15 -10 -15 -23
0 -6 -221 19 -240 16 -13 34 -83 41 -160 15 -159 -3 -749 -23 -762 -6 -4 -395
-4 -864 -1 l-853 6 0 -21 c0 -21 3 -22 137 -22 75 0 134 -3 131 -6 -4 -3 -65
-5 -137 -5 -125 1 -131 0 -131 -19 0 -18 7 -20 60 -20 l60 0 0 -30 0 -30 -60
0 c-53 0 -60 -2 -60 -20 0 -18 7 -20 58 -20 43 0 53 -3 42 -11 -11 -8 -12 -12
-2 -16 8 -3 12 -30 12 -84 l0 -79 -32 0 c-71 0 -78 -7 -78 -71 0 -48 3 -57 15
-53 8 4 15 1 15 -5 0 -6 -7 -11 -15 -11 -11 0 -15 -11 -15 -40 0 -36 3 -40 25
-40 25 0 25 -1 25 -80 0 -50 -4 -80 -11 -80 -6 0 -8 -9 -4 -22 5 -18 4 -20 -4
-8 -18 25 -31 -7 -31 -81 0 -66 0 -67 30 -73 22 -4 38 -18 58 -51 15 -25 30
-45 34 -45 4 0 15 12 25 27 9 16 25 36 35 46 17 17 19 17 42 -8 13 -14 28 -25
35 -25 6 0 11 -5 11 -10 0 -24 39 16 51 52 12 38 29 51 29 23 0 -11 11 -15 40
-15 36 0 40 -2 40 -25 0 -17 5 -25 18 -25 9 0 23 -9 30 -20 20 -32 30 -24 48
40 17 61 34 75 53 42 10 -16 12 -16 25 1 20 25 34 21 41 -14 4 -17 13 -41 20
-55 l12 -24 15 22 c8 13 20 38 27 56 13 31 15 32 76 32 l62 0 18 -55 c21 -61
35 -71 35 -25 0 19 7 33 19 40 11 5 23 19 26 30 7 22 51 26 128 14 35 -6 37
-8 37 -45 0 -28 4 -39 15 -39 8 0 15 7 15 15 0 8 11 26 25 40 32 31 84 34 103
5 17 -27 32 -25 32 5 l0 25 203 1 c262 2 418 -1 439 -7 9 -3 21 -19 28 -37
l11 -32 20 24 c10 13 19 30 19 38 0 13 10 15 50 11 39 -4 54 -11 71 -32 27
-34 39 -33 39 3 0 28 1 29 76 36 72 7 76 6 100 -20 l24 -26 24 25 c50 55 62
23 45 -119 -11 -99 -11 -144 5 -550 21 -546 21 -509 -3 -559 -18 -35 -28 -46
-46 -46 -13 0 -26 -4 -29 -9 -6 -10 -50 -20 -189 -47 -81 -15 -89 -15 -106 0
-32 29 -75 38 -123 26 -77 -21 -99 -60 -56 -100 54 -50 216 -110 296 -110 53
0 211 -37 232 -55 8 -7 22 -15 30 -19 8 -3 3 -4 -12 -2 -16 2 -28 0 -28 -5 0
-12 -93 -27 -210 -33 -57 -4 -107 -10 -110 -15 -5 -8 -45 -16 -145 -27 -50 -6
-99 -30 -90 -44 3 -4 26 -13 52 -19 37 -10 70 -10 149 0 61 7 135 9 186 5 l85
-8 -5 -46 c-3 -26 -9 -48 -13 -50 -5 -2 -9 -21 -9 -43 0 -28 4 -39 15 -39 8 0
15 -7 15 -15 0 -11 11 -15 38 -15 28 0 46 -8 71 -30 l33 -30 -31 -29 c-26 -24
-31 -37 -31 -75 l0 -46 431 0 431 0 -7 80 c-6 70 -5 80 9 80 12 0 16 10 16 40
l0 40 50 0 50 0 0 40 c0 22 -4 40 -10 40 -5 0 -10 15 -10 34 l0 34 160 -5
c107 -4 160 -3 160 4 0 6 9 13 20 16 33 8 27 63 -11 98 -37 35 -67 44 -119 35
-44 -7 -103 18 -155 66 -16 15 -35 28 -42 28 -6 0 -25 11 -41 25 -17 14 -34
25 -39 25 -5 0 -15 9 -23 20 -8 11 -19 20 -25 20 -16 0 -45 81 -45 126 0 23 6
54 14 70 36 75 106 255 106 272 0 7 3 12 8 12 7 0 32 47 32 62 0 4 13 29 28
55 15 26 41 82 56 123 16 41 32 77 36 80 4 3 13 22 21 43 7 20 17 37 21 37 4
0 8 6 8 13 0 17 53 141 62 145 5 2 8 13 8 24 0 11 6 32 14 46 8 15 22 47 31
72 9 25 21 53 26 62 5 10 9 26 9 36 0 10 13 36 30 58 16 21 30 45 30 52 0 6 5
12 10 12 6 0 10 8 10 19 0 32 21 39 133 47 l107 7 0 38 0 39 -78 0 c-101 0
-112 8 -105 78 3 28 9 52 14 52 5 0 9 20 9 44 0 42 50 176 77 204 6 6 27 12
47 12 19 0 70 5 112 11 l76 12 -6 71 c-3 39 -9 191 -12 337 -6 240 -5 266 10
272 9 4 16 17 16 30 0 13 5 28 11 34 7 7 13 59 14 125 2 62 8 126 14 141 6 16
11 47 11 70 0 50 44 387 65 502 12 65 12 108 4 230 -5 83 -14 172 -18 200 -5
27 -7 53 -4 58 2 4 -1 14 -7 22 -7 8 -9 15 -4 15 19 0 -3 505 -32 733 -18 146
-43 217 -97 278 l-38 42 40 -6 c37 -5 40 -3 31 13 -6 10 -10 28 -10 40 0 11
-7 32 -16 45 -9 14 -14 34 -11 44 3 12 -6 33 -25 55 -16 19 -36 56 -44 81 -9
25 -22 45 -30 45 -8 0 -14 7 -14 16 0 14 -58 132 -71 144 -3 3 -11 21 -19 40
-8 19 -17 37 -20 40 -8 6 -44 114 -60 180 -19 79 -92 254 -110 265 -4 3 -11
16 -14 30 -7 28 -26 53 -73 99 -18 17 -45 43 -60 58 -16 14 -44 44 -64 65 -24
26 -53 44 -91 56 -62 19 -66 19 -164 3z m333 -356 c11 0 33 -79 33 -119 0 -42
-17 -81 -35 -81 -9 0 -20 12 -25 26 -14 35 -13 94 1 94 11 0 9 26 -6 90 -6 23
-5 24 8 8 8 -10 18 -18 24 -18z m-846 -1440 c10 -6 19 -17 19 -24 0 -7 8 -20
19 -30 13 -12 20 -37 25 -89 4 -39 11 -89 17 -110 7 -28 7 -54 -2 -93 l-12
-54 -44 0 c-33 0 -43 -4 -43 -16 0 -14 -11 -15 -80 -10 -44 3 -116 9 -160 12
l-80 6 0 62 c0 55 3 66 30 97 67 75 159 169 166 169 4 0 16 10 28 23 29 30 77
67 88 67 5 0 18 -5 29 -10z m-814 -392 c-3 -8 -6 -5 -6 6 -1 11 2 17 5 13 3
-3 4 -12 1 -19z m-291 -160 c2 -3 2 -13 -2 -22 -6 -15 -18 -17 -82 -14 -75 3
-102 18 -71 40 14 9 145 6 155 -4z m44 -58 c0 -5 -4 -10 -10 -10 -5 0 -10 5
-10 10 0 6 5 10 10 10 6 0 10 -4 10 -10z m800 -15 c126 -17 240 -19 240 -4 0
5 5 7 10 4 18 -11 -15 -33 -56 -38 -25 -3 -18 -4 21 -4 42 0 64 5 73 16 11 13
12 1 7 -74 -13 -194 -23 -248 -54 -312 -17 -35 -31 -67 -31 -73 0 -5 -4 -10
-9 -10 -5 0 -19 -33 -32 -72 -12 -40 -26 -80 -30 -88 -7 -13 -37 -114 -43
-144 -2 -9 -499 -9 -589 0 -67 8 -81 19 -35 29 l32 7 -25 14 c-13 7 -39 13
-57 14 -33 0 -62 18 -62 38 0 6 -18 27 -40 48 -37 35 -40 42 -40 93 0 43 5 61
26 88 14 18 31 33 39 33 7 0 18 12 24 28 12 33 45 72 60 72 6 0 11 8 11 18 0
9 19 38 43 64 67 74 77 87 77 102 0 8 12 25 28 38 15 13 36 40 46 61 11 20 25
37 33 37 7 0 13 4 13 9 0 22 183 25 320 6z m80 -870 c0 -14 -4 -25 -10 -25
-11 0 -14 33 -3 43 11 11 13 8 13 -18z m-785 -155 c-3 -25 -5 -58 -5 -75 0
-16 1 -108 2 -202 1 -138 4 -173 14 -173 8 0 14 9 14 20 0 13 10 24 25 30 14
5 36 21 49 35 21 23 26 24 39 11 10 -10 17 -12 25 -4 14 14 35 0 28 -19 -3 -8
-1 -23 5 -34 9 -17 7 -21 -9 -26 -11 -2 -25 -16 -31 -29 -6 -13 -17 -24 -26
-24 -8 0 -16 -4 -16 -10 -1 -5 -2 -14 -3 -19 -2 -18 -16 -24 -29 -13 -7 6 -23
9 -35 5 -18 -4 -22 -1 -22 16 0 12 -6 21 -15 21 -9 0 -15 -9 -15 -22 0 -13 -3
-34 -7 -47 -6 -24 -5 -24 45 -18 31 4 52 2 52 -4 0 -5 11 -2 25 7 13 8 28 13
33 10 5 -3 64 -5 133 -5 123 0 158 0 192 -1 14 -1 16 -6 11 -23 -3 -12 -8 -24
-10 -26 -2 -2 -117 0 -256 5 l-252 9 -6 30 c-3 17 -3 161 1 320 5 217 10 297
20 317 14 27 14 27 22 5 5 -12 6 -42 2 -67z m318 33 c6 -28 4 -33 -13 -33 -10
0 -22 5 -25 10 -3 6 1 10 9 10 11 0 16 9 16 27 0 33 5 28 13 -14z m-173 -23
c0 -5 -6 -10 -14 -10 -8 0 -18 5 -21 10 -3 6 3 10 14 10 12 0 21 -4 21 -10z
m100 0 c0 -11 -14 -11 -50 0 -22 7 -21 8 13 9 20 1 37 -3 37 -9z m175 0 c-3
-5 -13 -10 -21 -10 -8 0 -14 5 -14 10 0 6 9 10 21 10 11 0 17 -4 14 -10z m102
-6 c-3 -3 -12 -4 -19 -1 -8 3 -5 6 6 6 11 1 17 -2 13 -5z m100 0 c-3 -3 -12
-4 -19 -1 -8 3 -5 6 6 6 11 1 17 -2 13 -5z m-143 -39 c-4 -8 -8 -15 -10 -15
-2 0 -4 7 -4 15 0 8 4 15 10 15 5 0 7 -7 4 -15z m162 -71 c-6 -17 -76 -19 -76
-3 0 6 7 9 15 5 8 -3 15 0 15 6 0 9 3 9 12 0 21 -21 28 -13 30 31 1 38 2 39 5
9 3 -19 2 -40 -1 -48z m-206 10 c0 -8 -10 -14 -25 -14 -18 0 -25 5 -25 19 0
14 6 17 25 13 14 -2 25 -11 25 -18z m-120 1 c0 -9 -9 -15 -22 -15 -21 0 -21 0
-2 15 24 18 24 18 24 0z m-80 -11 c0 -2 -9 -4 -21 -4 -11 0 -18 4 -14 10 5 8
35 3 35 -6z m290 4 c17 10 20 10 20 -3 0 -11 -11 -15 -40 -15 -29 0 -40 4 -40
15 0 13 3 13 20 3 16 -10 24 -10 40 0z m-248 -68 c-2 -16 -6 -30 -8 -30 -2 0
-4 14 -4 30 0 17 4 30 8 30 5 0 7 -13 4 -30z m336 11 c11 -7 11 -9 -2 -14 -9
-4 -16 -13 -16 -22 0 -8 -5 -15 -11 -15 -6 0 -8 7 -5 16 3 9 6 22 6 30 0 16 9
18 28 5z m-190 -54 c3 -23 0 -27 -22 -27 -21 0 -26 5 -26 23 0 13 3 27 7 31
15 14 38 0 41 -27z m-298 -11 c0 -11 -19 -15 -25 -6 -3 5 1 10 9 10 9 0 16 -2
16 -4z m115 -6 c-3 -5 -15 -10 -26 -10 -10 0 -19 5 -19 10 0 6 12 10 26 10 14
0 23 -4 19 -10z m90 0 c-3 -5 -15 -10 -25 -10 -10 0 -22 5 -25 10 -4 6 7 10
25 10 18 0 29 -4 25 -10z m185 0 c0 -5 -7 -10 -15 -10 -8 0 -15 5 -15 10 0 6
7 10 15 10 8 0 15 -4 15 -10z m20 -139 c13 -26 13 -31 -5 -31 -14 0 -20 -17
-16 -47 2 -16 -25 -17 -35 -1 -4 6 -8 31 -8 55 -1 40 1 43 26 43 17 0 31 -8
38 -19z m-135 -59 c-8 -8 -25 10 -25 26 0 13 2 13 14 -4 8 -10 13 -21 11 -22z
m-1540 -257 c6 -2 -64 -3 -155 -2 -127 0 -145 2 -80 6 81 6 214 3 235 -4z
m221 4 c3 -5 -33 -9 -80 -9 -47 0 -86 4 -86 9 0 11 159 11 166 0z m-616 -68
c0 -16 -9 -20 -50 -23 -28 -1 -52 1 -54 7 -8 25 8 35 55 35 42 0 49 -3 49 -19z
m240 4 c0 -28 -34 -33 -182 -25 -5 0 -8 9 -8 20 0 19 7 20 95 20 77 0 95 -3
95 -15z m160 -10 c0 -11 -12 -15 -42 -16 -70 -2 -85 2 -73 20 3 6 31 11 61 11
41 0 54 -4 54 -15z m215 0 c0 -12 -141 -23 -161 -12 -8 5 -12 13 -8 18 8 13
169 7 169 -6z m243 3 c-3 -9 -33 -13 -103 -13 -70 0 -100 4 -102 13 -4 9 21
12 102 12 81 0 106 -3 103 -12z m162 -33 c0 -53 -21 -61 -42 -17 -7 15 -23 28
-35 30 -12 2 -27 10 -33 18 -11 12 -3 14 49 14 l61 0 0 -45z m698 18 l-3 -28
-105 -7 c-58 -4 -148 -12 -200 -18 -52 -6 -152 -10 -221 -10 -106 0 -128 3
-133 16 -8 21 -8 59 1 67 3 4 154 7 335 7 l329 0 -3 -27z m156 21 c9 -3 16
-18 16 -33 0 -25 -2 -26 -65 -29 l-65 -3 0 35 0 36 49 0 c27 0 56 -3 65 -6z
m77 -41 c-3 -37 -6 -43 -12 -28 -12 31 -10 63 4 68 6 3 12 6 12 6 0 1 -2 -20
-4 -46z m-1111 -68 c19 0 26 -107 10 -149 -10 -26 -12 -27 -82 -25 -114 3
-118 6 -118 86 0 38 4 73 8 78 4 6 36 12 72 14 36 1 67 4 69 6 2 3 9 1 15 -3
6 -3 18 -7 26 -7z m-840 -85 l0 -78 -55 -4 -55 -3 0 72 c0 97 1 99 60 95 l50
-4 0 -78z m208 64 c18 11 29 -72 16 -121 -4 -13 -11 -20 -16 -17 -6 4 -15 0
-20 -7 -6 -9 -11 -10 -14 -4 -3 7 -27 9 -65 5 -33 -3 -62 -4 -64 -1 -8 7 -5
135 3 148 11 18 124 21 139 4 6 -7 16 -10 21 -7z m777 12 c16 -11 20 -30 23
-110 4 -91 3 -96 -16 -96 -13 0 -22 8 -24 22 -2 13 -12 22 -25 24 -22 4 -28
-5 -24 -33 1 -7 -3 -13 -9 -13 -10 0 -15 201 -5 211 10 11 63 8 80 -5z m-383
-10 c12 -17 9 -134 -2 -141 -6 -4 -43 -7 -83 -7 l-72 -1 -3 72 c-3 66 -1 72
20 81 30 12 131 9 140 -4z m-202 -70 l0 -74 -56 -4 c-45 -2 -58 0 -65 14 -10
18 -13 121 -4 130 3 3 32 6 65 7 l60 2 0 -75z m836 37 c118 1 124 2 125 21 2
19 2 19 6 -1 4 -23 33 -33 33 -13 0 6 10 1 22 -10 21 -19 33 -21 155 -18 l133
3 0 -27 c0 -20 -4 -26 -15 -22 -12 5 -15 -4 -15 -49 l0 -56 -35 6 c-23 4 -35
2 -35 -6 0 -6 17 -11 38 -12 30 0 33 -2 17 -9 -29 -12 -465 -12 -465 0 0 6 37
11 88 12 66 1 53 3 -58 7 -92 4 -148 2 -152 -4 -17 -22 -28 23 -26 100 3 68 6
80 19 77 10 -1 20 7 24 20 7 23 8 23 12 2 4 -20 10 -21 129 -21z m857 14 c15
-10 17 -27 15 -112 l-3 -100 -35 1 c-109 1 -150 5 -150 14 0 6 37 11 88 12
l87 2 -82 3 -83 4 0 64 c0 78 7 100 26 84 11 -9 14 -9 14 0 0 8 8 10 19 6 27
-8 71 5 71 21 0 17 11 18 33 1z m134 -29 c5 -7 10 -43 12 -80 l3 -68 -46 0
-46 0 0 80 0 80 34 0 c18 0 38 -6 43 -12z m-376 -20 c0 -7 0 -41 -1 -75 -1
-51 2 -63 14 -63 9 0 16 -4 16 -10 0 -6 -27 -10 -60 -10 -33 0 -60 4 -60 10 0
6 18 10 40 10 l40 0 0 45 0 45 -42 2 -43 1 43 4 c53 5 55 23 2 23 -29 0 -40 4
-40 15 0 19 90 22 91 3z m26 -30 c-3 -7 -5 -2 -5 12 0 14 2 19 5 13 2 -7 2
-19 0 -25z m-167 -73 c0 -30 -4 -55 -10 -55 -5 0 -10 25 -10 55 0 30 5 55 10
55 6 0 10 -25 10 -55z m1298 -4 c4 -38 -2 -46 -40 -55 -27 -6 -28 -5 -28 38 0
46 9 56 45 53 15 -2 21 -11 23 -36z m-105 1 c-3 -68 6 -62 -102 -62 -106 0
-113 4 -104 53 5 26 7 26 97 29 116 4 111 5 109 -20z m223 11 c7 -10 14 -25
14 -33 0 -20 -37 -44 -46 -29 -3 6 -12 8 -20 5 -18 -7 -39 36 -31 58 9 22 66
21 83 -1z m-886 -58 c0 -11 -11 -15 -40 -15 -29 0 -40 4 -40 15 0 11 11 15 40
15 29 0 40 -4 40 -15z m-1072 -12 c-10 -2 -26 -2 -35 0 -10 3 -2 5 17 5 19 0
27 -2 18 -5z m1952 -33 c0 11 3 10 11 -4 8 -13 8 -48 0 -125 -7 -58 -13 -122
-14 -141 -2 -32 -5 -35 -32 -35 -20 0 -30 5 -30 15 0 8 9 15 20 15 19 0 20 6
17 123 -3 128 3 176 19 151 7 -12 9 -11 9 1z m-220 -161 l0 -126 -88 -7 c-52
-4 -98 -3 -114 3 -26 10 -27 12 -30 111 -2 56 1 105 7 111 5 5 39 9 77 9 83 0
89 -8 86 -117 l-2 -78 -6 85 -6 85 -2 -87 c-2 -82 -1 -88 18 -88 16 0 20 7 22
38 0 20 3 62 5 92 11 167 33 146 33 -31z m108 12 c-2 -77 -6 -143 -10 -147 -4
-3 -19 -4 -33 0 l-25 6 0 140 0 140 36 0 36 0 -4 -139z m72 35 c0 -58 -4 -107
-9 -110 -15 -10 -21 22 -21 120 0 77 3 94 15 94 12 0 15 -18 15 -104z m-2237
-51 c-2 -74 -7 -111 -15 -117 -7 -4 -34 -8 -59 -8 l-47 0 -7 79 c-4 44 -4 98
0 121 l7 42 62 -4 61 -4 -2 -109z m143 75 c11 0 14 -15 13 -67 -1 -76 -9 -114
-24 -114 -6 1 -11 45 -12 108 -1 60 1 100 3 91 3 -10 12 -18 20 -18z m-681 10
c4 -6 11 -8 16 -4 5 3 23 2 40 -1 l31 -7 -7 -77 c-5 -42 -9 -85 -10 -96 -1
-17 -9 -20 -51 -20 l-49 0 -3 85 c-2 47 0 95 3 108 6 23 20 29 30 12z m289 -6
c3 -9 6 -37 6 -62 0 -36 -5 -50 -20 -60 -13 -8 -20 -23 -20 -42 0 -28 -2 -30
-39 -30 -32 0 -40 4 -45 23 -8 29 -8 151 0 171 9 23 109 23 118 0z m96 6 c0
-5 -5 -10 -11 -10 -5 0 -7 5 -4 10 3 6 8 10 11 10 2 0 4 -4 4 -10z m1404 -115
l-7 -95 -83 0 -84 0 0 95 0 95 40 0 c25 0 40 -5 40 -12 1 -7 9 -3 19 8 21 27
52 34 69 17 9 -9 11 -36 6 -108z m126 115 c18 0 17 -22 -1 -143 -11 -66 -12
-68 -37 -65 -15 2 -26 6 -24 11 1 4 2 53 2 108 0 100 0 101 23 95 12 -3 29 -6
37 -6z m-2086 -32 c-4 -13 -7 -52 -6 -88 2 -62 -13 -111 -25 -82 -6 16 -23 15
-23 -2 0 -9 -7 -12 -20 -9 -16 4 -20 14 -20 45 0 35 2 39 15 28 13 -11 15 -7
15 24 0 22 4 35 10 31 13 -8 13 1 0 26 -6 10 -17 19 -25 19 -8 0 -15 7 -15 15
0 11 12 15 51 15 48 0 50 -1 43 -22z m1009 -105 c-3 -18 -9 -33 -14 -33 -5 0
-9 -7 -9 -15 0 -11 11 -15 41 -15 l41 0 -6 43 c-7 49 -7 127 0 139 3 4 50 8
105 8 l101 0 -7 -86 c-6 -68 -5 -88 6 -95 34 -21 39 -11 39 86 l0 95 35 0 c36
0 100 -27 135 -58 23 -19 29 -112 8 -112 -23 0 16 -20 40 -20 20 0 22 4 22 64
0 75 9 126 22 126 5 0 7 -43 6 -97 -3 -87 -5 -97 -23 -100 -47 -10 -327 -15
-480 -8 l-165 7 0 93 0 94 43 3 42 3 12 -45 c7 -25 10 -60 6 -77z m718 53 c5
-6 9 -36 9 -68 l0 -59 -57 3 c-65 3 -67 6 -57 116 l6 62 39 0 c24 0 40 5 41
13 0 6 3 -4 5 -23 3 -19 9 -39 14 -44z m-691 8 c0 -8 -4 -14 -10 -14 -5 0 -10
9 -10 21 0 11 5 17 10 14 6 -3 10 -13 10 -21z m-570 -103 c0 -6 -4 -13 -10
-16 -5 -3 -10 1 -10 9 0 9 5 16 10 16 6 0 10 -4 10 -9z m2470 -146 c0 -6 -7
-20 -15 -31 -8 -10 -15 -27 -15 -36 0 -10 -5 -18 -10 -18 -6 0 -15 -11 -20
-25 -5 -14 -19 -44 -30 -67 -11 -23 -20 -48 -20 -55 0 -7 -4 -13 -8 -13 -25 0
-92 -182 -151 -410 -22 -85 -47 -180 -56 -210 -42 -146 -49 -169 -69 -241 -32
-116 -75 -215 -148 -334 -10 -16 -18 -41 -19 -55 l-1 -25 -7 25 c-11 37 -14
290 -3 290 5 0 12 39 16 88 3 48 11 112 16 142 37 204 52 370 57 615 3 191 9
273 20 308 13 42 33 64 33 37 0 -5 9 -1 21 11 19 19 30 20 215 18 136 -2 194
-6 194 -14z m-560 -1555 c0 -36 37 -72 91 -90 35 -12 37 -14 21 -26 -10 -8
-44 -14 -79 -14 -71 0 -70 -3 -57 108 7 55 24 72 24 22z m50 -370 l0 -110 -40
0 c-28 0 -40 4 -40 14 0 8 -4 16 -9 18 -5 2 -12 38 -16 81 -6 67 -5 77 9 77 9
0 16 7 16 15 0 11 11 15 40 15 l40 0 0 -110z m170 -40 l0 -40 -45 0 -45 0 0
40 0 40 45 0 45 0 0 -40z"/>
<path d="M5280 4720 c0 -6 33 -9 83 -9 77 2 79 2 32 9 -72 12 -115 11 -115 0z"/>
<path d="M5300 3980 c0 -5 5 -10 10 -10 6 0 10 5 10 10 0 6 -4 10 -10 10 -5 0
-10 -4 -10 -10z"/>
<path d="M4738 2743 c12 -2 32 -2 45 0 12 2 2 4 -23 4 -25 0 -35 -2 -22 -4z"/>
<path d="M4695 2630 c-4 -6 28 -10 89 -10 57 0 96 4 96 10 0 6 -36 10 -89 10
-50 0 -93 -4 -96 -10z"/>
<path d="M3600 2358 c-3 -26 -1 -43 3 -39 5 5 7 26 5 47 l-3 39 -5 -47z"/>
<path d="M3633 2360 c0 -25 2 -35 4 -22 2 12 2 32 0 45 -2 12 -4 2 -4 -23z"/>
<path d="M3335 2310 c4 -6 11 -8 16 -5 14 9 11 15 -7 15 -8 0 -12 -5 -9 -10z"/>
<path d="M3017 7033 c-4 -3 -7 -37 -7 -75 0 -52 4 -70 15 -74 8 -4 15 -12 15
-19 0 -8 11 -27 25 -43 14 -17 25 -35 25 -41 0 -6 6 -11 14 -11 8 0 16 -7 20
-15 6 -17 -2 -45 -14 -45 -20 0 -40 13 -40 26 0 8 -7 14 -15 14 -19 0 -19 -26
0 -34 8 -3 23 -21 32 -41 9 -19 23 -35 30 -35 7 0 13 -5 13 -11 0 -6 -6 -8
-12 -5 -7 3 -21 9 -30 12 -10 4 -18 13 -18 20 0 8 -7 17 -15 20 -8 4 -15 14
-15 23 -1 9 -7 27 -15 41 -13 23 -14 19 -15 -61 0 -81 2 -87 28 -111 24 -22
55 -57 131 -146 23 -27 64 -27 69 0 2 10 -9 33 -25 53 -21 26 -28 46 -28 78 0
23 -4 52 -8 65 -8 20 -5 22 22 22 20 0 34 -7 41 -20 6 -11 17 -20 25 -20 8 0
15 -8 15 -18 0 -22 72 -52 78 -33 2 6 11 11 19 11 12 0 14 7 9 31 -3 17 -6 35
-6 40 0 5 -6 9 -14 9 -20 0 -108 88 -96 95 6 3 10 15 10 27 0 17 -3 18 -15 8
-16 -14 -35 -6 -35 16 0 8 -7 14 -15 14 -8 0 -15 5 -15 11 0 14 -55 69 -69 69
-6 0 -11 5 -11 11 0 6 -11 24 -25 41 -14 16 -25 36 -25 44 0 8 -6 14 -14 14
-7 0 -19 7 -27 16 -10 13 -10 17 2 25 8 5 9 9 3 9 -6 0 -14 -3 -17 -7z m141
-315 c17 -17 15 -28 -6 -28 -24 0 -32 8 -25 26 6 17 15 18 31 2z"/>
<path d="M5760 6972 c0 -16 72 -32 92 -21 10 5 16 14 13 20 -8 11 -105 12
-105 1z"/>
<path d="M8593 6929 c-51 -19 -13 -41 53 -30 51 8 54 35 4 37 -19 1 -45 -2
-57 -7z"/>
<path d="M3040 6810 c0 -5 5 -10 10 -10 6 0 10 5 10 10 0 6 -4 10 -10 10 -5 0
-10 -4 -10 -10z"/>
<path d="M3202 6610 c0 -14 2 -19 5 -12 2 6 2 18 0 25 -3 6 -5 1 -5 -13z"/>
<path d="M7348 4964 c-5 -4 -8 -24 -8 -45 0 -20 -4 -39 -9 -41 -4 -1 -11 -19
-15 -39 -6 -35 -5 -37 24 -42 17 -4 193 -7 393 -8 382 -2 1170 -13 1545 -23
l222 -5 0 44 c0 42 -1 44 -32 48 l-33 4 33 1 c17 1 32 7 32 13 0 9 -183 11
-690 8 l-690 -4 -1 -25 -1 -25 -11 28 -11 27 -367 0 -368 0 -3 46 c-2 25 -6
42 -10 38z"/>
<path d="M9273 4963 c42 -2 112 -2 155 0 42 1 7 3 -78 3 -85 0 -120 -2 -77 -3z"/>
<path d="M8193 4623 l2 -48 164 0 164 0 2 40 c1 22 -3 43 -9 47 -6 4 -82 8
-168 8 l-157 0 2 -47z"/>
<path d="M9408 4643 c-37 -4 -38 -5 -38 -44 l0 -39 65 0 65 0 0 45 c0 50 5 48
-92 38z"/>
<path d="M9360 4360 c0 -5 18 -10 40 -10 22 0 40 5 40 10 0 6 -18 10 -40 10
-22 0 -40 -4 -40 -10z"/>
<path d="M3022 4308 c-9 -9 -12 -147 -12 -560 l0 -548 378 -2 c878 -3 1015 -3
972 3 l-45 6 43 1 c23 1 42 6 42 11 0 5 13 14 30 21 16 7 39 21 51 31 l22 19
-24 0 c-13 0 -34 3 -47 6 -18 5 -20 9 -11 20 10 12 2 14 -47 12 -50 -1 -53 -2
-16 -5 53 -5 56 -23 3 -23 -48 0 -79 25 -83 65 l-3 30 65 0 c36 0 117 -3 180
-5 110 -5 115 -4 115 15 0 19 -8 20 -120 25 -118 5 -119 5 -53 13 37 4 84 5
106 1 30 -5 40 -3 45 10 11 28 -28 36 -179 36 l-147 0 7 243 c9 335 9 381 2
404 -8 25 -34 31 -167 40 -109 7 -103 2 -100 78 2 49 -10 58 -52 40 -29 -12
-38 -23 -47 -54 -9 -34 -15 -40 -54 -51 -25 -7 -67 -10 -98 -6 -29 3 -171 5
-315 5 -196 0 -267 3 -282 13 -17 10 -25 10 -41 0 -44 -27 -53 -17 -48 53 l4
65 -31 0 c-17 0 -36 -5 -43 -12z m1238 -183 c11 -14 10 -189 -5 -525 -3 -52
-5 -98 -5 -102 0 -5 -56 -8 -125 -8 l-125 0 5 43 c2 23 7 165 10 316 3 151 8
278 11 283 3 4 54 8 113 8 83 0 111 -3 121 -15z m-1005 -24 c-9 -8 -47 -15
-68 -12 -5 1 -5 6 -2 11 3 6 23 10 43 10 22 0 32 -4 27 -9z m200 -6 c0 -5 -21
-11 -47 -13 -39 -3 -48 0 -48 13 0 13 9 16 48 13 26 -2 47 -7 47 -13z m225 0
c0 -11 -15 -14 -72 -14 -65 1 -71 2 -53 15 26 20 125 19 125 -1z m160 0 c0 -9
-10 -16 -22 -16 -13 -1 -33 -3 -46 -4 -27 -3 -40 14 -21 26 24 15 89 11 89 -6z
m110 -5 c0 -5 -5 -10 -11 -10 -5 0 -7 5 -4 10 3 6 8 10 11 10 2 0 4 -4 4 -10z
m10 -91 c0 -17 -4 -28 -10 -24 -5 3 -10 17 -10 31 0 13 5 24 10 24 6 0 10 -14
10 -31z m3 -316 c-3 -87 -10 -164 -15 -170 -12 -15 -108 -18 -108 -3 0 6 -7
10 -17 10 -15 0 -15 1 0 18 10 10 17 22 17 27 0 4 10 16 23 27 12 11 22 25 22
32 0 7 12 24 27 37 20 19 28 40 37 96 6 40 11 74 11 77 0 3 2 6 5 6 2 0 1 -71
-2 -157z m-283 -153 c0 -5 -5 -10 -11 -10 -5 0 -7 5 -4 10 3 6 8 10 11 10 2 0
4 -4 4 -10z m63 -27 c-13 -2 -33 -2 -45 0 -13 2 -3 4 22 4 25 0 35 -2 23 -4z"/>
<path d="M8263 3768 c-4 -7 -7 -258 -6 -558 2 -300 -1 -570 -6 -600 l-9 -55
-1 73 c-2 127 -49 162 -216 162 -172 0 -175 -5 -187 -263 -11 -246 -12 -251
-68 -257 -38 -4 -45 -9 -51 -33 -16 -59 -33 -55 368 -73 127 -6 143 -9 148
-25 5 -14 16 -19 46 -19 27 0 39 -4 39 -14 0 -10 22 -16 80 -21 58 -5 80 -11
80 -21 0 -16 72 -19 179 -8 56 6 61 9 61 31 l0 25 80 -7 c51 -5 80 -4 80 3 0
5 36 13 80 17 l79 7 7 34 c5 29 10 34 35 34 22 0 29 -5 29 -20 0 -13 7 -20 20
-20 11 0 20 -7 20 -15 0 -8 5 -15 10 -15 6 0 10 7 10 15 0 12 17 14 108 9 59
-3 133 -2 165 1 l57 7 0 105 c0 96 -1 105 -17 97 -10 -4 -36 -9 -58 -11 l-40
-3 38 18 c21 9 35 21 31 25 -4 4 1 7 11 7 15 0 16 3 7 12 -9 9 -7 14 6 24 14
10 8 13 -41 19 -87 11 -86 11 -80 -99 l6 -96 -76 0 c-42 0 -79 4 -82 10 -3 5
-6 199 -6 430 -1 246 -5 420 -10 420 -5 0 -9 134 -9 320 0 249 3 320 13 321 6
1 -6 5 -28 10 -22 4 -232 8 -467 8 -331 1 -429 -2 -435 -11z m838 -690 c-1
-112 2 -350 5 -529 l6 -326 -31 0 -31 0 0 111 c-1 61 -3 298 -6 526 -3 272 -1
410 5 400 9 -12 11 -12 17 3 3 9 13 17 21 17 13 0 15 -28 14 -202z m-157 -53
c-4 -8 -8 -15 -10 -15 -2 0 -4 7 -4 15 0 8 4 15 10 15 5 0 7 -7 4 -15z m233
-527 c-2 -13 -4 -3 -4 22 0 25 2 35 4 23 2 -13 2 -33 0 -45z m-1288 -104 c2
-125 2 -125 -21 -122 -25 3 -25 -7 -12 156 5 63 11 92 20 92 9 0 12 -32 13
-126z m316 -20 l-5 -96 -145 -2 -145 -1 1 30 c1 17 4 43 8 58 l6 28 34 -35
c29 -30 42 -36 78 -36 l43 0 0 39 c0 37 1 39 40 45 44 7 52 20 18 30 -21 7
-19 9 17 21 22 7 43 13 47 14 4 1 5 -42 3 -95z m-270 77 c3 -5 1 -12 -5 -16
-5 -3 -10 1 -10 9 0 18 6 21 15 7z m0 -41 c3 -5 1 -10 -4 -10 -6 0 -11 5 -11
10 0 6 2 10 4 10 3 0 8 -4 11 -10z"/>
<path d="M8165 2310 c-3 -5 -1 -10 4 -10 6 0 11 5 11 10 0 6 -2 10 -4 10 -3 0
-8 -4 -11 -10z"/>
<path d="M8018 2303 c12 -2 32 -2 45 0 12 2 2 4 -23 4 -25 0 -35 -2 -22 -4z"/>
<path d="M7956 3218 c-3 -7 -4 -42 -3 -78 l2 -65 67 -5 c65 -5 67 -4 70 20 2
14 1 50 -2 80 l-5 55 -63 3 c-44 2 -63 -1 -66 -10z m124 -58 c0 -5 -25 -10
-55 -10 -30 0 -55 5 -55 10 0 6 25 10 55 10 30 0 55 -4 55 -10z"/>
<path d="M7899 3180 c-4 -42 -1 -64 9 -68 8 -2 12 10 12 37 0 23 -4 41 -10 41
-5 0 -10 -4 -11 -10z"/>
<path d="M3010 3161 l0 -21 455 0 c261 0 455 4 455 9 0 10 -178 18 -617 27
-293 6 -293 6 -293 -15z"/>
<path d="M7613 3000 c0 -25 2 -35 4 -22 2 12 2 32 0 45 -2 12 -4 2 -4 -23z"/>
<path d="M7180 2221 l-105 -6 94 -7 c129 -11 511 -10 511 1 0 20 -237 25 -500
12z"/>
<path d="M4285 2070 c3 -5 8 -10 11 -10 2 0 4 5 4 10 0 6 -5 10 -11 10 -5 0
-7 -4 -4 -10z"/>
<path d="M8937 983 c-4 -3 -7 -172 -7 -375 l0 -368 285 0 285 0 0 88 c0 80 -2
89 -25 111 -32 30 -38 55 -33 141 3 60 8 73 32 99 27 28 27 29 8 35 -17 6 -20
13 -15 41 3 19 0 49 -8 66 l-13 32 -19 -24 c-19 -24 -19 -24 2 -27 31 -5 29
-41 -2 -38 -13 2 -28 6 -34 9 -7 4 -9 -17 -5 -63 4 -58 2 -70 -10 -70 -9 0
-18 -9 -21 -20 -6 -25 -51 -43 -100 -41 -67 3 -74 -3 -68 -57 9 -66 0 -116
-21 -120 -26 -5 -29 23 -26 238 l3 195 65 3 c67 3 139 -12 152 -32 5 -6 8 -2
8 10 0 27 -32 34 -159 35 -87 1 -126 12 -58 16 17 1 53 5 80 9 47 6 47 6 47
45 l0 38 113 4 c110 3 109 3 -43 7 -143 3 -149 4 -70 10 62 5 28 7 -126 8
-116 1 -214 -1 -217 -5z m503 -253 c0 -5 -5 -10 -11 -10 -5 0 -7 5 -4 10 3 6
8 10 11 10 2 0 4 -4 4 -10z m-483 -212 c-2 -24 -4 -5 -4 42 0 47 2 66 4 43 2
-24 2 -62 0 -85z"/>
<path d="M9453 983 c9 -2 25 -2 35 0 9 3 1 5 -18 5 -19 0 -27 -2 -17 -5z"/>
<path d="M9328 873 c6 -2 18 -2 25 0 6 3 1 5 -13 5 -14 0 -19 -2 -12 -5z"/>
<path d="M9460 874 c0 -9 31 -37 36 -32 9 9 -8 38 -22 38 -8 0 -14 -3 -14 -6z"/>
<path d="M9218 863 c12 -2 32 -2 45 0 12 2 2 4 -23 4 -25 0 -35 -2 -22 -4z"/>
<path d="M9190 713 l0 -88 61 3 c59 4 61 5 75 38 21 51 4 114 -32 114 -8 0
-14 5 -14 10 0 6 -20 10 -45 10 l-45 0 0 -87z"/>
<path d="M9486 741 c-4 -7 -5 -15 -2 -18 9 -9 19 4 14 18 -4 11 -6 11 -12 0z"/>
<path d="M9480 568 c0 -24 4 -49 9 -57 7 -10 10 4 10 42 0 31 -5 57 -10 57 -5
0 -9 -19 -9 -42z"/>
</g>
</svg>
