<?xml version="1.0" standalone="no"?>
<!DOCTYPE svg PUBLIC "-//W3C//DTD SVG 20010904//EN"
 "http://www.w3.org/TR/2001/REC-SVG-20010904/DTD/svg10.dtd">
<svg version="1.0" xmlns="http://www.w3.org/2000/svg"
 width="1280.000000pt" height="720.000000pt" viewBox="0 0 1280.000000 720.000000"
 preserveAspectRatio="xMidYMid meet">
<metadata>
Created by potrace 1.16, written by Peter Selinger 2001-2019
</metadata>
<g transform="translate(0.000000,720.000000) scale(0.100000,-0.100000)"
fill="#000000" stroke="none">
<path d="M6275 7183 c-51 -8 -105 -85 -105 -150 0 -7 -8 -17 -17 -22 -10 -5
-31 -36 -48 -68 -16 -32 -33 -60 -37 -63 -4 -3 -19 -39 -33 -80 -71 -205 -85
-259 -110 -425 -14 -98 -46 -196 -72 -223 -7 -7 -13 -22 -13 -31 0 -10 -6 -24
-14 -30 -8 -7 -18 -27 -22 -44 -6 -29 -22 -65 -34 -77 -15 -15 -29 -53 -36
-95 -3 -26 -14 -55 -23 -65 -75 -80 -98 -155 -111 -365 -6 -88 -15 -161 -20
-163 -6 -2 -10 -35 -10 -73 0 -65 -17 -158 -31 -169 -3 -3 -9 -25 -12 -50 -15
-115 -20 -137 -32 -165 -7 -16 -16 -50 -19 -75 -3 -25 -10 -76 -16 -115 -17
-110 -28 -276 -30 -450 -1 -225 -11 -294 -44 -329 -14 -16 -26 -33 -26 -37 0
-5 -12 -20 -27 -34 -35 -32 -23 -32 32 1 48 28 66 26 58 -6 -4 -13 -14 -20
-30 -20 -13 0 -35 -8 -49 -17 -19 -12 -28 -13 -33 -4 -5 8 -12 7 -23 -6 -32
-36 -45 -80 -47 -152 -1 -40 -4 -77 -7 -82 -11 -18 41 -153 56 -144 5 3 20 0
32 -8 27 -16 39 -16 94 2 47 15 62 38 74 116 4 28 14 65 21 83 10 25 11 35 2
40 -17 10 14 72 36 72 14 0 16 -19 15 -165 -1 -91 -6 -178 -12 -193 -15 -40
-38 -502 -25 -503 4 0 44 -2 87 -4 69 -3 82 -7 98 -27 10 -13 18 -40 18 -63 0
-22 14 -89 30 -148 17 -59 34 -145 39 -190 5 -45 14 -95 20 -110 6 -16 11 -44
11 -63 0 -19 3 -34 8 -34 9 0 42 -91 42 -118 0 -12 7 -47 16 -79 9 -32 20 -82
24 -110 5 -29 15 -72 23 -95 8 -24 25 -74 37 -113 13 -38 30 -88 40 -110 10
-22 27 -75 39 -118 12 -43 31 -92 41 -110 11 -18 20 -40 20 -49 0 -9 25 -83
55 -165 88 -238 98 -307 49 -336 -8 -4 -14 -15 -14 -22 0 -8 -4 -15 -10 -15
-5 0 -10 -4 -10 -10 0 -23 -67 -70 -98 -70 -11 0 -27 -9 -37 -20 -10 -11 -26
-22 -36 -25 -11 -4 -19 -12 -19 -20 0 -9 -24 -15 -80 -20 -44 -4 -80 -11 -80
-16 0 -5 -6 -9 -13 -9 -47 0 -92 -54 -85 -102 4 -33 46 -37 297 -33 195 3 215
5 235 23 11 11 39 29 61 40 22 12 34 21 27 22 -35 1 5 19 65 30 37 6 73 16 79
21 7 5 39 14 72 20 63 11 82 30 82 84 0 30 -41 159 -52 163 -4 2 -8 8 -8 13 0
6 -9 29 -20 51 -11 23 -20 54 -20 70 0 15 -4 28 -10 28 -5 0 -10 14 -10 31 0
17 -7 61 -15 98 -16 74 -33 163 -45 231 -4 25 -15 83 -24 130 -9 47 -21 108
-26 135 -17 97 -34 170 -40 175 -3 3 -15 40 -25 82 -10 43 -22 78 -26 78 -4 0
-10 19 -14 42 -11 72 -28 118 -42 118 -9 0 -13 13 -13 40 0 29 4 40 15 40 19
0 20 36 1 43 -16 6 -49 104 -40 118 2 5 -2 48 -10 96 -8 48 -16 148 -18 222
l-3 134 90 20 c79 17 98 18 160 7 108 -19 142 -29 156 -46 9 -11 15 -75 21
-207 5 -106 12 -202 17 -214 7 -15 5 -27 -4 -40 -20 -25 -20 -113 -1 -113 23
0 27 -31 26 -182 -4 -327 -3 -407 7 -478 53 -377 67 -544 68 -792 0 -130 3
-239 6 -242 4 -4 30 -9 59 -13 40 -5 56 -3 64 8 6 8 26 21 45 29 18 7 45 23
60 35 44 37 129 62 236 70 98 7 181 28 257 66 20 10 39 23 43 29 3 5 13 10 21
10 20 0 54 36 54 58 0 28 -70 56 -119 47 -22 -4 -41 -11 -41 -16 0 -5 -7 -9
-15 -9 -8 0 -24 -5 -35 -12 -19 -12 -89 -1 -145 22 -11 4 -42 16 -70 26 -27
10 -56 24 -63 31 -7 7 -20 13 -27 13 -7 0 -22 24 -32 53 -21 57 -20 113 8 602
13 222 15 379 8 580 -2 72 0 117 8 131 9 16 9 67 -1 219 -14 219 -9 277 27
299 27 17 115 36 169 36 l41 0 -7 74 c-4 40 -11 87 -15 104 -5 17 -14 100 -20
184 -11 149 -69 548 -82 558 -3 3 -9 46 -13 95 -3 50 -11 108 -16 130 -29 116
-43 181 -59 295 -7 41 -18 116 -26 165 -19 113 -25 179 -31 380 -3 88 -10 164
-15 169 -5 6 -9 42 -9 80 0 39 -4 121 -9 182 -12 142 -4 178 49 226 49 43 123
72 150 58 10 -6 31 -10 45 -10 23 0 82 -35 110 -66 18 -19 135 -104 144 -104
5 0 11 -9 14 -20 3 -11 12 -20 21 -20 17 0 98 -49 104 -62 2 -5 10 -8 18 -8 8
0 14 -4 14 -10 0 -5 17 -18 38 -29 20 -10 56 -38 80 -62 39 -40 42 -46 42 -99
0 -73 33 -170 76 -221 19 -23 34 -45 34 -50 0 -5 12 -33 26 -62 41 -82 34
-197 -12 -197 -7 0 -33 -9 -56 -19 -75 -34 -112 -48 -168 -66 -86 -27 -140
-62 -140 -90 0 -29 24 -38 103 -38 31 1 57 -2 57 -6 0 -8 -109 -41 -138 -41
-12 0 -22 -6 -22 -14 0 -18 53 -25 120 -15 30 5 78 11 105 14 81 10 152 36
166 62 7 13 19 23 26 23 7 0 16 7 19 15 4 9 19 15 35 15 26 0 32 6 49 46 23
52 29 194 9 194 -8 0 -10 17 -6 58 7 62 -22 342 -35 342 -4 0 -8 18 -8 40 0
22 -4 40 -9 40 -5 0 -12 18 -16 40 -4 22 -11 40 -16 40 -5 0 -9 6 -9 14 0 7
-7 19 -15 26 -8 7 -15 22 -15 34 0 28 -52 126 -67 126 -7 0 -13 9 -13 20 0 11
-7 20 -15 20 -8 0 -26 11 -40 25 -14 14 -25 32 -25 40 0 8 -9 15 -19 15 -10 0
-21 7 -25 15 -3 8 -12 15 -21 15 -8 0 -15 6 -15 13 0 6 -27 32 -60 56 -33 24
-60 47 -60 52 0 5 -9 9 -19 9 -11 0 -21 3 -23 8 -1 4 -20 16 -40 26 -21 11
-38 25 -38 33 0 7 -10 13 -21 13 -12 0 -39 18 -60 40 -22 22 -43 40 -49 40 -5
0 -10 4 -10 8 0 12 -79 92 -90 92 -6 0 -10 5 -10 10 0 24 -61 70 -93 70 -58 1
-92 46 -40 52 24 3 26 5 13 16 -8 7 -30 26 -49 42 -19 17 -43 30 -53 30 -11 0
-18 7 -18 20 0 11 -12 39 -27 63 -38 58 -73 128 -73 144 0 7 -4 13 -9 13 -5 0
-11 10 -14 23 -3 12 -12 40 -21 63 -8 23 -22 83 -31 135 -17 98 -62 246 -81
266 -6 6 -17 25 -24 42 -7 17 -19 31 -26 31 -8 0 -14 9 -14 19 0 37 -123 221
-147 221 -7 0 -13 6 -13 13 0 26 -71 49 -165 52 -49 2 -103 1 -120 -2z m380
-325 c31 -77 37 -93 46 -122 9 -32 -9 -176 -23 -176 -4 0 -8 -17 -8 -38 0 -21
-7 -47 -15 -58 -13 -17 -14 -14 -15 39 0 31 4 57 9 57 4 0 3 18 -2 40 -6 22
-15 40 -19 40 -4 0 -8 20 -8 45 0 33 4 45 15 45 21 0 19 17 -10 94 -30 79 -30
76 -7 76 13 0 25 -14 37 -42z m1110 -2548 c-3 -5 -12 -7 -20 -3 -21 7 -19 13
6 13 11 0 18 -4 14 -10z"/>
</g>
</svg>
