<?xml version="1.0" standalone="no"?>
<!DOCTYPE svg PUBLIC "-//W3C//DTD SVG 20010904//EN"
 "http://www.w3.org/TR/2001/REC-SVG-20010904/DTD/svg10.dtd">
<svg version="1.0" xmlns="http://www.w3.org/2000/svg"
 width="1280.000000pt" height="720.000000pt" viewBox="0 0 1280.000000 720.000000"
 preserveAspectRatio="xMidYMid meet">
<metadata>
Created by potrace 1.16, written by Peter Selinger 2001-2019
</metadata>
<g transform="translate(0.000000,720.000000) scale(0.100000,-0.100000)"
fill="#000000" stroke="none">
<path d="M6206 7089 c-14 -17 -31 -50 -37 -73 -5 -23 -23 -57 -40 -75 -16 -19
-29 -40 -29 -47 0 -8 -4 -14 -10 -14 -5 0 -10 -7 -10 -15 0 -9 -9 -28 -20 -43
-14 -19 -28 -68 -41 -147 -12 -66 -24 -127 -29 -135 -4 -9 -17 -79 -29 -155
-12 -77 -26 -156 -31 -176 -6 -20 -10 -47 -10 -60 0 -20 -60 -133 -80 -149
-33 -28 -70 -117 -79 -190 -7 -56 -29 -108 -60 -142 -43 -45 -69 -141 -81
-288 -5 -69 -14 -162 -19 -207 -10 -84 -39 -193 -52 -193 -4 0 -10 13 -14 29
l-6 30 -342 5 c-429 7 -1061 23 -1147 30 -36 3 -282 7 -547 9 l-483 4 0 -184
0 -183 203 0 c111 0 231 4 267 9 36 5 239 13 453 17 354 6 387 5 387 -10 0 -9
8 -16 19 -16 10 0 45 -3 78 -6 54 -6 62 -4 81 16 19 21 22 21 43 6 20 -13 58
-16 234 -17 115 -1 315 -4 443 -8 149 -4 237 -2 243 4 14 14 29 -12 29 -50 0
-16 -11 -54 -25 -83 -14 -30 -25 -64 -25 -76 0 -12 -6 -45 -14 -72 -14 -50
-28 -145 -46 -314 -17 -148 -14 -143 -60 -135 -26 4 -40 3 -40 -4 0 -6 18 -11
40 -11 28 0 40 -4 40 -14 0 -22 -37 -26 -219 -25 -94 1 -174 -1 -178 -4 -3 -4
-13 -2 -20 5 -11 9 -16 9 -23 -2 -7 -11 -11 -11 -24 -1 -12 10 -22 10 -49 0
-32 -11 -34 -15 -27 -40 10 -35 2 -186 -11 -221 -8 -18 -8 -37 -1 -60 6 -18 9
-103 7 -190 -2 -129 0 -158 11 -158 8 0 14 9 14 21 0 12 8 23 20 26 11 3 20 9
20 14 0 5 9 9 20 9 13 0 20 7 20 20 0 24 16 26 28 4 6 -11 11 -13 16 -5 14 23
36 11 36 -19 0 -16 5 -30 10 -30 18 0 11 -22 -9 -27 -10 -2 -24 -16 -30 -29
-6 -13 -17 -24 -26 -24 -8 0 -16 -4 -16 -10 -1 -5 -2 -14 -3 -19 -2 -19 -16
-24 -31 -11 -11 9 -18 10 -28 1 -16 -13 -27 -5 -27 21 0 17 -29 27 -31 11 0
-5 -2 -25 -4 -47 l-4 -39 49 6 c33 4 50 2 50 -5 0 -7 5 -6 15 2 14 12 285 21
285 10 0 -3 60 -4 132 -2 201 5 200 5 196 -22 -4 -26 -52 -34 -208 -35 -142
-2 -533 20 -544 30 -5 5 -8 130 -7 289 1 154 -1 280 -6 280 -7 0 -12 -174 -17
-535 -1 -43 -5 -62 -16 -66 -8 -4 -399 -4 -867 -1 l-853 5 0 -21 c0 -21 3 -22
137 -22 75 0 134 -3 131 -6 -4 -3 -65 -5 -137 -5 -124 1 -131 0 -131 -18 0
-17 8 -20 58 -23 54 -3 57 -4 60 -30 3 -28 3 -28 -57 -28 -54 0 -61 -2 -61
-20 0 -18 7 -20 55 -20 l55 0 0 -95 0 -95 -32 0 c-71 0 -78 -7 -78 -71 0 -48
3 -57 15 -53 8 4 15 1 15 -5 0 -6 -7 -11 -15 -11 -11 0 -15 -11 -15 -40 0 -35
3 -40 24 -40 22 0 24 -5 31 -77 4 -49 3 -79 -3 -81 -5 -1 -8 -12 -5 -22 3 -11
0 -20 -6 -20 -6 0 -11 5 -11 11 0 8 -5 8 -15 -1 -11 -9 -15 -32 -15 -81 0 -61
2 -69 19 -69 18 0 68 -48 89 -86 8 -15 13 -16 25 -6 8 7 18 23 21 36 6 23 36
45 36 26 0 -6 18 -10 40 -10 22 0 40 -4 40 -10 0 -5 8 -10 18 -10 13 0 23 13
32 40 13 40 30 54 30 25 0 -11 11 -15 37 -15 30 0 43 -7 75 -42 44 -48 50 -45
69 29 12 46 24 53 45 26 13 -17 13 -17 14 0 0 9 4 17 8 17 17 0 72 -67 72 -88
0 -37 14 -25 39 33 l24 55 61 0 62 0 18 -50 c22 -60 36 -72 36 -31 0 19 10 40
28 58 25 25 33 27 122 30 52 1 87 0 78 -3 -24 -7 -26 -84 -3 -84 8 0 15 5 15
11 0 13 55 69 68 69 6 0 13 -6 15 -12 4 -10 6 -10 6 0 1 6 7 12 15 12 9 0 16
-17 21 -47 l8 -48 13 48 c7 27 14 50 16 52 2 2 118 4 258 4 140 0 278 0 305 1
74 1 92 -6 104 -42 l12 -33 19 25 c11 14 20 31 20 39 0 10 12 12 50 9 38 -4
56 -12 77 -34 l28 -29 3 31 3 32 77 7 c53 5 77 4 80 -4 2 -6 10 -11 18 -11 8
0 14 -7 14 -15 0 -8 5 -15 10 -15 6 0 10 7 10 15 0 8 7 15 15 15 8 0 15 4 15
8 0 10 196 14 315 6 l80 -5 4 -202 c2 -111 7 -209 12 -218 4 -9 11 -46 15 -83
4 -36 10 -66 15 -66 7 0 18 -37 39 -137 5 -23 19 -79 31 -125 11 -46 24 -94
27 -108 3 -14 8 -27 11 -30 4 -3 13 -30 20 -60 20 -81 53 -174 64 -181 22 -15
16 -239 -7 -239 -6 0 -21 -16 -34 -36 -12 -19 -33 -39 -45 -44 -12 -5 -40 -25
-62 -44 -22 -20 -50 -36 -62 -36 -13 0 -23 -4 -23 -10 0 -5 -18 -13 -40 -16
-34 -6 -40 -10 -40 -30 0 -13 -4 -24 -9 -24 -5 0 -12 -9 -16 -20 -7 -21 10
-60 26 -60 9 0 68 -38 79 -51 3 -3 22 -12 43 -18 20 -7 37 -19 37 -27 0 -9 11
-14 34 -14 48 0 96 -48 96 -96 0 -24 5 -34 15 -34 11 0 15 -11 15 -40 l0 -40
-80 0 -80 0 0 -40 0 -40 221 0 221 0 -7 82 c-4 47 -13 90 -21 99 -8 8 -14 21
-14 27 0 7 -16 12 -40 12 -22 0 -40 5 -40 10 0 6 9 10 20 10 17 0 20 7 20 40
0 22 5 40 10 40 6 0 10 5 10 11 0 7 15 26 33 44 31 32 51 57 63 82 3 7 -12 30
-35 52 -23 22 -41 44 -41 49 0 5 11 17 25 26 44 29 49 50 26 119 -12 33 -21
85 -21 115 0 42 -6 61 -25 86 -27 35 -32 56 -14 56 23 0 -19 620 -53 780 -6
30 -12 139 -13 242 -2 182 -2 187 19 192 12 2 88 5 169 6 157 1 177 -5 177
-48 0 -11 10 -48 21 -83 19 -55 22 -91 24 -264 2 -110 8 -243 14 -295 6 -52
18 -160 27 -240 8 -80 20 -181 25 -225 14 -121 17 -264 9 -424 -4 -89 -3 -157
3 -175 6 -17 16 -48 23 -68 8 -23 10 -38 4 -38 -6 0 -10 -18 -10 -40 0 -22 -4
-40 -10 -40 -5 0 -10 -18 -10 -40 0 -33 -3 -40 -20 -40 -17 0 -20 -7 -20 -40
0 -22 -4 -40 -10 -40 -5 0 -10 -18 -10 -40 l0 -40 165 0 165 0 0 80 0 80 -35
0 c-34 0 -35 1 -35 40 l0 40 95 0 95 0 0 38 c0 30 5 39 27 50 15 6 35 12 45
12 21 0 59 56 51 75 -2 7 -29 29 -59 49 -30 20 -54 40 -54 45 0 5 18 12 40 16
47 8 120 58 120 83 0 43 -59 72 -145 72 -43 0 -96 27 -125 63 -10 12 -23 46
-30 77 -7 30 -17 70 -22 88 -7 23 -6 42 1 60 6 15 15 65 20 112 6 47 19 150
30 230 25 189 35 421 26 615 -6 115 -11 155 -20 155 -14 0 -25 62 -17 93 2 9
11 17 18 17 10 0 14 13 14 46 0 38 -3 45 -17 42 -18 -3 -20 -8 -22 -58 -1 -17
-4 -21 -12 -13 -14 14 -12 317 2 383 6 27 18 55 29 65 10 9 55 22 104 30 48 8
91 17 96 20 19 12 13 82 -35 425 -17 120 -24 239 -30 495 -2 99 -8 212 -14
250 -6 39 -16 111 -21 160 -5 50 -14 117 -20 150 -10 63 -27 181 -37 253 -3
23 -9 42 -14 42 -5 0 -9 24 -9 54 l0 54 134 0 c74 0 139 3 145 6 6 4 11 22 11
41 l0 33 -132 7 c-73 3 -144 5 -157 3 -21 -3 -26 2 -34 35 -5 20 -6 49 -2 64
l6 26 82 -7 c45 -3 213 -6 373 -6 l291 0 11 -52 c31 -145 50 -395 32 -428 -6
-11 -17 -20 -25 -20 -8 0 -15 -4 -15 -10 0 -5 -18 -13 -40 -16 -22 -4 -40 -10
-40 -15 0 -5 -18 -9 -40 -9 -22 0 -40 -3 -40 -7 0 -11 -80 -43 -124 -50 -20
-3 -36 -10 -36 -14 0 -5 -7 -9 -16 -9 -9 0 -14 -6 -11 -12 4 -13 29 -15 101
-7 48 5 55 -9 22 -44 -18 -19 -38 -28 -78 -32 -29 -3 -64 -9 -78 -12 -47 -10
58 -29 115 -21 28 5 86 8 130 6 66 -1 88 3 125 22 25 12 47 26 50 30 3 4 20
15 38 24 18 9 36 24 39 32 3 7 12 14 19 14 8 0 17 8 20 18 3 9 9 26 13 37 36
94 42 129 35 195 -5 49 -3 70 5 70 7 0 11 27 11 80 0 47 4 80 10 80 6 0 10 32
10 75 l0 75 143 -5 c78 -2 358 -7 622 -10 264 -3 537 -8 608 -11 l127 -7 0 52
0 51 -70 0 c-44 0 -70 4 -70 11 0 8 -175 10 -615 8 l-615 -3 0 -33 c0 -18 -4
-33 -10 -33 -5 0 -10 16 -10 35 0 33 -2 35 -35 35 -39 0 -75 -28 -75 -60 0
-11 -4 -20 -9 -20 -5 0 -12 36 -16 80 -4 44 -11 80 -16 80 -5 0 -9 12 -9 28
-1 15 -7 38 -15 52 -8 14 -14 33 -15 42 0 17 -58 110 -72 116 -5 2 -8 7 -8 12
0 11 -59 70 -71 70 -5 0 -9 8 -9 19 0 10 -9 21 -20 24 -11 3 -20 12 -20 21 0
9 -8 16 -20 16 -13 0 -20 7 -20 18 0 11 -11 24 -25 30 -14 6 -25 16 -25 22 0
5 -7 10 -15 10 -8 0 -15 6 -15 13 0 6 -18 20 -40 30 -22 10 -40 25 -40 33 0 8
-4 14 -9 14 -5 0 -25 16 -44 35 -19 19 -39 35 -44 35 -11 1 -63 77 -63 93 0 7
-9 18 -20 25 -11 7 -20 17 -20 23 0 5 -9 19 -20 31 -19 20 -25 48 -21 91 2 13
-5 17 -35 17 -31 0 -36 -3 -31 -20 3 -11 1 -20 -4 -20 -5 0 -9 4 -9 9 0 5 -17
12 -37 16 -57 10 -85 55 -35 55 23 1 24 2 10 11 -10 5 -18 17 -18 24 0 8 -6
15 -12 15 -23 1 -57 37 -64 66 -3 16 -11 34 -18 39 -15 14 -35 46 -42 68 -4 9
-10 17 -15 17 -5 0 -9 7 -9 15 0 15 -19 56 -31 65 -16 12 -62 172 -84 285 -13
74 -60 210 -79 235 -7 8 -21 33 -31 54 -11 22 -42 73 -70 114 -27 41 -54 82
-59 91 -5 9 -34 35 -64 59 l-55 42 -127 0 -128 0 -26 -31z m436 -279 c9 -19
26 -65 38 -103 21 -64 21 -70 6 -141 -8 -41 -22 -89 -30 -108 l-14 -33 -1 67
c-1 40 -6 68 -12 70 -6 2 -14 27 -17 56 -4 43 -2 52 12 52 10 0 16 9 16 25 0
14 -3 25 -8 25 -4 0 -12 19 -19 43 -6 23 -14 53 -18 66 -13 38 27 22 47 -19z
m551 -1414 c7 -8 39 -31 71 -51 31 -20 60 -43 63 -51 3 -8 9 -14 13 -14 4 0
51 -42 104 -94 53 -51 110 -99 126 -106 17 -7 30 -19 30 -26 0 -8 4 -14 9 -14
6 0 20 -18 32 -40 22 -39 39 -52 39 -29 0 5 5 7 10 4 16 -10 12 -52 -6 -59 -9
-3 -85 -6 -170 -6 -130 0 -154 -2 -154 -15 0 -12 -20 -15 -120 -15 -100 0
-120 3 -120 15 0 11 -11 15 -39 15 -22 0 -43 5 -47 12 -5 8 -11 6 -20 -7 -12
-16 -14 -16 -20 -2 -13 35 21 367 38 367 4 0 8 9 8 19 0 10 7 21 15 25 8 3 15
12 15 21 0 8 4 15 10 15 5 0 20 11 34 25 28 28 58 32 79 11z m2070 -543 c-13
-2 -33 -2 -45 0 -13 2 -3 4 22 4 25 0 35 -2 23 -4z m-2210 -29 c1 -4 -8 -9
-20 -10 -27 -4 -31 13 -5 18 19 5 23 3 25 -8z m-2377 -16 c2 -3 2 -13 -2 -22
-5 -14 -19 -16 -81 -14 -54 1 -77 6 -81 16 -2 8 1 18 9 24 14 9 145 6 155 -4z
m44 -58 c0 -5 -4 -10 -10 -10 -5 0 -10 5 -10 10 0 6 5 10 10 10 6 0 10 -4 10
-10z m799 -6 c17 -15 -44 -19 -281 -18 -184 0 -272 4 -276 12 -4 6 -25 12 -47
14 -22 2 104 2 280 0 176 -3 322 -6 324 -8z m324 -29 c-3 -9 -8 -14 -10 -11
-3 3 -2 9 2 15 9 16 15 13 8 -4z m-225 -681 c-8 -27 -13 -33 -16 -20 -4 17 17
70 24 63 2 -2 -2 -21 -8 -43z m-18 -89 c0 -26 -14 -33 -25 -15 -9 14 1 40 15
40 5 0 10 -11 10 -25z m0 -80 c0 -19 -4 -35 -10 -35 -11 0 -13 30 -4 54 10 25
14 19 14 -19z m-440 -65 c0 -6 -13 -9 -30 -8 -16 1 -30 6 -30 10 0 4 14 8 30
8 17 0 30 -5 30 -10z m-27 -82 c-8 -15 -43 -8 -43 8 0 10 6 14 15 10 10 -4 15
1 16 17 1 21 1 20 8 -3 5 -14 6 -28 4 -32z m227 33 c0 -22 -23 -29 -105 -32
-47 -2 -55 0 -55 19 0 11 58 27 113 30 41 3 47 1 47 -17z m-194 -28 c-10 -10
-19 5 -10 18 6 11 8 11 12 0 2 -7 1 -15 -2 -18z m-206 -3 c0 -13 -11 -13 -30
0 -12 8 -11 10 8 10 12 0 22 -4 22 -10z m80 0 c0 -5 -2 -10 -4 -10 -3 0 -8 5
-11 10 -3 6 -1 10 4 10 6 0 11 -4 11 -10z m520 -5 c0 -10 -10 -15 -30 -15 -49
0 -34 24 18 29 6 0 12 -6 12 -14z m-100 -80 l0 -45 -37 2 c-37 1 -37 1 -5 5
30 4 32 7 32 44 0 21 2 39 5 39 3 0 5 -20 5 -45z m79 -22 c11 -21 9 -23 -13
-23 -24 0 -25 2 -14 25 6 14 12 24 13 23 1 -2 8 -13 14 -25z m-504 -3 c3 -5
-1 -10 -10 -10 -9 0 -13 5 -10 10 3 6 8 10 10 10 2 0 7 -4 10 -10z m410 -69
c7 -23 -4 -53 -18 -48 -19 6 -19 27 0 27 17 1 17 1 1 11 -22 12 -23 29 -4 29
8 0 17 -8 21 -19z m-505 -55 c0 -11 -19 -15 -25 -6 -3 5 1 10 9 10 9 0 16 -2
16 -4z m105 -6 c-3 -5 -13 -10 -21 -10 -8 0 -14 5 -14 10 0 6 9 10 21 10 11 0
17 -4 14 -10z m285 0 c0 -5 -9 -10 -20 -10 -11 0 -20 5 -20 10 0 6 9 10 20 10
11 0 20 -4 20 -10z m2 -137 c0 -10 0 -29 -1 -41 -1 -13 3 -30 10 -38 9 -11 8
-14 -5 -14 -39 0 -51 16 -48 64 3 37 8 46 23 46 11 0 20 -8 21 -17z m38 -48
c0 -17 -2 -17 -10 -5 -5 8 -10 24 -10 35 0 17 2 17 10 5 5 -8 10 -24 10 -35z
m165 25 c0 -7 -6 -15 -12 -17 -8 -3 -13 4 -13 17 0 13 5 20 13 18 6 -3 12 -11
12 -18z m-320 -38 c-8 -8 -25 10 -25 26 0 13 2 13 14 -4 8 -10 13 -21 11 -22z
m210 18 c-3 -5 -10 -10 -16 -10 -5 0 -9 5 -9 10 0 6 7 10 16 10 8 0 12 -4 9
-10z m-7 -38 c2 -8 -8 -12 -27 -12 -33 0 -42 16 -13 23 23 6 35 3 40 -11z
m-1740 -237 c8 -8 -311 -5 -330 3 -10 4 60 6 154 4 94 -1 174 -4 176 -7z m72
5 c0 -5 -4 -10 -10 -10 -5 0 -10 5 -10 10 0 6 5 10 10 10 6 0 10 -4 10 -10z
m146 -2 c3 -4 -27 -8 -65 -8 -41 0 -71 4 -71 10 0 12 129 10 136 -2z m-616
-73 c0 -23 -3 -25 -49 -25 -52 0 -65 8 -55 34 4 12 20 16 55 16 46 0 49 -2 49
-25z m240 10 c0 -24 -31 -33 -110 -32 -75 1 -93 8 -83 34 8 20 193 19 193 -2z
m1878 -14 c7 -46 -6 -71 -37 -71 -15 0 -31 3 -35 8 -10 9 -56 10 -56 1 0 -3
-11 -6 -24 -6 -18 0 -26 6 -31 24 -12 50 0 62 73 66 103 5 107 5 110 -22z
m122 -16 c0 -25 -4 -45 -10 -45 -6 0 -10 -34 -10 -81 0 -72 2 -81 20 -86 17
-5 19 -12 15 -56 -3 -28 -9 -55 -14 -60 -4 -4 -26 -7 -47 -5 l-39 3 -3 98 c-2
62 1 97 8 97 5 0 10 18 10 40 0 22 -4 40 -10 40 -11 0 -14 59 -4 84 4 11 19
16 45 16 l39 0 0 -45z m-1840 20 c0 -11 -12 -15 -42 -16 -70 -2 -85 2 -73 20
3 6 31 11 61 11 41 0 54 -4 54 -15z m215 0 c0 -9 -134 -24 -155 -17 -6 2 -10
10 -10 18 0 12 16 14 83 12 46 -2 82 -7 82 -13z m243 3 c-3 -9 -33 -14 -93
-16 -93 -3 -120 1 -110 18 10 16 208 13 203 -2z m162 -33 c0 -38 -3 -45 -20
-45 -15 0 -20 7 -20 29 0 26 -3 29 -31 27 -21 -2 -33 4 -40 16 -9 16 -5 18 51
18 l60 0 0 -45z m700 14 c0 -26 -3 -29 -20 -24 -11 3 -20 2 -20 -3 0 -11 -246
-24 -470 -26 l-155 -1 -3 28 c-7 59 -22 57 338 57 l330 0 0 -31z m168 -7 c3
-29 1 -32 -20 -28 -13 3 -42 5 -65 5 -41 1 -43 2 -43 31 l0 31 63 -3 62 -3 3
-33z m-1030 -164 c-2 -37 -9 -73 -15 -79 -20 -20 -171 -9 -185 13 -9 16 -9
116 0 139 6 12 25 15 92 16 61 0 85 4 89 14 9 29 22 -40 19 -103z m-858 2 l0
-78 -55 -4 -55 -3 0 72 c0 97 1 99 60 95 l50 -4 0 -78z m226 24 c3 -19 3 -49
0 -67 -5 -28 -10 -32 -39 -33 -17 -1 -57 -3 -87 -5 l-55 -3 -3 59 c-5 97 -1
104 66 107 75 4 109 -13 118 -58z m763 57 c10 -6 15 -39 19 -110 4 -96 4 -101
-16 -101 -12 0 -22 8 -26 23 -3 13 -14 23 -26 24 -19 2 -24 -7 -21 -34 1 -7
-3 -13 -9 -13 -10 0 -15 201 -5 211 8 9 70 9 84 0z m1120 -121 c1 -86 -5 -116
-25 -124 -21 -8 -164 5 -164 15 0 5 39 10 88 11 l87 2 -83 3 -82 4 1 62 c3 82
10 95 51 91 56 -5 88 5 88 27 0 11 5 17 10 14 6 -3 11 2 11 12 3 43 17 -49 18
-117z m-1746 111 l37 -1 0 -74 0 -74 -57 -5 c-32 -2 -59 -3 -61 -2 -7 7 -14
115 -9 137 5 18 13 24 29 22 13 -1 40 -3 61 -3z m228 -1 c16 -9 19 -22 19 -75
0 -35 -5 -67 -10 -70 -6 -4 -43 -7 -83 -7 l-72 -1 -3 65 c-4 83 9 98 79 98 28
0 59 -5 70 -10z m519 -17 c0 -16 14 -18 125 -21 116 -4 125 -3 126 15 1 16 2
16 6 1 5 -19 33 -25 33 -8 0 6 10 2 22 -10 19 -18 36 -20 142 -22 67 0 127 -1
134 -1 9 1 12 -22 12 -83 0 -54 -4 -84 -11 -84 -7 0 -10 21 -7 60 1 33 0 60
-4 60 -5 0 -8 -22 -8 -49 l0 -50 -37 6 c-26 4 -34 3 -29 -5 4 -7 22 -12 39
-13 27 0 29 -2 12 -9 -11 -5 -139 -8 -285 -8 -165 0 -246 4 -215 8 28 5 137 9
243 9 108 1 192 5 192 10 0 5 -105 8 -252 5 -139 -2 -263 -1 -275 2 -21 6 -23
12 -23 83 0 42 5 83 10 91 6 10 10 11 10 3 0 -7 5 -13 10 -13 6 0 10 9 10 20
0 11 5 20 10 20 6 0 10 -8 10 -17z m740 -54 c0 -6 7 -9 15 -5 11 4 15 -1 14
-17 0 -12 -3 -16 -6 -9 -12 30 -23 7 -23 -48 0 -47 3 -60 15 -60 8 0 15 -4 15
-10 0 -6 -27 -10 -60 -10 -68 0 -83 19 -17 22 l42 1 -42 4 -43 4 0 45 0 44 40
0 c22 0 40 5 40 10 0 6 -18 10 -40 10 -29 0 -40 4 -40 15 0 11 12 15 45 15 26
0 45 -5 45 -11z m1158 -101 c-3 -46 -6 -53 -25 -54 -25 -1 -36 28 -27 75 5 24
12 31 31 31 23 0 24 -3 21 -52z m-605 26 c74 -7 94 -24 83 -70 -6 -23 -10 -24
-95 -24 l-88 0 -7 31 c-3 17 -6 43 -6 56 0 21 4 24 23 20 12 -4 53 -9 90 -13z
m835 0 c37 -6 43 -10 40 -28 -2 -16 -11 -22 -40 -24 -26 -2 -38 -8 -38 -18 0
-13 -13 -15 -72 -12 -72 3 -73 3 -79 33 -3 17 -4 35 -1 42 4 13 120 17 190 7z
m10 -123 c13 5 26 8 27 7 6 -10 27 -260 22 -272 -4 -9 -15 -16 -26 -16 -10 0
-32 -7 -47 -15 -29 -15 -128 -20 -158 -9 -21 8 -10 24 15 24 20 0 20 4 14 128
-4 70 -8 132 -10 139 -5 16 21 20 84 12 29 -4 65 -3 79 2z m-243 -154 c0 -90
-4 -148 -10 -150 -6 -1 -15 49 -22 118 -17 179 -17 182 10 180 22 -2 22 -3 22
-148z m76 38 c3 -82 0 -100 -11 -100 -12 0 -16 20 -18 94 -1 52 0 101 3 109
13 34 24 -8 26 -103z m-2238 -44 c-1 -56 -4 -109 -7 -117 -4 -10 -22 -14 -61
-14 -30 0 -55 3 -56 8 -7 69 -9 156 -4 190 l6 44 62 -4 62 -4 -2 -103z m-243
26 c0 -51 -3 -64 -20 -75 -14 -8 -20 -23 -20 -47 0 -34 -1 -35 -39 -35 -35 0
-39 3 -45 31 -9 45 -7 162 3 177 5 9 23 13 49 11 23 -2 44 0 48 4 16 15 24 -8
24 -66z m387 43 c13 0 15 -13 11 -83 -5 -90 -13 -116 -32 -97 -8 8 -7 13 4 20
12 7 12 12 2 22 -8 8 -12 40 -11 93 1 44 3 72 6 63 2 -10 11 -18 20 -18z m410
-67 c-6 -52 -15 -93 -21 -94 -16 -1 26 -17 47 -18 15 -1 17 9 17 78 l0 79 48
4 c26 3 54 1 62 -3 13 -7 13 -8 0 -9 -8 -1 5 -9 30 -18 l45 -18 1 -59 c1 -57
2 -60 27 -63 25 -3 27 0 27 31 0 63 13 157 21 157 5 0 9 -42 9 -94 l0 -94 -50
-11 c-57 -12 -313 -14 -498 -4 l-122 6 0 95 0 94 40 -4 c22 -2 41 1 43 7 2 5
7 -26 12 -70 5 -55 4 -80 -4 -83 -6 -2 -11 -10 -11 -18 0 -10 12 -14 41 -14
l42 0 -7 95 -7 95 101 0 c81 0 102 3 107 15 11 30 11 10 0 -82z m-1017 72 c9
-6 10 -27 5 -84 -5 -42 -9 -85 -10 -95 -1 -16 -11 -20 -53 -22 l-52 -2 0 93
c0 51 2 100 5 107 6 16 81 18 105 3z m780 -40 c-7 -45 -7 -46 -9 -13 -1 32 8
74 14 66 1 -2 -1 -25 -5 -53z m926 40 c12 -11 13 -33 8 -110 l-7 -95 -83 0
-84 0 0 100 0 100 40 0 c34 0 40 -3 40 -21 0 -18 2 -19 15 -9 8 7 15 18 15 25
0 8 8 16 18 18 9 3 18 5 20 6 2 0 10 -6 18 -14z m158 -1 c10 -27 7 -152 -5
-159 -7 -5 -4 -14 7 -26 17 -18 15 -19 -40 -19 -39 0 -55 3 -50 11 3 6 6 56 5
110 l-2 99 39 0 c27 0 42 -5 46 -16z m100 -33 c15 -13 15 -16 1 -38 -9 -13
-13 -28 -10 -33 7 -12 -12 -50 -25 -50 -11 0 -14 129 -3 156 6 16 7 16 14 -2
4 -11 14 -26 23 -33z m41 39 c3 -5 1 -10 -4 -10 -6 0 -11 5 -11 10 0 6 2 10 4
10 3 0 8 -4 11 -10z m119 -6 c3 -9 3 -58 0 -109 -8 -107 -5 -105 -111 -105
-69 0 -93 6 -93 25 0 9 11 12 38 9 20 -3 57 -1 82 4 41 9 42 10 13 11 l-33 1
0 54 c0 38 -4 55 -15 60 -13 4 -12 9 3 36 15 26 22 30 63 30 34 0 49 -4 53
-16z m-2370 -26 c-4 -13 -7 -60 -6 -105 l1 -83 -32 4 c-18 3 -38 5 -44 5 -17
1 -17 83 -1 99 10 10 10 15 -2 22 -12 8 -10 10 8 10 19 0 22 -5 23 -47 2 -33
3 -39 6 -19 7 47 -6 94 -27 101 -11 4 -20 13 -20 21 0 10 13 14 51 14 48 0 50
-1 43 -22z m543 -40 c-2 -13 -4 -3 -4 22 0 25 2 35 4 23 2 -13 2 -33 0 -45z
m1173 22 c0 -22 5 -40 10 -40 6 0 10 -27 10 -60 l0 -60 -55 0 c-30 0 -55 3
-56 8 0 4 -2 16 -5 27 -2 11 -1 53 2 93 l6 72 44 0 44 0 0 -40z m-903 -62 c-3
-8 -6 -5 -6 6 -1 11 2 17 5 13 3 -3 4 -12 1 -19z m-349 -70 c-2 -6 -10 -14
-16 -16 -7 -2 -10 2 -6 12 7 18 28 22 22 4z"/>
<path d="M5464 2864 c3 -9 6 -18 6 -20 0 -3 5 -2 10 1 16 10 12 35 -6 35 -11
0 -14 -5 -10 -16z"/>
<path d="M5453 2633 c9 -2 23 -2 30 0 6 3 -1 5 -18 5 -16 0 -22 -2 -12 -5z"/>
<path d="M4738 2743 c12 -2 32 -2 45 0 12 2 2 4 -23 4 -25 0 -35 -2 -22 -4z"/>
<path d="M3600 2358 c-3 -26 -1 -43 3 -39 5 5 7 26 5 47 l-3 39 -5 -47z"/>
<path d="M3017 7033 c-13 -12 -8 -142 6 -150 6 -4 18 -20 26 -35 8 -16 38 -53
68 -84 29 -31 53 -61 53 -66 0 -4 -19 -7 -42 -6 -41 3 -43 2 -41 -23 l1 -27
-24 25 c-27 27 -33 56 -9 47 21 -9 19 23 -2 34 -36 18 -43 4 -43 -83 0 -57 4
-86 13 -94 8 -6 16 -9 18 -7 2 3 36 -33 74 -79 57 -68 75 -84 99 -84 27 -1 28
1 22 32 -3 17 -14 37 -23 44 -18 14 -21 45 -10 113 3 25 3 34 -1 20 -7 -22 -9
-23 -15 -7 -11 30 -8 37 18 37 14 0 29 -8 35 -20 6 -11 17 -20 25 -20 9 0 15
-10 15 -25 0 -22 4 -25 34 -25 88 0 89 36 4 128 -34 37 -67 73 -73 80 -5 7
-18 22 -27 33 -10 10 -18 22 -18 25 0 10 -58 64 -69 64 -6 0 -11 6 -11 13 0 6
-23 36 -50 66 -53 56 -58 66 -37 74 6 3 7 6 1 6 -6 1 -14 -2 -17 -6z m123
-405 c0 -7 -5 -20 -10 -28 -8 -12 -10 -9 -10 13 0 15 5 27 10 27 6 0 10 -6 10
-12z"/>
<path d="M5766 6972 c-9 -15 65 -32 86 -21 10 5 16 14 13 20 -8 11 -92 12 -99
1z"/>
<path d="M8583 6924 c-16 -12 -16 -15 -3 -23 17 -11 89 -4 105 11 27 25 -70
36 -102 12z"/>
<path d="M3040 6810 c0 -5 5 -10 10 -10 6 0 10 5 10 10 0 6 -4 10 -10 10 -5 0
-10 -4 -10 -10z"/>
<path d="M3060 6490 c0 -5 5 -10 11 -10 5 0 7 5 4 10 -3 6 -8 10 -11 10 -2 0
-4 -4 -4 -10z"/>
<path d="M9333 4963 c31 -2 83 -2 115 0 31 2 5 3 -58 3 -63 0 -89 -1 -57 -3z"/>
<path d="M8193 4623 l2 -48 164 0 164 0 2 40 c1 22 -3 43 -9 47 -6 4 -82 8
-168 8 l-157 0 2 -47z"/>
<path d="M9368 4605 l4 -45 64 0 64 0 0 45 0 45 -68 0 -67 0 3 -45z"/>
<path d="M7090 4389 c0 -5 5 -7 10 -4 6 3 10 8 10 11 0 2 -4 4 -10 4 -5 0 -10
-5 -10 -11z"/>
<path d="M3028 4309 c-17 -9 -18 -47 -18 -559 l0 -550 573 -1 c314 -1 628 -2
697 -3 69 -1 106 0 83 2 -55 4 -56 22 -2 22 32 0 47 6 71 30 16 17 36 30 44
30 9 0 12 5 9 10 -3 6 -41 10 -84 10 -90 0 -118 15 -123 65 l-3 30 135 -3 c74
-1 154 -5 178 -8 33 -4 43 -2 48 11 4 9 3 19 -1 23 -3 4 -59 10 -123 13 l-117
5 106 2 c84 2 108 5 113 17 10 27 -31 35 -179 35 l-146 0 6 323 c4 210 3 327
-4 337 -10 15 -107 28 -211 29 l-55 1 0 57 0 58 -34 -2 c-33 -1 -76 -37 -65
-54 20 -32 -80 -66 -159 -55 -23 4 -163 8 -312 10 -148 2 -279 4 -290 5 -11 1
-31 1 -45 -1 -24 -3 -25 -1 -25 60 0 60 -1 62 -25 62 -14 0 -33 -5 -42 -11z
m1231 -183 c8 -9 10 -92 6 -292 -4 -154 -8 -294 -11 -311 l-5 -33 -125 0 -126
0 6 28 c3 15 8 158 12 317 3 160 8 293 11 298 2 4 53 7 112 7 80 0 112 -4 120
-14z m-1009 -26 c0 -5 -11 -10 -25 -10 -14 0 -28 0 -32 -1 -4 0 -9 4 -11 10
-2 7 11 11 32 11 20 0 36 -4 36 -10z m205 -5 c0 -5 -21 -11 -47 -13 -39 -3
-48 0 -48 13 0 13 9 16 48 13 26 -2 47 -7 47 -13z m225 0 c0 -12 -14 -15 -65
-15 -36 0 -65 4 -65 9 0 14 20 19 78 20 40 1 52 -2 52 -14z m160 0 c0 -16 -16
-20 -65 -16 -37 3 -44 9 -25 21 25 16 90 12 90 -5z m123 -106 c-5 -18 -23 -27
-23 -11 1 25 14 52 20 42 4 -7 5 -21 3 -31z m1 -306 c-3 -87 -10 -162 -16
-168 -5 -6 -66 -10 -141 -10 -76 0 -113 2 -87 6 25 3 34 7 20 8 -25 2 -25 2
-5 17 18 13 20 13 23 0 7 -35 67 -2 85 47 3 9 14 17 23 17 12 0 15 6 11 21 -4
13 0 22 11 26 33 12 62 55 62 93 0 40 10 100 16 100 2 0 1 -71 -2 -157z m-604
-43 c0 -5 -5 -10 -11 -10 -5 0 -7 5 -4 10 3 6 8 10 11 10 2 0 4 -4 4 -10z"/>
<path d="M4768 3886 c-4 -66 -5 -122 -3 -125 13 -12 15 15 13 125 l-3 119 -7
-119z"/>
<path d="M4845 3990 c-3 -5 3 -10 14 -10 12 0 21 5 21 10 0 6 -6 10 -14 10 -8
0 -18 -4 -21 -10z"/>
<path d="M4973 3993 c15 -2 37 -2 50 0 12 2 0 4 -28 4 -27 0 -38 -2 -22 -4z"/>
<path d="M5060 3990 c-11 -7 -6 -10 20 -10 26 0 31 3 20 10 -8 5 -17 10 -20
10 -3 0 -12 -5 -20 -10z"/>
<path d="M5138 3983 c12 -2 32 -2 45 0 12 2 2 4 -23 4 -25 0 -35 -2 -22 -4z"/>
<path d="M4808 3973 c7 -3 16 -2 19 1 4 3 -2 6 -13 5 -11 0 -14 -3 -6 -6z"/>
<path d="M8263 3763 c-8 -19 -9 -159 -6 -718 1 -214 -2 -412 -6 -440 -8 -50
-8 -50 -10 24 -2 128 -47 161 -222 161 -162 0 -169 -10 -181 -270 -11 -239
-12 -244 -68 -250 -38 -4 -45 -9 -51 -33 -4 -16 -6 -34 -3 -41 6 -15 90 -23
352 -33 158 -6 172 -8 172 -25 0 -14 8 -18 40 -18 22 0 40 -4 40 -9 0 -4 54
-14 120 -21 66 -7 120 -17 120 -21 0 -5 18 -9 40 -9 22 0 40 5 40 10 0 6 18
10 40 10 27 0 40 4 40 13 0 11 29 15 117 20 66 4 119 11 121 17 2 5 21 10 43
10 21 0 40 3 40 8 4 22 10 58 10 67 1 6 -1 246 -5 535 -4 331 -3 520 3 510 9
-12 11 -12 17 3 3 9 13 17 21 17 12 0 13 -26 9 -167 -3 -93 -5 -179 -6 -193
-1 -14 3 -52 9 -85 8 -47 13 -318 12 -657 0 -14 9 -18 42 -18 23 0 85 -3 137
-6 52 -2 121 -2 153 2 l57 6 0 104 c0 57 -3 104 -7 104 -5 -1 -19 -7 -33 -15
-14 -8 -42 -14 -62 -15 -37 0 -38 -1 -38 -39 l0 -39 -64 -4 c-80 -4 -89 -2
-105 23 -9 15 -10 24 -2 32 15 15 15 647 1 647 -6 0 -10 33 -10 80 0 47 4 80
10 80 6 0 10 18 10 40 0 22 -4 40 -10 40 -6 0 -10 101 -10 284 l0 284 -22 6
c-13 3 -218 6 -456 6 -399 0 -433 -1 -439 -17z m687 -732 c0 -17 -18 -21 -24
-6 -3 9 0 15 9 15 8 0 15 -4 15 -9z m-640 -241 c0 -5 -4 -10 -10 -10 -5 0 -10
5 -10 10 0 6 5 10 10 10 6 0 10 -4 10 -10z m867 -272 c-2 -24 -4 -5 -4 42 0
47 2 66 4 43 2 -24 2 -62 0 -85z m-1288 -123 l2 -125 -27 0 c-22 0 -25 3 -21
23 3 12 9 68 13 125 5 72 11 102 19 102 10 0 13 -32 14 -125z m316 -20 l-5
-95 -144 -3 -145 -2 3 35 c2 19 4 50 5 68 1 23 6 32 19 32 12 0 13 -3 5 -8 -9
-6 -4 -17 20 -39 29 -28 41 -32 115 -38 l82 -7 0 45 c0 42 -2 46 -32 57 l-33
11 50 19 c28 10 53 19 57 19 4 1 5 -42 3 -94z"/>
<path d="M8018 2303 c12 -2 32 -2 45 0 12 2 2 4 -23 4 -25 0 -35 -2 -22 -4z"/>
<path d="M4338 3323 c12 -2 32 -2 45 0 12 2 2 4 -23 4 -25 0 -35 -2 -22 -4z"/>
<path d="M7956 3218 c-3 -7 -4 -42 -3 -78 l2 -65 68 -3 68 -3 -3 78 -3 78 -63
3 c-44 2 -63 -1 -66 -10z m124 -58 c0 -5 -25 -10 -55 -10 -30 0 -55 5 -55 10
0 6 25 10 55 10 30 0 55 -4 55 -10z"/>
<path d="M7899 3180 c-4 -42 -1 -64 9 -68 8 -2 12 10 12 37 0 23 -4 41 -10 41
-5 0 -10 -4 -11 -10z"/>
<path d="M3010 3160 c0 -20 7 -20 455 -20 261 0 455 4 455 9 0 10 -192 18
-617 26 -288 5 -293 4 -293 -15z"/>
<path d="M7613 3000 c0 -25 2 -35 4 -22 2 12 2 32 0 45 -2 12 -4 2 -4 -23z"/>
<path d="M7635 2931 c-3 -5 -1 -12 5 -16 5 -3 10 1 10 9 0 18 -6 21 -15 7z"/>
<path d="M9354 2446 c-3 -8 -4 -31 -2 -52 3 -34 6 -39 31 -42 18 -2 29 2 33
12 3 9 13 16 21 16 8 0 11 5 8 10 -3 6 1 10 11 10 13 0 14 3 5 14 -9 11 -7 15
11 21 20 6 18 8 -17 15 -60 13 -95 12 -101 -4z"/>
<path d="M7145 2221 l-60 -6 85 -7 c103 -9 435 -10 479 -2 17 4 31 10 31 13 0
9 -453 11 -535 2z"/>
<path d="M9070 2215 c0 -8 5 -15 10 -15 6 0 10 7 10 15 0 8 -4 15 -10 15 -5 0
-10 -7 -10 -15z"/>
<path d="M5545 2150 c3 -5 8 -10 11 -10 2 0 4 5 4 10 0 6 -5 10 -11 10 -5 0
-7 -4 -4 -10z"/>
<path d="M8930 969 c-8 -15 -10 -121 -4 -375 l7 -354 283 0 284 0 0 90 c0 63
-4 91 -13 97 -34 21 -47 58 -47 135 0 72 2 80 30 112 21 24 27 36 18 39 -10 4
-10 6 0 6 6 1 12 8 12 18 0 15 -2 15 -19 -1 -19 -17 -19 -16 -14 22 3 24 0 49
-9 66 -14 26 -16 27 -31 11 -23 -22 -21 -35 3 -35 21 0 24 -16 10 -60 l-8 -25
-1 29 c-1 21 -5 27 -17 22 -11 -4 -18 1 -21 14 -3 11 -9 20 -14 20 -5 0 -9 10
-9 23 0 24 10 23 -152 27 -94 2 -133 13 -65 17 17 1 53 5 80 9 47 6 47 6 47
45 l0 38 113 4 c110 3 109 3 -43 7 -143 3 -149 4 -70 10 62 5 27 7 -127 8
-206 2 -213 1 -223 -19z m22 -254 c3 -138 2 -200 -2 -145 -8 99 -13 396 -6
389 2 -2 5 -112 8 -244z m374 113 c27 -9 37 -21 49 -57 19 -57 20 -131 1 -131
-7 0 -16 -8 -19 -19 -6 -25 -58 -49 -95 -43 -18 2 -42 2 -55 -2 -22 -5 -23 -9
-18 -53 3 -27 5 -63 3 -81 -4 -36 -28 -54 -43 -31 -10 16 -12 412 -2 422 11
12 145 8 179 -5z"/>
<path d="M9190 713 l0 -88 61 3 c59 4 61 5 75 38 17 41 11 84 -13 101 -10 7
-23 17 -30 23 -7 5 -30 10 -53 10 l-40 0 0 -87z"/>
<path d="M9453 983 c9 -2 25 -2 35 0 9 3 1 5 -18 5 -19 0 -27 -2 -17 -5z"/>
<path d="M9328 873 c6 -2 18 -2 25 0 6 3 1 5 -13 5 -14 0 -19 -2 -12 -5z"/>
<path d="M9370 870 c0 -5 5 -10 10 -10 6 0 10 5 10 10 0 6 -4 10 -10 10 -5 0
-10 -4 -10 -10z"/>
<path d="M9460 874 c0 -9 31 -37 36 -32 9 9 -8 38 -22 38 -8 0 -14 -3 -14 -6z"/>
<path d="M9218 863 c12 -2 32 -2 45 0 12 2 2 4 -23 4 -25 0 -35 -2 -22 -4z"/>
<path d="M9487 603 c-11 -10 -8 -71 3 -78 6 -4 10 12 10 39 0 47 -2 51 -13 39z"/>
</g>
</svg>
