<?xml version="1.0" standalone="no"?>
<!DOCTYPE svg PUBLIC "-//W3C//DTD SVG 20010904//EN"
 "http://www.w3.org/TR/2001/REC-SVG-20010904/DTD/svg10.dtd">
<svg version="1.0" xmlns="http://www.w3.org/2000/svg"
 width="1280.000000pt" height="720.000000pt" viewBox="0 0 1280.000000 720.000000"
 preserveAspectRatio="xMidYMid meet">
<metadata>
Created by potrace 1.16, written by Peter Selinger 2001-2019
</metadata>
<g transform="translate(0.000000,720.000000) scale(0.100000,-0.100000)"
fill="#000000" stroke="none">
<path d="M6242 7162 c-60 -20 -71 -32 -64 -67 4 -24 -16 -55 -37 -55 -5 0 -17
-18 -27 -40 -10 -22 -21 -40 -26 -40 -4 0 -8 -8 -8 -17 0 -9 -7 -24 -15 -33
-9 -10 -24 -46 -34 -81 -11 -35 -33 -111 -50 -168 -16 -57 -33 -131 -36 -165
-12 -122 -28 -192 -62 -263 -19 -40 -38 -75 -44 -78 -5 -4 -19 -25 -30 -48
-23 -45 -26 -49 -88 -115 -23 -24 -41 -45 -41 -46 0 -1 14 -1 30 2 23 3 30 0
30 -12 0 -9 -5 -16 -11 -16 -21 0 -97 -89 -104 -122 -4 -18 -12 -36 -17 -39
-6 -4 -14 -111 -18 -245 -14 -395 -33 -618 -61 -726 -21 -81 -39 -334 -39
-555 0 -160 -3 -233 -11 -233 -7 0 -8 -11 -4 -29 4 -20 2 -32 -8 -38 -47 -28
-104 -179 -109 -290 -1 -29 -5 -53 -9 -53 -17 0 -16 -87 2 -123 11 -21 19 -46
19 -56 0 -29 24 -42 102 -55 l73 -12 3 -119 c1 -69 -4 -165 -13 -229 -23 -166
-26 -156 44 -156 68 0 91 -6 91 -25 0 -19 17 -28 70 -37 96 -16 111 -21 130
-46 14 -17 20 -40 20 -72 0 -31 5 -52 16 -60 13 -12 14 -46 10 -269 -3 -141
-8 -314 -12 -386 -4 -81 -2 -164 5 -220 39 -302 53 -399 66 -475 8 -47 19
-114 25 -150 5 -36 13 -78 19 -92 17 -44 -12 -288 -34 -288 -7 0 -18 -14 -25
-31 -17 -41 -104 -129 -127 -129 -10 0 -30 -12 -45 -25 -24 -21 -28 -32 -28
-80 0 -48 3 -55 19 -55 11 0 23 -4 26 -10 3 -5 15 -15 27 -21 14 -8 18 -8 14
0 -5 7 8 9 41 6 166 -18 200 -17 248 4 26 12 54 21 62 21 22 0 26 26 8 53 -10
16 -16 48 -17 85 -1 48 3 64 21 83 11 12 21 31 21 41 0 10 5 17 11 16 21 -5
30 62 26 171 -3 58 -6 111 -7 116 -1 6 3 71 9 145 24 288 31 406 41 715 5 176
15 354 21 396 11 78 11 95 -11 363 -12 146 -12 160 3 171 22 16 201 34 213 22
2 -2 9 -60 15 -128 14 -168 25 -278 38 -379 6 -47 15 -119 21 -160 5 -41 9
-149 9 -240 1 -118 6 -196 20 -275 11 -60 27 -155 36 -210 17 -100 21 -132 46
-322 7 -57 17 -103 22 -103 6 0 7 -73 3 -200 -5 -138 -4 -200 3 -200 6 0 11
-9 11 -20 0 -18 7 -20 89 -20 68 0 94 4 112 18 65 47 84 52 198 52 81 0 122 5
153 17 50 20 94 57 114 95 12 24 12 27 -11 42 -42 28 -120 40 -173 26 -54 -13
-122 -5 -122 16 0 8 -8 14 -18 14 -10 0 -29 13 -42 30 -14 16 -33 40 -43 52
-20 24 -33 66 -23 75 3 3 2 11 -4 18 -6 7 -6 25 -1 46 12 46 35 469 28 512 -3
19 -1 66 3 103 12 88 -6 355 -26 404 -12 27 -14 57 -8 131 3 54 3 103 -2 110
-30 50 -16 415 17 439 4 3 10 22 14 43 4 20 11 37 16 37 5 0 9 11 9 25 0 38
44 55 144 55 47 0 87 4 90 8 3 5 -2 37 -11 73 -12 49 -16 136 -19 384 -3 326
-5 360 -24 500 -5 44 -15 121 -20 170 -6 50 -15 110 -20 135 -6 25 -19 89 -30
142 -11 54 -27 117 -36 140 -9 24 -34 110 -56 193 -21 82 -45 163 -53 180 -8
16 -19 64 -25 105 -6 41 -16 102 -21 135 -6 33 -11 116 -12 185 -2 141 7 174
58 200 17 8 33 20 37 25 5 7 14 6 28 -2 11 -7 27 -13 35 -13 8 0 15 -7 15 -16
0 -8 6 -21 13 -28 6 -8 19 -23 27 -35 8 -11 20 -21 27 -21 6 0 14 -9 18 -19 3
-10 57 -72 120 -136 63 -65 115 -121 115 -127 0 -5 6 -11 14 -14 8 -3 17 -16
20 -29 3 -13 30 -43 58 -67 29 -23 81 -71 116 -106 35 -34 67 -62 72 -62 12 0
120 -109 120 -121 0 -5 7 -12 16 -16 8 -3 44 -34 79 -69 l64 -63 0 -90 c0 -83
2 -93 25 -118 14 -15 26 -30 26 -33 0 -4 16 -23 35 -44 19 -21 35 -45 35 -52
0 -8 3 -14 8 -14 4 0 15 -18 25 -41 12 -28 23 -39 35 -37 24 5 27 53 6 100
-12 27 -14 42 -7 49 15 15 74 -7 112 -43 16 -15 36 -28 44 -28 8 0 19 -11 25
-25 6 -14 16 -25 22 -25 5 0 10 -7 10 -15 0 -8 5 -15 10 -15 6 0 10 16 10 36
0 31 -8 44 -50 84 -42 40 -50 54 -50 83 0 19 6 38 13 40 6 3 2 6 -11 6 -35 1
-82 29 -82 49 0 10 -14 23 -31 31 -17 7 -44 26 -60 42 -16 16 -34 29 -38 29
-5 0 -17 17 -26 38 -10 20 -21 39 -25 42 -15 11 -60 113 -60 136 0 14 -6 24
-14 24 -7 0 -16 14 -20 31 -3 17 -15 43 -26 59 -11 15 -20 38 -20 49 0 12 -4
21 -8 21 -5 0 -15 19 -22 42 -7 24 -29 63 -49 88 -21 25 -47 61 -59 80 -11 19
-39 53 -61 75 -23 21 -41 44 -41 50 0 5 -18 19 -40 29 -24 12 -40 26 -40 37 0
9 -7 19 -15 23 -8 3 -20 17 -27 31 -6 14 -17 25 -25 25 -7 0 -13 9 -13 20 0
12 -7 20 -16 20 -9 0 -18 9 -21 20 -3 10 -14 22 -24 25 -10 4 -19 13 -19 21 0
8 -4 14 -10 14 -12 0 -70 85 -70 103 0 8 -9 22 -20 32 -10 9 -24 34 -31 54 -6
20 -15 40 -20 46 -5 5 -9 19 -9 32 0 13 -7 26 -15 30 -9 3 -25 23 -36 44 -11
22 -32 53 -47 70 -51 59 -57 66 -70 87 -7 13 -8 22 -2 22 19 0 10 36 -14 59
-13 13 -26 39 -30 62 -3 21 -11 39 -16 39 -6 0 -10 13 -10 29 0 17 -12 41 -30
62 -16 19 -30 39 -30 46 0 7 -11 24 -25 39 -38 41 -80 164 -105 304 -10 60
-19 88 -41 132 -5 10 -9 26 -9 37 0 10 -7 24 -15 31 -8 7 -15 18 -15 25 0 7
-11 29 -25 49 -14 20 -25 41 -25 47 0 11 -41 72 -52 77 -5 2 -8 8 -8 14 0 19
-55 88 -70 88 -9 0 -27 8 -40 17 -37 27 -235 29 -308 5z m402 -248 c33 -69 56
-142 56 -181 0 -46 -30 -173 -40 -173 -5 0 -11 18 -15 40 -4 22 -11 40 -16 40
-16 0 -11 126 6 140 16 14 14 32 -11 87 -8 17 -17 46 -21 64 -9 45 16 35 41
-17z m26 -384 c0 -11 -7 -20 -15 -20 -17 0 -18 2 -9 24 9 23 24 20 24 -4z"/>
</g>
</svg>
