<?xml version="1.0" standalone="no"?>
<!DOCTYPE svg PUBLIC "-//W3C//DTD SVG 20010904//EN"
 "http://www.w3.org/TR/2001/REC-SVG-20010904/DTD/svg10.dtd">
<svg version="1.0" xmlns="http://www.w3.org/2000/svg"
 width="1280.000000pt" height="720.000000pt" viewBox="0 0 1280.000000 720.000000"
 preserveAspectRatio="xMidYMid meet">
<metadata>
Created by potrace 1.16, written by Peter Selinger 2001-2019
</metadata>
<g transform="translate(0.000000,720.000000) scale(0.100000,-0.100000)"
fill="#000000" stroke="none">
<path d="M6285 7141 c-74 -19 -99 -48 -109 -125 -3 -27 -13 -54 -21 -60 -17
-13 -31 -35 -69 -114 -22 -44 -26 -66 -26 -142 0 -55 -7 -119 -19 -167 -11
-43 -26 -118 -34 -168 -8 -49 -20 -103 -26 -120 -6 -16 -13 -41 -15 -55 -3
-14 -14 -35 -26 -47 -11 -12 -20 -31 -20 -43 0 -11 -7 -20 -15 -20 -19 0 -145
-126 -145 -145 0 -8 -7 -15 -15 -15 -11 0 -15 -11 -15 -38 0 -29 -7 -43 -29
-62 -34 -29 -60 -48 -81 -57 -40 -17 -180 -190 -180 -222 0 -10 -53 -71 -112
-128 -27 -26 -48 -54 -48 -63 0 -10 -9 -20 -21 -23 -11 -3 -23 -15 -26 -26 -3
-12 -10 -21 -15 -21 -12 0 -57 -52 -58 -67 0 -7 -7 -13 -15 -13 -8 0 -22 -17
-32 -37 -18 -39 -26 -51 -55 -84 -10 -10 -18 -23 -18 -29 0 -5 -13 -10 -29
-10 -17 0 -33 -5 -37 -11 -4 -7 -9 -7 -13 -2 -13 20 -211 33 -500 33 -166 0
-301 3 -301 8 0 4 -141 8 -313 9 -171 1 -430 5 -574 9 l-263 6 0 -186 0 -186
193 0 c105 0 248 5 317 10 69 5 277 12 463 16 299 6 337 5 337 -8 0 -12 17
-17 74 -23 73 -6 116 3 116 26 0 5 13 3 30 -6 22 -11 64 -15 177 -15 163 0
190 -4 197 -29 3 -9 8 -149 11 -311 4 -241 8 -299 21 -318 8 -13 14 -33 12
-45 -2 -18 -10 -22 -38 -22 -19 0 -44 -6 -55 -12 -16 -10 -9 -11 38 -6 36 4
57 2 57 -4 0 -6 10 -14 23 -18 21 -6 21 -7 -6 -15 -16 -5 -50 -7 -76 -6 -73 5
-77 -2 -80 -133 -1 -62 -6 -123 -12 -134 -8 -14 -8 -31 -1 -56 6 -20 9 -107 7
-193 -2 -129 0 -158 11 -158 8 0 14 9 14 20 0 13 10 24 25 30 14 5 36 21 49
35 21 23 26 24 39 11 10 -10 17 -12 25 -4 14 14 35 0 28 -19 -3 -8 -1 -23 5
-34 9 -17 7 -21 -9 -26 -11 -2 -25 -16 -31 -29 -6 -13 -17 -24 -26 -24 -8 0
-16 -4 -16 -10 -1 -5 -2 -14 -3 -19 -2 -18 -16 -24 -29 -13 -7 6 -23 9 -35 5
-18 -4 -22 -1 -22 16 0 12 -6 21 -15 21 -9 0 -15 -9 -15 -22 0 -13 -3 -34 -7
-47 -6 -24 -5 -24 45 -18 31 4 52 2 52 -4 0 -5 11 -2 25 7 13 8 28 13 33 10 5
-3 64 -5 133 -5 68 0 135 0 149 0 14 0 44 0 68 0 53 0 62 -5 55 -32 l-6 -22
-286 7 c-157 4 -290 12 -295 17 -10 9 -10 56 -2 599 3 216 2 267 -4 190 -5
-58 -11 -202 -14 -320 -9 -364 -16 -494 -29 -502 -6 -4 -395 -4 -864 -1 l-853
6 0 -21 c0 -21 3 -22 137 -22 75 0 134 -3 131 -6 -4 -3 -65 -5 -137 -5 -125 1
-131 0 -131 -19 0 -18 7 -20 60 -20 l60 0 0 -30 0 -30 -60 0 c-53 0 -60 -2
-60 -20 0 -18 7 -20 58 -20 43 0 53 -3 42 -11 -11 -8 -12 -12 -2 -16 8 -3 12
-30 12 -84 l0 -79 -32 0 c-71 0 -78 -7 -78 -71 0 -48 3 -57 15 -53 8 4 15 1
15 -5 0 -6 -7 -11 -15 -11 -11 0 -15 -11 -15 -40 0 -36 3 -40 25 -40 25 0 25
-1 25 -80 0 -50 -4 -80 -11 -80 -6 0 -8 -9 -4 -22 5 -18 4 -20 -4 -8 -18 25
-31 -7 -31 -81 0 -66 0 -67 30 -73 22 -4 38 -18 58 -51 15 -25 30 -45 34 -45
4 0 15 12 25 27 9 16 25 36 35 46 17 17 19 17 42 -8 13 -14 28 -25 35 -25 6 0
11 -5 11 -10 0 -24 39 16 51 52 12 38 29 51 29 23 0 -11 11 -15 40 -15 36 0
40 -2 40 -25 0 -17 5 -25 18 -25 9 0 23 -9 30 -20 20 -32 30 -24 48 40 17 61
34 75 53 43 10 -17 12 -17 25 0 20 25 34 21 41 -14 4 -17 13 -41 20 -55 l12
-24 15 22 c8 13 20 38 27 56 13 31 15 32 76 32 l62 0 18 -55 c21 -61 35 -71
35 -25 0 19 7 33 19 40 11 5 23 19 26 30 7 22 51 26 128 14 35 -6 37 -8 37
-45 0 -28 4 -39 15 -39 8 0 15 7 15 15 0 8 11 26 25 40 32 31 84 34 103 5 17
-27 32 -25 32 5 l0 25 203 1 c262 2 418 -1 439 -7 9 -3 21 -19 28 -37 l11 -32
20 24 c10 13 19 30 19 38 0 13 10 15 50 11 39 -4 54 -11 71 -32 27 -34 39 -33
39 3 0 28 1 29 76 36 72 7 76 6 100 -20 l24 -26 24 25 c17 19 33 26 60 26 l37
0 -5 -97 c-20 -359 -15 -707 16 -1005 8 -85 8 -118 -2 -155 -18 -61 -78 -123
-120 -123 -17 0 -42 -7 -56 -16 -21 -14 -42 -16 -138 -10 -130 8 -176 -4 -176
-47 0 -26 58 -87 82 -87 9 0 20 -5 23 -10 3 -6 17 -10 31 -10 13 0 24 -4 24
-8 0 -11 213 -35 238 -28 11 4 24 0 32 -9 7 -8 20 -15 29 -16 9 0 1 -5 -18
-11 -18 -5 -40 -15 -47 -23 -8 -8 -46 -17 -84 -21 -39 -3 -70 -11 -70 -15 0
-5 -36 -9 -80 -9 -64 0 -80 -3 -80 -15 0 -9 -9 -15 -24 -15 -42 0 -56 -11 -56
-41 l0 -29 159 0 c118 0 161 3 165 13 3 6 3 -30 -1 -80 l-6 -93 45 0 c36 0 50
-5 73 -30 19 -19 39 -30 57 -30 33 0 36 -15 8 -32 -11 -7 -20 -21 -20 -30 0
-10 -7 -18 -15 -18 -11 0 -15 -11 -15 -40 l0 -40 169 0 170 0 4 43 4 42 1 -42
2 -43 226 0 227 0 -6 60 c-4 33 -4 87 0 120 l6 60 63 0 64 0 0 40 c0 36 -2 40
-25 40 -22 0 -25 4 -25 40 l0 39 191 -1 c155 -1 192 1 200 13 17 27 9 54 -27
92 -35 36 -37 37 -110 37 -74 0 -75 0 -139 50 -35 27 -73 50 -83 50 -10 0 -27
9 -37 20 -10 11 -22 20 -26 20 -17 0 -68 63 -79 97 -7 18 -10 55 -7 81 4 46
84 251 125 325 12 21 22 46 22 55 0 10 12 38 28 63 35 56 52 95 52 119 0 10 4
20 8 22 10 4 72 129 72 146 0 6 5 12 10 12 6 0 10 6 10 13 0 18 24 67 33 67 4
0 7 9 7 19 0 11 7 32 15 48 8 15 27 61 42 101 15 39 30 72 35 72 4 0 8 11 8
25 0 36 22 85 54 118 14 15 26 33 26 40 0 7 13 27 28 45 26 31 31 32 120 39
l92 6 0 38 0 39 -80 0 c-62 0 -80 3 -80 14 0 8 -6 17 -12 20 -10 5 -10 7 0 12
8 4 12 30 12 80 0 56 6 86 24 128 13 29 27 68 31 85 4 17 10 31 13 31 147 11
252 29 253 43 4 35 -4 248 -16 432 -11 180 -11 213 1 232 8 12 14 31 14 42 0
10 7 21 15 25 11 4 15 24 16 83 0 43 4 112 9 153 5 41 14 133 20 204 5 71 14
146 19 165 5 20 12 74 15 121 4 47 13 110 21 140 10 39 12 84 8 167 -3 62 -9
113 -13 113 -5 0 -10 18 -12 40 -2 22 0 40 5 40 10 0 -2 71 -16 88 -8 10 -7
16 4 24 11 7 11 11 2 15 -7 2 -13 12 -13 20 0 13 8 15 45 10 24 -4 208 -7 407
-8 383 -2 1171 -13 1546 -23 l222 -5 0 44 c0 42 -1 44 -32 48 l-33 4 33 1 c17
1 32 7 32 13 0 9 -183 11 -690 8 l-690 -4 -1 -25 -1 -25 -11 28 -11 27 -387 0
-387 0 -7 -30 c-9 -39 -21 -38 -29 1 -9 48 -7 109 4 109 6 0 10 18 10 40 0 22
-4 40 -9 40 -5 0 -12 107 -16 238 -6 200 -11 250 -30 322 -33 120 -45 146 -88
192 l-38 40 23 12 c24 12 25 22 12 99 -5 32 -13 41 -35 39 -3 0 -11 20 -19 46
-7 26 -16 49 -19 52 -13 11 -41 73 -41 90 0 10 -4 21 -9 25 -13 7 -106 200
-121 250 -7 22 -16 48 -21 57 -5 10 -9 36 -9 57 0 22 -4 42 -9 46 -5 3 -13 20
-17 38 -6 30 -41 113 -69 167 -42 81 -53 97 -82 126 -18 17 -33 36 -33 42 0 7
-14 19 -32 28 -18 9 -41 28 -52 42 -42 53 -64 72 -84 72 -11 0 -22 5 -24 11
-4 13 -152 21 -193 10z m325 -357 c0 -8 -4 -12 -10 -9 -5 3 -10 13 -10 21 0 8
5 12 10 9 6 -3 10 -13 10 -21z m38 -49 c27 -59 5 -166 -32 -152 -19 8 -30 61
-17 86 6 11 11 33 11 49 0 48 20 57 38 17z m-873 -1375 c8 0 16 -9 20 -19 3
-10 21 -35 40 -56 25 -26 35 -46 35 -69 0 -18 5 -57 10 -87 17 -89 -16 -272
-36 -195 -5 22 -11 26 -45 26 -29 0 -39 -4 -39 -16 0 -14 -11 -15 -80 -10 -44
3 -116 9 -160 12 -72 5 -80 8 -80 27 0 11 -7 28 -15 37 -13 14 -12 21 7 60 12
25 37 60 55 78 18 18 33 37 33 42 0 6 5 10 11 10 12 0 69 55 69 67 0 8 29 26
63 39 9 3 17 14 17 24 0 18 72 53 78 38 2 -4 10 -8 17 -8z m-1099 -552 c2 -3
2 -13 -2 -22 -6 -15 -18 -17 -82 -14 -75 3 -102 18 -71 40 14 9 145 6 155 -4z
m647 -57 c67 -6 167 -16 222 -21 55 -6 126 -10 158 -10 64 0 78 -17 20 -23
-21 -2 -4 -2 37 0 41 3 78 10 82 17 15 22 8 -58 -13 -148 -31 -136 -60 -227
-79 -246 -19 -19 -135 -309 -145 -363 l-6 -32 -115 1 c-64 0 -119 4 -122 10
-12 15 -87 64 -101 64 -6 0 -39 18 -72 40 -33 22 -71 40 -85 40 -13 0 -24 6
-24 13 0 8 -9 22 -20 32 -24 22 -27 88 -6 137 8 18 19 52 25 75 6 23 18 49 26
57 8 8 15 26 15 40 0 14 7 51 16 83 9 32 22 91 27 131 6 39 15 72 19 72 4 0 9
24 10 53 1 33 3 41 5 21 l4 -31 122 -12z m-603 -1 c0 -5 -4 -10 -10 -10 -5 0
-10 5 -10 10 0 6 5 10 10 10 6 0 10 -4 10 -10z m419 -1032 c1 -12 -37 -10 -44
2 -3 6 1 10 9 10 9 0 16 8 17 18 0 14 2 14 9 -3 5 -11 9 -23 9 -27z m-179 2
c0 -5 -6 -10 -14 -10 -8 0 -18 5 -21 10 -3 6 3 10 14 10 12 0 21 -4 21 -10z
m80 1 c0 -4 -11 -6 -25 -3 -14 2 -25 6 -25 8 0 2 11 4 25 4 14 0 25 -4 25 -9z
m195 -1 c-3 -5 -13 -10 -21 -10 -8 0 -14 5 -14 10 0 6 9 10 21 10 11 0 17 -4
14 -10z m15 -106 c0 -8 -10 -14 -25 -14 -18 0 -25 5 -25 19 0 14 6 17 25 13
14 -2 25 -11 25 -18z m201 -26 c-5 -18 -10 -25 -10 -16 -1 10 -12 18 -28 21
-26 4 -26 4 5 6 26 1 32 5 33 24 0 12 3 17 5 10 3 -6 1 -26 -5 -45z m-321 27
c0 -9 -9 -15 -22 -15 -21 0 -21 0 -2 15 24 18 24 18 24 0z m-80 -11 c0 -2 -9
-4 -21 -4 -11 0 -18 4 -14 10 5 8 35 3 35 -6z m310 -5 c0 -5 -18 -9 -40 -9
-22 0 -40 4 -40 9 0 4 18 8 40 8 22 0 40 -4 40 -8z m-268 -59 c-2 -16 -6 -30
-8 -30 -2 0 -4 14 -4 30 0 17 4 30 8 30 5 0 7 -13 4 -30z m345 4 c-3 -3 -12
-4 -19 -1 -8 3 -5 6 6 6 11 1 17 -2 13 -5z m-199 -47 c3 -23 0 -27 -22 -27
-21 0 -26 5 -26 23 0 13 3 27 7 31 15 14 38 0 41 -27z m202 13 c0 -5 -4 -10
-10 -10 -5 0 -10 5 -10 10 0 6 5 10 10 10 6 0 10 -4 10 -10z m-500 -24 c0 -11
-19 -15 -25 -6 -3 5 1 10 9 10 9 0 16 -2 16 -4z m115 -6 c-3 -5 -15 -10 -26
-10 -10 0 -19 5 -19 10 0 6 12 10 26 10 14 0 23 -4 19 -10z m90 0 c-3 -5 -15
-10 -25 -10 -10 0 -22 5 -25 10 -4 6 7 10 25 10 18 0 29 -4 25 -10z m185 0 c0
-5 -7 -10 -15 -10 -8 0 -15 5 -15 10 0 6 7 10 15 10 8 0 15 -4 15 -10z m25
-150 c9 -17 10 -31 4 -41 -7 -11 -9 -11 -9 4 0 9 -4 17 -10 17 -5 0 -10 -11
-10 -24 0 -14 -5 -28 -12 -32 -17 -11 -38 26 -38 68 0 37 1 38 31 36 22 -2 35
-10 44 -28z m-140 -48 c-8 -8 -25 10 -25 26 0 13 2 13 14 -4 8 -10 13 -21 11
-22z m169 -21 c3 -5 -3 -11 -14 -14 -22 -6 -37 8 -18 16 20 8 26 8 32 -2z
m-1709 -236 c6 -2 -64 -3 -155 -2 -127 0 -145 2 -80 6 81 6 214 3 235 -4z
m221 4 c3 -5 -33 -9 -80 -9 -47 0 -86 4 -86 9 0 11 159 11 166 0z m-616 -68
c0 -16 -9 -20 -50 -23 -28 -1 -52 1 -54 7 -8 25 8 35 55 35 42 0 49 -3 49 -19z
m240 4 c0 -28 -34 -33 -182 -25 -5 0 -8 9 -8 20 0 19 7 20 95 20 77 0 95 -3
95 -15z m160 -10 c0 -11 -12 -15 -42 -16 -70 -2 -85 2 -73 20 3 6 31 11 61 11
41 0 54 -4 54 -15z m215 0 c0 -12 -141 -23 -161 -12 -8 5 -12 13 -8 18 8 13
169 7 169 -6z m243 3 c-3 -9 -33 -13 -103 -13 -70 0 -100 4 -102 13 -4 9 21
12 102 12 81 0 106 -3 103 -12z m162 -33 c0 -53 -21 -61 -42 -17 -7 15 -23 28
-35 30 -12 2 -27 10 -33 18 -11 12 -3 14 49 14 l61 0 0 -45z m698 18 l-3 -28
-105 -7 c-58 -4 -148 -12 -200 -18 -52 -6 -152 -10 -221 -10 -106 0 -128 3
-133 16 -8 21 -8 59 1 67 3 4 154 7 335 7 l329 0 -3 -27z m156 21 c9 -3 16
-18 16 -33 0 -25 -2 -26 -65 -29 l-65 -3 0 35 0 36 49 0 c27 0 56 -3 65 -6z
m166 -2 c0 -13 -39 -88 -40 -76 0 12 -29 12 -47 1 -14 -9 -29 55 -18 72 7 13
105 15 105 3z m-1200 -107 c19 0 26 -107 10 -149 -10 -26 -12 -27 -82 -25
-114 3 -118 6 -118 86 0 38 4 73 8 78 4 6 36 12 72 14 36 1 67 4 69 6 2 3 9 1
15 -3 6 -3 18 -7 26 -7z m-840 -85 l0 -78 -55 -4 -55 -3 0 72 c0 97 1 99 60
95 l50 -4 0 -78z m209 64 c15 9 24 -56 16 -110 -4 -32 -10 -43 -17 -36 -6 6
-17 8 -24 5 -8 -3 -14 1 -14 8 0 10 -2 11 -8 2 -4 -6 -32 -13 -62 -14 l-55 -3
-3 59 c-5 99 -2 104 71 107 43 2 66 -1 74 -11 6 -7 16 -10 22 -7z m776 12 c16
-11 20 -30 23 -110 4 -91 3 -96 -16 -96 -13 0 -22 8 -24 22 -2 13 -12 22 -25
24 -22 4 -28 -5 -24 -33 1 -7 -3 -13 -9 -13 -10 0 -15 201 -5 211 10 11 63 8
80 -5z m-383 -10 c12 -17 9 -134 -2 -141 -6 -4 -43 -7 -83 -7 l-72 -1 -3 72
c-3 66 -1 72 20 81 30 12 131 9 140 -4z m-202 -70 l0 -74 -56 -4 c-45 -2 -58
0 -65 14 -10 18 -13 121 -4 130 3 3 32 6 65 7 l60 2 0 -75z m836 37 c118 1
124 2 125 21 2 19 2 19 6 -1 4 -23 33 -33 33 -13 0 6 10 1 22 -10 21 -19 33
-21 155 -18 l133 3 0 -27 c0 -20 -4 -26 -15 -22 -12 5 -15 -4 -15 -49 l0 -56
-35 6 c-23 4 -35 2 -35 -6 0 -6 17 -11 38 -12 30 0 33 -2 17 -9 -29 -12 -465
-12 -465 0 0 6 37 11 88 12 66 1 53 3 -58 7 -92 4 -148 2 -152 -4 -17 -22 -28
23 -26 100 3 68 6 80 19 77 10 -1 20 7 24 20 7 23 8 23 12 2 4 -20 10 -21 129
-21z m872 -103 l-3 -95 -35 1 c-109 1 -150 5 -150 14 0 6 37 11 88 12 l87 2
-82 3 -83 4 0 64 c0 78 7 100 26 84 10 -8 14 -8 14 0 0 6 11 8 28 5 15 -2 38
2 52 9 18 10 30 10 43 3 15 -10 17 -24 15 -106z m123 63 c22 -6 31 -54 23
-115 l-7 -48 -43 0 c-32 0 -44 4 -44 14 0 10 14 16 43 19 l42 4 -47 1 -48 2 0
74 0 75 33 -11 c17 -5 39 -12 48 -15z m-381 6 c0 -6 7 -9 15 -5 11 4 15 -1 14
-17 0 -12 -3 -16 -6 -9 -12 30 -23 7 -23 -48 0 -47 3 -60 15 -60 8 0 15 -4 15
-10 0 -6 -27 -10 -60 -10 -33 0 -60 4 -60 10 0 6 18 10 40 10 l40 0 0 45 0 45
-42 2 -43 1 43 4 c53 5 55 23 2 23 -29 0 -40 4 -40 15 0 11 12 15 45 15 26 0
45 -5 45 -11z m-140 -104 c0 -30 -4 -55 -10 -55 -5 0 -10 25 -10 55 0 30 5 55
10 55 6 0 10 -25 10 -55z m1300 -14 c0 -33 -2 -35 -42 -45 -27 -6 -28 -5 -28
34 0 39 1 40 35 40 32 0 35 -2 35 -29z m114 5 c3 -12 6 -32 6 -46 0 -20 -2
-22 -10 -10 -5 8 -10 11 -10 6 0 -5 -7 -3 -15 4 -8 6 -19 9 -25 5 -5 -3 -15 6
-20 21 -13 32 -2 43 41 42 19 -1 29 -7 33 -22z m-221 6 c3 -4 3 -19 0 -35 -5
-27 -7 -27 -79 -27 l-74 0 0 35 0 35 74 0 c41 0 77 -3 79 -8z m-1735 -59 c-10
-2 -26 -2 -35 0 -10 3 -2 5 17 5 19 0 27 -2 18 -5z m1959 -43 c13 0 14 -10 8
-72 -5 -40 -11 -107 -14 -148 -6 -73 -7 -75 -33 -77 -36 -2 -46 15 -15 26 24
9 24 10 20 127 -4 108 3 186 14 157 3 -7 12 -13 20 -13z m-227 -152 l0 -128
-87 1 c-94 0 -141 10 -110 22 14 5 17 22 17 101 0 107 9 122 70 110 42 -9 50
-30 48 -121 l-2 -78 -6 85 -6 85 -2 -88 c-2 -86 -1 -88 21 -85 21 3 22 7 23
95 0 51 4 96 7 100 4 3 7 18 7 32 0 21 2 23 10 11 5 -8 10 -72 10 -142z m108
13 c-2 -77 -6 -143 -10 -147 -4 -3 -19 -4 -33 0 l-25 6 0 140 0 140 36 0 36 0
-4 -139z m72 35 c0 -58 -4 -107 -9 -110 -15 -10 -21 22 -21 120 0 77 3 94 15
94 12 0 15 -18 15 -104z m-2237 -51 c-2 -74 -7 -111 -15 -117 -7 -4 -34 -8
-59 -8 l-47 0 -7 79 c-4 44 -4 98 0 121 l7 42 62 -4 61 -4 -2 -109z m144 75
c13 0 15 -13 11 -83 -5 -90 -13 -116 -32 -97 -8 8 -7 13 4 20 12 7 12 12 2 22
-8 8 -12 40 -11 93 1 44 3 72 6 63 2 -10 11 -18 20 -18z m-682 10 c4 -6 11 -8
16 -4 5 3 23 2 40 -1 l31 -7 -7 -77 c-5 -42 -9 -85 -10 -96 -1 -17 -9 -20 -51
-20 l-49 0 -3 85 c-2 47 0 95 3 108 6 23 20 29 30 12z m289 -6 c3 -9 6 -37 6
-62 0 -36 -5 -50 -20 -60 -13 -8 -20 -23 -20 -42 0 -28 -2 -30 -39 -30 -32 0
-40 4 -45 23 -8 29 -8 151 0 171 9 23 109 23 118 0z m96 6 c0 -5 -5 -10 -11
-10 -5 0 -7 5 -4 10 3 6 8 10 11 10 2 0 4 -4 4 -10z m1404 -115 l-7 -95 -83 0
-84 0 0 95 0 95 40 0 c25 0 40 -5 40 -12 1 -7 9 -3 19 8 21 27 52 34 69 17 9
-9 11 -36 6 -108z m156 23 c0 -54 -4 -78 -12 -78 -9 0 -9 -3 0 -12 21 -21 13
-28 -31 -28 -46 0 -60 6 -50 23 3 5 5 49 4 98 l-2 88 38 3 c21 2 41 -1 45 -7
4 -5 8 -45 8 -87z m-2116 60 c-4 -13 -7 -52 -6 -88 2 -62 -13 -111 -25 -82 -6
16 -23 15 -23 -2 0 -9 -7 -12 -20 -9 -16 4 -20 14 -20 45 0 35 2 39 15 28 13
-11 15 -8 15 19 0 23 -5 31 -17 32 -14 0 -13 2 5 9 27 12 29 30 2 37 -11 3
-20 12 -20 19 0 10 14 14 51 14 48 0 50 -1 43 -22z m1009 -105 c-3 -18 -9 -33
-14 -33 -5 0 -9 -7 -9 -15 0 -11 11 -15 41 -15 l41 0 -6 43 c-7 49 -7 127 0
139 3 4 50 8 105 8 l101 0 -7 -86 c-6 -68 -5 -88 6 -95 34 -21 39 -11 39 86
l0 95 35 0 c36 0 100 -27 135 -58 23 -19 29 -112 8 -112 -23 0 16 -20 40 -20
20 0 22 4 22 64 0 75 9 126 22 126 5 0 7 -43 6 -97 -3 -87 -5 -97 -23 -100
-47 -10 -327 -15 -480 -8 l-165 7 0 93 0 94 43 3 42 3 12 -45 c7 -25 10 -60 6
-77z m718 53 c5 -6 9 -36 9 -68 l0 -59 -57 3 c-65 3 -67 6 -57 116 l6 62 39 0
c24 0 40 5 41 13 0 6 3 -4 5 -23 3 -19 9 -39 14 -44z m-691 8 c0 -8 -4 -14
-10 -14 -5 0 -10 9 -10 21 0 11 5 17 10 14 6 -3 10 -13 10 -21z m-570 -103 c0
-6 -4 -13 -10 -16 -5 -3 -10 1 -10 9 0 9 5 16 10 16 6 0 10 -4 10 -9z m2435
-141 c6 -2 18 0 28 5 29 13 31 -1 4 -52 -14 -26 -46 -88 -71 -138 -25 -49 -57
-110 -71 -134 -14 -24 -25 -55 -25 -68 0 -12 -3 -23 -8 -23 -12 0 -39 -88
-108 -360 -16 -63 -32 -116 -36 -118 -5 -2 -8 -10 -8 -18 0 -7 -11 -48 -25
-91 -15 -43 -35 -114 -46 -158 -28 -109 -125 -305 -151 -305 -6 0 -8 41 -7 95
2 52 0 98 -4 101 -11 11 -9 19 11 40 14 14 21 50 31 149 7 72 17 150 22 175
22 108 39 279 45 458 4 105 11 192 15 192 4 0 9 33 12 73 5 87 23 157 46 177
14 13 43 14 176 10 88 -3 165 -8 170 -10z m-499 -1619 c14 -16 34 -31 46 -33
12 -2 23 -9 26 -16 3 -10 -9 -12 -49 -10 l-54 3 -3 43 c-2 23 0 42 3 42 3 0
17 -13 31 -29z m24 -316 l0 -105 -39 0 c-48 0 -54 17 -45 130 l7 80 38 0 39 0
0 -105z m160 -35 l0 -40 -40 0 -40 0 0 40 0 40 40 0 40 0 0 -40z"/>
<path d="M5850 5000 c0 -22 5 -40 10 -40 6 0 10 18 10 40 0 22 -4 40 -10 40
-5 0 -10 -18 -10 -40z"/>
<path d="M5245 4720 c28 -5 84 -8 125 -8 73 1 73 1 25 8 -27 5 -84 8 -125 8
-73 -1 -73 -1 -25 -8z"/>
<path d="M4738 2743 c12 -2 32 -2 45 0 12 2 2 4 -23 4 -25 0 -35 -2 -22 -4z"/>
<path d="M4695 2630 c-4 -6 28 -10 89 -10 57 0 96 4 96 10 0 6 -36 10 -89 10
-50 0 -93 -4 -96 -10z"/>
<path d="M3600 2358 c-3 -26 -1 -43 3 -39 5 5 7 26 5 47 l-3 39 -5 -47z"/>
<path d="M3633 2360 c0 -25 2 -35 4 -22 2 12 2 32 0 45 -2 12 -4 2 -4 -23z"/>
<path d="M3335 2310 c4 -6 11 -8 16 -5 14 9 11 15 -7 15 -8 0 -12 -5 -9 -10z"/>
<path d="M3017 7033 c-4 -3 -7 -37 -7 -75 0 -52 4 -70 15 -74 8 -4 15 -12 15
-19 0 -8 11 -27 25 -43 14 -17 25 -35 25 -41 0 -6 6 -11 14 -11 8 0 16 -7 20
-15 6 -17 -2 -45 -14 -45 -20 0 -40 13 -40 26 0 8 -7 14 -15 14 -19 0 -19 -26
0 -34 8 -3 23 -21 32 -41 9 -19 23 -35 30 -35 7 0 13 -5 13 -11 0 -6 -6 -8
-12 -5 -7 3 -21 9 -30 12 -10 4 -18 13 -18 20 0 8 -7 17 -15 20 -8 4 -15 14
-15 23 -1 9 -7 27 -15 41 -13 23 -14 19 -15 -61 0 -81 2 -87 28 -111 24 -22
55 -57 131 -146 23 -27 64 -27 69 0 2 10 -9 33 -25 53 -21 26 -28 46 -28 78 0
23 -4 52 -8 65 -8 20 -5 22 22 22 20 0 34 -7 41 -20 6 -11 17 -20 25 -20 8 0
15 -8 15 -18 0 -22 72 -52 78 -33 2 6 11 11 19 11 12 0 14 7 9 31 -3 17 -6 35
-6 40 0 5 -6 9 -14 9 -20 0 -108 88 -96 95 6 3 10 15 10 27 0 17 -3 18 -15 8
-16 -14 -35 -6 -35 16 0 8 -7 14 -15 14 -8 0 -15 5 -15 11 0 14 -55 69 -69 69
-6 0 -11 5 -11 11 0 6 -11 24 -25 41 -14 16 -25 36 -25 44 0 8 -6 14 -14 14
-7 0 -19 7 -27 16 -10 13 -10 17 2 25 8 5 9 9 3 9 -6 0 -14 -3 -17 -7z m141
-315 c17 -17 15 -28 -6 -28 -24 0 -32 8 -25 26 6 17 15 18 31 2z"/>
<path d="M5760 6972 c0 -16 72 -32 92 -21 10 5 16 14 13 20 -8 11 -105 12
-105 1z"/>
<path d="M8593 6929 c-51 -19 -13 -41 53 -30 51 8 54 35 4 37 -19 1 -45 -2
-57 -7z"/>
<path d="M3040 6810 c0 -5 5 -10 10 -10 6 0 10 5 10 10 0 6 -4 10 -10 10 -5 0
-10 -4 -10 -10z"/>
<path d="M3202 6610 c0 -14 2 -19 5 -12 2 6 2 18 0 25 -3 6 -5 1 -5 -13z"/>
<path d="M9273 4963 c42 -2 112 -2 155 0 42 1 7 3 -78 3 -85 0 -120 -2 -77 -3z"/>
<path d="M8193 4623 l2 -48 164 0 164 0 2 40 c1 22 -3 43 -9 47 -6 4 -82 8
-168 8 l-157 0 2 -47z"/>
<path d="M9408 4643 c-37 -4 -38 -5 -38 -44 l0 -39 65 0 65 0 0 45 c0 50 5 48
-92 38z"/>
<path d="M9360 4360 c0 -5 18 -10 40 -10 22 0 40 5 40 10 0 6 -18 10 -40 10
-22 0 -40 -4 -40 -10z"/>
<path d="M3022 4308 c-9 -9 -12 -147 -12 -560 l0 -548 378 -2 c878 -3 1015 -3
972 3 l-45 6 43 1 c23 1 42 6 42 11 0 5 13 14 30 21 16 7 39 21 51 31 l22 19
-24 0 c-13 0 -34 3 -47 6 -18 5 -20 9 -11 20 10 12 2 14 -47 12 -50 -1 -53 -2
-16 -5 53 -5 56 -23 3 -23 -48 0 -79 25 -83 65 l-3 30 65 0 c36 0 117 -3 180
-5 110 -5 115 -4 115 15 0 19 -8 20 -120 25 -118 5 -119 5 -53 13 37 4 84 5
106 1 30 -5 40 -3 45 10 11 28 -28 36 -179 36 l-147 0 7 243 c9 335 9 381 2
404 -8 25 -34 31 -167 40 -109 7 -103 2 -100 78 2 49 -10 58 -52 40 -29 -12
-38 -23 -47 -54 -9 -34 -15 -40 -54 -51 -25 -7 -67 -10 -98 -6 -29 3 -171 5
-315 5 -196 0 -267 3 -282 13 -17 10 -25 10 -41 0 -44 -27 -53 -17 -48 53 l4
65 -31 0 c-17 0 -36 -5 -43 -12z m1238 -183 c11 -14 10 -189 -5 -525 -3 -52
-5 -98 -5 -102 0 -5 -56 -8 -125 -8 l-125 0 5 43 c2 23 7 165 10 316 3 151 8
278 11 283 3 4 54 8 113 8 83 0 111 -3 121 -15z m-1005 -24 c-9 -8 -47 -15
-68 -12 -5 1 -5 6 -2 11 3 6 23 10 43 10 22 0 32 -4 27 -9z m200 -6 c0 -5 -21
-11 -47 -13 -39 -3 -48 0 -48 13 0 13 9 16 48 13 26 -2 47 -7 47 -13z m225 0
c0 -11 -15 -14 -72 -14 -65 1 -71 2 -53 15 26 20 125 19 125 -1z m160 0 c0 -9
-10 -16 -22 -16 -13 -1 -33 -3 -46 -4 -27 -3 -40 14 -21 26 24 15 89 11 89 -6z
m110 -5 c0 -5 -5 -10 -11 -10 -5 0 -7 5 -4 10 3 6 8 10 11 10 2 0 4 -4 4 -10z
m10 -91 c0 -17 -4 -28 -10 -24 -5 3 -10 17 -10 31 0 13 5 24 10 24 6 0 10 -14
10 -31z m3 -316 c-3 -87 -10 -164 -15 -170 -12 -15 -108 -18 -108 -3 0 6 -7
10 -17 10 -15 0 -15 1 0 18 10 10 17 22 17 27 0 4 10 16 23 27 12 11 22 25 22
32 0 7 12 24 27 37 20 19 28 40 37 96 6 40 11 74 11 77 0 3 2 6 5 6 2 0 1 -71
-2 -157z m-283 -153 c0 -5 -5 -10 -11 -10 -5 0 -7 5 -4 10 3 6 8 10 11 10 2 0
4 -4 4 -10z m63 -27 c-13 -2 -33 -2 -45 0 -13 2 -3 4 22 4 25 0 35 -2 23 -4z"/>
<path d="M8263 3768 c-4 -7 -7 -258 -6 -558 2 -300 -1 -570 -6 -600 l-9 -55
-1 73 c-2 127 -49 162 -216 162 -172 0 -175 -5 -187 -263 -11 -246 -12 -251
-68 -257 -38 -4 -45 -9 -51 -33 -16 -59 -33 -55 368 -73 127 -6 143 -9 148
-25 5 -14 16 -19 46 -19 27 0 39 -4 39 -14 0 -10 22 -16 80 -21 58 -5 80 -11
80 -21 0 -16 72 -19 179 -8 56 6 61 9 61 31 l0 25 80 -7 c51 -5 80 -4 80 3 0
5 36 13 80 17 l79 7 7 34 c5 29 10 34 35 34 22 0 29 -5 29 -20 0 -13 7 -20 20
-20 11 0 20 -7 20 -15 0 -8 5 -15 10 -15 6 0 10 7 10 15 0 12 17 14 108 9 59
-3 133 -2 165 1 l57 7 0 105 c0 96 -1 105 -17 97 -10 -4 -36 -9 -58 -11 l-40
-3 38 18 c21 9 35 21 31 25 -4 4 1 7 11 7 15 0 16 3 7 12 -9 9 -7 14 6 24 14
10 8 13 -41 19 -87 11 -86 11 -80 -99 l6 -96 -76 0 c-42 0 -79 4 -82 10 -3 5
-6 199 -6 430 -1 246 -5 420 -10 420 -5 0 -9 134 -9 320 0 249 3 320 13 321 6
1 -6 5 -28 10 -22 4 -232 8 -467 8 -331 1 -429 -2 -435 -11z m838 -690 c-1
-112 2 -350 5 -529 l6 -326 -31 0 -31 0 0 111 c-1 61 -3 298 -6 526 -3 272 -1
410 5 400 9 -12 11 -12 17 3 3 9 13 17 21 17 13 0 15 -28 14 -202z m-157 -53
c-4 -8 -8 -15 -10 -15 -2 0 -4 7 -4 15 0 8 4 15 10 15 5 0 7 -7 4 -15z m233
-527 c-2 -13 -4 -3 -4 22 0 25 2 35 4 23 2 -13 2 -33 0 -45z m-1288 -104 c2
-125 2 -125 -21 -122 -25 3 -25 -7 -12 156 5 63 11 92 20 92 9 0 12 -32 13
-126z m316 -20 l-5 -96 -145 -2 -145 -1 1 30 c1 17 4 43 8 58 l6 28 34 -35
c29 -30 42 -36 78 -36 l43 0 0 39 c0 37 1 39 40 45 44 7 52 20 18 30 -21 7
-19 9 17 21 22 7 43 13 47 14 4 1 5 -42 3 -95z m-270 77 c3 -5 1 -12 -5 -16
-5 -3 -10 1 -10 9 0 18 6 21 15 7z m0 -41 c3 -5 1 -10 -4 -10 -6 0 -11 5 -11
10 0 6 2 10 4 10 3 0 8 -4 11 -10z"/>
<path d="M8165 2310 c-3 -5 -1 -10 4 -10 6 0 11 5 11 10 0 6 -2 10 -4 10 -3 0
-8 -4 -11 -10z"/>
<path d="M8018 2303 c12 -2 32 -2 45 0 12 2 2 4 -23 4 -25 0 -35 -2 -22 -4z"/>
<path d="M7956 3218 c-3 -7 -4 -42 -3 -78 l2 -65 67 -5 c65 -5 67 -4 70 20 2
14 1 50 -2 80 l-5 55 -63 3 c-44 2 -63 -1 -66 -10z m124 -58 c0 -5 -25 -10
-55 -10 -30 0 -55 5 -55 10 0 6 25 10 55 10 30 0 55 -4 55 -10z"/>
<path d="M7899 3180 c-4 -42 -1 -64 9 -68 8 -2 12 10 12 37 0 23 -4 41 -10 41
-5 0 -10 -4 -11 -10z"/>
<path d="M3010 3161 l0 -21 455 0 c261 0 455 4 455 9 0 10 -178 18 -617 27
-293 6 -293 6 -293 -15z"/>
<path d="M7180 2221 l-105 -6 94 -7 c129 -11 511 -10 511 1 0 20 -237 25 -500
12z"/>
<path d="M4285 2070 c3 -5 8 -10 11 -10 2 0 4 5 4 10 0 6 -5 10 -11 10 -5 0
-7 -4 -4 -10z"/>
<path d="M8937 983 c-4 -3 -7 -172 -7 -375 l0 -368 285 0 285 0 0 88 c0 80 -2
89 -25 111 -32 30 -38 55 -33 141 3 60 8 73 32 99 27 28 27 29 8 35 -17 6 -20
13 -15 41 3 19 0 49 -8 66 l-13 32 -19 -24 c-19 -24 -19 -24 2 -27 31 -5 29
-41 -2 -38 -13 2 -28 6 -34 9 -7 4 -9 -17 -5 -63 4 -58 2 -70 -10 -70 -9 0
-18 -9 -21 -20 -6 -25 -51 -43 -100 -41 -67 3 -74 -3 -68 -57 9 -66 0 -116
-21 -120 -26 -5 -29 23 -26 238 l3 195 65 3 c67 3 139 -12 152 -32 5 -6 8 -2
8 10 0 27 -32 34 -159 35 -87 1 -126 12 -58 16 17 1 53 5 80 9 47 6 47 6 47
45 l0 38 113 4 c110 3 109 3 -43 7 -143 3 -149 4 -70 10 62 5 28 7 -126 8
-116 1 -214 -1 -217 -5z m503 -253 c0 -5 -5 -10 -11 -10 -5 0 -7 5 -4 10 3 6
8 10 11 10 2 0 4 -4 4 -10z m-483 -212 c-2 -24 -4 -5 -4 42 0 47 2 66 4 43 2
-24 2 -62 0 -85z"/>
<path d="M9453 983 c9 -2 25 -2 35 0 9 3 1 5 -18 5 -19 0 -27 -2 -17 -5z"/>
<path d="M9328 873 c6 -2 18 -2 25 0 6 3 1 5 -13 5 -14 0 -19 -2 -12 -5z"/>
<path d="M9460 874 c0 -9 31 -37 36 -32 9 9 -8 38 -22 38 -8 0 -14 -3 -14 -6z"/>
<path d="M9218 863 c12 -2 32 -2 45 0 12 2 2 4 -23 4 -25 0 -35 -2 -22 -4z"/>
<path d="M9190 713 l0 -88 61 3 c59 4 61 5 75 38 21 51 4 114 -32 114 -8 0
-14 5 -14 10 0 6 -20 10 -45 10 l-45 0 0 -87z"/>
<path d="M9486 741 c-4 -7 -5 -15 -2 -18 9 -9 19 4 14 18 -4 11 -6 11 -12 0z"/>
<path d="M9480 568 c0 -24 4 -49 9 -57 7 -10 10 4 10 42 0 31 -5 57 -10 57 -5
0 -9 -19 -9 -42z"/>
</g>
</svg>
