<?xml version="1.0" standalone="no"?>
<!DOCTYPE svg PUBLIC "-//W3C//DTD SVG 20010904//EN"
 "http://www.w3.org/TR/2001/REC-SVG-20010904/DTD/svg10.dtd">
<svg version="1.0" xmlns="http://www.w3.org/2000/svg"
 width="1280.000000pt" height="720.000000pt" viewBox="0 0 1280.000000 720.000000"
 preserveAspectRatio="xMidYMid meet">
<metadata>
Created by potrace 1.16, written by Peter Selinger 2001-2019
</metadata>
<g transform="translate(0.000000,720.000000) scale(0.100000,-0.100000)"
fill="#000000" stroke="none">
<path d="M6172 7188 c-7 -7 -12 -16 -12 -21 0 -24 -44 -100 -61 -104 -10 -3
-19 -13 -19 -22 0 -26 -54 -130 -67 -131 -7 0 -13 -7 -13 -15 0 -8 -8 -15 -18
-15 -13 0 -26 -17 -42 -52 -74 -170 -86 -213 -95 -353 -4 -55 -11 -104 -15
-110 -4 -5 -16 -36 -26 -67 -10 -32 -21 -58 -25 -58 -5 0 -13 -18 -19 -40 -6
-22 -15 -40 -20 -40 -6 0 -17 -18 -26 -40 -9 -22 -20 -40 -25 -40 -5 0 -9 -9
-9 -20 0 -12 -11 -31 -25 -44 -14 -13 -25 -31 -25 -40 0 -9 -7 -19 -15 -22 -8
-4 -15 -12 -15 -19 0 -8 -7 -15 -15 -17 -10 -2 -12 -8 -6 -17 8 -12 13 -12 35
2 14 9 33 17 43 17 14 0 8 -10 -22 -40 -22 -21 -46 -39 -53 -40 -13 0 -61 -49
-62 -62 0 -4 -13 -22 -30 -40 -16 -18 -30 -38 -30 -45 0 -7 -4 -13 -10 -13 -5
0 -10 -8 -10 -19 0 -10 -18 -37 -40 -60 -22 -22 -40 -46 -40 -51 0 -6 -6 -10
-13 -10 -27 0 -67 -26 -67 -42 0 -10 -7 -18 -15 -18 -8 0 -20 -9 -27 -20 -7
-11 -20 -20 -29 -20 -23 0 -123 -50 -132 -66 -4 -8 -13 -14 -19 -14 -12 0 -82
-45 -106 -67 -7 -7 -33 -13 -56 -13 -27 0 -48 -6 -56 -15 -7 -8 -19 -15 -28
-15 -32 0 -92 -24 -92 -37 0 -8 -12 -13 -35 -13 -49 0 -125 -22 -125 -36 0 -6
-22 -14 -50 -18 -27 -4 -52 -11 -55 -16 -3 -6 -17 -10 -31 -10 -13 0 -24 -4
-24 -10 0 -5 -9 -10 -20 -10 -10 0 -45 -8 -77 -17 -32 -9 -94 -18 -138 -21
-64 -3 -82 -7 -93 -23 -25 -36 -47 -40 -119 -23 -70 18 -72 19 -160 116 -23
26 -58 52 -77 59 -20 7 -36 18 -37 24 0 10 -93 58 -136 70 -13 4 -23 11 -23
16 0 15 -56 10 -70 -6 -10 -13 -9 -15 9 -15 12 0 21 -6 21 -15 0 -9 8 -19 18
-22 9 -4 23 -15 30 -25 7 -10 26 -18 42 -18 15 0 30 -3 32 -7 1 -5 20 -22 40
-40 l37 -32 -42 -19 c-23 -11 -48 -22 -56 -24 -13 -4 45 -69 99 -113 8 -6 42
-35 75 -64 84 -73 83 -72 113 -79 15 -4 171 -7 347 -7 316 0 349 3 375 34 15
18 85 44 136 51 87 12 137 27 150 44 6 9 17 16 25 16 8 0 32 7 54 15 22 8 57
14 77 15 39 0 88 18 88 32 0 16 44 58 62 58 11 0 18 7 18 20 0 17 7 20 40 20
27 0 40 4 40 14 0 7 14 19 31 26 17 7 36 18 43 24 19 18 55 36 70 36 8 0 28
14 46 30 18 17 36 30 41 30 5 0 9 4 9 8 0 4 18 19 40 32 22 14 40 32 40 40 0
15 18 27 73 50 15 7 27 16 27 21 0 14 30 11 46 -5 8 -8 14 -21 14 -28 0 -7 6
-22 14 -33 23 -34 37 -476 15 -483 -5 -2 -9 -23 -9 -47 0 -43 -61 -272 -101
-375 -11 -30 -25 -68 -30 -85 -5 -16 -18 -49 -29 -73 -34 -73 -72 -248 -64
-300 5 -37 3 -48 -11 -58 -13 -10 -23 -51 -41 -161 -41 -257 -45 -277 -66
-323 -33 -73 -89 -231 -103 -291 -7 -32 -14 -101 -16 -154 -4 -102 -3 -104 44
-119 15 -5 17 -20 17 -138 -1 -91 -6 -146 -15 -173 -19 -50 -36 -237 -40 -427
-1 -80 -6 -152 -11 -160 -5 -7 -9 -195 -10 -418 -3 -447 -13 -612 -41 -643
-44 -48 -82 -57 -254 -58 -110 -1 -164 2 -168 10 -9 14 -121 26 -121 12 0 -5
-9 -12 -19 -16 -11 -3 -23 -15 -27 -27 -7 -23 22 -55 91 -101 54 -35 207 -97
240 -97 15 0 35 -5 46 -10 10 -6 44 -15 75 -21 63 -12 138 -49 171 -85 12 -13
28 -24 36 -24 7 0 17 -4 22 -9 15 -14 164 -20 174 -7 24 30 46 361 28 412 -5
14 -3 27 6 36 16 15 30 74 47 193 23 159 43 261 56 294 8 18 14 54 14 80 0 25
9 118 21 206 15 117 19 187 15 260 -7 110 7 278 24 283 6 2 10 38 10 85 0 69
6 100 39 197 22 63 49 138 62 165 65 150 68 154 96 161 16 3 49 12 75 19 26 8
93 19 148 26 110 13 224 4 352 -27 77 -19 75 -18 145 -169 34 -76 43 -107 53
-200 7 -60 17 -135 24 -165 13 -58 5 -248 -13 -319 -24 -92 -34 -274 -22 -406
7 -71 16 -148 21 -170 4 -22 13 -89 19 -150 6 -60 17 -155 23 -210 7 -55 11
-158 8 -230 -6 -202 -5 -307 3 -339 l8 -29 97 5 c98 5 142 18 142 42 0 40 104
76 290 100 110 15 192 38 198 56 2 5 11 10 20 10 22 1 71 28 111 62 35 30 40
64 14 84 -21 16 -113 19 -113 4 0 -5 -5 -10 -11 -10 -6 0 -18 -7 -27 -16 -12
-12 -28 -15 -71 -11 -58 5 -102 13 -136 24 -11 4 -25 6 -32 5 -6 -2 -14 2 -18
8 -3 5 -18 10 -33 11 -33 1 -82 28 -96 54 -6 11 -13 22 -16 25 -30 30 -33 63
-26 307 9 317 11 340 25 508 7 78 10 194 7 262 -4 92 -2 125 7 135 21 20 26
45 14 57 -7 7 -7 11 -1 11 15 0 39 216 26 232 -15 18 -35 207 -30 281 5 81 25
121 61 125 23 3 27 8 27 35 0 18 -14 84 -30 147 -70 264 -98 479 -99 744 -1
198 -22 419 -51 541 -49 204 -59 254 -66 310 -4 33 -15 85 -26 115 -28 83 -33
157 -14 231 9 35 20 129 25 208 4 79 13 146 18 150 5 3 17 23 26 44 23 47 58
50 108 7 19 -16 39 -34 46 -40 7 -5 19 -10 28 -10 8 0 15 -7 15 -15 0 -15 45
-65 60 -65 5 0 24 -13 42 -30 18 -16 38 -30 45 -30 7 0 13 -4 13 -10 0 -5 7
-10 15 -10 9 0 18 -6 21 -14 3 -7 23 -21 45 -31 21 -10 39 -22 39 -27 0 -4 9
-8 20 -8 11 0 20 -4 20 -9 0 -6 18 -20 40 -32 32 -18 40 -28 40 -51 0 -30 31
-68 55 -68 8 0 25 -11 38 -24 14 -14 42 -27 63 -30 22 -4 58 -11 82 -16 23 -6
70 -10 105 -11 112 0 337 -38 364 -60 7 -6 13 -8 13 -3 0 5 4 3 9 -5 6 -10 55
-16 181 -23 l172 -9 37 25 c20 14 45 26 54 26 9 0 45 27 79 61 35 34 73 68 86
76 14 10 22 25 22 44 0 16 5 29 13 29 6 0 19 15 27 33 8 17 24 36 35 41 21 9
85 123 85 151 0 13 -4 13 -29 3 -42 -19 -131 -99 -131 -120 0 -9 -9 -20 -20
-23 -11 -3 -20 -10 -20 -15 0 -5 -21 -24 -47 -41 -27 -18 -55 -40 -63 -48 -21
-22 -56 -41 -75 -41 -8 0 -15 -5 -15 -11 0 -14 -28 -9 -145 26 -49 15 -124 32
-166 39 -43 6 -83 19 -92 28 -9 9 -30 19 -46 23 -16 3 -35 13 -42 21 -6 8 -29
14 -50 14 -21 0 -40 4 -44 9 -3 5 -34 19 -70 31 -36 12 -65 26 -65 31 0 5 -11
9 -25 9 -14 0 -25 4 -25 9 0 12 -121 51 -160 51 -16 0 -30 5 -30 10 0 6 -9 10
-20 10 -11 0 -20 4 -20 8 0 5 -18 17 -40 27 -22 10 -40 24 -40 32 0 7 -9 13
-20 13 -11 0 -20 4 -20 9 0 10 -58 71 -67 71 -15 0 -92 57 -93 68 0 6 -4 12
-9 12 -17 0 -71 61 -71 80 0 9 -7 23 -15 30 -8 7 -15 17 -15 22 0 5 -11 24
-25 42 -14 18 -25 38 -25 44 0 7 -8 20 -17 31 -10 10 -32 35 -50 55 -18 20
-37 36 -43 36 -6 0 -14 10 -19 23 -5 12 -32 34 -60 49 -44 23 -49 27 -31 33
18 6 20 12 15 43 -4 20 -10 48 -15 62 -5 14 -11 55 -13 92 -3 44 -10 73 -21
83 -9 10 -23 30 -31 46 -9 16 -20 29 -25 29 -6 0 -10 9 -10 21 0 21 -57 132
-71 137 -5 2 -9 19 -9 38 0 20 -6 37 -14 40 -8 3 -16 27 -20 55 -9 67 -99 309
-115 309 -3 0 -15 18 -25 41 -11 22 -30 51 -43 65 -13 14 -23 30 -23 35 0 23
-81 119 -100 119 -5 0 -10 5 -10 10 0 15 -343 13 -358 -2z m457 -283 c11 -14
23 -40 26 -58 4 -18 12 -38 18 -45 19 -23 21 -156 3 -208 -9 -26 -16 -63 -16
-81 0 -18 -4 -33 -10 -33 -5 0 -10 25 -10 55 0 34 -6 65 -16 80 -21 32 -16
111 8 109 14 -1 16 4 11 30 -3 17 -10 33 -15 34 -4 2 -6 7 -4 11 3 4 -4 33
-15 66 -22 68 -22 65 -10 65 5 0 19 -11 30 -25z m361 -701 c0 -8 -5 -12 -10
-9 -6 4 -8 11 -5 16 9 14 15 11 15 -7z"/>
</g>
</svg>
