<?xml version="1.0" standalone="no"?>
<!DOCTYPE svg PUBLIC "-//W3C//DTD SVG 20010904//EN"
 "http://www.w3.org/TR/2001/REC-SVG-20010904/DTD/svg10.dtd">
<svg version="1.0" xmlns="http://www.w3.org/2000/svg"
 width="1280.000000pt" height="720.000000pt" viewBox="0 0 1280.000000 720.000000"
 preserveAspectRatio="xMidYMid meet">
<metadata>
Created by potrace 1.16, written by Peter Selinger 2001-2019
</metadata>
<g transform="translate(0.000000,720.000000) scale(0.100000,-0.100000)"
fill="#000000" stroke="none">
<path d="M6204 7153 l-72 -35 -7 -54 c-5 -39 -11 -54 -22 -54 -18 0 -42 -28
-43 -48 0 -7 -13 -41 -30 -75 -35 -75 -98 -260 -111 -331 -6 -28 -14 -98 -18
-156 -5 -63 -15 -121 -25 -145 -31 -70 -41 -90 -46 -95 -3 -3 -13 -20 -23 -39
-14 -27 -15 -36 -5 -42 7 -4 9 -12 4 -16 -5 -4 -11 -2 -13 5 -15 42 -63 -46
-63 -115 0 -23 -5 -33 -15 -33 -11 0 -15 -11 -15 -39 0 -25 -11 -60 -29 -93
-46 -87 -84 -226 -97 -360 -4 -38 -11 -68 -15 -68 -5 0 -12 -18 -15 -40 -4
-22 -10 -40 -15 -40 -5 0 -9 -18 -9 -40 0 -22 -4 -40 -10 -40 -5 0 -10 -14
-10 -31 0 -36 -31 -129 -42 -129 -5 0 -8 -15 -8 -34 0 -19 -10 -65 -22 -102
-20 -62 -22 -87 -19 -242 2 -109 8 -194 17 -228 8 -30 14 -68 14 -84 0 -16 7
-55 16 -87 9 -32 28 -103 42 -158 15 -55 29 -102 32 -105 10 -9 10 -69 0 -75
-13 -8 -13 -71 1 -115 12 -40 13 -257 1 -375 -8 -74 -7 -82 17 -125 23 -39 26
-57 26 -136 0 -71 -4 -96 -16 -110 -11 -12 -19 -46 -23 -94 -3 -41 -10 -100
-15 -130 -13 -78 -1 -93 101 -123 46 -14 103 -28 128 -32 25 -4 56 -13 70 -20
14 -7 42 -16 63 -20 34 -7 36 -10 37 -44 0 -20 2 -80 6 -134 6 -104 -7 -259
-30 -342 -17 -60 -39 -118 -47 -125 -3 -3 -9 -17 -12 -32 -4 -15 -13 -33 -20
-40 -12 -13 -50 -124 -62 -181 -25 -122 -45 -363 -45 -557 0 -199 -2 -224 -26
-315 -14 -55 -34 -119 -45 -142 -29 -60 -34 -106 -16 -142 10 -20 13 -45 10
-71 -4 -26 -2 -40 6 -40 6 0 11 -6 11 -14 0 -16 30 -26 78 -26 18 0 56 -12 85
-26 l51 -27 171 7 c180 8 195 12 195 59 0 24 -46 69 -92 91 -19 9 -42 31 -52
49 -11 17 -34 51 -53 74 -18 23 -33 50 -33 62 0 11 -4 23 -10 26 -5 3 -10 37
-10 74 0 37 -5 72 -11 78 -11 11 4 153 22 200 5 13 9 36 9 50 0 30 14 78 42
141 10 24 23 62 28 85 22 101 53 212 60 217 4 3 10 19 13 35 13 71 29 125 37
125 5 0 11 18 15 40 4 22 10 40 15 40 4 0 10 10 13 23 10 43 45 127 59 141 8
8 21 29 28 48 30 77 46 107 55 104 22 -6 37 -138 29 -261 -5 -66 -9 -307 -9
-535 -1 -291 -5 -427 -13 -456 -7 -24 -12 -102 -12 -180 0 -77 -1 -152 -2
-169 -5 -101 -2 -117 21 -136 14 -11 39 -19 62 -19 21 0 39 -3 39 -7 0 -5 46
-6 102 -3 133 7 178 30 178 88 0 25 -43 82 -62 82 -17 0 -58 33 -58 45 0 3 -9
15 -19 26 -25 27 -33 74 -21 124 13 56 12 139 -2 153 -9 9 -8 16 5 30 9 10 25
52 36 93 11 41 27 101 36 134 46 169 69 267 75 330 11 101 30 215 41 251 11
38 12 174 0 174 -5 0 -12 54 -16 120 -4 67 -11 120 -17 120 -5 0 -8 10 -6 23
2 16 9 21 26 19 19 -3 22 1 22 32 0 20 -4 36 -10 36 -5 0 -10 -7 -10 -15 0 -8
-7 -15 -16 -15 -12 0 -15 6 -9 23 6 21 25 113 46 228 5 31 18 78 27 105 17 48
19 49 62 52 25 1 110 16 190 33 80 16 160 33 177 36 42 7 47 25 34 116 -6 39
-18 150 -26 245 -16 183 -16 184 28 244 11 15 23 50 28 78 4 28 14 64 22 80
14 26 13 33 -8 74 -28 56 -44 194 -23 207 11 7 13 80 11 400 -2 215 -5 394 -8
399 -5 7 -17 104 -19 148 -1 12 -4 22 -8 22 -5 0 -8 26 -8 58 0 33 -5 94 -10
138 -6 43 -15 232 -20 419 -12 373 -15 415 -36 415 -8 0 -14 7 -14 16 0 19
-127 144 -147 144 -9 0 -13 18 -13 63 0 109 -18 222 -41 268 -13 24 -26 46
-30 49 -4 3 -14 21 -22 40 -9 19 -23 46 -31 60 -29 49 -55 116 -77 195 -12 44
-28 92 -35 107 -8 14 -14 31 -14 38 0 21 -49 120 -60 120 -5 0 -10 9 -10 20 0
11 -4 20 -10 20 -5 0 -10 6 -10 13 0 7 -9 23 -20 35 -11 12 -20 27 -20 35 0 8
-11 26 -25 41 -13 14 -38 46 -54 70 -34 48 -74 71 -152 86 -94 18 -148 12
-225 -27z m409 -197 c15 -13 27 -27 27 -31 0 -4 8 -19 18 -33 10 -15 30 -63
44 -107 22 -71 25 -93 21 -199 -2 -93 -7 -124 -20 -138 -9 -10 -21 -17 -27
-16 -6 0 -19 -2 -29 -7 -31 -13 -44 12 -19 35 19 18 23 19 28 6 3 -9 10 -13
16 -10 5 3 7 12 4 20 -3 7 0 27 5 43 12 33 -14 225 -33 248 -5 7 -8 19 -4 28
3 8 0 14 -7 12 -8 -1 -12 14 -12 49 0 52 -16 84 -41 84 -8 0 -14 2 -14 4 0 2
-3 11 -6 20 -9 24 17 20 49 -8z m-748 -1778 c4 -13 9 -86 12 -163 5 -129 3
-153 -27 -305 -77 -398 -115 -529 -152 -530 -16 0 -18 10 -18 78 0 54 -5 84
-16 100 -8 12 -13 30 -10 40 7 20 28 293 27 339 0 17 6 38 14 46 8 8 19 32 24
54 31 128 67 238 87 270 8 12 14 35 14 51 0 46 32 60 45 20z m1289 -1120 c3
-13 7 -34 10 -48 2 -14 9 -43 15 -65 15 -56 14 -105 -2 -105 -14 0 -58 157
-57 208 0 38 27 45 34 10z m86 -555 c0 -10 3 -35 6 -55 5 -30 3 -38 -9 -38
-16 0 -27 29 -27 78 0 22 5 32 15 32 8 0 15 -8 15 -17z"/>
<path d="M7300 4840 c0 -33 3 -40 20 -40 20 0 21 14 4 68 -8 27 -24 9 -24 -28z"/>
</g>
</svg>
