<?xml version="1.0" standalone="no"?>
<!DOCTYPE svg PUBLIC "-//W3C//DTD SVG 20010904//EN"
 "http://www.w3.org/TR/2001/REC-SVG-20010904/DTD/svg10.dtd">
<svg version="1.0" xmlns="http://www.w3.org/2000/svg"
 width="1280.000000pt" height="720.000000pt" viewBox="0 0 1280.000000 720.000000"
 preserveAspectRatio="xMidYMid meet">
<metadata>
Created by potrace 1.16, written by Peter Selinger 2001-2019
</metadata>
<g transform="translate(0.000000,720.000000) scale(0.100000,-0.100000)"
fill="#000000" stroke="none">
<path d="M6196 7158 c-13 -24 -28 -60 -31 -80 -4 -21 -13 -38 -20 -38 -13 0
-35 -41 -35 -65 0 -8 -7 -15 -15 -15 -8 0 -15 -5 -15 -12 0 -6 -7 -19 -15 -28
-8 -8 -21 -40 -29 -70 -8 -30 -23 -75 -32 -100 -40 -109 -64 -213 -75 -317 -7
-62 -15 -113 -20 -113 -4 0 -13 -17 -20 -37 -6 -21 -15 -40 -18 -43 -12 -10
-31 -50 -31 -65 0 -8 -4 -15 -9 -15 -6 0 -20 -18 -32 -40 -13 -22 -26 -40 -31
-40 -4 0 -8 -7 -8 -16 0 -8 -7 -22 -15 -30 -8 -8 -22 -37 -32 -64 -10 -28 -21
-50 -25 -50 -5 0 -8 -18 -8 -40 0 -28 -4 -40 -14 -40 -26 0 -60 -89 -64 -167
-2 -40 -8 -73 -13 -73 -5 0 -9 -26 -9 -57 0 -32 -4 -103 -10 -158 -6 -55 -14
-154 -19 -220 -6 -69 -14 -121 -20 -123 -6 -2 -11 -21 -11 -43 0 -39 0 -39
-40 -39 -40 0 -40 0 -40 39 l0 40 -297 5 c-437 8 -1028 24 -1103 30 -36 3
-282 7 -547 9 l-483 4 0 -184 0 -183 203 0 c111 0 231 4 267 9 36 5 239 13
453 17 354 6 387 5 387 -10 0 -9 8 -16 19 -16 10 0 45 -3 78 -6 53 -6 62 -4
80 15 18 20 24 21 42 9 12 -7 21 -18 21 -25 0 -8 15 -13 40 -13 23 0 40 5 40
11 0 8 108 10 398 7 218 -3 326 -3 240 -1 -104 2 -158 7 -158 14 0 8 -25 9
-80 4 -54 -5 -80 -4 -80 3 0 6 -19 12 -42 14 -24 2 83 2 237 0 154 -3 281 -9
283 -13 2 -4 10 -5 18 -2 8 3 14 0 14 -6 0 -6 -4 -11 -10 -11 -5 0 -2 -16 7
-35 15 -31 15 -47 3 -164 -9 -88 -11 -186 -7 -304 4 -96 4 -202 1 -235 l-7
-60 -91 4 c-202 9 -447 10 -452 2 -3 -5 -12 -4 -19 2 -11 9 -23 8 -50 -1 -29
-11 -34 -16 -28 -34 11 -29 5 -195 -8 -227 -8 -19 -8 -37 -1 -60 6 -18 9 -103
7 -190 -2 -129 0 -158 11 -158 8 0 14 9 14 21 0 12 8 23 20 26 11 3 20 9 20
14 0 5 9 9 20 9 14 0 20 7 20 21 0 16 4 19 18 14 9 -4 27 -7 40 -6 18 1 22 -4
22 -29 0 -17 5 -30 10 -30 6 0 10 -7 10 -15 0 -8 -8 -15 -19 -15 -10 0 -21 -9
-24 -21 -3 -11 -15 -23 -26 -26 -12 -3 -22 -9 -22 -14 -1 -5 -2 -13 -3 -18 -2
-19 -16 -24 -31 -11 -11 9 -18 10 -28 1 -16 -13 -27 -5 -27 21 0 17 -29 27
-31 11 0 -5 -2 -25 -4 -47 l-4 -39 49 6 c33 4 50 2 50 -5 0 -7 5 -6 15 2 14
12 285 21 285 10 0 -3 60 -4 132 -2 167 4 159 5 183 -1 17 -4 23 -31 10 -45
-9 -10 -380 -9 -549 1 l-200 12 -8 30 c-4 17 -6 50 -3 75 9 86 14 796 5 740
-7 -44 -21 -511 -24 -805 -1 -43 -5 -62 -16 -66 -8 -4 -399 -4 -867 -1 l-853
5 0 -21 c0 -21 5 -22 138 -25 l137 -3 -137 -2 c-129 -2 -138 -3 -138 -22 0
-16 8 -19 58 -22 54 -3 57 -4 60 -30 3 -28 3 -28 -57 -28 -54 0 -61 -2 -61
-20 0 -18 7 -20 55 -20 l55 0 0 -95 0 -95 -32 0 c-71 0 -78 -7 -78 -71 0 -48
3 -57 15 -53 8 4 15 1 15 -5 0 -6 -7 -11 -15 -11 -11 0 -15 -11 -15 -40 0 -35
3 -40 24 -40 22 0 24 -5 31 -77 4 -49 3 -79 -3 -81 -5 -1 -8 -12 -5 -22 3 -11
0 -20 -6 -20 -6 0 -11 5 -11 11 0 8 -5 8 -15 -1 -11 -9 -15 -32 -15 -81 0 -61
2 -69 19 -69 18 0 68 -48 89 -86 8 -15 13 -16 25 -6 8 7 18 23 21 36 6 23 36
45 36 26 0 -6 18 -10 40 -10 22 0 40 -4 40 -10 0 -5 8 -10 18 -10 13 0 23 13
32 40 13 40 30 54 30 25 0 -11 11 -15 37 -15 30 0 43 -7 75 -42 37 -40 39 -41
53 -22 7 10 17 36 20 57 8 42 26 48 43 15 l11 -23 0 23 c1 12 3 22 6 22 15 0
75 -72 75 -90 0 -11 5 -20 10 -20 6 0 10 6 10 14 0 8 3 16 8 18 4 2 15 20 24
41 17 36 19 37 73 37 l55 0 27 -57 c27 -58 27 -58 31 -25 2 18 15 44 30 59 25
25 34 27 122 30 52 1 87 0 78 -3 -24 -7 -26 -84 -3 -84 8 0 15 4 15 9 0 12 59
71 70 71 5 0 11 -6 13 -12 4 -10 6 -10 6 0 1 6 7 12 15 12 9 0 17 -17 21 -47
l8 -48 14 55 14 55 239 0 c132 0 240 -3 240 -6 0 -4 29 -4 64 -2 88 8 112 0
125 -39 l12 -33 19 25 c11 14 20 33 20 44 0 14 5 17 23 12 12 -3 30 -6 40 -6
9 0 17 -7 17 -15 0 -11 11 -15 40 -15 27 0 40 4 40 14 0 18 152 34 158 17 2
-6 10 -11 18 -11 8 0 14 -7 14 -15 0 -8 5 -15 10 -15 6 0 10 7 10 15 0 8 7 15
15 15 8 0 15 5 15 10 0 14 77 13 82 -1 3 -9 14 -9 42 1 28 9 80 11 185 6 80
-3 152 -6 159 -6 9 0 12 -31 12 -122 0 -67 4 -147 10 -177 5 -31 14 -87 20
-126 13 -81 32 -145 42 -145 5 0 8 -14 8 -31 0 -31 54 -259 70 -294 5 -11 11
-33 14 -50 10 -60 40 -180 46 -185 10 -8 27 -80 39 -158 11 -74 5 -105 -26
-125 -7 -4 -13 -14 -13 -21 0 -16 -53 -76 -68 -76 -5 0 -12 -3 -14 -7 -1 -5
-26 -27 -54 -50 -46 -38 -58 -43 -102 -43 -32 0 -54 -5 -62 -15 -7 -8 -18 -15
-25 -15 -24 0 -55 -51 -55 -91 0 -35 3 -38 45 -54 34 -13 61 -16 112 -12 38 4
93 3 123 -2 54 -8 55 -9 13 -10 -54 -1 -57 -21 -3 -21 37 0 40 -2 40 -27 0
-37 39 -73 79 -73 30 0 31 -2 31 -40 0 -39 -1 -40 -35 -40 -34 0 -35 -1 -35
-40 l0 -40 -60 0 -60 0 0 -40 0 -40 200 0 200 0 0 104 0 104 -80 7 c-44 4 -80
11 -80 16 0 5 36 9 79 9 l79 0 7 80 c5 53 11 80 19 80 7 0 18 18 25 41 11 36
10 43 -5 60 -9 10 -32 21 -51 25 -38 7 -39 26 -2 34 45 10 87 43 93 73 8 41 7
87 -2 87 -10 0 -31 63 -43 125 -4 28 -11 117 -14 199 -3 82 -9 154 -12 159 -3
5 -10 82 -14 171 -13 242 -25 369 -49 496 -12 63 -24 156 -27 206 l-5 91 39 9
c21 5 93 8 160 6 107 -2 123 -5 128 -21 3 -9 1 -82 -5 -162 -11 -149 -3 -399
11 -399 5 0 9 -20 9 -45 0 -24 4 -66 9 -92 5 -26 16 -97 25 -158 8 -60 24
-173 36 -250 17 -117 20 -175 17 -351 -2 -116 -7 -216 -11 -222 -3 -6 -2 -13
4 -17 5 -3 10 -19 10 -36 0 -16 5 -29 10 -29 11 0 13 -87 4 -179 -6 -50 -10
-61 -25 -61 -17 0 -19 -9 -19 -80 l0 -80 154 0 153 0 7 61 c10 102 11 99 -34
99 -36 0 -40 3 -40 25 0 23 -4 25 -40 25 -22 0 -40 4 -40 9 0 6 -19 12 -42 14
-24 2 30 4 120 5 l162 2 0 80 c0 79 0 80 -25 80 -31 0 -33 25 -2 34 12 4 59 9
105 13 59 4 82 10 82 19 0 8 6 14 13 14 27 0 -19 20 -48 20 -16 0 -54 9 -83
20 -29 11 -67 20 -86 20 -32 0 -53 19 -38 35 24 24 110 48 210 58 61 6 112 15
112 19 0 4 7 8 15 8 27 0 163 72 191 101 l26 28 -21 30 c-20 27 -28 31 -71 31
-32 0 -64 -8 -97 -25 -42 -22 -54 -24 -78 -15 -16 6 -60 18 -98 26 -121 25
-187 68 -187 122 0 10 -3 21 -6 25 -3 3 -5 124 -5 269 1 145 2 272 1 283 -1
11 0 47 2 80 4 70 3 347 -1 490 -1 55 0 180 4 278 5 124 3 177 -4 177 -6 0
-11 18 -11 40 0 22 5 40 10 40 6 0 10 11 10 25 0 14 6 55 12 90 11 58 16 66
45 80 18 9 68 18 113 22 55 4 80 10 80 19 0 7 -7 46 -16 86 -10 45 -19 162
-24 303 -5 127 -14 262 -20 300 -6 39 -13 99 -15 135 -3 36 -11 112 -19 170
-42 312 -57 408 -65 440 -5 19 -14 64 -21 100 -6 36 -15 67 -20 70 -4 3 -9 28
-11 55 l-4 50 125 1 125 2 -1 37 c-1 20 -4 38 -6 40 -2 2 -65 7 -140 11 l-137
7 -7 53 c-7 56 0 79 19 67 7 -5 210 -10 452 -13 l441 -5 67 -70 c60 -62 67
-73 67 -110 0 -23 -4 -45 -9 -51 -4 -5 -22 -44 -40 -86 -35 -87 -40 -154 -15
-214 21 -50 19 -49 42 -26 25 25 68 19 100 -14 13 -13 26 -24 30 -24 8 0 81
81 93 104 4 6 3 40 -2 76 -6 36 -7 74 -5 86 3 11 -3 38 -14 59 -11 22 -20 47
-20 56 0 9 -9 19 -20 22 -12 3 -20 14 -20 26 0 12 -3 21 -8 21 -9 0 -26 41
-43 105 -7 28 -16 52 -19 55 -10 7 -50 87 -50 100 0 6 -11 26 -24 43 -13 18
-30 50 -37 72 -7 22 -21 49 -31 61 -10 11 -18 26 -18 32 0 7 -4 12 -8 12 -5 0
-17 18 -28 40 -10 22 -22 40 -26 40 -10 0 -68 60 -68 71 0 5 -9 9 -20 9 -11 0
-38 18 -60 40 -22 22 -47 40 -56 40 -9 0 -18 9 -21 19 -3 11 -13 21 -24 24
-10 3 -19 12 -19 21 0 9 -8 16 -20 16 -13 0 -20 7 -20 19 0 10 -9 21 -20 24
-11 3 -20 12 -20 21 0 9 -8 16 -20 16 -13 0 -20 7 -20 20 0 12 -7 20 -16 20
-9 0 -18 9 -21 20 -3 11 -14 20 -24 20 -11 0 -19 6 -19 14 0 7 -9 16 -21 19
-11 3 -23 15 -26 26 -3 12 -12 21 -19 21 -8 0 -14 10 -14 25 0 14 -4 25 -8 25
-5 0 -17 16 -28 35 -10 19 -24 35 -31 35 -7 0 -13 9 -13 20 0 11 -6 20 -14 20
-35 0 -53 72 -27 104 7 8 10 19 7 25 -9 14 -46 1 -46 -16 0 -12 -7 -14 -31 -9
-17 3 -35 6 -40 6 -5 0 -9 11 -9 25 0 14 5 25 10 25 18 0 10 17 -25 53 -20 20
-45 62 -57 92 -12 31 -29 60 -40 66 -10 5 -18 17 -18 25 0 18 -31 77 -42 82
-5 2 -8 9 -8 15 0 7 -13 44 -29 82 -15 39 -34 108 -41 155 -19 121 -96 327
-134 359 -7 6 -23 33 -36 61 -13 27 -27 50 -32 50 -4 0 -8 5 -8 11 0 6 -6 16
-12 23 -7 7 -22 25 -33 40 -11 16 -33 41 -48 57 l-29 29 -158 0 -159 0 -25
-42z m468 -283 c34 -73 49 -136 43 -182 -7 -55 -44 -191 -47 -173 -4 23 -10
68 -16 138 -3 34 -10 62 -15 62 -4 0 1 16 13 36 12 20 17 39 12 42 -8 6 -44
108 -44 125 0 4 6 7 14 7 7 0 25 -25 40 -55z m493 -1408 c15 -13 49 -36 76
-51 26 -16 47 -34 47 -42 0 -8 9 -14 20 -14 11 0 20 -4 20 -9 0 -5 9 -13 20
-16 11 -3 20 -11 20 -17 0 -16 32 -37 58 -38 12 0 22 -5 22 -10 0 -14 51 -59
68 -60 6 0 12 -6 12 -14 0 -8 17 -25 38 -37 20 -13 39 -27 40 -31 2 -4 10 -8
17 -8 7 0 15 -9 18 -21 3 -11 15 -23 26 -26 18 -5 21 -13 21 -59 l0 -54 40 0
40 0 0 -40 0 -40 -160 0 c-136 0 -160 2 -160 15 0 11 -11 15 -40 15 -28 0 -40
-4 -40 -14 0 -12 -24 -15 -123 -18 -114 -3 -123 -2 -119 15 3 14 -2 17 -31 17
-50 0 -67 9 -67 35 0 12 -7 42 -15 65 -11 31 -15 85 -15 195 0 146 1 154 25
189 14 20 25 40 25 44 1 9 62 50 77 51 6 1 24 -10 40 -22z m-2502 -657 c50
-19 23 -35 -59 -36 -59 -1 -79 3 -83 14 -3 8 0 18 8 23 19 12 102 11 134 -1z
m65 -60 c0 -5 -4 -10 -9 -10 -6 0 -13 5 -16 10 -3 6 1 10 9 10 9 0 16 -4 16
-10z m440 -950 c0 -6 -13 -9 -30 -8 -16 1 -30 6 -30 10 0 4 14 8 30 8 17 0 30
-5 30 -10z m280 -30 c0 -5 -5 -10 -11 -10 -5 0 -7 5 -4 10 3 6 8 10 11 10 2 0
4 -4 4 -10z m-302 -48 c2 -7 -6 -11 -22 -10 -14 1 -26 7 -26 14 0 14 43 11 48
-4z m100 0 c2 -7 -6 -12 -17 -12 -21 0 -27 11 -14 24 9 9 26 2 31 -12z m-278
-2 c0 -5 -6 -10 -14 -10 -8 0 -18 5 -21 10 -3 6 3 10 14 10 12 0 21 -4 21 -10z
m90 0 c0 -5 -4 -10 -9 -10 -6 0 -13 5 -16 10 -3 6 1 10 9 10 9 0 16 -4 16 -10z
m120 0 c0 -5 -4 -10 -10 -10 -5 0 -10 5 -10 10 0 6 5 10 10 10 6 0 10 -4 10
-10z m70 -84 c0 -2 3 -11 6 -20 5 -12 0 -16 -20 -16 -24 0 -35 18 -19 33 7 8
33 10 33 3z m-205 -26 c3 -5 -1 -10 -10 -10 -9 0 -13 5 -10 10 3 6 8 10 10 10
2 0 7 -4 10 -10z m100 0 c4 -6 -6 -10 -22 -9 -25 0 -26 1 -8 9 11 5 21 9 22 9
1 1 5 -3 8 -9z m159 -5 c3 -8 1 -15 -4 -15 -6 0 -10 7 -10 15 0 8 2 15 4 15 2
0 6 -7 10 -15z m-213 -88 c-10 -9 -11 -8 -5 6 3 10 9 15 12 12 3 -3 0 -11 -7
-18z m152 1 c14 -22 1 -48 -23 -48 -13 0 -20 7 -20 19 0 48 22 63 43 29z
m-293 -32 c0 -11 -19 -15 -25 -6 -3 5 1 10 9 10 9 0 16 -2 16 -4z m115 -6 c-3
-5 -12 -10 -20 -10 -8 0 -17 5 -20 10 -4 6 5 10 20 10 15 0 24 -4 20 -10z m90
0 c-3 -5 -15 -10 -26 -10 -10 0 -19 5 -19 10 0 6 12 10 26 10 14 0 23 -4 19
-10z m184 -159 c-2 -22 3 -46 10 -55 12 -14 11 -16 -5 -16 -32 0 -47 17 -49
52 -2 46 4 58 27 58 17 0 19 -6 17 -39z m33 -33 c-9 -9 -12 -4 -11 23 0 32 1
33 11 11 8 -17 8 -26 0 -34z m173 32 c0 -7 -6 -15 -12 -17 -8 -3 -13 4 -13 17
0 13 5 20 13 18 6 -3 12 -11 12 -18z m-325 -26 c0 -8 -4 -12 -10 -9 -5 3 -10
13 -10 21 0 8 5 12 10 9 6 -3 10 -13 10 -21z m218 2 c-13 -14 -28 -12 -28 5 0
5 9 9 20 9 17 0 19 -2 8 -14z m-8 -36 c0 -5 -13 -10 -30 -10 -16 0 -30 5 -30
10 0 6 14 10 30 10 17 0 30 -4 30 -10z m-1853 -234 c9 -8 -197 -6 -219 2 -10
4 34 6 98 6 63 -1 117 -4 121 -8z m330 2 c2 -5 -34 -8 -81 -8 -53 0 -86 4 -86
10 0 13 159 10 167 -2z m-239 -5 c-16 -2 -40 -2 -55 0 -16 2 -3 4 27 4 30 0
43 -2 28 -4z m-378 -68 c0 -23 -3 -25 -49 -25 -52 0 -65 8 -55 34 4 12 20 16
55 16 46 0 49 -2 49 -25z m240 11 c0 -25 -22 -31 -108 -32 -85 -1 -96 3 -86
30 9 22 194 24 194 2z m373 -11 c3 -15 -142 -19 -159 -4 -7 6 -12 14 -10 18 6
10 166 -3 169 -14z m1107 -16 c0 -26 -3 -29 -20 -24 -11 3 -20 2 -20 -4 0 -10
-177 -20 -455 -24 l-170 -2 -3 35 c-2 21 2 38 11 45 9 6 124 9 335 7 l322 -3
0 -30z m398 1 c4 -56 -7 -64 -72 -53 -31 6 -56 7 -56 3 0 -4 -11 -7 -24 -7
-19 0 -26 6 -31 29 -9 41 8 56 68 61 106 8 112 6 115 -33z m128 25 c4 -8 3
-31 0 -50 -6 -32 -10 -35 -44 -35 l-37 -1 48 -44 c47 -43 47 -44 47 -108 0
-35 -3 -79 -6 -96 -6 -31 -8 -32 -53 -29 l-46 3 -1 170 c-1 94 1 178 3 188 6
23 81 25 89 2z m-1846 -10 c0 -12 -13 -15 -60 -15 -47 0 -60 3 -60 15 0 12 13
15 60 15 47 0 60 -3 60 -15z m458 3 c-3 -9 -33 -14 -93 -16 -93 -3 -120 1
-110 18 10 16 208 13 203 -2z m162 -33 c0 -38 -3 -45 -20 -45 -16 0 -20 7 -20
30 0 17 -3 29 -7 29 -29 -5 -62 3 -67 16 -4 12 5 15 54 15 l60 0 0 -45z m868
7 c3 -29 1 -32 -20 -28 -13 3 -42 5 -65 5 -41 1 -43 2 -43 31 l0 31 63 -3 62
-3 3 -33z m-1030 -163 c-2 -38 -9 -74 -15 -80 -20 -20 -171 -9 -185 13 -13 21
-10 136 4 144 7 5 48 9 91 10 43 1 81 5 85 8 14 15 24 -31 20 -95z m-858 1 l0
-78 -55 -4 -55 -3 0 72 c0 97 1 99 60 95 l50 -4 0 -78z m226 24 c3 -19 3 -49
0 -66 -6 -33 -7 -33 -69 -36 -34 -1 -72 -4 -84 -6 -15 -3 -23 2 -27 17 -8 31
-7 120 2 134 11 17 112 21 144 5 19 -9 29 -24 34 -48z m766 48 c7 -7 14 -51
16 -107 4 -90 3 -95 -16 -95 -13 0 -22 9 -26 24 -8 31 -37 29 -53 -4 -12 -24
-12 -24 -13 15 -2 63 1 169 5 176 7 10 74 4 87 -9z m99 -42 c5 0 9 10 9 23 1
21 2 21 14 4 11 -14 35 -19 130 -24 109 -6 116 -5 117 13 1 18 2 18 6 1 3 -13
11 -17 23 -14 10 3 27 -1 38 -8 13 -10 60 -14 150 -16 l132 -2 0 -79 c0 -43
-3 -78 -7 -78 -5 0 -6 25 -5 55 3 35 0 55 -7 55 -6 0 -11 -19 -11 -44 l0 -44
-242 -7 c-202 -6 -284 -5 -380 4 -10 1 -10 112 -1 177 l7 49 9 -32 c6 -18 14
-33 18 -33z m1018 -70 c1 -86 -5 -116 -25 -124 -21 -8 -164 5 -164 15 0 5 39
10 88 11 l87 2 -83 3 -82 4 1 62 c3 86 9 95 60 91 46 -4 79 9 79 32 0 8 5 12
10 9 6 -3 11 2 11 12 3 43 17 -49 18 -117z m-1746 111 l37 -1 0 -74 0 -74 -57
-5 c-32 -2 -59 -3 -61 -2 -7 7 -14 115 -9 137 5 18 13 24 29 22 13 -1 40 -3
61 -3z m235 -5 c15 -9 16 -132 2 -141 -6 -4 -43 -7 -83 -7 l-72 -1 -3 65 c-2
46 1 70 11 79 14 15 124 18 145 5z m1802 -52 c0 -15 23 -24 59 -24 15 0 32 -5
39 -12 13 -13 16 -67 6 -116 l-6 -30 -98 -1 -97 -2 -7 32 c-3 17 -6 62 -6 100
0 67 1 69 28 75 15 3 32 7 37 8 14 4 45 -17 45 -30z m855 11 c33 -7 55 -113
66 -314 5 -96 7 -181 4 -189 -4 -11 -15 -12 -42 -7 -24 4 -38 2 -44 -6 -10
-16 -160 -25 -185 -11 -17 10 -16 12 14 18 27 5 32 11 32 34 0 33 -9 43 -26
29 -19 -16 -25 20 -22 126 4 119 22 117 26 -2 1 -51 6 -93 10 -93 4 0 5 43 4
95 l-4 94 69 -3 c95 -4 132 12 133 57 0 14 -9 17 -45 17 -34 0 -45 -4 -45 -16
0 -13 -12 -15 -72 -11 l-73 3 -5 70 c-5 62 -4 71 17 91 12 12 30 23 40 26 19
4 112 -1 148 -8z m-1405 -26 c0 -6 7 -9 15 -5 11 4 15 -1 14 -17 0 -12 -3 -16
-6 -9 -2 6 -9 12 -14 12 -13 0 -11 -117 2 -126 20 -12 -7 -19 -55 -16 -57 5
-61 22 -6 22 l40 0 0 45 0 45 -42 2 -43 1 43 4 c53 5 55 23 2 23 -29 0 -40 4
-40 15 0 11 12 15 45 15 26 0 45 -5 45 -11z m30 -89 c0 -22 -4 -40 -10 -40 -5
0 -10 18 -10 40 0 22 5 40 10 40 6 0 10 -18 10 -40z m-210 -70 c-9 -6 -125 -9
-285 -8 -148 0 -250 4 -225 8 72 11 527 11 510 0z m-827 -200 c-1 -57 -5 -110
-7 -117 -6 -14 -116 -19 -117 -5 -6 90 -7 174 -2 200 l6 34 61 -4 61 -4 -2
-104z m-243 27 c0 -51 -3 -64 -20 -75 -14 -8 -20 -23 -20 -47 0 -34 -1 -35
-39 -35 -32 0 -40 4 -45 23 -9 33 -7 170 3 185 5 9 23 13 49 11 23 -2 44 0 48
4 16 15 24 -8 24 -66z m797 -24 c-6 -52 -15 -93 -21 -94 -16 -1 26 -17 47 -18
15 -1 17 9 17 78 l0 79 48 4 c53 5 81 0 62 -12 -7 -5 -1 -10 17 -14 54 -14 73
-33 73 -76 0 -21 -5 -42 -10 -45 -16 -10 -1 -25 26 -25 21 0 24 5 24 34 0 62
13 156 21 156 5 0 9 -42 9 -94 l0 -95 -57 -11 c-40 -9 -126 -11 -283 -6 -124
3 -249 6 -277 6 l-53 0 0 96 0 96 40 -4 c22 -2 41 1 43 7 2 5 7 -26 12 -70 5
-55 4 -80 -4 -83 -6 -2 -11 -10 -11 -18 0 -10 12 -14 40 -14 l40 0 0 95 0 95
95 0 c77 0 97 3 102 15 11 30 11 10 0 -82z m1107 4 c10 -133 8 -137 -89 -142
-89 -5 -115 0 -115 20 0 10 9 12 33 9 17 -3 59 -1 92 4 56 9 57 10 18 11 l-43
1 0 54 c0 33 -5 56 -12 58 -9 3 -9 12 1 36 11 26 19 31 54 35 23 2 45 4 48 5
4 1 9 -40 13 -91z m-2125 69 c10 -7 12 -24 7 -75 -13 -130 -11 -126 -67 -127
l-49 -2 0 93 c0 52 2 99 5 107 6 15 81 18 104 4z m607 -6 c11 0 14 -17 14 -77
0 -85 -11 -116 -32 -95 -9 9 -9 12 4 12 11 0 15 6 11 21 -4 16 -8 17 -14 7 -5
-7 -8 22 -8 72 0 47 3 79 6 73 2 -7 11 -13 19 -13z m1100 5 c12 -11 13 -33 8
-110 l-7 -95 -83 0 -84 0 0 100 0 100 40 0 c34 0 40 -3 40 -21 0 -18 2 -19 15
-9 8 7 15 18 15 25 0 8 8 16 18 18 9 3 18 5 20 6 2 0 10 -6 18 -14z m158 -1
c10 -27 7 -152 -5 -159 -7 -5 -4 -14 7 -26 17 -18 15 -19 -40 -19 -39 0 -55 3
-50 11 3 6 6 56 5 110 l-2 99 39 0 c27 0 42 -5 46 -16z m95 -29 c16 -9 13 -45
-4 -51 -11 -5 -12 -10 -2 -25 10 -17 9 -23 -8 -35 -19 -15 -20 -13 -23 48 -2
34 0 74 4 88 6 24 6 25 14 4 5 -12 13 -25 19 -29z m-2206 18 c13 -8 7 -31 -10
-37 -37 -15 -100 24 -76 47 6 7 69 -1 86 -10z m1037 -28 c0 -25 -4 -45 -10
-45 -11 0 -14 73 -3 83 11 12 13 8 13 -38z m1408 -45 c4 -55 2 -74 -9 -81 -11
-7 -9 -9 7 -9 12 0 27 -7 34 -15 11 -13 7 -15 -23 -15 -42 0 -45 9 -39 128 5
102 22 97 30 -8z m-1901 18 c-2 -13 -4 -3 -4 22 0 25 2 35 4 23 2 -13 2 -33 0
-45z m1173 22 c0 -22 5 -40 10 -40 6 0 10 -27 10 -60 l0 -60 -55 0 c-30 0 -55
3 -56 8 0 4 -2 16 -5 27 -2 11 -1 53 2 93 l6 72 44 0 44 0 0 -40z m-1724 -97
l1 -73 -31 5 c-17 2 -37 4 -43 4 -17 1 -17 83 -1 99 10 10 10 15 -1 22 -11 6
-7 9 15 13 58 9 59 7 60 -70z m821 35 c-3 -8 -6 -5 -6 6 -1 11 2 17 5 13 3 -3
4 -12 1 -19z m-349 -70 c-2 -6 -10 -14 -16 -16 -7 -2 -10 2 -6 12 7 18 28 22
22 4z m2522 -1973 c0 -8 -7 -15 -16 -15 -14 0 -14 3 -4 15 7 8 14 15 16 15 2
0 4 -7 4 -15z"/>
<path d="M5453 2633 c9 -2 23 -2 30 0 6 3 -1 5 -18 5 -16 0 -22 -2 -12 -5z"/>
<path d="M4738 2743 c12 -2 32 -2 45 0 12 2 2 4 -23 4 -25 0 -35 -2 -22 -4z"/>
<path d="M3600 2358 c-3 -26 -1 -43 3 -39 5 5 7 26 5 47 l-3 39 -5 -47z"/>
<path d="M3363 2360 c0 -25 2 -35 4 -22 2 12 2 32 0 45 -2 12 -4 2 -4 -23z"/>
<path d="M3011 6963 c-1 -47 3 -75 12 -80 6 -4 18 -20 26 -35 8 -16 38 -53 68
-84 29 -31 53 -61 53 -66 0 -5 -19 -8 -42 -6 -41 3 -43 2 -41 -23 l1 -27 -24
25 c-28 28 -31 43 -8 43 9 0 14 7 12 17 -4 22 -28 29 -28 9 0 -9 -7 -16 -15
-16 -23 0 -21 -132 2 -151 9 -8 18 -13 20 -11 2 1 22 -19 44 -45 88 -104 98
-113 125 -113 25 0 26 2 20 33 -3 17 -14 37 -23 44 -18 14 -21 45 -10 113 3
25 3 34 -1 20 -7 -22 -9 -23 -15 -7 -11 30 -8 37 18 37 14 0 29 -8 35 -20 6
-11 17 -20 25 -20 9 0 15 -10 15 -25 0 -22 4 -25 34 -25 88 0 89 36 4 128 -34
37 -67 73 -73 80 -5 7 -18 22 -27 33 -10 10 -18 22 -18 25 0 10 -58 64 -69 64
-6 0 -11 6 -11 13 0 6 -19 33 -43 58 -23 25 -47 54 -54 65 -10 16 -12 7 -12
-53z m129 -330 c0 -10 -5 -25 -10 -33 -7 -11 -10 -7 -10 18 0 17 5 32 10 32 6
0 10 -8 10 -17z"/>
<path d="M5760 6972 c0 -16 72 -32 92 -21 10 5 16 14 13 20 -8 11 -105 12
-105 1z"/>
<path d="M8584 6925 c-16 -13 -17 -16 -4 -24 17 -11 89 -4 105 11 28 25 -68
38 -101 13z"/>
<path d="M3032 6805 c-9 -11 -10 -20 -3 -33 9 -15 10 -15 11 6 0 12 5 22 10
22 6 0 10 5 10 10 0 14 -13 12 -28 -5z"/>
<path d="M3060 6490 c0 -5 5 -10 11 -10 5 0 7 5 4 10 -3 6 -8 10 -11 10 -2 0
-4 -4 -4 -10z"/>
<path d="M7260 5930 c0 -5 7 -10 15 -10 8 0 15 5 15 10 0 6 -7 10 -15 10 -8 0
-15 -4 -15 -10z"/>
<path d="M9318 4963 c23 -2 61 -2 85 0 23 2 4 4 -43 4 -47 0 -66 -2 -42 -4z"/>
<path d="M8186 4844 c-4 -21 -3 -41 3 -48 9 -10 130 -15 543 -20 293 -3 586
-9 651 -13 l117 -6 0 52 0 51 -70 0 c-40 0 -70 4 -70 10 0 12 -995 13 -1078 1
-29 -4 -55 -4 -58 1 -12 20 -32 5 -38 -28z m1077 9 c-13 -2 -33 -2 -45 0 -13
2 -3 4 22 4 25 0 35 -2 23 -4z"/>
<path d="M8265 4661 c-3 -5 0 -13 5 -16 6 -4 10 -21 8 -38 l-3 -32 123 -5 c77
-3 126 -1 131 5 11 16 4 77 -11 86 -18 12 -245 11 -253 0z"/>
<path d="M9368 4605 l4 -45 64 0 64 0 0 45 0 45 -68 0 -67 0 3 -45z"/>
<path d="M9360 4360 c0 -6 30 -10 70 -10 40 0 70 4 70 10 0 6 -30 10 -70 10
-40 0 -70 -4 -70 -10z"/>
<path d="M3028 4309 c-17 -9 -18 -47 -18 -559 l0 -550 573 -1 c314 -1 628 -2
697 -3 69 -1 106 0 83 2 -55 4 -56 22 -2 22 32 0 47 6 71 30 16 17 36 30 44
30 9 0 12 5 9 10 -3 6 -41 10 -84 10 -90 0 -118 15 -123 65 l-3 30 135 -3 c74
-1 154 -5 178 -8 33 -4 43 -2 48 11 4 9 3 19 -1 23 -3 4 -59 10 -123 13 l-117
5 106 2 c84 2 108 5 113 17 10 27 -31 35 -179 35 l-146 0 6 323 c4 210 3 327
-4 337 -10 15 -107 28 -211 29 l-55 1 0 57 0 58 -34 -2 c-33 -1 -76 -37 -65
-54 20 -32 -80 -66 -159 -55 -23 4 -160 6 -304 6 -171 -1 -270 3 -283 10 -13
7 -26 7 -37 2 -9 -5 -24 -7 -34 -5 -16 5 -19 15 -19 64 0 55 -2 59 -22 59 -13
0 -31 -5 -40 -11z m1231 -183 c8 -9 10 -92 6 -292 -4 -154 -8 -294 -11 -311
l-5 -33 -125 0 -126 0 6 28 c3 15 8 158 12 317 3 160 8 293 11 298 2 4 53 7
112 7 80 0 112 -4 120 -14z m-1009 -25 c0 -11 -59 -20 -65 -11 -3 4 -2 10 2
14 10 9 63 7 63 -3z m205 -6 c0 -5 -21 -11 -47 -13 -39 -3 -48 0 -48 13 0 13
9 16 48 13 26 -2 47 -7 47 -13z m225 0 c0 -12 -14 -15 -65 -15 -60 0 -75 6
-58 23 3 4 33 7 65 7 45 0 58 -3 58 -15z m160 0 c0 -16 -16 -20 -65 -16 -37 3
-44 9 -25 21 25 16 90 12 90 -5z m123 -106 c-5 -18 -23 -27 -23 -11 1 25 14
52 20 42 4 -7 5 -21 3 -31z m0 -306 c-3 -87 -10 -162 -15 -168 -5 -6 -66 -10
-141 -10 -76 0 -113 2 -87 6 25 3 34 7 20 8 -25 2 -25 2 -5 17 18 13 20 13 23
0 7 -35 67 -2 85 47 3 9 17 17 29 17 16 0 19 3 10 8 -13 9 -6 42 9 42 21 0 60
53 58 79 -3 27 10 111 17 111 2 0 1 -71 -3 -157z m-603 -43 c0 -5 -5 -10 -11
-10 -5 0 -7 5 -4 10 3 6 8 10 11 10 2 0 4 -4 4 -10z"/>
<path d="M4825 3984 l-30 -15 34 6 c18 3 37 5 42 5 5 0 9 5 9 10 0 14 -19 11
-55 -6z"/>
<path d="M4960 3989 c0 -5 5 -7 10 -4 6 3 10 8 10 11 0 2 -4 4 -10 4 -5 0 -10
-5 -10 -11z"/>
<path d="M5000 3990 c0 -5 7 -10 15 -10 8 0 15 5 15 10 0 6 -7 10 -15 10 -8 0
-15 -4 -15 -10z"/>
<path d="M5054 3989 c-11 -4 18 -8 66 -8 93 1 97 5 9 11 -31 3 -64 1 -75 -3z"/>
<path d="M5298 3983 c12 -2 32 -2 45 0 12 2 2 4 -23 4 -25 0 -35 -2 -22 -4z"/>
<path d="M8263 3763 c-8 -19 -9 -159 -6 -718 1 -214 -2 -412 -6 -440 -8 -50
-8 -50 -10 24 -2 128 -47 161 -222 161 -162 0 -169 -10 -181 -270 -11 -239
-12 -244 -68 -250 -38 -4 -45 -9 -51 -33 -4 -16 -6 -34 -3 -41 6 -15 90 -23
352 -33 168 -6 172 -7 172 -28 0 -20 8 -22 160 -40 88 -10 160 -22 160 -27 0
-4 18 -8 40 -8 22 0 40 5 40 10 0 6 18 10 40 10 27 0 40 4 40 13 0 11 29 15
117 20 66 4 119 11 121 17 2 5 21 10 43 10 21 0 40 3 40 8 13 75 13 19 5 607
-4 328 -3 515 3 505 9 -12 11 -12 17 3 3 9 12 17 20 17 11 0 14 -29 14 -155 0
-95 -4 -164 -12 -180 -9 -20 -8 -31 3 -52 10 -22 14 -102 16 -363 2 -210 7
-336 13 -338 6 -2 10 -8 10 -13 0 -6 -4 -7 -10 -4 -5 3 -10 1 -10 -4 0 -6 19
-11 43 -11 23 0 85 -3 137 -6 52 -3 121 -2 153 1 l57 7 0 104 c0 57 -2 104 -5
104 -2 0 -14 -4 -27 -9 -13 -5 -42 -14 -65 -20 -40 -11 -43 -14 -43 -46 l0
-35 -78 0 c-68 0 -79 3 -90 21 -10 15 -11 24 -3 32 15 15 15 647 1 647 -6 0
-10 33 -10 80 0 47 4 80 10 80 6 0 10 18 10 40 0 22 -4 40 -10 40 -6 0 -10
101 -10 284 l0 284 -22 6 c-13 3 -218 6 -456 6 -399 0 -433 -1 -439 -17z m687
-732 c0 -17 -18 -21 -24 -6 -3 9 0 15 9 15 8 0 15 -4 15 -9z m-640 -235 c0 -3
-4 -8 -10 -11 -5 -3 -10 -1 -10 4 0 6 5 11 10 11 6 0 10 -2 10 -4z m867 -218
c-2 -13 -4 -3 -4 22 0 25 2 35 4 23 2 -13 2 -33 0 -45z m-1288 -183 l2 -125
-27 0 c-22 0 -25 3 -21 23 3 12 9 68 13 125 5 72 11 102 19 102 10 0 13 -32
14 -125z m316 -20 l-5 -95 -144 -3 -145 -2 3 35 c2 19 4 50 5 68 1 27 5 32 24
31 18 -1 19 -2 3 -6 -16 -4 -13 -10 20 -44 38 -39 39 -39 116 -39 l78 0 0 45
c0 39 -3 45 -25 51 -14 3 -25 9 -25 13 0 6 74 38 92 40 4 1 5 -42 3 -94z"/>
<path d="M8000 2300 c0 -11 43 -12 115 0 47 7 45 7 -32 9 -50 0 -83 -3 -83 -9z"/>
<path d="M4338 3323 c12 -2 32 -2 45 0 12 2 2 4 -23 4 -25 0 -35 -2 -22 -4z"/>
<path d="M7956 3218 c-3 -7 -4 -42 -3 -78 l2 -65 68 -3 68 -3 -3 78 -3 78 -63
3 c-44 2 -63 -1 -66 -10z m124 -58 c0 -5 -25 -10 -55 -10 -30 0 -55 5 -55 10
0 6 25 10 55 10 30 0 55 -4 55 -10z"/>
<path d="M7899 3180 c-4 -42 -1 -64 9 -68 8 -2 12 10 12 37 0 23 -4 41 -10 41
-5 0 -10 -4 -11 -10z"/>
<path d="M3010 3160 c0 -20 7 -20 455 -20 261 0 455 4 455 9 0 10 -192 18
-617 26 -288 5 -293 4 -293 -15z"/>
<path d="M7613 3000 c0 -25 2 -35 4 -22 2 12 2 32 0 45 -2 12 -4 2 -4 -23z"/>
<path d="M7635 2931 c-3 -5 -1 -12 5 -16 5 -3 10 1 10 9 0 18 -6 21 -15 7z"/>
<path d="M9354 2450 c-14 -14 -4 -90 12 -97 19 -7 86 25 79 38 -4 5 1 9 11 9
13 0 14 3 5 14 -9 11 -7 15 11 21 20 6 18 8 -17 15 -55 12 -89 12 -101 0z"/>
<path d="M7140 2221 c-122 -11 -12 -21 240 -21 229 0 300 5 300 19 0 9 -451
10 -540 2z"/>
<path d="M9070 2215 c0 -8 5 -15 10 -15 6 0 10 7 10 15 0 8 -4 15 -10 15 -5 0
-10 -7 -10 -15z"/>
<path d="M8930 969 c-8 -15 -10 -121 -4 -375 l7 -354 283 0 284 0 0 90 c0 63
-4 91 -13 97 -34 21 -47 58 -47 136 0 74 2 80 30 109 18 17 30 40 30 55 0 25
-1 25 -19 9 -19 -17 -19 -16 -14 22 3 24 0 49 -9 66 -14 26 -16 27 -31 11 -23
-22 -21 -35 4 -35 19 0 20 -4 15 -35 -4 -19 -2 -45 4 -57 11 -22 10 -22 -4 -4
-9 11 -16 31 -16 44 0 18 -4 23 -16 18 -11 -4 -18 1 -21 14 -3 11 -9 20 -14
20 -5 0 -9 10 -9 23 0 24 10 23 -152 27 -94 2 -133 13 -65 17 17 1 53 5 80 9
47 6 47 6 47 45 l0 38 113 4 c111 3 111 3 -43 7 l-155 4 155 6 c135 5 119 6
-127 8 -277 2 -283 2 -293 -19z m22 -254 c3 -138 2 -200 -2 -145 -8 99 -13
396 -6 389 2 -2 5 -112 8 -244z m374 113 c27 -9 37 -21 49 -57 19 -57 20 -131
1 -131 -7 0 -16 -8 -19 -19 -6 -25 -58 -49 -95 -43 -38 5 -85 -5 -77 -17 8
-14 9 -114 1 -139 -8 -26 -31 -29 -40 -6 -8 21 -8 409 1 417 11 12 145 8 179
-5z"/>
<path d="M9190 710 l0 -90 39 0 c63 0 89 14 100 55 12 45 7 76 -16 92 -10 7
-23 17 -30 23 -7 5 -30 10 -53 10 l-40 0 0 -90z"/>
<path d="M9328 873 c6 -2 18 -2 25 0 6 3 1 5 -13 5 -14 0 -19 -2 -12 -5z"/>
<path d="M9370 870 c0 -5 5 -10 10 -10 6 0 10 5 10 10 0 6 -4 10 -10 10 -5 0
-10 -4 -10 -10z"/>
<path d="M9460 874 c0 -9 31 -37 36 -32 9 9 -8 38 -22 38 -8 0 -14 -3 -14 -6z"/>
<path d="M9218 863 c12 -2 32 -2 45 0 12 2 2 4 -23 4 -25 0 -35 -2 -22 -4z"/>
<path d="M9487 603 c-11 -10 -8 -71 3 -78 6 -4 10 12 10 39 0 47 -2 51 -13 39z"/>
</g>
</svg>
