<?xml version="1.0" standalone="no"?>
<!DOCTYPE svg PUBLIC "-//W3C//DTD SVG 20010904//EN"
 "http://www.w3.org/TR/2001/REC-SVG-20010904/DTD/svg10.dtd">
<svg version="1.0" xmlns="http://www.w3.org/2000/svg"
 width="1280.000000pt" height="720.000000pt" viewBox="0 0 1280.000000 720.000000"
 preserveAspectRatio="xMidYMid meet">
<metadata>
Created by potrace 1.16, written by Peter Selinger 2001-2019
</metadata>
<g transform="translate(0.000000,720.000000) scale(0.100000,-0.100000)"
fill="#000000" stroke="none">
<path d="M6186 7166 c-15 -20 -26 -48 -26 -65 0 -17 -5 -31 -11 -31 -16 0 -69
-62 -69 -82 0 -9 -13 -32 -30 -50 -16 -18 -30 -38 -30 -45 0 -7 -3 -13 -7 -13
-9 0 -33 -49 -33 -67 0 -7 -4 -13 -8 -13 -10 0 -35 -71 -56 -155 -8 -33 -20
-119 -25 -192 -10 -127 -28 -213 -43 -213 -5 0 -8 -9 -8 -20 0 -18 -63 -126
-82 -140 -4 -3 -14 -22 -23 -43 -8 -20 -19 -37 -24 -37 -5 0 -17 -18 -27 -40
-10 -22 -21 -40 -25 -40 -5 0 -11 -17 -14 -37 -4 -21 -15 -50 -26 -65 -10 -15
-19 -34 -19 -43 0 -8 -4 -15 -9 -15 -19 0 -71 -100 -71 -138 -1 -33 -16 -86
-48 -165 -7 -16 -12 -33 -12 -38 0 -5 -4 -9 -10 -9 -5 0 -10 -11 -10 -25 0
-16 -6 -25 -15 -25 -8 0 -15 -7 -15 -15 0 -8 -5 -15 -10 -15 -6 0 -16 -11 -22
-25 -6 -14 -19 -25 -28 -25 -11 0 -22 -14 -30 -40 -7 -22 -19 -40 -27 -40 -7
0 -13 -9 -13 -19 0 -10 -7 -21 -15 -25 -8 -3 -15 -10 -15 -16 0 -10 -31 -49
-64 -81 -17 -17 -37 -19 -150 -19 -72 0 -160 5 -195 10 -35 5 -237 10 -450 11
-212 1 -388 5 -391 9 -3 4 -227 9 -497 12 l-493 5 0 -184 0 -183 199 0 c110 0
233 4 273 9 40 5 209 12 374 16 241 5 304 3 315 -7 8 -7 26 -19 42 -27 15 -8
27 -20 27 -27 0 -6 8 -14 18 -18 20 -6 55 -28 63 -39 3 -4 41 -8 85 -9 105 -3
474 24 474 34 0 4 15 8 34 8 19 0 47 5 63 11 51 19 264 33 525 34 141 0 260 3
264 8 4 4 -104 7 -239 7 -237 0 -316 10 -186 24 93 9 209 7 315 -6 80 -9 97
-9 104 2 6 10 10 7 16 -14 13 -53 -8 -149 -62 -291 -68 -180 -114 -323 -114
-359 -1 -17 -7 -49 -15 -70 -8 -22 -12 -43 -9 -47 21 -35 -33 -38 -463 -26
-73 2 -138 0 -145 -4 -7 -5 -16 -3 -20 4 -6 9 -12 9 -26 0 -14 -8 -23 -8 -30
-1 -8 8 -19 7 -39 -1 l-29 -12 -1 -110 c-1 -61 -7 -124 -13 -140 -9 -20 -9
-37 -2 -61 6 -18 9 -103 7 -190 -2 -129 0 -158 11 -158 8 0 14 9 14 21 0 12 8
23 20 26 11 3 20 9 20 14 0 5 8 9 19 9 11 0 21 9 24 21 4 16 9 19 23 11 9 -5
25 -7 35 -5 16 4 19 0 19 -26 0 -17 5 -31 10 -31 18 0 11 -22 -9 -27 -10 -2
-24 -16 -30 -29 -6 -13 -17 -24 -26 -24 -8 0 -16 -4 -16 -10 -1 -5 -2 -14 -3
-19 -2 -19 -16 -24 -31 -11 -11 9 -18 10 -28 1 -16 -13 -27 -5 -27 21 0 10 -7
18 -15 18 -9 0 -15 -9 -15 -22 0 -13 -3 -34 -7 -47 -6 -24 -5 -24 45 -18 31 4
52 2 52 -4 0 -5 11 -2 25 7 13 8 29 13 34 10 5 -4 116 -7 245 -7 228 0 236 -1
236 -20 0 -11 -10 -23 -22 -28 -47 -17 -633 3 -645 23 -7 11 -7 148 3 596 4
162 4 292 0 289 -3 -3 -10 -167 -16 -365 -13 -472 -18 -546 -32 -555 -7 -4
-396 -5 -865 -2 l-853 6 0 -21 c0 -21 5 -22 138 -25 l137 -3 -137 -2 c-129 -2
-138 -3 -138 -22 0 -16 8 -19 58 -22 53 -3 57 -5 57 -28 0 -23 -4 -25 -57 -28
-50 -3 -58 -6 -58 -22 0 -17 7 -20 55 -20 l55 0 0 -95 0 -95 -32 0 c-71 0 -78
-7 -78 -71 0 -48 3 -57 15 -53 8 4 15 1 15 -5 0 -6 -7 -11 -15 -11 -11 0 -15
-11 -15 -40 0 -35 3 -40 24 -40 22 0 24 -5 31 -77 4 -49 3 -79 -3 -81 -5 -1
-8 -12 -5 -22 3 -11 0 -20 -6 -20 -6 0 -11 5 -11 11 0 8 -5 8 -15 -1 -11 -9
-15 -32 -15 -81 0 -61 2 -69 19 -69 18 0 68 -48 89 -86 8 -15 13 -16 25 -6 8
7 18 23 21 36 6 23 36 45 36 26 0 -6 18 -10 40 -10 22 0 40 -4 40 -10 0 -26
32 -5 46 30 16 40 34 53 34 25 0 -11 11 -15 38 -15 30 0 42 -6 62 -31 49 -61
55 -65 59 -43 2 10 7 24 11 29 4 6 11 25 15 42 7 37 21 42 41 16 13 -17 15
-17 28 0 20 25 34 21 41 -14 4 -17 12 -41 19 -54 12 -23 13 -23 28 -6 9 11 22
35 29 55 12 33 16 36 54 36 22 0 49 3 60 6 17 4 22 -2 34 -40 7 -24 19 -53 27
-63 12 -17 13 -16 14 10 0 18 11 40 31 60 28 28 40 32 98 35 l66 4 14 -46 c7
-25 17 -46 22 -46 5 0 9 4 9 9 0 12 59 71 70 71 5 0 11 -6 13 -12 4 -10 6 -10
6 0 1 6 7 12 15 12 9 0 17 -17 21 -47 l8 -48 14 55 14 55 239 0 c132 0 240 -3
240 -6 0 -4 29 -4 64 -2 88 8 112 0 125 -39 l12 -33 19 25 c11 14 20 33 20 44
0 14 5 17 23 12 12 -3 30 -6 40 -6 9 0 17 -7 17 -15 0 -11 11 -15 40 -15 29 0
40 4 40 15 0 14 47 22 105 16 33 -3 35 -13 19 -101 -16 -90 -18 -202 -12 -786
3 -374 8 -351 -76 -392 -32 -17 -70 -24 -149 -28 -98 -7 -109 -5 -171 20 -78
31 -134 34 -164 8 -19 -17 -19 -21 -7 -43 8 -13 17 -32 21 -41 3 -9 19 -22 35
-28 16 -7 33 -18 37 -25 9 -16 78 -55 96 -55 7 0 26 -7 42 -14 16 -8 71 -24
122 -36 99 -22 189 -61 199 -86 3 -8 4 -17 1 -19 -2 -2 -55 -9 -118 -15 -136
-12 -220 -28 -220 -41 0 -5 -36 -9 -80 -9 -47 0 -80 -4 -80 -10 0 -5 -6 -10
-14 -10 -8 0 -27 -5 -43 -11 l-28 -10 25 -20 c27 -22 11 -22 300 0 122 10 149
2 206 -54 l36 -36 -41 -40 c-36 -35 -41 -46 -41 -85 l0 -44 40 0 40 0 0 -40
c0 -22 5 -40 10 -40 6 0 10 -18 10 -40 l0 -40 190 0 190 0 0 40 c0 40 0 40
-39 40 l-39 0 -7 80 c-4 44 -11 80 -17 80 -5 0 -8 52 -7 124 0 68 -1 129 -5
134 -3 5 0 26 7 48 7 24 12 108 12 216 0 98 3 178 7 178 13 0 28 66 38 166 6
56 18 134 26 175 9 41 20 103 24 139 13 96 51 643 45 657 -5 15 14 74 30 89 7
8 159 12 503 13 440 2 493 0 498 -14 4 -9 -2 -84 -12 -168 -24 -192 -23 -346
4 -617 30 -309 38 -520 22 -629 -10 -72 -10 -114 0 -220 7 -72 16 -131 21
-131 5 0 9 -54 9 -120 0 -113 -1 -120 -20 -120 -17 0 -20 -7 -20 -40 0 -22 -4
-40 -10 -40 -5 0 -10 -18 -10 -40 l0 -40 176 0 177 0 -7 61 c-3 34 -6 70 -6
80 0 12 -7 19 -20 19 -17 0 -20 7 -20 45 l0 45 40 0 c29 0 40 4 40 15 0 11 11
15 40 15 l40 0 0 60 0 60 -44 0 c-45 0 -69 16 -46 30 6 4 65 13 131 20 65 7
119 17 119 21 0 5 12 9 27 9 20 0 24 3 16 11 -7 7 -22 13 -35 14 -13 2 -61 13
-108 26 -47 12 -109 24 -138 27 -58 4 -65 21 -16 34 16 4 88 12 159 18 182 14
266 40 348 110 23 19 22 42 -3 63 -25 21 -114 23 -150 2 -14 -8 -41 -14 -60
-14 -19 0 -46 6 -60 14 -14 8 -34 14 -45 15 -18 0 -185 75 -185 82 0 2 -9 27
-19 56 -19 51 -19 61 -6 265 20 302 33 447 51 567 11 72 15 155 12 265 l-3
160 265 5 c146 3 266 7 268 8 15 13 -11 19 -75 18 -196 -3 -457 5 -444 13 22
14 20 190 -3 276 -15 56 -17 90 -12 171 6 112 18 154 41 154 8 0 21 10 29 23
13 19 13 27 1 62 -8 22 -14 58 -15 81 0 22 -6 60 -14 85 -22 72 -33 128 -51
249 -9 63 -20 135 -25 160 -5 25 -12 140 -15 255 -8 267 -42 567 -80 695 -7
25 -16 72 -20 105 -3 33 -13 98 -21 143 -9 46 -13 86 -10 90 3 3 90 4 194 3
168 -2 189 -4 202 -21 19 -23 121 -80 143 -80 9 0 17 -4 17 -10 0 -5 17 -10
38 -10 21 0 47 -7 58 -15 10 -8 29 -15 41 -15 12 0 24 -4 27 -8 3 -5 31 -14
63 -21 32 -7 69 -17 83 -21 76 -25 285 -61 405 -69 135 -10 183 -5 198 20 7
11 23 19 39 19 21 0 30 8 45 40 10 22 21 40 24 40 3 0 39 30 78 67 l73 67 281
-2 c155 -1 337 -5 405 -9 l122 -6 0 51 0 50 -77 6 c-43 3 -201 8 -350 12 -166
4 -273 10 -273 16 0 12 -55 68 -67 68 -23 0 -93 -47 -93 -62 0 -13 -8 -18 -29
-18 -17 0 -33 -4 -36 -10 -3 -5 -14 -10 -25 -10 -10 0 -21 -8 -24 -17 -6 -15
-10 -13 -30 10 l-23 27 -156 0 c-115 0 -157 -3 -160 -12 -4 -10 -6 -10 -6 0
-2 22 -31 13 -32 -10 0 -23 0 -23 -14 -3 -14 20 -20 20 -97 11 -46 -5 -86 -13
-89 -19 -9 -14 -150 2 -167 19 -7 8 -27 14 -43 14 -21 0 -29 5 -29 18 0 20
-65 53 -125 63 l-40 6 43 1 c30 2 42 6 42 17 0 11 -11 15 -40 15 -33 0 -40 3
-40 20 0 13 -7 20 -18 20 -18 0 -62 49 -62 70 0 5 -6 10 -12 10 -16 1 -61 71
-79 123 -7 20 -16 37 -21 37 -4 0 -13 18 -19 40 -7 22 -16 40 -21 40 -4 0 -8
18 -8 39 0 22 -4 41 -8 43 -11 4 -52 173 -52 211 0 15 -4 27 -10 27 -5 0 -10
18 -10 40 0 26 -5 40 -13 40 -13 0 -67 76 -67 95 0 5 -10 15 -22 20 -19 8 -23
18 -23 52 0 24 -7 50 -16 61 -22 26 -39 79 -39 123 0 37 -26 118 -40 129 -4 3
-11 16 -15 30 -4 14 -16 36 -26 49 -11 13 -19 28 -19 34 0 5 -9 28 -19 51 -21
45 -29 72 -63 216 -12 52 -26 97 -30 98 -5 2 -8 13 -8 25 0 27 -126 278 -149
297 -8 6 -29 40 -38 60 -3 8 -18 25 -32 38 -14 13 -36 32 -47 43 -20 17 -38
19 -172 19 l-150 0 -26 -34z m441 -264 c13 -8 36 -68 60 -152 16 -60 12 -121
-12 -191 -8 -23 -15 -56 -15 -75 0 -18 -4 -36 -10 -39 -6 -4 -10 23 -10 74 0
44 -4 83 -10 86 -5 3 -10 31 -10 61 0 41 3 54 15 54 21 0 9 71 -22 129 -12 24
-23 48 -23 52 0 11 21 11 37 1z m-804 -1690 c4 -48 10 -126 13 -174 l5 -88
-54 0 c-110 0 -207 12 -207 26 0 8 5 14 10 14 6 0 10 18 10 40 0 36 7 48 53
94 28 30 59 64 67 76 8 12 21 28 28 36 6 7 12 19 12 26 0 7 7 24 16 37 25 35
38 12 47 -87z m1182 28 c10 -22 22 -40 27 -40 4 0 8 -8 8 -18 0 -10 4 -22 10
-28 13 -13 70 -125 70 -138 1 -21 38 -56 59 -56 18 0 21 -6 21 -40 l0 -40 -40
0 c-33 0 -40 3 -40 20 0 18 -7 20 -86 20 l-86 0 6 33 c3 19 3 27 -3 19 -17
-27 -21 67 -6 141 8 39 15 93 15 120 0 59 20 63 45 7z m-2773 -302 c26 -12 50
-30 54 -40 3 -10 10 -18 15 -18 5 0 29 -18 51 -40 25 -23 52 -40 65 -40 13 0
35 -8 50 -17 24 -16 26 -16 38 0 7 9 22 17 34 17 11 0 21 5 21 10 0 6 18 10
40 10 59 0 52 -26 -15 -55 -30 -14 -55 -29 -55 -35 0 -16 -61 -12 -115 9 -33
13 -55 29 -66 47 -8 16 -27 35 -42 42 -15 7 -27 17 -27 22 0 5 -9 12 -20 15
-11 3 -20 13 -20 21 0 8 -7 14 -15 14 -21 0 -62 27 -69 46 -8 20 19 18 76 -8z
m676 10 c-6 -18 -28 -21 -28 -4 0 9 7 16 16 16 9 0 14 -5 12 -12z m4355 -95
c-13 -2 -33 -2 -45 0 -13 2 -3 4 22 4 25 0 35 -2 23 -4z m-2219 -39 c5 -14 4
-15 -9 -4 -17 14 -19 20 -6 20 5 0 12 -7 15 -16z m1410 -49 c-8 -10 -42 -41
-76 -67 -60 -47 -64 -48 -130 -48 -62 0 -156 17 -168 30 -7 8 -59 31 -110 50
-25 9 -46 24 -48 33 -4 19 44 22 354 22 188 0 191 0 178 -20z m-171 -132 c-7
-2 -21 -2 -30 0 -10 3 -4 5 12 5 17 0 24 -2 18 -5z m-3154 -841 c0 -11 -3 -12
-6 -4 -2 6 -12 12 -21 12 -14 0 -15 2 -2 9 18 12 30 5 29 -17z m31 8 c0 -5 -2
-10 -4 -10 -3 0 -8 5 -11 10 -3 6 -1 10 4 10 6 0 11 -4 11 -10z m-26 -62 c6
-25 4 -28 -19 -26 -14 1 -25 8 -25 15 0 7 7 10 15 7 11 -4 15 0 15 17 0 28 5
23 14 -13z m101 -8 c3 -6 -1 -13 -10 -16 -19 -8 -30 0 -20 15 8 14 22 14 30 1z
m-275 -10 c0 -5 -9 -10 -20 -10 -11 0 -20 5 -20 10 0 6 9 10 20 10 11 0 20 -4
20 -10z m90 0 c0 -12 -8 -12 -35 0 -18 8 -17 9 8 9 15 1 27 -3 27 -9z m390 0
c0 -5 -10 -10 -22 -10 -19 0 -20 2 -8 10 19 13 30 13 30 0z m-81 -47 c0 -11
-3 -13 -6 -5 -2 6 -17 12 -33 12 -16 0 -31 -6 -33 -12 -3 -8 -6 -6 -6 5 -1 13
7 17 39 17 32 0 40 -4 39 -17z m97 -69 c-6 -17 -62 -19 -72 -2 -5 8 -2 9 9 5
13 -5 17 -1 17 14 0 21 1 20 20 -2 l19 -24 2 45 c2 39 3 40 6 12 3 -19 2 -40
-1 -48z m-218 24 c18 -18 14 -35 -8 -33 -26 2 -34 11 -27 30 8 18 19 19 35 3z
m-188 -24 c0 -2 -9 -4 -21 -4 -11 0 -18 4 -14 10 5 8 35 3 35 -6z m80 6 c0 -5
-10 -10 -22 -10 -19 0 -20 2 -8 10 19 13 30 13 30 0z m211 -2 c18 11 20 11 17
0 -3 -7 -21 -14 -41 -16 -28 -2 -37 1 -37 12 0 14 3 14 20 4 16 -10 24 -10 41
0z m99 -68 c0 -5 -4 -10 -9 -10 -6 0 -13 5 -16 10 -3 6 1 10 9 10 9 0 16 -4
16 -10z m-207 -22 c14 -22 1 -48 -23 -48 -13 0 -20 7 -20 19 0 48 22 63 43 29z
m187 -13 c0 -8 -4 -15 -10 -15 -5 0 -10 7 -10 15 0 8 5 15 10 15 6 0 10 -7 10
-15z m-480 -19 c0 -11 -19 -15 -25 -6 -3 5 1 10 9 10 9 0 16 -2 16 -4z m115
-6 c-3 -5 -12 -10 -20 -10 -8 0 -17 5 -20 10 -4 6 5 10 20 10 15 0 24 -4 20
-10z m90 0 c-3 -5 -15 -10 -25 -10 -10 0 -22 5 -25 10 -4 6 7 10 25 10 18 0
29 -4 25 -10z m185 0 c0 -5 -7 -10 -15 -10 -8 0 -15 5 -15 10 0 6 7 10 15 10
8 0 15 -4 15 -10z m5 -166 c-5 -34 -3 -49 7 -55 9 -6 8 -9 -7 -9 -33 1 -50 22
-53 68 -2 41 -2 42 29 42 l31 0 -7 -46z m22 -6 c-3 -8 -6 -5 -6 6 -1 11 2 17
5 13 3 -3 4 -12 1 -19z m-147 -20 c0 -5 -4 -8 -10 -8 -5 0 -10 10 -10 23 0 18
2 19 10 7 5 -8 10 -18 10 -22z m210 -28 c0 -5 -14 -10 -31 -10 -17 0 -28 4
-24 10 3 6 17 10 31 10 13 0 24 -4 24 -10z m-1742 -235 c8 -8 -311 -5 -330 3
-10 4 60 6 154 4 94 -1 174 -4 176 -7z m218 3 c3 -4 -33 -8 -80 -8 -52 0 -86
4 -86 10 0 13 158 11 166 -2z m-616 -73 c0 -23 -3 -25 -49 -25 -51 0 -67 10
-57 35 4 11 21 15 56 15 47 0 50 -2 50 -25z m240 11 c0 -22 -19 -30 -85 -34
-78 -4 -105 3 -105 28 0 19 7 20 95 20 76 0 95 -3 95 -14z m377 -9 c-6 -18
-147 -25 -164 -9 -23 23 -8 27 82 24 60 -3 85 -7 82 -15z m1103 -16 c0 -34 -9
-44 -27 -30 -9 8 -13 8 -13 1 0 -11 -140 -19 -427 -24 l-153 -3 0 -42 0 -43
69 0 c119 0 191 11 192 29 0 11 3 8 9 -6 11 -27 30 -30 31 -5 1 13 2 14 5 2 9
-31 42 -39 173 -41 l131 -2 0 -79 c0 -43 -3 -78 -7 -78 -5 0 -6 25 -5 55 3 35
0 55 -7 55 -6 0 -11 -19 -11 -44 l0 -44 -232 -7 c-232 -7 -347 -6 -380 2 -15
4 -18 16 -18 84 0 72 2 79 20 79 17 0 20 7 20 39 0 30 -4 40 -20 44 -15 4 -20
14 -20 41 0 20 6 38 14 43 8 4 159 7 335 5 l321 -3 0 -28z m-1320 14 c0 -11
-12 -15 -42 -16 -70 -2 -85 2 -73 20 3 6 31 11 61 11 41 0 54 -4 54 -15z m458
3 c-3 -9 -33 -13 -103 -13 -70 0 -100 4 -102 13 -4 9 21 12 102 12 81 0 106
-3 103 -12z m162 -33 c0 -38 -3 -45 -20 -45 -16 0 -20 7 -20 30 0 17 -3 29 -7
29 -29 -5 -62 3 -67 16 -4 12 5 15 54 15 l60 0 0 -45z m868 7 c3 -29 1 -32
-20 -28 -13 3 -42 5 -65 5 -41 1 -43 2 -43 31 l0 31 63 -3 62 -3 3 -33z m220
-4 c-3 -47 -3 -46 -90 -34 -16 2 -28 1 -28 -4 0 -4 -11 -7 -24 -7 -19 0 -26 6
-31 29 -11 47 7 58 97 58 l79 0 -3 -42z m999 -36 c6 -4 13 -21 15 -37 l3 -30
94 -1 c73 -2 96 -5 103 -17 4 -9 7 -130 6 -269 l-3 -253 -35 0 c-19 0 -41 -4
-49 -9 -18 -12 -133 -20 -166 -12 -14 4 -23 11 -19 17 3 6 12 8 20 5 7 -3 16
-1 20 5 10 16 -5 59 -21 59 -21 0 -26 32 -23 128 4 110 22 111 26 2 4 -118 17
-120 17 -2 0 59 4 97 10 96 101 -13 145 -13 143 -2 -2 7 7 14 20 16 16 2 22
10 22 28 0 22 -4 24 -45 24 -32 0 -45 -4 -45 -14 0 -15 -80 -25 -122 -16 -22
6 -23 10 -26 134 -2 86 1 133 9 142 13 15 28 18 46 6z m-2249 -124 c-2 -37 -9
-73 -15 -79 -20 -20 -171 -9 -185 13 -10 16 -10 129 0 143 4 6 45 11 92 12 60
0 85 4 89 14 9 29 22 -40 19 -103z m2152 -17 c0 -72 -3 -132 -7 -134 -5 -2
-20 -7 -35 -11 l-28 -6 0 120 c0 130 9 160 47 160 23 0 23 -2 23 -129z m-3010
19 l0 -78 -55 -4 -55 -3 0 81 c0 44 2 83 4 85 2 2 27 2 55 1 l51 -4 0 -78z
m226 24 c9 -48 -3 -107 -21 -100 -8 3 -16 0 -19 -7 -4 -8 -8 -8 -11 -2 -3 7
-28 9 -66 5 -33 -3 -62 -4 -64 -1 -8 7 -5 135 3 148 11 17 112 21 144 5 19 -9
29 -24 34 -48z m759 52 c16 -11 20 -30 23 -110 4 -91 3 -96 -16 -96 -14 0 -22
8 -24 22 -5 34 -50 32 -59 -2 -4 -14 -7 22 -8 82 -1 103 0 107 22 111 39 8 43
7 62 -7z m-622 -5 l37 -1 0 -74 0 -74 -57 -5 c-32 -2 -59 -3 -61 -2 -7 7 -14
115 -9 137 5 18 13 24 29 22 13 -1 40 -3 61 -3z m236 -5 c12 -8 16 -132 3
-140 -4 -2 -41 -6 -82 -7 l-75 -2 -3 58 c-5 98 -4 100 76 99 38 -1 74 -4 81
-8z m2305 -18 c3 -17 3 -73 0 -125 l-7 -93 -107 0 -107 0 -7 31 c-8 40 -8 147
0 177 6 20 13 22 78 23 39 1 82 5 96 9 42 13 47 11 54 -22z m-802 -3 c3 -11 6
-54 7 -96 1 -108 -10 -120 -112 -112 -42 3 -77 10 -77 14 0 5 37 10 83 11 l82
2 -77 3 -78 4 2 64 c1 36 5 70 9 77 9 15 89 20 89 6 0 -6 9 -3 20 7 11 10 20
24 20 32 0 20 24 11 32 -12z m538 -115 l0 -100 -27 0 c-16 0 -35 4 -43 10 -12
8 -12 14 3 45 9 20 17 42 17 50 0 8 4 15 8 15 5 0 14 18 21 40 6 22 14 40 16
40 3 0 5 -45 5 -100z m744 27 c13 -56 16 -116 14 -257 -3 -167 -5 -185 -20
-188 -17 -3 -18 14 -18 257 0 144 2 261 4 261 2 0 11 -33 20 -73z m-1531 41
c10 -33 -5 -48 -49 -48 -57 0 -58 19 -1 22 l42 1 -42 4 c-29 3 -43 9 -43 19 0
18 86 20 93 2z m24 -30 c-3 -7 -5 -2 -5 12 0 14 2 19 5 13 2 -7 2 -19 0 -25z
m0 -80 c-2 -13 -4 -3 -4 22 0 25 2 35 4 23 2 -13 2 -33 0 -45z m-7 -38 c0 -13
-16 -15 -65 -12 -57 5 -58 20 -2 24 47 3 67 0 67 -12z m-190 1 c0 -5 -10 -11
-22 -15 -33 -8 -543 -7 -534 1 4 4 114 10 244 13 130 4 254 7 275 8 20 1 37
-2 37 -7z m1328 -205 l-3 -141 -30 0 -30 0 -3 142 c-3 141 -2 142 20 145 48 8
49 4 46 -146z m-110 -21 l-3 -116 -70 -4 c-38 -3 -89 -2 -112 1 l-43 6 0 107
c0 58 4 111 8 116 11 16 123 19 133 3 5 -7 9 -55 9 -105 l0 -93 28 0 27 0 -3
91 c-2 51 -1 103 3 118 14 55 26 -9 23 -124z m-2050 65 c1 -30 -1 -82 -5 -115
l-8 -60 -59 0 -59 0 -3 85 c-1 47 0 100 3 118 l6 34 61 -4 61 -4 3 -54z m1989
28 c-3 -7 -5 -2 -5 12 0 14 2 19 5 13 2 -7 2 -19 0 -25z m-2277 11 c0 -8 4 -9
13 0 21 17 27 3 27 -63 0 -50 -4 -63 -20 -74 -14 -8 -20 -23 -20 -47 0 -34 -1
-35 -39 -35 -35 0 -39 3 -45 31 -8 40 -8 147 0 177 5 18 13 22 45 22 22 0 39
-5 39 -11z m426 -19 c11 0 14 -17 14 -77 0 -85 -11 -116 -32 -95 -9 9 -9 12 4
12 11 0 15 6 11 21 -4 16 -8 17 -14 7 -5 -7 -8 24 -8 77 1 50 3 82 6 73 2 -10
11 -18 19 -18z m411 -67 c-6 -52 -15 -93 -21 -94 -16 -1 26 -17 47 -18 15 -1
17 9 17 79 l0 80 44 0 c49 0 101 -16 128 -39 22 -19 26 -111 6 -111 -23 0 16
-20 40 -20 18 0 22 5 22 34 0 62 13 156 21 156 5 0 9 -42 9 -94 0 -88 -1 -94
-22 -101 -37 -11 -260 -16 -460 -9 l-188 7 0 95 0 94 40 -4 c22 -2 41 1 43 7
2 5 7 -26 12 -70 5 -55 4 -80 -4 -83 -6 -2 -11 -10 -11 -18 0 -10 12 -14 40
-14 l40 0 0 95 0 95 94 0 c78 0 95 3 100 16 13 33 14 7 3 -83z m2067 -80 c6
-49 5 -53 -14 -53 -19 0 -20 6 -19 118 l1 117 13 -65 c7 -36 15 -89 19 -117z
m-3159 157 c3 -5 15 -6 28 -1 14 6 30 5 41 -1 16 -9 17 -19 11 -87 -4 -42 -8
-85 -9 -95 -1 -17 -9 -20 -53 -22 l-53 -2 0 103 c0 56 3 105 7 108 9 10 21 9
28 -3z m2277 -93 c3 -87 3 -88 31 -94 43 -9 32 -23 -18 -23 l-45 0 0 94 c0 52
3 102 6 111 13 33 24 -3 26 -88z m57 11 l-2 -93 -10 77 c-9 71 -6 108 8 108 3
0 4 -42 4 -92z m-2511 66 c18 -5 15 -31 -5 -38 -37 -14 -100 24 -77 47 6 5 51
1 82 -9z m1947 -71 c-5 -49 -8 -96 -7 -105 1 -16 -9 -18 -74 -18 l-74 0 0 100
0 100 40 0 c27 0 40 -4 40 -14 0 -7 7 -19 15 -26 15 -13 19 -4 18 38 -1 6 11
12 24 12 l25 0 -7 -87z m-1398 15 c-2 -13 -4 -3 -4 22 0 25 2 35 4 23 2 -13 2
-33 0 -45z m493 22 c0 -22 -4 -40 -10 -40 -5 0 -10 18 -10 40 0 22 5 40 10 40
6 0 10 -18 10 -40z m680 0 c0 -22 5 -40 10 -40 6 0 10 -27 10 -60 l0 -60 -55
0 c-30 0 -55 3 -56 8 0 4 -2 16 -5 27 -2 11 -1 53 2 93 l6 72 44 0 44 0 0 -40z
m-1723 -97 l1 -73 -31 5 c-18 2 -38 4 -44 4 -17 1 -17 83 -1 99 10 10 10 15
-1 22 -11 6 -7 9 15 13 58 9 59 7 61 -70z m820 35 c-3 -8 -6 -5 -6 6 -1 11 2
17 5 13 3 -3 4 -12 1 -19z m1890 -40 c-2 -13 -4 -3 -4 22 0 25 2 35 4 23 2
-13 2 -33 0 -45z m-2237 -27 c0 -6 -4 -13 -10 -16 -5 -3 -10 1 -10 9 0 9 5 16
10 16 6 0 10 -4 10 -9z m1895 -10 c3 -5 1 -12 -5 -16 -5 -3 -10 1 -10 9 0 18
6 21 15 7z"/>
<path d="M4898 2743 c12 -2 32 -2 45 0 12 2 2 4 -23 4 -25 0 -35 -2 -22 -4z"/>
<path d="M3600 2358 c-3 -26 -1 -43 3 -39 5 5 7 26 5 47 l-3 39 -5 -47z"/>
<path d="M3363 2360 c0 -25 2 -35 4 -22 2 12 2 32 0 45 -2 12 -4 2 -4 -23z"/>
<path d="M3011 6963 c-1 -47 3 -75 12 -80 6 -4 18 -20 26 -35 8 -16 38 -53 68
-84 29 -31 53 -61 53 -66 0 -5 -19 -8 -42 -6 -41 3 -43 2 -41 -23 l1 -27 -24
25 c-28 28 -31 43 -8 43 9 0 14 7 12 17 -4 22 -28 29 -28 9 0 -9 -7 -16 -15
-16 -23 0 -21 -132 2 -151 9 -8 18 -13 20 -11 2 1 22 -19 44 -45 88 -104 98
-113 125 -113 25 0 26 2 20 33 -3 17 -14 37 -23 44 -18 14 -21 45 -10 113 3
25 3 34 -1 20 -7 -22 -9 -23 -15 -7 -11 30 -8 37 18 37 14 0 29 -8 35 -20 6
-11 17 -20 25 -20 9 0 15 -10 15 -25 0 -22 4 -25 34 -25 88 0 89 36 4 128 -34
37 -67 73 -73 80 -5 7 -18 22 -27 33 -10 10 -18 22 -18 25 0 10 -58 64 -69 64
-6 0 -11 6 -11 13 0 6 -19 33 -43 58 -23 25 -47 54 -54 65 -10 16 -12 7 -12
-53z m129 -335 c0 -7 -5 -20 -10 -28 -8 -12 -10 -9 -10 13 0 15 5 27 10 27 6
0 10 -6 10 -12z"/>
<path d="M5780 6971 c-22 -7 -23 -9 -7 -16 35 -15 92 -11 92 5 0 17 -46 23
-85 11z"/>
<path d="M8583 6924 c-16 -12 -16 -15 -3 -23 17 -11 89 -4 105 11 27 25 -70
36 -102 12z"/>
<path d="M3032 6805 c-9 -11 -10 -20 -3 -33 9 -15 10 -15 11 6 0 12 5 22 10
22 6 0 10 5 10 10 0 14 -13 12 -28 -5z"/>
<path d="M3060 6490 c0 -5 5 -10 11 -10 5 0 7 5 4 10 -3 6 -8 10 -11 10 -2 0
-4 -4 -4 -10z"/>
<path d="M9318 4963 c23 -2 61 -2 85 0 23 2 4 4 -43 4 -47 0 -66 -2 -42 -4z"/>
<path d="M8500 4870 c0 -5 6 -10 14 -10 8 0 18 5 21 10 3 6 -3 10 -14 10 -12
0 -21 -4 -21 -10z"/>
<path d="M7063 4674 c-13 -3 -23 -8 -24 -12 0 -4 -2 -22 -5 -39 l-4 -33 115
-1 c63 -1 129 -2 147 -3 30 -1 31 1 35 42 4 42 4 42 -30 42 -19 0 -74 2 -123
4 -49 3 -99 2 -111 0z"/>
<path d="M9368 4605 l4 -45 64 0 64 0 0 45 0 45 -68 0 -67 0 3 -45z"/>
<path d="M3022 4308 c-9 -9 -12 -147 -12 -560 l0 -548 373 -1 c204 0 518 -1
697 -2 179 -1 305 1 280 4 l-45 6 39 1 c30 2 47 10 73 37 19 19 43 35 54 35
18 0 19 2 6 14 -9 9 -47 17 -101 22 -93 7 -119 21 -114 58 3 20 7 21 138 18
74 -1 154 -5 178 -8 33 -4 43 -2 49 11 11 29 -17 35 -169 35 -81 0 -149 3
-151 8 -3 4 61 6 143 4 125 -3 148 -1 153 12 11 28 -29 37 -166 36 -72 -1
-138 -1 -145 -1 -11 1 -12 60 -7 324 4 210 3 327 -4 337 -10 15 -107 28 -212
29 l-55 1 4 52 c2 40 -1 55 -13 64 -26 19 -73 -13 -85 -58 -10 -34 -14 -37
-66 -48 -30 -7 -74 -9 -97 -6 -23 4 -163 6 -310 6 -191 -1 -273 2 -283 11 -10
8 -18 8 -27 1 -7 -6 -23 -8 -36 -5 -22 5 -23 10 -19 64 l4 59 -31 0 c-17 0
-36 -5 -43 -12z m1237 -182 c8 -9 10 -92 6 -292 -4 -154 -8 -294 -11 -311 l-5
-33 -125 0 -126 0 6 28 c3 15 8 158 12 317 3 160 8 293 11 298 2 4 53 7 112 7
80 0 112 -4 120 -14z m-1011 -28 c-5 -15 -60 -16 -65 -2 -2 6 13 11 32 12 24
1 35 -3 33 -10z m207 -3 c0 -5 -21 -11 -47 -13 -39 -3 -48 0 -48 13 0 13 9 16
48 13 26 -2 47 -7 47 -13z m225 0 c0 -12 -14 -14 -70 -13 -57 1 -68 3 -59 15
17 19 129 18 129 -2z m160 1 c0 -9 -15 -15 -46 -18 -47 -3 -67 7 -43 23 23 15
89 11 89 -5z m123 -107 c-5 -18 -23 -27 -23 -11 1 25 14 52 20 42 4 -7 5 -21
3 -31z m3 -306 c-4 -135 -7 -159 -22 -170 -20 -15 -104 -18 -104 -4 0 5 -10
11 -22 13 l-23 3 23 20 c12 11 22 27 22 37 0 12 8 18 21 18 17 0 20 5 16 21
-4 15 0 23 14 26 23 6 63 68 56 87 -5 14 11 106 19 106 3 0 2 -71 0 -157z
m-606 -43 c0 -5 -5 -10 -11 -10 -5 0 -7 5 -4 10 3 6 8 10 11 10 2 0 4 -4 4
-10z m400 -105 c0 -9 -9 -15 -22 -15 -22 1 -23 1 -4 15 25 19 26 19 26 0z
m-17 -32 c-13 -2 -33 -2 -45 0 -13 2 -3 4 22 4 25 0 35 -2 23 -4z"/>
<path d="M4820 3985 c-22 -13 -23 -14 -5 -15 30 0 65 11 65 21 0 13 -32 10
-60 -6z"/>
<path d="M4890 3990 c0 -5 7 -10 15 -10 8 0 15 5 15 10 0 6 -7 10 -15 10 -8 0
-15 -4 -15 -10z"/>
<path d="M4945 3990 c-3 -5 1 -10 9 -10 8 0 18 5 21 10 3 6 -1 10 -9 10 -8 0
-18 -4 -21 -10z"/>
<path d="M5000 3990 c0 -5 7 -10 15 -10 8 0 15 5 15 10 0 6 -7 10 -15 10 -8 0
-15 -4 -15 -10z"/>
<path d="M5055 3990 c-20 -8 -20 -9 1 -9 12 -1 50 -3 85 -6 61 -4 62 -4 14 4
-27 5 -57 11 -65 14 -8 3 -24 2 -35 -3z"/>
<path d="M5245 3980 c-3 -5 3 -10 14 -10 12 0 21 5 21 10 0 6 -6 10 -14 10 -8
0 -18 -4 -21 -10z"/>
<path d="M5551 3974 c0 -11 3 -14 6 -6 3 7 2 16 -1 19 -3 4 -6 -2 -5 -13z"/>
<path d="M8263 3763 c-8 -19 -9 -159 -6 -718 1 -214 -2 -412 -6 -440 l-8 -50
-2 71 c-2 129 -46 162 -216 163 -169 1 -174 -7 -187 -269 -11 -239 -12 -244
-68 -250 -38 -4 -45 -9 -51 -33 -16 -58 -27 -56 369 -73 140 -6 152 -8 152
-25 0 -15 8 -19 40 -19 22 0 40 -4 40 -9 0 -5 36 -12 80 -16 44 -4 80 -11 80
-16 0 -5 18 -9 40 -9 22 0 40 -4 40 -10 0 -5 18 -10 40 -10 29 0 40 4 40 15 0
11 11 15 40 15 27 0 40 4 40 13 0 11 29 15 117 20 66 4 119 11 121 17 2 5 21
10 43 10 21 0 40 3 40 8 4 22 10 58 10 67 1 6 -1 249 -5 540 -3 305 -2 524 3
516 6 -9 11 -10 15 -2 4 6 14 11 22 11 13 0 14 -24 10 -167 -3 -93 -5 -179 -6
-193 -1 -14 3 -52 9 -85 8 -47 13 -318 12 -657 0 -14 9 -18 42 -18 23 0 85 -3
137 -6 52 -2 121 -2 153 2 l57 6 0 104 c0 57 -3 104 -7 104 -5 -1 -19 -7 -33
-15 -14 -8 -42 -14 -62 -15 -37 0 -38 -1 -38 -39 l0 -39 -64 -4 c-35 -1 -70
-2 -78 0 -21 4 -41 41 -29 56 13 15 13 646 0 646 -5 0 -9 168 -9 404 l0 404
-22 6 c-13 3 -218 6 -456 6 -399 0 -433 -1 -439 -17z m687 -732 c0 -17 -18
-21 -24 -6 -3 9 0 15 9 15 8 0 15 -4 15 -9z m-640 -235 c0 -3 -4 -8 -10 -11
-5 -3 -10 -1 -10 4 0 6 5 11 10 11 6 0 10 -2 10 -4z m867 -278 c-2 -24 -4 -5
-4 42 0 47 2 66 4 43 2 -24 2 -62 0 -85z m-1288 -123 l2 -125 -27 0 c-22 0
-25 3 -21 23 3 12 9 68 13 125 5 72 10 102 19 102 10 0 13 -31 14 -125z m316
-22 c-5 -99 -10 -119 -21 -89 -4 10 -10 13 -13 8 -3 -5 -63 -11 -133 -14
l-127 -5 3 36 c2 20 4 51 5 69 1 27 5 32 24 31 18 -1 19 -2 3 -6 -16 -4 -13
-10 20 -44 31 -32 45 -39 76 -39 31 0 38 4 38 20 0 17 7 20 40 20 36 0 40 3
40 25 0 18 -7 26 -25 31 -14 3 -25 9 -25 13 0 6 74 38 92 40 4 1 5 -42 3 -96z
m982 -35 c-2 -13 -4 -3 -4 22 0 25 2 35 4 23 2 -13 2 -33 0 -45z"/>
<path d="M8038 2303 c23 -2 61 -2 85 0 23 2 4 4 -43 4 -47 0 -66 -2 -42 -4z"/>
<path d="M7956 3218 c-3 -7 -4 -42 -3 -78 l2 -65 68 -3 68 -3 -3 78 -3 78 -63
3 c-44 2 -63 -1 -66 -10z m124 -58 c0 -5 -25 -10 -55 -10 -30 0 -55 5 -55 10
0 6 25 10 55 10 30 0 55 -4 55 -10z"/>
<path d="M7899 3180 c-4 -42 -1 -64 9 -68 8 -2 12 10 12 37 0 23 -4 41 -10 41
-5 0 -10 -4 -11 -10z"/>
<path d="M3010 3161 c0 -21 0 -21 455 -21 258 0 455 4 455 9 0 5 -111 12 -247
15 -137 3 -341 9 -455 12 -206 6 -208 6 -208 -15z"/>
<path d="M7613 3000 c0 -25 2 -35 4 -22 2 12 2 32 0 45 -2 12 -4 2 -4 -23z"/>
<path d="M9354 2450 c-6 -6 -8 -29 -5 -53 5 -37 9 -42 34 -45 18 -2 29 2 33
12 3 9 13 16 21 16 8 0 11 5 8 10 -3 6 2 10 12 11 10 0 13 3 6 6 -18 7 -16 23
2 23 31 0 14 18 -22 24 -54 8 -78 7 -89 -4z"/>
<path d="M9070 2215 c0 -8 5 -15 10 -15 6 0 10 7 10 15 0 8 -4 15 -10 15 -5 0
-10 -7 -10 -15z"/>
<path d="M8930 969 c-8 -15 -10 -121 -4 -375 l7 -354 283 0 284 0 0 90 c0 63
-4 91 -13 97 -34 21 -47 58 -47 136 0 74 2 80 30 109 18 17 30 40 30 55 0 25
-1 25 -19 9 -19 -17 -19 -16 -14 22 3 24 0 49 -9 66 -14 26 -16 27 -31 11 -23
-22 -21 -35 4 -35 19 0 20 -4 15 -35 -4 -19 -2 -45 4 -57 11 -22 10 -22 -4 -4
-9 11 -16 31 -16 44 0 18 -4 23 -16 18 -11 -4 -18 1 -21 14 -3 11 -9 20 -14
20 -5 0 -9 12 -9 26 0 14 -3 23 -7 21 -5 -3 -44 -2 -88 3 -64 6 -71 8 -35 10
l45 3 -45 7 -45 7 43 1 42 2 0 40 0 39 113 4 c109 3 107 3 -43 6 -107 3 -141
6 -110 11 28 4 -20 8 -127 8 -165 2 -173 1 -183 -19z m22 -254 c3 -138 2 -200
-2 -145 -8 99 -13 396 -6 389 2 -2 5 -112 8 -244z m374 113 c27 -9 37 -21 49
-57 19 -57 20 -131 1 -131 -7 0 -16 -8 -19 -19 -6 -25 -58 -49 -95 -43 -38 5
-85 -5 -77 -17 8 -14 9 -114 1 -139 -8 -25 -31 -29 -39 -8 -5 11 -11 376 -8
419 1 12 152 8 187 -5z"/>
<path d="M9190 710 l0 -90 39 0 c63 0 89 14 100 55 12 45 7 76 -16 92 -10 7
-23 17 -30 23 -7 5 -30 10 -53 10 l-40 0 0 -90z"/>
<path d="M9328 873 c6 -2 18 -2 25 0 6 3 1 5 -13 5 -14 0 -19 -2 -12 -5z"/>
<path d="M9370 870 c0 -5 5 -10 10 -10 6 0 10 5 10 10 0 6 -4 10 -10 10 -5 0
-10 -4 -10 -10z"/>
<path d="M9460 874 c0 -9 31 -37 36 -32 9 9 -8 38 -22 38 -8 0 -14 -3 -14 -6z"/>
<path d="M9487 603 c-11 -10 -8 -71 3 -78 6 -4 10 12 10 39 0 47 -2 51 -13 39z"/>
</g>
</svg>
