<?xml version="1.0" standalone="no"?>
<!DOCTYPE svg PUBLIC "-//W3C//DTD SVG 20010904//EN"
 "http://www.w3.org/TR/2001/REC-SVG-20010904/DTD/svg10.dtd">
<svg version="1.0" xmlns="http://www.w3.org/2000/svg"
 width="1280.000000pt" height="720.000000pt" viewBox="0 0 1280.000000 720.000000"
 preserveAspectRatio="xMidYMid meet">
<metadata>
Created by potrace 1.16, written by Peter Selinger 2001-2019
</metadata>
<g transform="translate(0.000000,720.000000) scale(0.100000,-0.100000)"
fill="#000000" stroke="none">
<path d="M5965 6743 c-28 -22 -57 -42 -66 -45 -18 -7 -33 -69 -24 -98 5 -15
-6 -31 -44 -66 -48 -44 -81 -110 -67 -132 2 -4 -13 -75 -34 -157 -22 -83 -39
-166 -40 -185 0 -47 -17 -104 -49 -170 -15 -30 -33 -77 -41 -105 -7 -27 -17
-54 -21 -60 -5 -5 -9 -18 -9 -29 0 -39 -25 -92 -76 -161 -70 -95 -78 -134 -67
-357 4 -95 8 -209 8 -253 -1 -119 -13 -389 -19 -405 -9 -26 -45 -391 -50 -515
-3 -66 -10 -156 -17 -200 -6 -47 -8 -117 -4 -170 3 -49 9 -124 11 -165 4 -48
15 -97 30 -135 14 -33 28 -69 31 -80 3 -11 24 -44 46 -73 35 -47 43 -52 67
-47 19 4 29 2 33 -8 4 -10 -3 -17 -23 -20 -23 -5 -34 -19 -60 -70 -30 -61 -31
-66 -17 -93 30 -56 167 -172 224 -188 31 -10 46 -65 45 -161 -1 -54 3 -84 12
-95 20 -22 36 -111 41 -225 2 -55 4 -104 4 -110 1 -5 -1 -80 -4 -165 -8 -240
36 -500 136 -802 25 -76 26 -222 2 -273 -10 -21 -44 -56 -83 -85 -36 -28 -71
-55 -77 -60 -7 -6 -13 -30 -13 -54 l0 -43 90 -7 c49 -4 125 -4 169 0 71 6 86
4 128 -16 63 -30 170 -38 215 -17 18 8 49 18 68 22 65 14 73 22 66 68 -4 23
-10 44 -15 47 -4 3 -24 27 -44 54 -35 46 -37 53 -37 124 0 41 -5 93 -12 115
-10 32 -10 41 0 45 7 2 12 12 12 22 0 10 14 69 30 131 90 339 112 503 107 787
-2 122 -7 225 -11 229 -19 19 9 248 35 279 5 6 12 36 15 65 8 81 13 99 28 99
7 0 27 7 45 16 24 12 46 14 89 9 97 -11 138 18 112 79 -18 44 -50 222 -50 279
0 26 6 60 14 75 7 15 16 42 19 59 4 18 16 53 27 77 11 25 24 73 29 108 6 35
18 97 27 138 15 64 17 122 15 400 -2 179 -7 357 -11 395 -5 39 -15 122 -24
185 -18 145 -20 354 -5 536 16 178 5 284 -38 376 -37 78 -75 124 -122 146 -41
20 -50 43 -24 69 28 28 19 100 -22 176 -38 70 -71 168 -115 342 -17 66 -41
143 -54 170 -13 28 -36 79 -51 115 -41 96 -72 138 -149 197 -78 60 -146 89
-232 98 -58 7 -61 6 -109 -32z m206 -5128 c4 -431 2 -490 -11 -490 -13 0 -15
54 -18 415 -3 579 -3 562 3 579 18 46 23 -54 26 -504z"/>
</g>
</svg>
