<?xml version="1.0" standalone="no"?>
<!DOCTYPE svg PUBLIC "-//W3C//DTD SVG 20010904//EN"
 "http://www.w3.org/TR/2001/REC-SVG-20010904/DTD/svg10.dtd">
<svg version="1.0" xmlns="http://www.w3.org/2000/svg"
 width="1280.000000pt" height="720.000000pt" viewBox="0 0 1280.000000 720.000000"
 preserveAspectRatio="xMidYMid meet">
<metadata>
Created by potrace 1.16, written by Peter Selinger 2001-2019
</metadata>
<g transform="translate(0.000000,720.000000) scale(0.100000,-0.100000)"
fill="#000000" stroke="none">
<path d="M5792 6958 c5 -15 78 -24 78 -10 0 10 -33 22 -63 22 -11 0 -17 -6
-15 -12z"/>
<path d="M5960 6792 c-14 -10 -40 -27 -57 -36 -47 -24 -67 -59 -65 -116 1 -35
-5 -53 -19 -69 -11 -11 -23 -21 -28 -21 -4 0 -20 -11 -35 -25 -23 -21 -26 -32
-26 -84 0 -38 -10 -90 -25 -138 -14 -43 -32 -116 -40 -162 -17 -94 -32 -155
-45 -180 -5 -9 -16 -37 -26 -63 -9 -27 -21 -48 -25 -48 -5 0 -9 -6 -9 -14 0
-7 -7 -20 -16 -27 -12 -10 -15 -24 -10 -56 4 -30 0 -58 -13 -91 -10 -26 -16
-53 -13 -61 2 -8 -3 -18 -12 -23 -9 -5 -16 -18 -16 -28 0 -10 -4 -22 -10 -25
-13 -8 -37 -61 -50 -114 -14 -52 -6 -279 12 -378 9 -47 8 -88 -2 -175 -7 -62
-16 -149 -20 -193 -4 -44 -14 -123 -23 -175 -40 -239 -71 -621 -62 -770 4 -58
8 -154 9 -215 4 -118 48 -347 73 -376 10 -12 11 -23 3 -43 -11 -30 -13 -210
-2 -270 8 -46 10 -46 137 -47 152 0 164 -4 187 -55 12 -29 28 -115 44 -242 22
-173 24 -205 13 -267 -18 -105 -16 -342 4 -465 36 -222 46 -263 127 -570 5
-19 10 -75 10 -125 0 -115 -14 -144 -102 -210 -50 -37 -70 -59 -78 -85 -5 -19
-10 -38 -10 -42 0 -12 69 -38 100 -38 14 0 30 -3 33 -7 4 -3 71 -7 149 -8 79
-1 190 -8 247 -15 82 -10 112 -10 144 0 59 18 86 40 87 73 0 26 -31 68 -57 78
-6 2 -23 22 -38 44 -26 39 -27 43 -20 133 5 78 4 93 -9 98 -20 8 -20 28 -2 43
8 7 18 27 21 44 3 18 10 41 15 52 10 22 55 180 76 266 13 56 37 202 54 333 5
43 5 112 -1 180 -6 61 -12 150 -14 197 -3 48 -8 96 -13 108 -4 12 -4 67 0 123
6 78 14 114 33 153 14 29 25 65 25 81 0 56 11 76 35 70 14 -4 28 0 35 9 16 19
70 19 106 0 21 -10 44 -13 79 -9 28 4 51 8 53 9 2 2 -2 70 -8 153 l-12 150 37
84 c21 45 43 97 51 113 33 73 36 130 36 551 -1 422 -3 460 -42 689 -6 33 -13
242 -16 465 -4 270 -11 424 -19 461 -8 35 -32 86 -61 133 -43 66 -56 79 -111
106 -61 30 -80 50 -48 50 11 0 16 12 17 43 4 75 -1 106 -22 149 -34 69 -52
128 -115 373 -22 87 -37 125 -112 284 -38 82 -88 141 -145 173 -21 12 -38 26
-38 30 0 5 -30 23 -67 40 -88 41 -204 51 -243 20z m920 -3522 c0 -97 -16 -107
-22 -13 -6 84 -1 114 13 91 5 -7 9 -42 9 -78z m-715 -1187 c11 -26 14 -958 4
-974 -8 -12 -12 -11 -23 3 -10 14 -12 110 -10 495 1 263 3 481 3 486 2 14 19
7 26 -10z"/>
</g>
</svg>
