<?xml version="1.0" standalone="no"?>
<!DOCTYPE svg PUBLIC "-//W3C//DTD SVG 20010904//EN"
 "http://www.w3.org/TR/2001/REC-SVG-20010904/DTD/svg10.dtd">
<svg version="1.0" xmlns="http://www.w3.org/2000/svg"
 width="1280.000000pt" height="720.000000pt" viewBox="0 0 1280.000000 720.000000"
 preserveAspectRatio="xMidYMid meet">
<metadata>
Created by potrace 1.16, written by Peter Selinger 2001-2019
</metadata>
<g transform="translate(0.000000,720.000000) scale(0.100000,-0.100000)"
fill="#000000" stroke="none">
<path d="M5973 6819 c-10 -4 -27 -16 -38 -26 -12 -11 -34 -24 -50 -30 -19 -6
-31 -18 -33 -31 -2 -12 -8 -22 -13 -22 -5 0 -9 -23 -9 -51 0 -57 -28 -109 -59
-109 -23 0 -41 -40 -48 -105 -3 -27 -14 -79 -25 -115 -31 -100 -47 -172 -48
-207 0 -29 -21 -98 -69 -222 -19 -50 -79 -256 -96 -326 -3 -16 -12 -37 -19
-45 -7 -8 -23 -55 -35 -104 -20 -82 -21 -98 -11 -205 6 -64 15 -145 20 -181 7
-52 5 -82 -10 -150 -10 -47 -22 -128 -25 -180 -4 -52 -15 -131 -25 -175 -26
-108 -52 -352 -54 -510 -1 -95 -6 -138 -18 -160 -8 -16 -18 -60 -21 -98 -4
-37 -12 -94 -18 -126 -10 -47 -10 -81 1 -167 7 -60 15 -137 17 -170 5 -62 5
-62 69 -119 60 -53 64 -59 64 -100 0 -44 -11 -113 -32 -192 -12 -49 -6 -80 20
-109 18 -19 25 -19 95 -10 65 8 87 6 139 -9 35 -10 66 -21 71 -25 7 -6 18 -53
72 -300 20 -95 21 -197 2 -348 -17 -134 -13 -251 13 -357 5 -22 10 -57 10 -77
0 -47 32 -203 70 -343 17 -60 35 -126 40 -145 12 -46 11 -185 -2 -235 -9 -38
-62 -98 -140 -160 -20 -17 -24 -27 -20 -53 2 -20 13 -37 26 -44 12 -7 83 -13
165 -15 119 -3 153 -7 193 -25 41 -18 58 -20 111 -13 34 5 85 9 112 9 28 1 52
3 55 6 3 3 14 10 25 16 11 6 21 24 23 40 2 16 8 41 14 56 10 26 7 32 -36 75
-49 51 -50 55 -46 171 1 34 -3 69 -9 76 -7 8 -7 22 -1 42 18 55 82 299 100
384 41 190 53 311 45 441 -21 324 -21 489 0 559 9 30 20 87 23 127 5 45 13 78
23 88 22 22 132 23 166 2 6 -4 38 -4 71 -1 l60 7 -6 164 c-5 161 -5 165 15
159 16 -5 23 2 40 41 42 97 78 258 69 307 -3 17 -8 252 -11 520 -4 375 -9 502
-19 545 -30 115 -35 187 -45 606 -8 349 -9 355 -72 461 -35 57 -100 114 -130
114 -35 0 -44 27 -32 96 12 68 6 102 -35 194 -12 25 -35 101 -52 170 -41 162
-73 265 -98 315 -11 22 -33 67 -48 100 -43 89 -99 168 -136 189 -18 11 -50 32
-70 48 -20 16 -58 35 -85 44 -60 19 -166 32 -190 23z m911 -3481 c8 -31 6
-160 -4 -228 -7 -52 -7 -50 -9 36 0 50 -4 119 -7 153 -5 39 -3 61 3 61 6 0 13
-10 17 -22z m-720 -1260 c8 -51 17 -940 10 -965 -9 -32 -23 -28 -37 10 -10 24
-11 94 -5 302 4 149 5 349 2 446 -6 172 -1 239 16 239 5 0 11 -15 14 -32z m-9
-1268 c3 -5 -1 -10 -9 -10 -9 0 -16 5 -16 10 0 6 4 10 9 10 6 0 13 -4 16 -10z"/>
</g>
</svg>
