<?xml version="1.0" standalone="no"?>
<!DOCTYPE svg PUBLIC "-//W3C//DTD SVG 20010904//EN"
 "http://www.w3.org/TR/2001/REC-SVG-20010904/DTD/svg10.dtd">
<svg version="1.0" xmlns="http://www.w3.org/2000/svg"
 width="1280.000000pt" height="720.000000pt" viewBox="0 0 1280.000000 720.000000"
 preserveAspectRatio="xMidYMid meet">
<metadata>
Created by potrace 1.16, written by Peter Selinger 2001-2019
</metadata>
<g transform="translate(0.000000,720.000000) scale(0.100000,-0.100000)"
fill="#000000" stroke="none">
<path d="M5950 6763 c-89 -61 -95 -72 -90 -147 1 -20 -8 -38 -31 -62 -18 -19
-38 -34 -44 -34 -13 0 -35 -64 -35 -104 0 -14 -13 -72 -29 -129 -16 -56 -34
-136 -40 -177 -7 -41 -43 -169 -82 -284 -38 -115 -68 -215 -65 -222 3 -8 -6
-26 -21 -41 -41 -45 -71 -95 -84 -143 -11 -44 -14 -331 -6 -660 2 -76 -2 -172
-9 -220 -48 -328 -64 -485 -52 -527 14 -52 3 -253 -18 -328 -12 -41 -18 -98
-18 -180 l-1 -120 42 -86 c23 -48 45 -99 49 -115 4 -16 11 -35 17 -42 7 -8 3
-34 -11 -80 -33 -111 -36 -160 -10 -212 23 -44 24 -45 78 -47 30 -2 86 -12
125 -24 38 -12 75 -22 80 -24 18 -5 37 -75 45 -165 4 -47 18 -123 30 -170 22
-87 23 -189 5 -386 -11 -122 23 -372 86 -639 23 -93 45 -178 51 -189 6 -10 14
-67 18 -125 6 -100 5 -109 -17 -151 -16 -30 -43 -58 -82 -85 -58 -39 -81 -74
-81 -123 0 -27 36 -52 74 -52 16 0 48 -9 71 -21 39 -20 44 -20 72 -6 44 23
138 15 201 -17 l50 -25 118 15 c137 18 164 34 164 99 0 36 -3 40 -80 106 l-35
30 2 101 c2 83 0 105 -14 120 -14 16 -14 20 -1 35 8 10 20 43 27 73 7 30 28
105 46 165 31 100 42 151 75 330 21 114 23 292 5 430 -26 205 -28 245 -16 325
20 132 91 346 91 275 0 -22 27 -18 40 5 11 21 36 27 42 11 3 -11 143 4 182 19
22 8 23 12 16 52 -5 24 -13 54 -18 68 -5 14 -15 66 -23 116 l-12 91 47 99 c26
54 55 112 64 129 17 32 27 126 38 361 6 120 4 161 -16 277 -19 116 -21 146
-11 200 16 91 14 129 -10 199 -14 43 -20 83 -18 132 1 39 -4 137 -10 219 -7
89 -10 233 -6 366 7 257 -1 324 -51 424 -44 88 -96 145 -141 153 -18 3 -36 10
-39 15 -8 14 6 49 20 49 10 0 13 18 11 68 -1 53 -8 80 -33 128 -17 34 -52 139
-77 235 -43 160 -77 251 -142 384 -48 99 -103 175 -126 175 -5 0 -26 15 -47
34 -48 43 -138 78 -215 83 -56 4 -63 2 -115 -34z m896 -3450 c-11 -11 -19 6
-11 24 8 17 8 17 12 0 3 -10 2 -21 -1 -24z m-682 -1225 c9 -44 14 -966 5 -979
-25 -38 -30 25 -28 341 1 179 -1 395 -6 481 -4 86 -4 162 -1 168 11 18 25 13
30 -11z"/>
</g>
</svg>
