<?xml version="1.0" standalone="no"?>
<!DOCTYPE svg PUBLIC "-//W3C//DTD SVG 20010904//EN"
 "http://www.w3.org/TR/2001/REC-SVG-20010904/DTD/svg10.dtd">
<svg version="1.0" xmlns="http://www.w3.org/2000/svg"
 width="1280.000000pt" height="720.000000pt" viewBox="0 0 1280.000000 720.000000"
 preserveAspectRatio="xMidYMid meet">
<metadata>
Created by potrace 1.16, written by Peter Selinger 2001-2019
</metadata>
<g transform="translate(0.000000,720.000000) scale(0.100000,-0.100000)"
fill="#000000" stroke="none">
<path d="M6016 6792 c-30 -7 -135 -82 -148 -105 -6 -12 -10 -40 -9 -64 1 -38
-4 -46 -48 -90 -42 -42 -50 -55 -55 -98 -3 -28 -19 -106 -36 -175 -17 -69 -37
-161 -45 -205 -13 -68 -69 -244 -95 -296 -4 -8 -17 -50 -29 -92 -16 -58 -32
-91 -65 -131 -71 -88 -75 -121 -67 -556 3 -201 3 -392 -1 -425 -15 -112 -47
-419 -59 -565 -6 -80 -14 -149 -18 -155 -17 -24 10 -332 37 -432 27 -95 70
-180 104 -204 28 -20 38 -49 18 -49 -7 0 -8 -6 -2 -17 7 -11 3 -31 -14 -67
-13 -28 -24 -56 -24 -62 0 -6 -18 -32 -40 -57 -33 -37 -40 -52 -40 -86 0 -44
2 -45 63 -41 23 1 85 -13 152 -35 l113 -36 23 -52 c15 -35 25 -85 30 -154 5
-56 13 -133 19 -170 6 -37 10 -91 9 -119 -1 -27 1 -56 5 -63 4 -6 5 -38 1 -69
-11 -96 -13 -304 -3 -362 5 -30 13 -84 19 -120 11 -77 91 -406 113 -469 10
-26 16 -77 16 -128 0 -109 -18 -145 -102 -207 -35 -25 -69 -51 -76 -57 -8 -7
-12 -28 -10 -56 l3 -46 140 -2 c77 -2 147 1 155 5 11 6 36 -1 75 -21 53 -25
71 -29 153 -29 61 0 103 5 120 14 15 8 46 22 70 31 29 13 42 24 42 37 0 29
-27 70 -65 98 -57 43 -67 69 -60 159 5 54 4 85 -5 101 -9 16 -9 29 -2 44 26
52 113 388 127 486 3 25 13 83 21 129 17 99 18 232 3 333 -7 49 -7 98 -1 148
8 61 7 77 -4 86 -27 22 -7 216 38 354 25 77 24 76 41 61 11 -8 18 -6 32 9 15
16 31 20 86 20 38 0 89 6 115 12 44 12 45 13 39 45 -3 18 -18 58 -32 90 -15
32 -32 86 -39 121 l-12 62 44 86 c24 46 44 94 44 105 0 11 9 37 20 58 10 21
17 41 14 43 -2 3 3 57 13 119 13 90 18 191 19 474 2 321 0 368 -16 430 -40
150 -48 342 -35 754 8 228 4 257 -52 358 -37 67 -78 108 -130 130 -36 15 -44
42 -14 50 30 8 21 113 -16 188 -38 76 -66 156 -93 270 -25 103 -59 215 -70
230 -4 6 -22 43 -39 84 -33 78 -118 221 -131 221 -4 0 -35 20 -68 45 -33 25
-80 52 -103 61 -45 16 -129 24 -163 16z m153 -5046 c0 -186 3 -395 7 -465 7
-127 -2 -181 -27 -165 -7 4 -10 151 -10 412 0 224 -1 441 -1 483 -1 41 2 84 6
95 8 19 8 19 16 -1 5 -11 9 -172 9 -359z"/>
</g>
</svg>
