<?xml version="1.0" standalone="no"?>
<!DOCTYPE svg PUBLIC "-//W3C//DTD SVG 20010904//EN"
 "http://www.w3.org/TR/2001/REC-SVG-20010904/DTD/svg10.dtd">
<svg version="1.0" xmlns="http://www.w3.org/2000/svg"
 width="1280.000000pt" height="720.000000pt" viewBox="0 0 1280.000000 720.000000"
 preserveAspectRatio="xMidYMid meet">
<metadata>
Created by potrace 1.16, written by Peter Selinger 2001-2019
</metadata>
<g transform="translate(0.000000,720.000000) scale(0.100000,-0.100000)"
fill="#000000" stroke="none">
<path d="M5961 6745 c-24 -19 -50 -35 -57 -35 -19 0 -54 -73 -47 -99 8 -33
-14 -75 -52 -95 -19 -11 -35 -25 -35 -33 0 -7 -4 -13 -10 -13 -5 0 -10 -21
-10 -47 -1 -54 -8 -92 -39 -206 -12 -44 -28 -114 -35 -156 -8 -43 -25 -102
-39 -132 -13 -30 -34 -75 -46 -101 -11 -26 -21 -53 -21 -60 0 -7 -9 -37 -20
-66 -11 -29 -20 -63 -20 -76 0 -14 -7 -31 -15 -40 -8 -8 -15 -19 -15 -23 0 -5
-8 -18 -17 -29 -38 -42 -45 -55 -58 -111 -17 -71 -19 -187 -4 -344 8 -85 9
-143 1 -202 -7 -52 -7 -113 -1 -167 6 -61 4 -118 -6 -200 -8 -63 -21 -191 -30
-285 -9 -93 -25 -240 -35 -325 -32 -253 -34 -279 -20 -295 9 -10 9 -15 1 -15
-6 0 -11 -8 -11 -19 0 -28 70 -234 86 -252 8 -8 14 -21 14 -27 0 -26 54 -143
70 -152 9 -5 26 -7 37 -4 10 3 25 -1 31 -9 10 -12 7 -15 -17 -20 -37 -8 -39
-19 -25 -133 16 -124 17 -127 74 -162 28 -17 50 -36 50 -41 0 -5 8 -12 19 -16
35 -11 61 -42 71 -86 5 -24 19 -78 30 -119 18 -66 20 -100 19 -290 -3 -350 -1
-405 15 -492 8 -46 20 -118 26 -161 14 -95 85 -380 105 -424 9 -19 17 -75 20
-143 5 -101 3 -115 -15 -146 -18 -28 -75 -69 -160 -113 -10 -5 -15 -23 -15
-52 l0 -44 65 -19 c36 -10 81 -18 100 -16 126 10 217 4 289 -19 l74 -24 76 18
c95 23 123 37 140 68 20 37 7 68 -51 128 l-53 54 -6 120 c-4 67 -3 124 2 130
5 5 9 18 9 30 0 11 22 112 49 225 95 397 106 508 66 704 -22 110 -25 145 -20
225 9 138 19 194 55 310 28 90 34 101 51 96 11 -4 26 -1 34 5 8 6 26 10 42 9
34 -3 146 11 161 20 8 5 2 73 -20 222 l-30 215 33 79 c18 44 32 93 31 110 -2
17 4 50 13 74 8 25 24 88 35 142 18 86 20 137 20 449 0 253 -3 357 -12 373
-17 32 -25 520 -13 770 4 72 2 139 -5 170 -10 48 -50 142 -75 175 -21 29 -81
82 -97 88 -19 6 -24 39 -8 49 6 3 10 1 10 -4 0 -6 5 -11 11 -11 6 0 8 9 4 20
-3 11 -8 45 -11 75 -2 35 -13 73 -29 102 -15 25 -33 67 -41 92 -9 25 -22 60
-30 78 -8 17 -27 82 -43 145 -29 115 -40 149 -65 203 -8 17 -29 63 -46 104
-36 84 -82 156 -109 171 -10 5 -42 29 -70 54 -61 51 -155 86 -234 86 -44 0
-58 -5 -96 -35z m209 -5113 c2 -526 2 -519 -9 -507 -9 10 -21 959 -13 985 15
43 20 -81 22 -478z"/>
</g>
</svg>
